<svg class="animated" id="freepik_stories-app-monetization" xmlns="http://www.w3.org/2000/svg" viewBox="0 0 500 500" version="1.1" xmlns:xlink="http://www.w3.org/1999/xlink" xmlns:svgjs="http://svgjs.com/svgjs"><style>svg#freepik_stories-app-monetization:not(.animated) .animable {opacity: 0;}svg#freepik_stories-app-monetization.animated #freepik--background-complete--inject-585 {animation: 1.5s Infinite  linear wind;animation-delay: 0s;}svg#freepik_stories-app-monetization.animated #freepik--Shadow--inject-585 {animation: 1.5s Infinite  linear wind;animation-delay: 0s;}svg#freepik_stories-app-monetization.animated #freepik--Device--inject-585 {animation: 1.5s Infinite  linear floating;animation-delay: 0s;}svg#freepik_stories-app-monetization.animated #freepik--Screen--inject-585 {animation: 1.5s Infinite  linear heartbeat;animation-delay: 0s;}svg#freepik_stories-app-monetization.animated #freepik--Coins--inject-585 {animation: 1.5s Infinite  linear heartbeat;animation-delay: 0s;}svg#freepik_stories-app-monetization.animated #freepik--Character--inject-585 {animation: 1.5s Infinite  linear shake;animation-delay: 0s;}            @keyframes wind {                0% {                    transform: rotate( 0deg );                }                25% {                    transform: rotate( 1deg );                }                75% {                    transform: rotate( -1deg );                }            }                    @keyframes floating {                0% {                    opacity: 1;                    transform: translateY(0px);                }                50% {                    transform: translateY(-10px);                }                100% {                    opacity: 1;                    transform: translateY(0px);                }            }                    @keyframes heartbeat {                0% {                    transform: scale(1);                }                10% {                    transform: scale(1.1);                }                30% {                    transform: scale(1);                }                40% {                    transform: scale(1);                }                50% {                    transform: scale(1.1);                }                60% {                    transform: scale(1);                }                100% {                    transform: scale(1);                }            }                    @keyframes shake {                10%, 90% {                    transform: translate3d(-1px, 0, 0);                  }                  20%, 80% {                    transform: translate3d(2px, 0, 0);                  }                  30%, 50%, 70% {                    transform: translate3d(-4px, 0, 0);                  }                  40%, 60% {                    transform: translate3d(4px, 0, 0);                  }            }        </style><g id="freepik--background-complete--inject-585" class="animable" style="transform-origin: 250px 228.23px;"><rect x="416.78" y="398.49" width="33.12" height="0.25" style="fill: rgb(235, 235, 235); transform-origin: 433.34px 398.615px;" id="elytn8j3d1pnf" class="animable"></rect><rect x="322.53" y="401.21" width="8.69" height="0.25" style="fill: rgb(235, 235, 235); transform-origin: 326.875px 401.335px;" id="el5bzsbpts9do" class="animable"></rect><rect x="396.59" y="389.21" width="19.19" height="0.25" style="fill: rgb(235, 235, 235); transform-origin: 406.185px 389.335px;" id="elmyw0rxygbv" class="animable"></rect><rect x="52.46" y="390.89" width="43.19" height="0.25" style="fill: rgb(235, 235, 235); transform-origin: 74.055px 391.015px;" id="elcjemt3lwz1" class="animable"></rect><rect x="104.56" y="390.89" width="6.33" height="0.25" style="fill: rgb(235, 235, 235); transform-origin: 107.725px 391.015px;" id="elh8hch5r1xx9" class="animable"></rect><rect x="131.47" y="395.11" width="93.68" height="0.25" style="fill: rgb(235, 235, 235); transform-origin: 178.31px 395.235px;" id="eljvd9m02uwf" class="animable"></rect><path d="M237,337.8H43.92a5.71,5.71,0,0,1-5.71-5.71V60.66A5.71,5.71,0,0,1,43.92,55H237a5.71,5.71,0,0,1,5.71,5.71V332.09A5.71,5.71,0,0,1,237,337.8ZM43.92,55.2a5.47,5.47,0,0,0-5.46,5.46V332.09a5.47,5.47,0,0,0,5.46,5.46H237a5.47,5.47,0,0,0,5.46-5.46V60.66A5.47,5.47,0,0,0,237,55.2Z" style="fill: rgb(235, 235, 235); transform-origin: 140.46px 196.4px;" id="eleer3zmwkh5w" class="animable"></path><path d="M453.31,337.8H260.21a5.72,5.72,0,0,1-5.71-5.71V60.66A5.72,5.72,0,0,1,260.21,55h193.1A5.71,5.71,0,0,1,459,60.66V332.09A5.71,5.71,0,0,1,453.31,337.8ZM260.21,55.2a5.47,5.47,0,0,0-5.46,5.46V332.09a5.47,5.47,0,0,0,5.46,5.46h193.1a5.47,5.47,0,0,0,5.46-5.46V60.66a5.47,5.47,0,0,0-5.46-5.46Z" style="fill: rgb(235, 235, 235); transform-origin: 356.75px 196.4px;" id="elr0zpom2r2a" class="animable"></path><rect y="382.4" width="500" height="0.25" style="fill: rgb(235, 235, 235); transform-origin: 250px 382.525px;" id="elpge2j2c65gf" class="animable"></rect><path d="M345.42,134.51A25.53,25.53,0,1,0,341,83.64l-4.91.43a25.53,25.53,0,0,0,4.45,50.87Z" style="fill: rgb(230, 230, 230); transform-origin: 340.766px 109.29px;" id="el5g3kwqmmi1r" class="animable"></path><path d="M352.51,116.86l-37.44,3.28c.23.5.48,1,.74,1.48l36.83-3.22Z" style="fill: rgb(224, 224, 224); transform-origin: 333.855px 119.24px;" id="elq6ofkm5nm3" class="animable"></path><path d="M352,110.87l-38.78,3.39c.1.51.21,1,.34,1.52l38.58-3.38Z" style="fill: rgb(224, 224, 224); transform-origin: 332.68px 113.325px;" id="el4lhin6073i" class="animable"></path><path d="M351.46,104.88l-38.67,3.38c0,.51,0,1,0,1.55l38.83-3.4Z" style="fill: rgb(224, 224, 224); transform-origin: 332.205px 107.345px;" id="el2gass2sm89i" class="animable"></path><path d="M353,122.85l-34.35,3c.42.49.85,1,1.29,1.43l33.2-2.9Z" style="fill: rgb(224, 224, 224); transform-origin: 335.895px 125.065px;" id="el0ea6x1nbmq4l" class="animable"></path><path d="M320.71,91,350,88.43l-.13-1.53-27.16,2.37A25.78,25.78,0,0,0,320.71,91Z" style="fill: rgb(224, 224, 224); transform-origin: 335.355px 88.95px;" id="elti0i4lpyxa" class="animable"></path><path d="M353.56,128.85l-28.5,2.49a25.82,25.82,0,0,0,2.49,1.33l26.14-2.29Z" style="fill: rgb(224, 224, 224); transform-origin: 339.375px 130.76px;" id="eljy7wwzncuo" class="animable"></path><path d="M350.41,92.89l-33.68,3c-.34.53-.65,1.07-1,1.63l34.77-3Z" style="fill: rgb(224, 224, 224); transform-origin: 333.115px 95.205px;" id="el1bkseu4q3z9" class="animable"></path><path d="M350.94,98.88l-37.09,3.25c-.16.52-.3,1.05-.43,1.58l37.65-3.29Z" style="fill: rgb(224, 224, 224); transform-origin: 332.245px 101.295px;" id="elc2lc7xc04pa" class="animable"></path><g id="elqu6mvj6yrw"><circle cx="343.2" cy="109.08" r="25.53" style="fill: rgb(240, 240, 240); transform-origin: 343.2px 109.08px; transform: rotate(-61.89deg);" class="animable" id="eldffuh7vosz9"></circle></g><g id="elegz4vvxykdi"><circle cx="343.2" cy="109.08" r="20.6" style="fill: rgb(250, 250, 250); transform-origin: 343.2px 109.08px; transform: rotate(-72.82deg);" class="animable" id="elr6vne9dnrja"></circle></g><path d="M341.4,88.55c-.42,0-.83.09-1.24.15a20.6,20.6,0,0,1,3.58,41c.42,0,.83,0,1.25-.07a20.6,20.6,0,0,0-3.59-41Z" style="fill: rgb(230, 230, 230); transform-origin: 351.508px 109.125px;" id="elrvk7lyyx48o" class="animable"></path><path d="M348.77,116.82a8.4,8.4,0,0,1-4.77,2.51l.28,3.2-2.86.25-.27-3.11a15.82,15.82,0,0,1-4.1-.4,10.08,10.08,0,0,1-3.23-1.27l1.27-3.63a10.19,10.19,0,0,0,2.66,1.12,11.85,11.85,0,0,0,3.07.43l-.42-4.78a22.06,22.06,0,0,1-3.53-.79,6.07,6.07,0,0,1-2.5-1.55,4.73,4.73,0,0,1-1.21-3,5.52,5.52,0,0,1,1.37-4.22,8.27,8.27,0,0,1,4.81-2.52l-.27-3.17,2.86-.25.27,3.12a12.55,12.55,0,0,1,6,1.23L347,103.64a11.5,11.5,0,0,0-4.51-1.11l.43,4.87a20.87,20.87,0,0,1,3.48.75,5.88,5.88,0,0,1,2.48,1.54,4.66,4.66,0,0,1,1.21,3A5.39,5.39,0,0,1,348.77,116.82ZM338.39,106.3a4.6,4.6,0,0,0,1.64.63l-.35-4.06a3.09,3.09,0,0,0-1.53,1,1.88,1.88,0,0,0-.41,1.34A1.49,1.49,0,0,0,338.39,106.3Zm6.76,8.37a1.69,1.69,0,0,0,.41-1.27,1.55,1.55,0,0,0-.63-1.13,4.87,4.87,0,0,0-1.61-.67l.35,4A3,3,0,0,0,345.15,114.67Z" style="fill: rgb(230, 230, 230); transform-origin: 341.626px 109.21px;" id="elzlsmicl1i0c" class="animable"></path><path d="M350.52,116.67a8.34,8.34,0,0,1-4.77,2.51l.28,3.2-2.86.25-.27-3.12a15.44,15.44,0,0,1-4.1-.39,10.25,10.25,0,0,1-3.22-1.27l1.26-3.63a10.46,10.46,0,0,0,2.67,1.12,11.3,11.3,0,0,0,3.06.42l-.42-4.77a21.66,21.66,0,0,1-3.52-.79,6.13,6.13,0,0,1-2.51-1.56,4.73,4.73,0,0,1-1.21-3,5.53,5.53,0,0,1,1.38-4.23,8.25,8.25,0,0,1,4.81-2.51l-.28-3.18,2.86-.25L344,98.6a12.71,12.71,0,0,1,6,1.24l-1.13,3.65a11.29,11.29,0,0,0-4.51-1.11l.43,4.86a20.87,20.87,0,0,1,3.48.75,6.08,6.08,0,0,1,2.49,1.54,4.75,4.75,0,0,1,1.21,3A5.46,5.46,0,0,1,350.52,116.67Zm-10.38-10.52a4.58,4.58,0,0,0,1.65.63l-.36-4.06a3.08,3.08,0,0,0-1.53,1,1.88,1.88,0,0,0-.4,1.35A1.5,1.5,0,0,0,340.14,106.15Zm6.76,8.37a1.67,1.67,0,0,0,.41-1.28,1.47,1.47,0,0,0-.63-1.12,4.53,4.53,0,0,0-1.6-.67l.34,4A3.06,3.06,0,0,0,346.9,114.52Z" style="fill: rgb(240, 240, 240); transform-origin: 343.435px 109.05px;" id="elao83iqvbegb" class="animable"></path><path d="M94.66,255.91a23.49,23.49,0,0,0-4.91-46.73l-4.51.48a23.49,23.49,0,0,0,4.91,46.72Z" style="fill: rgb(230, 230, 230); transform-origin: 90.068px 232.768px;" id="el2dc79smuctm" class="animable"></path><path d="M100.9,239.56l-34.39,3.61c.22.46.45.91.7,1.35L101,241Z" style="fill: rgb(224, 224, 224); transform-origin: 83.755px 242.04px;" id="elolxrsi1x0a" class="animable"></path><path d="M100.32,234.05,64.7,237.8c.09.47.21.93.33,1.39l35.44-3.73Z" style="fill: rgb(224, 224, 224); transform-origin: 82.585px 236.62px;" id="elxn1dgzumblk" class="animable"></path><path d="M99.74,228.55l-35.52,3.73c0,.47,0,.95,0,1.43L99.89,230Z" style="fill: rgb(224, 224, 224); transform-origin: 82.055px 231.13px;" id="el9skwzcp4w86" class="animable"></path><path d="M101.47,245.06l-31.54,3.32c.38.44.79.88,1.21,1.3l30.48-3.21Z" style="fill: rgb(224, 224, 224); transform-origin: 85.775px 247.37px;" id="elunzb7hohkv" class="animable"></path><path d="M71.23,216.27l26.92-2.83L98,212l-24.94,2.63A21.5,21.5,0,0,0,71.23,216.27Z" style="fill: rgb(224, 224, 224); transform-origin: 84.69px 214.135px;" id="el2egp3j1w7gp" class="animable"></path><path d="M102.05,250.57l-26.17,2.75a25.09,25.09,0,0,0,2.31,1.18l24-2.52Z" style="fill: rgb(224, 224, 224); transform-origin: 89.035px 252.535px;" id="elmc4doa6c5zo" class="animable"></path><path d="M98.58,217.54l-30.93,3.25c-.31.49-.59,1-.85,1.51L98.73,219Z" style="fill: rgb(224, 224, 224); transform-origin: 82.765px 219.92px;" id="el82urajjczkx" class="animable"></path><path d="M99.16,223,65.1,226.62c-.14.49-.26,1-.37,1.47l34.58-3.64Z" style="fill: rgb(224, 224, 224); transform-origin: 82.02px 225.545px;" id="elcnlzz7zm4vd" class="animable"></path><g id="elzsjntt2mkfg"><circle cx="92.21" cy="232.55" r="23.49" style="fill: rgb(240, 240, 240); transform-origin: 92.21px 232.55px; transform: rotate(-2.78deg);" class="animable" id="elx5x0oaj9tfi"></circle></g><g id="elcfl31q6fiuw"><circle cx="92.21" cy="232.55" r="18.95" style="fill: rgb(250, 250, 250); transform-origin: 92.21px 232.55px; transform: rotate(-74.8deg);" class="animable" id="elvkgh5fpji5"></circle></g><path d="M90.23,213.69l-1.15.16a19,19,0,0,1,4,37.63c.38,0,.76,0,1.15-.08a19,19,0,0,0-4-37.71Z" style="fill: rgb(230, 230, 230); transform-origin: 99.5483px 232.577px;" id="elt14aynn7znn" class="animable"></path><path d="M97.46,239.58A7.71,7.71,0,0,1,93.11,242l.31,2.95-2.63.27-.3-2.86a14.36,14.36,0,0,1-3.78-.3,9.3,9.3,0,0,1-3-1.12l1.11-3.35a9.66,9.66,0,0,0,2.47,1,11.24,11.24,0,0,0,2.83.34l-.46-4.39a19.73,19.73,0,0,1-3.26-.67,5.59,5.59,0,0,1-2.33-1.39,4.35,4.35,0,0,1-1.16-2.73,5.12,5.12,0,0,1,1.19-3.92,7.62,7.62,0,0,1,4.39-2.38l-.31-2.92,2.63-.28.3,2.87a11.61,11.61,0,0,1,5.51,1l-1,3.37a10.5,10.5,0,0,0-4.16-.94L92,231a20,20,0,0,1,3.21.64A5.54,5.54,0,0,1,97.48,233a4.29,4.29,0,0,1,1.16,2.71A5,5,0,0,1,97.46,239.58Zm-9.72-9.51a4.11,4.11,0,0,0,1.52.55l-.39-3.73a2.79,2.79,0,0,0-1.39.91,1.69,1.69,0,0,0-.35,1.24A1.35,1.35,0,0,0,87.74,230.07Zm6.35,7.59a1.59,1.59,0,0,0,.36-1.18,1.36,1.36,0,0,0-.6-1,4.16,4.16,0,0,0-1.49-.59l.38,3.62A2.77,2.77,0,0,0,94.09,237.66Z" style="fill: rgb(230, 230, 230); transform-origin: 90.7757px 232.735px;" id="elfm6hckhl95o" class="animable"></path><path d="M99.07,239.41a7.71,7.71,0,0,1-4.35,2.38l.31,3L92.4,245l-.3-2.86a14.36,14.36,0,0,1-3.78-.29,9.37,9.37,0,0,1-3-1.13l1.1-3.35a9.66,9.66,0,0,0,2.47,1,10.8,10.8,0,0,0,2.83.34l-.46-4.39a20,20,0,0,1-3.26-.67,5.65,5.65,0,0,1-2.33-1.39,4.35,4.35,0,0,1-1.16-2.73,5.13,5.13,0,0,1,1.2-3.92,7.62,7.62,0,0,1,4.38-2.38l-.3-2.92,2.62-.28.3,2.87a11.61,11.61,0,0,1,5.51,1l-1,3.37a10.5,10.5,0,0,0-4.16-.94l.47,4.47a18.79,18.79,0,0,1,3.21.63,5.46,5.46,0,0,1,2.31,1.38,4.3,4.3,0,0,1,1.17,2.7A5,5,0,0,1,99.07,239.41Zm-9.72-9.51a4.11,4.11,0,0,0,1.52.55l-.39-3.73a2.79,2.79,0,0,0-1.39.91,1.69,1.69,0,0,0-.35,1.24A1.35,1.35,0,0,0,89.35,229.9Zm6.35,7.59a1.55,1.55,0,0,0,.36-1.18,1.38,1.38,0,0,0-.6-1A4.16,4.16,0,0,0,94,234.7l.39,3.63A2.87,2.87,0,0,0,95.7,237.49Z" style="fill: rgb(240, 240, 240); transform-origin: 92.3701px 232.515px;" id="elu6p2cjjf75i" class="animable"></path><path d="M407.78,267a18,18,0,0,0,22.67-28l-2.7-2.19a18,18,0,0,0-22.68,28Z" style="fill: rgb(230, 230, 230); transform-origin: 417.757px 251.901px;" id="elkv0i0igdoy" class="animable"></path><path d="M420,261.49l-20.6-16.69q-.19.55-.36,1.11l20.28,16.42Z" style="fill: rgb(224, 224, 224); transform-origin: 409.52px 253.565px;" id="el6y1g6ixapne" class="animable"></path><path d="M422.7,258.19,401.35,240.9c-.2.31-.39.62-.58.94L422,259Z" style="fill: rgb(224, 224, 224); transform-origin: 411.735px 249.95px;" id="el1st026zw92g" class="animable"></path><path d="M425.37,254.89l-21.29-17.24c-.26.25-.52.51-.77.78l21.37,17.31Z" style="fill: rgb(224, 224, 224); transform-origin: 414.34px 246.695px;" id="elk49ltk20bb" class="animable"></path><path d="M417.35,264.79l-18.9-15.31c0,.45-.05.9-.05,1.36l18.27,14.79Z" style="fill: rgb(224, 224, 224); transform-origin: 407.875px 257.555px;" id="elr2bng6fal9" class="animable"></path><path d="M416.56,232.77l16.14,13.07.68-.85-14.95-12.1C417.81,232.82,417.19,232.78,416.56,232.77Z" style="fill: rgb(224, 224, 224); transform-origin: 424.97px 239.305px;" id="elv7cs5k5kp8o" class="animable"></path><path d="M414.68,268.09,399,255.38a18.32,18.32,0,0,0,.62,1.9L414,268.93Z" style="fill: rgb(224, 224, 224); transform-origin: 406.84px 262.155px;" id="elcucga241vn9" class="animable"></path><path d="M430.71,248.29l-18.54-15c-.43.1-.86.22-1.28.36L430,249.14Z" style="fill: rgb(224, 224, 224); transform-origin: 420.8px 241.215px;" id="elvbcfcaahv2" class="animable"></path><path d="M428,251.59l-20.42-16.53c-.33.19-.66.38-1,.59l20.72,16.79Z" style="fill: rgb(224, 224, 224); transform-origin: 417.29px 243.75px;" id="el3w8d3sf9o5r" class="animable"></path><g id="el3bffxqlra0w"><circle cx="419.11" cy="252.97" r="18.02" style="fill: rgb(240, 240, 240); transform-origin: 419.11px 252.97px; transform: rotate(-89.05deg);" class="animable" id="elm8i6u6dofws"></circle></g><g id="eleno4zlzzfv"><circle cx="419.11" cy="252.97" r="14.54" style="fill: rgb(250, 250, 250); transform-origin: 419.11px 252.97px; transform: rotate(-23.13deg);" class="animable" id="el5wyiycrmmhb"></circle></g><path d="M428.26,241.68c-.23-.19-.46-.37-.7-.54a14.53,14.53,0,0,1-18.26,22.55c.21.2.43.39.67.58a14.53,14.53,0,1,0,18.29-22.59Z" style="fill: rgb(230, 230, 230); transform-origin: 421.474px 254.324px;" id="elfsba4rdu3wl" class="animable"></path><path d="M418.15,259.64a6,6,0,0,1-3.65-1.07l-1.43,1.76-1.58-1.27,1.39-1.72a11,11,0,0,1-1.89-2.21,7.38,7.38,0,0,1-1-2.22l2.42-1.22a7.16,7.16,0,0,0,.81,1.87,8,8,0,0,0,1.34,1.72l2.13-2.63a14.5,14.5,0,0,1-1.4-2.13,4.23,4.23,0,0,1-.51-2,3.35,3.35,0,0,1,.85-2.12,3.92,3.92,0,0,1,2.77-1.47,5.86,5.86,0,0,1,3.68,1.08l1.41-1.75,1.58,1.28-1.39,1.72a9,9,0,0,1,2.42,3.55l-2.36,1.3a8,8,0,0,0-1.75-2.77L419.81,252a15.37,15.37,0,0,1,1.41,2.09,4.24,4.24,0,0,1,.5,2,3.34,3.34,0,0,1-.84,2.1A3.87,3.87,0,0,1,418.15,259.64ZM418,249.21a3,3,0,0,0,.52,1.12l1.81-2.23a2.22,2.22,0,0,0-1.25-.27,1.33,1.33,0,0,0-.86.49A1,1,0,0,0,418,249.21Zm-.68,7.56a1.17,1.17,0,0,0,.83-.45,1,1,0,0,0,.23-.88,3.21,3.21,0,0,0-.48-1.12l-1.76,2.17A2.16,2.16,0,0,0,417.36,256.77Z" style="fill: rgb(230, 230, 230); transform-origin: 418.045px 252.295px;" id="elc015knpxvpp" class="animable"></path><path d="M419.11,260.42a5.91,5.91,0,0,1-3.65-1.07L414,261.12l-1.57-1.28,1.39-1.72a10.56,10.56,0,0,1-1.89-2.2,7,7,0,0,1-1-2.23l2.42-1.22a7.32,7.32,0,0,0,.8,1.87,7.77,7.77,0,0,0,1.35,1.72l2.13-2.63a15.52,15.52,0,0,1-1.41-2.13,4.33,4.33,0,0,1-.5-2,3.32,3.32,0,0,1,.85-2.12,3.9,3.9,0,0,1,2.77-1.47,5.84,5.84,0,0,1,3.67,1.08l1.42-1.74,1.57,1.27L424.63,248a8.88,8.88,0,0,1,2.42,3.55l-2.36,1.3a8,8,0,0,0-1.74-2.77l-2.17,2.67a14.34,14.34,0,0,1,1.4,2.09,4.28,4.28,0,0,1,.51,2,3.32,3.32,0,0,1-.84,2.1A3.87,3.87,0,0,1,419.11,260.42ZM419,250a3.25,3.25,0,0,0,.52,1.13l1.81-2.24a2.19,2.19,0,0,0-1.24-.27,1.34,1.34,0,0,0-.86.49A1,1,0,0,0,419,250Zm-.67,7.56a1.14,1.14,0,0,0,.83-.45,1,1,0,0,0,.23-.88,3.26,3.26,0,0,0-.49-1.12l-1.76,2.17A2.1,2.1,0,0,0,418.33,257.55Z" style="fill: rgb(240, 240, 240); transform-origin: 418.99px 253.085px;" id="elcnop6sflae8" class="animable"></path><g id="els55viwqnm7e"><rect x="241.01" y="96.77" width="39.08" height="39.08" rx="8.32" style="fill: rgb(235, 235, 235); transform-origin: 260.55px 116.31px; transform: rotate(-6deg);" class="animable" id="elp4xmz1t7dk"></rect></g><path d="M247.7,122.94l-.06-.57a5,5,0,0,1,3.94-5.53,4.81,4.81,0,0,1,3,.39A7.15,7.15,0,0,1,268,115.12a4.2,4.2,0,0,1,3.49.8,6,6,0,0,1,2.42,4.26h0a2.68,2.68,0,0,1-2.38,2.95l-20.87,2.19A2.67,2.67,0,0,1,247.7,122.94Z" style="fill: rgb(250, 250, 250); transform-origin: 260.762px 118.284px;" id="el221ljze9nxy" class="animable"></path><g id="eldyg8kr3uv1j"><rect x="399.79" y="132.18" width="33.94" height="33.94" rx="8.32" style="fill: rgb(240, 240, 240); transform-origin: 416.76px 149.15px; transform: rotate(7deg);" class="animable" id="elovlzdcp1b6l"></rect></g><path d="M415.87,140.47l8.47,8.18a2.47,2.47,0,0,1-.48,3.9l-10.19,5.89A2.45,2.45,0,0,1,410,156l1.72-14.09A2.46,2.46,0,0,1,415.87,140.47Z" style="fill: rgb(224, 224, 224); transform-origin: 417.531px 149.277px;" id="el6jrovs9ibq" class="animable"></path></g><g id="freepik--Shadow--inject-585" class="animable" style="transform-origin: 245.18px 412.39px;"><ellipse id="freepik--path--inject-585" cx="245.18" cy="412.39" rx="193.89" ry="11.32" style="fill: rgb(245, 245, 245); transform-origin: 245.18px 412.39px;" class="animable"></ellipse></g><g id="freepik--Device--inject-585" class="animable" style="transform-origin: 301.217px 285.765px;"><path d="M245.79,165.76h20.82l21,240H266.79a19.46,19.46,0,0,1-19-17.47L229.84,183.23A15.76,15.76,0,0,1,245.79,165.76Z" style="fill: rgb(38, 50, 56); transform-origin: 258.678px 285.759px;" id="el4uaogmbr7ut" class="animable"></path><path d="M232.9,189.83a1.87,1.87,0,0,0-1.83-1.68,1.51,1.51,0,0,0-1.52,1.68l1.4,16.08a1.87,1.87,0,0,0,1.82,1.67,1.51,1.51,0,0,0,1.53-1.67Z" style="fill: #FFC100; transform-origin: 231.924px 197.865px;" id="el7zvhmvgcr2s" class="animable"></path><g id="ellfx1u4g08db"><path d="M232.9,189.83a1.87,1.87,0,0,0-1.83-1.68,1.51,1.51,0,0,0-1.52,1.68l1.4,16.08a1.87,1.87,0,0,0,1.82,1.67,1.51,1.51,0,0,0,1.53-1.67Z" style="fill: rgb(255, 255, 255); opacity: 0.3; transform-origin: 231.924px 197.865px;" class="animable" id="elxift2jzdtkl"></path></g><path d="M271.05,405.77h85.8A15.76,15.76,0,0,0,372.8,388.3L354.86,183.23a19.46,19.46,0,0,0-19-17.47H250.06a15.75,15.75,0,0,0-15.95,17.47L252.05,388.3A19.44,19.44,0,0,0,271.05,405.77Z" style="fill: #FFC100; transform-origin: 303.454px 285.765px;" id="el0y65vmwe417" class="animable"></path><path d="M250.41,169.76h22.3a3.25,3.25,0,0,1,3.1,2.54l.15.7a7.9,7.9,0,0,0,7.57,6.19h21.2a6.37,6.37,0,0,0,6.49-6.19l0-.7a2.62,2.62,0,0,1,2.66-2.54h22.3a15,15,0,0,1,14.65,13.47L368.79,388.3a12.14,12.14,0,0,1-12.29,13.46H270.7a15,15,0,0,1-14.64-13.46L238.12,183.23A12.14,12.14,0,0,1,250.41,169.76Z" style="fill: #FFC100; transform-origin: 303.454px 285.76px;" id="elh4ppndexbzo" class="animable"></path><g id="elr1e9l92stes"><path d="M250.41,169.76h22.3a3.25,3.25,0,0,1,3.1,2.54l.15.7a7.9,7.9,0,0,0,7.57,6.19h21.2a6.37,6.37,0,0,0,6.49-6.19l0-.7a2.62,2.62,0,0,1,2.66-2.54h22.3a15,15,0,0,1,14.65,13.47L368.79,388.3a12.14,12.14,0,0,1-12.29,13.46H270.7a15,15,0,0,1-14.64-13.46L238.12,183.23A12.14,12.14,0,0,1,250.41,169.76Z" style="fill: rgb(255, 255, 255); opacity: 0.8; transform-origin: 303.454px 285.76px;" class="animable" id="elbgauvvemza7"></path></g><g id="el1u3trqn3xolh"><g style="opacity: 0.2; transform-origin: 293.504px 172.015px;" class="animable" id="elljgycvj1y3"><path d="M298.69,172a1.89,1.89,0,0,0,1.86,1.7,1.53,1.53,0,0,0,1.55-1.7,1.9,1.9,0,0,0-1.85-1.71A1.55,1.55,0,0,0,298.69,172Z" id="elmabv1wh95t" class="animable" style="transform-origin: 300.396px 171.995px;"></path><path d="M286.46,170.33h5.84a1.92,1.92,0,0,1,1.86,1.71,1.54,1.54,0,0,1-1.56,1.7h-5.84a1.89,1.89,0,0,1-1.85-1.7A1.53,1.53,0,0,1,286.46,170.33Z" id="elzenphieh04b" class="animable" style="transform-origin: 289.534px 172.035px;"></path></g></g><g id="elz4l87ipw4l"><g style="opacity: 0.2; transform-origin: 336.405px 176.445px;" class="animable" id="elx7exstgnw5d"><polygon points="341.15 179.15 339.35 179.15 339.19 177.35 340.99 177.35 341.15 179.15" id="elegi8putw07i" class="animable" style="transform-origin: 340.17px 178.25px;"></polygon><polygon points="337.38 177.35 337.54 179.15 335.74 179.15 335.58 177.35 335.42 175.54 337.23 175.54 337.38 177.35" id="el7nyewl291t" class="animable" style="transform-origin: 336.48px 177.345px;"></polygon><polygon points="333.46 173.74 333.62 175.54 333.78 177.35 333.94 179.15 332.13 179.15 331.97 177.35 331.81 175.54 331.66 173.74 333.46 173.74" id="elx991ei6bmo" class="animable" style="transform-origin: 332.8px 176.445px;"></polygon></g></g><g id="elrrxdn9y1ni"><path d="M247.94,173.86l.47,5.29h7.94l-.12-1.32h.88l-.23-2.65H256l-.12-1.32Zm4.53,1.32h2.65l.23,2.65H252.7Z" style="opacity: 0.2; transform-origin: 252.525px 176.505px;" class="animable" id="el3hn4xvyyb83"></path></g><g id="elyxwlh9ucrsm"><g style="opacity: 0.2; transform-origin: 312.825px 394.625px;" class="animable" id="eltrdhhm9hq4"><path d="M287.14,395.84h51.58c1.56,0,1.35-2.43-.21-2.43H286.93c-1.56,0-1.35,2.43.21,2.43Z" id="elotlyxc6jmwb" class="animable" style="transform-origin: 312.825px 394.625px;"></path></g></g><path d="M353.29,350.1H341.56a7.5,7.5,0,0,1-7.33-6.74l-1-11.74a6.08,6.08,0,0,1,6.15-6.74h11.74a7.51,7.51,0,0,1,7.33,6.74l1,11.74A6.08,6.08,0,0,1,353.29,350.1Z" style="fill: #FFC100; transform-origin: 346.34px 337.49px;" id="elwgg437izjm" class="animable"></path><g id="el2bdlqaxx4dc"><path d="M353.29,350.1H341.56a7.5,7.5,0,0,1-7.33-6.74l-1-11.74a6.08,6.08,0,0,1,6.15-6.74h11.74a7.51,7.51,0,0,1,7.33,6.74l1,11.74A6.08,6.08,0,0,1,353.29,350.1Z" style="fill: rgb(255, 255, 255); opacity: 0.5; transform-origin: 346.34px 337.49px;" class="animable" id="elqt0q37xzwg"></path></g><path d="M349.92,311.54H338.19a7.5,7.5,0,0,1-7.33-6.74l-1-11.73a6.07,6.07,0,0,1,6.15-6.74h11.74a7.5,7.5,0,0,1,7.33,6.74l1,11.73A6.08,6.08,0,0,1,349.92,311.54Z" style="fill: #FFC100; transform-origin: 342.969px 298.935px;" id="eloz11laz75r" class="animable"></path><g id="el4m3vi6nxw82"><path d="M349.92,311.54H338.19a7.5,7.5,0,0,1-7.33-6.74l-1-11.73a6.07,6.07,0,0,1,6.15-6.74h11.74a7.5,7.5,0,0,1,7.33,6.74l1,11.73A6.08,6.08,0,0,1,349.92,311.54Z" style="fill: rgb(255, 255, 255); opacity: 0.5; transform-origin: 342.969px 298.935px;" class="animable" id="eluvc60m2c5a"></path></g><path d="M311.42,311.54H299.69a7.5,7.5,0,0,1-7.33-6.74l-1-11.73a6.07,6.07,0,0,1,6.15-6.74h11.74a7.5,7.5,0,0,1,7.33,6.74l1,11.73A6.07,6.07,0,0,1,311.42,311.54Z" style="fill: #FFC100; transform-origin: 304.47px 298.935px;" id="eli9trks0uel" class="animable"></path><g id="elcim0nyszb5k"><path d="M311.42,311.54H299.69a7.5,7.5,0,0,1-7.33-6.74l-1-11.73a6.07,6.07,0,0,1,6.15-6.74h11.74a7.5,7.5,0,0,1,7.33,6.74l1,11.73A6.07,6.07,0,0,1,311.42,311.54Z" style="fill: rgb(255, 255, 255); opacity: 0.5; transform-origin: 304.47px 298.935px;" class="animable" id="elbnn28soj6yu"></path></g><path d="M272.92,311.54H261.19a7.5,7.5,0,0,1-7.33-6.74l-1-11.73a6.08,6.08,0,0,1,6.15-6.74h11.74a7.5,7.5,0,0,1,7.33,6.74l1,11.73A6.08,6.08,0,0,1,272.92,311.54Z" style="fill: #FFC100; transform-origin: 265.97px 298.935px;" id="els8iuw76pzas" class="animable"></path><path d="M314.8,350.1H303.06a7.51,7.51,0,0,1-7.33-6.74l-1-11.74a6.08,6.08,0,0,1,6.15-6.74h11.74a7.5,7.5,0,0,1,7.33,6.74l1,11.74A6.08,6.08,0,0,1,314.8,350.1Z" style="fill: #FFC100; transform-origin: 307.84px 337.49px;" id="ellnva5yv5vj8" class="animable"></path><g id="elkl6r5yj9nx"><path d="M314.8,350.1H303.06a7.51,7.51,0,0,1-7.33-6.74l-1-11.74a6.08,6.08,0,0,1,6.15-6.74h11.74a7.5,7.5,0,0,1,7.33,6.74l1,11.74A6.08,6.08,0,0,1,314.8,350.1Z" style="fill: rgb(255, 255, 255); opacity: 0.5; transform-origin: 307.84px 337.49px;" class="animable" id="el6gwysg8dfyq"></path></g><path d="M268.78,295.37c.19,2.15-.75,3.89-2.9,3.89s-3.39-1.74-3.58-3.89.75-3.89,2.9-3.89S268.59,293.22,268.78,295.37Z" style="fill: rgb(255, 255, 255); transform-origin: 265.54px 295.37px;" id="elwsc3wnnmkb" class="animable"></path><path d="M266.5,306.39h6l-.31-3.57c-.18-2-3-3.56-6.31-3.56s-5.85,1.59-5.68,3.56l.31,3.57Z" style="fill: rgb(255, 255, 255); transform-origin: 266.346px 302.825px;" id="el3d86hi5opqa" class="animable"></path><path d="M337.92,340.87l0-.36a2.93,2.93,0,0,1,2.61-3.29,3.3,3.3,0,0,1,1.93.46,4.13,4.13,0,0,1,4.15-3.42,5.14,5.14,0,0,1,4.57,3,2.88,2.88,0,0,1,2.25.75,4.22,4.22,0,0,1,1.52,2.89h0a1.56,1.56,0,0,1-1.58,1.73H339.8A1.93,1.93,0,0,1,337.92,340.87Z" style="fill: rgb(255, 255, 255); transform-origin: 346.428px 338.445px;" id="elqn8ee3cdmo" class="animable"></path><path d="M302.46,292.61l7.44,5.27a1.84,1.84,0,0,1,.26,2.92l-6.52,5.27a2,2,0,0,1-3.06-1.46l-.92-10.54A1.71,1.71,0,0,1,302.46,292.61Z" style="fill: #FFC100; transform-origin: 305.208px 299.297px;" id="elfourbtpc9ab" class="animable"></path><path d="M346,305.61h-4.91a4.7,4.7,0,0,1-4.59-4.22l-.43-4.91a3.8,3.8,0,0,1,3.85-4.22h4.91a4.7,4.7,0,0,1,4.59,4.22l.43,4.91A3.8,3.8,0,0,1,346,305.61Z" style="fill: #FFC100; transform-origin: 342.96px 298.935px;" id="elygmbdwsbjdg" class="animable"></path><path d="M309,333.38h0a1.17,1.17,0,0,1-1.19,1h-5.25a1.18,1.18,0,0,0-1.2,1.31l.52,5.95a1.46,1.46,0,0,0,1.43,1.31h10a1.18,1.18,0,0,0,1.19-1.31l-.48-5.56-.15-1.7-.07-.77a1.46,1.46,0,0,0-1.43-1.31H310.2A1.18,1.18,0,0,0,309,333.38Z" style="fill: rgb(255, 255, 255); transform-origin: 307.93px 337.625px;" id="el9dyrds974d4" class="animable"></path><path d="M345.65,298.93a2.43,2.43,0,0,1-2.46,2.7,3,3,0,0,1-2.93-2.7,2.42,2.42,0,0,1,2.46-2.69A3,3,0,0,1,345.65,298.93Z" style="fill: rgb(255, 255, 255); transform-origin: 342.955px 298.935px;" id="elxdo3l29nrnp" class="animable"></path><path d="M347.1,295.35a.8.8,0,0,1-.8.89,1,1,0,0,1-1-.89.8.8,0,0,1,.81-.88A1,1,0,0,1,347.1,295.35Z" style="fill: rgb(255, 255, 255); transform-origin: 346.201px 295.355px;" id="elubway8tbg1i" class="animable"></path><path d="M276.3,350.1H264.56a7.51,7.51,0,0,1-7.33-6.74l-1-11.74a6.08,6.08,0,0,1,6.16-6.74h11.73a7.5,7.5,0,0,1,7.33,6.74l1,11.74A6.08,6.08,0,0,1,276.3,350.1Z" style="fill: #FFC100; transform-origin: 269.34px 337.49px;" id="el0d3qebyelr9" class="animable"></path><g id="elvsmm6fizb7i"><path d="M276.3,350.1H264.56a7.51,7.51,0,0,1-7.33-6.74l-1-11.74a6.08,6.08,0,0,1,6.16-6.74h11.73a7.5,7.5,0,0,1,7.33,6.74l1,11.74A6.08,6.08,0,0,1,276.3,350.1Z" style="fill: rgb(255, 255, 255); opacity: 0.5; transform-origin: 269.34px 337.49px;" class="animable" id="els6zwzpnkpzc"></path></g><path d="M268.7,330.35a6.43,6.43,0,0,0-6.51,7.14,7.62,7.62,0,0,0,1,3.08l-.33,4,4-.69a7.48,7.48,0,0,0,3.14.71,6.43,6.43,0,0,0,6.51-7.14A8,8,0,0,0,268.7,330.35Z" style="fill: #FFC100; transform-origin: 269.35px 337.47px;" id="ela79grptuokr" class="animable"></path><path d="M273,339.81a6.15,6.15,0,0,0-5.94-5.47,2.63,2.63,0,0,0-1.8.45c-.26.29.06,1,.72,1.63s1.41.87,1.68.58a2.59,2.59,0,0,0,.34-1.26,5,5,0,0,1,3.53,3.25,2.3,2.3,0,0,0-1.21.45c-.27.29.05,1,.71,1.63s1.42.86,1.68.57A2.57,2.57,0,0,0,273,339.81Z" style="fill: rgb(255, 255, 255); transform-origin: 269.113px 338.043px;" id="elwqjc5idwo79" class="animable"></path><path d="M345.41,274.28H260.84a9.81,9.81,0,0,1-9.59-8.82h0a8,8,0,0,1,8.05-8.82h84.57a9.81,9.81,0,0,1,9.59,8.82h0A8,8,0,0,1,345.41,274.28Z" style="fill: rgb(255, 255, 255); transform-origin: 302.355px 265.46px;" id="eley75np6n0on" class="animable"></path><g id="elur6yhg9dab"><path d="M304.36,261.09a4.43,4.43,0,1,0,.4,6.69,1,1,0,0,0,.24,1.16l2.73,2.51a1,1,0,0,0,1.37,0,1,1,0,0,0-.12-1.37l-2.73-2.51a1,1,0,0,0-1.17-.14A4.68,4.68,0,0,0,304.36,261.09Zm-.47,5.57a3.42,3.42,0,1,1-.4-4.61A3.26,3.26,0,0,1,303.89,266.66Z" style="opacity: 0.2; transform-origin: 303.277px 265.95px;" class="animable" id="elps6elv8ohqc"></path></g><path d="M251.12,201.93l.95,10.78h-2l-.8-9.1H247l-.14-1.68Z" style="fill: #FFC100; transform-origin: 249.465px 207.32px;" id="elqiow3xno3fp" class="animable"></path><path d="M260.61,207.4a3.14,3.14,0,0,1,1,2.07,2.9,2.9,0,0,1-.33,1.71,2.86,2.86,0,0,1-1.33,1.23,5.21,5.21,0,0,1-2.3.45,7.87,7.87,0,0,1-2.26-.33,6.34,6.34,0,0,1-1.9-.92l.72-1.55a4.84,4.84,0,0,0,1.5.78,5.52,5.52,0,0,0,1.75.28,2.64,2.64,0,0,0,1.63-.44,1.28,1.28,0,0,0,.51-1.19,1.54,1.54,0,0,0-.68-1.18,3.19,3.19,0,0,0-1.8-.42h-1l-.12-1.37,2.2-2.91h-4.9l-.14-1.68h7.34l.11,1.34-2.34,3.11A4,4,0,0,1,260.61,207.4Z" style="fill: #FFC100; transform-origin: 257.394px 207.396px;" id="elgrkq2rvi91v" class="animable"></path><path d="M262.94,206.59a1.33,1.33,0,0,1-.45-.92,1.1,1.1,0,0,1,1.15-1.27,1.32,1.32,0,0,1,.93.35,1.34,1.34,0,0,1,.44.92,1.13,1.13,0,0,1-.29.92,1.12,1.12,0,0,1-.86.36A1.32,1.32,0,0,1,262.94,206.59Zm.51,5.86a1.31,1.31,0,0,1-.45-.91,1.17,1.17,0,0,1,.28-.93,1.15,1.15,0,0,1,.87-.35,1.35,1.35,0,0,1,1.37,1.28,1.08,1.08,0,0,1-.29.91,1.12,1.12,0,0,1-.86.36A1.33,1.33,0,0,1,263.45,212.45Z" style="fill: #FFC100; transform-origin: 264.004px 208.604px;" id="eli6bxb9sxam9" class="animable"></path><path d="M269.06,212.21a5,5,0,0,1-1.77-1.91,7.48,7.48,0,0,1-.84-3,6.7,6.7,0,0,1,.32-3,4,4,0,0,1,1.43-1.91,4,4,0,0,1,2.26-.65,4.54,4.54,0,0,1,2.37.65,5,5,0,0,1,1.77,1.91,7.33,7.33,0,0,1,.85,3,6.85,6.85,0,0,1-.32,3,3.77,3.77,0,0,1-3.7,2.56A4.49,4.49,0,0,1,269.06,212.21Zm3.95-2a4.75,4.75,0,0,0,.42-2.85,5.36,5.36,0,0,0-.91-2.85,2.36,2.36,0,0,0-1.91-.95,1.91,1.91,0,0,0-1.73.95,4.75,4.75,0,0,0-.42,2.85,5.36,5.36,0,0,0,.92,2.85,2.32,2.32,0,0,0,1.89,1A1.92,1.92,0,0,0,273,210.17Z" style="fill: #FFC100; transform-origin: 270.949px 207.301px;" id="elnpe3wg4dqp" class="animable"></path><path d="M279.42,212.21a5,5,0,0,1-1.77-1.91,7.49,7.49,0,0,1-.85-3,6.69,6.69,0,0,1,.33-3,3.9,3.9,0,0,1,1.43-1.91,3.94,3.94,0,0,1,2.25-.65,4.58,4.58,0,0,1,2.38.65,5,5,0,0,1,1.77,1.91,7.49,7.49,0,0,1,.85,3,6.69,6.69,0,0,1-.33,3,3.86,3.86,0,0,1-1.44,1.91,4,4,0,0,1-2.26.65A4.48,4.48,0,0,1,279.42,212.21Zm3.95-2a4.75,4.75,0,0,0,.42-2.85,5.36,5.36,0,0,0-.92-2.85,2.34,2.34,0,0,0-1.91-.95,1.91,1.91,0,0,0-1.72.95,4.75,4.75,0,0,0-.42,2.85,5.36,5.36,0,0,0,.92,2.85,2.32,2.32,0,0,0,1.89,1A1.92,1.92,0,0,0,283.37,210.17Z" style="fill: #FFC100; transform-origin: 281.305px 207.3px;" id="elsnonf3oq06c" class="animable"></path><path d="M319,211.8l.08,1h-4.55l-.06-.76,2.24-2.33a2.41,2.41,0,0,0,.5-.69,1.39,1.39,0,0,0,.1-.59.87.87,0,0,0-.35-.66,1.49,1.49,0,0,0-.88-.23,1.58,1.58,0,0,0-1.39.64l-.85-.61a2,2,0,0,1,.91-.76,3.18,3.18,0,0,1,1.34-.27,2.69,2.69,0,0,1,1.65.48,1.73,1.73,0,0,1,.71,1.3,2,2,0,0,1-.13.94,3.06,3.06,0,0,1-.72,1l-1.51,1.57Z" style="fill: #FFC100; transform-origin: 316.46px 209.669px;" id="elxs4zdnfec0s" class="animable"></path><path d="M323.35,209.5a1.87,1.87,0,0,1,.74,1.38,1.76,1.76,0,0,1-.18,1,1.72,1.72,0,0,1-.76.72,3,3,0,0,1-1.32.26,4.4,4.4,0,0,1-1.3-.19,3.62,3.62,0,0,1-1.08-.52l.4-.89a3.23,3.23,0,0,0,.87.44,3.12,3.12,0,0,0,1,.16,1.5,1.5,0,0,0,.94-.25.73.73,0,0,0,.28-.69.87.87,0,0,0-.43-.72,2.67,2.67,0,0,0-1.31-.24h-1.49l0-3.36h3.62l.08,1h-2.65V209h.59A3.25,3.25,0,0,1,323.35,209.5Z" style="fill: #FFC100; transform-origin: 321.776px 209.731px;" id="el5n49x4d3f6c" class="animable"></path><path d="M325.22,209.29a1.67,1.67,0,0,1-.58-.54,1.51,1.51,0,0,1-.27-.74,1.31,1.31,0,0,1,.14-.74,1.22,1.22,0,0,1,.49-.54,1.41,1.41,0,0,1,.74-.2,1.62,1.62,0,0,1,.78.2,1.69,1.69,0,0,1,.59.54,1.5,1.5,0,0,1,.26.74,1.4,1.4,0,0,1-.13.74,1.37,1.37,0,0,1-.5.54,1.41,1.41,0,0,1-.74.19A1.61,1.61,0,0,1,325.22,209.29Zm1.34-.64a.82.82,0,0,0,.19-.64.91.91,0,0,0-.31-.64.92.92,0,0,0-.65-.26.8.8,0,0,0-.61.26.79.79,0,0,0-.2.64,1,1,0,0,0,1,.89A.79.79,0,0,0,326.56,208.65Z" style="fill: #FFC100; transform-origin: 325.87px 208.005px;" id="elm927zmaxa98" class="animable"></path><path d="M339.86,212.86H329.39a1.83,1.83,0,0,1-1.79-1.65l0-.28a2.55,2.55,0,0,1,2.28-2.86,2.88,2.88,0,0,1,1.32.22,3.47,3.47,0,0,1,3.4-2.5,4.35,4.35,0,0,1,3.74,2.28,2.58,2.58,0,0,1,1.75.67,3.6,3.6,0,0,1,1.3,2.47A1.49,1.49,0,0,1,339.86,212.86Zm-9.74-4.17H330a2,2,0,0,0-1.75,2.23l0,.28a1.14,1.14,0,0,0,1.11,1H339.8a.92.92,0,0,0,.93-1,2.89,2.89,0,0,0-1.05-2,1.91,1.91,0,0,0-1.49-.51l-.24,0-.1-.23a3.66,3.66,0,0,0-3.22-2.09,2.92,2.92,0,0,0-2.93,2.41l-.08.41-.37-.22A2.23,2.23,0,0,0,330.12,208.69Z" style="fill: #FFC100; transform-origin: 334.489px 209.325px;" id="elnhxh4smkoar" class="animable"></path><path d="M340.93,206.35a1.45,1.45,0,0,1-1.41-1.3,1.17,1.17,0,0,1,1.19-1.3,1.45,1.45,0,0,1,1.41,1.3A1.18,1.18,0,0,1,340.93,206.35Zm-.19-2.24a.85.85,0,0,0-.86.94,1.05,1.05,0,0,0,1,.93.85.85,0,0,0,.86-.93A1.05,1.05,0,0,0,340.74,204.11Z" style="fill: #FFC100; transform-origin: 340.819px 205.05px;" id="elzbak1c60ams" class="animable"></path><polygon points="340.84 203.18 340.48 203.18 340.36 201.82 340.72 201.82 340.84 203.18" style="fill: #FFC100; transform-origin: 340.6px 202.5px;" id="elvllwf6pdw1n" class="animable"></polygon><polygon points="341.28 208.28 340.92 208.28 340.8 206.92 341.17 206.92 341.28 208.28" style="fill: #FFC100; transform-origin: 341.04px 207.6px;" id="elgt5vo2vskoe" class="animable"></polygon><polygon points="344.07 205.23 342.71 205.23 342.68 204.87 344.03 204.87 344.07 205.23" style="fill: #FFC100; transform-origin: 343.375px 205.05px;" id="el3eyw259qw5p" class="animable"></polygon><polygon points="338.97 205.23 337.61 205.23 337.57 204.87 338.93 204.87 338.97 205.23" style="fill: #FFC100; transform-origin: 338.27px 205.05px;" id="elljasgxtrhpa" class="animable"></polygon><polygon points="342.17 203.85 341.89 203.6 342.76 202.64 343.04 202.89 342.17 203.85" style="fill: #FFC100; transform-origin: 342.465px 203.245px;" id="elxnnn76847c" class="animable"></polygon><polygon points="338.88 207.46 338.6 207.2 339.48 206.24 339.75 206.5 338.88 207.46" style="fill: #FFC100; transform-origin: 339.175px 206.85px;" id="eloky74j0raqe" class="animable"></polygon><polygon points="343.19 207.46 342.14 206.5 342.38 206.24 343.42 207.2 343.19 207.46" style="fill: #FFC100; transform-origin: 342.78px 206.85px;" id="elqcck82yq6o" class="animable"></polygon><polygon points="339.27 203.85 338.22 202.89 338.45 202.64 339.5 203.6 339.27 203.85" style="fill: #FFC100; transform-origin: 338.86px 203.245px;" id="eldn95dd32r7i" class="animable"></polygon></g><g id="freepik--Screen--inject-585" class="animable" style="transform-origin: 165.115px 241.091px;"><path d="M106.18,112.22H131A3.59,3.59,0,0,1,134.4,115l.17.77a8.78,8.78,0,0,0,8.41,6.88h23.56a7.08,7.08,0,0,0,7.21-6.88l0-.77a2.9,2.9,0,0,1,2.95-2.82h24.78a16.66,16.66,0,0,1,16.27,15L237.71,355a13.49,13.49,0,0,1-13.65,15H128.73a16.66,16.66,0,0,1-16.27-15L92.52,127.18A13.49,13.49,0,0,1,106.18,112.22Z" style="fill: #FFC100; transform-origin: 165.117px 241.091px;" id="ellt98ol5u3gc" class="animable"></path><g id="eldaul9yqjjbm"><path d="M106.18,112.22H131A3.59,3.59,0,0,1,134.4,115l.17.77a8.78,8.78,0,0,0,8.41,6.88h23.56a7.08,7.08,0,0,0,7.21-6.88l0-.77a2.9,2.9,0,0,1,2.95-2.82h24.78a16.66,16.66,0,0,1,16.27,15L237.71,355a13.49,13.49,0,0,1-13.65,15H128.73a16.66,16.66,0,0,1-16.27-15L92.52,127.18A13.49,13.49,0,0,1,106.18,112.22Z" style="fill: rgb(255, 255, 255); opacity: 0.7; transform-origin: 165.117px 241.091px;" class="animable" id="el07tq4ywvxs3h"></path></g><g id="elwgr5ffpwvv"><g style="opacity: 0.2; transform-origin: 175.532px 362.07px;" class="animable" id="eltnv3ekyd1r8"><path d="M147,363.42h57.3c1.74,0,1.51-2.7-.23-2.7H146.76c-1.74,0-1.5,2.7.24,2.7Z" id="elshlfmqm7e7j" class="animable" style="transform-origin: 175.532px 362.07px;"></path></g></g><path d="M201.51,112.22H176.73a2.9,2.9,0,0,0-2.95,2.82l0,.77a7.08,7.08,0,0,1-7.21,6.88H143a8.78,8.78,0,0,1-8.41-6.88l-.17-.77a3.59,3.59,0,0,0-3.44-2.82H106.18a13.49,13.49,0,0,0-13.66,15l4.94,56.44H222.72l-4.94-56.44A16.66,16.66,0,0,0,201.51,112.22Z" style="fill: #FFC100; transform-origin: 157.577px 147.939px;" id="elxqf5pfs8jy9" class="animable"></path><g id="el9t85soybfbe"><g style="opacity: 0.5; transform-origin: 201.735px 119.645px;" class="animable" id="els9u4tl99u5i"><polygon points="207.01 122.65 205 122.65 204.83 120.65 206.83 120.65 207.01 122.65" style="fill: rgb(255, 255, 255); transform-origin: 205.92px 121.65px;" id="elyf6tmrwrbkg" class="animable"></polygon><polygon points="202.82 120.65 203 122.65 200.99 122.65 200.82 120.65 200.64 118.64 202.65 118.64 202.82 120.65" style="fill: rgb(255, 255, 255); transform-origin: 201.82px 120.645px;" id="elavc4fazzp2n" class="animable"></polygon><polygon points="198.46 116.64 198.64 118.64 198.81 120.65 198.99 122.65 196.98 122.65 196.81 120.65 196.63 118.64 196.46 116.64 198.46 116.64" style="fill: rgb(255, 255, 255); transform-origin: 197.725px 119.645px;" id="elsaanrdg3f2r" class="animable"></polygon></g></g><g id="elbzk6sdiw9rn"><path d="M103.44,116.77l.52,5.88h8.82l-.13-1.47h1l-.26-2.94h-1l-.13-1.47Zm5,1.47h2.94l.26,2.94h-2.94Z" style="fill: rgb(255, 255, 255); opacity: 0.5; transform-origin: 108.545px 119.71px;" class="animable" id="eldu4w18d3y6j"></path></g><path d="M129.19,176.47h-13A8.34,8.34,0,0,1,108,169l-1.14-13a6.76,6.76,0,0,1,6.83-7.49h13a8.34,8.34,0,0,1,8.15,7.49L136,169A6.76,6.76,0,0,1,129.19,176.47Z" style="fill: rgb(255, 255, 255); transform-origin: 121.429px 162.49px;" id="elddsxf2aya9" class="animable"></path><path d="M124.59,158.5c.21,2.39-.83,4.32-3.22,4.32s-3.77-1.93-4-4.32.84-4.32,3.22-4.32S124.38,156.12,124.59,158.5Z" style="fill: #FFC100; transform-origin: 120.978px 158.5px;" id="el77gt44yk3bv" class="animable"></path><path d="M122.06,170.74h6.66l-.34-4c-.19-2.18-3.33-4-7-4s-6.5,1.78-6.31,4l.34,4Z" style="fill: #FFC100; transform-origin: 121.89px 166.74px;" id="elte366oafny9" class="animable"></path><path d="M189.35,166.78H148.07a2.41,2.41,0,0,1-2.35-2.16h0a2,2,0,0,1,2-2.16H189a2.4,2.4,0,0,1,2.34,2.16h0A1.94,1.94,0,0,1,189.35,166.78Z" style="fill: rgb(255, 255, 255); transform-origin: 168.533px 164.621px;" id="el89ubj7m406y" class="animable"></path><path d="M210.07,161.64h-9.32a1,1,0,0,1-1-.9h0a.82.82,0,0,1,.82-.9h9.32a1,1,0,0,1,1,.9h0A.8.8,0,0,1,210.07,161.64Z" style="fill: rgb(255, 255, 255); transform-origin: 205.321px 160.74px;" id="el0o918gpn4bbi" class="animable"></path><path d="M210.42,165.74h-9.31a1,1,0,0,1-1-.9h0A.81.81,0,0,1,201,164h9.32a1,1,0,0,1,1,.89h0A.8.8,0,0,1,210.42,165.74Z" style="fill: rgb(255, 255, 255); transform-origin: 205.716px 164.871px;" id="el1c1820hawlj" class="animable"></path><path d="M210.78,169.84h-9.31a1,1,0,0,1-1-.89h0a.81.81,0,0,1,.82-.9h9.32a1,1,0,0,1,1,.9h0A.8.8,0,0,1,210.78,169.84Z" style="fill: rgb(255, 255, 255); transform-origin: 206.04px 168.945px;" id="elvco3rucx6uk" class="animable"></path><path d="M159.72,220.85H116.18a4,4,0,0,1-4-3.64l-2-23.33a3.27,3.27,0,0,1,3.31-3.63H157a4,4,0,0,1,4,3.63l2,23.33A3.28,3.28,0,0,1,159.72,220.85Z" style="fill: rgb(38, 50, 56); transform-origin: 136.59px 205.55px;" id="el098ho1g6v78a" class="animable"></path><g id="elhiy9eogd7wl"><path d="M159.72,220.85H116.18a4,4,0,0,1-4-3.64l-2-23.33a3.27,3.27,0,0,1,3.31-3.63H157a4,4,0,0,1,4,3.63l2,23.33A3.28,3.28,0,0,1,159.72,220.85Z" style="fill: rgb(255, 255, 255); opacity: 0.6; transform-origin: 136.59px 205.55px;" class="animable" id="elqkv83imfowc"></path></g><path d="M162.88,257H119.34a4,4,0,0,1-4-3.63l-2-23.33a3.28,3.28,0,0,1,3.31-3.64H160.2a4,4,0,0,1,4,3.64l2,23.33A3.27,3.27,0,0,1,162.88,257Z" style="fill: rgb(38, 50, 56); transform-origin: 139.77px 241.7px;" id="el7copygmax93" class="animable"></path><g id="elf7xfy9xoc34"><path d="M162.88,257H119.34a4,4,0,0,1-4-3.63l-2-23.33a3.28,3.28,0,0,1,3.31-3.64H160.2a4,4,0,0,1,4,3.64l2,23.33A3.27,3.27,0,0,1,162.88,257Z" style="fill: rgb(255, 255, 255); opacity: 0.6; transform-origin: 139.77px 241.7px;" class="animable" id="el88wa5tsofuw"></path></g><path d="M171.29,353.12H127.75a4.05,4.05,0,0,1-4-3.63l-2-23.34a3.27,3.27,0,0,1,3.31-3.63h43.54a4,4,0,0,1,3.95,3.63l2,23.34A3.27,3.27,0,0,1,171.29,353.12Z" style="fill: rgb(38, 50, 56); transform-origin: 148.15px 337.82px;" id="elgt80b3mla09" class="animable"></path><g id="el2y9iqpa1bej"><path d="M171.29,353.12H127.75a4.05,4.05,0,0,1-4-3.63l-2-23.34a3.27,3.27,0,0,1,3.31-3.63h43.54a4,4,0,0,1,3.95,3.63l2,23.34A3.27,3.27,0,0,1,171.29,353.12Z" style="fill: rgb(255, 255, 255); opacity: 0.6; transform-origin: 148.15px 337.82px;" class="animable" id="el4rf7wj1skvc"></path></g><polygon points="234.45 317.68 109.19 317.68 104.31 261.83 229.56 261.83 234.45 317.68" style="fill: rgb(38, 50, 56); transform-origin: 169.38px 289.755px;" id="elkz6j29140d" class="animable"></polygon><path d="M165.94,279.85l10.95,7.76a2.71,2.71,0,0,1,.38,4.29l-9.6,7.75a2.87,2.87,0,0,1-4.49-2.14L161.82,282A2.52,2.52,0,0,1,165.94,279.85Z" style="fill: rgb(255, 255, 255); transform-origin: 169.981px 289.713px;" id="eli45v336j1rb" class="animable"></path><path d="M212.24,205.55H173.35a2.85,2.85,0,0,1-2.79-2.57h0a2.31,2.31,0,0,1,2.34-2.56h38.89a2.85,2.85,0,0,1,2.79,2.56h0A2.32,2.32,0,0,1,212.24,205.55Z" style="fill: rgb(38, 50, 56); transform-origin: 192.57px 202.985px;" id="elhjf51poinjs" class="animable"></path><path d="M206,216.6h-31.7a2.85,2.85,0,0,1-2.78-2.56h0a2.31,2.31,0,0,1,2.34-2.57h31.69a2.87,2.87,0,0,1,2.79,2.57h0A2.32,2.32,0,0,1,206,216.6Z" style="fill: rgb(38, 50, 56); transform-origin: 189.929px 214.035px;" id="elds05y3fnwd" class="animable"></path><g id="el1fc1ge2pp0y"><g style="opacity: 0.6; transform-origin: 192.57px 208.51px;" class="animable" id="elumnscc33n2g"><path d="M212.24,205.55H173.35a2.85,2.85,0,0,1-2.79-2.57h0a2.31,2.31,0,0,1,2.34-2.56h38.89a2.85,2.85,0,0,1,2.79,2.56h0A2.32,2.32,0,0,1,212.24,205.55Z" style="fill: rgb(255, 255, 255); transform-origin: 192.57px 202.985px;" id="el0s74wjzyy13" class="animable"></path><path d="M206,216.6h-31.7a2.85,2.85,0,0,1-2.78-2.56h0a2.31,2.31,0,0,1,2.34-2.57h31.69a2.87,2.87,0,0,1,2.79,2.57h0A2.32,2.32,0,0,1,206,216.6Z" style="fill: rgb(255, 255, 255); transform-origin: 189.929px 214.035px;" id="elqo8qr4flv97" class="animable"></path></g></g><path d="M215.47,242.49H176.58a2.86,2.86,0,0,1-2.79-2.56h0a2.31,2.31,0,0,1,2.34-2.56H215a2.84,2.84,0,0,1,2.79,2.56h0A2.31,2.31,0,0,1,215.47,242.49Z" style="fill: rgb(38, 50, 56); transform-origin: 195.79px 239.93px;" id="el1j359g9ci6p" class="animable"></path><path d="M209.24,253.55H177.55a2.85,2.85,0,0,1-2.79-2.57h0a2.31,2.31,0,0,1,2.34-2.56h31.69a2.86,2.86,0,0,1,2.79,2.56h0A2.32,2.32,0,0,1,209.24,253.55Z" style="fill: rgb(38, 50, 56); transform-origin: 193.17px 250.985px;" id="elxep1hgxd0qa" class="animable"></path><g id="elyo8s09mb0ej"><g style="opacity: 0.6; transform-origin: 195.79px 245.46px;" class="animable" id="elgjpkoe2ogbs"><path d="M215.47,242.49H176.58a2.86,2.86,0,0,1-2.79-2.56h0a2.31,2.31,0,0,1,2.34-2.56H215a2.84,2.84,0,0,1,2.79,2.56h0A2.31,2.31,0,0,1,215.47,242.49Z" style="fill: rgb(255, 255, 255); transform-origin: 195.79px 239.93px;" id="elex67osoyb4a" class="animable"></path><path d="M209.24,253.55H177.55a2.85,2.85,0,0,1-2.79-2.57h0a2.31,2.31,0,0,1,2.34-2.56h31.69a2.86,2.86,0,0,1,2.79,2.56h0A2.32,2.32,0,0,1,209.24,253.55Z" style="fill: rgb(255, 255, 255); transform-origin: 193.17px 250.985px;" id="elr8khsr9d6db" class="animable"></path></g></g><path d="M224,339.37H185.06a2.85,2.85,0,0,1-2.79-2.57h0a2.31,2.31,0,0,1,2.34-2.56H223.5a2.86,2.86,0,0,1,2.79,2.56h0A2.32,2.32,0,0,1,224,339.37Z" style="fill: rgb(38, 50, 56); transform-origin: 204.28px 336.805px;" id="el1dvk6bpm2w2" class="animable"></path><path d="M217.71,350.42H186a2.87,2.87,0,0,1-2.79-2.57h0a2.32,2.32,0,0,1,2.34-2.56h31.7a2.85,2.85,0,0,1,2.78,2.56h0A2.31,2.31,0,0,1,217.71,350.42Z" style="fill: rgb(38, 50, 56); transform-origin: 201.621px 347.855px;" id="eld1chgjkvkm" class="animable"></path><g id="elose17kwomv"><g style="opacity: 0.6; transform-origin: 204.28px 342.33px;" class="animable" id="elaxy17tuzfnd"><path d="M224,339.37H185.06a2.85,2.85,0,0,1-2.79-2.57h0a2.31,2.31,0,0,1,2.34-2.56H223.5a2.86,2.86,0,0,1,2.79,2.56h0A2.32,2.32,0,0,1,224,339.37Z" style="fill: rgb(255, 255, 255); transform-origin: 204.28px 336.805px;" id="elu40zll73pkk" class="animable"></path><path d="M217.71,350.42H186a2.87,2.87,0,0,1-2.79-2.57h0a2.32,2.32,0,0,1,2.34-2.56h31.7a2.85,2.85,0,0,1,2.78,2.56h0A2.31,2.31,0,0,1,217.71,350.42Z" style="fill: rgb(255, 255, 255); transform-origin: 201.621px 347.855px;" id="elw1u6pavy5vq" class="animable"></path></g></g></g><g id="freepik--Coins--inject-585" class="animable" style="transform-origin: 255.585px 279.032px;"><path d="M111.84,364.91a24,24,0,0,0-5-47.76l-4.61.49a24,24,0,1,0,5,47.75Z" style="fill: #FFC100; transform-origin: 107.033px 341.27px;" id="eloou2yg2f0bn" class="animable"></path><g id="el1e1rt9cr895"><g style="opacity: 0.2; transform-origin: 100.12px 341.77px;" class="animable" id="el1zckja6timb"><path d="M118.21,348.2l-35.15,3.69q.34.71.72,1.38l34.58-3.63Z" style="fill: rgb(255, 255, 255); transform-origin: 100.71px 350.735px;" id="elexm0egaax44" class="animable"></path><path d="M117.62,342.57,81.21,346.4c.1.48.21,1,.34,1.42L117.77,344Z" style="fill: rgb(255, 255, 255); transform-origin: 99.49px 345.195px;" id="elr74p5ef2ce" class="animable"></path><path d="M117,336.94l-36.3,3.82c0,.48,0,1,0,1.46l36.45-3.84Z" style="fill: rgb(255, 255, 255); transform-origin: 98.925px 339.58px;" id="el9m8fvyfjtr7" class="animable"></path><path d="M118.8,353.82l-32.25,3.39c.4.46.81.9,1.24,1.33L119,355.26Z" style="fill: rgb(255, 255, 255); transform-origin: 102.775px 356.18px;" id="el1cpcpa1ur7" class="animable"></path><path d="M87.89,324.4l27.51-2.89-.15-1.44-25.5,2.68A22.37,22.37,0,0,0,87.89,324.4Z" style="fill: rgb(255, 255, 255); transform-origin: 101.645px 322.235px;" id="eleoxgs3tzezo" class="animable"></path><path d="M119.39,359.45l-26.75,2.81A22.8,22.8,0,0,0,95,363.47l24.54-2.58Z" style="fill: rgb(255, 255, 255); transform-origin: 106.09px 361.46px;" id="elk4tk2t5tec" class="animable"></path><path d="M115.84,325.69,84.22,329c-.3.51-.59,1-.86,1.55L116,327.13Z" style="fill: rgb(255, 255, 255); transform-origin: 99.68px 328.12px;" id="elyesr03fr9xk" class="animable"></path><path d="M116.43,331.32,81.62,335c-.14.49-.27,1-.38,1.49l35.34-3.71Z" style="fill: rgb(255, 255, 255); transform-origin: 98.91px 333.905px;" id="eldud7p3zvc9c" class="animable"></path></g></g><g id="ell6pcv7kzewj"><circle cx="109.33" cy="341.03" r="24.01" style="fill: #FFC100; transform-origin: 109.33px 341.03px; transform: rotate(-68.8387deg);" class="animable" id="elrak6jdfvmgp"></circle></g><g id="elvw0g3l4jlte"><circle cx="109.33" cy="341.03" r="24.01" style="fill: rgb(255, 255, 255); opacity: 0.4; transform-origin: 109.33px 341.03px; transform: rotate(-68.8387deg);" class="animable" id="el4bv8efdwwf1"></circle></g><g id="elzujbx7wrme"><circle cx="109.33" cy="341.03" r="19.37" style="fill: rgb(255, 255, 255); opacity: 0.2; transform-origin: 109.33px 341.03px; transform: rotate(-87.7094deg);" class="animable" id="ely1t51c6ll29"></circle></g><path d="M107.3,321.76c-.39,0-.78.1-1.16.17a19.37,19.37,0,0,1,4,38.45c.39,0,.78,0,1.17-.08a19.38,19.38,0,0,0-4-38.54Z" style="fill: #FFC100; transform-origin: 117.165px 341.041px;" id="elypjqomckler" class="animable"></path><path d="M114.69,348.22a7.89,7.89,0,0,1-4.44,2.44l.31,3-2.68.29-.31-2.93a14.51,14.51,0,0,1-3.86-.3,9.48,9.48,0,0,1-3-1.15l1.13-3.43a9.55,9.55,0,0,0,2.52,1,10.84,10.84,0,0,0,2.89.35l-.47-4.49a19.81,19.81,0,0,1-3.33-.68,5.62,5.62,0,0,1-2.38-1.42,4.5,4.5,0,0,1-1.19-2.79,5.2,5.2,0,0,1,1.23-4,7.75,7.75,0,0,1,4.48-2.44l-.32-3,2.69-.28.31,2.92a11.92,11.92,0,0,1,5.62,1.07l-1,3.44a10.69,10.69,0,0,0-4.26-1l.48,4.56a20.78,20.78,0,0,1,3.29.65,5.75,5.75,0,0,1,2.36,1.41,4.41,4.41,0,0,1,1.19,2.77A5.14,5.14,0,0,1,114.69,348.22Zm-9.93-9.72a4.27,4.27,0,0,0,1.55.57l-.4-3.82a2.89,2.89,0,0,0-1.42.93,1.76,1.76,0,0,0-.36,1.27A1.4,1.4,0,0,0,104.76,338.5Zm6.49,7.76a1.58,1.58,0,0,0,.36-1.21A1.41,1.41,0,0,0,111,344a4.39,4.39,0,0,0-1.51-.6l.39,3.71A2.86,2.86,0,0,0,111.25,346.26Z" style="fill: #FFC100; transform-origin: 107.915px 341.17px;" id="el8wvwhp86i6v" class="animable"></path><path d="M116.34,348.05a7.89,7.89,0,0,1-4.44,2.43l.31,3-2.68.28-.31-2.92a15.35,15.35,0,0,1-3.86-.3,9.64,9.64,0,0,1-3.06-1.15l1.14-3.43a9.9,9.9,0,0,0,2.52,1,11.27,11.27,0,0,0,2.89.35l-.47-4.49a20.4,20.4,0,0,1-3.33-.68,5.72,5.72,0,0,1-2.38-1.42,4.47,4.47,0,0,1-1.19-2.8,5.19,5.19,0,0,1,1.22-4,7.73,7.73,0,0,1,4.48-2.44l-.31-3,2.69-.28.31,2.93a11.8,11.8,0,0,1,5.62,1.07l-1,3.44a10.61,10.61,0,0,0-4.25-1l.48,4.56a19.37,19.37,0,0,1,3.28.65,5.43,5.43,0,0,1,2.36,1.41,4.35,4.35,0,0,1,1.19,2.76A5.11,5.11,0,0,1,116.34,348.05Zm-9.93-9.73a4.27,4.27,0,0,0,1.55.57l-.4-3.81a2.9,2.9,0,0,0-1.42.92,1.74,1.74,0,0,0-.36,1.27A1.4,1.4,0,0,0,106.41,338.32Zm6.49,7.77a1.58,1.58,0,0,0,.36-1.21,1.4,1.4,0,0,0-.61-1.05,4.45,4.45,0,0,0-1.52-.6l.39,3.71A3,3,0,0,0,112.9,346.09Z" style="fill: #FFC100; transform-origin: 109.519px 340.98px;" id="elfrv4lx5cz4k" class="animable"></path><g id="elduuv89umn8"><g style="opacity: 0.4; transform-origin: 109.519px 340.98px;" class="animable" id="elwvbf3bwtalk"><path d="M116.34,348.05a7.89,7.89,0,0,1-4.44,2.43l.31,3-2.68.28-.31-2.92a15.35,15.35,0,0,1-3.86-.3,9.64,9.64,0,0,1-3.06-1.15l1.14-3.43a9.9,9.9,0,0,0,2.52,1,11.27,11.27,0,0,0,2.89.35l-.47-4.49a20.4,20.4,0,0,1-3.33-.68,5.72,5.72,0,0,1-2.38-1.42,4.47,4.47,0,0,1-1.19-2.8,5.19,5.19,0,0,1,1.22-4,7.73,7.73,0,0,1,4.48-2.44l-.31-3,2.69-.28.31,2.93a11.8,11.8,0,0,1,5.62,1.07l-1,3.44a10.61,10.61,0,0,0-4.25-1l.48,4.56a19.37,19.37,0,0,1,3.28.65,5.43,5.43,0,0,1,2.36,1.41,4.35,4.35,0,0,1,1.19,2.76A5.11,5.11,0,0,1,116.34,348.05Zm-9.93-9.73a4.27,4.27,0,0,0,1.55.57l-.4-3.81a2.9,2.9,0,0,0-1.42.92,1.74,1.74,0,0,0-.36,1.27A1.4,1.4,0,0,0,106.41,338.32Zm6.49,7.77a1.58,1.58,0,0,0,.36-1.21,1.4,1.4,0,0,0-.61-1.05,4.45,4.45,0,0,0-1.52-.6l.39,3.71A3,3,0,0,0,112.9,346.09Z" style="fill: rgb(255, 255, 255); transform-origin: 109.519px 340.98px;" id="eljqe0pxwhjo" class="animable"></path></g></g><path d="M399.19,206.56a26.1,26.1,0,0,0-5.45-51.92l-5,.53a26.1,26.1,0,0,0,5.46,51.91Z" style="fill: #FFC100; transform-origin: 394.122px 180.845px;" id="elhl0b02jpbb9" class="animable"></path><g id="el19r22j95w95"><g style="opacity: 0.2; transform-origin: 386.47px 181.4px;" class="animable" id="elxf2mcw1b8u"><path d="M406.12,188.39l-38.21,4c.25.51.51,1,.78,1.51l37.59-4Z" style="fill: rgb(255, 255, 255); transform-origin: 387.095px 191.145px;" id="elekk0rv1czaq" class="animable"></path><path d="M405.48,182.27l-39.58,4.16c.1.52.23,1,.37,1.55l39.37-4.14Z" style="fill: rgb(255, 255, 255); transform-origin: 385.77px 185.125px;" id="el7bu14hkv3r3" class="animable"></path><path d="M404.83,176.16l-39.46,4.14q0,.8,0,1.59L405,177.72Z" style="fill: rgb(255, 255, 255); transform-origin: 385.185px 179.025px;" id="eltl0e9aqjlcd" class="animable"></path><path d="M406.76,194.5l-35.05,3.69c.43.5.87,1,1.34,1.44l33.88-3.56Z" style="fill: rgb(255, 255, 255); transform-origin: 389.32px 197.065px;" id="el3y6ltupmtt8" class="animable"></path><path d="M373.16,162.52l29.91-3.15-.17-1.56-27.71,2.91A23.1,23.1,0,0,0,373.16,162.52Z" style="fill: rgb(255, 255, 255); transform-origin: 388.115px 160.165px;" id="eloynyaymzoj" class="animable"></path><path d="M407.4,200.62l-29.08,3.06a27,27,0,0,0,2.57,1.31l26.68-2.8Z" style="fill: rgb(255, 255, 255); transform-origin: 392.945px 202.805px;" id="el0hpgmbchmy5b" class="animable"></path><path d="M403.55,163.92l-34.38,3.62c-.33.54-.65,1.11-.94,1.68l35.48-3.73Z" style="fill: rgb(255, 255, 255); transform-origin: 385.97px 166.57px;" id="el8otdkavj0ib" class="animable"></path><path d="M404.19,170l-37.85,4c-.15.53-.29,1.08-.41,1.62l38.42-4Z" style="fill: rgb(255, 255, 255); transform-origin: 385.14px 172.81px;" id="elyc5tovne9hn" class="animable"></path></g></g><g id="elgz3nei0fwan"><circle cx="396.46" cy="180.6" r="26.1" style="fill: #FFC100; transform-origin: 396.46px 180.6px; transform: rotate(-35.83deg);" class="animable" id="elxkm01lqgveq"></circle></g><g id="elesumv2epdh5"><circle cx="396.46" cy="180.6" r="26.1" style="fill: rgb(255, 255, 255); opacity: 0.4; transform-origin: 396.46px 180.6px; transform: rotate(-35.83deg);" class="animable" id="elxch25i4jgp"></circle></g><g id="elgp3nq7jabg6"><circle cx="396.46" cy="180.6" r="21.06" style="fill: rgb(255, 255, 255); opacity: 0.2; transform-origin: 396.46px 180.6px; transform: rotate(-72.52deg);" class="animable" id="eld1fv2hhnqqk"></circle></g><path d="M394.26,159.65c-.43,0-.85.11-1.27.18a21.06,21.06,0,0,1,4.4,41.81c.42,0,.85,0,1.28-.1a21.06,21.06,0,0,0-4.41-41.89Z" style="fill: #FFC100; transform-origin: 405.258px 180.587px;" id="elfvrlnk37e3c" class="animable"></path><path d="M402.3,188.41a8.51,8.51,0,0,1-4.83,2.65l.34,3.27-2.92.31-.33-3.18a16.2,16.2,0,0,1-4.2-.33,10.33,10.33,0,0,1-3.32-1.24l1.23-3.74a10.4,10.4,0,0,0,2.74,1.1,11.54,11.54,0,0,0,3.14.38l-.51-4.87A22.37,22.37,0,0,1,390,182a6.06,6.06,0,0,1-2.58-1.54,4.83,4.83,0,0,1-1.3-3,5.67,5.67,0,0,1,1.33-4.34,8.43,8.43,0,0,1,4.88-2.66l-.35-3.24,2.92-.31.34,3.19a12.84,12.84,0,0,1,6.11,1.16L400.29,175a11.83,11.83,0,0,0-4.63-1.05l.53,5a20.51,20.51,0,0,1,3.57.7,6.19,6.19,0,0,1,2.57,1.53,4.84,4.84,0,0,1,1.29,3A5.61,5.61,0,0,1,402.3,188.41Zm-10.8-10.57a4.47,4.47,0,0,0,1.69.62l-.44-4.14a3.11,3.11,0,0,0-1.54,1,1.93,1.93,0,0,0-.39,1.38A1.5,1.5,0,0,0,391.5,177.84Zm7.06,8.44A1.72,1.72,0,0,0,399,185a1.54,1.54,0,0,0-.66-1.14,4.93,4.93,0,0,0-1.65-.65l.42,4A3.17,3.17,0,0,0,398.56,186.28Z" style="fill: #FFC100; transform-origin: 394.866px 180.775px;" id="el4k6b7jj7zc" class="animable"></path><path d="M404.09,188.23a8.56,8.56,0,0,1-4.83,2.64l.34,3.28-2.92.3-.33-3.18a16.2,16.2,0,0,1-4.2-.33,10.33,10.33,0,0,1-3.32-1.24l1.23-3.73a11.13,11.13,0,0,0,2.74,1.1,11.94,11.94,0,0,0,3.14.37l-.51-4.87a23.6,23.6,0,0,1-3.62-.74,6.18,6.18,0,0,1-2.58-1.55,4.83,4.83,0,0,1-1.3-3,5.67,5.67,0,0,1,1.33-4.34,8.49,8.49,0,0,1,4.88-2.66L393.8,167l2.91-.3.34,3.18a12.84,12.84,0,0,1,6.11,1.16l-1.08,3.74a11.83,11.83,0,0,0-4.63-1.05l.53,5a21.48,21.48,0,0,1,3.57.7,6.19,6.19,0,0,1,2.57,1.53,4.87,4.87,0,0,1,1.29,3A5.62,5.62,0,0,1,404.09,188.23Zm-10.8-10.57a4.65,4.65,0,0,0,1.69.61l-.44-4.14a3.18,3.18,0,0,0-1.54,1,1.94,1.94,0,0,0-.39,1.39A1.53,1.53,0,0,0,393.29,177.66Zm7.06,8.44a1.76,1.76,0,0,0,.39-1.32,1.54,1.54,0,0,0-.66-1.14,4.93,4.93,0,0,0-1.65-.65l.42,4A3.24,3.24,0,0,0,400.35,186.1Z" style="fill: #FFC100; transform-origin: 396.668px 180.575px;" id="el629qqyjwbjk" class="animable"></path><g id="elw98mehyy7x"><g style="opacity: 0.4; transform-origin: 396.668px 180.575px;" class="animable" id="elyf2z213ulwe"><path d="M404.09,188.23a8.56,8.56,0,0,1-4.83,2.64l.34,3.28-2.92.3-.33-3.18a16.2,16.2,0,0,1-4.2-.33,10.33,10.33,0,0,1-3.32-1.24l1.23-3.73a11.13,11.13,0,0,0,2.74,1.1,11.94,11.94,0,0,0,3.14.37l-.51-4.87a23.6,23.6,0,0,1-3.62-.74,6.18,6.18,0,0,1-2.58-1.55,4.83,4.83,0,0,1-1.3-3,5.67,5.67,0,0,1,1.33-4.34,8.49,8.49,0,0,1,4.88-2.66L393.8,167l2.91-.3.34,3.18a12.84,12.84,0,0,1,6.11,1.16l-1.08,3.74a11.83,11.83,0,0,0-4.63-1.05l.53,5a21.48,21.48,0,0,1,3.57.7,6.19,6.19,0,0,1,2.57,1.53,4.87,4.87,0,0,1,1.29,3A5.62,5.62,0,0,1,404.09,188.23Zm-10.8-10.57a4.65,4.65,0,0,0,1.69.61l-.44-4.14a3.18,3.18,0,0,0-1.54,1,1.94,1.94,0,0,0-.39,1.39A1.53,1.53,0,0,0,393.29,177.66Zm7.06,8.44a1.76,1.76,0,0,0,.39-1.32,1.54,1.54,0,0,0-.66-1.14,4.93,4.93,0,0,0-1.65-.65l.42,4A3.24,3.24,0,0,0,400.35,186.1Z" style="fill: rgb(255, 255, 255); transform-origin: 396.668px 180.575px;" id="el7rrcbrz9cbf" class="animable"></path></g></g><path d="M201.79,409.81a29,29,0,1,0,0-58h-5.6a29,29,0,0,0,0,58Z" style="fill: #FFC100; transform-origin: 198.99px 380.81px;" id="el3y0dqpnbe47" class="animable"></path><g id="elgt1nooefndm"><g style="opacity: 0.2; transform-origin: 189.42px 381.16px;" class="animable" id="elwnsycu9wcr"><path d="M211.55,390.53H168.87c.21.6.44,1.18.68,1.75h42Z" style="fill: rgb(255, 255, 255); transform-origin: 190.21px 391.405px;" id="ellgz6o83m3vc" class="animable"></path><path d="M211.55,383.7H167.33c.06.59.14,1.17.23,1.75h44Z" style="fill: rgb(255, 255, 255); transform-origin: 189.445px 384.575px;" id="el62pcft40j8f" class="animable"></path><path d="M211.55,376.87H167.46c-.08.58-.14,1.16-.18,1.75h44.27Z" style="fill: rgb(255, 255, 255); transform-origin: 189.415px 377.745px;" id="elh36v76rbje8" class="animable"></path><path d="M211.55,397.37H172.39c.42.6.85,1.18,1.32,1.75h37.84Z" style="fill: rgb(255, 255, 255); transform-origin: 191.97px 398.245px;" id="el423t10hzqca" class="animable"></path><path d="M178.14,358.12h33.41v-1.75h-31A27.82,27.82,0,0,0,178.14,358.12Z" style="fill: rgb(255, 255, 255); transform-origin: 194.845px 357.245px;" id="el2t17z61kfv" class="animable"></path><path d="M211.55,404.2H179.06a28.16,28.16,0,0,0,2.69,1.75h29.8Z" style="fill: rgb(255, 255, 255); transform-origin: 195.305px 405.075px;" id="elooomjg4milj" class="animable"></path><path d="M211.55,363.2h-38.4c-.43.57-.85,1.15-1.24,1.75h39.64Z" style="fill: rgb(255, 255, 255); transform-origin: 191.73px 364.075px;" id="elnem2hpbadgg" class="animable"></path><path d="M211.55,370H169.26c-.23.58-.44,1.16-.63,1.75h42.92Z" style="fill: rgb(255, 255, 255); transform-origin: 190.09px 370.875px;" id="elnmjds6dcrbn" class="animable"></path></g></g><circle cx="201.79" cy="380.81" r="29" style="fill: #FFC100; transform-origin: 201.79px 380.81px;" id="el6odv04gpb88" class="animable"></circle><g id="el3qa3ekrbxzi"><circle cx="201.79" cy="380.81" r="29" style="fill: rgb(255, 255, 255); opacity: 0.4; transform-origin: 201.79px 380.81px;" class="animable" id="elpop6sjd9mmj"></circle></g><g id="eldyuzpp0i4at"><circle cx="201.79" cy="380.81" r="23.4" style="fill: rgb(255, 255, 255); opacity: 0.2; transform-origin: 201.79px 380.81px; transform: rotate(-45deg);" class="animable" id="elj9edq8rtoe"></circle></g><path d="M201.79,357.4c-.48,0-.95,0-1.42.05a23.4,23.4,0,0,1,0,46.71c.47,0,.94,0,1.42,0a23.41,23.41,0,0,0,0-46.81Z" style="fill: #FFC100; transform-origin: 212.543px 380.755px;" id="elkevorzehaq" class="animable"></path><path d="M207.32,390.12a9.53,9.53,0,0,1-5.64,2.37v3.65h-3.26v-3.56a17.75,17.75,0,0,1-4.6-.84,11.63,11.63,0,0,1-3.53-1.77l1.8-4a11.87,11.87,0,0,0,2.9,1.54,13.45,13.45,0,0,0,3.43.78v-5.45a24.33,24.33,0,0,1-3.92-1.24,6.8,6.8,0,0,1-2.67-2,5.39,5.39,0,0,1-1.08-3.51,6.3,6.3,0,0,1,2-4.65,9.48,9.48,0,0,1,5.7-2.37v-3.62h3.26V369a14.33,14.33,0,0,1,6.62,2l-1.63,4a12.92,12.92,0,0,0-5-1.69v5.54a24.6,24.6,0,0,1,3.87,1.19,6.78,6.78,0,0,1,2.65,2,5.32,5.32,0,0,1,1.08,3.48A6.15,6.15,0,0,1,207.32,390.12Zm-10.7-12.93a5.29,5.29,0,0,0,1.8.88v-4.64a3.59,3.59,0,0,0-1.83.93,2.14,2.14,0,0,0-.59,1.49A1.69,1.69,0,0,0,196.62,377.19Zm6.82,10.14a1.92,1.92,0,0,0,.59-1.4,1.69,1.69,0,0,0-.6-1.34,5.36,5.36,0,0,0-1.75-.91v4.5A3.5,3.5,0,0,0,203.44,387.33Z" style="fill: #FFC100; transform-origin: 199.798px 380.795px;" id="elcalohr74knt" class="animable"></path><path d="M209.32,390.12a9.53,9.53,0,0,1-5.64,2.37v3.65h-3.26v-3.56a17.75,17.75,0,0,1-4.6-.84,11.63,11.63,0,0,1-3.53-1.77l1.8-4a11.87,11.87,0,0,0,2.9,1.54,13.45,13.45,0,0,0,3.43.78v-5.45a24.33,24.33,0,0,1-3.92-1.24,6.8,6.8,0,0,1-2.67-2,5.39,5.39,0,0,1-1.08-3.51,6.3,6.3,0,0,1,2-4.65,9.48,9.48,0,0,1,5.7-2.37v-3.62h3.26V369a14.33,14.33,0,0,1,6.62,2l-1.63,4a12.92,12.92,0,0,0-5-1.69v5.54a24.6,24.6,0,0,1,3.87,1.19,6.78,6.78,0,0,1,2.65,2,5.32,5.32,0,0,1,1.08,3.48A6.15,6.15,0,0,1,209.32,390.12Zm-10.7-12.93a5.29,5.29,0,0,0,1.8.88v-4.64a3.59,3.59,0,0,0-1.83.93,2.14,2.14,0,0,0-.59,1.49A1.69,1.69,0,0,0,198.62,377.19Zm6.82,10.14a1.92,1.92,0,0,0,.59-1.4,1.69,1.69,0,0,0-.6-1.34,5.36,5.36,0,0,0-1.75-.91v4.5A3.5,3.5,0,0,0,205.44,387.33Z" style="fill: #FFC100; transform-origin: 201.798px 380.795px;" id="el6bdxrf1wuyk" class="animable"></path><g id="elcy7fhxgtb9d"><g style="opacity: 0.4; transform-origin: 201.798px 380.795px;" class="animable" id="elezdkot0tj9"><path d="M209.32,390.12a9.53,9.53,0,0,1-5.64,2.37v3.65h-3.26v-3.56a17.75,17.75,0,0,1-4.6-.84,11.63,11.63,0,0,1-3.53-1.77l1.8-4a11.87,11.87,0,0,0,2.9,1.54,13.45,13.45,0,0,0,3.43.78v-5.45a24.33,24.33,0,0,1-3.92-1.24,6.8,6.8,0,0,1-2.67-2,5.39,5.39,0,0,1-1.08-3.51,6.3,6.3,0,0,1,2-4.65,9.48,9.48,0,0,1,5.7-2.37v-3.62h3.26V369a14.33,14.33,0,0,1,6.62,2l-1.63,4a12.92,12.92,0,0,0-5-1.69v5.54a24.6,24.6,0,0,1,3.87,1.19,6.78,6.78,0,0,1,2.65,2,5.32,5.32,0,0,1,1.08,3.48A6.15,6.15,0,0,1,209.32,390.12Zm-10.7-12.93a5.29,5.29,0,0,0,1.8.88v-4.64a3.59,3.59,0,0,0-1.83.93,2.14,2.14,0,0,0-.59,1.49A1.69,1.69,0,0,0,198.62,377.19Zm6.82,10.14a1.92,1.92,0,0,0,.59-1.4,1.69,1.69,0,0,0-.6-1.34,5.36,5.36,0,0,0-1.75-.91v4.5A3.5,3.5,0,0,0,205.44,387.33Z" style="fill: rgb(255, 255, 255); transform-origin: 201.798px 380.795px;" id="el0zgpxlchw9d" class="animable"></path></g></g></g><g id="freepik--Character--inject-585" class="animable" style="transform-origin: 356.106px 311.507px;"><path d="M357,221s-7.22-1.92-5,5.51c0,0-5.87.8-1.93,5.39,0,0-4.32,5.1,1.43,6.85,0,0-.27,7,4.16,4.67,0,0,1.15,6.12,5.93,4,0,0-1.25,7.5,3.16,4.17,0,0,3.93,4.06,6.47.07,0,0,8.28,9.59,12.87,4.34,0,0,8.93,2,5.41-4.41,0,0,5.6-2.84.26-5.42,0,0,3.44-3.95-4-4.06,0,0,3.55-3.2-3.07-4.11,0,0,3.07-2.12,0-5.53,0,0,2.94-2.23-.88-6.22,0,0,2-3.38-3.38-6.06,0,0,2-3.74-3.34-3.75,0,0,.34-4.57-6-2.63,0,0-4.68-5.63-7.7,1.22C361.47,215,355.87,213.3,357,221Z" style="fill: rgb(38, 50, 56); transform-origin: 370.29px 234.602px;" id="ela3cgxpes5un" class="animable"></path><path d="M350.78,264.59c-1.88,1.14-3.71,2.09-5.61,3.06s-3.85,1.8-5.88,2.61a35,35,0,0,1-6.63,1.95,15.31,15.31,0,0,1-2.06.22c-.36,0-.8,0-1.22,0a9.46,9.46,0,0,1-1.38-.23,13.46,13.46,0,0,1-3.87-1.73,36.61,36.61,0,0,1-5.3-4.21c-1.56-1.49-3-3-4.43-4.57a98.89,98.89,0,0,1-6.95-8.65,1.55,1.55,0,0,1,.26-2.08l1.13-1a1.55,1.55,0,0,1,2.05.05c2.59,2.43,5.25,4.85,7.91,7.15,1.51,1.3,3,2.56,4.56,3.73a32.67,32.67,0,0,0,4.56,3,6.45,6.45,0,0,0,1.74.67,7.71,7.71,0,0,0,1.4-.27,33.85,33.85,0,0,0,5-1.87c1.73-.76,3.48-1.64,5.21-2.55s3.5-1.86,5.16-2.75Z" style="fill: rgb(181, 91, 82); transform-origin: 328.972px 261.014px;" id="el236jk10cdf7" class="animable"></path><path d="M352.06,255.09c-2.75-1.63-14.29,5.86-14.29,5.86l2.94,10.13s14.87-3.31,15.59-7.4C357.05,259.41,356.07,257.47,352.06,255.09Z" style="fill: #FFC100; transform-origin: 347.151px 262.969px;" id="el94y98uajh0e" class="animable"></path><path d="M311.15,251.4,308.72,243l-4.32,5.88s1.94,4.18,4.92,4.35Z" style="fill: rgb(181, 91, 82); transform-origin: 307.775px 248.115px;" id="el17obwax0xdk" class="animable"></path><path d="M311.88,243.25h0a1.75,1.75,0,0,0-1.72.92l-1.61,3.06L310.3,249Z" style="fill: rgb(181, 91, 82); transform-origin: 310.215px 246.121px;" id="el7kxq22oydr" class="animable"></path><polygon points="304.97 239.19 301.85 243.68 304.4 248.86 308.72 242.98 304.97 239.19" style="fill: rgb(181, 91, 82); transform-origin: 305.285px 244.025px;" id="elsb04f741cqn" class="animable"></polygon><g id="elqv5hg3jbfz"><rect x="298.79" y="232.64" width="9.95" height="17.55" rx="1.29" style="fill: #FFC100; transform-origin: 303.765px 241.415px; transform: rotate(-6deg);" class="animable" id="eladch2cq1he"></rect></g><g id="el4ulsowb176s"><rect x="298.79" y="232.64" width="9.95" height="17.55" rx="1.29" style="opacity: 0.2; transform-origin: 303.765px 241.415px; transform: rotate(-6deg);" class="animable" id="elc3py73cnpys"></rect></g><g id="elpslzt5n0don"><rect x="299.32" y="232.59" width="9.95" height="17.55" rx="1.29" style="fill: #FFC100; transform-origin: 304.295px 241.365px; transform: rotate(-6deg);" class="animable" id="elxstinbg473"></rect></g><g id="eldwxs89l2ku9"><path d="M301.64,250.47l7.15-.75A1.38,1.38,0,0,0,310,248.2l-1.55-14.71a1.06,1.06,0,0,0-.06-.19l-8.3,15.78v.16A1.38,1.38,0,0,0,301.64,250.47Z" style="fill: rgb(255, 255, 255); opacity: 0.2; transform-origin: 305.049px 241.891px;" class="animable" id="elpug4vjmt4ub"></path></g><path d="M307,232.26l-7.15.75a1.38,1.38,0,0,0-1.22,1.52l1.54,14.71a1.38,1.38,0,0,0,1.52,1.23l7.15-.75A1.38,1.38,0,0,0,310,248.2l-1.55-14.71A1.38,1.38,0,0,0,307,232.26Zm2.27,16a.58.58,0,0,1-.51.63l-7.15.76a.58.58,0,0,1-.64-.52l-1.55-14.71a.58.58,0,0,1,.52-.64l1.1-.12,0,.26a.69.69,0,0,0,.75.61l3.58-.38a.68.68,0,0,0,.61-.75l0-.26,1.1-.11a.56.56,0,0,1,.63.51Z" style="fill: rgb(38, 50, 56); transform-origin: 304.315px 241.368px;" id="elsput8il0dwi" class="animable"></path><g id="elvphdee3tzt"><path d="M352.24,260l-3.14-2.06-1.41,1.12a45.93,45.93,0,0,0-1,10.39,30.86,30.86,0,0,0,7.8-3.47Z" style="opacity: 0.1; transform-origin: 350.586px 263.695px;" class="animable" id="eltms72asisfn"></path></g><polygon points="307.39 366.43 301.42 383.87 296.41 382.44 300.47 364.04 307.39 366.43" style="fill: rgb(181, 91, 82); transform-origin: 301.9px 373.955px;" id="elsri376vir4i" class="animable"></polygon><path d="M296.49,381.1l6.17,1.86a.59.59,0,0,1,.45.59l-.23,6.13a1,1,0,0,1-1,1l-.2,0c-2.56-.72-4.8-1.45-8-2.28-3.78-1-2.94-.29-7.39-1.38-2.68-.66-2.38-3.83-1.2-3.68,5.35.7,7.26-.73,9.74-2.06A2.38,2.38,0,0,1,296.49,381.1Z" style="fill: rgb(38, 50, 56); transform-origin: 293.666px 385.853px;" id="el0mcbw2ypiqve" class="animable"></path><g id="el87m5hyhdh7m"><polygon points="304.14 375.94 298.18 374.41 300.47 364.04 307.39 366.43 304.14 375.94" style="opacity: 0.2; transform-origin: 302.785px 369.99px;" class="animable" id="elgktflj7yyie"></polygon></g><polygon points="345.85 387.81 347.84 403.24 342.23 403.39 338.17 388.5 345.85 387.81" style="fill: rgb(181, 91, 82); transform-origin: 343.005px 395.6px;" id="el460v4ef71hr" class="animable"></polygon><path d="M342.15,402.53l6.41,0a.59.59,0,0,1,.58.46l1.31,6a1,1,0,0,1-.74,1.18l-.21,0c-2.65,0-5-.2-8.31-.21-3.9,0-2.92.46-7.5.51-2.76,0-3.26-3.11-2.09-3.26,5.36-.66,6.88-2.28,8.95-4.19A2.33,2.33,0,0,1,342.15,402.53Z" style="fill: rgb(38, 50, 56); transform-origin: 340.74px 406.497px;" id="eltw7sbqiz0h" class="animable"></path><g id="elyxivzxia4y"><polygon points="340.52 397.13 338.17 388.5 345.85 387.81 347 396.73 340.52 397.13" style="opacity: 0.2; transform-origin: 342.585px 392.47px;" class="animable" id="elrrccg0brpxj"></polygon></g><path d="M365.18,295.17h-9.06a50.43,50.43,0,0,0-2.87,12.63c-.48,6.45,11.93,1.67,11.93,1.67l1.09-8.84Z" style="fill: #FFC100; transform-origin: 359.753px 303.172px;" id="elyoryxykwfx" class="animable"></path><path d="M365.18,295.17h-9.06a50.43,50.43,0,0,0-2.87,12.63c-.48,6.45,11.93,1.67,11.93,1.67l1.09-8.84Z" style="fill: rgb(38, 50, 56); transform-origin: 359.753px 303.172px;" id="elfofbpole1ws" class="animable"></path><g id="ely4s78by3be8"><path d="M359.91,295.17c2.52,13.22-2.33,12.55-2.33,12.55l2.75,1.91,5-1.22,1-7.78-1.09-5.46Z" style="opacity: 0.3; transform-origin: 361.955px 302.4px;" class="animable" id="el19fajjj9oxz"></path></g><path d="M383.27,294.34s9.23,15.45,7.64,28.34-13.52,19.72-59.38-2.25c0,0-9.41,9.74-25,51.46l-8-2.39s9-48.22,17-61.94,43.79,2.39,46.5-.32c2.41-2.41.32-11.94.32-11.94Z" style="fill: rgb(38, 50, 56); transform-origin: 344.812px 333.115px;" id="elxl7u1ctly4" class="animable"></path><g id="elfbzuyg9dwxn"><path d="M326.29,324.76l-2.5-1.94s-8.84,4.78-4.44,18.41h0a158.81,158.81,0,0,1,7.8-14.59Z" style="opacity: 0.3; transform-origin: 322.636px 332.025px;" class="animable" id="el075wfjmzmwur"></path></g><path d="M364.6,333.11c-8.34-2-19.13-6-33.07-12.68,0,0-10.76.14-11.48,8.15s18.15,63.33,18.15,63.33l8.72-.76s-5.13-55.17-6.33-58Z" style="fill: rgb(38, 50, 56); transform-origin: 342.315px 356.17px;" id="elba8kz4lyac" class="animable"></path><g id="el87fh8sgfmwd"><path d="M331.53,320.43a17.8,17.8,0,0,0-3.69.53,77,77,0,0,0,19.45,12.15H364.6C356.26,331.12,345.47,327.11,331.53,320.43Z" style="opacity: 0.3; transform-origin: 346.22px 326.77px;" class="animable" id="elqtzbjmpiqm"></path></g><polygon points="347.97 389.72 348.2 393.3 338.06 394.1 336.61 390.69 347.97 389.72" style="fill: rgb(38, 50, 56); transform-origin: 342.405px 391.91px;" id="el5f34f9f42li" class="animable"></polygon><path d="M347.73,257.21c-.25,3.54.5,13.44,7,41l29.07-2.11c-1.3-11.36-1.85-18.54,1.58-41.09a2.62,2.62,0,0,0-2.33-3,81.15,81.15,0,0,0-9.72-.42,93.41,93.41,0,0,0-13.19,1c-4,.66-8.33,1.75-10.53,2.33A2.59,2.59,0,0,0,347.73,257.21Z" style="fill: #FFC100; transform-origin: 366.55px 274.894px;" id="elgvu8rximbro" class="animable"></path><path d="M371,236.81c-.53,4.31-.79,12.15,2.38,14.76,0,0-.84,4.4-8.73,5-8.68.63-4.46-4-4.46-4,4.65-1.47,4.27-5,3.21-8.21Z" style="fill: rgb(181, 91, 82); transform-origin: 366.272px 246.719px;" id="elmw4p92vlnwo" class="animable"></path><g id="eltjor8983f9"><path d="M367.9,239.87l-4.5,4.44a13.24,13.24,0,0,1,.58,2.31c1.79-.39,4.13-2.55,4.18-4.46A6.28,6.28,0,0,0,367.9,239.87Z" style="opacity: 0.2; transform-origin: 365.788px 243.245px;" class="animable" id="elm2nasan0u1l"></path></g><path d="M375.85,229.64c-1.62,6.93-2.16,9.9-6.32,12.9-6.24,4.5-14.4,1-14.88-6.3-.43-6.55,2.3-16.79,9.64-18.4A9.7,9.7,0,0,1,375.85,229.64Z" style="fill: rgb(181, 91, 82); transform-origin: 365.372px 231.072px;" id="elhivszmwgqwn" class="animable"></path><path d="M359.16,219.09c-2.33,3.24,20.37,15.32,18.2,7.69S365.25,210.61,359.16,219.09Z" style="fill: rgb(38, 50, 56); transform-origin: 368.249px 222.416px;" id="el9fm57l2gk5i" class="animable"></path><path d="M370.72,226.88c-.55,3.38,3.91,7.37,3.91,7.37s5.71-4.21,2.12-6.46S370.72,226.88,370.72,226.88Z" style="fill: rgb(38, 50, 56); transform-origin: 374.304px 230.367px;" id="elj6y3iqxu2sd" class="animable"></path><path d="M363.9,229.59c-.1.57-.48,1-.85.92s-.6-.58-.5-1.15.48-1,.85-.91S364,229,363.9,229.59Z" style="fill: rgb(38, 50, 56); transform-origin: 363.225px 229.479px;" id="eleuwd7cto9bq" class="animable"></path><path d="M357.45,228.49c-.09.57-.48,1-.85.92s-.6-.58-.5-1.15.48-1,.85-.91S357.55,227.92,357.45,228.49Z" style="fill: rgb(38, 50, 56); transform-origin: 356.775px 228.379px;" id="elmjw980k6m7o" class="animable"></path><path d="M357.11,227.41l-1.3-.63S356.33,228,357.11,227.41Z" style="fill: rgb(38, 50, 56); transform-origin: 356.46px 227.176px;" id="elytba93esaa" class="animable"></path><path d="M359.73,229.86a15.41,15.41,0,0,1-2.66,3.29,2.46,2.46,0,0,0,2,.73Z" style="fill: rgb(160, 39, 36); transform-origin: 358.4px 231.876px;" id="el3ad69p58ua6" class="animable"></path><path d="M361.77,236.65a6.57,6.57,0,0,1-.85-.08.17.17,0,0,1-.14-.2.18.18,0,0,1,.19-.14,4.57,4.57,0,0,0,4-1.13.16.16,0,0,1,.24,0,.17.17,0,0,1,0,.24A4.79,4.79,0,0,1,361.77,236.65Z" style="fill: rgb(38, 50, 56); transform-origin: 363.018px 235.849px;" id="elk3gtljw5m4f" class="animable"></path><path d="M376.65,236.39a5.19,5.19,0,0,1-3.16,2.41c-1.77.45-2.61-1.14-2.09-2.79.48-1.48,2-3.5,3.72-3.23A2.34,2.34,0,0,1,376.65,236.39Z" style="fill: rgb(181, 91, 82); transform-origin: 374.148px 235.816px;" id="elxvt2iciexe" class="animable"></path><path d="M366.71,228.72a.34.34,0,0,1-.32-.24,4,4,0,0,0-2.4-2.15.35.35,0,0,1-.22-.43.34.34,0,0,1,.43-.21,4.61,4.61,0,0,1,2.84,2.59.34.34,0,0,1-.22.43Z" style="fill: rgb(38, 50, 56); transform-origin: 365.406px 227.196px;" id="elpw5nijsek1" class="animable"></path><path d="M356,225.18a.35.35,0,0,1-.29-.17.34.34,0,0,1,.13-.46,3.37,3.37,0,0,1,3.1-.21.34.34,0,0,1,.14.46.33.33,0,0,1-.45.15h0a2.69,2.69,0,0,0-2.45.19A.39.39,0,0,1,356,225.18Z" style="fill: rgb(38, 50, 56); transform-origin: 357.394px 224.619px;" id="el02ch34e6tyut" class="animable"></path><path d="M363.56,228.51l-1.3-.63S362.78,229.07,363.56,228.51Z" style="fill: rgb(38, 50, 56); transform-origin: 362.91px 228.27px;" id="elxm0uzsx91ua" class="animable"></path><path d="M384.16,294.34l.93,2.55c.12.19-.11.41-.44.44l-29.91,2.17c-.27,0-.49-.09-.52-.25l-.45-2.59c0-.17.18-.34.47-.36l29.43-2.14A.51.51,0,0,1,384.16,294.34Z" style="fill: rgb(255, 255, 255); transform-origin: 369.446px 296.826px;" id="elhske1qdrvxr" class="animable"></path><path d="M380.45,297.92l.78-.06c.16,0,.27-.1.26-.2l-.62-3.35c0-.1-.16-.17-.32-.16l-.79.06c-.15,0-.27.1-.25.2l.62,3.35C380.15,297.86,380.29,297.93,380.45,297.92Z" style="fill: rgb(38, 50, 56); transform-origin: 380.499px 296.035px;" id="elpck1c7voh8b" class="animable"></path><path d="M357,299.62l.79-.05c.16,0,.27-.1.25-.2L357.4,296c0-.09-.16-.16-.32-.15l-.79.05c-.16,0-.27.11-.25.2l.61,3.36A.29.29,0,0,0,357,299.62Z" style="fill: rgb(38, 50, 56); transform-origin: 357.04px 297.741px;" id="el7sym35iu2g7" class="animable"></path><path d="M368.71,298.77l.79-.06c.15,0,.27-.1.25-.2l-.62-3.35c0-.1-.16-.17-.31-.16l-.79.06c-.16,0-.27.1-.26.2l.62,3.35C368.41,298.71,368.55,298.78,368.71,298.77Z" style="fill: rgb(38, 50, 56); transform-origin: 368.761px 296.885px;" id="ell0icmngonza" class="animable"></path><polygon points="308.47 371.09 306.8 374.31 297.24 371.09 297.24 367.39 308.47 371.09" style="fill: rgb(38, 50, 56); transform-origin: 302.855px 370.85px;" id="elo6ojwpa592" class="animable"></polygon><g id="elf5zs5tar7fn"><path d="M383.24,256.6l-4.58,5.33s-.08,5.73,4.46,12.39c.31-4.52.92-9.9,1.93-16.81Z" style="opacity: 0.1; transform-origin: 381.855px 265.46px;" class="animable" id="el1nhu760ktx9"></path></g><path d="M389.27,259.76c.7,1.61,1.5,3.4,2.31,5.08s1.62,3.4,2.51,5a74.54,74.54,0,0,0,5.78,9.37l.81,1,.33.41c.08.1.22.24.33.36a23.49,23.49,0,0,0,1.89,1.65c1.41,1.12,2.95,2.23,4.51,3.32,2.65,1.83,5.38,3.66,8.1,5.5a2.09,2.09,0,0,1,.7,2.67l-.25.51a2.1,2.1,0,0,1-2.6,1.05,99,99,0,0,1-9.31-4c-1.81-.91-3.61-1.85-5.41-3a25.57,25.57,0,0,1-2.75-1.95c-.25-.21-.48-.4-.73-.65l-.38-.37-.29-.31-1.09-1.2A61.71,61.71,0,0,1,386.6,274,83.67,83.67,0,0,1,381.24,263Z" style="fill: rgb(181, 91, 82); transform-origin: 399.001px 277.783px;" id="elh50tgqcys25" class="animable"></path><path d="M385.84,252.3c3,.68,7.21,11.45,7.21,11.45l-8.71,7.9s-6.73-8.07-5.78-11.93C379.55,255.71,382.45,251.53,385.84,252.3Z" style="fill: #FFC100; transform-origin: 385.759px 261.929px;" id="elq6yhohl4299" class="animable"></path><path d="M415.25,292.59l6.78-3.74L420.61,296s-4.39,1.39-6.53-.69Z" style="fill: rgb(181, 91, 82); transform-origin: 418.055px 292.652px;" id="el1d4rz5lfbuy" class="animable"></path><polygon points="427.99 289.81 426.48 295.73 420.61 296 422.04 288.85 427.99 289.81" style="fill: rgb(181, 91, 82); transform-origin: 424.3px 292.425px;" id="elz02gjb0pi" class="animable"></polygon><path d="M372.5,218c-.57-1.33-4.14-2.26-6-1.76a2.5,2.5,0,0,1-1.09,0l-1.18-.26a2,2,0,0,1-1-.43c-1.36-1.19-5-1.83-6.29-.89s-1.52,4.8-.56,5.83a5.68,5.68,0,0,0,4.43,1c1.24-.44,2.89-3.13,2.95-4.7a2.63,2.63,0,0,1,.85-.1,2.13,2.13,0,0,1,.68.44c-.84,1.39-.95,4.41-.11,5.3a5.66,5.66,0,0,0,4.43,1C371.08,222.83,373.07,219.3,372.5,218Z" style="fill: #FFC100; transform-origin: 364.195px 218.871px;" id="elcqr03oi1yt4" class="animable"></path><g id="eldln32osn45j"><path d="M360.63,220.82A4.73,4.73,0,0,1,357,220c-.79-.85-.56-4.05.46-4.8,1.2-.89,5-.07,5.53,1.19C363.44,217.49,361.81,220.39,360.63,220.82Z" style="opacity: 0.3; transform-origin: 359.797px 217.862px;" class="animable" id="elbgk6lu2da"></path></g><g id="el8ngo2w2pw4s"><path d="M369.42,222.72a4.74,4.74,0,0,1-3.65-.79c-.79-.85-.55-4.05.47-4.8,1.2-.89,5-.07,5.53,1.19C372.23,219.39,370.6,222.3,369.42,222.72Z" style="opacity: 0.3; transform-origin: 368.575px 219.782px;" class="animable" id="eli59hnyoal0p"></path></g><g id="elcgru6t07eu"><path d="M357,220a4.73,4.73,0,0,0,3.65.79c1.18-.43,2.81-3.33,2.34-4.4l-.05-.08-6,3.6A.73.73,0,0,0,357,220Z" style="fill: rgb(255, 255, 255); opacity: 0.5; transform-origin: 360.006px 218.594px;" class="animable" id="eluyidirfufic"></path></g><g id="elcbqjnv9sxj"><path d="M369.42,222.72c1.18-.42,2.81-3.32,2.35-4.39l-6,3.6A4.72,4.72,0,0,0,369.42,222.72Z" style="fill: rgb(255, 255, 255); opacity: 0.5; transform-origin: 368.81px 220.569px;" class="animable" id="el7thq5bx6p5i"></path></g><polygon points="380.54 411.38 377.33 411.38 376.33 347.99 381.54 347.99 380.54 411.38" style="fill: rgb(38, 50, 56); transform-origin: 378.935px 379.685px;" id="elmkvaqbxw0e8" class="animable"></polygon><polygon points="355.17 411.38 351.95 411.38 358.74 347.99 363.95 347.99 355.17 411.38" style="fill: rgb(38, 50, 56); transform-origin: 357.95px 379.685px;" id="el8mblrjo9tec" class="animable"></polygon><polygon points="402.71 411.38 405.92 411.38 399.14 347.99 393.92 347.99 402.71 411.38" style="fill: rgb(38, 50, 56); transform-origin: 399.92px 379.685px;" id="eljv7x2j3s0t" class="animable"></polygon><g id="elb92shkx64wh"><polygon points="380.54 411.38 377.33 411.38 376.33 347.99 381.54 347.99 380.54 411.38" style="fill: rgb(255, 255, 255); opacity: 0.5; transform-origin: 378.935px 379.685px;" class="animable" id="elzi68ncyrw3k"></polygon></g><g id="el18vm5zyltpk"><polygon points="355.17 411.38 351.95 411.38 358.74 347.99 363.95 347.99 355.17 411.38" style="fill: rgb(255, 255, 255); opacity: 0.5; transform-origin: 357.95px 379.685px;" class="animable" id="eldau1fxp94w"></polygon></g><g id="elma1nbti8d2"><polygon points="402.71 411.38 405.92 411.38 399.14 347.99 393.92 347.99 402.71 411.38" style="fill: rgb(255, 255, 255); opacity: 0.5; transform-origin: 399.92px 379.685px;" class="animable" id="ele9w1x9fxmfm"></polygon></g><g id="elxjanu05szik"><polygon points="395.25 357.56 400.16 357.56 399.63 352.56 394.56 352.56 395.25 357.56" style="opacity: 0.2; transform-origin: 397.36px 355.06px;" class="animable" id="el7jniw827i33"></polygon></g><g id="elqh4lz2a88xk"><polygon points="381.39 357.56 381.47 352.56 376.4 352.56 376.48 357.56 381.39 357.56" style="opacity: 0.2; transform-origin: 378.935px 355.06px;" class="animable" id="el87pgbr0he0v"></polygon></g><g id="el0j9jmh960ah"><polygon points="357.71 357.56 362.63 357.56 363.32 352.56 358.25 352.56 357.71 357.56" style="opacity: 0.2; transform-origin: 360.515px 355.06px;" class="animable" id="elv0n4zrkvjpp"></polygon></g><rect x="357.73" y="347.72" width="42.41" height="5.75" style="fill: #FFC100; transform-origin: 378.935px 350.595px;" id="el7r4qx6lxepf" class="animable"></rect><g id="elptdk75xktqk"><rect x="357.73" y="347.72" width="42.41" height="5.75" style="opacity: 0.3; transform-origin: 378.935px 350.595px;" class="animable" id="elgyirqnbg4zw"></rect></g><rect x="352.67" y="333.1" width="52.53" height="15.83" rx="5.18" style="fill: #FFC100; transform-origin: 378.935px 341.015px;" id="el10o1wkjsrvg" class="animable"></rect><g id="elccvkvbz6216"><rect x="352.67" y="333.1" width="52.53" height="15.83" rx="5.18" style="opacity: 0.3; transform-origin: 378.935px 341.015px;" class="animable" id="elke01ya2sbsf"></rect></g><g id="elrce1q8os53"><path d="M404.53,346.26a9.34,9.34,0,0,0-4-.89H357.3a9.38,9.38,0,0,0-4,.89,5.16,5.16,0,0,0,4.51,2.67H400A5.14,5.14,0,0,0,404.53,346.26Z" style="opacity: 0.2; transform-origin: 378.915px 347.15px;" class="animable" id="elhtvjyt1drxw"></path></g></g><defs>     <filter id="active" height="200%">         <feMorphology in="SourceAlpha" result="DILATED" operator="dilate" radius="2"></feMorphology>                <feFlood flood-color="#32DFEC" flood-opacity="1" result="PINK"></feFlood>        <feComposite in="PINK" in2="DILATED" operator="in" result="OUTLINE"></feComposite>        <feMerge>            <feMergeNode in="OUTLINE"></feMergeNode>            <feMergeNode in="SourceGraphic"></feMergeNode>        </feMerge>    </filter>    <filter id="hover" height="200%">        <feMorphology in="SourceAlpha" result="DILATED" operator="dilate" radius="2"></feMorphology>                <feFlood flood-color="#ff0000" flood-opacity="0.5" result="PINK"></feFlood>        <feComposite in="PINK" in2="DILATED" operator="in" result="OUTLINE"></feComposite>        <feMerge>            <feMergeNode in="OUTLINE"></feMergeNode>            <feMergeNode in="SourceGraphic"></feMergeNode>        </feMerge>            <feColorMatrix type="matrix" values="0   0   0   0   0                0   1   0   0   0                0   0   0   0   0                0   0   0   1   0 "></feColorMatrix>    </filter></defs></svg>