<svg xmlns="http://www.w3.org/2000/svg" viewBox="0 0 500 500"><g id="freepik--background-simple--inject-7"><path d="M459.15,356.11c34-80.54,38.32-194.37-20.31-265.07-32.34-39-83.22-52-131.79-54.86-43.53-2.6-90.13-1.56-129.67,19-67,34.92-68.69,117.94-118.91,166.93C18,261.64,1.2,317.92,35.76,392s98.75,90.85,161.94,67.15,91.83-28.64,167.87-16.79c34.94,5.45,60.3-20.78,75.63-49C447.77,381.2,453.8,368.78,459.15,356.11Z" style="fill:#FFC100"></path><path d="M459.15,356.11c34-80.54,38.32-194.37-20.31-265.07-32.34-39-83.22-52-131.79-54.86-43.53-2.6-90.13-1.56-129.67,19-67,34.92-68.69,117.94-118.91,166.93C18,261.64,1.2,317.92,35.76,392s98.75,90.85,161.94,67.15,91.83-28.64,167.87-16.79c34.94,5.45,60.3-20.78,75.63-49C447.77,381.2,453.8,368.78,459.15,356.11Z" style="fill:#fff;opacity:0.7000000000000001"></path></g><g id="freepik--Moon--inject-7"><path d="M204.74,253.7A132.74,132.74,0,0,1,96.49,44.06,132.77,132.77,0,1,0,264.06,239.71,132.25,132.25,0,0,1,204.74,253.7Z" style="fill:none;stroke:#000;stroke-miterlimit:10"></path></g><g id="freepik--Star--inject-7"><polygon points="193.09 51.03 205.88 90.39 247.26 90.39 213.78 114.72 226.57 154.07 193.09 129.75 159.61 154.07 172.4 114.72 138.92 90.39 180.3 90.39 193.09 51.03" style="fill:none;stroke:#000;stroke-miterlimit:10"></polygon></g><g id="freepik--Fireworks--inject-7"><path d="M295.77,104.34q-16.17,3.89-32.33,7.77c-1.68.4-3.12.24-3.43-1.73s.87-2.68,2.64-2.86q10.34-1,20.65-2.11c4.14-.45,8.26-1,12.39-1.47C295.71,104.07,295.74,104.21,295.77,104.34Z" style="fill:#FFC100"></path><path d="M362.53,119.21l6.18,3.76L389,135.32l1,.61c1.53.89,2.27,2.16,1.13,3.7s-2.44,1-3.72,0q-10.63-8.53-21.3-17l-3.78-3Z" style="fill:#263238"></path><path d="M310.24,128.7l-7,11.45q-4.56,7.48-9.13,15a17.89,17.89,0,0,1-1,1.6c-.89,1.19-2.25,1.68-3.22.6a3.46,3.46,0,0,1-.36-3.23,62.47,62.47,0,0,1,4.77-6.18l15.53-19.42Z" style="fill:#263238"></path><path d="M325.09,91.62l-4.59-4Q311.76,80,303,72.34c-.48-.41-1.23-.84-1.29-1.32a4.28,4.28,0,0,1,.38-2.93c.42-.49,1.8-.19,2.74-.18.18,0,.38.27.53.45q10,11.43,19.92,22.89S325.24,91.36,325.09,91.62Z" style="fill:#FFC100"></path><path d="M342.5,102.64c12.89,5.53,25.78,11,38.64,16.63.7.3,1.61,1.59,1.45,2.13-.45,1.51-1.7.93-2.72.42q-12.58-6.31-25.16-12.63c-4.15-2.08-8.32-4.13-12.47-6.19Z" style="fill:#263238"></path><path d="M327.34,107.4l-7.14,16.66-9.81,22.86a3.68,3.68,0,0,1-.74,1.45c-.42.34-1.29.67-1.61.47a2.14,2.14,0,0,1-.82-1.68,6.88,6.88,0,0,1,.94-2.15q9.21-18.57,18.44-37.13a3.23,3.23,0,0,1,.51-.62Z" style="fill:#263238"></path><path d="M360.18,79.44,378,66.19c1.14-.85,2.26-1.72,3.44-2.51a2.13,2.13,0,0,1,3.29.56,2.08,2.08,0,0,1-.81,3.23c-7.76,4.18-15.56,8.29-23.34,12.42Z" style="fill:#263238"></path><path d="M341.14,94.06c1.37-.51,2.76-1,4.12-1.53l35.63-14.26c.44-.17.89-.53,1.31-.49a12.82,12.82,0,0,1,2.22.6c-.42.71-.7,1.83-1.3,2.06-3.62,1.36-7.32,2.49-11,3.72l-29.6,10c-.42.14-.85.23-1.28.34Z" style="fill:#FFC100"></path><path d="M319.43,102.55l-22.38,8.94c-5.14,2.06-10.25,4.17-15.44,6.1-.78.29-1.88-.25-2.83-.4.6-.75,1.06-1.91,1.83-2.17,9.63-3.3,19.31-6.47,29-9.68,3.2-1.06,6.39-2.16,9.58-3.24Z" style="fill:#263238"></path><path d="M336.33,110.07l10.05,25.06c1.73,4.33,3.53,8.63,5.13,13,.25.68-.38,1.69-.61,2.55-.67-.49-1.75-.85-2-1.5-4.38-12.94-8.67-25.91-13-38.87Z" style="fill:#263238"></path><path d="M318.87,92.08c-2-.79-4.07-1.51-6.07-2.37q-15-6.45-30-13c-.43-.19-1-.27-1.26-.6a12.4,12.4,0,0,1-1-2.09,9.73,9.73,0,0,1,2.06-.52c.41,0,.85.36,1.28.57q14.64,7.27,29.28,14.54c2,1,3.86,2.08,5.79,3.12Z" style="fill:#263238"></path><path d="M337.4,85.06c.16-.49.29-1,.49-1.47q7.5-17.52,15-35c.19-.43.3-1,.63-1.24s1.27-.73,1.59-.54a2.66,2.66,0,0,1,.92,1.64c.07.39-.3.88-.51,1.3L338.25,84.22c-.17.33-.4.63-.6,1Z" style="fill:#FFC100"></path><path d="M326.56,84.71q-3.09-7.67-6.17-15.33L312.22,49a3.53,3.53,0,0,1-.48-1.32,22.2,22.2,0,0,1,.48-2.64,11.14,11.14,0,0,1,2.2,1.8,8.81,8.81,0,0,1,.86,2.44l11.34,34.11c.12.36.21.73.31,1.1Z" style="fill:#263238"></path><path d="M324.69,59.54c-2.21-10.07-4.44-20.14-6.56-30.23-.13-.64.66-1.48,1-2.22.6.66,1.64,1.25,1.74,2,1.3,8.89,2.47,17.8,3.66,26.7.17,1.24.31,2.48.46,3.71Z" style="fill:#FFC100"></path><path d="M354.05,65.42,356.91,61q6.45-10.06,12.91-20.13a5.9,5.9,0,0,1,1.27-1.68,1.81,1.81,0,0,1,1.67-.1,2.13,2.13,0,0,1,.54,1.6c0,.4-.43.81-.72,1.19L354.49,65.54Z" style="fill:#263238"></path><path d="M370.38,90.79c9.93-2.18,19.86-4.39,29.82-6.47.6-.13,1.41.71,2.13,1.1-.47.61-.88,1.67-1.42,1.74-10.16,1.39-20.33,2.66-30.49,4Z" style="fill:#263238"></path><path d="M342.36,97.55c4-.17,7.94-.32,11.91-.5q8-.36,16.07-.76c1.19-.06,2.48,0,2.27,1.54-.08.59-1.37,1.47-2.08,1.45-9.38-.33-18.74-.8-28.11-1.24Z" style="fill:#263238"></path><path d="M338.68,136.68c2.13,9.8,4.29,19.6,6.33,29.42.15.72-.61,1.63-.94,2.45-.6-.59-1.63-1.11-1.72-1.76-1.4-9.78-2.68-19.58-4-29.38a3.28,3.28,0,0,1,.06-.69Z" style="fill:#FFC100"></path><path d="M298,74.6c-8.15-5.22-16.32-10.42-24.42-15.73-.54-.35-.54-1.51-.79-2.3.77,0,1.79-.41,2.27-.06,7.81,5.85,15.55,11.79,23.31,17.71Z" style="fill:#263238"></path><path d="M331.69,106q.66,14.88,1.32,29.75a5.24,5.24,0,0,1-.08,2.1,1.84,1.84,0,0,1-1.36,1,1.77,1.77,0,0,1-1.26-1.1,7.66,7.66,0,0,1-.06-2.35q.6-14.65,1.21-29.33Z" style="fill:#263238"></path><path d="M331.4,88c-.4-9.87-.83-19.49-1.13-29.11,0-.72.92-1.47,1.42-2.21.46.62,1.33,1.27,1.31,1.87-.36,9.55-.84,19.08-1.3,28.62A3.74,3.74,0,0,1,331.4,88Z" style="fill:#263238"></path><path d="M324.44,105.29l-15.85,17.29c-1,1.11-2,2.24-3,3.32-.8.84-1.66,2.15-2.91.95s0-2.12.85-2.91q8.22-7.55,16.44-15.08c1.42-1.3,2.79-2.65,4.18-4Z" style="fill:#FFC100"></path><path d="M319.82,98.08c-6.17.3-11.91.59-17.64.84-3.15.13-6.29.3-9.43.24-.76,0-1.5-.9-2.24-1.39.69-.46,1.4-1.34,2.08-1.32,8.81.28,17.62.68,26.44,1.06C319.14,97.51,319.25,97.67,319.82,98.08Z" style="fill:#263238"></path><path d="M339.74,89.3c6.14-6.69,12.26-13.41,18.47-20,.46-.49,1.59-.36,2.41-.53-.05.76.21,1.86-.2,2.24-6.72,6.3-13.53,12.51-20.32,18.74Z" style="fill:#263238"></path><path d="M340.12,105.94c6.74,6.18,13.5,12.34,20.18,18.59.45.42.3,1.48.44,2.24-.82-.08-2,.17-2.41-.27-6.25-6.67-12.4-13.43-18.58-20.17Z" style="fill:#FFC100"></path><path d="M363.9,104.91c8.76,1.57,17.52,3.11,26.26,4.78.69.13,1.21,1.21,1.81,1.85-.86.27-1.82.95-2.56.75-6.86-1.79-13.68-3.74-20.52-5.63-1.72-.47-3.47-.88-5.21-1.31C363.75,105.2,363.83,105.06,363.9,104.91Z" style="fill:#FFC100"></path><path d="M338.81,65.28c1.6-9.05,3.07-17.59,4.67-26.12.13-.66,1.14-1.16,1.74-1.73.34.75,1.13,1.61,1,2.23-2.2,8.23-4.53,16.43-6.84,24.64A8,8,0,0,1,338.81,65.28Z" style="fill:#263238"></path><path d="M297.33,90.28q-9.07-1.57-18.14-3.15a62.35,62.35,0,0,1-6.26-1.22c-.69-.19-1.16-1.13-1.73-1.72.76-.34,1.65-1.11,2.28-.94,8,2.12,15.95,4.37,23.91,6.59Z" style="fill:#FFC100"></path><path d="M302.12,116.71c-6.79,4.76-13.56,9.55-20.41,14.23-.55.38-1.62,0-2.46-.06.31-.76.4-1.91,1-2.24,7.15-4.16,14.37-8.21,21.58-12.29Z" style="fill:#263238"></path><path d="M350.57,127.41l12,17.1a20.51,20.51,0,0,1,2.23,3.32c.28.65-.14,1.6-.24,2.41-.72-.29-1.76-.38-2.08-.91-2-3.3-3.86-6.69-5.76-10.05q-3.27-5.82-6.56-11.63Z" style="fill:#263238"></path><path d="M312.4,67.86l-7.06-10c-2.31-3.3-4.68-6.56-6.87-9.94-.37-.55.06-1.62.12-2.45.72.26,1.81.31,2.1.82,4.05,7,8,14.15,11.94,21.25C312.65,67.52,312.56,67.61,312.4,67.86Z" style="fill:#263238"></path><path d="M324.14,131.93c-1.45,8.21-2.86,16.43-4.41,24.63-.12.63-1.18,1.08-1.8,1.61-.31-.77-1-1.65-.85-2.31,1.23-4.88,2.63-9.73,4-14.58q1.32-4.77,2.65-9.52Z" style="fill:#FFC100"></path><path d="M303.67,165.43a2.88,2.88,0,1,1-.08-5.76,2.73,2.73,0,0,1,2.83,2.84C306.45,164.26,305.37,165.19,303.67,165.43Z" style="fill:#FFC100"></path><path d="M393.4,97.87c-.28,1.82-1.28,2.87-3,2.71a2.68,2.68,0,0,1-2.68-3,2.66,2.66,0,0,1,3-2.66C392.5,95,393.15,96.33,393.4,97.87Z" style="fill:#FFC100"></path><path d="M367.91,69.34c-1.77-.18-2.85-1.13-2.83-2.88a2.82,2.82,0,0,1,5.64,0C370.72,68.28,369.64,69.18,367.91,69.34Z" style="fill:#FFC100"></path><path d="M292.27,131.81c.46.76,1.57,1.8,1.65,2.92.13,1.69-1.14,2.72-2.92,2.57a2.49,2.49,0,0,1-2.48-2.85C288.62,132.65,289.77,131.87,292.27,131.81Z" style="fill:#263238"></path><path d="M335,50.1a2.71,2.71,0,1,1-2.71-2.71A2.71,2.71,0,0,1,335,50.1Z" style="fill:#263238"></path><circle cx="308.15" cy="38.06" r="1.3" style="fill:#263238"></circle><circle cx="332.65" cy="29.82" r="1.73" style="fill:#FFC100"></circle><circle cx="359.76" cy="39.15" r="1.73" style="fill:#263238"></circle><circle cx="298.5" cy="60.94" r="1.84" style="fill:#FFC100"></circle><path d="M267.16,99.43a1.84,1.84,0,1,1-1.84-1.84A1.84,1.84,0,0,1,267.16,99.43Z" style="fill:#263238"></path><circle cx="281.48" cy="47.61" r="3.04" style="fill:#263238"></circle><path d="M272.37,74.28a2,2,0,1,1-1.95-2A2,2,0,0,1,272.37,74.28Z" style="fill:#FFC100"></path><circle cx="274.97" cy="91.63" r="1.3" style="fill:#263238"></circle><circle cx="282.56" cy="99.43" r="1.3" style="fill:#FFC100"></circle><path d="M275.84,123a3.8,3.8,0,1,1-3.8-3.79A3.8,3.8,0,0,1,275.84,123Z" style="fill:#FFC100"></path><circle cx="330.48" cy="144.1" r="1.73" style="fill:#263238"></circle><circle cx="331.68" cy="159.61" r="1.63" style="fill:#263238"></circle><path d="M356.07,160.91a2.5,2.5,0,1,1-2.49-2.49A2.48,2.48,0,0,1,356.07,160.91Z" style="fill:#263238"></path><circle cx="356.51" cy="146.27" r="1.3" style="fill:#263238"></circle><path d="M366.26,133.26a1.52,1.52,0,1,1-1.51-1.52A1.52,1.52,0,0,1,366.26,133.26Z" style="fill:#FFC100"></path><circle cx="374.5" cy="144.97" r="3.04" style="fill:#FFC100"></circle><circle cx="395.1" cy="131.96" r="1.73" style="fill:#263238"></circle><path d="M403.35,110.71a2,2,0,1,1-2-1.95A2,2,0,0,1,403.35,110.71Z" style="fill:#263238"></path><path d="M304,89.24a2,2,0,1,1-1.95-1.95A2,2,0,0,1,304,89.24Z" style="fill:#263238"></path><path d="M384.91,115.7a1.09,1.09,0,0,1-2.17,0,1.09,1.09,0,1,1,2.17,0Z" style="fill:#263238"></path><path d="M401.39,71.57A1.41,1.41,0,1,1,400,70.16,1.41,1.41,0,0,1,401.39,71.57Z" style="fill:#FFC100"></path><circle cx="384.59" cy="56.17" r="0.98" style="fill:#263238"></circle><circle cx="386.21" cy="79.27" r="2.17" style="fill:#263238"></circle><path d="M48,357.35l-22.21,5.33c-1.16.28-2.14.17-2.36-1.18s.6-1.84,1.81-2c4.74-.48,9.47-1,14.19-1.46,2.84-.3,5.67-.67,8.51-1Z" style="fill:#FFC100"></path><path d="M93.86,367.56l4.24,2.59,13.9,8.48.7.42c1,.61,1.56,1.48.78,2.54s-1.68.71-2.55,0L96.29,369.89l-2.6-2.09Z" style="fill:#263238"></path><path d="M57.93,374.08,53.14,382Q50,387.1,46.88,392.23c-.23.37-.44.75-.7,1.1-.61.82-1.55,1.15-2.21.41a2.38,2.38,0,0,1-.25-2.22A44.06,44.06,0,0,1,47,387.28q5.32-6.67,10.67-13.34Z" style="fill:#263238"></path><path d="M68.14,348.61c-1.07-.92-2.12-1.82-3.16-2.73L53,335.37c-.33-.28-.85-.58-.89-.91a2.9,2.9,0,0,1,.27-2c.28-.34,1.23-.13,1.88-.13.12,0,.26.19.36.31q6.85,7.86,13.68,15.73S68.24,348.43,68.14,348.61Z" style="fill:#FFC100"></path><path d="M80.09,356.18C89,360,97.8,363.76,106.63,367.6c.49.21,1.11,1.1,1,1.46-.31,1-1.16.65-1.86.3l-17.29-8.68c-2.85-1.43-5.71-2.83-8.57-4.25Z" style="fill:#263238"></path><path d="M69.68,359.45q-2.45,5.73-4.9,11.44L58,386.6a2.56,2.56,0,0,1-.51,1c-.29.23-.89.46-1.1.31a1.45,1.45,0,0,1-.57-1.15,4.63,4.63,0,0,1,.64-1.47q6.33-12.77,12.67-25.51a2.75,2.75,0,0,1,.35-.43Z" style="fill:#263238"></path><path d="M92.24,340.25l12.25-9.11c.78-.58,1.55-1.18,2.36-1.72a1.46,1.46,0,0,1,2.26.39,1.42,1.42,0,0,1-.56,2.21c-5.33,2.87-10.68,5.7-16,8.54Z" style="fill:#263238"></path><path d="M79.16,350.29c.94-.35,1.9-.68,2.83-1.06q12.24-4.87,24.47-9.79c.31-.12.62-.36.91-.33a8.57,8.57,0,0,1,1.52.41c-.29.49-.48,1.26-.89,1.41-2.49.93-5,1.71-7.55,2.56q-10.17,3.4-20.33,6.84c-.29.09-.59.15-.88.22Z" style="fill:#FFC100"></path><path d="M64.25,356.12l-15.38,6.14c-3.53,1.41-7,2.86-10.6,4.19-.54.2-1.29-.17-2-.27.42-.52.73-1.32,1.26-1.5,6.62-2.26,13.27-4.44,19.91-6.64,2.2-.73,4.39-1.49,6.58-2.23Z" style="fill:#263238"></path><path d="M75.86,361.28l6.9,17.22c1.19,3,2.42,5.93,3.53,8.94.17.47-.27,1.16-.42,1.75-.47-.34-1.21-.59-1.36-1-3-8.89-6-17.8-8.91-26.7Z" style="fill:#263238"></path><path d="M63.86,348.93c-1.39-.54-2.79-1-4.16-1.63q-10.32-4.43-20.61-8.9c-.3-.13-.71-.19-.87-.42a7.76,7.76,0,0,1-.66-1.43,7.22,7.22,0,0,1,1.42-.36c.28,0,.58.25.87.4q10.07,5,20.12,10c1.34.67,2.65,1.43,4,2.15Z" style="fill:#263238"></path><path d="M76.59,344.11c.11-.34.2-.69.34-1q5.14-12,10.31-24.07c.13-.3.2-.69.43-.86s.87-.5,1.09-.36a1.75,1.75,0,0,1,.63,1.12c.06.27-.2.6-.35.89q-5.92,11.87-11.86,23.71c-.12.23-.28.43-.42.65Z" style="fill:#FFC100"></path><path d="M69.15,343.86Q67,338.6,64.91,333.33q-2.8-7-5.62-14a2.49,2.49,0,0,1-.32-.91,16.52,16.52,0,0,1,.32-1.82,7.76,7.76,0,0,1,1.52,1.24,6.23,6.23,0,0,1,.59,1.67q3.88,11.72,7.79,23.44c.08.24.14.5.21.75Z" style="fill:#263238"></path><path d="M67.86,326.58c-1.51-6.92-3-13.84-4.5-20.77-.09-.44.45-1,.7-1.53.41.46,1.12.87,1.19,1.37.9,6.11,1.7,12.23,2.52,18.35.11.84.21,1.69.31,2.54Z" style="fill:#FFC100"></path><path d="M88,330.62l2-3.08,8.87-13.83a4.08,4.08,0,0,1,.88-1.15,1.28,1.28,0,0,1,1.14-.07,1.46,1.46,0,0,1,.37,1.1c0,.28-.3.56-.49.82L88.33,330.7Z" style="fill:#263238"></path><path d="M99.24,348c6.83-1.49,13.65-3,20.49-4.44.41-.09,1,.49,1.46.76-.32.41-.6,1.14-1,1.19-7,1-14,1.83-20.94,2.72Z" style="fill:#263238"></path><path d="M80,352.69c2.72-.12,5.45-.22,8.18-.35l11-.52c.82,0,1.7,0,1.56,1.06,0,.4-.94,1-1.43,1-6.44-.23-12.88-.55-19.31-.84C80,352.91,80,352.8,80,352.69Z" style="fill:#263238"></path><path d="M77.47,379.57c1.47,6.73,3,13.46,4.35,20.2.1.5-.42,1.12-.65,1.68-.41-.4-1.11-.76-1.18-1.21-1-6.71-1.84-13.44-2.74-20.17a2.59,2.59,0,0,1,0-.48Z" style="fill:#FFC100"></path><path d="M49.54,336.92c-5.6-3.59-11.21-7.16-16.77-10.8-.37-.24-.37-1-.55-1.58.53,0,1.24-.29,1.56,0,5.37,4,10.69,8.09,16,12.16Z" style="fill:#263238"></path><path d="M72.67,358.48q.45,10.22.91,20.43a3.68,3.68,0,0,1-.06,1.45,1.22,1.22,0,0,1-.93.68,1.21,1.21,0,0,1-.87-.75,5.39,5.39,0,0,1,0-1.61q.41-10.08.83-20.15Z" style="fill:#263238"></path><path d="M72.47,346.15c-.28-6.78-.57-13.38-.77-20,0-.5.63-1,1-1.52.31.43.91.87.9,1.29-.25,6.55-.58,13.1-.89,19.65A2.8,2.8,0,0,1,72.47,346.15Z" style="fill:#263238"></path><path d="M67.69,358,56.8,369.88c-.7.76-1.38,1.54-2.09,2.28-.55.57-1.14,1.48-2,.65s0-1.45.58-2l11.3-10.35c1-.9,1.91-1.83,2.87-2.74Z" style="fill:#FFC100"></path><path d="M64.52,353.05c-4.25.2-8.18.4-12.12.57-2.16.1-4.32.21-6.48.17-.52,0-1-.62-1.54-1,.48-.32,1-.92,1.43-.91,6.06.19,12.11.47,18.16.73C64.05,352.66,64.13,352.76,64.52,353.05Z" style="fill:#263238"></path><path d="M78.2,347c4.22-4.6,8.42-9.21,12.68-13.76.32-.34,1.1-.26,1.66-.37,0,.52.15,1.27-.13,1.54-4.62,4.33-9.3,8.59-14,12.87Z" style="fill:#263238"></path><path d="M78.46,358.45c4.63,4.25,9.27,8.48,13.86,12.77.31.29.21,1,.3,1.54-.56-.05-1.36.12-1.65-.19-4.29-4.58-8.52-9.22-12.76-13.85Z" style="fill:#FFC100"></path><path d="M94.79,357.74c6,1.08,12,2.13,18,3.28.48.1.83.84,1.25,1.28-.59.18-1.26.65-1.76.51-4.72-1.23-9.4-2.57-14.09-3.87-1.19-.32-2.39-.6-3.59-.9Z" style="fill:#FFC100"></path><path d="M77.56,330.52c1.1-6.22,2.11-12.09,3.21-17.94.09-.46.78-.8,1.19-1.19.24.51.78,1.11.67,1.53-1.52,5.66-3.12,11.29-4.71,16.92A4.24,4.24,0,0,1,77.56,330.52Z" style="fill:#263238"></path><path d="M49.06,347.69l-12.45-2.16c-1.44-.25-2.9-.45-4.31-.84-.46-.13-.79-.77-1.18-1.18.52-.23,1.13-.76,1.56-.65,5.49,1.46,11,3,16.43,4.53C49.09,347.49,49.08,347.59,49.06,347.69Z" style="fill:#FFC100"></path><path d="M52.36,365.85c-4.67,3.27-9.32,6.56-14,9.77-.38.26-1.12,0-1.69,0,.21-.52.27-1.31.66-1.54,4.91-2.86,9.87-5.64,14.82-8.44Z" style="fill:#263238"></path><path d="M85.64,373.2l8.25,11.74a14.28,14.28,0,0,1,1.53,2.29c.19.44-.1,1.09-.17,1.65-.49-.2-1.2-.26-1.42-.63-1.38-2.26-2.65-4.59-4-6.9l-4.5-8Z" style="fill:#263238"></path><path d="M59.42,332.29c-1.64-2.33-3.24-4.62-4.85-6.9s-3.22-4.51-4.72-6.83c-.25-.38,0-1.11.08-1.68.5.18,1.25.21,1.45.56,2.78,4.84,5.48,9.72,8.2,14.59C59.59,332.06,59.53,332.12,59.42,332.29Z" style="fill:#263238"></path><path d="M67.48,376.3c-1,5.64-2,11.29-3,16.92-.08.43-.81.74-1.23,1.11-.21-.54-.7-1.14-.59-1.59.85-3.36,1.81-6.68,2.74-10l1.83-6.54Z" style="fill:#FFC100"></path><path d="M53.42,399.31a1.91,1.91,0,0,1-2-1.87,1.93,1.93,0,0,1,2-2.09,2,2,0,0,1,.05,4Z" style="fill:#FFC100"></path><path d="M115.06,352.9c-.2,1.26-.88,2-2.09,1.86a1.94,1.94,0,1,1,.22-3.88C114.44,350.94,114.89,351.85,115.06,352.9Z" style="fill:#FFC100"></path><path d="M97.55,333.31a1.89,1.89,0,0,1-2-2,1.8,1.8,0,0,1,2-1.93,1.78,1.78,0,0,1,1.92,2A1.85,1.85,0,0,1,97.55,333.31Z" style="fill:#FFC100"></path><path d="M45.59,376.22c.32.52,1.08,1.24,1.14,2,.09,1.16-.79,1.86-2,1.76a1.71,1.71,0,0,1-1.7-2C43.08,376.8,43.87,376.26,45.59,376.22Z" style="fill:#263238"></path><path d="M75,320.09a1.86,1.86,0,1,1-1.86-1.86A1.86,1.86,0,0,1,75,320.09Z" style="fill:#263238"></path><circle cx="56.5" cy="311.83" r="0.89" style="fill:#263238"></circle><path d="M74.52,306.16A1.19,1.19,0,1,1,73.33,305,1.19,1.19,0,0,1,74.52,306.16Z" style="fill:#FFC100"></path><path d="M93.14,312.57A1.19,1.19,0,1,1,92,311.38,1.19,1.19,0,0,1,93.14,312.57Z" style="fill:#263238"></path><circle cx="49.87" cy="327.54" r="1.27" style="fill:#FFC100"></circle><path d="M28.35,354a1.27,1.27,0,1,1-1.27-1.27A1.27,1.27,0,0,1,28.35,354Z" style="fill:#263238"></path><circle cx="38.18" cy="318.38" r="2.09" style="fill:#263238"></circle><circle cx="30.58" cy="336.7" r="1.34" style="fill:#FFC100"></circle><path d="M34.6,348.62a.9.9,0,0,1-1.79,0,.9.9,0,1,1,1.79,0Z" style="fill:#263238"></path><path d="M39.82,354a.9.9,0,1,1-.9-.89A.89.89,0,0,1,39.82,354Z" style="fill:#FFC100"></path><circle cx="31.7" cy="370.14" r="2.61" style="fill:#FFC100"></circle><path d="M73,384.66a1.19,1.19,0,1,1-1.19-1.19A1.19,1.19,0,0,1,73,384.66Z" style="fill:#263238"></path><path d="M73.78,395.31a1.12,1.12,0,1,1-1.12-1.11A1.12,1.12,0,0,1,73.78,395.31Z" style="fill:#263238"></path><circle cx="87.7" cy="396.21" r="1.71" style="fill:#263238"></circle><path d="M90.61,386.15a.9.9,0,1,1-.89-.89A.89.89,0,0,1,90.61,386.15Z" style="fill:#263238"></path><circle cx="95.38" cy="377.22" r="1.04" style="fill:#FFC100"></circle><path d="M104.16,385.26a2.09,2.09,0,1,1-2.08-2.09A2.09,2.09,0,0,1,104.16,385.26Z" style="fill:#FFC100"></path><path d="M117.42,376.32a1.19,1.19,0,1,1-1.19-1.19A1.19,1.19,0,0,1,117.42,376.32Z" style="fill:#263238"></path><circle cx="120.55" cy="361.73" r="1.34" style="fill:#263238"></circle><circle cx="52.33" cy="346.98" r="1.34" style="fill:#263238"></circle><path d="M109.23,365.15a.75.75,0,1,1-1.49,0,.75.75,0,0,1,1.49,0Z" style="fill:#263238"></path><circle cx="119.58" cy="334.84" r="0.97" style="fill:#FFC100"></circle><circle cx="109.01" cy="324.26" r="0.67" style="fill:#263238"></circle><path d="M111.61,340.13a1.49,1.49,0,1,1-1.49-1.49A1.49,1.49,0,0,1,111.61,340.13Z" style="fill:#263238"></path><path d="M239.3,251.32q-11.1,2.66-22.21,5.33c-1.16.28-2.14.17-2.36-1.18s.6-1.85,1.82-2c4.73-.47,9.46-.94,14.19-1.45,2.83-.31,5.67-.67,8.5-1Z" style="fill:#FFC100"></path><path d="M285.16,261.53l4.24,2.58,13.91,8.49.69.42c1.06.61,1.57,1.48.78,2.54s-1.67.71-2.55,0q-7.31-5.86-14.64-11.71L285,261.77Z" style="fill:#263238"></path><path d="M249.23,268.05l-4.78,7.86-6.27,10.29a12.63,12.63,0,0,1-.69,1.1c-.62.82-1.55,1.15-2.22.41a2.38,2.38,0,0,1-.25-2.22,43,43,0,0,1,3.28-4.25L249,267.91Z" style="fill:#263238"></path><path d="M259.44,242.58c-1.07-.92-2.11-1.83-3.15-2.74l-12-10.5c-.33-.29-.85-.58-.89-.91a3,3,0,0,1,.27-2c.29-.33,1.23-.13,1.88-.12.12,0,.26.19.37.31l13.68,15.72S259.54,242.4,259.44,242.58Z" style="fill:#FFC100"></path><path d="M271.4,250.15c8.85,3.79,17.71,7.57,26.54,11.42.48.21,1.11,1.09,1,1.46-.32,1-1.17.64-1.87.29q-8.64-4.33-17.29-8.67-4.27-2.15-8.56-4.25Z" style="fill:#263238"></path><path d="M261,253.42l-4.9,11.44q-3.37,7.84-6.74,15.7c-.15.35-.24.79-.51,1s-.88.46-1.1.32a1.48,1.48,0,0,1-.57-1.15,4.82,4.82,0,0,1,.65-1.48l12.66-25.5a2.86,2.86,0,0,1,.35-.43Z" style="fill:#263238"></path><path d="M283.54,234.21l12.25-9.1c.78-.58,1.55-1.18,2.36-1.72a1.48,1.48,0,0,1,2.27.38,1.43,1.43,0,0,1-.56,2.22c-5.34,2.87-10.69,5.69-16,8.53Z" style="fill:#263238"></path><path d="M270.46,244.25c1-.35,1.9-.68,2.83-1.05l24.48-9.79c.3-.12.61-.37.9-.34a9,9,0,0,1,1.52.41c-.29.49-.48,1.26-.89,1.42-2.49.93-5,1.71-7.55,2.56l-20.33,6.83c-.29.1-.59.15-.88.23Z" style="fill:#FFC100"></path><path d="M255.55,250.09l-15.38,6.14c-3.52,1.41-7,2.86-10.6,4.18-.54.21-1.29-.16-1.95-.27.42-.51.74-1.31,1.26-1.49,6.62-2.27,13.27-4.44,19.91-6.65,2.2-.73,4.39-1.48,6.58-2.22Z" style="fill:#263238"></path><path d="M267.16,255.25l6.9,17.21c1.19,3,2.43,5.94,3.53,8.94.17.47-.27,1.17-.42,1.76-.46-.34-1.2-.59-1.35-1-3-8.88-6-17.79-8.92-26.7Z" style="fill:#263238"></path><path d="M255.16,242.89c-1.38-.54-2.79-1-4.16-1.62q-10.32-4.44-20.61-8.91c-.3-.13-.71-.18-.87-.41a8.44,8.44,0,0,1-.65-1.43,6.49,6.49,0,0,1,1.41-.36c.28,0,.58.25.88.39q10.05,5,20.11,10c1.35.67,2.65,1.43,4,2.15Z" style="fill:#263238"></path><path d="M267.89,238.07c.11-.33.2-.68.34-1q5.14-12,10.31-24.07c.13-.3.21-.69.44-.86s.86-.5,1.09-.37a1.87,1.87,0,0,1,.63,1.13c.05.26-.21.6-.36.89q-5.93,11.85-11.86,23.71c-.12.22-.28.43-.42.65Z" style="fill:#FFC100"></path><path d="M260.45,237.83l-4.24-10.53-5.61-14a2.39,2.39,0,0,1-.33-.91,16,16,0,0,1,.32-1.81,7.72,7.72,0,0,1,1.52,1.23,6.3,6.3,0,0,1,.59,1.68q3.9,11.72,7.79,23.43c.08.25.14.5.21.76Z" style="fill:#263238"></path><path d="M259.16,220.55c-1.51-6.92-3.05-13.84-4.5-20.77-.09-.44.45-1,.7-1.53.41.45,1.12.86,1.2,1.37.89,6.1,1.69,12.22,2.51,18.34.11.85.21,1.7.31,2.55Z" style="fill:#FFC100"></path><path d="M279.33,224.58l2-3.07q4.43-6.91,8.87-13.83a3.76,3.76,0,0,1,.87-1.15,1.22,1.22,0,0,1,1.14-.07,1.46,1.46,0,0,1,.37,1.1c0,.28-.29.56-.49.82l-12.43,16.29Z" style="fill:#263238"></path><path d="M290.55,242c6.82-1.5,13.64-3,20.48-4.45.42-.09,1,.49,1.46.76-.32.42-.6,1.15-1,1.2-7,.95-14,1.82-20.95,2.71Z" style="fill:#263238"></path><path d="M271.3,246.65l8.18-.34c3.68-.17,7.36-.34,11-.53.82,0,1.71,0,1.56,1.06-.05.41-.94,1-1.43,1-6.44-.23-12.87-.55-19.31-.85Z" style="fill:#263238"></path><path d="M268.77,273.53c1.47,6.73,3,13.46,4.35,20.21.11.49-.42,1.12-.65,1.68-.4-.4-1.11-.76-1.18-1.21-1-6.72-1.84-13.45-2.73-20.18a2.63,2.63,0,0,1,0-.48Z" style="fill:#FFC100"></path><path d="M240.85,230.89c-5.61-3.59-11.22-7.16-16.78-10.81-.37-.24-.37-1-.54-1.58.52,0,1.23-.28,1.56,0,5.36,4,10.68,8.1,16,12.17Z" style="fill:#263238"></path><path d="M264,252.44q.45,10.21.91,20.44a3.63,3.63,0,0,1-.06,1.44,1.23,1.23,0,0,1-.93.69,1.18,1.18,0,0,1-.86-.75,5.08,5.08,0,0,1,0-1.61q.42-10.08.83-20.15Z" style="fill:#263238"></path><path d="M263.78,240.12c-.28-6.78-.58-13.39-.78-20,0-.49.63-1,1-1.52.31.43.92.88.9,1.29-.25,6.56-.57,13.11-.89,19.66A3.3,3.3,0,0,1,263.78,240.12Z" style="fill:#263238"></path><path d="M259,252,248.1,263.85c-.69.76-1.38,1.53-2.09,2.28-.55.57-1.14,1.47-2,.65s0-1.46.58-2c3.77-3.46,7.54-6.9,11.3-10.36,1-.89,1.92-1.82,2.87-2.73Z" style="fill:#FFC100"></path><path d="M255.82,247c-4.24.2-8.18.4-12.12.57-2.16.09-4.32.21-6.48.17-.52,0-1-.62-1.54-.95.48-.32,1-.93,1.43-.91,6.06.19,12.11.46,18.16.72C255.35,246.63,255.43,246.73,255.82,247Z" style="fill:#263238"></path><path d="M269.5,241c4.22-4.6,8.42-9.22,12.69-13.77.31-.34,1.09-.25,1.65-.36,0,.52.15,1.27-.13,1.53-4.62,4.33-9.3,8.6-14,12.88Z" style="fill:#263238"></path><path d="M269.77,252.42c4.62,4.24,9.27,8.47,13.85,12.77.31.28.21,1,.3,1.53-.56-.05-1.36.12-1.65-.19-4.29-4.57-8.52-9.22-12.76-13.84Z" style="fill:#FFC100"></path><path d="M286.1,251.71c6,1.08,12,2.13,18,3.28.48.09.84.83,1.25,1.27-.59.19-1.25.65-1.76.52-4.71-1.23-9.4-2.57-14.09-3.87-1.19-.33-2.39-.6-3.58-.9Z" style="fill:#FFC100"></path><path d="M268.86,224.49c1.1-6.22,2.11-12.09,3.21-17.94.09-.46.78-.8,1.19-1.19.24.51.78,1.1.67,1.53-1.52,5.65-3.12,11.28-4.7,16.92A6.34,6.34,0,0,1,268.86,224.49Z" style="fill:#263238"></path><path d="M240.37,241.66l-12.46-2.16c-1.44-.26-2.9-.45-4.3-.84-.47-.13-.8-.78-1.19-1.19.53-.23,1.13-.76,1.57-.64,5.49,1.45,10.95,3,16.42,4.53C240.4,241.46,240.38,241.56,240.37,241.66Z" style="fill:#FFC100"></path><path d="M243.66,259.81c-4.67,3.27-9.32,6.57-14,9.78-.38.26-1.12,0-1.69,0,.22-.53.27-1.32.66-1.54,4.91-2.86,9.87-5.64,14.82-8.44Z" style="fill:#263238"></path><path d="M276.94,267.16l8.25,11.75a14,14,0,0,1,1.53,2.28c.2.44-.09,1.1-.17,1.66-.48-.2-1.2-.27-1.42-.63-1.38-2.27-2.65-4.6-4-6.91l-4.5-8Z" style="fill:#263238"></path><path d="M250.72,226.25l-4.85-6.9c-1.59-2.26-3.21-4.5-4.72-6.82-.25-.38,0-1.12.08-1.69.5.18,1.25.22,1.45.57,2.78,4.84,5.48,9.72,8.2,14.59C250.89,226,250.83,226.09,250.72,226.25Z" style="fill:#263238"></path><path d="M258.78,270.27c-1,5.64-2,11.29-3,16.92-.09.43-.81.74-1.24,1.1-.21-.53-.7-1.13-.58-1.58.84-3.36,1.81-6.69,2.73-10l1.83-6.54Z" style="fill:#FFC100"></path><path d="M244.73,293.28a2,2,0,1,1-.06-4,1.88,1.88,0,0,1,1.94,1.95A1.9,1.9,0,0,1,244.73,293.28Z" style="fill:#FFC100"></path><path d="M306.36,246.87c-.19,1.25-.88,2-2.09,1.86a1.94,1.94,0,1,1,.22-3.88C305.74,244.91,306.19,245.81,306.36,246.87Z" style="fill:#FFC100"></path><path d="M288.85,227.28c-1.21-.13-2-.78-1.94-2a1.94,1.94,0,1,1,3.87,0A1.86,1.86,0,0,1,288.85,227.28Z" style="fill:#FFC100"></path><path d="M236.89,270.19c.32.52,1.08,1.23,1.14,2a1.65,1.65,0,0,1-2,1.76,1.7,1.7,0,0,1-1.7-1.95C234.38,270.77,235.17,270.23,236.89,270.19Z" style="fill:#263238"></path><path d="M266.27,214.06a1.86,1.86,0,1,1-1.86-1.86A1.86,1.86,0,0,1,266.27,214.06Z" style="fill:#263238"></path><path d="M248.69,205.79a.89.89,0,1,1-.89-.89A.9.9,0,0,1,248.69,205.79Z" style="fill:#263238"></path><path d="M265.82,200.13a1.19,1.19,0,1,1-1.19-1.19A1.19,1.19,0,0,1,265.82,200.13Z" style="fill:#FFC100"></path><path d="M284.44,206.54a1.19,1.19,0,1,1-1.19-1.2A1.19,1.19,0,0,1,284.44,206.54Z" style="fill:#263238"></path><circle cx="241.17" cy="221.51" r="1.27" style="fill:#FFC100"></circle><circle cx="218.38" cy="247.95" r="1.27" style="fill:#263238"></circle><path d="M231.56,212.35a2.09,2.09,0,1,1-2.08-2.09A2.08,2.08,0,0,1,231.56,212.35Z" style="fill:#263238"></path><path d="M223.22,230.67a1.34,1.34,0,1,1-1.34-1.34A1.34,1.34,0,0,1,223.22,230.67Z" style="fill:#FFC100"></path><path d="M225.9,242.58a.89.89,0,1,1-.89-.89A.89.89,0,0,1,225.9,242.58Z" style="fill:#263238"></path><circle cx="230.22" cy="247.95" r="0.89" style="fill:#FFC100"></circle><circle cx="223" cy="264.11" r="2.61" style="fill:#FFC100"></circle><path d="M264.33,278.63a1.19,1.19,0,1,1-1.19-1.19A1.19,1.19,0,0,1,264.33,278.63Z" style="fill:#263238"></path><path d="M265.08,289.28a1.12,1.12,0,1,1-1.12-1.12A1.12,1.12,0,0,1,265.08,289.28Z" style="fill:#263238"></path><path d="M280.72,290.17a1.72,1.72,0,1,1-1.71-1.71A1.72,1.72,0,0,1,280.72,290.17Z" style="fill:#263238"></path><path d="M281.91,280.12a.9.9,0,1,1-.89-.89A.89.89,0,0,1,281.91,280.12Z" style="fill:#263238"></path><path d="M287.72,271.18a1,1,0,1,1-1-1A1,1,0,0,1,287.72,271.18Z" style="fill:#FFC100"></path><circle cx="293.38" cy="279.23" r="2.09" style="fill:#FFC100"></circle><path d="M308.72,270.29a1.19,1.19,0,1,1-1.19-1.19A1.19,1.19,0,0,1,308.72,270.29Z" style="fill:#263238"></path><circle cx="311.85" cy="255.69" r="1.34" style="fill:#263238"></circle><path d="M245,240.94a1.34,1.34,0,1,1-1.34-1.34A1.34,1.34,0,0,1,245,240.94Z" style="fill:#263238"></path><path d="M300.53,259.12a.75.75,0,0,1-1.49,0,.75.75,0,1,1,1.49,0Z" style="fill:#263238"></path><path d="M311.85,228.8a1,1,0,1,1-1-1A1,1,0,0,1,311.85,228.8Z" style="fill:#FFC100"></path><circle cx="300.31" cy="218.23" r="0.67" style="fill:#263238"></circle><path d="M302.91,234.09a1.49,1.49,0,1,1-1.49-1.49A1.48,1.48,0,0,1,302.91,234.09Z" style="fill:#263238"></path><path d="M138.71,199.44l-13.84,3.32c-.72.18-1.34.1-1.47-.74s.37-1.15,1.13-1.22c3-.3,5.9-.59,8.85-.91,1.77-.19,3.53-.42,5.3-.63Z" style="fill:#FFC100"></path><path d="M167.3,205.8l2.65,1.61,8.67,5.29.43.26c.66.38,1,.93.49,1.59s-1,.44-1.59,0l-9.13-7.3L167.2,206Z" style="fill:#263238"></path><path d="M144.91,209.87l-3,4.9-3.9,6.41a7.28,7.28,0,0,1-.44.69c-.38.51-1,.71-1.37.25a1.46,1.46,0,0,1-.16-1.38,30.14,30.14,0,0,1,2-2.65l6.65-8.31Z" style="fill:#263238"></path><path d="M151.27,194l-2-1.71-7.49-6.55c-.2-.17-.52-.36-.55-.56a1.8,1.8,0,0,1,.17-1.26c.17-.21.76-.08,1.17-.08.08,0,.16.12.23.2l8.53,9.8Z" style="fill:#FFC100"></path><path d="M158.72,198.71c5.52,2.36,11.05,4.72,16.55,7.12.3.13.69.68.62.91-.19.65-.72.4-1.16.18L164,201.51c-1.77-.89-3.56-1.77-5.34-2.65Z" style="fill:#263238"></path><path d="M152.23,200.75q-1.53,3.56-3,7.13-2.1,4.89-4.21,9.79a1.57,1.57,0,0,1-.31.62c-.18.15-.56.29-.69.2a.89.89,0,0,1-.35-.72,3,3,0,0,1,.4-.92q3.94-7.95,7.9-15.9a1.33,1.33,0,0,1,.21-.26Z" style="fill:#263238"></path><path d="M166.3,188.77l7.63-5.67c.49-.36,1-.74,1.47-1.08a.93.93,0,0,1,1.42.24.9.9,0,0,1-.35,1.39l-10,5.32Z" style="fill:#263238"></path><path d="M158.14,195c.59-.22,1.18-.42,1.77-.65l15.25-6.11c.19-.07.39-.23.57-.21a5.6,5.6,0,0,1,1,.26c-.18.3-.3.78-.56.88-1.55.58-3.14,1.07-4.71,1.59l-12.67,4.27c-.18.06-.37.09-.55.14Z" style="fill:#FFC100"></path><path d="M148.84,198.67l-9.58,3.83c-2.2.88-4.39,1.78-6.61,2.61-.34.12-.81-.11-1.21-.17.25-.32.45-.82.78-.93,4.13-1.42,8.27-2.77,12.41-4.15l4.11-1.38Z" style="fill:#263238"></path><path d="M156.08,201.89l4.31,10.73c.74,1.85,1.51,3.7,2.2,5.57.1.3-.17.73-.27,1.1-.29-.22-.75-.37-.84-.65-1.88-5.54-3.71-11.09-5.56-16.64Z" style="fill:#263238"></path><path d="M148.61,194.18c-.87-.33-1.75-.64-2.6-1q-6.44-2.76-12.85-5.55c-.19-.08-.44-.12-.54-.26a4.51,4.51,0,0,1-.41-.89,4.56,4.56,0,0,1,.88-.23c.18,0,.37.16.55.25q6.27,3.1,12.54,6.23c.84.42,1.65.89,2.48,1.33Z" style="fill:#263238"></path><path d="M156.54,191.18c.07-.21.12-.43.21-.63q3.21-7.5,6.43-15c.08-.19.13-.43.27-.54s.54-.31.68-.23a1.13,1.13,0,0,1,.39.71c0,.16-.13.37-.22.55l-7.39,14.78c-.08.14-.18.27-.26.41Z" style="fill:#FFC100"></path><path d="M151.9,191l-2.64-6.57q-1.75-4.36-3.5-8.74a1.53,1.53,0,0,1-.21-.57,9,9,0,0,1,.21-1.13,4.45,4.45,0,0,1,.94.77,3.77,3.77,0,0,1,.37,1q2.43,7.3,4.85,14.61c.06.16.09.32.14.47Z" style="fill:#263238"></path><path d="M151.1,180.25c-.95-4.31-1.9-8.62-2.81-12.95-.06-.27.28-.63.44-1,.26.28.7.54.74.85.56,3.81,1.06,7.63,1.57,11.44.07.53.13,1.06.2,1.59Z" style="fill:#FFC100"></path><path d="M163.67,182.77l1.23-1.92q2.76-4.31,5.53-8.62a2.61,2.61,0,0,1,.54-.72.78.78,0,0,1,.71,0,.91.91,0,0,1,.24.69c0,.17-.19.34-.31.5l-7.75,10.16Z" style="fill:#263238"></path><path d="M170.66,193.63c4.26-.93,8.51-1.88,12.77-2.77.26-.05.61.31.92.47-.2.26-.38.72-.61.75-4.35.59-8.71,1.14-13.06,1.69Z" style="fill:#263238"></path><path d="M158.66,196.53l5.11-.22,6.88-.32c.51,0,1.06,0,1,.66,0,.25-.59.63-.89.62-4-.14-8-.35-12-.53Z" style="fill:#263238"></path><path d="M157.09,213.29c.91,4.19,1.84,8.39,2.71,12.59.07.31-.26.7-.4,1.05-.26-.25-.7-.47-.74-.75-.6-4.19-1.15-8.39-1.71-12.58a1.53,1.53,0,0,1,0-.3Z" style="fill:#FFC100"></path><path d="M139.68,186.7c-3.49-2.24-7-4.46-10.46-6.74-.23-.15-.23-.65-.34-1,.33,0,.77-.18,1,0,3.35,2.51,6.66,5.05,10,7.59Z" style="fill:#263238"></path><path d="M154.09,200.14c.19,4.24.39,8.49.57,12.74a2.26,2.26,0,0,1,0,.9.81.81,0,0,1-.59.43.77.77,0,0,1-.53-.47,3.09,3.09,0,0,1,0-1q.26-6.27.52-12.56Z" style="fill:#263238"></path><path d="M154,192.45c-.17-4.22-.35-8.34-.48-12.46,0-.31.39-.63.61-1,.19.27.57.54.56.81-.16,4.08-.36,8.17-.56,12.25A1.3,1.3,0,0,1,154,192.45Z" style="fill:#263238"></path><path d="M151,199.84l-6.79,7.41c-.43.47-.86.95-1.3,1.42s-.71.92-1.25.4,0-.9.37-1.24c2.34-2.16,4.69-4.3,7-6.46l1.79-1.7Z" style="fill:#FFC100"></path><path d="M149,196.75c-2.64.13-5.1.26-7.55.36-1.35.06-2.7.13-4,.11-.32,0-.64-.39-1-.6.3-.19.6-.57.89-.56,3.78.11,7.55.29,11.32.45C148.72,196.51,148.77,196.58,149,196.75Z" style="fill:#263238"></path><path d="M157.54,193c2.63-2.87,5.25-5.75,7.91-8.59.2-.21.68-.15,1-.22,0,.32.08.79-.09.95-2.88,2.7-5.79,5.36-8.7,8Z" style="fill:#263238"></path><path d="M157.71,200.12c2.88,2.65,5.78,5.29,8.64,8,.19.18.13.63.18,1-.35,0-.84.08-1-.12-2.68-2.85-5.32-5.75-8-8.63Z" style="fill:#FFC100"></path><path d="M167.89,199.68c3.75.67,7.5,1.33,11.24,2,.3.05.52.52.78.79-.37.12-.78.4-1.1.32-2.93-.77-5.85-1.6-8.78-2.41-.74-.2-1.49-.38-2.23-.56Z" style="fill:#FFC100"></path><path d="M157.15,182.71c.68-3.88,1.31-7.54,2-11.19,0-.28.48-.49.74-.74.15.32.48.69.41,1-.94,3.52-1.94,7-2.93,10.55A3.62,3.62,0,0,1,157.15,182.71Z" style="fill:#263238"></path><path d="M139.38,193.42l-7.77-1.35a27,27,0,0,1-2.68-.53c-.29-.08-.5-.48-.74-.73.33-.15.71-.48,1-.41,3.42.91,6.83,1.88,10.24,2.83Z" style="fill:#FFC100"></path><path d="M141.43,204.73c-2.91,2-5.81,4.09-8.74,6.1-.23.16-.69,0-1.05,0,.13-.33.17-.82.41-1,3.06-1.78,6.16-3.51,9.24-5.26Z" style="fill:#263238"></path><path d="M162.18,209.31q2.58,3.66,5.14,7.33a9.32,9.32,0,0,1,1,1.42c.12.28-.06.68-.11,1-.3-.12-.75-.16-.88-.39-.86-1.41-1.66-2.86-2.47-4.3l-2.81-5Z" style="fill:#263238"></path><path d="M145.84,183.81l-3-4.3c-1-1.41-2-2.81-2.94-4.26-.16-.23,0-.69,0-1.05.31.12.78.14.9.35,1.74,3,3.42,6.06,5.12,9.1A1.18,1.18,0,0,1,145.84,183.81Z" style="fill:#263238"></path><path d="M150.86,211.25c-.62,3.52-1.22,7-1.89,10.55-.05.27-.5.46-.77.69-.13-.33-.43-.71-.36-1,.53-2.09,1.13-4.17,1.71-6.25l1.14-4.07Z" style="fill:#FFC100"></path><path d="M142.1,225.59a1.18,1.18,0,0,1-1.26-1.16,1.19,1.19,0,0,1,1.22-1.3,1.17,1.17,0,0,1,1.21,1.22C143.29,225.1,142.83,225.49,142.1,225.59Z" style="fill:#FFC100"></path><path d="M180.52,196.66c-.12.78-.55,1.23-1.3,1.16a1.21,1.21,0,1,1,.14-2.42C180.14,195.44,180.42,196,180.52,196.66Z" style="fill:#FFC100"></path><path d="M169.61,184.45a1.19,1.19,0,0,1-1.22-1.24,1.12,1.12,0,0,1,1.22-1.2,1.11,1.11,0,0,1,1.2,1.22A1.15,1.15,0,0,1,169.61,184.45Z" style="fill:#FFC100"></path><path d="M137.21,211.2c.2.33.68.77.71,1.25.06.72-.49,1.16-1.25,1.1a1.06,1.06,0,0,1-1.06-1.22C135.65,211.56,136.14,211.22,137.21,211.2Z" style="fill:#263238"></path><circle cx="154.37" cy="176.21" r="1.16" style="fill:#263238"></circle><path d="M144.57,171.05a.56.56,0,1,1-.56-.55A.56.56,0,0,1,144.57,171.05Z" style="fill:#263238"></path><circle cx="154.51" cy="167.52" r="0.74" style="fill:#FFC100"></circle><circle cx="166.12" cy="171.52" r="0.74" style="fill:#263238"></circle><path d="M140.67,180.85a.79.79,0,1,1-.79-.79A.79.79,0,0,1,140.67,180.85Z" style="fill:#FFC100"></path><path d="M126.46,197.33a.79.79,0,1,1-1.58,0,.79.79,0,0,1,1.58,0Z" style="fill:#263238"></path><circle cx="132.59" cy="175.14" r="1.3" style="fill:#263238"></circle><path d="M128.69,186.56a.84.84,0,1,1-.83-.83A.83.83,0,0,1,128.69,186.56Z" style="fill:#FFC100"></path><path d="M130.36,194a.56.56,0,1,1-.55-.56A.56.56,0,0,1,130.36,194Z" style="fill:#263238"></path><circle cx="133.06" cy="197.33" r="0.56" style="fill:#FFC100"></circle><path d="M130.18,207.41a1.63,1.63,0,1,1-1.63-1.63A1.62,1.62,0,0,1,130.18,207.41Z" style="fill:#FFC100"></path><path d="M154.32,216.46a.74.74,0,1,1-1.48,0,.74.74,0,0,1,1.48,0Z" style="fill:#263238"></path><path d="M154.79,223.1a.7.7,0,1,1-.7-.69A.7.7,0,0,1,154.79,223.1Z" style="fill:#263238"></path><path d="M164.54,223.66a1.07,1.07,0,1,1-1.07-1.07A1.07,1.07,0,0,1,164.54,223.66Z" style="fill:#263238"></path><path d="M165.28,217.39a.56.56,0,1,1-1.11,0,.56.56,0,0,1,1.11,0Z" style="fill:#263238"></path><path d="M168.9,211.82a.65.65,0,1,1-.65-.65A.65.65,0,0,1,168.9,211.82Z" style="fill:#FFC100"></path><circle cx="172.43" cy="216.84" r="1.3" style="fill:#FFC100"></circle><path d="M182,211.26a.76.76,0,0,1-.75.75.75.75,0,0,1-.74-.75.74.74,0,0,1,.74-.74A.75.75,0,0,1,182,211.26Z" style="fill:#263238"></path><circle cx="183.95" cy="202.16" r="0.84" style="fill:#263238"></circle><path d="M142.25,193a.84.84,0,1,1-.84-.84A.84.84,0,0,1,142.25,193Z" style="fill:#263238"></path><circle cx="176.42" cy="204.3" r="0.46" style="fill:#263238"></circle><path d="M184,185.4a.61.61,0,1,1-.61-.6A.6.6,0,0,1,184,185.4Z" style="fill:#FFC100"></path><path d="M177.17,178.81a.42.42,0,1,1-.42-.42A.42.42,0,0,1,177.17,178.81Z" style="fill:#263238"></path><path d="M178.37,188.7a.93.93,0,1,1-.92-.93A.93.93,0,0,1,178.37,188.7Z" style="fill:#263238"></path></g><g id="freepik--building-1--inject-7"><path d="M467.62,440.4l-.82-30.7h.84v-3.06h-.93l-1.07-40.23h2v-3.06h-2.08l-1.32-49.26h3.4V311H465.2v-6h.57v-1.44h-.48a5.8,5.8,0,0,0-.27-5.12,7.26,7.26,0,0,0-3.92-3.21,10.46,10.46,0,0,1-1.86-.86l-1.1-.62v-.45a.35.35,0,0,0,.26-.33.34.34,0,0,0-.26-.33v-.25a.66.66,0,0,0,.58-.64.67.67,0,0,0-.58-.65v-.4a.34.34,0,0,0,0-.66v-.78h-.21v.78a.34.34,0,0,0,0,.66v.4a.67.67,0,0,0-.59.65.66.66,0,0,0,.59.64v.25a.35.35,0,0,0-.27.33.36.36,0,0,0,.27.33v.44l-.74.46a13.75,13.75,0,0,1-2.21,1.09,7.22,7.22,0,0,0-3.62,3.13,5.81,5.81,0,0,0-.26,5.14h-.48v1.44h.57v6h-2.44v3.06h3.4l-1.32,49.26h-2.08v3.06h2l-1.08,40.23h-.92v3.06h.84l-.82,30.7h-35l-.6-22.48h.62v-2.26h-.68l-.8-29.73h1.48v-2.26h-1.54l-1-36.4h2.51V345H412v-4.42h.42v-1.06H412a4.26,4.26,0,0,0-.2-3.78,5.31,5.31,0,0,0-2.89-2.37,8.64,8.64,0,0,1-1.38-.64l-.81-.46V332a.25.25,0,0,0,0-.49v-.18a.49.49,0,0,0,.43-.48.48.48,0,0,0-.43-.47V330a.25.25,0,0,0,0-.49V329h-.16v.58a.25.25,0,0,0,0,.49v.3a.49.49,0,0,0-.43.47.5.5,0,0,0,.43.48v.18a.25.25,0,0,0,0,.49v.32l-.54.34a10.31,10.31,0,0,1-1.63.81,5.31,5.31,0,0,0-2.68,2.32,4.28,4.28,0,0,0-.19,3.79h-.36v1.06h.42V345h-1.8v2.26h2.51l-1,36.4h-1.54v2.26h1.48l-.8,29.73h-.68v2.26h.62l-.6,22.48H381.46V330.9a1.95,1.95,0,0,0-3.9,0V354H359.05V330.9a1.95,1.95,0,1,0-3.9,0V354H344.5V342.49h1.23v-3.1h-1a12.56,12.56,0,0,0-.57-11.1,15.63,15.63,0,0,0-7.83-6.78c-.64-.25-1.26-.53-1.88-.82a25.56,25.56,0,0,1-2.88-1.53l-1.6-1v-.9a.79.79,0,0,0,0-1.51v-.44a1.45,1.45,0,0,0,0-2.88v-.78a.79.79,0,0,0,0-1.51v-1.65h-.46v1.65a.79.79,0,0,0,0,1.51v.78a1.45,1.45,0,0,0,0,2.88v.44a.79.79,0,0,0,0,1.51v.93l-2.37,1.34c-.75.43-1.53.82-2.32,1.18-.56.25-1.12.49-1.69.69a15.31,15.31,0,0,0-5.27,3.09,24.18,24.18,0,0,0-3.2-12.79,31.14,31.14,0,0,0-16.86-13.8c-1-.34-2-.75-3-1.19h0c-.83-.36-1.64-.75-2.45-1.15l-.13-.07c-.82-.41-1.62-.84-2.41-1.29l-4.72-2.68v-1.85a1.56,1.56,0,0,0,0-3v-.87a2.9,2.9,0,0,0,0-5.74v-1.56a1.56,1.56,0,0,0,0-3V272.2h-.91v3.29a1.56,1.56,0,0,0,0,3v1.56a2.9,2.9,0,0,0,0,5.74v.87a1.56,1.56,0,0,0,0,3v1.8l-3.19,2c-1.29.8-2.64,1.52-4,2.2-.48.24-.95.48-1.43.7-1.34.63-2.68,1.24-4.06,1.78a31.14,31.14,0,0,0-15.6,13.49,24.25,24.25,0,0,0-3.16,11.66,15.81,15.81,0,0,0-3.2-1.78c-.64-.25-1.26-.53-1.88-.82a25.56,25.56,0,0,1-2.88-1.53l-1.6-1v-.9a.79.79,0,0,0,0-1.51v-.44a1.45,1.45,0,0,0,0-2.88v-.78a.79.79,0,0,0,0-1.51v-1.65h-.46v1.65a.79.79,0,0,0,0,1.51v.78a1.45,1.45,0,0,0,0,2.88v.44a.79.79,0,0,0,0,1.51v.93l-2.37,1.34h0c-.75.42-1.53.81-2.32,1.17-.56.25-1.12.49-1.69.69a15.58,15.58,0,0,0-8.47,6.92,12.5,12.5,0,0,0-.62,11.07h-1v3.1h1.24V354H215.9V330.9a1.95,1.95,0,0,0-3.9,0V354H193.48V330.9a1.95,1.95,0,0,0-3.9,0V440.4H175.19l-.6-22.48h.62v-2.26h-.68l-.8-29.73h1.48v-2.26h-1.54l-1-36.4h2.51V345h-1.8v-4.42h.42v-1.06h-.36a4.25,4.25,0,0,0-.19-3.79,5.31,5.31,0,0,0-2.68-2.32,10.31,10.31,0,0,1-1.63-.81l-.54-.34V332a.26.26,0,0,0,.19-.25.26.26,0,0,0-.19-.24v-.18a.49.49,0,0,0,.43-.48.48.48,0,0,0-.43-.47V330a.26.26,0,0,0,.19-.24.26.26,0,0,0-.19-.25V329h-.16v.58a.27.27,0,0,0-.19.25.26.26,0,0,0,.19.24v.3a.48.48,0,0,0-.43.47.49.49,0,0,0,.43.48v.18a.26.26,0,0,0-.19.24.26.26,0,0,0,.19.25v.33l-.81.46a8.54,8.54,0,0,1-1.37.64,5.29,5.29,0,0,0-2.9,2.37,4.26,4.26,0,0,0-.2,3.78h-.36v1.06h.43V345h-1.81v2.26h2.51l-1,36.4h-1.54v2.26h1.48l-.8,29.73h-.68v2.26h.62l-.6,22.48h-35l-.82-30.7h.84v-3.06h-.92l-1.08-40.23h2v-3.06h-2.08l-1.32-49.26h3.4V311h-2.44v-6h.57v-1.44h-.48a5.81,5.81,0,0,0-.26-5.14,7.22,7.22,0,0,0-3.62-3.13,13.75,13.75,0,0,1-2.21-1.09l-.74-.46v-.44a.36.36,0,0,0,.27-.33.35.35,0,0,0-.27-.33v-.25a.66.66,0,0,0,.59-.64.67.67,0,0,0-.59-.65v-.4a.34.34,0,0,0,0-.66v-.78h-.21v.78a.34.34,0,0,0,0,.66v.4a.67.67,0,0,0-.58.65.66.66,0,0,0,.58.64v.25a.35.35,0,0,0-.26.33.36.36,0,0,0,.26.33v.45l-1.09.62a11.16,11.16,0,0,1-1.86.86,7.19,7.19,0,0,0-3.92,3.21,5.77,5.77,0,0,0-.28,5.12h-.48v1.44h.57v6h-2.44v3.06h3.4l-1.31,49.26h-2.09v3.06h2l-1.07,40.23h-.93v3.06h.85l-.83,30.7h-6.64v26.69H475V440.4Z" style="fill:#263238"></path></g><g id="freepik--building-2--inject-7"><path d="M432.38,172.3h15.44V147.14c0-.56.11-1.68,2.12-4s2-7.83,2-7.83H410.57l-1.75,1.49" style="fill:#ededed;stroke:#000;stroke-linecap:round;stroke-linejoin:round"></path><path d="M440.06,70.79c-.48-3.87-8.47-9.92-8.47-9.92-.48-1.45-1.45-1.45-1.93,0,0,0-8,6.05-8.47,9.92s1.94,7.74,1.94,7.74h15S440.54,74.66,440.06,70.79Z" style="fill:#d1d1d1;stroke:#000;stroke-linecap:round;stroke-linejoin:round"></path><path d="M437,86.75c-1.05-3.87.64-8.22.64-8.22H422.88s1.69,4.35.63,8.22a42.57,42.57,0,0,1-2.32,6.53h18.15A43.17,43.17,0,0,1,437,86.75Z" style="fill:#d1d1d1;stroke:#000;stroke-linecap:round;stroke-linejoin:round"></path><rect x="414.66" y="91.83" width="30.97" height="3.39" style="fill:#d1d1d1;stroke:#000;stroke-linecap:round;stroke-linejoin:round"></rect><polygon points="408.82 136.77 413.37 146.13 413.37 172.3 420.42 172.3 420.42 136.77 408.82 136.77" style="fill:#ededed;stroke:#000;stroke-linecap:round;stroke-linejoin:round"></polygon><rect x="420.42" y="136.77" width="14.21" height="35.54" style="fill:#d1d1d1;stroke:#000;stroke-linecap:round;stroke-linejoin:round"></rect><polygon points="414.66 95.22 419.74 108.28 419.74 125.53 441.47 125.53 441.47 107.89 445.63 95.22 414.66 95.22" style="fill:#d1d1d1;stroke:#000;stroke-linecap:round;stroke-linejoin:round"></polygon><polygon points="420.36 122.64 422.81 122.64 422.81 111.55 420.85 107.93 419.74 108.28 420.36 122.64"></polygon><path d="M425,122.38V111.67s1.54-.25,1.54-1.41.91-2.78,1.55-2.71,1.24,1,1.55,2.8c.24,1.36,1,1.07,1.42,1.32v10.77Z"></path><path d="M437.05,107.46a1.48,1.48,0,0,0-1.85,1.18c-.23,1,0,2.17-.3,2.27a3.69,3.69,0,0,1-.88.1v11.41h5.51V110.61s0,.74-.69,0S438.54,107.55,437.05,107.46Z"></path><rect x="408.2" y="124.03" width="45.33" height="7.24" style="fill:#d1d1d1;stroke:#000;stroke-linecap:round;stroke-linejoin:round"></rect><polygon points="408.82 182.98 413.37 192.34 413.37 256.57 420.42 256.57 420.42 182.98 408.82 182.98" style="fill:#d1d1d1;stroke:#000;stroke-linecap:round;stroke-linejoin:round"></polygon><path d="M413.37,256.57h34.45V193.35c0-.56.11-1.68,2.12-4s2-7.83,2-7.83H410.57L408.82,183l4.55,8.83Z" style="fill:#ededed;stroke:#000;stroke-linecap:round;stroke-linejoin:round"></path><rect x="420.42" y="182.98" width="11.97" height="73.6" style="fill:#d1d1d1;stroke:#000;stroke-linecap:round;stroke-linejoin:round"></rect><rect x="408.2" y="170.24" width="45.33" height="7.24" style="fill:#d1d1d1;stroke:#000;stroke-linecap:round;stroke-linejoin:round"></rect><path d="M426.41,208.73h1.22a2.85,2.85,0,0,1,2.85,2.85v18.73a0,0,0,0,1,0,0h-6.92a0,0,0,0,1,0,0V211.59A2.85,2.85,0,0,1,426.41,208.73Z"></path><rect x="422.54" y="229.09" width="8.55" height="5.7" style="fill:#d1d1d1;stroke:#000;stroke-linecap:round;stroke-linejoin:round"></rect><path d="M441.48,208.73h1.22a2.85,2.85,0,0,1,2.85,2.85v18.73a0,0,0,0,1,0,0h-6.92a0,0,0,0,1,0,0V211.59A2.85,2.85,0,0,1,441.48,208.73Z"></path><rect x="437.61" y="229.09" width="8.55" height="5.7" style="fill:#d1d1d1;stroke:#000;stroke-linecap:round;stroke-linejoin:round"></rect><path d="M415.89,208.73h.72a1.7,1.7,0,0,1,1.7,1.7v19.88a0,0,0,0,1,0,0h-4.12a0,0,0,0,1,0,0V210.43A1.7,1.7,0,0,1,415.89,208.73Z"></path><rect x="413.59" y="229.09" width="5.09" height="5.7" style="fill:#d1d1d1;stroke:#000;stroke-linecap:round;stroke-linejoin:round"></rect><circle cx="430.5" cy="46.94" r="2.72" style="fill:none;stroke:#263238;stroke-linecap:round;stroke-linejoin:round"></circle><path d="M430.5,49.66s-2,3.46-1.64,4.25c.17.35.85.52,1.57.58.95.07,2-.05,2.1-.28a11.1,11.1,0,0,0-1.67-4.38C430.72,49.68,430.6,49.61,430.5,49.66Z"></path><line x1="430.25" y1="60.25" x2="430.25" y2="49.66" style="fill:none;stroke:#263238;stroke-linecap:round;stroke-linejoin:round"></line><rect x="412.05" y="323.86" width="36.14" height="143.23" style="fill:#d1d1d1;stroke:#000;stroke-linecap:round;stroke-linejoin:round"></rect><polygon points="413.37 256.57 408.81 269.06 408.81 305.51 451.71 305.51 451.71 266.3 447.82 256.57 413.37 256.57" style="fill:#d1d1d1;stroke:#000;stroke-linecap:round;stroke-linejoin:round"></polygon><polygon points="444.33 305.51 451.71 305.51 451.71 266.3 447.82 256.57 444.33 269.06 444.33 305.51" style="fill:#ededed;stroke:#000;stroke-linecap:round;stroke-linejoin:round"></polygon><line x1="412.04" y1="270.45" x2="440.41" y2="270.45" style="fill:#d1d1d1;stroke:#000;stroke-linecap:round;stroke-linejoin:round"></line><path d="M444,325.11H415.88a5.58,5.58,0,0,1-5.24-3.46l-6.36-16.37h51.35l-6.35,16.37A5.59,5.59,0,0,1,444,325.11Z" style="fill:#d1d1d1;stroke:#000;stroke-linecap:round;stroke-linejoin:round"></path><polygon points="452.78 132.02 408.82 132.02 408.82 136.77 412.49 136.77 412.49 141.24 414.05 141.24 414.05 136.77 415.61 136.77 415.61 141.24 417.17 141.24 417.17 136.77 418.73 136.77 418.73 141.24 420.29 141.24 420.29 136.77 421.85 136.77 421.85 141.24 423.41 141.24 423.41 136.77 424.97 136.77 424.97 141.24 426.52 141.24 426.52 136.77 428.09 136.77 428.09 141.24 429.64 141.24 429.64 136.77 431.21 136.77 431.21 141.24 432.76 141.24 432.76 136.77 434.33 136.77 434.33 141.24 435.88 141.24 435.88 136.77 437.45 136.77 437.45 141.24 439 141.24 439 136.77 440.57 136.77 440.57 141.24 442.13 141.24 442.13 136.77 443.69 136.77 443.69 141.24 445.25 141.24 445.25 136.77 446.81 136.77 446.81 141.24 448.36 141.24 448.36 136.77 452.78 136.77 452.78 132.02" style="fill:#d1d1d1;stroke:#000;stroke-linecap:round;stroke-linejoin:round"></polygon><polygon points="452.78 178.23 408.82 178.23 408.82 182.98 412.49 182.98 412.49 187.45 414.05 187.45 414.05 182.98 415.61 182.98 415.61 187.45 417.17 187.45 417.17 182.98 418.73 182.98 418.73 187.45 420.29 187.45 420.29 182.98 421.85 182.98 421.85 187.45 423.41 187.45 423.41 182.98 424.97 182.98 424.97 187.45 426.52 187.45 426.52 182.98 428.09 182.98 428.09 187.45 429.64 187.45 429.64 182.98 431.21 182.98 431.21 187.45 432.76 187.45 432.76 182.98 434.33 182.98 434.33 187.45 435.88 187.45 435.88 182.98 437.45 182.98 437.45 187.45 439 187.45 439 182.98 440.57 182.98 440.57 187.45 442.13 187.45 442.13 182.98 443.69 182.98 443.69 187.45 445.25 187.45 445.25 182.98 446.81 182.98 446.81 187.45 448.36 187.45 448.36 182.98 452.78 182.98 452.78 178.23" style="fill:#d1d1d1;stroke:#000;stroke-linecap:round;stroke-linejoin:round"></polygon></g><g id="freepik--Character--inject-7"><path d="M295.08,376.06l-.21,18.7s16.65,2.88,21.37,2.67a48.79,48.79,0,0,0,8.22-1l-6.16-19.32Z" style="fill:#fff;stroke:#263238;stroke-linecap:round;stroke-linejoin:round"></path><path d="M363.52,276.23s-42.19,46.69-48.74,67.58,3.27,72.49,4.09,79.46-4.09,43.82-4.09,43.82H422.9s0-13.11-2.87-22.53-7.78-19.66-7-27,3.28-52.83,4.51-59.38-4.51-41.78-12.7-62.67S375.39,270.91,363.52,276.23Z" style="fill:#FFC100;stroke:#263238;stroke-linecap:round;stroke-linejoin:round"></path><path d="M330.59,440.14c6.47-5,16.79-12.74,24.19-17" style="fill:#FFC100;stroke:#263238;stroke-linecap:round;stroke-linejoin:round"></path><path d="M324.51,444.94s1.36-1.1,3.57-2.84" style="fill:#FFC100;stroke:#263238;stroke-linecap:round;stroke-linejoin:round"></path><path d="M342.32,423.57S357,417.34,361,416" style="fill:#FFC100;stroke:#263238;stroke-linecap:round;stroke-linejoin:round"></path><path d="M370.28,447.7C359,452.18,344.34,458,341.43,459.63" style="fill:#FFC100;stroke:#263238;stroke-linecap:round;stroke-linejoin:round"></path><path d="M384.16,442.27s-4.47,1.73-10.52,4.11" style="fill:#FFC100;stroke:#263238;stroke-linecap:round;stroke-linejoin:round"></path><path d="M358.38,373.39s15.21,20.14,16.1,24.59,5.67,13.13,3,19.36-22.26,16-22.26,19.14,39.18-16,31.61-10.24-22.26,15.14-24,20,33.39-11.57,33.39-11.57l-26.27,32.05h49.2s1.76-8-3.12-23.32a153.28,153.28,0,0,1-6.95-33c-.89-8-4.85-34.94-4.85-34.94S370.89,360.59,358.38,373.39Z" style="fill:#263238"></path><path d="M354.44,187.75s-8.15,16-8.94,21,0,9.73-1.84,13.94S333.93,230.61,335,233s3.16,4.74,4.73,5.26,4.47,16.83,4.74,21,2.63,5.78,5.78,6.05a175.06,175.06,0,0,0,22.35-1.06c5.26-.78,7.36-2.1,7.36-2.1s10-12.62,5.79-26-11-31.82-18.41-43.12S354.44,187.75,354.44,187.75Z" style="fill:#fff;stroke:#263238;stroke-linecap:round;stroke-linejoin:round"></path><path d="M345.5,243a10,10,0,0,0,12.88-4.74" style="fill:none;stroke:#263238;stroke-linecap:round;stroke-linejoin:round"></path><path d="M355,219.56c0,2-.76,3.68-1.7,3.68s-1.71-1.64-1.71-3.68.76-3.68,1.71-3.68S355,217.53,355,219.56Z" style="fill:#263238"></path><path d="M350,211.15s3.94-5,8.94.26" style="fill:none;stroke:#263238;stroke-linecap:round;stroke-linejoin:round;stroke-width:2px"></path><path d="M393.19,377.47l-2.47,19,23.67-5.78S396.82,379.08,393.19,377.47Z" style="fill:#263238;stroke:#263238;stroke-linecap:round;stroke-linejoin:round"></path><path d="M206.49,174S306.42,429.87,307,433s5.29,4.23,4.76,1.06a31.6,31.6,0,0,0-1.59-5.82L228.7,168.67Z" style="fill:#8f8f8f;stroke:#000;stroke-linecap:round;stroke-linejoin:round"></path><path d="M278.62,367.53s-3.25,6.5-1.42,8.33,7.32,4.27,10.57,3.86,2.64-2.44,1-4.47-4.26-3-5.89-4.87A12.67,12.67,0,0,0,278.62,367.53Z" style="fill:#fff;stroke:#263238;stroke-linecap:round;stroke-linejoin:round"></path><path d="M279.84,376.88s-2.84,6.91-1,8.33,9.95-.21,10.76-1.83-1.82-3.66-1.82-3.66S282.48,377.89,279.84,376.88Z" style="fill:#fff;stroke:#263238;stroke-linecap:round;stroke-linejoin:round"></path><path d="M282.08,386.22s1,2.85,2.64,3.25,5.89-.4,7.31-2.43-2.44-3.66-2.44-3.66S285.73,386.22,282.08,386.22Z" style="fill:#fff;stroke:#263238;stroke-linecap:round;stroke-linejoin:round"></path><path d="M285.48,326.72,282.61,321s-.57-9.75-1.15-13.76-8.79-10.14-9.17-11.86-1.34-4-3.25-1.14-2,5.82-.25,7.54,1,6.12,1,6.12-4-2.56-5.43-3.55c-1.78-1.27-7.82-6.77-8.78-7.73a8.92,8.92,0,0,1-2.85-3.88c-1.33-2.86-2.21-7.07-3.07-6.42-2.29,1.72-2.27,4.94-2.07,12.5a31.4,31.4,0,0,1-.15,4.4s-.76,6.31.58,8.8,0,8.6.57,11.08,5,6.89,7.07,8,7.46,2.87,11.47,5.17,9.95,6.11,9.95,6.11l10.51-13.95Z" style="fill:#fff;stroke:#263238;stroke-linecap:round;stroke-linejoin:round"></path><path d="M269.78,307.88a8.32,8.32,0,0,1,3.5,2.61" style="fill:#fff;stroke:#263238;stroke-linecap:round;stroke-linejoin:round"></path><path d="M255.57,296.6a5.68,5.68,0,0,0-4.21-.21" style="fill:#fff;stroke:#263238;stroke-linecap:round;stroke-linejoin:round"></path><line x1="248.51" y1="303.58" x2="251.78" y2="307.24" style="fill:#fff;stroke:#263238;stroke-linecap:round;stroke-linejoin:round"></line><path d="M287.16,326.33s-8.71,7.58-11.23,12.92-9.27,21.9-9.27,21.9,24.43,18.53,37.34,25.27c11.27,5.88,23.56,12.41,36.29,14.12,6.83.92,15.56-4.39,18.76-10.5l9.25-17.66-38.75-16.85L327,357.72a7.72,7.72,0,0,0-3.65-.56l-1.68.28s-24.13-16.23-28.06-21.56S287.16,326.33,287.16,326.33Z" style="fill:#fff;stroke:#263238;stroke-linecap:round;stroke-linejoin:round"></path><polygon points="342.72 367.68 362.06 384.02 368.3 372.38 342.72 367.68" style="fill:#263238"></polygon><path d="M327.25,359.34s.44,5.5,5.72,10.78" style="fill:none;stroke:#263238;stroke-linecap:round;stroke-linejoin:round"></path><path d="M322.63,360.22s-1.06,6-.22,9.9" style="fill:none;stroke:#263238;stroke-linecap:round;stroke-linejoin:round"></path><path d="M344.18,175.65s31,70.73,32.08,75.2a33.54,33.54,0,0,1,1.05,5.53s-4.2,5.25-12.88,17.35-22.88,37.86-28.13,53.64S326.57,356,326.57,356s15,14.73,31.81,17.36,21.3,1.05,33.13,6a243.87,243.87,0,0,1,22.88,11.31s.53-.26-8.68,1.58a90.82,90.82,0,0,0-15,4.2,35.68,35.68,0,0,0,17.1,12.1c11.57,3.94,12.09,2.37,19.72,5.26s10.78,4.21,10.78,4.21,2.89-3.69,2.89-35.24-.79-65.73-9.47-87.56-11.83-32.08-11.83-32.08l1.32-3.15s11.3-5.26,13.93-29.19-3.42-36-20.24-46-42.08-9.2-53.38-10S344.18,175.65,344.18,175.65Z" style="fill:#FFC100;stroke:#263238;stroke-linecap:round;stroke-linejoin:round"></path><path d="M414.42,186.36l1.58,2.16s12.67,13.76,7.74,36.95-16.33,28.43-16.33,28.43,3-13.09,1.52-10.1-9.11,13.47-9.11,13.47A98.17,98.17,0,0,0,420.18,260c1.2-.63,11.34-6.53,13.82-28.7C436.59,208,430.73,196.13,414.42,186.36Z" style="fill:#263238"></path><path d="M380.73,176.18s3.16,16.3,1.84,41.28-3.68,32.87-3.68,32.87" style="fill:none;stroke:#263238;stroke-linecap:round;stroke-linejoin:round"></path><path d="M357.08,184.1c5.15,12.58,16.19,40.76,18.39,56" style="fill:none;stroke:#263238;stroke-linecap:round;stroke-linejoin:round"></path><path d="M354.44,177.76s.65,1.52,1.73,4.13" style="fill:none;stroke:#263238;stroke-linecap:round;stroke-linejoin:round"></path><path d="M375.88,223.7c.43,2.61.74,5,.91,7.17" style="fill:none;stroke:#263238;stroke-linecap:round;stroke-linejoin:round"></path><path d="M364.43,178.28s7.29,23.42,10.73,41.37" style="fill:none;stroke:#263238;stroke-linecap:round;stroke-linejoin:round"></path><path d="M373.37,177.76s5.79,29.18,6.57,56" style="fill:none;stroke:#263238;stroke-linecap:round;stroke-linejoin:round"></path><path d="M380.6,252.3S400.89,260,419.26,260" style="fill:none;stroke:#263238;stroke-linecap:round;stroke-linejoin:round"></path><path d="M377.31,256.38s21.11,8.26,42.23,8.54" style="fill:none;stroke:#263238;stroke-linecap:round;stroke-linejoin:round"></path><path d="M391.57,255.87s9.05-2.47,14.26-17.28" style="fill:none;stroke:#263238;stroke-linecap:round;stroke-linejoin:round"></path><path d="M395.68,246s-5.76,7.68-8.23,8.22" style="fill:none;stroke:#263238;stroke-linecap:round;stroke-linejoin:round"></path><path d="M397.87,262.45S393.21,286,392.11,291" style="fill:none;stroke:#263238;stroke-linecap:round;stroke-linejoin:round"></path><path d="M405.92,263.68l4.18,17.46.39-9.91-.55-6.86,5.85,20.19-.91-15.25s4.93,15.35,4.93,24.95l-3.64-29.06Z" style="fill:#263238;stroke:#263238;stroke-linecap:round;stroke-linejoin:round"></path><path d="M388.05,262.71s-9.42,29.67-10.82,33.5" style="fill:none;stroke:#263238;stroke-linecap:round;stroke-linejoin:round"></path><path d="M440,410.51a15,15,0,0,0-.57-2.55c-.81-2-2.63-3.43-4.25-1s-4.84,1.42-5.85-.4-3.84-5.25-5.86-3.23-4,2-6.06.4-1.81-4.24-5.65-3.63-5,.6-5.66-.81-2.62-4.85-4.84-4a3.45,3.45,0,0,1-3.83-.93c-4.25,1.21-6.72,2.21-6.72,2.21a35.68,35.68,0,0,0,17.1,12.1c11.57,3.94,12.09,2.37,19.72,5.26s10.78,4.21,10.78,4.21S439.21,416.94,440,410.51Z" style="fill:#FFC100;stroke:#263238;stroke-linecap:round;stroke-linejoin:round"></path><path d="M342.65,313.15s2-4.35,3.94-3,4.12,3.56,6,1.92,5.21-5.21,6.85-3.29,2.47,4.38,4.39,2.74,5.48-3,6.86-.55,5.75,3.56,7.67,1.92,4.39-2.47,5.76.27,7.68,4.67,8.78,3.57a2.83,2.83,0,0,1,4.66,1.1c1.1,2.46,1.92,3.83,5.48,2.19s4.67-.28,5.49,2.47,3,6,3.84,3.29,2.74-.55,3,.82.28-6.31-1.37-7.4-1.64-.28-3-.55-1.1-.28-3-3-.82-4.39-3.56-3-4.39,3-5.49-.27-2.74-4.39-4.66-3.56-3.84.27-4.66-2.2-3.29-3.56-4.94-1.64-3.29,2.74-5.48-.28-4.67-3-6.59-1.37-3.56,3.57-5.48.55-6.58-4.94-8.78-2.19-1.64,4.93-4.11,3-3.56-1.64-4.94.55a4.27,4.27,0,0,1-4.14,1.72Z" style="fill:#FFC100;stroke:#263238;stroke-linecap:round;stroke-linejoin:round"></path><path d="M414.39,390.74s2.94-9.64,2.08-39.59-4-60.76-4-60.76,1.52,3.5,3.49,13,4.74,25.26,4.74,25.26V299s8.68,23.28,10.66,55.64a241.82,241.82,0,0,1-3.86,59.22l-14.3-3.18s-13.15-5.27-16.42-8-5.53-5.46-5.18-5.83l22.75-6.11" style="fill:#263238;stroke:#263238;stroke-linecap:round;stroke-linejoin:round"></path><path d="M414.35,390.73h0l.41-4.79a11.48,11.48,0,0,0-1.21-4.85c-1.22-2.22-2.63.61-4,1.82s-.61-2.22-1.22-4-3.83-1.41-7.27-1.41-2.62-2.63-5-4.85-4.85,1.21-6.27,1.62-1.21-3.24-2.82-4.85-4.45.2-5.86.2-2.42-1.41-4.64-3.23-8.89,1.61-10.3-.61-4.65-1.61-6.87-.4-3.84-1.21-5.05-3.23-5.45-.61-6.87.2-3-1.21-3.83-2.63-3.23-.8-5.05-.2-2.83-2.62-4.44-6.26a6.35,6.35,0,0,0-5.25-3.61l-2.2,6.41s15,14.73,31.81,17.36,21.3,1.05,33.13,6a241.53,241.53,0,0,1,22.86,11.3Z" style="fill:#FFC100;stroke:#263238;stroke-linecap:round;stroke-linejoin:round"></path><circle cx="211.98" cy="151.25" r="33.7" transform="translate(-29.42 53.58) rotate(-13.48)" style="fill:#fff;opacity:0.36"></circle><circle cx="211.98" cy="151.25" r="25.66" transform="translate(-29.34 53.38) rotate(-13.43)" style="fill:#fff"></circle><path d="M235.94,147.63a76.93,76.93,0,0,0-8.37-17.88,17.73,17.73,0,0,1,1.53,9.51,46,46,0,0,1-2.61,9.36l-.06-3.28a30.34,30.34,0,0,0-4.18-15.21c-3.81-6.85-11.14-10.18-13.32-12.56-5-5.44-4.66-13.92-4.66-13.92s-2.85,6.21-3.33,11.64c-.59,6.62,1.52,6.85,5.33,13.31s1.9,10.66,1.9,10.66a25.68,25.68,0,0,0-2.28-5.71c-1.52-2.66-5.71-5.33-5.71-5.33s1.52,8.75-1.9,13.32-11.41,8-9.51,17.12,15.84,15.27,15.84,15.27,6.9,2.07,12.17.62,9-4.07,10.49-6C227.27,168.59,239,157.52,235.94,147.63Z" style="fill:#FFC100"></path><path d="M229.94,151l-2,2.34c-1.95,2.34-7,3.12-6.23,1.95s.78-4.68-1.56-13.65a18.58,18.58,0,0,0-9.75-12.09,42.92,42.92,0,0,1,2.34,4.68,15.93,15.93,0,0,1,.78,12.48,18.36,18.36,0,0,1-7,9l-2.34-5.07s-4.29,9.75-2.73,15.21c.88,3.11,5.91,6,7.82,7a17.57,17.57,0,0,0,7.8,0,18.08,18.08,0,0,0,11.26-9.4l-.24,0A20.66,20.66,0,0,0,229.94,151Z" style="fill:#fff"></path></g><g id="freepik--Floor--inject-7"><line x1="19.3" y1="467.09" x2="486.45" y2="467.09" style="fill:none;stroke:#000;stroke-linecap:round;stroke-linejoin:round"></line></g></svg>
