<svg class="animated" id="freepik_stories-seo-analytics-team" xmlns="http://www.w3.org/2000/svg" viewBox="0 0 687.38 427.94" version="1.1" xmlns:xlink="http://www.w3.org/1999/xlink" xmlns:svgjs="http://svgjs.com/svgjs"><style>svg#freepik_stories-seo-analytics-team:not(.animated) .animable {opacity: 0;}svg#freepik_stories-seo-analytics-team.animated #freepik--background-complete--inject-125 {animation: 1.5s Infinite  linear floating;animation-delay: 0s;}svg#freepik_stories-seo-analytics-team.animated #freepik--speech-bubble-2--inject-125 {animation: 1.5s Infinite  linear floating;animation-delay: 0s;}svg#freepik_stories-seo-analytics-team.animated #freepik--speech-bubble-1--inject-125 {animation: 1.5s Infinite  linear floating;animation-delay: 0s;}svg#freepik_stories-seo-analytics-team.animated #freepik--characters-1--inject-125 {animation: 1.5s Infinite  linear heartbeat;animation-delay: 0s;}svg#freepik_stories-seo-analytics-team.animated #freepik--window-2--inject-125 {animation: 1.5s Infinite  linear shake;animation-delay: 0s;}svg#freepik_stories-seo-analytics-team.animated #freepik--character-2--inject-125 {animation: 1.5s Infinite  linear floating;animation-delay: 0s;}            @keyframes floating {                0% {                    opacity: 1;                    transform: translateY(0px);                }                50% {                    transform: translateY(-10px);                }                100% {                    opacity: 1;                    transform: translateY(0px);                }            }                    @keyframes heartbeat {                0% {                    transform: scale(1);                }                10% {                    transform: scale(1.1);                }                30% {                    transform: scale(1);                }                40% {                    transform: scale(1);                }                50% {                    transform: scale(1.1);                }                60% {                    transform: scale(1);                }                100% {                    transform: scale(1);                }            }                    @keyframes shake {                10%, 90% {                    transform: translate3d(-1px, 0, 0);                  }                  20%, 80% {                    transform: translate3d(2px, 0, 0);                  }                  30%, 50%, 70% {                    transform: translate3d(-4px, 0, 0);                  }                  40%, 60% {                    transform: translate3d(4px, 0, 0);                  }            }        </style><g id="freepik--background-complete--inject-125" class="animable" style="transform-origin: 343.782px 223.615px;"><g id="el1vcy8nwekqq" class="animable" style="transform-origin: 32.3295px 382.654px;"><path d="M3.49,338.09s-5.21,2.11.8,13.17a145.3,145.3,0,0,0,10.12,16.52s1.08,2.57-1.1,3-7-.19-7.93,2.52,1.14,5.38,5.3,7.57,13.08,7.34,13.89,7.81,1.6,1.65.16,2.2-12.26,2-11.28,7.06,13.56,9.31,14.93,9.8,1.7,1.05,1.61,1.8-3.77.88-6.83,1.4-6.52,1.68-5.71,4.57,8.35,8.82,26.32,10.12l8.37.05,4.37-7.18c8.4-15.94,7.36-25.47,5.34-27.69S57,391,55,393.28s-4.13,5.37-4.81,5.06-1-.91-.67-2.32,3.38-14.33-.42-17.85-10.73,4.91-12,5.84-1.81-.4-1.78-1.31.38-11.23.72-15.92-.75-7.82-3.63-8.5-4.79,3.79-6.33,5.39-3.16-.67-3.16-.67a146.63,146.63,0,0,0-8.67-17.32C8,334.73,3.39,338.14,3.39,338.14" style="fill: rgb(235, 235, 235); transform-origin: 32.3295px 381.659px;" id="eltg08dx9gmgh" class="animable"></path><path d="M52.62,427.67c-4.53-8.06-12.34-22.52-19.11-34.91S20.6,369.18,16.12,361.09l-5.33-9.56c-.62-1.13-1.11-2-1.45-2.61L9,348.24,8.85,348a1.77,1.77,0,0,1,.15.22l.39.67c.34.6.85,1.46,1.49,2.58,1.29,2.24,3.13,5.49,5.4,9.53,4.53,8.06,10.69,19.25,17.46,31.63s14.55,26.86,19,34.95" style="fill: rgb(224, 224, 224); transform-origin: 30.795px 387.835px;" id="elc3wrw2805cb" class="animable"></path><path d="M12.12,374.51a3.89,3.89,0,0,1,.58.15c.38.11.91.28,1.57.51,1.32.44,3.12,1.1,5.1,1.87l5.05,2,1.54.59a2.43,2.43,0,0,1,.55.24,2.29,2.29,0,0,1-.58-.14c-.38-.11-.91-.29-1.57-.51-1.31-.46-3.11-1.15-5.08-1.91l-5.07-1.94-1.54-.58A2.15,2.15,0,0,1,12.12,374.51Z" style="fill: rgb(224, 224, 224); transform-origin: 19.315px 377.19px;" id="el1hb6u4lwga" class="animable"></path><path d="M27.07,379.29c-.07,0,1.13-3.8,2.68-8.44s2.85-8.38,2.92-8.35-1.13,3.8-2.68,8.44S27.14,379.31,27.07,379.29Z" style="fill: rgb(224, 224, 224); transform-origin: 29.87px 370.895px;" id="elnsx1dfgily" class="animable"></path><path d="M36.61,398.78a2.55,2.55,0,0,1,.33-.53l1-1.38c.81-1.17,1.91-2.78,3.06-4.61s2.15-3.51,2.86-4.74l.84-1.46a3.58,3.58,0,0,1,.33-.52,2.51,2.51,0,0,1-.24.57c-.18.36-.44.87-.77,1.5-.67,1.25-1.64,3-2.8,4.79S38.88,395.84,38,397c-.42.57-.77,1-1,1.33A3.39,3.39,0,0,1,36.61,398.78Z" style="fill: rgb(224, 224, 224); transform-origin: 40.82px 392.16px;" id="eljwysn9ywvws" class="animable"></path><path d="M22.13,397.43a2.11,2.11,0,0,1,.57,0l1.55.08c1.31.08,3.12.21,5.11.37s3.8.32,5.1.45l1.55.16a1.94,1.94,0,0,1,.56.1,4.21,4.21,0,0,1-.57,0l-1.55-.08c-1.31-.08-3.12-.21-5.11-.37s-3.8-.32-5.1-.45l-1.55-.16A2.49,2.49,0,0,1,22.13,397.43Z" style="fill: rgb(224, 224, 224); transform-origin: 29.35px 398.005px;" id="eletv4fbm4jwm" class="animable"></path><path d="M28.37,415.7a3.42,3.42,0,0,1,.73,0l2,.1c1.68.09,4,.24,6.55.42s4.88.36,6.55.5l2,.18a5,5,0,0,1,.72.1,3.42,3.42,0,0,1-.73,0l-2-.09c-1.68-.1-4-.25-6.55-.43s-4.87-.36-6.55-.5l-2-.18A3.87,3.87,0,0,1,28.37,415.7Z" style="fill: rgb(224, 224, 224); transform-origin: 37.645px 416.35px;" id="el89cutugaxe" class="animable"></path><path d="M46.45,416.85a5.64,5.64,0,0,1,.4-.68L48,414.38c1-1.52,2.3-3.62,3.7-6s2.62-4.53,3.49-6.1l1-1.87a4.1,4.1,0,0,1,.41-.67,5.12,5.12,0,0,1-.32.72c-.22.45-.54,1.11-1,1.9-.83,1.6-2,3.79-3.42,6.15s-2.76,4.45-3.77,5.94c-.51.74-.92,1.34-1.22,1.75A3.65,3.65,0,0,1,46.45,416.85Z" style="fill: rgb(224, 224, 224); transform-origin: 51.525px 408.295px;" id="el70f21kfdx6x" class="animable"></path></g><g id="elcplykc0sahj" class="animable" style="transform-origin: 80.3635px 64.8757px;"><g id="el353umojrv4" class="animable" style="transform-origin: 80.3635px 64.8757px;"><g id="el1tj88ru9bx2" class="animable" style="transform-origin: 80.3399px 64.885px;"><rect x="39.87" y="28.05" width="80.97" height="73.72" rx="5.91" style="fill: rgb(255, 255, 255); transform-origin: 80.355px 64.91px;" id="elrrx7zmy55er" class="animable"></rect><path d="M45.94,28h69.31a5.59,5.59,0,0,1,5.59,5.59v7a0,0,0,0,1,0,0h-81a0,0,0,0,1,0,0V34.12A6.07,6.07,0,0,1,45.94,28Z" style="fill: rgb(235, 235, 235); transform-origin: 80.3399px 34.295px;" id="el7a62m5f63m5" class="animable"></path></g><g id="elek0ooqw331g" class="animable" style="transform-origin: 54.9442px 35.6793px;"><path d="M51.53,35.55a2,2,0,1,1-2-1.87A1.93,1.93,0,0,1,51.53,35.55Z" style="fill: rgb(255, 255, 255); transform-origin: 49.5342px 35.6793px;" id="elsuhwpyjax9h" class="animable"></path><path d="M56.94,35.55a2,2,0,1,1-2-1.87A1.93,1.93,0,0,1,56.94,35.55Z" style="fill: rgb(255, 255, 255); transform-origin: 54.9442px 35.6793px;" id="elnzotogy59w" class="animable"></path><path d="M62.35,35.55a2,2,0,1,1-2-1.87A1.93,1.93,0,0,1,62.35,35.55Z" style="fill: rgb(255, 255, 255); transform-origin: 60.3542px 35.6793px;" id="elc4l5esprcj6" class="animable"></path></g><path d="M114.93,101.76s.27,0,.77-.08a5.43,5.43,0,0,0,2.11-.73,5.84,5.84,0,0,0,2.93-4.9c0-.83,0-1.73,0-2.67,0-7.59,0-18.54-.08-32.07,0-6.77,0-14.18,0-22.14v-3a30.16,30.16,0,0,0-.07-3A5.66,5.66,0,0,0,117,28.66a5.4,5.4,0,0,0-1.49-.35c-.5,0-1,0-1.58,0H104l-58.23,0a5.66,5.66,0,0,0-5.44,4.15,5.82,5.82,0,0,0-.21,1.82V40q0,7.55,0,14.86c0,9.74,0,19.13,0,28.08q0,6.72,0,13.08a5.72,5.72,0,0,0,3,4.89,5.86,5.86,0,0,0,2.84.67h3l22.14,0,32.07.08,8.71,0,2.27,0,.77,0-.77,0-2.27,0-8.71.05L71.11,102,49,102H46a6.3,6.3,0,0,1-3.05-.71A6.13,6.13,0,0,1,39.65,96q0-6.36,0-13.09c0-9,0-18.34,0-28.08V34.28a6.6,6.6,0,0,1,.22-2,6.18,6.18,0,0,1,6-4.53l58.23,0h9.88c.54,0,1.06,0,1.63,0a6.32,6.32,0,0,1,1.6.38A6.13,6.13,0,0,1,121,33.07a29.33,29.33,0,0,1,.07,3.09v3c0,8,0,15.37,0,22.14,0,13.53-.06,24.48-.08,32.07,0,.94,0,1.83,0,2.68a6,6,0,0,1-3.06,5,5.57,5.57,0,0,1-2.15.7A4.18,4.18,0,0,1,114.93,101.76Z" style="fill: rgb(235, 235, 235); transform-origin: 80.3635px 64.8757px;" id="elmqwkaej657" class="animable"></path></g><g id="el5idfj3tauqi" class="animable" style="transform-origin: 80.255px 70.78px;"><rect x="45.77" y="46.25" width="68.97" height="49.06" rx="4.46" style="fill: rgb(245, 245, 245); transform-origin: 80.255px 70.78px;" id="elu6icuffmlaf" class="animable"></rect><path d="M51.57,92.23l16.83-24a1.91,1.91,0,0,1,3-.1L83,82.52a1.92,1.92,0,0,0,2.81.18l6.77-6.51a1.9,1.9,0,0,1,2.78.15L108.65,92.1a1.91,1.91,0,0,1-1.45,3.14H53.12A1.91,1.91,0,0,1,51.57,92.23Z" style="fill: rgb(235, 235, 235); transform-origin: 80.1601px 81.3453px;" id="elvd9gpmucye9" class="animable"></path><path d="M90,61.18a5.86,5.86,0,1,1-4.86-4.86A5.87,5.87,0,0,1,90,61.18Z" style="fill: rgb(235, 235, 235); transform-origin: 84.2137px 62.1063px;" id="elbqmb0xw9nhp" class="animable"></path></g></g><g id="eliqasg7ojq7s" class="animable" style="transform-origin: 659.21px 239.591px;"><g id="eliem4ffh8e6" class="animable" style="transform-origin: 659.21px 239.591px;"><g id="elh3vpckdpa9u" class="animable" style="transform-origin: 659.045px 239.665px;"><rect x="630.93" y="214.07" width="56.23" height="51.19" rx="5.91" style="fill: rgb(255, 255, 255); transform-origin: 659.045px 239.665px;" id="eltoytdcze5pg" class="animable"></rect><path d="M637,214.07h44.57a5.59,5.59,0,0,1,5.59,5.59v3.12a0,0,0,0,1,0,0H630.93a0,0,0,0,1,0,0v-2.64A6.07,6.07,0,0,1,637,214.07Z" style="fill: rgb(224, 224, 224); transform-origin: 659.045px 218.425px;" id="eljnfjhyowoce" class="animable"></path></g><g id="elpzro7qi4ate" class="animable" style="transform-origin: 641.393px 219.37px;"><path d="M639,219.27a1.38,1.38,0,1,1-1.38-1.29A1.34,1.34,0,0,1,639,219.27Z" style="fill: rgb(255, 255, 255); transform-origin: 637.623px 219.36px;" id="eln1inudcsfto" class="animable"></path><path d="M642.78,219.27A1.38,1.38,0,1,1,641.4,218,1.34,1.34,0,0,1,642.78,219.27Z" style="fill: rgb(255, 255, 255); transform-origin: 641.404px 219.38px;" id="el02sq408narja" class="animable"></path><path d="M646.54,219.27a1.38,1.38,0,1,1-1.38-1.29A1.34,1.34,0,0,1,646.54,219.27Z" style="fill: rgb(255, 255, 255); transform-origin: 645.163px 219.36px;" id="elpdfjenm1ej" class="animable"></path></g><path d="M681.25,265.26a7.3,7.3,0,0,0,2-.42,6.1,6.1,0,0,0,2.08-1.34,6,6,0,0,0,1.58-2.95,10,10,0,0,0,.12-2c0-.71,0-1.47,0-2.26,0-1.57,0-3.28,0-5.12,0-3.68,0-7.87,0-12.5s0-9.7,0-15.14c0-1.36,0-2.77,0-4.13a5.64,5.64,0,0,0-1.83-3.59c-2.1-2.12-5.4-1.34-8.4-1.48l-39.83,0a5.67,5.67,0,0,0-5.49,4.31,10.45,10.45,0,0,0-.16,2.52q0,5.16,0,10.16c0,6.66,0,13.09,0,19.21v9a5.59,5.59,0,0,0,1.5,3.73,5.71,5.71,0,0,0,3.49,1.79c5.39.1,10.5,0,15.12.07l21.93.09,6,0,1.55,0,.53,0s-.18,0-.53,0l-1.55,0-6,.05-21.93.08c-4.64,0-9.68.07-15.17,0a6.16,6.16,0,0,1-3.76-1.91,6.08,6.08,0,0,1-1.64-4c0-2.91,0-5.89,0-9,0-6.12,0-12.55,0-19.21V221.16a10.84,10.84,0,0,1,.18-2.64,6.15,6.15,0,0,1,6-4.71l39.83,0h4.54a6.18,6.18,0,0,1,6.14,5.5c.06,1.45,0,2.8,0,4.18,0,5.44,0,10.51,0,15.14s0,8.82,0,12.5c0,1.84,0,3.55,0,5.12,0,.79,0,1.55,0,2.26a10,10,0,0,1-.14,2.07,6.12,6.12,0,0,1-1.68,3,6,6,0,0,1-2.15,1.33,5.8,5.8,0,0,1-1.52.32Z" style="fill: rgb(224, 224, 224); transform-origin: 659.21px 239.591px;" id="elzazrpk046cd" class="animable"></path></g><g id="elmk2u848txe" class="animable" style="transform-origin: 658.975px 243.762px;"><rect x="635.03" y="226.7" width="47.89" height="34.07" rx="4.46" style="fill: rgb(245, 245, 245); transform-origin: 658.975px 243.735px;" id="elj8eshcmmby" class="animable"></rect><path d="M639.05,258.64,650.74,242a1.33,1.33,0,0,1,2.12-.07l8,10a1.33,1.33,0,0,0,2,.13l4.7-4.52a1.33,1.33,0,0,1,1.93.1l9.23,11a1.33,1.33,0,0,1-1,2.18H640.14A1.32,1.32,0,0,1,639.05,258.64Z" style="fill: rgb(235, 235, 235); transform-origin: 658.878px 251.13px;" id="elh6py2dshx06" class="animable"></path><path d="M665.72,237.08a4.07,4.07,0,1,1-3.38-3.38A4.08,4.08,0,0,1,665.72,237.08Z" style="fill: rgb(235, 235, 235); transform-origin: 661.701px 237.719px;" id="el2kcodap52at" class="animable"></path></g></g><g id="el2gbdsesg38z" class="animable" style="transform-origin: 36.5837px 262.193px;"><g id="el52dim3vjspt" class="animable" style="transform-origin: 36.63px 262.215px;"><rect x="0.26" y="222.64" width="72.7" height="79.15" rx="5.91" style="fill: rgb(255, 255, 255); transform-origin: 36.61px 262.215px;" id="elrtqvo3o3j4g" class="animable"></rect><path d="M6.33,222.64h61A5.59,5.59,0,0,1,73,228.23v7.88a0,0,0,0,1,0,0H.26a0,0,0,0,1,0,0v-7.4A6.07,6.07,0,0,1,6.33,222.64Z" style="fill: rgb(224, 224, 224); transform-origin: 36.63px 229.375px;" id="elwokb83bt0k" class="animable"></path></g><g id="el9jyhnqtof3m" class="animable" style="transform-origin: 16.522px 230.83px;"><path d="M12.78,230.69a2.08,2.08,0,0,1-2.13,2,2,2,0,1,1,0-4A2.07,2.07,0,0,1,12.78,230.69Z" style="fill: rgb(255, 255, 255); transform-origin: 10.715px 230.69px;" id="elsgwo0gjts8" class="animable"></path><path d="M18.59,230.69a2.14,2.14,0,1,1-2.14-2A2.08,2.08,0,0,1,18.59,230.69Z" style="fill: rgb(255, 255, 255); transform-origin: 16.4546px 230.83px;" id="elrt9v90iua7" class="animable"></path><path d="M24.39,230.69a2.13,2.13,0,1,1-2.13-2A2.07,2.07,0,0,1,24.39,230.69Z" style="fill: rgb(255, 255, 255); transform-origin: 22.264px 230.82px;" id="elq5rn5fg2cpq" class="animable"></path></g><path d="M67.05,301.79s.26,0,.75-.08a6,6,0,0,0,2.08-.71,5.81,5.81,0,0,0,2.4-2.57,5.75,5.75,0,0,0,.57-2.18c0-.82,0-1.7,0-2.63,0-7.44,0-18.18-.09-31.45,0-6.64,0-13.91,0-21.72,0-3.9,0-7.94,0-12.09a5.68,5.68,0,0,0-3.13-4.88,6,6,0,0,0-3-.6H63.3l-57.13,0a5.7,5.7,0,0,0-5.41,4,13.21,13.21,0,0,0-.24,3.64v3.71q0,7.41,0,14.58c0,9.55,0,18.77,0,27.55q0,6.59,0,12.83c0,2.08,0,4.13,0,6.15a5.78,5.78,0,0,0,2.26,5,5.49,5.49,0,0,0,2.54,1.09,23.9,23.9,0,0,0,2.82.08h16l31.46.09,8.55.05,2.22,0,.76,0s-.26,0-.76,0l-2.22,0-8.55.05L24.06,302l-10.42,0H8.1a23.35,23.35,0,0,1-2.88-.08,5.92,5.92,0,0,1-2.74-1.16A6.23,6.23,0,0,1,0,295.38c0-2,0-4.07,0-6.15Q0,283,0,276.4c0-8.78,0-18,0-27.55V228.69a7,7,0,0,1,.26-1.92,6.21,6.21,0,0,1,5.91-4.39l57.13,0h3.27a6.7,6.7,0,0,1,3.23.66,6.17,6.17,0,0,1,3.38,5.28q0,6.24,0,12.11c0,7.81,0,15.08,0,21.72,0,13.27-.06,24-.08,31.45,0,.93,0,1.8,0,2.64a6,6,0,0,1-3.1,4.84,5.74,5.74,0,0,1-2.12.66A4.83,4.83,0,0,1,67.05,301.79Z" style="fill: rgb(224, 224, 224); transform-origin: 36.5837px 262.193px;" id="elz04kvamuirr" class="animable"></path><g id="elhydm9zhafpu" class="animable" style="transform-origin: 33.3942px 268.14px;"><path d="M33.78,268.13,15.51,249.58a25.91,25.91,0,0,1,7.55-5.18A26.06,26.06,0,1,1,8.93,275.9Z" style="fill: rgb(245, 245, 245); transform-origin: 34.399px 268.14px;" id="el3046y8lk9jg" class="animable"></path><path d="M29.57,267.24l-21.69,6.5a22.59,22.59,0,0,1,5.59-22.42Z" style="fill: rgb(245, 245, 245); transform-origin: 18.2453px 262.53px;" id="elnmhn58t6rcn" class="animable"></path></g></g><g id="el83c2d0m52r" class="animable" style="transform-origin: 414.105px 48.595px;"><rect x="385.07" y="19.56" width="58.07" height="58.07" rx="7.12" style="fill: rgb(245, 245, 245); transform-origin: 414.105px 48.595px;" id="el4k5goclmo2v" class="animable"></rect><polygon points="394.05 49.43 399.9 43.58 411.18 53.61 430.02 34.7 435.45 40.55 410.35 64.89 394.05 49.43" style="fill: rgb(255, 255, 255); transform-origin: 414.75px 49.795px;" id="elck4dqy0zob6" class="animable"></polygon></g><g id="el3hfhtkwgley" class="animable" style="transform-origin: 589.079px 64.92px;"><path d="M589.35,64.91l-.7-39.69h.7a39.7,39.7,0,1,1-37.88,51.53Z" style="fill: rgb(235, 235, 235); transform-origin: 590.268px 64.92px;" id="el0h3410aqa8go" class="animable"></path><path d="M585.29,62.06l-34,10.79a34.51,34.51,0,0,1,32.32-46.63h.91Z" style="fill: rgb(235, 235, 235); transform-origin: 567.191px 49.535px;" id="elsffocjhyleq" class="animable"></path></g></g><g id="freepik--Floor--inject-125" class="animable" style="transform-origin: 342.075px 427.675px;"><path d="M671.21,427.67c0,.15-147.37.27-329.12.27s-329.15-.12-329.15-.27,147.34-.26,329.15-.26S671.21,427.53,671.21,427.67Z" style="fill: rgb(38, 50, 56); transform-origin: 342.075px 427.675px;" id="elo63fipz0y" class="animable"></path></g><g id="freepik--window-1--inject-125" class="animable" style="transform-origin: 202.924px 91.5883px;"><g id="eloewpvvx5ukg" class="animable" style="transform-origin: 202.924px 91.5883px;"><g id="elawx5sx1bku" class="animable" style="transform-origin: 202.915px 91.685px;"><rect x="151.65" y="45.03" width="102.53" height="93.34" rx="5.91" style="fill: rgb(255, 255, 255); transform-origin: 202.915px 91.7px;" id="elo6rqotkdqv" class="animable"></rect><path d="M157.72,45h90.87a5.59,5.59,0,0,1,5.59,5.59V60.91a0,0,0,0,1,0,0H151.65a0,0,0,0,1,0,0V51.1A6.07,6.07,0,0,1,157.72,45Z" style="fill: rgb(224, 224, 224); transform-origin: 202.915px 52.955px;" id="elsqbmxodbh2" class="animable"></path></g><g id="elja2pj580zce" class="animable" style="transform-origin: 170.745px 54.6696px;"><ellipse cx="163.9" cy="54.52" rx="2.51" ry="2.37" style="fill: rgb(255, 255, 255); transform-origin: 163.9px 54.52px;" id="elt6q86rxthdg" class="animable"></ellipse><path d="M173.26,54.52a2.52,2.52,0,1,1-2.51-2.37A2.45,2.45,0,0,1,173.26,54.52Z" style="fill: rgb(255, 255, 255); transform-origin: 170.744px 54.6696px;" id="elxygng9nvtx" class="animable"></path><ellipse cx="177.59" cy="54.52" rx="2.51" ry="2.37" style="fill: rgb(255, 255, 255); transform-origin: 177.59px 54.52px;" id="elktx9pvpnzz" class="animable"></ellipse></g><g id="elaw5nnpkpf1p" class="animable" style="transform-origin: 203.916px 97.9px;"><path d="M162.92,69.29v57.09c0-.53,82.41,0,82.41,0" style="fill: rgb(255, 255, 255); transform-origin: 204.125px 97.835px;" id="eluza71mhe86h" class="animable"></path><path d="M245.33,126.38a1.65,1.65,0,0,1-.36,0l-1.05,0-4.07,0H224.9l-49.32,0-7.13,0-3.49.06c-.58,0-1.15,0-1.71.07l-.19,0h0c.6,0-.46-.3-.36-.23V125c0-4.54,0-8.92,0-13.1,0-8.34,0-15.85.06-22.17s.06-11.39.08-15c0-1.74,0-3.11.05-4.07q0-.66,0-1a1.41,1.41,0,0,1,0-.36,1.65,1.65,0,0,1,0,.36c0,.26,0,.61,0,1,0,1,0,2.33.05,4.07,0,3.56,0,8.66.09,15s0,13.83,0,22.17c0,4.18,0,8.56,0,13.1v1.39c.09.09-.94-.23-.34-.25h0l.08,0,.24,0c.58,0,1.16,0,1.74-.07l3.49,0,7.14,0c19.26,0,36.7.08,49.32.19l14.95.16,4.07.07,1.05,0Z" style="fill: rgb(38, 50, 56); transform-origin: 203.916px 97.905px;" id="elulaqgehrby" class="animable"></path></g><rect x="171.32" y="97.07" width="17.58" height="22.9" style="fill: rgb(69, 90, 100); transform-origin: 180.11px 108.52px;" id="elhdtbo3tzsgi" class="animable"></rect><rect x="195.2" y="84.82" width="17.58" height="35.15" style="fill: rgb(69, 90, 100); transform-origin: 203.99px 102.395px;" id="elcy9j5fmh5t" class="animable"></rect><rect x="219.08" y="74.56" width="17.58" height="45.41" style="fill: rgb(69, 90, 100); transform-origin: 227.87px 97.265px;" id="elmes1fp2vx6k" class="animable"></rect><path d="M248.27,138.37s.33,0,1-.12a5.87,5.87,0,0,0,4.81-5.1c.08-1.84,0-4,0-6.41,0-9.67,0-23.63-.08-40.89,0-8.63,0-18.08,0-28.23V53.78c0-.65,0-1.29,0-1.94a11,11,0,0,0-.09-1.92,5.7,5.7,0,0,0-5.37-4.65H231.82l-74.26,0a5.59,5.59,0,0,0-4.18,1.85,5.81,5.81,0,0,0-1.47,4.33v9.69q0,9.61,0,18.94c0,12.43,0,24.41,0,35.82q0,8.56,0,16.67a5.72,5.72,0,0,0,1.35,3.55,5.78,5.78,0,0,0,3.23,1.9,10,10,0,0,0,1.91.1h5.78l28.24,0,40.88.08,11.12.05,2.89,0,1,0-1,0-2.89,0-11.12.05-40.88.08-28.24,0h-5.78a10.53,10.53,0,0,1-2-.12,6.13,6.13,0,0,1-4.94-5.86q0-8.12,0-16.69c0-11.41,0-23.39,0-35.82V51.47A6.33,6.33,0,0,1,153,46.79a6.13,6.13,0,0,1,4.56-2l74.26,0,16.69,0a6.14,6.14,0,0,1,5.78,5,10.5,10.5,0,0,1,.11,2c0,.65,0,1.29,0,1.94v3.84c0,10.15,0,19.6,0,28.23,0,17.26-.06,31.22-.08,40.89,0,2.42,0,4.55-.07,6.42a6,6,0,0,1-2.31,4,5.71,5.71,0,0,1-2.65,1.12,4,4,0,0,1-.74.07Z" style="fill: rgb(38, 50, 56); transform-origin: 202.924px 91.5883px;" id="el7z584i4uaha" class="animable"></path></g></g><g id="freepik--speech-bubble-2--inject-125" class="animable" style="transform-origin: 656.461px 152.48px;"><g id="elu0ags4ac5am" class="animable" style="transform-origin: 656.461px 152.48px;"><path d="M637.11,183.86l-1.32-9.12a30.75,30.75,0,1,1,9.36,5.8h0Z" style="fill: rgb(255, 255, 255); transform-origin: 656.405px 152.517px;" id="el093raj6bfdi" class="animable"></path><polygon points="640.06 151.26 644.69 146.63 653.61 154.56 668.5 139.61 672.8 144.24 652.95 163.48 640.06 151.26" style="fill: rgb(255, 193, 0); transform-origin: 656.43px 151.545px;" id="elou589xh4q1j" class="animable"></polygon><path d="M637.11,183.86l.54-.25,1.55-.66,5.92-2.51,0,.21h0a.12.12,0,0,1,0-.17.11.11,0,0,1,.14,0,30.45,30.45,0,0,0,19.29.94c.78-.2,1.55-.52,2.36-.79a16.74,16.74,0,0,0,2.37-1,30.34,30.34,0,0,0,13.29-43.06,31,31,0,0,0-4.44-5.81,31.54,31.54,0,0,0-12.59-7.7,30.85,30.85,0,0,0-7.12-1.3,30,30,0,0,0-13.7,2.27,30.53,30.53,0,0,0-8.74,50.69c.39,2.95.7,5.22.91,6.79.09.76.17,1.34.22,1.77s.07.62.07.62,0-.18-.1-.57-.16-1-.28-1.72c-.25-1.58-.6-3.86-1.06-6.81l0,.07a30.59,30.59,0,0,1-8.38-12.4,30.94,30.94,0,0,1,17.1-39,30.68,30.68,0,0,1,14-2.34,31.43,31.43,0,0,1,7.27,1.33,31.93,31.93,0,0,1,12.84,7.85,31,31,0,0,1,.08,43.24A30.47,30.47,0,0,1,669.4,180a17.72,17.72,0,0,1-2.41,1c-.82.27-1.6.58-2.4.79a30.49,30.49,0,0,1-19.49-1.13l.12-.21h0a.12.12,0,0,1,0,.17.07.07,0,0,1,0,0l-6.05,2.41-1.54.6Z" style="fill: rgb(38, 50, 56); transform-origin: 656.461px 152.48px;" id="eltex6bx2a3g" class="animable"></path></g></g><g id="freepik--speech-bubble-1--inject-125" class="animable animator-active" style="transform-origin: 32.282px 167.54px;"><g id="elq8p92gc5gv" class="animable" style="transform-origin: 32.282px 167.54px;"><g id="el8r5uqz2rrs3" class="animable" style="transform-origin: 32.282px 167.54px;"><path d="M55.07,196.61l.22-9.12c7.91-9.09,10.64-23.13,2.62-38.24-28-29.66-70.18.54-51.13,36.6,12.79,13.59,28.48,14.67,40,8.44l0,0Z" style="fill: rgb(255, 255, 255); transform-origin: 32.3695px 167.584px;" id="eln87qy24u90g" class="animable"></path><path d="M55.07,196.61l-.56-.18-1.6-.47-6.11-1.77.05.2h0a.12.12,0,0,0,0-.17.12.12,0,0,0-.15,0,30.53,30.53,0,0,1-14.19,3.56,31.21,31.21,0,0,1-4.64-.36c-.8-.11-1.6-.34-2.42-.5a17.34,17.34,0,0,1-2.45-.7A29.89,29.89,0,0,1,13.43,191,30,30,0,0,1,4.9,155.45,29.1,29.1,0,0,1,13.8,144,30.37,30.37,0,0,1,20,140.18a30.15,30.15,0,0,1,6.85-2.12,29.6,29.6,0,0,1,13.72.62,30.25,30.25,0,0,1,18.74,15.6,30.21,30.21,0,0,1-4.19,33.17c0,2.94-.07,5.21-.09,6.78,0,.75,0,1.34,0,1.76s0,.62,0,.62l0-.57c0-.41,0-1,.07-1.73.06-1.57.14-3.86.24-6.81l0,.07a30.23,30.23,0,0,0,6.77-13.17,30.62,30.62,0,0,0-21.38-36.27,30.21,30.21,0,0,0-14-.65,30.52,30.52,0,0,0-7,2.16,31.08,31.08,0,0,0-6.36,3.89,31.56,31.56,0,0,0-5.32,5.33,31.18,31.18,0,0,0-3.75,6.35,30.51,30.51,0,0,0,18.53,41.41,17.42,17.42,0,0,0,2.49.69c.83.16,1.63.38,2.45.49a30.2,30.2,0,0,0,19-3.4l-.14-.19h0a.12.12,0,0,0,0,.17l.06,0L53,196.07l1.58.41Z" style="fill: rgb(38, 50, 56); transform-origin: 32.282px 167.54px;" id="el5r6d6cqmkv4" class="animable"></path></g><g id="elsck416qa9gh" class="animable" style="transform-origin: 32.342px 168.042px;"><path d="M42.49,165.33c-3,4,1.46,8.43,5.42,5.42C50.92,166.79,46.45,162.32,42.49,165.33Z" style="fill: rgb(38, 50, 56); transform-origin: 45.202px 168.042px;" id="eltqnp1tkzg47" class="animable"></path><path d="M29.63,165.33c-3,4,1.46,8.43,5.42,5.42C38.06,166.79,33.59,162.32,29.63,165.33Z" style="fill: rgb(38, 50, 56); transform-origin: 32.342px 168.042px;" id="elbpuo39cl9i7" class="animable"></path><path d="M16.77,165.33c-3,4,1.46,8.43,5.42,5.42C25.2,166.79,20.73,162.32,16.77,165.33Z" style="fill: rgb(38, 50, 56); transform-origin: 19.482px 168.042px;" id="elp4mprikz6lg" class="animable"></path></g></g></g><g id="freepik--characters-1--inject-125" class="animable" style="transform-origin: 276.653px 238.121px;"><g id="elj7ipwa9hkv" class="animable" style="transform-origin: 118.59px 289.635px;"><path d="M192.91,276.51l-19.56-5.27-3.9,17.7-9.76-26.7c-4.56-12.77-10.79-17.17-15.09-18.36l-1.55,2,4.12,70.64,13,16.22c6.1,7.59,18.41,6.1,21.93-3C189.47,310.94,192,282.25,192.91,276.51Z" style="fill: rgb(255, 193, 0); transform-origin: 167.98px 290.746px;" id="eli261pq18nx" class="animable"></path><path d="M55.1,427.4H153l-10.26-70.28-62.39-4.46S69.58,363.21,66,375.59,55.1,427.4,55.1,427.4Z" style="fill: rgb(38, 50, 56); transform-origin: 104.05px 390.03px;" id="elh7lv6qnifmq" class="animable"></path><g id="elvgs5ndjpl3" class="animable" style="transform-origin: 103.426px 289.635px;"><g id="eli0tw1jpq15b" class="animable" style="transform-origin: 101.585px 213.016px;"><g id="elq9d21ja33w" class="animable" style="transform-origin: 101.585px 213.016px;"><path d="M71.56,194.27c2.31-20.85,6.86-43.8,36.57-42.66,0,0,22.39.79,29.51,16.69,3.86,8.62,2.77,41.34,4.54,68.32l4.34,34.62L56.65,257.35S70.12,207.24,71.56,194.27Z" style="fill: rgb(38, 50, 56); transform-origin: 101.585px 211.405px;" id="elynhu9crrqj" class="animable"></path><path d="M112.36,159.87l-1.92-1.71L90.66,166.9a5.6,5.6,0,0,0-5.1,5.59l4.52,66.34c.12,4.43-1.07,7.2,1.72,10.64L111,272.4c6.7,8.27,5.49-10.37,10.27-19.87.33-.67-1.29-3.05-1.19-3.52s.23-1,.25-1.47c.42-5.27.3-9.83.3-9.83.17-5.78.21-8.15.22-8.1s12.23-1.81,15-17.68c1.39-7.89.72-18.66-.09-29.26C134.64,168,124.16,159.47,112.36,159.87Z" style="fill: rgb(255, 191, 157); transform-origin: 111.107px 216.311px;" id="elzu7h9t2v8zj" class="animable"></path><path d="M112.5,194.75a2,2,0,0,1-2,2,1.94,1.94,0,0,1-2.07-1.88,2,2,0,0,1,2-2A2,2,0,0,1,112.5,194.75Z" style="fill: rgb(38, 50, 56); transform-origin: 110.465px 194.812px;" id="ell0jbz3g6lrm" class="animable"></path><path d="M132.16,194.55a2,2,0,0,1-2,2,2,2,0,0,1-2.07-1.88,2,2,0,0,1,2-2A2,2,0,0,1,132.16,194.55Z" style="fill: rgb(38, 50, 56); transform-origin: 130.125px 194.61px;" id="elvu460mtitae" class="animable"></path><path d="M133.8,186.94c-.25.26-1.78-.91-4-.94s-3.82,1-4,.76c-.12-.12.15-.6.86-1.09a5.55,5.55,0,0,1,3.25-.95A5.4,5.4,0,0,1,133,185.8C133.71,186.33,133.93,186.82,133.8,186.94Z" style="fill: rgb(38, 50, 56); transform-origin: 129.804px 185.848px;" id="eluwzl7zrf5i" class="animable"></path><path d="M111.56,187.89c-.28.24-1.68-1.08-3.86-1.34s-3.91.64-4.11.34c-.11-.13.2-.57,1-1a5.59,5.59,0,0,1,3.33-.6,5.34,5.34,0,0,1,3,1.4C111.53,187.29,111.7,187.79,111.56,187.89Z" style="fill: rgb(38, 50, 56); transform-origin: 107.587px 186.581px;" id="elvj581kpcmqc" class="animable"></path><path d="M119.75,203.6a14.57,14.57,0,0,1,3.57-.58c.57-.05,1.1-.15,1.2-.53a2.87,2.87,0,0,0-.35-1.67l-1.58-4.3c-2.2-6.12-3.78-11.14-3.53-11.23s2.23,4.8,4.43,10.92c.52,1.51,1,2.95,1.51,4.32a3.27,3.27,0,0,1,.25,2.21,1.39,1.39,0,0,1-.93.8,3.54,3.54,0,0,1-1,.12A13.9,13.9,0,0,1,119.75,203.6Z" style="fill: rgb(38, 50, 56); transform-origin: 122.187px 194.518px;" id="eldzji3z6znp7" class="animable"></path><path d="M120.81,229.61a40.45,40.45,0,0,1-21.21-6.05s5.17,11.11,21.12,9.89Z" style="fill: rgb(255, 154, 108); transform-origin: 110.205px 228.552px;" id="elvs94v40aewr" class="animable"></path><path d="M113.38,179.28c-.28.57-2.43,0-5,0s-4.75.45-5-.12c-.12-.28.31-.79,1.21-1.27a8.78,8.78,0,0,1,7.66.08C113.09,178.49,113.51,179,113.38,179.28Z" style="fill: rgb(38, 50, 56); transform-origin: 108.382px 178.292px;" id="elcn09gsb6ub" class="animable"></path><path d="M133.18,177.53c-.4.49-1.9-.05-3.72-.11s-3.36.28-3.71-.25c-.15-.26.1-.75.78-1.21a5.37,5.37,0,0,1,6,.29C133.15,176.77,133.35,177.29,133.18,177.53Z" style="fill: rgb(38, 50, 56); transform-origin: 129.473px 176.458px;" id="eljyljmyxcyhc" class="animable"></path><path d="M86.87,200.35s11.35,3.13,16.79-24.8C105.52,166,114.05,158,114.05,158l-3.59-.95s-21.94,7-22.3,7.26S83,176,83,176Z" style="fill: rgb(38, 50, 56); transform-origin: 98.525px 178.752px;" id="elbfd2lshmga7" class="animable"></path><path d="M89.61,199.23c0-1.19-1.31-4-2.47-4.21-3.12-.54-8.76-.39-9,7.55-.26,10.85,10.69,8.87,10.71,8.56S89.55,203.32,89.61,199.23Z" style="fill: rgb(255, 191, 157); transform-origin: 83.8727px 203.152px;" id="elhauxdqw05u" class="animable"></path><path d="M85.69,206.94s-.19.13-.52.27a1.89,1.89,0,0,1-1.41,0c-1.14-.45-2.06-2.29-2.06-4.24a6.16,6.16,0,0,1,.59-2.7,2.17,2.17,0,0,1,1.46-1.41,1,1,0,0,1,1.1.54c.14.31.06.52.12.54s.24-.17.16-.62a1.18,1.18,0,0,0-.41-.69,1.44,1.44,0,0,0-1-.31,2.64,2.64,0,0,0-2,1.64,6.5,6.5,0,0,0-.73,3c0,2.18,1.09,4.26,2.65,4.75a2,2,0,0,0,1.73-.25C85.66,207.2,85.73,207,85.69,206.94Z" style="fill: rgb(255, 154, 108); transform-origin: 83.3452px 203.06px;" id="elyw2jsr5cf18" class="animable"></path><path d="M94.31,194.8s.6-.06,1.62-.38a9.72,9.72,0,0,0,3.78-2.37,12.74,12.74,0,0,0,1.93-2.42,17.15,17.15,0,0,0,1.53-3.22,66.79,66.79,0,0,0,2.08-7.95,82.18,82.18,0,0,1,2.23-7.94,46.65,46.65,0,0,1,2.62-6.21,33.38,33.38,0,0,1,2.36-3.89c.3-.44.57-.76.74-1a2.47,2.47,0,0,1,.28-.33,1.88,1.88,0,0,1-.23.36c-.16.24-.41.57-.7,1a36.8,36.8,0,0,0-2.27,3.91,48.54,48.54,0,0,0-2.55,6.21c-.81,2.39-1.54,5.08-2.2,7.92a65.43,65.43,0,0,1-2.11,8,17.21,17.21,0,0,1-1.58,3.25,13.09,13.09,0,0,1-2,2.44A9.59,9.59,0,0,1,96,194.53,6.09,6.09,0,0,1,94.31,194.8Z" style="fill: rgb(38, 50, 56); transform-origin: 103.895px 176.945px;" id="elbft5x2tn8pf" class="animable"></path><path d="M81,241.48a3.69,3.69,0,0,1-.13-.51c-.08-.38-.19-.89-.32-1.54-.28-1.38-.67-3.34-1.17-5.84l.26-.05c.07.39.14.83.22,1.28v0c.07.14.15.31.24.47l-.27.11a103.92,103.92,0,0,1-4-17.31,106.34,106.34,0,0,1-1-11.26c-.09-4-.26-8.16.67-12.39a19.38,19.38,0,0,1,1.81-5,26.45,26.45,0,0,1,2.85-4.27c2.12-2.62,4.42-4.88,6.52-7.12,4.22-4.45,8-8.45,11.24-11.82l7.62-7.94c.89-.91,1.58-1.63,2.09-2.14l.55-.55c.13-.12.19-.18.2-.17a1.29,1.29,0,0,1-.16.2l-.52.59-2,2.2-7.5,8L87,178.34c-2.09,2.25-4.38,4.53-6.47,7.11a21.48,21.48,0,0,0-4.56,9.06c-.9,4.14-.75,8.32-.67,12.27a108.87,108.87,0,0,0,4.88,28.49l-.27.11c-.08-.17-.17-.33-.24-.48v0l-.2-1.27.26-.05c.44,2.51.8,4.48,1,5.87.11.65.2,1.16.26,1.54A2.37,2.37,0,0,1,81,241.48Z" style="fill: rgb(69, 90, 100); transform-origin: 91.5683px 198.454px;" id="elunlluny15h" class="animable"></path></g><path d="M81.16,213.82a4.46,4.46,0,1,0,4.31-4.61A4.46,4.46,0,0,0,81.16,213.82Z" style="fill: rgb(69, 90, 100); transform-origin: 85.6174px 213.668px;" id="elq02mbl4rktr" class="animable"></path></g><g id="eldheert9e684" class="animable" style="transform-origin: 103.426px 329.655px;"><path d="M146.64,261.07a4.5,4.5,0,0,1,.17,1c.08.76.18,1.74.31,3,.29,2.56.54,6.28.78,10.89.48,9.21.47,22,0,36s-.83,26.78-.7,36c0,4.61.13,8.33.25,10.9q.06,1.83.09,3a4.42,4.42,0,0,1,0,1,6.79,6.79,0,0,1-.14-1c-.06-.76-.14-1.74-.24-3-.22-2.57-.39-6.3-.51-10.91-.27-9.22,0-22,.47-36s.56-26.77.24-36c-.17-4.6-.34-8.32-.53-10.89-.07-1.22-.12-2.2-.16-3A6.31,6.31,0,0,1,146.64,261.07Z" style="fill: rgb(38, 50, 56); transform-origin: 147.399px 311.965px;" id="elbtxcj112mzf" class="animable"></path><g id="elzm2r1gfz23" class="animable" style="transform-origin: 103.426px 329.655px;"><path d="M73.19,266.18l10.94,86.48,59.18,4.24,3.83,2-3.91-71.45-20.55-48.86-2.06-1.25s-1.72,14.44-7.28,14.19c-3.79-.16-18.11-7-21.26-9.07l-3.16-9.2Z" style="fill: rgb(255, 255, 255); transform-origin: 110.165px 296.08px;" id="elluxa3xkbsxk" class="animable"></path><g id="elh37r3oycmz" class="animable" style="transform-origin: 103.426px 329.655px;"><path d="M60.6,369.22l12.59-28.87L61,248l21.23-8.89,7-7.5s6.45,23.83,8.47,32.18,7.77,26.7,10.34,43.15-.75,47.6-3.31,58.13-12.9,62.63-12.9,62.63H44.27S51.94,387.48,60.6,369.22Z" style="fill: rgb(255, 193, 0); transform-origin: 76.6187px 329.655px;" id="elqapybhlyq2d" class="animable"></path><path d="M120.81,232.16l5,5.13,18.75,6.59s5.53,21.63,5.74,28.3-.1,80.64,0,84.12,13.29,68.16,12.22,71.1H149.73s-6.91-53.15-7.36-67.07-2.16-48.08-5.61-64.8-16.16-57.82-16.16-57.82Z" style="fill: rgb(255, 193, 0); transform-origin: 141.591px 329.78px;" id="eljt184fujik" class="animable"></path><path d="M142.93,368.09a1.91,1.91,0,0,1,0-.34c0-.28,0-.61,0-1,0-1,0-2.26-.07-3.9,0-3.46-.09-8.35-.15-14.36-.11-12.13-.18-28.88-.48-47.37-.06-2.31-.1-4.6-.19-6.84s-.38-4.43-.62-6.6c-.49-4.34-1-8.51-1.51-12.48S138.72,267.45,138,264a48.16,48.16,0,0,0-3-9.37,122.49,122.49,0,0,0-6.5-12.76l-2-3.37-.51-.87a1.09,1.09,0,0,1-.16-.31s.09.08.22.27.34.5.58.83c.49.75,1.21,1.85,2.1,3.3a109.33,109.33,0,0,1,6.73,12.7,48.26,48.26,0,0,1,3.13,9.45c.75,3.5,1.35,7.27,1.9,11.25s1.06,8.15,1.56,12.49c.24,2.16.57,4.36.64,6.64s.14,4.55.19,6.86c.31,18.51.28,35.26.26,47.38,0,6-.06,10.91-.09,14.37,0,1.64,0,2.95-.06,3.9,0,.41,0,.74,0,1S143,368.09,142.93,368.09Z" style="fill: rgb(38, 50, 56); transform-origin: 134.491px 302.705px;" id="eljf88mpqu4kp" class="animable"></path></g></g><path d="M107.67,341.4a4.44,4.44,0,0,1-.2-1c-.1-.69-.22-1.7-.35-3-.26-2.61-.55-6.39-.62-11.08,0-2.34,0-4.91.07-7.66a33.12,33.12,0,0,0-1.37-8.56,140.21,140.21,0,0,0-7.29-18.78c-3-6.52-6.1-12.63-9-18.17a75,75,0,0,1-3.83-8A67.41,67.41,0,0,1,83,257.73c-1.08-4.57-1.71-8.32-2.12-10.9-.2-1.3-.35-2.3-.43-3a4.85,4.85,0,0,1-.08-1.05,6.93,6.93,0,0,1,.23,1c.14.74.33,1.73.56,3,.5,2.57,1.21,6.29,2.35,10.83a71,71,0,0,0,2.21,7.32,77,77,0,0,0,3.86,7.9c2.9,5.52,6,11.64,9,18.17a136.59,136.59,0,0,1,7.27,18.9,33.51,33.51,0,0,1,1.33,8.75c-.12,2.74-.17,5.3-.17,7.64,0,4.67.22,8.45.38,11.06.09,1.25.17,2.25.22,3A7.52,7.52,0,0,1,107.67,341.4Z" style="fill: rgb(38, 50, 56); transform-origin: 94.019px 292.09px;" id="elw88wjlpjuq" class="animable"></path><path d="M147.72,257a5.64,5.64,0,0,1,.52.88c.33.59.76,1.48,1.28,2.64a52.73,52.73,0,0,1,3.21,10.28,78.21,78.21,0,0,1,1.55,15.91c0,6-.49,12.62-1.09,19.52-1.28,13.8-2.09,26.3-2.36,35.38-.16,4.53-.25,8.2-.3,10.74,0,1.21-.07,2.18-.09,2.92a6.26,6.26,0,0,1-.08,1,4.76,4.76,0,0,1-.07-1c0-.74,0-1.71-.06-2.92,0-2.54,0-6.22.07-10.76.14-9.08.86-21.63,2.14-35.42.6-6.9,1.09-13.48,1.15-19.46a80.32,80.32,0,0,0-1.38-15.8,58.07,58.07,0,0,0-3-10.28c-.48-1.17-.86-2.08-1.14-2.68A5.4,5.4,0,0,1,147.72,257Z" style="fill: rgb(38, 50, 56); transform-origin: 151.001px 306.635px;" id="ellq8w5v7tly" class="animable"></path></g></g><g id="eln8qlw6tgm0i" class="animable" style="transform-origin: 115.164px 210.619px;"><path d="M112.3,207.48a6.31,6.31,0,0,0-.67,3.7,3,3,0,0,0,.74,2,2.55,2.55,0,0,0,1.89.69,5.14,5.14,0,0,0,2-.51,7.11,7.11,0,0,0,2.7-3.45C117.21,209.31,114.14,208.06,112.3,207.48Z" style="fill: rgb(255, 154, 108); transform-origin: 115.271px 210.677px;" id="ely0t0w82fg5" class="animable"></path><path d="M116.6,213.18a2.79,2.79,0,0,1-2.44.87,3.38,3.38,0,0,1-1.31-.37,2.57,2.57,0,0,1-1.12-1.14,3.56,3.56,0,0,1-.36-1.71,9.36,9.36,0,0,1,.2-1.8,7.24,7.24,0,0,1,.5-1.66l.1-.21.21.08c1.9.7,3.55,1.34,4.73,1.82a9.07,9.07,0,0,1,1.85.86,9,9,0,0,1-2-.54c-1.2-.4-2.88-1-4.77-1.66l.3-.13a7.7,7.7,0,0,0-.45,1.54,5.27,5.27,0,0,0,.08,3.19,2.51,2.51,0,0,0,2,1.37,3.88,3.88,0,0,0,1.77-.24A6.35,6.35,0,0,1,116.6,213.18Z" style="fill: rgb(38, 50, 56); transform-origin: 115.164px 210.619px;" id="elyo8hpib17fi" class="animable"></path></g></g><g id="elk8pv3f9sf4" class="animable" style="transform-origin: 338.699px 298.666px;"><g id="ellrqzlurl34" class="animable" style="transform-origin: 338.699px 298.666px;"><rect x="168.62" y="169.94" width="340.16" height="257.74" rx="15.3" style="fill: rgb(255, 255, 255); transform-origin: 338.7px 298.81px;" id="elouevx2zommf" class="animable"></rect><path d="M183.7,169.94H493.15a15.76,15.76,0,0,1,15.76,15.76v19a0,0,0,0,1,0,0H168.62a0,0,0,0,1,0,0V185A15.07,15.07,0,0,1,183.7,169.94Z" style="fill: rgb(224, 224, 224); transform-origin: 338.765px 187.32px;" id="elxmmmd3tez8" class="animable"></path><path d="M493.49,427.67l.75-.05c.26,0,.57,0,.94-.06l1.3-.21q.74-.17,1.62-.42a16.22,16.22,0,0,0,1.89-.76,15.22,15.22,0,0,0,7.7-8.33L508,417c.09-.3.16-.6.24-.9a14,14,0,0,0,.35-1.89,36.31,36.31,0,0,0,.12-4.09c0-5.7,0-12.27,0-19.66,0-29.6-.05-72.42-.08-125.32q0-19.84,0-41.53V201.51q0-5.62,0-11.36c0-1.9,0-3.84,0-5.74a15.08,15.08,0,0,0-9.64-13.24,15.56,15.56,0,0,0-5.75-1h-81.6L184,170.2a15,15,0,0,0-12.56,6.73,15.22,15.22,0,0,0-2.43,6.89c-.09,1.22-.08,2.47-.08,3.72v91.51c0,38.07,0,74.79,0,109.78v19.49a51.5,51.5,0,0,0,.19,6.36,15,15,0,0,0,12.23,12.52,38.62,38.62,0,0,0,6.19.25h48.21l86.54,0,125.32.08,34.07.05,8.86,0,3,0-3,0-8.86,0-34.07,0-125.32.08-86.54,0H187.47a37.77,37.77,0,0,1-6.27-.25,15.43,15.43,0,0,1-12.61-12.89,49.61,49.61,0,0,1-.2-6.44v-6.46q0-6.48,0-13c0-35,0-71.71,0-109.78q0-28.56,0-58.07V187.54c0-1.25,0-2.49.08-3.77a15.72,15.72,0,0,1,2.52-7.13,15.5,15.5,0,0,1,13-7l227.59,0h81.6a16.08,16.08,0,0,1,5.91,1,15.5,15.5,0,0,1,8.49,8,15.34,15.34,0,0,1,1.42,5.67c.08,2,0,3.86,0,5.77q0,5.73,0,11.36,0,11.27,0,22.09,0,21.66,0,41.53c0,52.9-.07,95.72-.08,125.32,0,7.39,0,14,0,19.66a36.76,36.76,0,0,1-.13,4.11,12.77,12.77,0,0,1-.36,1.9c-.08.31-.15.61-.24.91l-.32.86a15.24,15.24,0,0,1-7.79,8.35,16.89,16.89,0,0,1-1.9.75c-.6.17-1.14.3-1.63.41l-1.3.19c-.37.05-.69,0-.94.06Z" style="fill: rgb(38, 50, 56); transform-origin: 338.699px 298.666px;" id="el206tzhl17oc" class="animable"></path><g id="elhecwabg2569" class="animable" style="transform-origin: 198.885px 189.42px;"><path d="M190.93,189.42a4,4,0,1,1-4-4A4,4,0,0,1,190.93,189.42Z" style="fill: rgb(255, 255, 255); transform-origin: 186.93px 189.42px;" id="el09silqy692to" class="animable"></path><path d="M202.88,189.42a4,4,0,1,1-4-4A4,4,0,0,1,202.88,189.42Z" style="fill: rgb(255, 255, 255); transform-origin: 198.88px 189.42px;" id="elvsx8op8cdt8" class="animable"></path><path d="M214.84,189.42a4,4,0,1,1-4-4A4,4,0,0,1,214.84,189.42Z" style="fill: rgb(255, 255, 255); transform-origin: 210.84px 189.42px;" id="el9zgrdb73zm9" class="animable"></path></g></g><path d="M205.58,246.57a22.25,22.25,0,0,1,5.47-2.38l1.13-5.43,9.16-.16,1.32,5.38a22.19,22.19,0,0,1,5.56,2.19l4.63-3,6.59,6.37-2.87,4.73a22.32,22.32,0,0,1,2.38,5.48l5.42,1.13.16,9.16-5.38,1.32a22.55,22.55,0,0,1-2.18,5.56l3,4.63-6.36,6.59-4.73-2.87a22.88,22.88,0,0,1-5.48,2.38L222.3,293l-9.16.16-1.32-5.38a22.19,22.19,0,0,1-5.56-2.19l-4.63,3L195,282.3l2.87-4.74a22.16,22.16,0,0,1-2.38-5.48L190.11,271l-.16-9.17,5.38-1.31a22.55,22.55,0,0,1,2.18-5.56l-3-4.63,6.36-6.59,4.74,2.87Zm4.88,12.2a9.83,9.83,0,1,0,13.9-.24A9.84,9.84,0,0,0,210.46,258.77Z" style="fill: rgb(235, 235, 235); transform-origin: 217.24px 265.88px;" id="elnwln6b58otl" class="animable"></path><path d="M462.3,349.86a13.43,13.43,0,0,1,3.31-1.43l.68-3.28,5.54-.1.79,3.25a14,14,0,0,1,3.36,1.32l2.8-1.83,4,3.84L481,354.49a13.09,13.09,0,0,1,1.44,3.31l3.28.69.09,5.53-3.24.8a13.38,13.38,0,0,1-1.33,3.35l1.84,2.8-3.85,4-2.86-1.73a13.68,13.68,0,0,1-3.31,1.44l-.68,3.27-5.53.1-.8-3.25a13.74,13.74,0,0,1-3.35-1.32l-2.8,1.83-4-3.84,1.73-2.86a13.85,13.85,0,0,1-1.44-3.31L453,364.6l-.1-5.54,3.25-.79a13.2,13.2,0,0,1,1.32-3.36l-1.83-2.8,3.84-4,2.86,1.73Zm2.95,7.38a5.93,5.93,0,1,0,8.4-.15A5.93,5.93,0,0,0,465.25,357.24Z" style="fill: rgb(235, 235, 235); transform-origin: 469.355px 361.55px;" id="elasocnzascgr" class="animable"></path><path d="M317.5,348.08A22.64,22.64,0,0,1,323,345.7l1.13-5.42,9.16-.16,1.32,5.38a22.55,22.55,0,0,1,5.56,2.18l4.63-3,6.59,6.36-2.87,4.74a22.25,22.25,0,0,1,2.38,5.47l5.42,1.13.16,9.16-5.37,1.32a23,23,0,0,1-2.19,5.56l3,4.63-6.36,6.59-4.73-2.87a22.48,22.48,0,0,1-5.48,2.38l-1.13,5.42-9.16.17-1.32-5.38a23,23,0,0,1-5.56-2.19l-4.63,3L307,383.81l2.87-4.73a22.32,22.32,0,0,1-2.38-5.48L302,372.47l-.16-9.16,5.38-1.32a22.55,22.55,0,0,1,2.18-5.56l-3-4.63,6.36-6.59,4.74,2.87Zm4.88,12.21a9.83,9.83,0,1,0,13.9-.25A9.82,9.82,0,0,0,322.38,360.29Z" style="fill: rgb(224, 224, 224); transform-origin: 329.16px 367.43px;" id="elbvvf67tpyf6" class="animable"></path><path d="M368.25,382.21a13.09,13.09,0,0,1,3.15-1.37l.64-3.11,5.26-.09.76,3.09a12.91,12.91,0,0,1,3.18,1.25l2.66-1.74,3.78,3.65L386,386.61a12.82,12.82,0,0,1,1.36,3.14l3.11.65.09,5.25-3.08.76a12.77,12.77,0,0,1-1.26,3.19l1.74,2.65L384.35,406l-2.71-1.64a13,13,0,0,1-3.14,1.36l-.65,3.11-5.26.1-.75-3.09a13,13,0,0,1-3.19-1.25L366,406.36l-3.78-3.65,1.65-2.72a12.85,12.85,0,0,1-1.37-3.14l-3.11-.65-.09-5.25,3.09-.76a12.59,12.59,0,0,1,1.25-3.19l-1.74-2.66,3.65-3.78,2.71,1.65Zm2.81,7a5.64,5.64,0,1,0,8-.14A5.63,5.63,0,0,0,371.06,389.21Z" style="fill: rgb(235, 235, 235); transform-origin: 374.93px 393.285px;" id="ellgjt5qi01cm" class="animable"></path><path d="M254.26,380.5a7.72,7.72,0,0,1,2-.86l.41-2,3.31-.05.48,1.94a8.4,8.4,0,0,1,2,.79l1.67-1.1,2.39,2.31-1,1.71a8.25,8.25,0,0,1,.86,2l2,.41.06,3.31-2,.48a8,8,0,0,1-.79,2l1.1,1.67-2.3,2.39-1.71-1a7.94,7.94,0,0,1-2,.86l-.4,2-3.32.06-.48-1.94a8.43,8.43,0,0,1-2-.8l-1.67,1.1-2.38-2.3,1-1.71a8.43,8.43,0,0,1-.86-2l-2-.41L248.6,386l2-.47a7.86,7.86,0,0,1,.79-2l-1.1-1.68,2.3-2.38,1.72,1Zm1.76,4.41a3.56,3.56,0,1,0,5-.09A3.56,3.56,0,0,0,256,384.91Z" style="fill: rgb(245, 245, 245); transform-origin: 258.52px 387.505px;" id="elq6r6567o1a9" class="animable"></path><path d="M416,243.84a22.64,22.64,0,0,1,5.47-2.38l1.13-5.42,9.16-.16,1.32,5.38a22.19,22.19,0,0,1,5.56,2.19l4.63-3,6.59,6.37L447,251.51a22.32,22.32,0,0,1,2.38,5.48l5.42,1.13.16,9.16-5.37,1.32a22.91,22.91,0,0,1-2.19,5.55l3,4.63-6.36,6.6-4.73-2.87a22.88,22.88,0,0,1-5.48,2.38l-1.13,5.42-9.16.16-1.32-5.38a22.19,22.19,0,0,1-5.56-2.19l-4.63,3-6.59-6.37,2.87-4.73a22.32,22.32,0,0,1-2.38-5.48l-5.42-1.13-.16-9.16,5.38-1.32a22.33,22.33,0,0,1,2.18-5.55l-3-4.63,6.36-6.6,4.74,2.87Zm4.88,12.21a9.83,9.83,0,1,0,13.9-.25A9.84,9.84,0,0,0,420.84,256.05Z" style="fill: rgb(235, 235, 235); transform-origin: 427.655px 263.175px;" id="elvp2w3osb0n" class="animable"></path><path d="M221.25,362.15a11.54,11.54,0,0,1,2.87-1.24l.59-2.84,4.8-.09.69,2.82a12.22,12.22,0,0,1,2.91,1.14l2.42-1.59,3.45,3.34-1.5,2.47a11.71,11.71,0,0,1,1.24,2.87l2.84.59.09,4.8-2.82.69a12.05,12.05,0,0,1-1.14,2.91l1.59,2.42-3.34,3.46-2.47-1.51a11.74,11.74,0,0,1-2.87,1.25l-.59,2.84-4.8.08-.69-2.81a11.84,11.84,0,0,1-2.91-1.15l-2.42,1.59-3.45-3.33,1.5-2.48a11.58,11.58,0,0,1-1.25-2.87l-2.84-.59-.08-4.8,2.81-.69a11.84,11.84,0,0,1,1.15-2.91l-1.59-2.42,3.33-3.45,2.48,1.5Zm2.56,6.39a5.14,5.14,0,1,0,7.27-.13A5.14,5.14,0,0,0,223.81,368.54Z" style="fill: rgb(245, 245, 245); transform-origin: 227.36px 372.27px;" id="elwkxi94wvh6b" class="animable"></path><g id="elbmp5hmm8v6m" class="animable" style="transform-origin: 339.62px 320.386px;"><g id="elt3j4pbdpj0m" class="animable" style="transform-origin: 339.62px 320.386px;"><g id="elw3x7xsvqtu" class="animable" style="transform-origin: 284.075px 321.11px;"><path d="M216.08,369.09a60,60,0,0,1-18.2-7.26L208.09,338a64,64,0,0,0,15,6.43,57,57,0,0,0,16,2.42c4.39,0,7.52-.43,9.4-1.31a4.21,4.21,0,0,0,2.83-3.95c0-2-1.24-3.55-3.7-4.56a77.17,77.17,0,0,0-12.16-3.32,134.67,134.67,0,0,1-18.14-5.06,30.8,30.8,0,0,1-12.63-8.85q-5.39-6.16-5.38-16.68a29.27,29.27,0,0,1,5-16.6q5-7.49,14.84-11.77t24-4.29a84.6,84.6,0,0,1,19,2.15,58.4,58.4,0,0,1,16.46,6.3l-9.54,23.66q-13.83-7.2-26.2-7.2t-12.23,6.09q0,2.91,3.63,4.36a74.93,74.93,0,0,0,12,3.12,119.54,119.54,0,0,1,18.14,4.77,31.5,31.5,0,0,1,12.83,8.79q5.44,6.09,5.44,16.6a29,29,0,0,1-5,16.54q-5,7.41-14.85,11.76t-24,4.36A96,96,0,0,1,216.08,369.09Z" style="fill: rgb(255, 193, 0); transform-origin: 240.281px 321.11px;" id="elbafolel5g9" class="animable"></path><path d="M370.27,344.94v24.64h-78.2V272.71h76.46v24.63H323.24v11.35H363v23.52H323.24v12.73Z" style="fill: rgb(255, 193, 0); transform-origin: 331.17px 321.145px;" id="eldez1rd68fuf" class="animable"></path></g><g id="elbrjzzu3zk3" class="animable" style="transform-origin: 431.489px 320.363px;"><path d="M431.54,320.37l-35-36.62A49.8,49.8,0,0,1,411,273.52c25-11.61,54.77,0,66,25.69s0,56.4-24.94,68-54.77,0-66-25.68a54.45,54.45,0,0,1-2.16-5.84Z" style="fill: rgb(255, 193, 0); transform-origin: 432.63px 320.363px;" id="els8xftrslsn" class="animable"></path><path d="M431.54,320.46l-47.65,15.33a53,53,0,0,1-2.27-15.33,52.19,52.19,0,0,1,15.43-37.17Z" style="fill: rgb(255, 193, 0); transform-origin: 406.58px 309.54px;" id="elw98wbr32k3" class="animable"></path></g></g><g id="eljhwiblhok28"><g style="opacity: 0.3; transform-origin: 406.58px 309.54px;" class="animable"><path d="M431.54,320.46l-47.65,15.33a53,53,0,0,1-2.27-15.33,52.19,52.19,0,0,1,15.43-37.17Z" id="elh7usvl97j5i" class="animable" style="transform-origin: 406.58px 309.54px;"></path></g></g><path d="M431.54,320.46l-37,34.43s-7.74-8.33-10.7-19.1Z" style="fill: rgb(224, 224, 224); transform-origin: 407.69px 337.675px;" id="elu9h9jyivc8" class="animable"></path></g><path d="M285,226.41a11.51,11.51,0,0,1,2.86-1.25l.59-2.84,4.8-.08.69,2.81a11.54,11.54,0,0,1,2.91,1.15l2.42-1.59,3.46,3.33-1.51,2.48a11.58,11.58,0,0,1,1.25,2.87l2.84.59.08,4.79-2.81.7a11.62,11.62,0,0,1-1.15,2.9L303,244.7l-3.33,3.45-2.48-1.5a11.54,11.54,0,0,1-2.87,1.24l-.59,2.84-4.79.09-.7-2.82a12.22,12.22,0,0,1-2.91-1.14l-2.42,1.58-3.45-3.33,1.5-2.48a11.48,11.48,0,0,1-1.24-2.86l-2.84-.59-.09-4.8,2.82-.69a11.89,11.89,0,0,1,1.14-2.91l-1.58-2.42,3.33-3.46,2.48,1.51Zm2.55,6.39a5.15,5.15,0,1,0,7.28-.13A5.15,5.15,0,0,0,287.5,232.8Z" style="fill: rgb(235, 235, 235); transform-origin: 291.09px 236.53px;" id="el475tamd4876" class="animable"></path></g><g id="elyqvzphfnvz" class="animable" style="transform-origin: 110.21px 298.047px;"><path d="M172.43,321.34s3-3.28-1.85-4.22-29.35-.5-38.07,2.32l-11.83,2,2.07,19.44,7.39-1.71,17.63,2.67c2,.31,8.22-2.28,3.32-5.5,0,0,5.82-2.85,1.42-6.63,0,0,4.27-2.25.8-6.72Z" style="fill: rgb(255, 191, 157); transform-origin: 147.014px 329.269px;" id="el50jjgmkxxys" class="animable"></path><polygon points="118.66 320.74 123.25 320.37 122.74 341.22 118.27 342.15 118.66 320.74" style="fill: rgb(235, 235, 235); transform-origin: 120.76px 331.26px;" id="eliert26opkcn" class="animable"></polygon><g id="elr26b97djwts" class="animable" style="transform-origin: 83.1465px 298.047px;"><path d="M61.34,247.5s-11.2,3.85-13.52,19.2c-2.53,16.73,4.07,45.89,4.34,56.47.21,7.81,5.34,25.81,22,25.19a261.09,261.09,0,0,0,44.77-6l-.08-21.9-39.65,0-3.93-37.15" style="fill: rgb(255, 193, 0); transform-origin: 83.0867px 297.938px;" id="elgxf9uwz0j6" class="animable"></path><path d="M75.28,283.37s0,.21.09.64.13,1.08.23,1.91l.83,7.35c.7,6.42,1.71,15.7,3,27.23l-.19-.16,39.65-.09h.24v.24c0,6.95.06,14.29.09,21.9v.21l-.19,0a267.33,267.33,0,0,1-32.06,5.11c-4.52.43-9,.74-13.43.88a19.61,19.61,0,0,1-6.55-1,18.32,18.32,0,0,1-5.66-3.25,25.61,25.61,0,0,1-7.07-10.41,34.6,34.6,0,0,1-2.37-11.86c-.24-3.9-.8-7.7-1.3-11.38s-1-7.27-1.48-10.73c-.91-6.93-1.64-13.41-1.89-19.36a65.56,65.56,0,0,1,.89-16,13.49,13.49,0,0,1,.43-1.69c.16-.55.3-1.09.48-1.61a29.31,29.31,0,0,1,1.23-2.93,23.67,23.67,0,0,1,3-4.7,21.66,21.66,0,0,1,5.76-5,15.63,15.63,0,0,1,1.77-.92,5.51,5.51,0,0,1,.64-.23l-.62.28c-.4.2-1,.5-1.74,1a22.27,22.27,0,0,0-5.65,5,24.16,24.16,0,0,0-2.89,4.68c-.47.89-.78,1.89-1.19,2.91-.17.51-.31,1.06-.47,1.6a14.72,14.72,0,0,0-.41,1.68,66,66,0,0,0-.81,15.93c.28,5.93,1,12.4,1.95,19.32q.74,5.19,1.51,10.72c.51,3.69,1.08,7.49,1.33,11.43a34,34,0,0,0,2.35,11.69A25.12,25.12,0,0,0,61.64,344a17.54,17.54,0,0,0,5.49,3.15,19.06,19.06,0,0,0,6.38,1c4.39-.13,8.87-.45,13.38-.87a272.32,272.32,0,0,0,32-5.09l-.2.25c0-7.61,0-14.94-.06-21.89l.24.24-39.65,0h-.16l0-.17c-1.19-11.54-2.14-20.82-2.8-27.25l-.74-7.36c-.07-.83-.13-1.46-.17-1.91S75.28,283.37,75.28,283.37Z" style="fill: rgb(38, 50, 56); transform-origin: 83.1465px 298.057px;" id="elrcclqxopehn" class="animable"></path></g><path d="M75.08,331a12.45,12.45,0,0,1,4.13-10.49,29.1,29.1,0,0,0-2.82,5A29.3,29.3,0,0,0,75.08,331Z" style="fill: rgb(38, 50, 56); transform-origin: 77.1171px 325.755px;" id="ellz70qpv5qj" class="animable"></path><path d="M71,272a19.08,19.08,0,0,1-.72-2.64,43.83,43.83,0,0,0-2.13-6.2,45.47,45.47,0,0,0-3.08-5.79A23.24,23.24,0,0,1,63.63,255a10.51,10.51,0,0,1,1.76,2.12,33.25,33.25,0,0,1,3.24,5.78,32.75,32.75,0,0,1,2,6.32A10.74,10.74,0,0,1,71,272Z" style="fill: rgb(38, 50, 56); transform-origin: 67.315px 263.5px;" id="el419h6qvwvpe" class="animable"></path></g><g id="elgnmzp93in3w" class="animable" style="transform-origin: 351.783px 159.183px;"><g id="elqv6abagnywo" class="animable" style="transform-origin: 325.275px 104.951px;"><g id="elquy3pg4o8nb" class="animable" style="transform-origin: 336.557px 109.706px;"><path d="M370,140.29l-16.36-59.9c-3.58-15-15.32-25.48-30.24-21.48l-1.36.45A27.63,27.63,0,0,0,303.9,92.13c3.18,13,6.86,27.35,9.2,34.13,4.84,14,19.64,11.54,19.64,11.54s2.57,8.64,3.76,12.82L336,161.36l10.9-6.21Z" style="fill: rgb(174, 116, 97); transform-origin: 336.557px 109.706px;" id="el7sxup9k7tu7" class="animable"></path><path d="M332.74,137.8a35.84,35.84,0,0,0,16.53-11.49s-.9,12-15.37,15.43Z" style="fill: rgb(111, 68, 57); transform-origin: 341.005px 134.025px;" id="elcmf5047jpm6" class="animable"></path><path d="M313.35,104.31a2.11,2.11,0,0,0,2.61,1.38,2,2,0,0,0,1.47-2.5,2.12,2.12,0,0,0-2.61-1.38A2,2,0,0,0,313.35,104.31Z" style="fill: rgb(38, 50, 56); transform-origin: 315.39px 103.751px;" id="elz15bz2xoial" class="animable"></path><path d="M309,97.36c.33.18,1.48-1.45,3.65-2.16s4.11-.16,4.25-.5c.08-.16-.33-.55-1.19-.82a5.78,5.78,0,0,0-3.51.07,5.61,5.61,0,0,0-2.8,2C308.86,96.73,308.79,97.28,309,97.36Z" style="fill: rgb(38, 50, 56); transform-origin: 312.9px 95.5074px;" id="elvtpbcx5os3c" class="animable"></path><path d="M331.49,98.45a2.11,2.11,0,0,0,2.61,1.38,2,2,0,0,0,1.47-2.5A2.11,2.11,0,0,0,333,96,2,2,0,0,0,331.49,98.45Z" style="fill: rgb(38, 50, 56); transform-origin: 333.538px 97.9181px;" id="elf79dn0q1ntm" class="animable"></path><path d="M330.33,90.83c.33.18,1.48-1.45,3.65-2.16s4.11-.15,4.25-.5c.08-.15-.33-.54-1.19-.82a5.87,5.87,0,0,0-3.51.08,5.49,5.49,0,0,0-2.8,2C330.24,90.21,330.17,90.76,330.33,90.83Z" style="fill: rgb(38, 50, 56); transform-origin: 334.246px 88.9818px;" id="el3egawrs7q2y" class="animable"></path><path d="M328.08,110a14.46,14.46,0,0,0-3.73.53c-.57.12-1.13.19-1.35-.16a3,3,0,0,1-.17-1.76c.08-1.51.16-3.09.24-4.75.28-6.74.29-12.2,0-12.21s-.72,5.44-1,12.18c-.06,1.66-.12,3.24-.17,4.75a3.38,3.38,0,0,0,.44,2.27,1.46,1.46,0,0,0,1.17.5,3.73,3.73,0,0,0,1-.18A15.65,15.65,0,0,0,328.08,110Z" style="fill: rgb(38, 50, 56); transform-origin: 324.969px 101.501px;" id="el5rw15fzdwvh" class="animable"></path><path d="M327.38,84.3c.48.45,2.39-.82,4.92-1.72s4.8-1.22,4.87-1.87c0-.31-.57-.66-1.62-.81a9,9,0,0,0-7.46,2.73C327.39,83.42,327.17,84.08,327.38,84.3Z" style="fill: rgb(38, 50, 56); transform-origin: 332.237px 82.1214px;" id="elegwrp4gutnh" class="animable"></path><path d="M306.75,91c.61.35,2.22-.72,4.34-1.41s4-.91,4.28-1.55c.11-.31-.33-.72-1.27-.94a7.18,7.18,0,0,0-3.79.31,7.06,7.06,0,0,0-3.16,2.08C306.56,90.27,306.47,90.85,306.75,91Z" style="fill: rgb(38, 50, 56); transform-origin: 310.992px 89.0221px;" id="elfe8us85zarl" class="animable"></path><path d="M356,91.19c.2-.18,8.72-6.06,11.6,3.66s-7.47,10.61-7.57,10.34S356,91.19,356,91.19Z" style="fill: rgb(174, 116, 97); transform-origin: 362.053px 97.2466px;" id="eln3ca4rc1ya" class="animable"></path><path d="M361.87,100.63s.21.06.53.11a1.75,1.75,0,0,0,1.28-.35c.91-.68,1.3-2.57.82-4.33a5.74,5.74,0,0,0-1.19-2.29,2,2,0,0,0-1.66-.92.89.89,0,0,0-.86.76c-.05.31.07.48,0,.52s-.26-.1-.3-.53a1.13,1.13,0,0,1,.21-.72,1.32,1.32,0,0,1,.86-.53,2.49,2.49,0,0,1,2.22,1,6,6,0,0,1,1.39,2.53c.51,2,.06,4.11-1.23,4.93a1.88,1.88,0,0,1-1.63.21C362,100.86,361.85,100.65,361.87,100.63Z" style="fill: rgb(111, 68, 57); transform-origin: 362.932px 96.7292px;" id="elkovi2q2m7tb" class="animable"></path><path d="M335.34,109.41c-.34.08.28,2.32-1.19,4.45s-3.93,2.56-3.85,2.88c0,.15.65.28,1.67,0a5.83,5.83,0,0,0,3.25-2.27,5.06,5.06,0,0,0,.85-3.7C335.89,109.84,335.49,109.36,335.34,109.41Z" style="fill: rgb(38, 50, 56); transform-origin: 333.216px 113.156px;" id="elab3mjp5cfdd" class="animable"></path></g><g id="elmck7i4s76um" class="animable" style="transform-origin: 322.748px 76.1808px;"><path d="M280.55,84.94a2.39,2.39,0,0,1,.68-1.67,7.43,7.43,0,0,1,3.46-1.68,21.48,21.48,0,0,0,8.23-4.88,10.68,10.68,0,0,1-3.17-1.06,6.39,6.39,0,0,1-3.56-5.54,1.42,1.42,0,0,1,.48-1.16c.58-.38,1.31.08,1.9.44a5.48,5.48,0,0,0,5.57.61,9,9,0,0,0,3.37-2.19c0-.06.05-.12.08-.17.35-.68.7-1.32,1-2h0c2.57-4.72,5-8.17,7.82-10.44,4.17-3.33,11.88-6.47,17.21-6.65s11,2.51,13.18,7.37c2.07-3.17,6.24-4.39,10-4l.07-.07c4.17.22,7.49,3.56,9.75,7.07l.36.58a15.45,15.45,0,0,0,6.54,3.43c.43.11.92.24,1.09.65a1.25,1.25,0,0,1-.35,1.19A7.91,7.91,0,0,1,361.67,67a17.43,17.43,0,0,0,2,2.27c.64.59,1.4,1.3,1.26,2.16a1.66,1.66,0,0,1-1.45,1.22,4.85,4.85,0,0,1-2-.27L363.68,75a9.27,9.27,0,0,1-4.17,1c.27,3.83,1.65,10.65,1.45,13.36-2.56.82-3.27.72-4.45,1.54-1.51,1.06,0,3.85-2.42,3.66-1.25-.1-4.22-3.81-4.93-4.84a57.88,57.88,0,0,1-9.42-22.77,18.54,18.54,0,0,0-6.69-2.33l.21.1c-4.39-.2-9.29-.21-12.5,2.78-2.49,2.32-3.31,5.87-4.77,8.94-2.77,5.83-6.73,9.68-12.83,11.79.72,4.46,2.65,11.52,3.63,15.59l-5.81-7v0a16.12,16.12,0,0,1-1.15-1.2l-.12-.12v0a25.22,25.22,0,0,0-1.81-1.94l0,0a2.61,2.61,0,0,1-4.65-2.25,5.88,5.88,0,0,1,.85-1.58,4.11,4.11,0,0,1-3.48,2.1,3.23,3.23,0,0,1-3.11-2.41,2.75,2.75,0,0,1,.94-2.59,9.34,9.34,0,0,1-5.41.4C281.85,87,280.59,86.3,280.55,84.94Z" style="fill: rgb(38, 50, 56); transform-origin: 322.748px 76.1808px;" id="el9ntvjpvk99e" class="animable"></path><path d="M332.85,58.94a14,14,0,0,1,1.82.88,10.71,10.71,0,0,1,3.59,4.07,18.61,18.61,0,0,1,1.44,3.51c.4,1.31.71,2.74,1.05,4.25a40,40,0,0,0,1.29,4.7,17.55,17.55,0,0,0,1,2.36,5.38,5.38,0,0,0,1.72,2.09,2.24,2.24,0,0,0,2.21.07,3.29,3.29,0,0,0,1.5-1.56,7.63,7.63,0,0,0,.29-4l-.29.12a12.71,12.71,0,0,0,2.62,2.47,4.48,4.48,0,0,0,3.22.68,2.79,2.79,0,0,0,1.39-.7,2.43,2.43,0,0,0,.7-1.28,2.47,2.47,0,0,0-.07-1.35,1.86,1.86,0,0,0-.79-1l-.11.18a9.41,9.41,0,0,0,3.74,1.38,8.94,8.94,0,0,0,1.06.09,1.41,1.41,0,0,0,.36,0,2,2,0,0,0-.36,0c-.24,0-.59-.06-1-.14a9.8,9.8,0,0,1-3.64-1.44l-.11.18a1.89,1.89,0,0,1,.72,2.08,2.18,2.18,0,0,1-.64,1.14,2.56,2.56,0,0,1-1.27.61,4.14,4.14,0,0,1-3-.66,12.28,12.28,0,0,1-2.54-2.42l-.34-.4.05.52a7.41,7.41,0,0,1-.27,3.85,3,3,0,0,1-1.34,1.39A1.89,1.89,0,0,1,345,80.5a5,5,0,0,1-1.59-2,15.31,15.31,0,0,1-1-2.31,40.28,40.28,0,0,1-1.3-4.65c-.34-1.51-.67-2.94-1.08-4.27a18.94,18.94,0,0,0-1.51-3.54,10.45,10.45,0,0,0-3.73-4.06A6.06,6.06,0,0,0,332.85,58.94Z" style="fill: rgb(69, 90, 100); transform-origin: 346.72px 70.0339px;" id="el3dsjs33st2e" class="animable"></path><path d="M293,85.92s0,0,.14.06l.43.15a5,5,0,0,0,.72.21,7.35,7.35,0,0,0,1,.2,13.31,13.31,0,0,0,6.42-.72,16.8,16.8,0,0,0,7.64-5.74,29.09,29.09,0,0,0,4.83-10.7c.52-2,.84-4,1.28-6a19.72,19.72,0,0,1,1.89-5.27,10.2,10.2,0,0,1,3.35-3.72,7.44,7.44,0,0,1,2.09-.89,8,8,0,0,1,2.09-.21,8.63,8.63,0,0,1,5.73,2.5A10.38,10.38,0,0,1,332,57.75s0-.06-.06-.15l-.19-.42a8.08,8.08,0,0,0-1-1.44,8.22,8.22,0,0,0-2.24-1.68,8.81,8.81,0,0,0-3.58-1,8.53,8.53,0,0,0-2.16.2,7.6,7.6,0,0,0-2.18.91,10.42,10.42,0,0,0-3.48,3.8,20,20,0,0,0-1.94,5.36c-.45,1.92-.77,3.93-1.28,5.95a29.38,29.38,0,0,1-4.76,10.59,16.73,16.73,0,0,1-7.47,5.7,13.33,13.33,0,0,1-6.31.81A20.31,20.31,0,0,1,293,85.92Z" style="fill: rgb(69, 90, 100); transform-origin: 312.5px 69.8565px;" id="elsyz2gjjx2te" class="animable"></path><path d="M289.82,80.05s.21.1.61.21a11.47,11.47,0,0,0,1.74.31,14.69,14.69,0,0,0,2.63.07,17.4,17.4,0,0,0,3.18-.5A17.64,17.64,0,0,0,301,79a15.31,15.31,0,0,0,2.25-1.36,11.32,11.32,0,0,0,1.36-1.13A3.32,3.32,0,0,0,305,76c-.05-.05-.71.59-1.94,1.41a17.18,17.18,0,0,1-2.24,1.27,18.75,18.75,0,0,1-3,1.08,20.05,20.05,0,0,1-3.11.53,18.57,18.57,0,0,1-2.59,0C290.72,80.22,289.83,80,289.82,80.05Z" style="fill: rgb(69, 90, 100); transform-origin: 297.41px 78.3332px;" id="elqczvv00lu3o" class="animable"></path></g></g><path d="M295.1,170s-1.45-4.09,3.47-9.6,35.79-17.14,35.79-17.14,11.46,11.16,24.43,4.11c10.09-5.49,9.31-14.1,9.31-14.1l39.25,6.57,1.33,29.66-14.06.08Z" style="fill: rgb(255, 193, 0); transform-origin: 351.79px 151.635px;" id="eltbn0sd3bqhq" class="animable"></path><g id="elufamyqi743m" class="animable" style="transform-origin: 351.783px 204.823px;"><g id="elnd4iu0s7svq" class="animable" style="transform-origin: 351.783px 204.823px;"><g id="el4q3oinlswri" class="animable" style="transform-origin: 351.783px 218.333px;"><path d="M363.43,220.33l48.41-15.18L396,166.84l30.53.58s22,43,13.69,55.53c-7.59,11.43-70.07,13.73-70.07,13.73Z" style="fill: rgb(174, 116, 97); transform-origin: 402.763px 201.76px;" id="elfpw1tyzk2oa" class="animable"></path><path d="M377.11,245.25l-.2,2.61c-.18,2.33-3,3.94-5.67,3.3l-49.59-5,.92-7.85L372.62,240C376,240,377.35,242.25,377.11,245.25Z" style="fill: rgb(69, 90, 100); transform-origin: 349.393px 244.806px;" id="elyzjqyjciud9" class="animable"></path><g id="ely25tztgvkjp" class="animable" style="transform-origin: 292.018px 238.449px;"><g id="el22dbb85rsff" class="animable" style="transform-origin: 292.018px 238.449px;"><path d="M303.21,267.72a30.46,30.46,0,1,1-3.64-57.88h0a30.45,30.45,0,0,1,3.64,57.88Zm-21.48-54.81a28.4,28.4,0,1,0,17.34-1.1A28.4,28.4,0,0,0,281.73,212.91Z" style="fill: rgb(38, 50, 56); transform-origin: 292.094px 239.365px;" id="el9cr8smu5z2a" class="animable"></path><path d="M303,265.91A30.46,30.46,0,1,1,299.39,208h0A30.46,30.46,0,0,1,303,265.91ZM281.56,211.1a28.41,28.41,0,1,0,17.33-1.1A28.41,28.41,0,0,0,281.56,211.1Z" style="fill: rgb(69, 90, 100); transform-origin: 291.931px 237.533px;" id="elfzyl59zao5t" class="animable"></path></g><path d="M308.23,218.16a2.38,2.38,0,0,1-.41-.29c-.27-.19-.62-.53-1.15-.86a21.46,21.46,0,0,0-4.62-2.46,28.78,28.78,0,0,0-17-1,25.17,25.17,0,0,0-4.63,1.68,26.86,26.86,0,0,0-3.92,2.38,25.49,25.49,0,0,0-5.47,5.49,24.2,24.2,0,0,0-2.64,4.53c-.28.56-.42,1-.56,1.32s-.19.46-.21.45a3.28,3.28,0,0,1,.15-.48c.12-.3.24-.77.5-1.34a22.93,22.93,0,0,1,2.57-4.62,25.84,25.84,0,0,1,5.48-5.6,27.82,27.82,0,0,1,4-2.42,25.09,25.09,0,0,1,4.69-1.7,27.6,27.6,0,0,1,4.92-.77,28.53,28.53,0,0,1,4.64.07,29.81,29.81,0,0,1,4.14.68,27.7,27.7,0,0,1,3.47,1.14,20.16,20.16,0,0,1,4.62,2.57,10.66,10.66,0,0,1,1.11.91A2.25,2.25,0,0,1,308.23,218.16Z" style="fill: rgb(255, 255, 255); transform-origin: 287.925px 220.904px;" id="ele5arix08pi6" class="animable"></path><path d="M307.43,258.46c0-.06,1.24-.81,3-2.43l.66-.65c.23-.22.45-.48.68-.74a21.64,21.64,0,0,0,1.4-1.72,23.44,23.44,0,0,0,4.1-9.21,21.35,21.35,0,0,0,.34-2.19c0-.35.09-.68.1-1s0-.63,0-.93c0-2.37-.25-3.82-.17-3.83a6.56,6.56,0,0,1,.19,1,8.65,8.65,0,0,1,.14,1.2,15.79,15.79,0,0,1,.07,1.61c0,.31,0,.62,0,.94s-.05.67-.08,1a21.45,21.45,0,0,1-.31,2.22,22.79,22.79,0,0,1-4.16,9.33,19.8,19.8,0,0,1-1.44,1.72c-.24.26-.46.52-.7.74l-.69.64a14.32,14.32,0,0,1-1.24,1,7.42,7.42,0,0,1-1,.7A5.52,5.52,0,0,1,307.43,258.46Z" style="fill: rgb(255, 255, 255); transform-origin: 312.685px 247.11px;" id="el3fraplsqki2" class="animable"></path><path d="M305.51,229.9c0,.09-5.59.66-12.49,1.28s-12.5,1-12.51,1,5.58-.66,12.49-1.28S305.5,229.81,305.51,229.9Z" style="fill: rgb(255, 255, 255); transform-origin: 293.01px 231.034px;" id="elydtgnsilbla" class="animable"></path><path d="M308.74,238.57a2.59,2.59,0,0,1-.4,0l-1.15.07-4.25.21c-3.58.18-8.52.43-14,.77s-10.4.71-14,1l-4.23.32-1.15.07a1.42,1.42,0,0,1-.41,0l.4-.07,1.15-.13c1-.11,2.44-.26,4.23-.42,3.57-.34,8.51-.74,14-1.08s10.42-.56,14-.68c1.79-.06,3.24-.09,4.24-.11h1.16A1.25,1.25,0,0,1,308.74,238.57Z" style="fill: rgb(255, 255, 255); transform-origin: 288.945px 239.772px;" id="el9c6w5nj2d8" class="animable"></path><g id="el0w84uddd3lpi"><g style="opacity: 0.3; transform-origin: 292.002px 236.79px;" class="animable"><path d="M264.12,234.32l55.12-3.41s1.38,5,1.06,8.33L264,242.67A21.87,21.87,0,0,1,264.12,234.32Z" style="fill: rgb(255, 255, 255); transform-origin: 292.002px 236.79px;" id="el1aaqxp83vmb" class="animable"></path></g></g><g id="elgfv6ueeonwr"><g style="opacity: 0.3; transform-origin: 292.548px 247.354px;" class="animable"><path d="M265.56,248.12l53.92-3.6s.36-.14-.74,2.23l-52.28,3.44A5,5,0,0,1,265.56,248.12Z" style="fill: rgb(255, 255, 255); transform-origin: 292.548px 247.354px;" id="elzrz0ywhnoid" class="animable"></path></g></g></g><g id="elvm3vac0zz1c" class="animable" style="transform-origin: 348.925px 238.514px;"><path d="M363.43,220.33s-27.77,8.06-28.56,8.52-11.73,8.24-11.93,11.05,3.48,15.4,3.48,15.4,3.74.53,4-6.19l.28-6.72,4.6-4.13s-1.7,7.78-1.27,10,4.08,7.75,6.13,7.31a5.94,5.94,0,0,0,3.16-1.83s1.79,5,7,2c0,0,3.42,1.43,6.1.07s5.11-5.69,5.11-5.69a2.33,2.33,0,0,0-2.62-2.55,10.63,10.63,0,0,0-5.35,2.09l-.27-2.82a32.59,32.59,0,0,1,6.84-6.18c2.2-1.32,11.29-1.53,14.11-4.4,2.4-2.44-2.12-7.8-5.13-9.43h0a5.17,5.17,0,0,0-1.44-.52Z" style="fill: rgb(174, 116, 97); transform-origin: 348.925px 238.514px;" id="elss1pzg1k13f" class="animable"></path><path d="M347.67,242.73a2.4,2.4,0,0,0-.31.5,9.19,9.19,0,0,0-.59,1.46,10.37,10.37,0,0,0-.21,5.18,10.24,10.24,0,0,0,2.37,4.61,7.53,7.53,0,0,0,1.15,1.08,1.63,1.63,0,0,0,.48.32s-.64-.52-1.48-1.53a10.88,10.88,0,0,1-2.24-4.54,10.75,10.75,0,0,1,.13-5.06C347.31,243.48,347.72,242.76,347.67,242.73Z" style="fill: rgb(111, 68, 57); transform-origin: 348.444px 249.305px;" id="elxjqmqmtvngl" class="animable"></path><path d="M342.45,238.76a2.44,2.44,0,0,0-.32.53,5.89,5.89,0,0,0-.32.66,7.88,7.88,0,0,0-.35.89,14.68,14.68,0,0,0-.63,2.43,15.93,15.93,0,0,0-.17,3.07,16.31,16.31,0,0,0,.45,3,15.53,15.53,0,0,0,.84,2.36c.14.33.31.61.44.86a6,6,0,0,0,.37.62,2.1,2.1,0,0,0,.37.5c.05,0-.44-.76-1-2.06a16.21,16.21,0,0,1-.77-2.35,17.62,17.62,0,0,1-.43-3,21.3,21.3,0,0,1,.05-3.22,12.62,12.62,0,0,1,.66-2.2C342.08,239.56,342.5,238.79,342.45,238.76Z" style="fill: rgb(111, 68, 57); transform-origin: 341.89px 246.22px;" id="elnlwb0uqmp7" class="animable"></path><path d="M336.91,233.54s-.29.16-.62.57a4.44,4.44,0,0,0-.85,1.84,3.7,3.7,0,0,0,0,2c.13.5.31.78.34.76a6.82,6.82,0,0,1-.09-2.73A7.18,7.18,0,0,1,336.91,233.54Z" style="fill: rgb(111, 68, 57); transform-origin: 336.106px 236.125px;" id="elns7k4dow0f" class="animable"></path></g><path d="M428.41,212.66c-.09,0-.58-1.1-1.8-2.63a15.15,15.15,0,0,0-6-4.54,12.89,12.89,0,0,0-7.47-.57c-1.92.4-3.06.89-3.09.8a2.91,2.91,0,0,1,.77-.41,15.52,15.52,0,0,1,2.24-.75,12.41,12.41,0,0,1,7.74.46,14.2,14.2,0,0,1,6.12,4.78,12.16,12.16,0,0,1,1.21,2A2.63,2.63,0,0,1,428.41,212.66Z" style="fill: rgb(111, 68, 57); transform-origin: 419.23px 208.404px;" id="elrj6dsiowljm" class="animable"></path></g><path d="M389.16,156.87c-.48-16.18,20.6-23.37,30-10.24l.16.23c8.91,12.69,19.68,42.69,19.68,42.69l-38.14,5.93-9.52-26A48.3,48.3,0,0,1,389.16,156.87Z" style="fill: rgb(255, 193, 0); transform-origin: 414.076px 167.651px;" id="elrd1j72gtyh" class="animable"></path><g id="elh3nct043oui" class="animable" style="transform-origin: 278.173px 173.292px;"><g id="elri1o2mqnzcj" class="animable" style="transform-origin: 278.173px 173.292px;"><path d="M270.26,168.21c.06.14.12.28.17.42a7,7,0,0,1,.4,2,6,6,0,0,0,.05.95,2.94,2.94,0,0,0,.26.57,9.61,9.61,0,0,1,.35,4,7.55,7.55,0,0,0,.73,4.24c.76,1.24,2.53,2,3.73,1.15a1.9,1.9,0,0,0,1.43,2.08,2.77,2.77,0,0,0,2.54-.79,5.14,5.14,0,0,0,1.27-2.43,2.11,2.11,0,0,0,2.09,2,3.26,3.26,0,0,0,2.67-1.64,7.39,7.39,0,0,0,.91-3.1,38.72,38.72,0,0,1,.66-4.16s1.37.22,2,.28h.18a24.2,24.2,0,0,0,1.31-2.26c.87-1.8,1.54-2.93,2.2-4.56.5-1.22.83-2.44.07-3.23-1.81-1.91-5.36,2-5.36,2-.5-1.35-4.62-1.57-5.43.23-.32-1-.2-1.56-1-2.23a3.34,3.34,0,0,0-2.92-.74,2.4,2.4,0,0,0-1.78,2.29,4,4,0,0,0-4.17-1.74,3.93,3.93,0,0,0-2.33,1.61,3.86,3.86,0,0,0-.6,1.3,1.7,1.7,0,0,0-.09.54.68.68,0,0,0,.08.24C269.86,167.54,270.1,167.85,270.26,168.21Z" style="fill: rgb(174, 116, 97); transform-origin: 281.665px 173.292px;" id="elvagmgjspjz8" class="animable"></path><path d="M265.91,165.58a3.14,3.14,0,0,0-2.48.82,5.12,5.12,0,0,0-.77,3.43c1.24.24,1.89.28,3.13.52.26.05.48,0,.7.14.57.4.48,1.78.71,2.44a2.4,2.4,0,0,0,3,1.29,3.22,3.22,0,0,0,1.94-2.86A5,5,0,0,0,270.9,168,6.94,6.94,0,0,0,265.91,165.58Z" style="fill: rgb(174, 116, 97); transform-origin: 267.379px 169.96px;" id="elzkdwcprw7ao" class="animable"></path><path d="M276.8,164.89c.23,0,.23,3.74,0,8.32s-.62,8.29-.85,8.28-.23-3.74,0-8.32S276.57,164.88,276.8,164.89Z" style="fill: rgb(111, 68, 57); transform-origin: 276.375px 173.19px;" id="elp3hsrxrizya" class="animable"></path><path d="M282.52,165.68c.22,0,.52,3.38.16,7.55s-1.23,7.46-1.45,7.41.26-3.37.61-7.48S282.27,165.69,282.52,165.68Z" style="fill: rgb(111, 68, 57); transform-origin: 282.011px 173.16px;" id="elm71bqmwkzx" class="animable"></path></g><path d="M288.11,166.45c.23,0,.33,2.82-.1,6.23s-1,6.14-1.19,6.12-.09-2.82.35-6.22S287.88,166.45,288.11,166.45Z" style="fill: rgb(111, 68, 57); transform-origin: 287.518px 172.625px;" id="elt9w33ost738" class="animable"></path><path d="M267.7,166.16c0-.1.6-.23,1.46.16a4.7,4.7,0,0,1,2.29,2.68,9.41,9.41,0,0,1,.56,3.42c-.1,1-.85,1.33-.86,1.2s.34-.45.27-1.22a17.23,17.23,0,0,0-.76-3.11,5.08,5.08,0,0,0-1.8-2.45C268.21,166.38,267.69,166.29,267.7,166.16Z" style="fill: rgb(111, 68, 57); transform-origin: 269.856px 169.852px;" id="elgdskrh5qycq" class="animable"></path></g></g><path d="M407.69,141a42.62,42.62,0,0,0-4.09,1.71,20.46,20.46,0,0,0-11.12,17.08c-.17,2.74.2,4.43.09,4.44a4.91,4.91,0,0,1-.27-1.18,18,18,0,0,1-.19-3.28,19.87,19.87,0,0,1,11.32-17.39,17.2,17.2,0,0,1,3.08-1.15A4.49,4.49,0,0,1,407.69,141Z" style="fill: rgb(38, 50, 56); transform-origin: 399.895px 152.615px;" id="elkf0ftvtqy9m" class="animable"></path></g></g><g id="elx3xwpg35dkj" class="animable" style="transform-origin: 173.009px 250.869px;"><g id="els6w6u76006h" class="animable" style="transform-origin: 173.009px 250.731px;"><path d="M166.13,257.38c-.92-.33-1.45-.22-2.06-1a3.08,3.08,0,0,1-.62-2.73,2.21,2.21,0,0,1,2.16-1.61,3.64,3.64,0,0,1,1.23-6.57,1.45,1.45,0,0,1,.5-.08.83.83,0,0,1,.22.08c.32.18.6.41.93.57l.38.17a7.22,7.22,0,0,0,1.84.41,6.54,6.54,0,0,1,.89.06,3.6,3.6,0,0,1,.52.26,8.76,8.76,0,0,0,3.67.4,7.1,7.1,0,0,1,3.93.77c1.14.73,1.79,2.39,1,3.48a1.77,1.77,0,0,1,1.9,1.37,2.54,2.54,0,0,1-.78,2.34,4.78,4.78,0,0,1-2.29,1.14,2,2,0,0,1,1.85,2,3,3,0,0,1-1.57,2.44,7,7,0,0,1-2.9.79c-1,.1-4.2.55-5.18.79l-3.72,0a3,3,0,0,1-2.86-4.15A1.93,1.93,0,0,1,166.13,257.38Z" style="fill: rgb(255, 191, 157); transform-origin: 173.009px 253.926px;" id="elwjouuhcxc4" class="animable"></path><path d="M166.13,242a2.92,2.92,0,0,1,.81-2.28,2.49,2.49,0,0,1,2.24-.67,20,20,0,0,0,1.09,3,3.37,3.37,0,0,0,.41.58c.37.54,1.64.49,2.26.71a2.24,2.24,0,0,1,1.14,2.84,2.05,2.05,0,0,1-2.17,1.45,6.8,6.8,0,0,1-3.85-1.3A5.44,5.44,0,0,1,166.13,242Z" style="fill: rgb(255, 191, 157); transform-origin: 170.176px 243.321px;" id="elv5oulghktue" class="animable"></path><path d="M165.28,252.07c0,.1,3.46.07,7.72,0s7.72-.31,7.72-.41-3.47-.07-7.73.06S165.28,252,165.28,252.07Z" style="fill: rgb(255, 154, 108); transform-origin: 173px 251.867px;" id="elcv8z7y9efv" class="animable"></path><path d="M165.89,257.4a9.7,9.7,0,0,0,2.05.17,48.18,48.18,0,0,0,4.95-.09,48.94,48.94,0,0,0,4.93-.55,9.3,9.3,0,0,0,2-.43,15,15,0,0,0-2,.19c-1.25.14-3,.32-4.91.45s-3.66.17-4.93.19A15.31,15.31,0,0,0,165.89,257.4Z" style="fill: rgb(255, 154, 108); transform-origin: 172.855px 257.048px;" id="elv84unci6j3q" class="animable"></path></g><path d="M167.71,262.71a10.81,10.81,0,0,0,1.51,0c.93-.05,2.22-.16,3.65-.31s2.7-.31,3.63-.42,1.5-.2,1.5-.22a11,11,0,0,0-1.51.09c-.93.08-2.22.22-3.64.37s-2.7.28-3.63.36A13.68,13.68,0,0,0,167.71,262.71Z" style="fill: rgb(255, 154, 108); transform-origin: 172.855px 262.248px;" id="el8qmw245ubab" class="animable"></path><path d="M166.63,243.64a1.93,1.93,0,0,0,.26,1.29,4.44,4.44,0,0,0,2.39,2,9.22,9.22,0,0,0,1.67.47,6.92,6.92,0,0,0,1.42.17,1.43,1.43,0,0,0,.92-.33c.18-.16.22-.29.21-.3a1.69,1.69,0,0,1-1.14.38,8.18,8.18,0,0,1-1.34-.23,11.24,11.24,0,0,1-1.61-.49,4.47,4.47,0,0,1-2.3-1.84A7.55,7.55,0,0,1,166.63,243.64Z" style="fill: rgb(255, 154, 108); transform-origin: 170.055px 245.605px;" id="eljart1tnw90l" class="animable"></path></g></g><g id="freepik--window-2--inject-125" class="animable" style="transform-origin: 493.643px 143.455px;"><g id="elgfzhobmaeg" class="animable" style="transform-origin: 493.643px 143.455px;"><g id="elwrpbf6y0ciq" class="animable" style="transform-origin: 493.643px 143.455px;"><g id="elt4srq2jochc" class="animable" style="transform-origin: 493.525px 143.555px;"><rect x="447.99" y="102.1" width="91.07" height="82.91" rx="5.91" style="fill: rgb(255, 255, 255); transform-origin: 493.525px 143.555px;" id="elsl7s0pnud6" class="animable"></rect><path d="M454.06,102.1h79.41a5.59,5.59,0,0,1,5.59,5.59v8.52a0,0,0,0,1,0,0H448a0,0,0,0,1,0,0v-8A6.07,6.07,0,0,1,454.06,102.1Z" style="fill: rgb(224, 224, 224); transform-origin: 493.53px 109.155px;" id="el0cw61vrf9xhw" class="animable"></path></g><g id="el7qfisg189ys" class="animable" style="transform-origin: 464.949px 110.669px;"><path d="M461.1,110.54a2.24,2.24,0,1,1-2.23-2.11A2.17,2.17,0,0,1,461.1,110.54Z" style="fill: rgb(255, 255, 255); transform-origin: 458.864px 110.67px;" id="el6b4mmaxzm6a" class="animable"></path><path d="M467.18,110.54a2.23,2.23,0,1,1-2.23-2.11A2.17,2.17,0,0,1,467.18,110.54Z" style="fill: rgb(255, 255, 255); transform-origin: 464.953px 110.66px;" id="elvt8xu38mexr" class="animable"></path><path d="M473.27,110.54a2.24,2.24,0,1,1-2.24-2.11A2.17,2.17,0,0,1,473.27,110.54Z" style="fill: rgb(255, 255, 255); transform-origin: 471.034px 110.669px;" id="eld55vr2553g9" class="animable"></path></g><path d="M533.15,185s.29,0,.86-.1a5.88,5.88,0,0,0,4.73-4.17,8.4,8.4,0,0,0,.22-2.61c0-.95,0-2,0-3,0-8.57,0-20.93-.08-36.2,0-7.64,0-16,0-25v-3.4c0-.57,0-1.14,0-1.72a9.44,9.44,0,0,0-.08-1.69,5.69,5.69,0,0,0-4.41-4.64,23,23,0,0,0-3.55-.13H519.64l-65.74,0a5.74,5.74,0,0,0-3.8,1.47,5.63,5.63,0,0,0-1.82,3.61c-.06,2.83,0,5.73,0,8.56,0,5.67,0,11.27,0,16.77,0,11,0,21.6,0,31.71q0,7.58,0,14.76a5.69,5.69,0,0,0,3.73,5.2,8.86,8.86,0,0,0,3.34.35h3.39l25,0,36.19.09,9.85.05,2.55,0,.88,0-.88,0-2.55,0-9.85.05-36.19.08-25,0h-3.39a9.28,9.28,0,0,1-3.49-.37,6.13,6.13,0,0,1-4-5.61q0-7.19,0-14.77c0-10.11,0-20.72,0-31.71V116c0-2.85,0-5.68,0-8.61a6.18,6.18,0,0,1,6.14-5.55l65.74,0h13a8.83,8.83,0,0,1,1.84.14,6.15,6.15,0,0,1,4.75,5,10.6,10.6,0,0,1,.09,1.76c0,.58,0,1.15,0,1.72v3.4c0,9,0,17.36,0,25,0,15.27-.06,27.63-.08,36.2,0,1.06,0,2.07,0,3a8.69,8.69,0,0,1-.25,2.65,6,6,0,0,1-2.47,3.3,5.81,5.81,0,0,1-2.4.88A4.08,4.08,0,0,1,533.15,185Z" style="fill: rgb(38, 50, 56); transform-origin: 493.643px 143.455px;" id="elpg8mi3b8xv" class="animable"></path></g><g id="elerzd43za0aw" class="animable" style="transform-origin: 493.415px 150.155px;"><rect x="454.63" y="122.57" width="77.57" height="55.17" rx="4.46" style="fill: rgb(255, 193, 0); transform-origin: 493.415px 150.155px;" id="elc6shi37wizn" class="animable"></rect><g id="el125f0ccdyj3e"><g style="opacity: 0.3; transform-origin: 493.297px 162.05px;" class="animable"><path d="M461.14,174.29l18.94-26.95a2.14,2.14,0,0,1,3.42-.11l13,16.13a2.14,2.14,0,0,0,3.15.2l7.62-7.31a2.15,2.15,0,0,1,3.13.16l14.94,17.73a2.15,2.15,0,0,1-1.64,3.53H462.9A2.15,2.15,0,0,1,461.14,174.29Z" id="elorak05ugk3c" class="animable" style="transform-origin: 493.297px 162.05px;"></path></g></g><g id="eltxb27hsyto"><g style="opacity: 0.3; transform-origin: 497.81px 140.42px;" class="animable"><path d="M504.41,140.41a6.6,6.6,0,1,1-6.59-6.59A6.59,6.59,0,0,1,504.41,140.41Z" id="el7dqmavbur6u" class="animable" style="transform-origin: 497.81px 140.42px;"></path></g></g></g></g></g><g id="freepik--character-2--inject-125" class="animable" style="transform-origin: 566.078px 283.261px;"><g id="el79vuda5p3wc" class="animable" style="transform-origin: 566.078px 283.261px;"><g id="elh90tv51p7sn" class="animable" style="transform-origin: 597.22px 406.85px;"><polygon points="543.25 427.44 541.53 385.94 641.08 386.33 652.91 427.44 543.25 427.44" style="fill: rgb(38, 50, 56); transform-origin: 597.22px 406.69px;" id="elhgwuc9ao0r" class="animable"></polygon><path d="M568.07,427.76a3.58,3.58,0,0,1-.37-1c-.2-.63-.47-1.55-.76-2.7-.58-2.28-1.28-5.46-2-9s-1.36-6.57-1.86-9c-.23-1.06-.43-2-.59-2.72a4.09,4.09,0,0,1-.18-1,3.56,3.56,0,0,1,.38,1c.2.63.46,1.54.75,2.69.59,2.28,1.28,5.46,2,9l1.85,9c.23,1.06.43,2,.59,2.72A4.05,4.05,0,0,1,568.07,427.76Z" style="fill: rgb(69, 90, 100); transform-origin: 565.19px 415.05px;" id="elqdemisah3xp" class="animable"></path><path d="M640.38,404.92s-.1.08-.32.19-.53.28-1,.44a18.83,18.83,0,0,1-3.75,1,28.52,28.52,0,0,1-12.72-1,70.71,70.71,0,0,1-11.78-5l-3.43-1.79a6.05,6.05,0,0,1-1.23-.71,8.35,8.35,0,0,1,1.32.53c.83.38,2,.94,3.5,1.64a83,83,0,0,0,11.76,4.84,29.79,29.79,0,0,0,12.52,1.15A31,31,0,0,0,640.38,404.92Z" style="fill: rgb(69, 90, 100); transform-origin: 623.265px 402.454px;" id="eldixkhs750lk" class="animable"></path><circle cx="571.31" cy="403.44" r="3.25" style="fill: rgb(69, 90, 100); transform-origin: 571.31px 403.44px;" id="el3m0zteextem" class="animable"></circle></g><g id="eln467l09rec" class="animable" style="transform-origin: 586.134px 192.227px;"><g id="ele6bpxd97xq" class="animable" style="transform-origin: 586.134px 192.227px;"><path d="M607.41,196.88c2.42-6,4.82-12,6.18-18.36s1.62-13-.2-19.19c-.28-.94-2.75-7.3-3.73-7.27-.7,0,.69,5.88.29,6.46-3.76,5.53-5.15,12.4-5.08,19.09a87.72,87.72,0,0,0,2.54,19.27" style="fill: rgb(38, 50, 56); transform-origin: 609.775px 174.47px;" id="el189g20fpuuz" class="animable"></path><path d="M568.73,230.1c.27-4.56.47-8.16.44-8.16s-15.52-2.67-15.46-18.23c0-7.52,1.34-23,2.7-37a29,29,0,0,1,29.33-26.2l1.5,0c16.17,1.21,24.18,15.62,22.53,31.75l-4,56.61-11.89,12.31c-9.48,9.82-26,2.48-25.15-11.14Z" style="fill: rgb(255, 191, 157); transform-origin: 581.846px 193.099px;" id="el7dx7z5gy3i2" class="animable"></path><path d="M569.17,221.94a37.52,37.52,0,0,0,20.35-5.66s-5.12,11.24-20.62,9.58Z" style="fill: rgb(255, 154, 108); transform-origin: 579.21px 221.154px;" id="ell5m508uhk8" class="animable"></path><path d="M560.09,180.46a2.21,2.21,0,0,0,2.11,2.27,2.12,2.12,0,0,0,2.32-2,2.22,2.22,0,0,0-2.11-2.28A2.12,2.12,0,0,0,560.09,180.46Z" style="fill: rgb(38, 50, 56); transform-origin: 562.305px 180.59px;" id="elb4unp6xs05g" class="animable"></path><path d="M559.63,173.24c.27.29,2-.93,4.37-.88s4.12,1.27,4.38,1c.13-.13-.14-.66-.89-1.22A6.11,6.11,0,0,0,564,171,5.89,5.89,0,0,0,560.5,172C559.76,172.59,559.5,173.11,559.63,173.24Z" style="fill: rgb(38, 50, 56); transform-origin: 564.005px 172.198px;" id="elmhmuirhf6j9" class="animable"></path><path d="M581.4,181.78a2.23,2.23,0,0,0,2.11,2.28,2.13,2.13,0,0,0,2.32-2,2.23,2.23,0,0,0-2.1-2.28A2.13,2.13,0,0,0,581.4,181.78Z" style="fill: rgb(38, 50, 56); transform-origin: 583.615px 181.92px;" id="el6bp2ml6bcj" class="animable"></path><path d="M581.88,174.44c.27.3,2-.92,4.36-.88s4.12,1.27,4.39,1c.13-.12-.14-.65-.9-1.22a6.09,6.09,0,0,0-3.51-1.14,5.85,5.85,0,0,0-3.48,1.06C582,173.79,581.74,174.31,581.88,174.44Z" style="fill: rgb(38, 50, 56); transform-origin: 586.253px 173.399px;" id="el9lerae2e878" class="animable"></path><path d="M574.16,192.82c0-.14-1.47-.42-3.87-.77-.61-.07-1.19-.2-1.28-.62a3.11,3.11,0,0,1,.43-1.8q.9-2.2,1.88-4.62c2.62-6.58,4.52-12,4.26-12.1s-2.6,5.15-5.22,11.73l-1.8,4.65a3.47,3.47,0,0,0-.36,2.39,1.53,1.53,0,0,0,1,.91,4.25,4.25,0,0,0,1,.16A15.93,15.93,0,0,0,574.16,192.82Z" style="fill: rgb(38, 50, 56); transform-origin: 571.865px 182.91px;" id="el264a9pogylh" class="animable"></path><path d="M582.21,166.39c.33.61,2.65-.06,5.47-.15s5.18.32,5.46-.32c.12-.3-.36-.84-1.36-1.32a9,9,0,0,0-4.2-.79,9.27,9.27,0,0,0-4.13,1.14C582.5,165.52,582.06,166.1,582.21,166.39Z" style="fill: rgb(38, 50, 56); transform-origin: 587.67px 165.22px;" id="elsrre3ux12ls" class="animable"></path><path d="M560.48,164.89c.41.54,2.06,0,4,0s3.66.43,4.05-.13c.17-.28-.08-.83-.8-1.35a5.88,5.88,0,0,0-6.53.1C560.53,164.06,560.29,164.62,560.48,164.89Z" style="fill: rgb(38, 50, 56); transform-origin: 564.499px 163.8px;" id="elcwe9jg2btib" class="animable"></path><path d="M608.31,183.82c.27-.11,10.74-3,10.23,7.64s-11.08,7.92-11.09,7.62S608.31,183.82,608.31,183.82Z" style="fill: rgb(255, 191, 157); transform-origin: 613.004px 191.495px;" id="elmsl7bifrwcc" class="animable"></path><path d="M610.9,195.21s.17.13.48.29a1.82,1.82,0,0,0,1.38.1c1.15-.36,2.18-2.1,2.32-4a6,6,0,0,0-.39-2.68,2.16,2.16,0,0,0-1.32-1.49,1,1,0,0,0-1.12.46c-.16.29-.1.5-.16.52s-.22-.19-.11-.62a1.16,1.16,0,0,1,.45-.65,1.39,1.39,0,0,1,1-.22,2.58,2.58,0,0,1,1.85,1.74,6.34,6.34,0,0,1,.5,3c-.17,2.14-1.36,4.1-2.92,4.47a2,2,0,0,1-1.68-.37C610.9,195.46,610.86,195.22,610.9,195.21Z" style="fill: rgb(255, 154, 108); transform-origin: 613.343px 191.542px;" id="elquna13mqhun" class="animable"></path><path d="M564.29,149.52c-1.67-1.05,3.81-6.33,8.15-8,6.55-2.54,16.4-3.76,22.2-1.76,7,2.42,12.66,6.28,15.86,12.94A41.82,41.82,0,0,1,614,174.3a12.68,12.68,0,0,1-1.87,6.41c-1.61,2.26-4.55,3.58-4.61,6.83a4.41,4.41,0,0,1-1.29,3.18c-2.06,2-4.32-.12-5.31-2.13-2.1-4.3-2.07-9.28-2-14.06,0-3.4.11-6.87,1.25-10.07.62-1.74,1.55-3.37,2.08-5.14a6.44,6.44,0,0,0-.45-5.35,7.27,7.27,0,0,0-.82-.92,11.09,11.09,0,0,0-10.87-2.72c-6.11,1.78-16.51,4.36-19.06,2.17-3.67-3.14-4.48-5.09-4.48-5.09Z" style="fill: rgb(38, 50, 56); transform-origin: 589.104px 165.143px;" id="ellrcd51wmev8" class="animable"></path></g><path d="M574.59,201.08c0,.19.53.43,1.45.4a6.31,6.31,0,0,0,5.48-4c.29-.87.22-1.46,0-1.5-.4-.1-1.15,1.78-3.06,3.15S574.61,200.67,574.59,201.08Z" style="fill: rgb(38, 50, 56); transform-origin: 578.151px 198.729px;" id="elhdvq55tsi3u" class="animable"></path></g><g id="elbdrowrrel1p" class="animable" style="transform-origin: 513.027px 290.175px;"><g id="el4fp29uso054" class="animable" style="transform-origin: 480.832px 259.933px;"><path d="M476.7,279.83c-2.18-3.58-4.76-7.48-4.76-7.48l-2.12-3.59a6.41,6.41,0,0,0-.48.68,3.11,3.11,0,0,1-1,1.2,2.5,2.5,0,0,1-2.74-.67,6.08,6.08,0,0,1-1.83-5.72,6,6,0,0,1,3.87-4.28,4.27,4.27,0,0,1,1.1-1.31c3-2.47,8.46-.79,8.46-.79l-.56-1.36s-3.24-3.2-10.39-.69a4.66,4.66,0,0,1-3.31,0,2.36,2.36,0,0,1-1.45-1.4c-.57-1.75.53-2.6,5-4.23s9.27-1.72,11.94,0a32,32,0,0,1,3.59,2.59s-4.37-12.55-4.61-13.36c-.71-2.33-.26-4.59,1.25-5.2,1-.4,2.48-.17,3.39,2.51.78,2.33,11.86,25.16,11.86,25.16l4.31,10.38,2.16,9.15-15.56,4.38-1.12-.38A13,13,0,0,1,476.7,279.83Z" style="fill: rgb(255, 191, 157); transform-origin: 480.866px 259.933px;" id="el68dwgvy2gbr" class="animable"></path><g id="elenbuomdw4kl" class="animable" style="transform-origin: 486.285px 265.991px;"><path d="M495.82,272.06c-1.2.8-2.88.28-4-.65s-1.87-2.21-2.91-3.22c-3.11-3-8.23-3.26-11.19-6.42-.41-.44-.78-1.11-.44-1.61s1-.4,1.55-.3l14.08,2.65" style="fill: rgb(255, 191, 157); transform-origin: 486.483px 266.116px;" id="eli507o5e6juj" class="animable"></path><path d="M492.92,262.51a6,6,0,0,0-1.49-.44c-1-.23-2.38-.54-4.13-.91l-6.15-1.24-1.78-.35a2.82,2.82,0,0,0-2.14.09,1.2,1.2,0,0,0-.44,1.27,2.64,2.64,0,0,0,.57,1,9.56,9.56,0,0,0,1.6,1.38c2.37,1.59,4.94,2.23,7,3.28a10.93,10.93,0,0,1,2.7,1.79c.73.69,1.32,1.48,1.93,2.15a5.11,5.11,0,0,0,3.75,2.05c1.08,0,1.51-.54,1.48-.55a4.14,4.14,0,0,1-1.47.23,5,5,0,0,1-3.33-2.1,27.59,27.59,0,0,0-1.89-2.26,11.27,11.27,0,0,0-2.83-2c-2.13-1.12-4.69-1.8-6.87-3.28a8.84,8.84,0,0,1-1.46-1.24c-.4-.44-.55-1-.27-1.12s.93-.09,1.53,0l1.79.33,6.18,1.07c1.76.29,3.18.51,4.17.65A5.33,5.33,0,0,0,492.92,262.51Z" style="fill: rgb(255, 154, 108); transform-origin: 486.285px 265.991px;" id="elx4rviiznuj" class="animable"></path></g><path d="M477.38,257.88a6,6,0,0,0-1.64-2.15,4.67,4.67,0,0,0-2.73-.86,11.59,11.59,0,0,0-3.57.63,18.56,18.56,0,0,1-3.66.86,6,6,0,0,1-3.1-.45,2.32,2.32,0,0,1-1.34-1.62,1.33,1.33,0,0,1,0-.77s0,.27.19.72a2.25,2.25,0,0,0,1.3,1.34,6,6,0,0,0,2.88.3,19.91,19.91,0,0,0,3.56-.89,11.7,11.7,0,0,1,3.74-.61,4.88,4.88,0,0,1,3,1.06,4.4,4.4,0,0,1,1.25,1.69C477.4,257.6,477.41,257.87,477.38,257.88Z" style="fill: rgb(255, 154, 108); transform-origin: 469.338px 255.7px;" id="el03un431c65ls" class="animable"></path><path d="M477.11,238.49A15.58,15.58,0,0,1,478,241l2,6.05c.77,2.25,1.48,4.3,2.07,6a15.2,15.2,0,0,1,.79,2.52,12.4,12.4,0,0,1-1.14-2.39c-.63-1.51-1.43-3.62-2.22-6s-1.43-4.53-1.84-6.11A11.25,11.25,0,0,1,477.11,238.49Z" style="fill: rgb(255, 154, 108); transform-origin: 479.985px 247.03px;" id="elpzt1rdzn5bf" class="animable"></path><path d="M475.5,261.65a3.27,3.27,0,0,1-.83,0,2.42,2.42,0,0,0-2,.55,1.28,1.28,0,0,0-.3,1.26,7.36,7.36,0,0,0,.67,1.59,3,3,0,0,1,.37,2.07,2.48,2.48,0,0,1-1.58,1.62,2.84,2.84,0,0,1-2.26-.2,3.61,3.61,0,0,1-1.53-1.44,11.94,11.94,0,0,1-1-3.24,6.88,6.88,0,0,1-.06-2.28c.1-.54.28-.8.3-.78s-.06.29-.1.81a8.43,8.43,0,0,0,.23,2.18,12.11,12.11,0,0,0,1.1,3.08,2.86,2.86,0,0,0,3.18,1.38,2,2,0,0,0,1.26-1.27,2.55,2.55,0,0,0-.31-1.73,6.87,6.87,0,0,1-.66-1.71,1.69,1.69,0,0,1,.47-1.61,2.58,2.58,0,0,1,2.25-.48A2.29,2.29,0,0,1,475.5,261.65Z" style="fill: rgb(255, 154, 108); transform-origin: 471.206px 264.843px;" id="elrh4zy5nk3g" class="animable"></path><path d="M469.68,268.05s.19.23.18.74a2.3,2.3,0,0,1-1,1.77,3.09,3.09,0,0,1-3.05.06,5.08,5.08,0,0,1-2.35-2.91,6,6,0,0,1-.06-3.71,5.61,5.61,0,0,1,1.64-2.54,5.3,5.3,0,0,1,1.73-1.07,1.58,1.58,0,0,1,.72-.16,9.72,9.72,0,0,0-2.2,1.49,5.6,5.6,0,0,0-1.33,5.83,4.68,4.68,0,0,0,2.08,2.64,2.71,2.71,0,0,0,2.62.05,2.15,2.15,0,0,0,1-1.48C469.72,268.32,469.64,268.06,469.68,268.05Z" style="fill: rgb(255, 154, 108); transform-origin: 466.498px 265.611px;" id="el9tj20gdj1t5" class="animable"></path><path d="M481.21,273.6a2.22,2.22,0,0,1,1.21-.38,5.07,5.07,0,0,1,3.16.72l-.38.27a13.35,13.35,0,0,1-.29-1.77,11.31,11.31,0,0,1,.81-6.11,28.6,28.6,0,0,0-.29,6.06,16.63,16.63,0,0,0,.26,1.71l.12.59-.5-.32a5.19,5.19,0,0,0-2.87-.83A11.88,11.88,0,0,1,481.21,273.6Z" style="fill: rgb(255, 154, 108); transform-origin: 483.51px 270.51px;" id="el0tx219bl94x8" class="animable"></path><path d="M473.71,252.26c.14,0,0,1.08-1,1.92s-2,.91-2,.77.86-.42,1.67-1.16S473.57,252.21,473.71,252.26Z" style="fill: rgb(255, 154, 108); transform-origin: 472.233px 253.632px;" id="elqlpy4igoxxt" class="animable"></path></g><path d="M564.77,233.35s-7.92,1-8.78,1c-6.68.41-17.57,4.35-22.69,13.91-3.74,7-10.85,35.36-12.75,43l-2.76,9-16.68-26.47L477.4,287.39S502,347,518,347s23.34-15.92,23.34-15.92l-.24-35.85Z" style="fill: rgb(224, 224, 224); transform-origin: 521.085px 290.175px;" id="el8kibgjewh9v" class="animable"></path><path d="M534.85,258.26a3.43,3.43,0,0,0-.06.81c0,.61,0,1.37,0,2.3,0,2,0,4.89.06,8.47.13,7.15.57,17,1.18,27.9s1.13,20.75,1.4,27.89c.12,3.48.23,6.34.3,8.45,0,.93.08,1.69.1,2.3a2.79,2.79,0,0,0,.09.8,2.92,2.92,0,0,0,.07-.8c0-.61,0-1.38,0-2.3,0-2,0-4.9-.06-8.47-.13-7.15-.56-17-1.17-27.91s-1.13-20.74-1.4-27.88c-.13-3.49-.23-6.35-.31-8.46l-.1-2.3A2.87,2.87,0,0,0,534.85,258.26Z" style="fill: rgb(38, 50, 56); transform-origin: 536.39px 297.72px;" id="el7jxvn7uzhi3" class="animable"></path></g><g id="el49oaukld9u2" class="animable" style="transform-origin: 600.832px 306.325px;"><path d="M658.38,262.78c-4-18.11-24.08-23.14-24.08-23.14L627.5,305l4.22,10.61,35.82-7.74S663.45,285.5,658.38,262.78Z" style="fill: rgb(224, 224, 224); transform-origin: 647.52px 277.625px;" id="el7ojfuknjsfe" class="animable"></path><path d="M625.46,299.7l13.39,12.9-4.32-24.68,27.17-8.59s7.22,33.86,8.47,41.87c2.25,14.38-.51,34.81-13.91,36.24-14.49,1.56-25.43-12.73-32.39-22.11-5.35-7.21-14-19.82-14-19.82l15.58-15.81" style="fill: rgb(224, 224, 224); transform-origin: 640.372px 318.444px;" id="elhvwt3bbma4w" class="animable"></path><path d="M638.86,343.4l-1.06-30.71,1.6-71.18-28.54-13-3.78-11.17-31.91,14.22-6.4-6.71-3.7,7.18-11.36,2.57-9.28,26.25-7.88,20.68s2.27,71.71,4.23,98c.26,3.45-4.23,4.95.75,8.8,0,0,7.47,4.38,23.66,4.81,46.08,1.2,74.38-6.16,75.89-6.83h0a9.49,9.49,0,0,0,2.8-7.94c-.13-1.09-.36-2.26-.57-3.74l-4.45-31.26" style="fill: rgb(224, 224, 224); transform-origin: 590.249px 305.306px;" id="elwo5py8ttkf9" class="animable"></path><path d="M563.65,395.31a2,2,0,0,1-.06-.39c0-.32-.05-.7-.08-1.16-.07-1.1-.15-2.59-.26-4.46-.17-4-.42-9.56-.72-16.43-.52-13.88-1.18-33.06-1-54.28.13-10.6.49-20.72,1.5-29.88s2.63-17.29,4-24.09,2.75-12.25,3.67-16l1.09-4.34c.12-.45.22-.82.31-1.12a1.25,1.25,0,0,1,.13-.38,1.48,1.48,0,0,1-.05.4c-.06.31-.13.69-.22,1.14l-.93,4.38c-.82,3.79-2,9.27-3.41,16.07s-2.84,14.94-3.85,24.05-1.3,19.21-1.43,29.8c-.21,21.18.35,40.36.71,54.24.19,6.88.34,12.47.45,16.44q.06,2.82.09,4.47v1.17Q563.68,395.31,563.65,395.31Z" style="fill: rgb(38, 50, 56); transform-origin: 566.865px 319.045px;" id="ellzn9s3zl6cr" class="animable"></path><path d="M584.65,276a15.07,15.07,0,0,1,1.9.06l5.51.33,20.1,1.37.38,0,0,.38c-.69,9.21-1.53,20.23-2.42,32.13l0,.22-.17.12c-.94.68-2,1.37-3,2.05a59.7,59.7,0,0,1-5.66,3.28,16.66,16.66,0,0,1-6.12,2,12.28,12.28,0,0,1-6.08-1.41,26.14,26.14,0,0,1-4.91-3.29q-1.11-.92-2.13-1.86a4.05,4.05,0,0,1-1-1.16,6,6,0,0,1-.54-1.35,20.74,20.74,0,0,1-.49-5.3,76.1,76.1,0,0,1,.85-9.38c.83-5.69,1.81-10.24,2.52-13.37.36-1.56.66-2.77.88-3.59a7,7,0,0,1,.38-1.23,7,7,0,0,1-.2,1.27c-.18.92-.41,2.13-.71,3.63-.59,3.15-1.48,7.7-2.22,13.38a78.58,78.58,0,0,0-.73,9.3,19.85,19.85,0,0,0,.51,5.07,3.89,3.89,0,0,0,1.27,2.11c.67.62,1.37,1.23,2.1,1.82a25.64,25.64,0,0,0,4.77,3.16,11.32,11.32,0,0,0,5.63,1.29,15.8,15.8,0,0,0,5.76-1.89,58,58,0,0,0,5.56-3.23c1-.67,2.05-1.35,3-2l-.19.34c1-11.9,1.85-22.91,2.59-32.12l.35.41-19.85-1.74-5.58-.53-1.48-.16A2.47,2.47,0,0,1,584.65,276Z" style="fill: rgb(38, 50, 56); transform-origin: 596.273px 296.969px;" id="eljc6h82eu81" class="animable"></path><path d="M611.92,286.45c0,.26-6.55,0-14.57-.67s-14.51-1.34-14.49-1.59,6.54,0,14.56.67S611.93,286.2,611.92,286.45Z" style="fill: rgb(38, 50, 56); transform-origin: 597.39px 285.322px;" id="el4adn9p3cap" class="animable"></path><g id="elkpwdpf2r3z"><g style="opacity: 0.3; transform-origin: 595.544px 316.231px;" class="animable"><path d="M581.46,310.12c1.57,2.58,3,6.13,5.18,8.27a12.66,12.66,0,0,0,7.94,3.95,13,13,0,0,0,7.53-2.24c3.65-2.28,5.89-5.87,7.51-9.85.23-.29-5.21,3.34-8.17,4.91a13.25,13.25,0,0,1-8.36,1.8c-4.38-.36-8.31-4-11.63-6.84" id="eloswbmec212q" class="animable" style="transform-origin: 595.544px 316.231px;"></path></g></g><g id="elb6206ig4os"><g style="opacity: 0.3; transform-origin: 592.175px 239.095px;" class="animable"><polygon points="575.71 233.64 576.88 248.6 608.64 229.59 578 245.75 575.71 233.64" id="el8b2pbigjdv3" class="animable" style="transform-origin: 592.175px 239.095px;"></polygon></g></g><path d="M569,251.66a511.75,511.75,0,0,0-11.63,75.9c-1.34,17.73-2.33,41.23-2.33,41.23l10.29,12.74,12.29-12.21s-2.5-51-2.44-68.1c0-13.76-.52-49.27-.52-49.27Z" style="fill: rgb(255, 193, 0); transform-origin: 566.33px 316.595px;" id="elt83qu4pdt3t" class="animable"></path><path d="M630.48,273.86a8,8,0,0,1,.32,1.42c.18,1,.42,2.32.71,3.9.58,3.39,1.36,7.9,2.21,12.89s1.63,9.61,2.12,12.92c.25,1.66.44,3,.56,3.93a9,9,0,0,1,.14,1.45,7.63,7.63,0,0,1-.33-1.42c-.18-1-.42-2.32-.71-3.91l-2.25-12.88c-.87-5-1.59-9.61-2.08-12.92-.22-1.59-.41-2.92-.55-3.93A9,9,0,0,1,630.48,273.86Z" style="fill: rgb(38, 50, 56); transform-origin: 633.51px 292.115px;" id="eledbrpfbn529" class="animable"></path><path d="M640.81,243.57c.06.06-.94.84-2.35,2.29a29.16,29.16,0,0,0-4.64,6.34,28.68,28.68,0,0,0-2.72,7.37c-.44,2-.53,3.23-.62,3.22a3.08,3.08,0,0,1,0-.89,18,18,0,0,1,.29-2.4,25.66,25.66,0,0,1,7.46-13.88,17.73,17.73,0,0,1,1.85-1.57C640.53,243.71,640.79,243.54,640.81,243.57Z" style="fill: rgb(38, 50, 56); transform-origin: 635.63px 253.178px;" id="el9jefxx5rlfl" class="animable"></path><polygon points="575.45 238.49 572.26 237.79 569.16 243.37 569.03 251.66 574.69 251.95 578.2 245.37 575.45 238.49" style="fill: rgb(255, 193, 0); transform-origin: 573.615px 244.87px;" id="el4gpa5coc7qx" class="animable"></polygon><path d="M572.77,253.36c-.07.11-.86-.26-1.76-.83s-1.58-1.12-1.51-1.23.86.26,1.76.82S572.84,253.25,572.77,253.36Z" style="fill: rgb(38, 50, 56); transform-origin: 571.135px 252.33px;" id="el9tkemzweyub" class="animable"></path><path d="M573.51,250.84a22.49,22.49,0,0,1-2.11-4.2,23.61,23.61,0,0,1-1.67-4.39,23.23,23.23,0,0,1,2.11,4.2A23.61,23.61,0,0,1,573.51,250.84Z" style="fill: rgb(38, 50, 56); transform-origin: 571.62px 246.545px;" id="elezaqjnd80l" class="animable"></path><g id="eletbrmtcjtv"><g style="opacity: 0.3; transform-origin: 625.36px 340.965px;" class="animable"><path d="M612.84,325.54s7.81,7.39,11.09,13.12c2.32,4,8.87,9.44,16.27,14.16l1.15,8.1c-4.1-.82-11.29-6.14-14.07-9.27a59.85,59.85,0,0,1-7.73-10c-3.74-6.68-8.87-13.1-10.18-20.64Z" id="el4warq6m6cmi" class="animable" style="transform-origin: 625.36px 340.965px;"></path></g></g><path d="M639.16,352a4.42,4.42,0,0,0-.69-.52c-.45-.34-1.17-.77-2-1.43a77.06,77.06,0,0,1-7-6.08,206.22,206.22,0,0,1-20.4-24.05l0,.37,4.53-11,5.43-13.21-.58.14c17.8,15.06,29.3,24.79,31.95,27a3.47,3.47,0,0,0-.53-.61c-.38-.38-.95-.92-1.7-1.61-1.51-1.38-3.73-3.35-6.53-5.81-5.6-4.9-13.53-11.73-22.71-19.56l-.39-.34-.2.48L612.92,309c-1.56,3.77-3.07,7.45-4.52,11l-.08.2.13.17a190.25,190.25,0,0,0,20.67,23.95,66.92,66.92,0,0,0,7.16,5.94c.89.63,1.64,1,2.12,1.33A4.19,4.19,0,0,0,639.16,352Z" style="fill: rgb(38, 50, 56); transform-origin: 629.36px 323.645px;" id="elvtd0xuw1jaj" class="animable"></path><g id="elqvea65yhong" class="animable" style="transform-origin: 570.526px 292.866px;"><path d="M530.94,272.75,542.11,315a5.24,5.24,0,0,0,5.18,3.9l57.86-1.13a5.26,5.26,0,0,0,5-6.33L601.67,271a5.26,5.26,0,0,0-5.14-4.17h-61A4.74,4.74,0,0,0,530.94,272.75Z" style="fill: rgb(38, 50, 56); transform-origin: 570.526px 292.866px;" id="elbt2r5osptr" class="animable"></path><path d="M607.1,315.12a.91.91,0,0,1-.08-.27c-.06-.22-.12-.48-.2-.82-.18-.76-.42-1.81-.73-3.15-.61-2.78-1.49-6.73-2.56-11.6s-2.33-10.74-3.74-17.22c-.7-3.24-1.43-6.64-2.19-10.17a2.33,2.33,0,0,0-1.49-1.82,3.07,3.07,0,0,0-1.27-.15h-7.06l-39.2-.07-11.88-.09-3.23-.05-.84,0-.29,0a1.11,1.11,0,0,1,.29,0l.84,0,3.23-.05,11.88-.08,39.2-.08h7.06a3.69,3.69,0,0,1,1.45.18,2.88,2.88,0,0,1,1.81,2.21c.75,3.52,1.47,6.93,2.16,10.17,1.36,6.48,2.59,12.33,3.63,17.25s1.83,8.84,2.4,11.63l.63,3.17.15.83A1,1,0,0,1,607.1,315.12Z" style="fill: rgb(69, 90, 100); transform-origin: 569.72px 292.305px;" id="eljjlljv5kror" class="animable"></path></g><path d="M570.47,281.13a3,3,0,1,1-3.93-2A3.13,3.13,0,0,1,570.47,281.13Z" style="fill: rgb(224, 224, 224); transform-origin: 567.582px 281.962px;" id="elrtv3vj17bbd" class="animable"></path><g id="el00yj2ascwrrm" class="animable" style="transform-origin: 606.655px 298.155px;"><g id="elqal6cr47ur" class="animable" style="transform-origin: 606.655px 298.155px;"><path d="M620.67,299.1l-2.75-2.57s-1.82-6.06-3-7.21-4.23-2-4.23-2L603.81,281l1.26,5.66-10-.08a2.85,2.85,0,0,0-2.73,1.75,1.13,1.13,0,0,0-.09.55,3.69,3.69,0,0,0,2,2.63l1.44.68a3.4,3.4,0,0,0-2.36,2.46A3.13,3.13,0,0,0,595.4,298s-2.46,1.1-1,4.05c0,0-2.29,2.72-1,4.56s8.93,4.92,8.93,4.92l4.21,1.92a7.34,7.34,0,0,0,3.16.18l1.65.23,1.76,1.45S623.15,309.83,620.67,299.1Z" style="fill: rgb(255, 191, 157); transform-origin: 606.655px 298.155px;" id="el9vxnh6iyi3s" class="animable"></path><path d="M609.87,294.75a7.55,7.55,0,0,1-2.28,0,41,41,0,0,1-5.44-.73,42.65,42.65,0,0,1-5.29-1.43,7.77,7.77,0,0,1-2.1-.91c.06-.17,3.35.91,7.51,1.75S609.88,294.57,609.87,294.75Z" style="fill: rgb(255, 154, 108); transform-origin: 602.315px 293.249px;" id="el17ynnhabb4z" class="animable"></path><path d="M612.62,302.66c0,.16-3.93-.75-8.69-2A66.67,66.67,0,0,1,595.4,298c.05-.16,3.94.75,8.69,2S612.67,302.5,612.62,302.66Z" style="fill: rgb(255, 154, 108); transform-origin: 604.01px 300.33px;" id="el5db1ue2305v" class="animable"></path><path d="M611.81,308.56a10.29,10.29,0,0,1-2.77-.36,44,44,0,0,1-6.5-1.86,43.56,43.56,0,0,1-6.14-2.83,11.64,11.64,0,0,1-2.35-1.53,15.16,15.16,0,0,1,2.54,1.16c1.55.74,3.71,1.72,6.16,2.63s4.72,1.58,6.38,2A16.05,16.05,0,0,1,611.81,308.56Z" style="fill: rgb(255, 154, 108); transform-origin: 602.93px 305.27px;" id="ell498msehdtl" class="animable"></path><path d="M613.69,300.92c-.17-.06.16-1.18-.08-2.53s-.89-2.32-.75-2.43,1.09.78,1.34,2.33A3,3,0,0,1,613.69,300.92Z" style="fill: rgb(255, 154, 108); transform-origin: 613.575px 298.435px;" id="elx66gfr6qodl" class="animable"></path><path d="M613.79,293.65c-.11-.13.41-.75.49-1.68s-.27-1.64-.13-1.74.26.08.45.4a2.34,2.34,0,0,1,.28,1.4,2.38,2.38,0,0,1-.56,1.32C614.07,293.62,613.84,293.71,613.79,293.65Z" style="fill: rgb(255, 154, 108); transform-origin: 614.335px 291.935px;" id="elu6iyjgqv4t" class="animable"></path><path d="M613.12,308.21c-.13-.12.27-.74.5-1.57s.26-1.57.43-1.6.44.78.15,1.77S613.23,308.33,613.12,308.21Z" style="fill: rgb(255, 154, 108); transform-origin: 613.711px 306.633px;" id="elm2onqmryg5" class="animable"></path></g><path d="M597.63,286.62c0,.22,2.64.25,5.86.48s5.84.56,5.88.34-2.54-.89-5.82-1.11S597.62,286.41,597.63,286.62Z" style="fill: rgb(255, 154, 108); transform-origin: 603.5px 286.883px;" id="el2f08ng9uct8" class="animable"></path></g><path d="M565.65,233.43a3.21,3.21,0,0,1,.29.7l.72,2c.62,1.83,1.49,4.38,2.55,7.52l-.34,0c1.68-3.15,3.71-7,6-11.23l.31-.58.14.65c.87,3.83,1.83,8,2.82,12.42,0,.24.11.47.15.68l-.37-.17,22.34-11.7,6.77-3.48,1.85-.92a3.15,3.15,0,0,1,.66-.29,4.82,4.82,0,0,1-.61.38l-1.81,1L600.39,234l-22.27,11.84-.3.16-.07-.33-.16-.68-2.78-12.44.45.06-6.06,11.18-.21.38-.13-.41c-1-3.17-1.81-5.74-2.4-7.58-.26-.86-.47-1.54-.62-2.06A5.39,5.39,0,0,1,565.65,233.43Z" style="fill: rgb(38, 50, 56); transform-origin: 587.595px 237.515px;" id="elh3dswwydqga" class="animable"></path></g></g></g><defs>     <filter id="active" height="200%">         <feMorphology in="SourceAlpha" result="DILATED" operator="dilate" radius="2"></feMorphology>                <feFlood flood-color="#32DFEC" flood-opacity="1" result="PINK"></feFlood>        <feComposite in="PINK" in2="DILATED" operator="in" result="OUTLINE"></feComposite>        <feMerge>            <feMergeNode in="OUTLINE"></feMergeNode>            <feMergeNode in="SourceGraphic"></feMergeNode>        </feMerge>    </filter>    <filter id="hover" height="200%">        <feMorphology in="SourceAlpha" result="DILATED" operator="dilate" radius="2"></feMorphology>                <feFlood flood-color="#ff0000" flood-opacity="0.5" result="PINK"></feFlood>        <feComposite in="PINK" in2="DILATED" operator="in" result="OUTLINE"></feComposite>        <feMerge>            <feMergeNode in="OUTLINE"></feMergeNode>            <feMergeNode in="SourceGraphic"></feMergeNode>        </feMerge>            <feColorMatrix type="matrix" values="0   0   0   0   0                0   1   0   0   0                0   0   0   0   0                0   0   0   1   0 "></feColorMatrix>    </filter></defs></svg>