<svg class="animated" id="freepik_stories-social-media" xmlns="http://www.w3.org/2000/svg" viewBox="0 0 500 500" version="1.1" xmlns:xlink="http://www.w3.org/1999/xlink" xmlns:svgjs="http://svgjs.com/svgjs"><style>svg#freepik_stories-social-media:not(.animated) .animable {opacity: 0;}svg#freepik_stories-social-media.animated #freepik--background-complete--inject-47 {animation: 1s 1 forwards cubic-bezier(.36,-0.01,.5,1.38) fadeIn,1.5s Infinite  linear shake;animation-delay: 0s,1s;}svg#freepik_stories-social-media.animated #freepik--Hashtag--inject-47 {animation: 1.5s Infinite  linear floating;animation-delay: 0s;}svg#freepik_stories-social-media.animated #freepik--Character--inject-47 {animation: 1.5s Infinite  linear wind;animation-delay: 0s;}svg#freepik_stories-social-media.animated #freepik--speech-bubbles--inject-47 {animation: 1.5s Infinite  linear heartbeat;animation-delay: 0s;}            @keyframes fadeIn {                0% {                    opacity: 0;                }                100% {                    opacity: 1;                }            }                    @keyframes shake {                10%, 90% {                    transform: translate3d(-1px, 0, 0);                  }                  20%, 80% {                    transform: translate3d(2px, 0, 0);                  }                  30%, 50%, 70% {                    transform: translate3d(-4px, 0, 0);                  }                  40%, 60% {                    transform: translate3d(4px, 0, 0);                  }            }                    @keyframes floating {                0% {                    opacity: 1;                    transform: translateY(0px);                }                50% {                    transform: translateY(-10px);                }                100% {                    opacity: 1;                    transform: translateY(0px);                }            }                    @keyframes wind {                0% {                    transform: rotate( 0deg );                }                25% {                    transform: rotate( 1deg );                }                75% {                    transform: rotate( -1deg );                }            }                    @keyframes heartbeat {                0% {                    transform: scale(1);                }                10% {                    transform: scale(1.1);                }                30% {                    transform: scale(1);                }                40% {                    transform: scale(1);                }                50% {                    transform: scale(1.1);                }                60% {                    transform: scale(1);                }                100% {                    transform: scale(1);                }            }        </style><g id="freepik--background-complete--inject-47" class="animable animator-active" style="transform-origin: 250px 224.18px;"><rect y="382.4" width="500" height="0.25" style="fill: rgb(224, 224, 224); transform-origin: 250px 382.525px;" id="eljxa4k4uqr4j" class="animable"></rect><rect x="101.17" y="392.99" width="34.4" height="0.25" style="fill: rgb(224, 224, 224); transform-origin: 118.37px 393.115px;" id="ele045sejnsps" class="animable"></rect><rect x="74.48" y="393.11" width="19.36" height="0.25" style="fill: rgb(224, 224, 224); transform-origin: 84.16px 393.235px;" id="el9s3dsspa6w7" class="animable"></rect><rect x="175" y="392.53" width="39.24" height="0.25" style="fill: rgb(224, 224, 224); transform-origin: 194.62px 392.655px;" id="elmi38u463xi" class="animable"></rect><rect x="198.78" y="388.97" width="115.78" height="0.25" style="fill: rgb(224, 224, 224); transform-origin: 256.67px 389.095px;" id="elcnzrvzqs888" class="animable"></rect><rect x="360.68" y="389.1" width="52.99" height="0.25" style="fill: rgb(224, 224, 224); transform-origin: 387.175px 389.225px;" id="el0cr81g8h9aa7" class="animable"></rect><path d="M237,337.8H43.91a5.71,5.71,0,0,1-5.7-5.71V60.66A5.71,5.71,0,0,1,43.91,55H237a5.71,5.71,0,0,1,5.71,5.71V332.09A5.71,5.71,0,0,1,237,337.8ZM43.91,55.2a5.46,5.46,0,0,0-5.45,5.46V332.09a5.46,5.46,0,0,0,5.45,5.46H237a5.47,5.47,0,0,0,5.46-5.46V60.66A5.47,5.47,0,0,0,237,55.2Z" style="fill: rgb(224, 224, 224); transform-origin: 140.46px 196.4px;" id="elvm8b4m7geog" class="animable"></path><path d="M453.31,337.8H260.21a5.72,5.72,0,0,1-5.71-5.71V60.66A5.72,5.72,0,0,1,260.21,55h193.1A5.71,5.71,0,0,1,459,60.66V332.09A5.71,5.71,0,0,1,453.31,337.8ZM260.21,55.2a5.47,5.47,0,0,0-5.46,5.46V332.09a5.47,5.47,0,0,0,5.46,5.46h193.1a5.47,5.47,0,0,0,5.46-5.46V60.66a5.47,5.47,0,0,0-5.46-5.46Z" style="fill: rgb(224, 224, 224); transform-origin: 356.75px 196.4px;" id="elkmpiiyjmbyo" class="animable"></path><path d="M213.74,284.61h0c-.55,0-1.1,0-1.66.05a23.68,23.68,0,0,0-21.2,29.77,118.6,118.6,0,0,1,3.71,30.84v30.28a4,4,0,0,0,4,4h96.12V284.61Z" style="fill: rgb(230, 230, 230); transform-origin: 242.389px 332.08px;" id="elfmempi501xo" class="animable"></path><path d="M318.35,308.28a23.68,23.68,0,0,0-47.3-1.54,23.92,23.92,0,0,0,.76,7.7,118.18,118.18,0,0,1,3.72,30.84v30.28a4,4,0,0,0,4,4h30.35a4,4,0,0,0,4-4V343.5a108.19,108.19,0,0,1,3.66-28.89A23.65,23.65,0,0,0,318.35,308.28Z" style="fill: rgb(240, 240, 240); transform-origin: 294.676px 332.149px;" id="el9chcsmppacu" class="animable"></path><rect x="175.79" y="321.9" width="86.27" height="57.63" style="fill: rgb(230, 230, 230); transform-origin: 218.925px 350.715px;" id="elko0wifwrmg" class="animable"></rect><path d="M122.4,228.61H202A17.92,17.92,0,0,1,220,246.53v88.4a0,0,0,0,1,0,0H104.49a0,0,0,0,1,0,0v-88.4A17.92,17.92,0,0,1,122.4,228.61Z" style="fill: rgb(224, 224, 224); transform-origin: 162.245px 281.77px;" id="el05fppkpg0wj" class="animable"></path><path d="M144.1,228.61h81.36a17.05,17.05,0,0,1,17.05,17.05v89.26a0,0,0,0,1,0,0H127a0,0,0,0,1,0,0V245.67A17.05,17.05,0,0,1,144.1,228.61Z" style="fill: rgb(240, 240, 240); transform-origin: 184.755px 281.765px;" id="elxmb08hpx3xm" class="animable"></path><path d="M181.43,316.64h79.52a5.2,5.2,0,0,1,5.2,5.2v13.07a5.2,5.2,0,0,1-5.2,5.2H181.43a1.55,1.55,0,0,1-1.55-1.55V318.19A1.55,1.55,0,0,1,181.43,316.64Z" style="fill: rgb(224, 224, 224); transform-origin: 223.015px 328.375px;" id="el3hgr6t6073k" class="animable"></path><path d="M96,284.61h0c-.55,0-1.1,0-1.66.05a23.68,23.68,0,0,0-21.2,29.77,118.6,118.6,0,0,1,3.71,30.84v30.28a4,4,0,0,0,4,4h96.11V284.61Z" style="fill: rgb(230, 230, 230); transform-origin: 124.644px 332.08px;" id="el2xzupqbnuji" class="animable"></path><path d="M200.59,308.28a23.68,23.68,0,0,0-47.3-1.54,23.92,23.92,0,0,0,.76,7.7,118.18,118.18,0,0,1,3.72,30.84v30.28a4,4,0,0,0,4,4h30.35a4,4,0,0,0,4-4V343.5a108.19,108.19,0,0,1,3.66-28.89A23.65,23.65,0,0,0,200.59,308.28Z" style="fill: rgb(240, 240, 240); transform-origin: 176.916px 332.149px;" id="el8f4a4cyjcn" class="animable"></path><path d="M293,382.41H97.67a2.88,2.88,0,0,1-2.88-2.88H295.87A2.88,2.88,0,0,1,293,382.41Z" style="fill: rgb(224, 224, 224); transform-origin: 195.33px 380.97px;" id="elxr7nvvh77b" class="animable"></path><rect x="85.87" y="101.46" width="57.47" height="59.56" style="fill: rgb(224, 224, 224); transform-origin: 114.605px 131.24px;" id="el08gi4e0z5qj9" class="animable"></rect><rect x="90.59" y="101.46" width="56.03" height="59.56" style="fill: rgb(240, 240, 240); transform-origin: 118.605px 131.24px;" id="elbe0tgugcyp" class="animable"></rect><g id="eljymllzvq2d"><rect x="93.52" y="107.92" width="50.17" height="46.64" style="fill: rgb(250, 250, 250); transform-origin: 118.605px 131.24px; transform: rotate(90deg);" class="animable"></rect></g><polygon points="118.6 118.56 105.85 140.65 131.36 140.65 118.6 118.56" style="fill: rgb(240, 240, 240); transform-origin: 118.605px 129.605px;" id="elrahtrjzi84n" class="animable"></polygon><rect x="162.48" y="126.54" width="57.47" height="59.56" style="fill: rgb(224, 224, 224); transform-origin: 191.215px 156.32px;" id="elubjyvisiv5l" class="animable"></rect><rect x="167.19" y="126.54" width="56.03" height="59.56" style="fill: rgb(240, 240, 240); transform-origin: 195.205px 156.32px;" id="elwd053y2uu9f" class="animable"></rect><g id="elmwl3u3wnkqi"><rect x="170.12" y="133.01" width="50.17" height="46.64" style="fill: rgb(250, 250, 250); transform-origin: 195.205px 156.33px; transform: rotate(90deg);" class="animable"></rect></g><path d="M200.92,165.27l5.53-9.58a6.6,6.6,0,0,0-5.71-9.89H189.67a6.59,6.59,0,0,0-5.7,9.89l5.53,9.58A6.59,6.59,0,0,0,200.92,165.27Z" style="fill: rgb(240, 240, 240); transform-origin: 195.206px 157.185px;" id="elue4nn4oul1m" class="animable"></path><rect x="337.36" y="240.45" width="15.71" height="137.21" style="fill: rgb(230, 230, 230); transform-origin: 345.215px 309.055px;" id="elgndmjdspo8b" class="animable"></rect><rect x="341.5" y="377.66" width="87.01" height="4.73" style="fill: rgb(230, 230, 230); transform-origin: 385.005px 380.025px;" id="elvf919pxaoa" class="animable"></rect><g id="el2njrtamqln4"><rect x="353.07" y="240.45" width="79.59" height="137.21" style="fill: rgb(240, 240, 240); transform-origin: 392.865px 309.055px; transform: rotate(180deg);" class="animable"></rect></g><g id="elin6ucrv8lsi"><rect x="361.55" y="311.9" width="62.62" height="24.5" style="fill: rgb(230, 230, 230); transform-origin: 392.86px 324.15px; transform: rotate(180deg);" class="animable"></rect></g><g id="elfsf2nixrnfk"><rect x="361.55" y="343.97" width="62.62" height="24.5" style="fill: rgb(230, 230, 230); transform-origin: 392.86px 356.22px; transform: rotate(180deg);" class="animable"></rect></g><rect x="382.2" y="322.47" width="21.31" height="3.36" rx="1.59" style="fill: rgb(240, 240, 240); transform-origin: 392.855px 324.15px;" id="elpxs16v5a8" class="animable"></rect><rect x="382.2" y="354.54" width="21.31" height="3.36" rx="1.59" style="fill: rgb(240, 240, 240); transform-origin: 392.855px 356.22px;" id="elpws1r9uncbp" class="animable"></rect><g id="el4cksp4uirxo"><rect x="361.55" y="248.02" width="62.62" height="24.5" style="fill: rgb(230, 230, 230); transform-origin: 392.86px 260.27px; transform: rotate(180deg);" class="animable"></rect></g><g id="elye97ghcx4s"><rect x="361.55" y="279.83" width="62.62" height="24.5" style="fill: rgb(230, 230, 230); transform-origin: 392.86px 292.08px; transform: rotate(180deg);" class="animable"></rect></g><rect x="382.2" y="258.59" width="21.31" height="3.36" rx="1.59" style="fill: rgb(240, 240, 240); transform-origin: 392.855px 260.27px;" id="elcijqx34dxb8" class="animable"></rect><rect x="382.2" y="290.4" width="21.31" height="3.36" rx="1.59" style="fill: rgb(240, 240, 240); transform-origin: 392.855px 292.08px;" id="elemc34a6ymzr" class="animable"></rect><path d="M412.17,200.81H397.42s2.56,8.84,2.56,14-11.22,25.6,4.82,25.6,4.81-20.39,4.81-25.6S412.17,200.81,412.17,200.81Z" style="fill: rgb(240, 240, 240); transform-origin: 404.798px 220.61px;" id="el4vwj59zkre3" class="animable"></path><path d="M373.78,212.69a7,7,0,1,1-7-7.05A7.05,7.05,0,0,1,373.78,212.69Z" style="fill: rgb(240, 240, 240); transform-origin: 366.78px 212.64px;" id="el077v7dd7caq2" class="animable"></path><path d="M385.85,216.05A7.05,7.05,0,1,1,378.8,209,7.05,7.05,0,0,1,385.85,216.05Z" style="fill: rgb(240, 240, 240); transform-origin: 378.8px 216.05px;" id="els33gxd2yn9" class="animable"></path><path d="M396.16,213.33a7.05,7.05,0,1,1-7.05-7.05A7.05,7.05,0,0,1,396.16,213.33Z" style="fill: rgb(240, 240, 240); transform-origin: 389.11px 213.33px;" id="elcjqrrijpxs" class="animable"></path><path d="M354.11,216.18v8c0,8.92,8.63,16.22,19.17,16.22h9.52c10.55,0,19.18-7.3,19.18-16.22v-8Z" style="fill: rgb(230, 230, 230); transform-origin: 378.045px 228.29px;" id="elcrhgfhim7at" class="animable"></path><path d="M323.36,175a20,20,0,0,1,0-40.06h2.46V175Z" style="fill: rgb(224, 224, 224); transform-origin: 314.575px 154.97px;" id="el4bjldwpbcro" class="animable"></path><g id="elb4imuuk47q"><circle cx="325.82" cy="154.98" r="20.03" style="fill: rgb(240, 240, 240); transform-origin: 325.82px 154.98px; transform: rotate(-76.83deg);" class="animable"></circle></g><path d="M326.72,157.48a2.5,2.5,0,0,1,0-5,21.65,21.65,0,0,0,21.63-21.62V97.61a2.5,2.5,0,0,1,5,0v33.25A26.66,26.66,0,0,1,326.72,157.48Z" style="fill: rgb(224, 224, 224); transform-origin: 338.785px 126.295px;" id="el635k1g2o3n" class="animable"></path><polygon points="374.49 130.79 327.21 130.79 332.49 87.47 369.21 87.47 374.49 130.79" style="fill: rgb(240, 240, 240); transform-origin: 350.85px 109.13px;" id="elfxsor22h35o" class="animable"></polygon></g><g id="freepik--Shadow--inject-47" class="animable" style="transform-origin: 250px 416.24px;"><ellipse cx="250" cy="416.24" rx="193.89" ry="11.32" style="fill: rgb(245, 245, 245); transform-origin: 250px 416.24px;" id="el68hvn8l3yvg" class="animable"></ellipse></g><g id="freepik--Hashtag--inject-47" class="animable" style="transform-origin: 250.028px 262.4px;"><path d="M401.29,326.69l-1.71-13.29a8.22,8.22,0,0,0-8.14-7.16h-44.3a8.2,8.2,0,0,1-8.14-7.15l-9.19-71.28a8.19,8.19,0,0,1,8.13-9.25H378a8.2,8.2,0,0,0,8.13-9.26L384.43,196a8.2,8.2,0,0,0-8.14-7.15H332a8.2,8.2,0,0,1-8.13-7.16l-8.52-66a8.21,8.21,0,0,0-8.14-7.16H294.05a8.21,8.21,0,0,0-8.14,9.26l8,61.78a8.21,8.21,0,0,1-8.14,9.26H178.5a8.2,8.2,0,0,1-8.13-7.16l-8.52-66a8.2,8.2,0,0,0-8.13-7.16H140.56a8.21,8.21,0,0,0-8.14,9.26l8,61.78a8.21,8.21,0,0,1-8.14,9.26H92.19a8.2,8.2,0,0,0-8.14,9.25l1.72,13.29a8.2,8.2,0,0,0,8.14,7.16H138.2a8.2,8.2,0,0,1,8.14,7.15l9.2,71.28a8.2,8.2,0,0,1-8.14,9.25H107.34a8.21,8.21,0,0,0-8.14,9.26l1.72,13.29a8.2,8.2,0,0,0,8.13,7.16h44.3a8.2,8.2,0,0,1,8.14,7.15l8.51,66a8.21,8.21,0,0,0,8.14,7.16H191.3a8.21,8.21,0,0,0,8.14-9.26l-8-61.78A8.2,8.2,0,0,1,199.6,336H306.84A8.2,8.2,0,0,1,315,343.1l8.51,66a8.21,8.21,0,0,0,8.14,7.16h13.16a8.2,8.2,0,0,0,8.13-9.26l-8-61.78a8.2,8.2,0,0,1,8.14-9.25h40.06A8.21,8.21,0,0,0,401.29,326.69Zm-215.78-27.6-9.19-71.28a8.2,8.2,0,0,1,8.13-9.25H291.69a8.2,8.2,0,0,1,8.14,7.15L309,297a8.2,8.2,0,0,1-8.14,9.25H193.65A8.21,8.21,0,0,1,185.51,299.09Z" style="fill: rgb(255, 193, 0); transform-origin: 242.671px 262.385px;" id="elzljssww50bg" class="animable"></path><g id="el9k1571dvp2o"><path d="M401.29,326.69l-1.71-13.29a8.22,8.22,0,0,0-8.14-7.16h-44.3a8.2,8.2,0,0,1-8.14-7.15l-9.19-71.28a8.19,8.19,0,0,1,8.13-9.25H378a8.2,8.2,0,0,0,8.13-9.26L384.43,196a8.2,8.2,0,0,0-8.14-7.15H332a8.2,8.2,0,0,1-8.13-7.16l-8.52-66a8.21,8.21,0,0,0-8.14-7.16H294.05a8.21,8.21,0,0,0-8.14,9.26l8,61.78a8.21,8.21,0,0,1-8.14,9.26H178.5a8.2,8.2,0,0,1-8.13-7.16l-8.52-66a8.2,8.2,0,0,0-8.13-7.16H140.56a8.21,8.21,0,0,0-8.14,9.26l8,61.78a8.21,8.21,0,0,1-8.14,9.26H92.19a8.2,8.2,0,0,0-8.14,9.25l1.72,13.29a8.2,8.2,0,0,0,8.14,7.16H138.2a8.2,8.2,0,0,1,8.14,7.15l9.2,71.28a8.2,8.2,0,0,1-8.14,9.25H107.34a8.21,8.21,0,0,0-8.14,9.26l1.72,13.29a8.2,8.2,0,0,0,8.13,7.16h44.3a8.2,8.2,0,0,1,8.14,7.15l8.51,66a8.21,8.21,0,0,0,8.14,7.16H191.3a8.21,8.21,0,0,0,8.14-9.26l-8-61.78A8.2,8.2,0,0,1,199.6,336H306.84A8.2,8.2,0,0,1,315,343.1l8.51,66a8.21,8.21,0,0,0,8.14,7.16h13.16a8.2,8.2,0,0,0,8.13-9.26l-8-61.78a8.2,8.2,0,0,1,8.14-9.25h40.06A8.21,8.21,0,0,0,401.29,326.69Zm-215.78-27.6-9.19-71.28a8.2,8.2,0,0,1,8.13-9.25H291.69a8.2,8.2,0,0,1,8.14,7.15L309,297a8.2,8.2,0,0,1-8.14,9.25H193.65A8.21,8.21,0,0,1,185.51,299.09Z" style="opacity: 0.4; transform-origin: 242.671px 262.385px;" class="animable"></path></g><path d="M212.45,374.71l-1-7.6,1-.13,1,7.6Zm140.3-102.2-3.52-27.25,1-.12,3.51,27.24ZM186.43,173.07,185,162.13l1-.13L187.42,173Zm-2.28-17.67-2.4-18.57,1-.13,2.39,18.57Z" style="fill: rgb(255, 193, 0); transform-origin: 267.745px 255.705px;" id="elez1j3lgy6fc" class="animable"></path><g id="elkpu2r6aly"><path d="M212.45,374.71l-1-7.6,1-.13,1,7.6Zm140.3-102.2-3.52-27.25,1-.12,3.51,27.24ZM186.43,173.07,185,162.13l1-.13L187.42,173Zm-2.28-17.67-2.4-18.57,1-.13,2.39,18.57Z" style="opacity: 0.3; transform-origin: 267.745px 255.705px;" class="animable"></path></g><path d="M416,326.69l-1.72-13.29a8.21,8.21,0,0,0-8.14-7.16h-44.3a8.2,8.2,0,0,1-8.13-7.15l-9.2-71.28a8.21,8.21,0,0,1,8.14-9.25h40.06a8.21,8.21,0,0,0,8.14-9.26L399.08,196a8.19,8.19,0,0,0-8.13-7.15h-44.3a8.21,8.21,0,0,1-8.14-7.16l-8.51-66a8.21,8.21,0,0,0-8.14-7.16H308.7a8.21,8.21,0,0,0-8.14,9.26l8,61.78a8.21,8.21,0,0,1-8.14,9.26H193.16A8.21,8.21,0,0,1,185,181.7l-8.51-66a8.21,8.21,0,0,0-8.14-7.16H155.21a8.2,8.2,0,0,0-8.13,9.26l8,61.78a8.21,8.21,0,0,1-8.14,9.26H106.85a8.2,8.2,0,0,0-8.14,9.25l1.71,13.29a8.21,8.21,0,0,0,8.14,7.16h44.3a8.2,8.2,0,0,1,8.14,7.15L170.19,297a8.19,8.19,0,0,1-8.13,9.25H122a8.2,8.2,0,0,0-8.13,9.26l1.71,13.29a8.21,8.21,0,0,0,8.14,7.16H168a8.19,8.19,0,0,1,8.13,7.15l8.52,66a8.21,8.21,0,0,0,8.14,7.16H206a8.21,8.21,0,0,0,8.14-9.26l-8-61.78a8.2,8.2,0,0,1,8.14-9.25H321.5a8.2,8.2,0,0,1,8.13,7.15l8.52,66a8.2,8.2,0,0,0,8.13,7.16h13.16a8.21,8.21,0,0,0,8.14-9.26l-8-61.78a8.2,8.2,0,0,1,8.13-9.25h40.07A8.21,8.21,0,0,0,416,326.69Zm-215.78-27.6L191,227.81a8.21,8.21,0,0,1,8.14-9.25H306.35a8.21,8.21,0,0,1,8.14,7.15L323.68,297a8.2,8.2,0,0,1-8.13,9.25H208.31A8.2,8.2,0,0,1,200.17,299.09Z" style="fill: rgb(255, 193, 0); transform-origin: 257.358px 262.41px;" id="elrvv1819399" class="animable"></path><g id="elx5kemb276qb"><path d="M416,326.69l-1.72-13.29a8.21,8.21,0,0,0-8.14-7.16h-44.3a8.2,8.2,0,0,1-8.13-7.15l-9.2-71.28a8.21,8.21,0,0,1,8.14-9.25h40.06a8.21,8.21,0,0,0,8.14-9.26L399.08,196a8.19,8.19,0,0,0-8.13-7.15h-44.3a8.21,8.21,0,0,1-8.14-7.16l-8.51-66a8.21,8.21,0,0,0-8.14-7.16H308.7a8.21,8.21,0,0,0-8.14,9.26l8,61.78a8.21,8.21,0,0,1-8.14,9.26H193.16A8.21,8.21,0,0,1,185,181.7l-8.51-66a8.21,8.21,0,0,0-8.14-7.16H155.21a8.2,8.2,0,0,0-8.13,9.26l8,61.78a8.21,8.21,0,0,1-8.14,9.26H106.85a8.2,8.2,0,0,0-8.14,9.25l1.71,13.29a8.21,8.21,0,0,0,8.14,7.16h44.3a8.2,8.2,0,0,1,8.14,7.15L170.19,297a8.19,8.19,0,0,1-8.13,9.25H122a8.2,8.2,0,0,0-8.13,9.26l1.71,13.29a8.21,8.21,0,0,0,8.14,7.16H168a8.19,8.19,0,0,1,8.13,7.15l8.52,66a8.21,8.21,0,0,0,8.14,7.16H206a8.21,8.21,0,0,0,8.14-9.26l-8-61.78a8.2,8.2,0,0,1,8.14-9.25H321.5a8.2,8.2,0,0,1,8.13,7.15l8.52,66a8.2,8.2,0,0,0,8.13,7.16h13.16a8.21,8.21,0,0,0,8.14-9.26l-8-61.78a8.2,8.2,0,0,1,8.13-9.25h40.07A8.21,8.21,0,0,0,416,326.69Zm-215.78-27.6L191,227.81a8.21,8.21,0,0,1,8.14-9.25H306.35a8.21,8.21,0,0,1,8.14,7.15L323.68,297a8.2,8.2,0,0,1-8.13,9.25H208.31A8.2,8.2,0,0,1,200.17,299.09Z" style="opacity: 0.3; transform-origin: 257.358px 262.41px;" class="animable"></path></g><path d="M359.44,413.36H346.28a5.33,5.33,0,0,1-5.28-4.65l-8.52-66a11.1,11.1,0,0,0-11-9.66H214.26a11.08,11.08,0,0,0-11,12.5l8,61.78a5.32,5.32,0,0,1-5.29,6H192.8a5.33,5.33,0,0,1-5.29-4.65l-8.51-66a11.12,11.12,0,0,0-11-9.66h-44.3a5.35,5.35,0,0,1-5.29-4.65l-1.71-13.29a5.32,5.32,0,0,1,5.28-6h40.07a11.09,11.09,0,0,0,11-12.5l-9.2-71.27a11.11,11.11,0,0,0-11-9.67h-44.3a5.33,5.33,0,0,1-5.28-4.64l-1.72-13.3a5.32,5.32,0,0,1,5.29-6h40.06a11.08,11.08,0,0,0,11-12.5l-8-61.78a5.32,5.32,0,0,1,5.28-6h13.16a5.35,5.35,0,0,1,5.29,4.65l8.51,66a11.11,11.11,0,0,0,11,9.66H300.4a11.08,11.08,0,0,0,11-12.5l-8-61.78a5.32,5.32,0,0,1,5.28-6h13.16a5.36,5.36,0,0,1,5.29,4.65l8.51,66a11.1,11.1,0,0,0,11,9.66H391a5.34,5.34,0,0,1,5.28,4.65L398,209.67a5.32,5.32,0,0,1-5.29,6H352.6a11.09,11.09,0,0,0-11,12.5l9.2,71.28a11.1,11.1,0,0,0,11,9.66h44.3a5.34,5.34,0,0,1,5.29,4.65l1.71,13.29a5.32,5.32,0,0,1-5.28,6H367.75a11.06,11.06,0,0,0-11,12.5l8,61.78a5.34,5.34,0,0,1-5.29,6ZM214.26,332.82H321.5a11.35,11.35,0,0,1,11.23,9.88l8.52,66a5.08,5.08,0,0,0,5,4.43h13.16a5.07,5.07,0,0,0,5-5.73l-8-61.78a11.33,11.33,0,0,1,11.24-12.78h40.06a5.07,5.07,0,0,0,5-5.73l-1.72-13.29a5.08,5.08,0,0,0-5-4.43h-44.3a11.36,11.36,0,0,1-11.23-9.88l-9.2-71.28a11.33,11.33,0,0,1,11.24-12.78h40.06a5.07,5.07,0,0,0,5-5.73L396,196.41a5.1,5.1,0,0,0-5-4.43h-44.3a11.36,11.36,0,0,1-11.24-9.88l-8.51-66a5.09,5.09,0,0,0-5-4.43H308.7a5.08,5.08,0,0,0-5,5.73l8,61.78A11.33,11.33,0,0,1,300.4,192H193.16a11.36,11.36,0,0,1-11.24-9.88l-8.51-66a5.09,5.09,0,0,0-5-4.43H155.21a5.07,5.07,0,0,0-5,5.73l8,61.78A11.33,11.33,0,0,1,146.91,192H106.85a5.08,5.08,0,0,0-5,5.73L103.52,211a5.09,5.09,0,0,0,5,4.43h44.3a11.36,11.36,0,0,1,11.24,9.88l9.19,71.28a11.32,11.32,0,0,1-11.23,12.78H122a5.07,5.07,0,0,0-5,5.73l1.71,13.29a5.09,5.09,0,0,0,5,4.43H168a11.35,11.35,0,0,1,11.23,9.88l8.52,66a5.08,5.08,0,0,0,5,4.43H206a5.07,5.07,0,0,0,5-5.73l-8-61.78a11.33,11.33,0,0,1,11.24-12.78Zm101.29-23.45H208.31a11.36,11.36,0,0,1-11.24-9.88l-9.2-71.28a11.33,11.33,0,0,1,11.24-12.78H306.35a11.36,11.36,0,0,1,11.24,9.88l9.19,71.28a11.33,11.33,0,0,1-11.23,12.78ZM199.11,215.68a11.09,11.09,0,0,0-11,12.5l9.2,71.28a11.11,11.11,0,0,0,11,9.66H315.55a11.08,11.08,0,0,0,11-12.5l-9.19-71.27a11.11,11.11,0,0,0-11-9.67Z" style="fill: rgb(255, 193, 0); transform-origin: 257.325px 262.39px;" id="els7mgjmlzwng" class="animable"></path></g><g id="freepik--Character--inject-47" class="animable" style="transform-origin: 259.768px 291.236px;"><polygon points="275.92 374.84 283.77 379.43 295.62 361.95 287.77 357.35 275.92 374.84" style="fill: rgb(228, 137, 123); transform-origin: 285.77px 368.39px;" id="elmev3d1z7u18" class="animable"></polygon><path d="M284.05,379.17l-6.45-7.93a.72.72,0,0,0-.94-.17l-7,4.2a1.47,1.47,0,0,0-.34,2.16c2.3,2.72,3.55,3.92,6.39,7.41,1.74,2.15,5.13,6.77,7.55,9.73s5.47.73,4.73-.72c-3.32-6.5-3.45-10-3.4-13.15A2.34,2.34,0,0,0,284.05,379.17Z" style="fill: rgb(38, 50, 56); transform-origin: 278.547px 383.496px;" id="elv3zc7tr160c" class="animable"></path><path d="M287,384.14l-.19,0c-1.28-.2-2.64-2.44-3.33-3.75a.15.15,0,0,1,.19-.21c.42.18,4.12,1.81,4.35,3a.64.64,0,0,1-.2.59A1.14,1.14,0,0,1,287,384.14Zm-3-3.52c1.05,1.89,2.13,3.08,2.9,3.2a.82.82,0,0,0,.75-.26.37.37,0,0,0,.11-.32C287.57,382.44,285.24,381.21,284,380.62Z" style="fill: rgb(255, 193, 0); transform-origin: 285.746px 382.154px;" id="elxbok5979ff" class="animable"></path><path d="M286.56,381a8,8,0,0,1-3-.61.13.13,0,0,1-.08-.12.14.14,0,0,1,.06-.14c.09-.06,2.11-1.43,3.54-1.15a1.53,1.53,0,0,1,1,.67c.31.47.19.77,0,.93A2.14,2.14,0,0,1,286.56,381Zm-2.63-.77c1.23.49,3.49.66,3.95.15,0-.05.17-.19-.08-.56a1.19,1.19,0,0,0-.8-.54A5.33,5.33,0,0,0,283.93,380.27Z" style="fill: rgb(255, 193, 0); transform-origin: 285.874px 379.977px;" id="elmdydmgljv" class="animable"></path><path d="M263.6,237.13l.38,1.52.43,1.64c.29,1.1.62,2.21.95,3.32q1,3.33,2.11,6.65c.78,2.2,1.53,4.42,2.38,6.61.41,1.09.82,2.2,1.25,3.29l.51,1.31a3,3,0,0,0,.4.63,11.74,11.74,0,0,0,4.43,2.8,41.92,41.92,0,0,0,6.31,2c2.22.52,4.5.95,6.81,1.31s4.68.64,7,.89l.08,4.71a72.5,72.5,0,0,1-15,0,43.28,43.28,0,0,1-7.71-1.49,25.34,25.34,0,0,1-4-1.57,15.3,15.3,0,0,1-4-2.8,10.94,10.94,0,0,1-1.75-2.27,7.19,7.19,0,0,1-.37-.67l-.23-.47-.4-.83c-.54-1.11-1.08-2.22-1.58-3.35-1-2.26-2-4.53-2.88-6.85s-1.73-4.66-2.49-7c-.37-1.2-.72-2.41-1-3.63l-.48-1.86c-.14-.65-.27-1.21-.41-2Z" style="fill: rgb(228, 137, 123); transform-origin: 275.49px 255.665px;" id="el3sja25u7rtn" class="animable"></path><path d="M260.63,227.22c3.75.95,6.38,16.39,6.38,16.39l-10.34,7s-9.91-15.57-7-19.7C252.65,226.65,255.16,225.82,260.63,227.22Z" style="fill: rgb(255, 193, 0); transform-origin: 258.073px 238.602px;" id="elr14nwlur2" class="animable"></path><g id="elxkf5f9kbfyd"><path d="M260.63,227.22c3.75.95,6.38,16.39,6.38,16.39l-10.34,7s-9.91-15.57-7-19.7C252.65,226.65,255.16,225.82,260.63,227.22Z" style="opacity: 0.2; transform-origin: 258.073px 238.602px;" class="animable"></path></g><path d="M261,232.83l-8,1.86-.77,7.85a91,91,0,0,0,4.5,8.1l6.27-4.26C262.67,242.77,262,235.27,261,232.83Z" style="fill: rgb(255, 193, 0); transform-origin: 257.615px 241.735px;" id="elydg9zmzm5e" class="animable"></path><g id="elirh4abbzhk8"><path d="M261,232.83l-8,1.86-.77,7.85a91,91,0,0,0,4.5,8.1l6.27-4.26C262.67,242.77,262,235.27,261,232.83Z" style="opacity: 0.3; transform-origin: 257.615px 241.735px;" class="animable"></path></g><path d="M295.18,269l6.45-6.54.85,9.21s-4.84,3.28-8.19,1.52Z" style="fill: rgb(228, 137, 123); transform-origin: 298.385px 268.085px;" id="elw8y5wore2l" class="animable"></path><polygon points="309.22 261.47 309.51 269.23 302.48 271.66 301.63 262.45 309.22 261.47" style="fill: rgb(228, 137, 123); transform-origin: 305.57px 266.565px;" id="el3fifmv3ztk3" class="animable"></polygon><polygon points="262.97 392.83 272.07 392.83 275 371.75 265.89 371.75 262.97 392.83" style="fill: rgb(228, 137, 123); transform-origin: 268.985px 382.29px;" id="elvl9bdwzoh6" class="animable"></polygon><path d="M272.67,390.11l-9-4.81a.72.72,0,0,0-.93.21l-4.83,6.59a1.47,1.47,0,0,0,.53,2.12c3.17,1.62,4.79,2.24,8.76,4.35,2.44,1.3,8.56,4.89,11.94,6.69s5.32-1.45,4.08-2.5c-5.57-4.7-8.27-8.53-9.44-11.44A2.33,2.33,0,0,0,272.67,390.11Z" style="fill: rgb(38, 50, 56); transform-origin: 270.628px 395.502px;" id="elnzo6in1nf1" class="animable"></path><path d="M222.45,191.67c-.23,10-12.47,5.87-13.84,17.39-.77,6.47-8.61,7.14-10,13-1.36,5.67,4.17,9.79,0,16.85-5.58,9.45-8.7,25.93,22.61,27.64,23.28,1.27,31.47-22.38,27.52-36.91s-6.15-16.77-1.82-20.77,11.27-6,9.05-18.22c-1.72-9.45-5.9-8.34-5.9-8.34C249.86,177.09,223,169.42,222.45,191.67Z" style="fill: rgb(38, 50, 56); transform-origin: 225.711px 221.639px;" id="elgzwevdynjv4" class="animable"></path><polygon points="295.62 361.95 289.51 370.96 281.65 366.37 287.76 357.35 295.62 361.95" style="fill: rgb(206, 111, 100); transform-origin: 288.635px 364.155px;" id="el6yd5cd4nawj" class="animable"></polygon><polygon points="265.89 371.76 275 371.76 273.48 382.62 264.38 382.62 265.89 371.76" style="fill: rgb(206, 111, 100); transform-origin: 269.69px 377.19px;" id="el91zipm9bjz" class="animable"></polygon><path d="M260.63,227.22s4.34,1.53-4.35,54.93h-37c.62-15,.63-24.32-6.56-55.2a109.34,109.34,0,0,1,15.7-2.06,117.48,117.48,0,0,1,16.79,0C252.45,225.55,260.63,227.22,260.63,227.22Z" style="fill: rgb(255, 193, 0); transform-origin: 237.217px 253.37px;" id="elml7w2hyama9" class="animable"></path><g id="el71pu8bmy0tc"><path d="M260.63,227.22s4.34,1.53-4.35,54.93h-37c.62-15,.63-24.32-6.56-55.2a109.34,109.34,0,0,1,15.7-2.06,117.48,117.48,0,0,1,16.79,0C252.45,225.55,260.63,227.22,260.63,227.22Z" style="opacity: 0.2; transform-origin: 237.217px 253.37px;" class="animable"></path></g><path d="M230.12,206c1.06,5.4,2.12,15.29-1.66,18.9,0,0,1.48,5.48,11.51,5.48,9.66,0,5.28-5.48,5.28-5.48-6-1.44-5.87-5.91-4.82-10.11Z" style="fill: rgb(228, 137, 123); transform-origin: 237.35px 218.19px;" id="ela14unbvmqau" class="animable"></path><path d="M234.32,209.58l6.1,5.2a17.37,17.37,0,0,0-.51,3c-2.31-.33-5.47-2.86-5.71-5.27A8.26,8.26,0,0,1,234.32,209.58Z" style="fill: rgb(206, 111, 100); transform-origin: 237.271px 213.68px;" id="el7l6g5wwuvt4" class="animable"></path><path d="M229.49,191.76c-1,9-1.68,12.74,2,18.1,5.52,8.06,16.77,7.38,20.47-1.1,3.33-7.63,4.48-21-3.58-26.11A12.32,12.32,0,0,0,229.49,191.76Z" style="fill: rgb(228, 137, 123); transform-origin: 241.595px 198.12px;" id="eleebhghdnltw" class="animable"></path><path d="M229.44,197.06c1.27,2.36,20.71-8.39,18.5-14.16s-8-3.68-8-3.68-10.27,2.34-12,7.67S229.44,197.06,229.44,197.06Z" style="fill: rgb(38, 50, 56); transform-origin: 237.773px 188.122px;" id="elbyx7wap7dr6" class="animable"></path><path d="M225.7,198.09a6.85,6.85,0,0,0,2.33,4.47c1.76,1.49,3.51.16,3.75-2,.22-1.93-.43-5-2.54-5.7S225.5,196,225.7,198.09Z" style="fill: rgb(228, 137, 123); transform-origin: 228.752px 198.951px;" id="elbjr875sg50u" class="animable"></path><path d="M256.28,282.15s57.54,5.54,56.94,33.29c-.62,28.87-21.35,54.87-21.35,54.87L281,364.16s12-25.41,11.38-42.72c-.5-14.8-55.68-17.64-55.68-17.64l-7.61-21.65Z" style="fill: rgb(255, 193, 0); transform-origin: 271.157px 326.23px;" id="el0f6gzrfxy7rk" class="animable"></path><g id="elyrp66bcqzc"><path d="M256.28,282.15s57.54,5.54,56.94,33.29c-.62,28.87-21.35,54.87-21.35,54.87L281,364.16s12-25.41,11.38-42.72c-.5-14.8-55.68-17.64-55.68-17.64l-7.61-21.65Z" style="fill: rgb(250, 250, 250); opacity: 0.6; transform-origin: 271.157px 326.23px;" class="animable"></path></g><path d="M276.33,298.42l1.16,11.8c8.05,2.52,14.24,6,14.85,10.66C293.7,310.44,286.42,304.27,276.33,298.42Z" style="fill: rgb(255, 193, 0); transform-origin: 284.417px 309.65px;" id="eljyi6ybudk3s" class="animable"></path><g id="el3i0e2j7hsue"><path d="M276.33,298.42l1.16,11.8c8.05,2.52,14.24,6,14.85,10.66C293.7,310.44,286.42,304.27,276.33,298.42Z" style="fill: rgb(250, 250, 250); opacity: 0.4; transform-origin: 284.417px 309.65px;" class="animable"></path></g><path d="M246.52,282.15S286,295.23,287,311.42c1.84,29.81-11.27,69.1-11.27,69.1H263.27s.7-26.07,2.19-53.08c1.86-33.93-58-.47-46.14-45.29Z" style="fill: rgb(255, 193, 0); transform-origin: 252.47px 331.335px;" id="el47yb0t8xt48" class="animable"></path><g id="elaww9ytb3yhn"><path d="M246.52,282.15S286,295.23,287,311.42c1.84,29.81-11.27,69.1-11.27,69.1H263.27s.7-26.07,2.19-53.08c1.86-33.93-58-.47-46.14-45.29Z" style="fill: rgb(250, 250, 250); opacity: 0.6; transform-origin: 252.47px 331.335px;" class="animable"></path></g><path d="M242.51,196.65c-.13.72.15,1.37.62,1.46s1-.44,1.09-1.16-.15-1.38-.62-1.46S242.64,195.92,242.51,196.65Z" style="fill: rgb(38, 50, 56); transform-origin: 243.358px 196.801px;" id="el22clco9cy3i" class="animable"></path><path d="M250.67,198.11c-.12.72.15,1.37.63,1.46s1-.43,1.09-1.16-.15-1.37-.63-1.46S250.8,197.38,250.67,198.11Z" style="fill: rgb(38, 50, 56); transform-origin: 251.525px 198.26px;" id="el81irwapw9o7" class="animable"></path><path d="M251.55,197l1.82-.19S252.24,198,251.55,197Z" style="fill: rgb(38, 50, 56); transform-origin: 252.46px 197.105px;" id="el7gxnif19409" class="animable"></path><path d="M248.29,199A19.76,19.76,0,0,0,250,204a3.19,3.19,0,0,1-2.66,0Z" style="fill: rgb(222, 87, 83); transform-origin: 248.67px 201.645px;" id="elwajxbilh6ps" class="animable"></path><path d="M243.22,205.94l-.06,0a6.3,6.3,0,0,1-3.18-3.39.13.13,0,0,1,.09-.17.13.13,0,0,1,.17.08,6.12,6.12,0,0,0,3,3.23.14.14,0,0,1,.07.18A.14.14,0,0,1,243.22,205.94Z" style="fill: rgb(38, 50, 56); transform-origin: 241.646px 204.156px;" id="elauvmvqn1yb6" class="animable"></path><path d="M241.6,193.41a.25.25,0,0,1-.2-.1.25.25,0,0,1,0-.38,4.12,4.12,0,0,1,3.64-1,.27.27,0,1,1-.14.53,3.55,3.55,0,0,0-3.14.91A.29.29,0,0,1,241.6,193.41Z" style="fill: rgb(38, 50, 56); transform-origin: 243.278px 192.626px;" id="ellanghidul9" class="animable"></path><path d="M255.13,194.86a.3.3,0,0,1-.25-.17,3.6,3.6,0,0,0-2.46-2.14.28.28,0,0,1-.23-.32.28.28,0,0,1,.32-.22,4.08,4.08,0,0,1,2.87,2.46.26.26,0,0,1-.14.36A.2.2,0,0,1,255.13,194.86Z" style="fill: rgb(38, 50, 56); transform-origin: 253.797px 193.433px;" id="el81l82ubx6ja" class="animable"></path><path d="M276.08,393.35c-1.07,0-2.52-1.12-3.33-1.84a.14.14,0,0,1-.05-.16.16.16,0,0,1,.13-.11c.37,0,3.62-.3,4.3.59a.67.67,0,0,1,.09.67,1.18,1.18,0,0,1-.81.81A1.66,1.66,0,0,1,276.08,393.35Zm-2.86-1.83c1.32,1.1,2.46,1.66,3.11,1.49a.86.86,0,0,0,.6-.61.34.34,0,0,0,0-.38C276.45,391.44,274.35,391.45,273.22,391.52Z" style="fill: rgb(255, 193, 0); transform-origin: 274.982px 392.271px;" id="elkzs0seegglp" class="animable"></path><path d="M272.85,391.55a.13.13,0,0,1-.13-.08.16.16,0,0,1,0-.15c.05-.09,1.28-2.38,2.54-2.68a1,1,0,0,1,.89.17.67.67,0,0,1,.33.8c-.27.92-2.52,1.91-3.62,1.94Zm2.68-2.64-.21,0c-.9.21-1.84,1.68-2.2,2.27,1.05-.16,2.85-1,3.06-1.69,0-.11.05-.28-.21-.46A.75.75,0,0,0,275.53,388.91Z" style="fill: rgb(255, 193, 0); transform-origin: 274.607px 390.076px;" id="elvogtba7pcz" class="animable"></path><path d="M243.38,195.49l1.83-.19S244.07,196.5,243.38,195.49Z" style="fill: rgb(38, 50, 56); transform-origin: 244.295px 195.597px;" id="elsk6vvvt5c4q" class="animable"></path><path d="M218.76,280l-.29,3.31c-.13.26.17.52.6.52h37.39c.34,0,.61-.16.63-.37l.34-3.31c0-.23-.27-.43-.63-.43H219.36A.7.7,0,0,0,218.76,280Z" style="fill: rgb(38, 50, 56); transform-origin: 237.935px 281.774px;" id="elq7opxcg0e7" class="animable"></path><path d="M223.79,284.17h-1c-.2,0-.35-.1-.34-.23l.47-4.3c0-.13.19-.23.39-.23h1c.2,0,.35.1.34.23l-.47,4.3C224.16,284.07,224,284.17,223.79,284.17Z" style="fill: rgb(255, 193, 0); transform-origin: 223.55px 281.79px;" id="el7meb5ereecf" class="animable"></path><g id="el3x9w82c24r"><path d="M223.79,284.17h-1c-.2,0-.35-.1-.34-.23l.47-4.3c0-.13.19-.23.39-.23h1c.2,0,.35.1.34.23l-.47,4.3C224.16,284.07,224,284.17,223.79,284.17Z" style="fill: rgb(250, 250, 250); opacity: 0.6; transform-origin: 223.55px 281.79px;" class="animable"></path></g><path d="M253.65,284.17h-1c-.2,0-.35-.1-.33-.23l.47-4.3c0-.13.18-.23.38-.23h1c.2,0,.35.1.33.23l-.47,4.3C254,284.07,253.85,284.17,253.65,284.17Z" style="fill: rgb(255, 193, 0); transform-origin: 253.41px 281.79px;" id="elt46biwns5u" class="animable"></path><g id="elkmn5liixr2q"><path d="M253.65,284.17h-1c-.2,0-.35-.1-.33-.23l.47-4.3c0-.13.18-.23.38-.23h1c.2,0,.35.1.33.23l-.47,4.3C254,284.07,253.85,284.17,253.65,284.17Z" style="fill: rgb(250, 250, 250); opacity: 0.6; transform-origin: 253.41px 281.79px;" class="animable"></path></g><path d="M238.72,284.17h-1c-.2,0-.36-.1-.34-.23l.47-4.3c0-.13.19-.23.39-.23h1c.2,0,.35.1.34.23l-.47,4.3C239.09,284.07,238.92,284.17,238.72,284.17Z" style="fill: rgb(255, 193, 0); transform-origin: 238.479px 281.79px;" id="el6xtluvg88d4" class="animable"></path><g id="eljs1b8o5l0vi"><path d="M238.72,284.17h-1c-.2,0-.36-.1-.34-.23l.47-4.3c0-.13.19-.23.39-.23h1c.2,0,.35.1.34.23l-.47,4.3C239.09,284.07,238.92,284.17,238.72,284.17Z" style="fill: rgb(250, 250, 250); opacity: 0.6; transform-origin: 238.479px 281.79px;" class="animable"></path></g><path d="M221.46,241.29l-4.77,4.06c1,5.4,1.7,9.9,2.14,13.9C219.72,255.24,222,244.36,221.46,241.29Z" style="fill: rgb(255, 193, 0); transform-origin: 219.116px 250.27px;" id="elqzdevue5dp" class="animable"></path><g id="eln0k3fuluqig"><path d="M221.46,241.29l-4.77,4.06c1,5.4,1.7,9.9,2.14,13.9C219.72,255.24,222,244.36,221.46,241.29Z" style="opacity: 0.3; transform-origin: 219.116px 250.27px;" class="animable"></path></g><polygon points="322.51 256.6 257.64 256.6 248.24 294.91 313.11 294.91 322.51 256.6" style="fill: rgb(250, 250, 250); transform-origin: 285.375px 275.755px;" id="elx8ef004xx7m" class="animable"></polygon><polygon points="289.64 287.78 249.97 297.03 224.51 289.89 224.77 287.78 289.64 287.78" style="fill: rgb(250, 250, 250); transform-origin: 257.075px 292.405px;" id="el94a12di0fm8" class="animable"></polygon><path d="M218.28,240.12c-.77,2.55-1.61,5.18-2.36,7.78s-1.54,5.22-2.22,7.83-1.33,5.21-1.83,7.76c-.24,1.27-.47,2.54-.62,3.74a21.43,21.43,0,0,0-.17,2.54,4.57,4.57,0,0,0,1.1,1.81,16.43,16.43,0,0,0,2.51,2.22,48,48,0,0,0,6.57,3.93c2.35,1.21,4.81,2.31,7.32,3.33s5.07,2,7.58,3L235,288.58c-2.87-.45-5.6-1.09-8.38-1.78s-5.49-1.6-8.22-2.6a48.28,48.28,0,0,1-8.12-3.86,24,24,0,0,1-4-3,12.38,12.38,0,0,1-3.39-5.1,9.74,9.74,0,0,1-.39-1.83l0-.48,0-.36,0-.64c0-.84,0-1.64,0-2.43.08-1.56.25-3,.47-4.5.41-2.92,1-5.74,1.62-8.52a166.75,166.75,0,0,1,4.67-16.37Z" style="fill: rgb(228, 137, 123); transform-origin: 219.33px 262.845px;" id="el5drdcefp6wa" class="animable"></path><path d="M212.76,227c-3.7,1.13-9.37,15.67-9.37,15.67l14.37,10.27s6.46-12.43,4.9-17.22C221,230.69,217,225.67,212.76,227Z" style="fill: rgb(255, 193, 0); transform-origin: 213.147px 239.862px;" id="el2pvfkv0yq8w" class="animable"></path><g id="el4ut2c7qlngb"><path d="M212.76,227c-3.7,1.13-9.37,15.67-9.37,15.67l14.37,10.27s6.46-12.43,4.9-17.22C221,230.69,217,225.67,212.76,227Z" style="opacity: 0.2; transform-origin: 213.147px 239.862px;" class="animable"></path></g><path d="M234.29,284.34l8.64-2.19-4.12,8.29s-5.83.25-7.76-3Z" style="fill: rgb(228, 137, 123); transform-origin: 236.99px 286.297px;" id="ella496q4h9q" class="animable"></path><polygon points="249.9 285.3 246.08 292.06 238.81 290.44 242.93 282.15 249.9 285.3" style="fill: rgb(228, 137, 123); transform-origin: 244.355px 287.105px;" id="elg00tqq16tx9" class="animable"></polygon><polygon points="324.51 256.6 259.64 256.6 250.24 294.91 315.11 294.91 324.51 256.6" style="fill: rgb(38, 50, 56); transform-origin: 287.375px 275.755px;" id="elteivpvej6oo" class="animable"></polygon><polygon points="315.11 294.91 314.85 297.03 249.97 297.03 250.23 294.91 315.11 294.91" style="fill: rgb(38, 50, 56); transform-origin: 282.54px 295.97px;" id="elt5y382zu0v" class="animable"></polygon><path d="M246.39,186.42c8.74,3.5,9.46,8.53,9,5-.66-5.07-4.87-8.72-7.89-9.95C245.73,180.73,242.57,184.89,246.39,186.42Z" style="fill: rgb(38, 50, 56); transform-origin: 250.04px 187.002px;" id="el3gw4yq3p4cx" class="animable"></path><path d="M230.1,191l-.59.69a.51.51,0,0,0,0,.71l4.72,4.3a.51.51,0,0,0,.69,0l.81-.75a.51.51,0,0,0,0-.76l-4.95-4.24A.51.51,0,0,0,230.1,191Z" style="fill: rgb(255, 193, 0); transform-origin: 232.633px 193.839px;" id="eldeq8bp1a55s" class="animable"></path><g id="elqs3p1ub50jn"><path d="M230.1,191l-.59.69a.51.51,0,0,0,0,.71l4.72,4.3a.51.51,0,0,0,.69,0l.81-.75a.51.51,0,0,0,0-.76l-4.95-4.24A.51.51,0,0,0,230.1,191Z" style="opacity: 0.3; transform-origin: 232.633px 193.839px;" class="animable"></path></g><path d="M228.89,224.26c.1.76.94,4.51,8.08,5.92,0,0-2.12,2.31-3.32,7.84,0,0-12.52-4.91-8.72-12.87a.45.45,0,0,1,.32-.25l3.48-.74A.13.13,0,0,1,228.89,224.26Z" style="fill: rgb(255, 193, 0); transform-origin: 230.591px 231.088px;" id="el2izhl1pqsax" class="animable"></path><g id="el4fglfd96ppf"><path d="M228.89,224.26c.1.76.94,4.51,8.08,5.92,0,0-2.12,2.31-3.32,7.84,0,0-12.52-4.91-8.72-12.87a.45.45,0,0,1,.32-.25l3.48-.74A.13.13,0,0,1,228.89,224.26Z" style="fill: rgb(250, 250, 250); opacity: 0.6; transform-origin: 230.591px 231.088px;" class="animable"></path></g><path d="M244.84,224.84c.86.91,3.21,4-2.73,5.42,0,0,3.61,2,4.81,7.53,0,0,8.89-6.11.8-12.75a.07.07,0,0,0-.06,0l-2.71-.38A.13.13,0,0,0,244.84,224.84Z" style="fill: rgb(255, 193, 0); transform-origin: 246.615px 231.225px;" id="elcvuuhz2d8yo" class="animable"></path><g id="elfobgwxdap"><path d="M244.84,224.84c.86.91,3.21,4-2.73,5.42,0,0,3.61,2,4.81,7.53,0,0,8.89-6.11.8-12.75a.07.07,0,0,0-.06,0l-2.71-.38A.13.13,0,0,0,244.84,224.84Z" style="fill: rgb(250, 250, 250); opacity: 0.6; transform-origin: 246.615px 231.225px;" class="animable"></path></g></g><g id="freepik--speech-bubbles--inject-47" class="animable" style="transform-origin: 221.22px 200.337px;"><path d="M329.71,167.3c-1.52-15.71-15.33-28.44-30.84-28.43S272,151.61,273.55,167.32a32.13,32.13,0,0,0,16.3,24.56l-.25,10,8.32-6.85a29.12,29.12,0,0,0,6.47.75C319.9,195.75,331.24,183,329.71,167.3Z" style="fill: rgb(255, 193, 0); transform-origin: 301.628px 170.375px;" id="elwu403jjoez" class="animable"></path><g id="elv38qataqs7"><path d="M329.71,167.3c-1.52-15.71-15.33-28.44-30.84-28.43S272,151.61,273.55,167.32a32.13,32.13,0,0,0,16.3,24.56l-.25,10,8.32-6.85a29.12,29.12,0,0,0,6.47.75C319.9,195.75,331.24,183,329.71,167.3Z" style="fill: rgb(250, 250, 250); opacity: 0.6; transform-origin: 301.628px 170.375px;" class="animable"></path></g><path d="M304,162.36c-6.87-2.07-11.72-9.42-11.72-9.42s-2.12-.12-2,1.82a10.64,10.64,0,0,0,3.45,7l-3.22-.18a10.21,10.21,0,0,0-3.36.37l-1,.29a3.24,3.24,0,0,0-2.07,4.29l2.14,6.31a9,9,0,0,0,4,4.84,8.12,8.12,0,0,0,5.27,1.07c3.22-.49,8.23-1.24,9.09-1.4h0l2.31-.2L306.21,163Z" style="fill: rgb(250, 250, 250); transform-origin: 295.372px 165.882px;" id="elvig8fb1hafm" class="animable"></path><path d="M316.08,179.06h-9a1.45,1.45,0,0,1-1.39-1.28l-1.56-16.1a1.14,1.14,0,0,1,1.14-1.28h9a1.45,1.45,0,0,1,1.4,1.29l1.56,16.09A1.15,1.15,0,0,1,316.08,179.06Z" style="fill: rgb(255, 193, 0); transform-origin: 310.679px 169.73px;" id="elqbd1ovyuci" class="animable"></path><path d="M183.89,244.22l-9-8.53a31.84,31.84,0,0,0-.06-5.34c-1.69-17.36-16.95-31.43-34.09-31.42s-29.66,14.09-28,31.45,16.94,31.43,34.08,31.42a27.55,27.55,0,0,0,25.33-15.7Z" style="fill: rgb(255, 193, 0); transform-origin: 148.241px 230.367px;" id="els3ym4vhfk0h" class="animable"></path><path d="M158.18,219.12c-4.69-4.33-11.61-4.32-15.45,0-4.69-4.32-11.61-4.32-15.46,0s-3.17,11.34,1.52,15.66l17,15.65,13.93-15.66C163.55,230.45,162.87,223.44,158.18,219.12Z" style="fill: rgb(255, 193, 0); transform-origin: 143.487px 233.153px;" id="elp8thlwu7jfr" class="animable"></path><g id="elmcax210ngj"><path d="M158.18,219.12c-4.69-4.33-11.61-4.32-15.45,0-4.69-4.32-11.61-4.32-15.46,0s-3.17,11.34,1.52,15.66l17,15.65,13.93-15.66C163.55,230.45,162.87,223.44,158.18,219.12Z" style="fill: rgb(250, 250, 250); opacity: 0.6; transform-origin: 143.487px 233.153px;" class="animable"></path></g></g><defs>     <filter id="active" height="200%">         <feMorphology in="SourceAlpha" result="DILATED" operator="dilate" radius="2"></feMorphology>                <feFlood flood-color="#32DFEC" flood-opacity="1" result="PINK"></feFlood>        <feComposite in="PINK" in2="DILATED" operator="in" result="OUTLINE"></feComposite>        <feMerge>            <feMergeNode in="OUTLINE"></feMergeNode>            <feMergeNode in="SourceGraphic"></feMergeNode>        </feMerge>    </filter>    <filter id="hover" height="200%">        <feMorphology in="SourceAlpha" result="DILATED" operator="dilate" radius="2"></feMorphology>                <feFlood flood-color="#ff0000" flood-opacity="0.5" result="PINK"></feFlood>        <feComposite in="PINK" in2="DILATED" operator="in" result="OUTLINE"></feComposite>        <feMerge>            <feMergeNode in="OUTLINE"></feMergeNode>            <feMergeNode in="SourceGraphic"></feMergeNode>        </feMerge>            <feColorMatrix type="matrix" values="0   0   0   0   0                0   1   0   0   0                0   0   0   0   0                0   0   0   1   0 "></feColorMatrix>    </filter></defs></svg>