<?xml version="1.0" encoding="UTF-8"?> <svg xmlns="http://www.w3.org/2000/svg" xmlns:xlink="http://www.w3.org/1999/xlink" width="499.943" height="414.965" viewBox="0 0 499.943 414.965"><style> .man { animation-name: man1 ; animation-fill-mode: both; animation-duration: 4s; transform-origin: left; transform-box:fill-box ; animation-iteration-count: infinite; } @keyframes man1 { 0% { transform:translateX(0px) ; } 50% { transform:translateX(50px) ; } 100% { transform:translateX(0px) ; } } .f1 { animation-name: color ; animation-fill-mode: both; animation-duration: 4s; transform-origin: left; transform-box:fill-box ; animation-iteration-count: infinite; } @keyframes color { 0% { fill=#ffcd5c; } 50% { fill :#6A2186 ; } 100% { fill :#ffcd5c ; } } .f2{ animation-name: color2; animation-fill-mode: both; animation-duration: 4s; transform-origin: left; transform-box:fill-box ; animation-iteration-count: infinite; } @keyframes color2 { 0% { fill: #ffcd5c; } 50% { fill :#ffe8e4 ; } 100% { fill :#ffcd5c ; } } .f3 { animation-name: color3; animation-fill-mode: both; animation-duration: 4s; transform-origin: left; transform-box:fill-box ; animation-iteration-count: infinite; } @keyframes color3 { 0% { opacity:1; } 50% { opacity:0; } 100% { opacity:1; } } .top-labah{ animation-name: labah ; animation-fill-mode: both; animation-duration: 4s; transform-origin: left; transform-box:fill-box ; animation-iteration-count: infinite; } @keyframes labah { 0% { transform:translateX(0px) ; } 50% { transform:translateY(30px) ; } 100% { transform:translateX(0px) ; } } </style><defs><clipPath id="clip-path"><rect id="Rectangle_9941" data-name="Rectangle 9941" width="180.865" height="399.93" transform="translate(0 0)" fill="#6A2186"></rect></clipPath><clipPath id="clip-path-2"><rect id="Rectangle_9891" data-name="Rectangle 9891" width="233.187" height="491.723" fill="none"></rect></clipPath><clipPath id="clip-path-3"><rect id="Rectangle_9878" data-name="Rectangle 9878" width="2.302" height="4.185" fill="none"></rect></clipPath><clipPath id="clip-path-5"><rect id="Rectangle_9880" data-name="Rectangle 9880" width="6.088" height="4.136" fill="none"></rect></clipPath><clipPath id="clip-path-6"><rect id="Rectangle_9881" data-name="Rectangle 9881" width="3.641" height="4.438" fill="none"></rect></clipPath><clipPath id="clip-path-7"><rect id="Rectangle_9882" data-name="Rectangle 9882" width="15.035" height="5.687" fill="none"></rect></clipPath><clipPath id="clip-path-13"><rect id="Rectangle_9888" data-name="Rectangle 9888" width="19.64" height="8.705" fill="none"></rect></clipPath><clipPath id="clip-path-14"><rect id="Rectangle_9889" data-name="Rectangle 9889" width="19.201" height="108.295" fill="none"></rect></clipPath><clipPath id="clip-path-16"><path id="Path_37908" data-name="Path 37908" d="M386.37,615.673c55.183,5.43,71.5,58.021,45.755,162.057-2.109-6.4-4.792-15.113-9.1-20.418,5-38.23,7.2-71.139-5.288-85.58-10.733,4.043-55.952,4.043-66.685,0-12.491,14.441-10.243,47.669-5.247,85.9-3.864,5.229-6.776,13.7-8.885,20.1-25.749-104.036-9.683-156.627,45.5-162.057Z" transform="translate(-324.951 -615.673)" fill="none"></path></clipPath><clipPath id="clip-path-17"><rect id="Rectangle_9911" data-name="Rectangle 9911" width="228.279" height="223.048" fill="none"></rect></clipPath><clipPath id="clip-path-18"><rect id="Rectangle_9939" data-name="Rectangle 9939" width="223.048" height="228.278" fill="none"></rect></clipPath></defs><g id="من_نحن-جدارة_في_سطور_-2" data-name="من نحن-جدارة في سطور -2" transform="translate(-195.73 -135)"><g id="Group_27372" data-name="Group 27372" transform="translate(115.584 70.979)"><g id="Group_27365" data-name="Group 27365" transform="translate(191.416 265.006)"><path id="Path_38087" data-name="Path 38087" d="M382.241,381.428v42.554c0,5.007,7.216,9.065,16.119,9.065h83.229" transform="translate(-168.751 -227.305)" fill="none" stroke="#8e9db2" stroke-miterlimit="10" stroke-width="1"></path><path id="Path_38089" data-name="Path 38089" d="M256.183,374.765h-38.01c-13.1,0-23.794,2.878-26.295,10.355-2.27,6.791,3.189,16.419,30.879,16.419h148.6a8.218,8.218,0,0,0,8.217-8.217v-17.5" transform="translate(-191.416 -228.097)" fill="none" stroke="#8e9db2" stroke-miterlimit="10" stroke-width="1"></path><path id="Path_38090" data-name="Path 38090" d="M259.291,271.114h10.314a6.729,6.729,0,0,1,6.729,6.729V426.477a9.653,9.653,0,0,0,9.653,9.653h88.519a9.653,9.653,0,0,0,9.654-9.653v-39.4" transform="translate(-183.354 -240.408)" fill="none" stroke="#8e9db2" stroke-miterlimit="10" stroke-width="1"></path></g><path class="f1" id="Path_38092" data-name="Path 38092" d="M264.613,190.768A126.746,126.746,0,1,1,493.8,265.4h0c-18.091,27.262-65.1,58.042-65.1,76.483V362.95a7.614,7.614,0,0,1-7.614,7.614H361.63a7.615,7.615,0,0,1-7.614-7.614V341.883c0-18.441-47.009-49.221-65.1-76.483h0A126.164,126.164,0,0,1,264.613,190.768Z" transform="translate(8.694 0)" fill="#ffcd5c"></path><g class="top-labah"><path id="Path_38093" data-name="Path 38093" d="M401.39,354.639s-5.442-116.574,13.571-153.722c8.955-17.493,25.739-25.161,36.651-18.635,7.257,4.34,10.607,16.025,9.006,26.673-3.155,20.988-22.436,46.879-74.739,46.879s-71.585-25.891-74.74-46.879c-1.6-10.647,1.75-22.333,9.006-26.673,10.914-6.526,27.7,1.142,36.651,18.635,19.014,37.148,13.572,153.722,13.572,153.722" transform="translate(14.174 13.773)" fill="none" stroke="#fff" stroke-miterlimit="10" stroke-width="2"></path></g><path class="f3" id="Path_38094" data-name="Path 38094" d="M401.15,85.766a105.69,105.69,0,0,1,79.637,102.42" transform="translate(24.911 2.583)" fill="none" stroke="#fe9" stroke-linecap="round" stroke-linejoin="bevel" stroke-width="13"></path><circle class="f3" id="Ellipse_485" data-name="Ellipse 485" cx="7.272" cy="7.272" r="7.272" transform="translate(397.61 77.651)" fill="#fe9"></circle><path class="f2" id="Path_38095" data-name="Path 38095" d="M517.836,184.01c-7,51.971-48.955,105.776-126.5,105.776s-117.941-56.321-126.5-105.776a126.087,126.087,0,0,0,24.058,67.138h0c18.092,27.262,65.1,58.042,65.1,76.483V348.7a7.615,7.615,0,0,0,7.614,7.614h59.457a7.614,7.614,0,0,0,7.614-7.614V327.631c0-18.441,47.01-49.221,65.1-76.483h0A126.088,126.088,0,0,0,517.836,184.01Z" transform="translate(8.72 14.252)" fill="#ffcd5c" opacity="0.55" style="mix-blend-mode: multiply;isolation: isolate"></path><path id="Path_38096" data-name="Path 38096" d="M422.523,320.424H341.847v38.45A33.08,33.08,0,0,0,347,376.6h0a34.672,34.672,0,0,0,29.273,16.09H388.1a34.671,34.671,0,0,0,29.272-16.09h0a33.08,33.08,0,0,0,5.152-17.729Z" transform="translate(17.868 30.455)" fill="#28364c"></path><g id="Group_27367" data-name="Group 27367" transform="translate(354.68 355.519)"><g id="Group_27366" data-name="Group 27366" transform="translate(0 0)"><path id="Path_38097" data-name="Path 38097" d="M423.064,345.822a4.928,4.928,0,0,1-.7-.049l-80.675-11.18a5.034,5.034,0,1,1,1.382-9.973l80.676,11.18a5.035,5.035,0,0,1-.685,10.022Z" transform="translate(-337.347 -324.571)" fill="#475577"></path></g></g><g id="Group_27369" data-name="Group 27369" transform="translate(354.68 373.118)"><g id="Group_27368" data-name="Group 27368" transform="translate(0)"><path id="Path_38098" data-name="Path 38098" d="M423.064,361.552a5.105,5.105,0,0,1-.7-.049l-80.675-11.18a5.034,5.034,0,1,1,1.382-9.973l80.676,11.18a5.035,5.035,0,0,1-.685,10.022Z" transform="translate(-337.347 -340.302)" fill="#475577"></path></g></g><g id="Group_27371" data-name="Group 27371" transform="translate(355.664 391.005)"><g id="Group_27370" data-name="Group 27370" transform="translate(0)"><path id="Path_38099" data-name="Path 38099" d="M419.738,376.959a5.1,5.1,0,0,1-.7-.049l-76.469-10.6a5.034,5.034,0,1,1,1.383-9.973l76.471,10.6a5.035,5.035,0,0,1-.686,10.022Z" transform="translate(-338.226 -356.29)" fill="#475577"></path></g></g></g><g id="Group_27373" data-name="Group 27373" transform="translate(97.267 71.762)"><path id="Path_38100" data-name="Path 38100" d="M223.691,262.95l-9.872,44.192h62.959l10.021-44.8a1.294,1.294,0,0,0-1.1-1.742H226.32A2.917,2.917,0,0,0,223.691,262.95Z" transform="translate(6.581)" fill="#f2f5f9"></path><path id="Path_38101" data-name="Path 38101" d="M237.755,298.53H188.9l.26-2.46a3.245,3.245,0,0,1,3.145-2.852h46.016Z" transform="translate(0 8.612)" fill="#f2f5f9"></path><path id="Path_38102" data-name="Path 38102" d="M248.779,280.1c-.66,2.891-3.22,5.236-5.716,5.236s-3.987-2.345-3.327-5.236,3.22-5.236,5.716-5.236S249.439,277.213,248.779,280.1Z" transform="translate(13.383 3.767)" fill="#c6d2e0" opacity="0.55"></path></g><g id="Group_27377" data-name="Group 27377" transform="translate(122.465 92.089)"><g id="Group_27374" data-name="Group 27374" transform="translate(7 11.66)"><path id="Path_38103" data-name="Path 38103" d="M312.871,394.144c3.626-2.322,12.341-27.915,14.792-33.4,1.9-4.25,3.847-8.766,3.3-13.39a2.778,2.778,0,0,0-.388-1.266c-.605-.877-1.885-.895-2.934-.707a23.2,23.2,0,0,0-9.67,4.766c-10.434,7.918-17.75,31.1-20.084,43.992h14.989Z" fill="#ffe8e4"></path><path id="Path_38104" data-name="Path 38104" d="M326,352.325a11.807,11.807,0,0,0-3.776,4.139c-7.207,11.294-10.816,24.974-15.373,37.68" fill="none" stroke="#fff" stroke-miterlimit="10" stroke-width="1"></path><path id="Path_38105" data-name="Path 38105" d="M278.159,394.144c.763-2.689-.26-8.827-.57-11.516-.627-5.443-1.432-10.87-2.357-16.27-1.616-9.435-5.609-18.755-12.491-25.554-4.756-4.7-12.912-9.291-19.492-10.588-11.789-2.325-7.346,13.772-4.3,19.471,2.963,5.552,8.476,9.194,13.767,12.6,8.744,5.631,18.361,27.857,21.076,31.856" fill="#6A2186"></path><path id="Path_38106" data-name="Path 38106" d="M287.852,394.144c4.888-7.973,3.169-42.061.718-52.738-2.534-11.041-10.923-26.594-23.877-30.934a69.682,69.682,0,0,0-7.982-2.155,3.675,3.675,0,0,0-4.606,2.928,8.714,8.714,0,0,0,1.04,5.7c23.855,35.378,26.686,77.2,26.686,77.2" fill="#ffe8e4"></path><path id="Path_38107" data-name="Path 38107" d="M288.747,394.144c-1.612-19.09-2.9-45.116,7.008-61.511,3.013-4.984,6.945-9.341,10.906-13.611,4.229-4.559,8.755-9.207,14.3-11.83A3,3,0,0,1,325.1,309.1c6.007,21.209-18.1,78.252-24.884,85.04" fill="#6A2186"></path><path id="Path_38108" data-name="Path 38108" d="M240.857,336.306c19.481,12.107,32.927,35.038,35.431,57.838" fill="none" stroke="#fff" stroke-miterlimit="10" stroke-width="1"></path><path id="Path_38109" data-name="Path 38109" d="M260.791,314.509c9.572,7.62,14.439,19.539,17.381,31.08a233.029,233.029,0,0,1,6.642,48.555" fill="none" stroke="#fff" stroke-miterlimit="10" stroke-width="1"></path><path id="Path_38110" data-name="Path 38110" d="M318.955,317.131c-11.784,24.133-21.722,50.207-23.385,77.013" fill="none" stroke="#fff" stroke-miterlimit="10" stroke-width="1"></path></g><g id="Group_27378" data-name="Group 27378" transform="translate(242.155 60.277)"><path id="Path_38103-2" data-name="Path 38103" d="M312.871,394.144c3.626-2.322,12.341-27.915,14.792-33.4,1.9-4.25,3.847-8.766,3.3-13.39a2.778,2.778,0,0,0-.388-1.266c-.605-.877-1.885-.895-2.934-.707a23.2,23.2,0,0,0-9.67,4.766c-10.434,7.918-17.75,31.1-20.084,43.992h14.989Z" fill="#ffe8e4"></path><path id="Path_38104-2" data-name="Path 38104" d="M326,352.325a11.807,11.807,0,0,0-3.776,4.139c-7.207,11.294-10.816,24.974-15.373,37.68" fill="none" stroke="#fff" stroke-miterlimit="10" stroke-width="1"></path><path id="Path_38105-2" data-name="Path 38105" d="M278.159,394.144c.763-2.689-.26-8.827-.57-11.516-.627-5.443-1.432-10.87-2.357-16.27-1.616-9.435-5.609-18.755-12.491-25.554-4.756-4.7-12.912-9.291-19.492-10.588-11.789-2.325-7.346,13.772-4.3,19.471,2.963,5.552,8.476,9.194,13.767,12.6,8.744,5.631,18.361,27.857,21.076,31.856" fill="#6A2186"></path><path id="Path_38106-2" data-name="Path 38106" d="M287.852,394.144c4.888-7.973,3.169-42.061.718-52.738-2.534-11.041-10.923-26.594-23.877-30.934a69.682,69.682,0,0,0-7.982-2.155,3.675,3.675,0,0,0-4.606,2.928,8.714,8.714,0,0,0,1.04,5.7c23.855,35.378,26.686,77.2,26.686,77.2" fill="#ffe8e4"></path><path id="Path_38107-2" data-name="Path 38107" d="M288.747,394.144c-1.612-19.09-2.9-45.116,7.008-61.511,3.013-4.984,6.945-9.341,10.906-13.611,4.229-4.559,8.755-9.207,14.3-11.83A3,3,0,0,1,325.1,309.1c6.007,21.209-18.1,78.252-24.884,85.04" fill="#6A2186"></path><path id="Path_38108-2" data-name="Path 38108" d="M240.857,336.306c19.481,12.107,32.927,35.038,35.431,57.838" fill="none" stroke="#fff" stroke-miterlimit="10" stroke-width="1"></path><path id="Path_38109-2" data-name="Path 38109" d="M260.791,314.509c9.572,7.62,14.439,19.539,17.381,31.08a233.029,233.029,0,0,1,6.642,48.555" fill="none" stroke="#fff" stroke-miterlimit="10" stroke-width="1"></path><path id="Path_38110-2" data-name="Path 38110" d="M318.955,317.131c-11.784,24.133-21.722,50.207-23.385,77.013" fill="none" stroke="#fff" stroke-miterlimit="10" stroke-width="1"></path></g><g id="Group_27375" data-name="Group 27375" transform="translate(66 65.229)"><rect id="Rectangle_10161" data-name="Rectangle 10161" width="46.056" height="46.056" transform="translate(475.591 389.192) rotate(180)" fill="#FFD100"></rect><rect id="Rectangle_10162" data-name="Rectangle 10162" width="29.893" height="29.893" transform="translate(467.509 381.11) rotate(180)" fill="#c5dae4"></rect><path id="Path_38111" data-name="Path 38111" d="M443.308,334.735h46.056l-13.774,8.4H429.534Z" fill="#FFD100"></path><path id="Path_38112" data-name="Path 38112" d="M489.365,380.792l-13.774,8.4V343.135l13.774-8.4Z" fill="#06415d"></path></g><g id="Group_27376" data-name="Group 27376" transform="translate(9 -2)"><rect id="Rectangle_10163" data-name="Rectangle 10163" width="42.287" height="42.287" transform="translate(250.108 365.517)" fill="#FFD100"></rect><rect id="Rectangle_10164" data-name="Rectangle 10164" width="27.446" height="27.447" transform="translate(257.528 372.938)" fill="#c5c5c5" style="mix-blend-mode: screen;isolation: isolate"></rect><path id="Path_38113" data-name="Path 38113" d="M279.748,357.8H237.461l12.647,7.713h42.287Z" fill="#FFD100"></path><path id="Path_38114" data-name="Path 38114" d="M237.461,400.092l12.647,7.713V365.517L237.461,357.8Z" fill="#06415d"></path></g></g><g class="man"><g id="Group_28697" data-name="Group 28697" transform="translate(195.73 150.035)" clip-path="url(#clip-path)"><g id="Group_28686" data-name="Group 28686" transform="translate(-52.322 -91.793)"><g id="Group_28685" data-name="Group 28685" clip-path="url(#clip-path-2)"><path id="Path_37849" data-name="Path 37849" d="M379.589,677.072l50.194,68.285-8.935,80.81H379.589Z" transform="translate(-256.667 -569.924)" fill="#FFD100"></path><path id="Path_37850" data-name="Path 37850" d="M749.646,677.072l-50.194,68.285,8.935,80.81h41.259Z" transform="translate(-627.149 -569.924)" fill="#FFD100"></path><path id="Path_37851" data-name="Path 37851" d="M279.176,2923.256c0,8.73,29.889,15.807,66.759,15.807s66.759-7.077,66.759-15.807-29.889-15.807-66.759-15.807-66.759,7.077-66.759,15.807" transform="translate(-223.687 -2447.339)" fill="#ffe8d9" opacity="0.49"></path><path id="Path_37852" data-name="Path 37852" d="M515.821,2650.633l-4.545-43.876,20.259-3.1-2,46.974a4.81,4.81,0,0,0,.836,2.71l2.258,3.311h-19.9l2.257-3.311a4.811,4.811,0,0,0,.836-2.71" transform="translate(-380.353 -2191.625)" fill="#fbd3a8"></path><path id="Path_37853" data-name="Path 37853" d="M515.2,2923.678v4.753c-1.057,2.759-26.888,2.862-27.3,0v-4.4a8.649,8.649,0,0,1,.422-2.693c4.5-13.721,23.637-11.588,26.624.23a8.591,8.591,0,0,1,.255,2.106" transform="translate(-359.225 -2451.053)" fill="#6A2186"></path><path id="Path_37854" data-name="Path 37854" d="M525.51,2956.052c-3.051-6.824-19.565-6.84-22.365-.047a.781.781,0,0,0,.5,1.047c5.468,1.634,17.3,1.542,21.428.058a.78.78,0,0,0,.437-1.058" transform="translate(-372.008 -2483.933)" fill="#ffd9a4"></path><path id="Path_37855" data-name="Path 37855" d="M596.6,2981.229l-.826-2.673a.4.4,0,0,0-.752.006l-.664,2.526Z" transform="translate(-457.47 -2506.971)" fill="#6A2186"></path><path id="Path_37856" data-name="Path 37856" d="M488.673,2941.784c1.083,1.37,1.444,4.051,0,5.229,2.605-.2,4.944-.587,6.156-1.745l.018-4.753a11.175,11.175,0,0,0-4.666-8.652,3.218,3.218,0,0,1-2.282,4.292,6.732,6.732,0,0,1,4.692,4.009c.027,1.258-1.744,1.548-3.918,1.621" transform="translate(-338.872 -2467.891)" fill="#6A2186"></path><g id="Group_28648" data-name="Group 28648" transform="translate(151.183 469.414)" opacity="0.35"><g id="Group_28647" data-name="Group 28647" transform="translate(0)"><g id="Group_28646" data-name="Group 28646" clip-path="url(#clip-path-3)"><path id="Path_37857" data-name="Path 37857" d="M503.641,2966.246c1.042,1.384,1.061,3.627.336,4.185,1.006-.134,1.807-.378,1.966-.965a5.644,5.644,0,0,0-2.3-3.22" transform="translate(-503.641 -2966.246)" fill="#f8a364"></path></g></g></g><g id="Group_28651" data-name="Group 28651" transform="translate(130.923 469.259)" opacity="0.35"><g id="Group_28650" data-name="Group 28650" transform="translate(0)"><g id="Group_28649" data-name="Group 28649" clip-path="url(#clip-path-3)"><path id="Path_37858" data-name="Path 37858" d="M633.963,2965.27c-1.042,1.384-1.061,3.627-.336,4.186-1.006-.135-1.807-.379-1.966-.965a5.644,5.644,0,0,1,2.3-3.221" transform="translate(-631.661 -2965.27)" fill="#f8a364"></path></g></g></g><g id="Group_28654" data-name="Group 28654" transform="translate(131.941 463.491)" opacity="0.2"><g id="Group_28653" data-name="Group 28653"><g id="Group_28652" data-name="Group 28652" clip-path="url(#clip-path-5)"><path id="Path_37859" data-name="Path 37859" d="M603.8,2930.016c-1.654,1.035-2.749,2.265-2.447,2.748s1.888.036,3.541-1,2.749-2.265,2.447-2.748-1.888-.036-3.541,1" transform="translate(-601.301 -2928.823)" fill="#fff"></path></g></g></g><g id="Group_28657" data-name="Group 28657" transform="translate(129.538 472.576)" opacity="0.2"><g id="Group_28656" data-name="Group 28656" transform="translate(0)"><g id="Group_28655" data-name="Group 28655" clip-path="url(#clip-path-6)"><path id="Path_37860" data-name="Path 37860" d="M632.259,2986.278a.055.055,0,0,0-.11,0l-.2,3.484a.51.51,0,0,0,.465.509l3.108.392a.06.06,0,0,0,.026-.117l-2.522-.812a.51.51,0,0,1-.363-.394Z" transform="translate(-631.95 -2986.23)" fill="#fff"></path></g></g></g><g id="Group_28660" data-name="Group 28660" transform="translate(134.49 450.967)" opacity="0.35"><g id="Group_28659" data-name="Group 28659" transform="translate(0)"><g id="Group_28658" data-name="Group 28658" clip-path="url(#clip-path-7)"><path id="Path_37861" data-name="Path 37861" d="M529.286,2854.31c4.3,1.6,11.339,1.29,14.226-.283l.185-4.344-15.035.2Z" transform="translate(-528.662 -2849.683)" fill="#f8a364"></path></g></g></g><path id="Path_37862" data-name="Path 37862" d="M759.21,2650.633l4.544-43.876-20.259-3.1,2,46.974a4.812,4.812,0,0,1-.836,2.71l-2.258,3.311h19.9l-2.257-3.311a4.81,4.81,0,0,1-.836-2.71" transform="translate(-648.055 -2191.625)" fill="#fbd3a8"></path><path id="Path_37863" data-name="Path 37863" d="M728.194,2923.678v4.753c1.057,2.759,26.888,2.862,27.3,0v-4.4a8.651,8.651,0,0,0-.422-2.693c-4.5-13.721-23.637-11.588-26.624.23a8.6,8.6,0,0,0-.255,2.106" transform="translate(-637.547 -2451.053)" fill="#6A2186"></path><path id="Path_37864" data-name="Path 37864" d="M743.45,2956.052c3.051-6.824,19.565-6.84,22.365-.047a.781.781,0,0,1-.5,1.047c-5.468,1.634-17.3,1.542-21.428.058a.78.78,0,0,1-.437-1.058" transform="translate(-650.329 -2483.933)" fill="#ffd9a4"></path><path id="Path_37865" data-name="Path 37865" d="M780.087,2981.229l.826-2.673a.4.4,0,0,1,.752.006l.664,2.526Z" transform="translate(-672.592 -2506.971)" fill="#6A2186"></path><path id="Path_37866" data-name="Path 37866" d="M862.98,2941.784c-1.083,1.37-1.444,4.051,0,5.229-2.605-.2-4.944-.587-6.156-1.745l-.018-4.753a11.175,11.175,0,0,1,4.666-8.652,3.218,3.218,0,0,0,2.282,4.292,6.732,6.732,0,0,0-4.692,4.009c-.027,1.258,1.744,1.548,3.918,1.621" transform="translate(-766.158 -2467.891)" fill="#6A2186"></path><g id="Group_28663" data-name="Group 28663" transform="translate(93.139 469.414)" opacity="0.35"><g id="Group_28662" data-name="Group 28662" transform="translate(0)"><g id="Group_28661" data-name="Group 28661" clip-path="url(#clip-path-3)"><path id="Path_37867" data-name="Path 37867" d="M872.724,2966.246c-1.042,1.384-1.061,3.627-.336,4.185-1.006-.134-1.807-.378-1.966-.965a5.644,5.644,0,0,1,2.3-3.22" transform="translate(-870.422 -2966.246)" fill="#f8a364"></path></g></g></g><g id="Group_28666" data-name="Group 28666" transform="translate(113.398 469.259)" opacity="0.35"><g id="Group_28665" data-name="Group 28665" transform="translate(0)"><g id="Group_28664" data-name="Group 28664" clip-path="url(#clip-path-3)"><path id="Path_37868" data-name="Path 37868" d="M742.4,2965.27c1.042,1.384,1.061,3.627.336,4.186,1.006-.135,1.807-.379,1.966-.965a5.645,5.645,0,0,0-2.3-3.221" transform="translate(-742.402 -2965.27)" fill="#f8a364"></path></g></g></g><g id="Group_28669" data-name="Group 28669" transform="translate(108.594 463.491)" opacity="0.2"><g id="Group_28668" data-name="Group 28668" transform="translate(0)"><g id="Group_28667" data-name="Group 28667" clip-path="url(#clip-path-5)"><path id="Path_37869" data-name="Path 37869" d="M752.427,2930.016c1.654,1.035,2.749,2.265,2.447,2.748s-1.888.036-3.541-1-2.749-2.265-2.447-2.748,1.888-.036,3.541,1" transform="translate(-748.835 -2928.823)" fill="#fff"></path></g></g></g><g id="Group_28672" data-name="Group 28672" transform="translate(113.444 472.576)" opacity="0.2"><g id="Group_28671" data-name="Group 28671" transform="translate(0)"><g id="Group_28670" data-name="Group 28670" clip-path="url(#clip-path-6)"><path id="Path_37870" data-name="Path 37870" d="M736.983,2986.278a.055.055,0,0,1,.11,0l.2,3.484a.51.51,0,0,1-.464.509l-3.108.392a.06.06,0,0,1-.026-.117l2.522-.812a.51.51,0,0,0,.363-.394Z" transform="translate(-733.651 -2986.23)" fill="#fff"></path></g></g></g><g id="Group_28675" data-name="Group 28675" transform="translate(97.098 450.967)" opacity="0.35"><g id="Group_28674" data-name="Group 28674" transform="translate(0)"><g id="Group_28673" data-name="Group 28673" clip-path="url(#clip-path-7)"><path id="Path_37871" data-name="Path 37871" d="M779.351,2854.31c-4.3,1.6-11.339,1.29-14.226-.283l-.185-4.344,15.035.2Z" transform="translate(-764.94 -2849.683)" fill="#f8a364"></path></g></g></g><path id="Path_37872" data-name="Path 37872" d="M432.983,2277.831c14.318,10.4,76.1,10.4,84.786,0L513.761,2176l-77.055-.553Z" transform="translate(-353.103 -1831.177)" fill="#6A2186"></path><path id="Path_37873" data-name="Path 37873" d="M827.283,1004.848,797.434,981.5l-12.316,2.473c-1.144,9.786.491,21.179,3.519,33.377,10.484,21.4,20.013,24.3,20.013,24.3l18.632-.046Z" transform="translate(-718.285 -826.175)" fill="#2d2d2d"></path><path id="Path_37874" data-name="Path 37874" d="M355.909,1004.848,385.757,981.5l12.316,2.473c1.144,9.786-.491,21.179-3.519,33.377-10.484,21.4-20.013,24.3-20.013,24.3l-18.632-.046Z" transform="translate(-221.576 -826.175)" fill="#2d2d2d"></path><path id="Path_37875" data-name="Path 37875" d="M621.1,1412.6c0,3.313,5.711,6,12.755,6s12.755-2.686,12.755-6-5.711-6-12.755-6-12.755,2.685-12.755,6" transform="translate(-511.713 -1184.009)" fill="#aeb5b5"></path><path id="Path_37876" data-name="Path 37876" d="M626.9,1394.1h19.7c-.165,8,.949,13.036,2.123,16.186a3.083,3.083,0,0,1-.852,3.368c-4.3,3.846-17.159,5.225-22.393-.417a3.081,3.081,0,0,1-.63-3.147c1.147-3.161,2.212-8.155,2.051-15.99" transform="translate(-514.579 -1173.477)" fill="#fbd3a8"></path><g id="Group_28678" data-name="Group 28678" transform="translate(112.367 219.739)" opacity="0.35"><g id="Group_28677" data-name="Group 28677" transform="translate(0)"><g id="Group_28676" data-name="Group 28676" clip-path="url(#clip-path-13)"><path id="Path_37877" data-name="Path 37877" d="M658.464,1388.544l-18.792.126-.314,5.414c2.95,4.343,17.444,4.16,19.64-.2Z" transform="translate(-639.357 -1388.543)" fill="#f8a364"></path></g></g></g><path id="Path_37878" data-name="Path 37878" d="M443.663,1439.1V1653.35H483.38L480.5,1512.882l.046-67.519a1.179,1.179,0,0,0-.416-.834c-4.749-4.2-12.939-6.01-22.383-6.889a1.328,1.328,0,0,1-1.076-.746l-1.661-3.46a.371.371,0,0,0-.671.007c-2.675,5.643-10.68,5.655-10.68,5.655" transform="translate(-320.404 -1206.414)" fill="#6A2186"></path><path id="Path_37879" data-name="Path 37879" d="M352.472,1128.556c8.489,0,13.9-11.3,11.267-18.594a6.788,6.788,0,0,0-3.62-4c-3.071-1.317-5.841.3-7.647,1.515Z" transform="translate(-187.003 -930.526)" fill="#fbd3a8"></path><path id="Path_37880" data-name="Path 37880" d="M376.392,1138.251c11.51-4.094,9.568,12.916.108,13.333" transform="translate(-210.703 -957.586)" fill="#fbbd89"></path><path id="Path_37881" data-name="Path 37881" d="M376.382,1137.781a12.655,12.655,0,0,1,3.128-.7,6.671,6.671,0,0,1,1.585.055,4.35,4.35,0,0,1,1.478.514,3.5,3.5,0,0,1,1.133,1.077,4.481,4.481,0,0,1,.619,1.474,7.441,7.441,0,0,1,.189,1.617,13.014,13.014,0,0,1-.1,1.64,9.434,9.434,0,0,0,.081-3.293,4.7,4.7,0,0,0-.567-1.578,3.808,3.808,0,0,0-1.17-1.235,4.762,4.762,0,0,0-1.582-.648,7.165,7.165,0,0,0-1.693-.15,13.255,13.255,0,0,0-3.317.558Z" transform="translate(-210.952 -956.69)" fill="#603813"></path><path id="Path_37882" data-name="Path 37882" d="M985.556,1128.556c-8.489,0-13.9-11.3-11.267-18.594a6.787,6.787,0,0,1,3.62-4c3.071-1.317,5.841.3,7.646,1.515Z" transform="translate(-906.446 -930.526)" fill="#fbd3a8"></path><path id="Path_37883" data-name="Path 37883" d="M982.938,1138.251c-11.51-4.094-9.569,12.916-.108,13.333" transform="translate(-904.048 -957.586)" fill="#fbbd89"></path><path id="Path_37884" data-name="Path 37884" d="M980.462,1137.109a13.268,13.268,0,0,0-3.317-.558,7.155,7.155,0,0,0-1.693.151,4.749,4.749,0,0,0-1.582.648,3.809,3.809,0,0,0-1.17,1.234,4.7,4.7,0,0,0-.567,1.578,9.429,9.429,0,0,0,.081,3.293,13,13,0,0,1-.1-1.639,7.447,7.447,0,0,1,.189-1.617,4.479,4.479,0,0,1,.619-1.474,3.494,3.494,0,0,1,1.133-1.077,4.357,4.357,0,0,1,1.478-.514,6.679,6.679,0,0,1,1.585-.055,12.651,12.651,0,0,1,3.128.7Z" transform="translate(-901.099 -956.689)" fill="#603813"></path><path id="Path_37885" data-name="Path 37885" d="M405.482,852.889h86.531c11.741,53.485,3.305,88.658-42.673,89.761h-1.186c-45.978-1.1-54.414-36.276-42.673-89.761" transform="translate(-327.002 -717.918)" fill="#fbd3a8"></path><path id="Path_37886" data-name="Path 37886" d="M568.256,1099.706c0,3.4,1.725,6.149,3.852,6.149s3.852-2.753,3.852-6.149-1.725-6.149-3.852-6.149-3.852,2.753-3.852,6.149" transform="translate(-432.701 -920.5)" fill="#2d2d2d"></path><path id="Path_37887" data-name="Path 37887" d="M584.2,1103.412a1.918,1.918,0,1,0,1.876-2.321,2.135,2.135,0,0,0-1.876,2.321" transform="translate(-447.219 -926.841)" fill="#fff"></path><path id="Path_37888" data-name="Path 37888" d="M501.511,1173.053h4.141a3.375,3.375,0,0,1,3.2,2.137,2.751,2.751,0,0,1-.576,2.865,4.239,4.239,0,0,1-3.23,1.414h-2.187a6.649,6.649,0,0,1-2.5-.725c-.106-.062-2.227-1.158-2.418-2.3a2.5,2.5,0,0,1,.752-2.263,3.939,3.939,0,0,1,2.827-1.125" transform="translate(-354.633 -987.416)" fill="#ef8971"></path><path id="Path_37889" data-name="Path 37889" d="M786.711,1099.706c0,3.4,1.725,6.149,3.852,6.149s3.852-2.753,3.852-6.149-1.725-6.149-3.852-6.149-3.852,2.753-3.852,6.149" transform="translate(-685.728 -920.5)" fill="#2d2d2d"></path><path id="Path_37890" data-name="Path 37890" d="M802.659,1103.412a1.918,1.918,0,1,0,1.875-2.321,2.135,2.135,0,0,0-1.875,2.321" transform="translate(-700.245 -926.841)" fill="#fff"></path><path id="Path_37891" data-name="Path 37891" d="M842.912,1173.053h-4.141a3.375,3.375,0,0,0-3.2,2.137,2.752,2.752,0,0,0,.576,2.865,4.239,4.239,0,0,0,3.23,1.414h2.187a6.65,6.65,0,0,0,2.5-.725c.106-.062,2.227-1.158,2.418-2.3a2.5,2.5,0,0,0-.752-2.263,3.939,3.939,0,0,0-2.827-1.125" transform="translate(-745.547 -987.416)" fill="#ef8971"></path><path id="Path_37892" data-name="Path 37892" d="M679.067,1215.969a1.156,1.156,0,0,1-.551-.059c-3.345-.98-3.829,2.77-1.137,3.11,2.569.235,3.92-.633,4.748-1.746a1.015,1.015,0,0,0-.653-1.613,8.476,8.476,0,0,0-2.407.308" transform="translate(-556.064 -1023.265)" fill="#f8a364"></path><path id="Path_37893" data-name="Path 37893" d="M790.612,1030.447c3.7.069,5.106-3.484,2.525-5.647a5.213,5.213,0,0,0-3.946-.955c-3.843.412-6.225,1.773-6.649,4.4a2.876,2.876,0,0,0,.826,2.592c1.354,1.239,3.457.764,5.748-.143a3.864,3.864,0,0,1,1.5-.25" transform="translate(-685.1 -861.782)" fill="#2d2d2d"></path><path id="Path_37894" data-name="Path 37894" d="M553.912,1030.447c-3.7.069-5.106-3.484-2.525-5.647a5.213,5.213,0,0,1,3.946-.955c3.843.412,6.225,1.773,6.649,4.4a2.876,2.876,0,0,1-.826,2.592c-1.354,1.239-3.457.764-5.748-.143a3.864,3.864,0,0,0-1.5-.25" transform="translate(-415.887 -861.782)" fill="#2d2d2d"></path><path id="Path_37895" data-name="Path 37895" d="M400.842,984.614c7.079,8.116,8.8,23.214,7.944,39.414,4.661-14.265,2.854-39.414,2.854-39.414Z" transform="translate(-242.232 -828.798)" fill="#2d2d2d"></path><path id="Path_37896" data-name="Path 37896" d="M949.3,984.614c-7.079,8.116-8.8,23.214-7.944,39.414-4.661-14.265-2.854-39.414-2.854-39.414Z" transform="translate(-864.581 -828.798)" fill="#2d2d2d"></path><g id="Group_28681" data-name="Group 28681" transform="translate(118.121 226.813)" opacity="0.5"><g id="Group_28680" data-name="Group 28680" transform="translate(0)"><g id="Group_28679" data-name="Group 28679" clip-path="url(#clip-path-14)"><path id="Path_37897" data-name="Path 37897" d="M624.972,1437.657c-.5,4.815-5.835,8.4-12.377,8.884v95H605.77l.911-94.176,4.2-1.127v-7.124c4.873-.281,8.782-1.906,10.7-5.7a.374.374,0,0,1,.647.037l1.85,3.75a1.351,1.351,0,0,0,.887.457" transform="translate(-605.77 -1433.243)" fill="#aeb5b5"></path></g></g></g><path id="Path_37898" data-name="Path 37898" d="M679.212,1514.2l5.3,1.542v93.942" transform="translate(-558.811 -1274.576)" fill="none" stroke="#aeb5b5" stroke-miterlimit="10" stroke-width="15"></path><path id="Path_37899" data-name="Path 37899" d="M720.668,1439.1v7.124l4.2,1.127v206h-43.53l2.486-140.468-.046-67.519a1.179,1.179,0,0,1,.416-.834c4.749-4.2,12.939-6.01,22.383-6.889a1.328,1.328,0,0,0,1.076-.746l1.661-3.46a.371.371,0,0,1,.671.007c2.675,5.643,10.68,5.655,10.68,5.655" transform="translate(-599.508 -1206.414)" fill="#6A2186"></path><g id="Group_28684" data-name="Group 28684" transform="translate(107.072 226.813)" opacity="0.5"><g id="Group_28683" data-name="Group 28683" transform="translate(0)"><g id="Group_28682" data-name="Group 28682" clip-path="url(#clip-path-14)"><path id="Path_37900" data-name="Path 37900" d="M675.586,1437.657c.5,4.815,5.835,8.4,12.377,8.884v95h6.824l-.911-94.176-4.2-1.127v-7.124c-4.873-.281-8.782-1.906-10.7-5.7a.375.375,0,0,0-.647.037l-1.85,3.75a1.351,1.351,0,0,1-.887.457" transform="translate(-675.586 -1433.243)" fill="#aeb5b5"></path></g></g></g><path id="Path_37901" data-name="Path 37901" d="M688.122,1552.865a1.55,1.55,0,1,0,1.55-1.55,1.55,1.55,0,0,0-1.55,1.55" transform="translate(-566.932 -1305.817)" fill="#aeb5b5"></path><path id="Path_37902" data-name="Path 37902" d="M688.122,1673.033a1.55,1.55,0,1,0,1.55-1.55,1.55,1.55,0,0,0-1.55,1.55" transform="translate(-566.932 -1406.968)" fill="#aeb5b5"></path><path id="Path_37903" data-name="Path 37903" d="M688.122,1799.795a1.55,1.55,0,1,0,1.55-1.55,1.549,1.549,0,0,0-1.55,1.55" transform="translate(-566.932 -1513.67)" fill="#aeb5b5"></path><path id="Path_37904" data-name="Path 37904" d="M688.122,1919.963a1.55,1.55,0,1,0,1.55-1.55,1.55,1.55,0,0,0-1.55,1.55" transform="translate(-566.932 -1614.821)" fill="#aeb5b5"></path><path id="Path_37905" data-name="Path 37905" d="M688.122,2040.131a1.55,1.55,0,1,0,1.55-1.55,1.549,1.549,0,0,0-1.55,1.55" transform="translate(-566.932 -1715.972)" fill="#aeb5b5"></path><path id="Path_37906" data-name="Path 37906" d="M584.2,1252.311v-3.944c8.752-.4,14.122.776,16.859,3.638a9.013,9.013,0,0,1,2.444,6.24v4.582H599.28c1.58-3.712,2.038-6.837,0-8.916a5.041,5.041,0,0,0-3.549-1.474Z" transform="translate(-462.77 -1050.747)" fill="#2d2d2d"></path><path id="Path_37907" data-name="Path 37907" d="M721.846,1252.311v-3.944c-8.752-.4-14.122.776-16.858,3.638a9.012,9.012,0,0,0-2.444,6.24v4.582h4.225c-1.581-3.712-2.038-6.837,0-8.916a5.041,5.041,0,0,1,3.549-1.474Z" transform="translate(-599.839 -1050.747)" fill="#2d2d2d"></path></g></g><g id="Group_28694" data-name="Group 28694" transform="translate(10.352 5.638)"><g id="Group_28693" data-name="Group 28693" clip-path="url(#clip-path-16)"><rect id="Rectangle_9892" data-name="Rectangle 9892" width="233.187" height="223.048" transform="translate(-62.674 -30.781)" fill="#fff"></rect><g id="Group_28689" data-name="Group 28689" transform="translate(-60.221 -30.78)" opacity="0.6"><g id="Group_28688" data-name="Group 28688"><g id="Group_28687" data-name="Group 28687" clip-path="url(#clip-path-17)"><rect id="Rectangle_9893" data-name="Rectangle 9893" width="4.092" height="223.048" transform="translate(189.696 0)" fill="#6A2186"></rect><rect id="Rectangle_9894" data-name="Rectangle 9894" width="4.093" height="223.048" transform="translate(198.319 0)" fill="#6A2186"></rect><rect id="Rectangle_9895" data-name="Rectangle 9895" width="4.093" height="223.048" transform="translate(181.074 0)" fill="#6A2186"></rect><rect id="Rectangle_9896" data-name="Rectangle 9896" width="4.093" height="223.048" transform="translate(172.451 0)" fill="#6A2186"></rect><rect id="Rectangle_9897" data-name="Rectangle 9897" width="4.092" height="223.048" transform="translate(163.829 0)" fill="#6A2186"></rect><rect id="Rectangle_9898" data-name="Rectangle 9898" width="4.093" height="223.048" transform="translate(155.206 0)" fill="#6A2186"></rect><rect id="Rectangle_9899" data-name="Rectangle 9899" width="4.092" height="223.048" transform="translate(146.584 0)" fill="#6A2186"></rect><rect id="Rectangle_9900" data-name="Rectangle 9900" width="4.093" height="223.048" transform="translate(103.471 0)" fill="#6A2186"></rect><rect id="Rectangle_9901" data-name="Rectangle 9901" width="4.092" height="223.048" transform="translate(112.093 0)" fill="#6A2186"></rect><rect id="Rectangle_9902" data-name="Rectangle 9902" width="4.092" height="223.048" transform="translate(120.716 0)" fill="#6A2186"></rect><rect id="Rectangle_9903" data-name="Rectangle 9903" width="4.093" height="223.048" transform="translate(129.338 0)" fill="#6A2186"></rect><rect id="Rectangle_9904" data-name="Rectangle 9904" width="4.092" height="223.048" transform="translate(137.961 0)" fill="#6A2186"></rect><rect id="Rectangle_9905" data-name="Rectangle 9905" width="4.092" height="223.048" transform="translate(94.848 0)" fill="#6A2186"></rect><rect id="Rectangle_9906" data-name="Rectangle 9906" width="4.093" height="223.048" transform="translate(86.226 0)" fill="#6A2186"></rect><rect id="Rectangle_9907" data-name="Rectangle 9907" width="4.092" height="223.048" transform="translate(77.603 0)" fill="#6A2186"></rect><rect id="Rectangle_9908" data-name="Rectangle 9908" width="4.092" height="223.048" transform="translate(68.981 0)" fill="#6A2186"></rect><rect id="Rectangle_9909" data-name="Rectangle 9909" width="4.092" height="223.048" transform="translate(60.358 0)" fill="#6A2186"></rect><rect id="Rectangle_9910" data-name="Rectangle 9910" width="4.092" height="223.048" transform="translate(51.735 0)" fill="#6A2186"></rect></g></g></g><g id="Group_28692" data-name="Group 28692" transform="translate(-57.605 -33.396)" opacity="0.8"><g id="Group_28691" data-name="Group 28691"><g id="Group_28690" data-name="Group 28690" clip-path="url(#clip-path-18)"><rect id="Rectangle_9912" data-name="Rectangle 9912" width="223.048" height="4.093" transform="translate(0 189.696)" fill="#6A2186"></rect><rect id="Rectangle_9913" data-name="Rectangle 9913" width="223.048" height="4.092" transform="translate(0 198.319)" fill="#6A2186"></rect><rect id="Rectangle_9914" data-name="Rectangle 9914" width="223.048" height="4.092" transform="translate(0 206.942)" fill="#6A2186"></rect><rect id="Rectangle_9915" data-name="Rectangle 9915" width="223.048" height="4.092" transform="translate(0 215.564)" fill="#6A2186"></rect><rect id="Rectangle_9916" data-name="Rectangle 9916" width="223.048" height="4.092" transform="translate(0 224.187)" fill="#6A2186"></rect><rect id="Rectangle_9917" data-name="Rectangle 9917" width="223.048" height="4.092" transform="translate(0 181.074)" fill="#6A2186"></rect><rect id="Rectangle_9918" data-name="Rectangle 9918" width="223.048" height="4.092" transform="translate(0 172.451)" fill="#6A2186"></rect><rect id="Rectangle_9919" data-name="Rectangle 9919" width="223.048" height="4.092" transform="translate(0 163.829)" fill="#6A2186"></rect><rect id="Rectangle_9920" data-name="Rectangle 9920" width="223.048" height="4.092" transform="translate(0 155.206)" fill="#6A2186"></rect><rect id="Rectangle_9921" data-name="Rectangle 9921" width="223.048" height="4.092" transform="translate(0 146.584)" fill="#6A2186"></rect><rect id="Rectangle_9922" data-name="Rectangle 9922" width="223.048" height="4.092" transform="translate(0 103.471)" fill="#6A2186"></rect><rect id="Rectangle_9923" data-name="Rectangle 9923" width="223.048" height="4.092" transform="translate(0 112.094)" fill="#6A2186"></rect><rect id="Rectangle_9924" data-name="Rectangle 9924" width="223.048" height="4.092" transform="translate(0 120.716)" fill="#6A2186"></rect><rect id="Rectangle_9925" data-name="Rectangle 9925" width="223.048" height="4.092" transform="translate(0 129.339)" fill="#6A2186"></rect><rect id="Rectangle_9926" data-name="Rectangle 9926" width="223.048" height="4.092" transform="translate(0 137.961)" fill="#6A2186"></rect><rect id="Rectangle_9927" data-name="Rectangle 9927" width="223.048" height="4.092" transform="translate(0 94.848)" fill="#6A2186"></rect><rect id="Rectangle_9928" data-name="Rectangle 9928" width="223.048" height="4.093" transform="translate(0 86.226)" fill="#6A2186"></rect><rect id="Rectangle_9929" data-name="Rectangle 9929" width="223.048" height="4.093" transform="translate(0 77.603)" fill="#6A2186"></rect><rect id="Rectangle_9930" data-name="Rectangle 9930" width="223.048" height="4.093" transform="translate(0 68.98)" fill="#6A2186"></rect><rect id="Rectangle_9931" data-name="Rectangle 9931" width="223.048" height="4.092" transform="translate(0 60.358)" fill="#6A2186"></rect><rect id="Rectangle_9932" data-name="Rectangle 9932" width="223.048" height="4.092" transform="translate(0 51.735)" fill="#6A2186"></rect><rect id="Rectangle_9933" data-name="Rectangle 9933" width="223.048" height="4.092" transform="translate(0 43.113)" fill="#6A2186"></rect><rect id="Rectangle_9934" data-name="Rectangle 9934" width="223.048" height="4.093" transform="translate(0 34.49)" fill="#6A2186"></rect><rect id="Rectangle_9935" data-name="Rectangle 9935" width="223.048" height="4.092" transform="translate(0 25.868)" fill="#6A2186"></rect><rect id="Rectangle_9936" data-name="Rectangle 9936" width="223.048" height="4.092" transform="translate(0 17.245)" fill="#6A2186"></rect><rect id="Rectangle_9937" data-name="Rectangle 9937" width="223.048" height="4.092" transform="translate(0 8.623)" fill="#6A2186"></rect><rect id="Rectangle_9938" data-name="Rectangle 9938" width="223.048" height="4.092" transform="translate(0 0)" fill="#6A2186"></rect></g></g></g></g></g><g id="Group_28696" data-name="Group 28696" transform="translate(-52.322 -91.793)"><g id="Group_28695" data-name="Group 28695" clip-path="url(#clip-path-2)"><path id="Path_37909" data-name="Path 37909" d="M339.851,847.042H449.781a2.853,2.853,0,0,0,2.853-2.853v-.5a7.988,7.988,0,0,0-7.988-7.988h-99.66A7.988,7.988,0,0,0,337,843.686v.5a2.853,2.853,0,0,0,2.853,2.853" transform="translate(-272.778 -703.448)" fill="#2d2d2d"></path><g id="Group_28732" data-name="Group 28732" transform="translate(110.699 202.413)"><path id="Path_37910" data-name="Path 37910" d="M633.508,1280.681a78.613,78.613,0,0,0,21.919,0s1.168,10.821-10.86,10.79h-.2c-12.028.031-10.86-10.79-10.86-10.79" transform="translate(-633.22 -1280.423)" fill="#be1717"></path><path id="Path_37911" data-name="Path 37911" d="M633.509,1280.681a78.576,78.576,0,0,0,21.919,0,9.566,9.566,0,0,1,.016,1.356c-2.18.845-5.639,1.531-10.975,1.512-5.336.02-8.795-.667-10.975-1.512a9.594,9.594,0,0,1,.016-1.356" transform="translate(-633.221 -1280.423)" fill="#fff"></path><path id="Path_37912" data-name="Path 37912" d="M652.4,1319.209a12.306,12.306,0,0,1,7.906-2.562v0l.09,0,.09,0v0a12.306,12.306,0,0,1,7.905,2.562c-1.619,1.471-4.1,2.544-7.9,2.534h-.2c-3.8.01-6.276-1.063-7.9-2.534" transform="translate(-649.151 -1310.696)" fill="#ff2929"></path><path id="Path_37913" data-name="Path 37913" d="M642.96,1290.36h.236c.17,0,.336,0,.5-.005l.11,0c.159,0,.316-.011.471-.019l.079-.005c.137-.008.271-.018.4-.029l.1-.008q.218-.019.429-.044l.112-.014q.184-.023.363-.049l.076-.011c.132-.02.261-.043.388-.066l.13-.024c.122-.024.243-.048.362-.075l.071-.017.04-.009q.135-.031.268-.065l.012,0,.131-.034q.158-.042.312-.088l.129-.039.024-.008.192-.061.214-.073.206-.075.178-.069.125-.051q.159-.066.312-.135l.085-.039.2-.094.01,0c.127-.062.263-.134.4-.21l.029-.016c5.274-2.95,4.69-9.353,4.663-9.624a.265.265,0,0,0-.1-.178.262.262,0,0,0-.193-.057l-.041.005a78.295,78.295,0,0,1-21.772,0l-.041-.005a.259.259,0,0,0-.193.055.256.256,0,0,0-.1.177c-.028.275-.612,6.679,4.663,9.629l.027.015c.141.078.275.148.409.214.066.032.132.064.2.095l.084.038q.154.07.314.136l.124.051.179.07.2.074c.072.026.144.05.217.074l.19.061.031.01.123.038c.1.03.206.059.312.088l.138.035c.093.024.181.045.272.066l.04.009.072.017c.118.026.239.051.36.074l.13.024c.128.023.256.046.388.066l.076.011c.119.018.24.034.362.049l.112.014c.141.016.283.031.429.044l.1.008c.133.011.267.021.4.029l.079.005h0c.154.009.311.015.471.019l.11,0c.153,0,.307.006.463.006m.139-.515H643c-.165,0-.327,0-.487-.006l-.107,0q-.232-.007-.458-.019h0l-.077,0q-.2-.012-.391-.028l-.095-.008q-.211-.018-.414-.043l-.109-.013q-.178-.022-.35-.047l-.074-.011c-.127-.019-.251-.041-.374-.063l-.125-.023c-.117-.023-.233-.046-.347-.071l-.108-.025-.256-.062-.137-.035q-.151-.04-.3-.084l-.116-.035-.031-.01-.182-.058-.207-.071c-.065-.023-.13-.046-.194-.071l-.17-.066-.118-.048q-.152-.063-.3-.129l-.079-.036q-.1-.044-.188-.089c-.128-.063-.254-.129-.387-.2l-.026-.015c-4.469-2.5-4.484-7.646-4.421-8.868a78.4,78.4,0,0,0,21.445,0c.063,1.238.041,6.372-4.42,8.868l-.02.011c-.136.075-.265.143-.391.205-.064.032-.126.061-.189.09l-.081.037q-.145.066-.3.128l-.119.048-.169.066-.2.072-.2.07-.183.059-.025.008-.122.037q-.147.044-.3.084l-.124.032-.012,0-.257.062-.043.01-.063.015c-.114.025-.23.048-.348.071l-.125.023c-.123.022-.247.044-.374.063l-.073.011q-.173.026-.351.047l-.108.013c-.136.016-.275.03-.415.043l-.095.008q-.193.016-.391.028l-.077,0q-.226.012-.458.019l-.107,0c-.16,0-.322.006-.487.006Z" transform="translate(-631.849 -1279.055)" fill="#f8a364"></path></g><path id="Path_37914" data-name="Path 37914" d="M440.471,1285.473c5.513,8.868,15.506,11.753,22.746,8.316l4.225.336c2.524,3.416,10.305,5.092,13.529,4.078.214-1.769-.29-1.25-1.548-1.976h5.616c-1.257.726-1.761.207-1.548,1.976,3.224,1.014,11.005-.662,13.529-4.078l4.225-.336c7.24,3.437,17.232.552,22.746-8.316-5.391,11.06-17.016,20.514-41.473,21.486v.023c-.1,0-.478,0-.575,0v-.023c-24.457-.973-36.082-10.426-41.473-21.486" transform="translate(-360.512 -1082.045)" fill="#2d2d2d"></path><path id="Path_37915" data-name="Path 37915" d="M881.66,1536.34l13.021-30.26c7.984-15.739,19.474-2.336,13.7,7.384L895.163,1543.5c-7.223,12.159-19.2,5.727-13.5-7.161" transform="translate(-816.048 -1261.646)" fill="#6A2186" fill-rule="evenodd"></path><path id="Path_37916" data-name="Path 37916" d="M850.774,1746.411l23.466,37.5a1.468,1.468,0,0,0,1.64.615,23.524,23.524,0,0,0,8.437-5.583,1.48,1.48,0,0,0,.073-1.755l-20.225-38.686c-4.744-6.9-17.262,1.348-13.392,7.9" transform="translate(-785.977 -1461.19)" fill="#6A2186"></path><path id="Path_37917" data-name="Path 37917" d="M364.99,1549.076l-10.2-32.73c-1.4-8.794.889-12.885,8.008-10.833,5.216,4.782,12.381,21.842,16.949,43.563,0,4.589-12.675,7.746-14.754,0" transform="translate(-202.64 -1266.824)" fill="#6A2186"></path><path id="Path_37918" data-name="Path 37918" d="M202.385,1348.537s-.784-5.749-1.126-8.074,3.41-7.024,4.366-7.146a6.038,6.038,0,0,1,2.14.25s5.819-11.269,7.038-12.111a1.4,1.4,0,0,1,2.022.442s-1.351,2.8-4.061,9.258c0,0,3.78,1.6,4.187,2.382a4.757,4.757,0,0,0,1.712,2.1c.9.549,1.645,1.226,1.141,3.616-1.231,5.837-8.839,12.566-8.839,12.566Z" transform="translate(-18.625 -1112.092)" fill="#fbd3a8"></path><path id="Path_37919" data-name="Path 37919" d="M220.366,1384.2c-1.2-.2-3.138,1.962-3.766,2.989l-1.234-.578s1.5,1.444,1.894,1.951,1.576,1.316.91,2.407-2.878.093-3.941-.909c0,0,1.666,3.046,1.274,5.275a13.213,13.213,0,0,1,3.695,1.023c1.091.667,3.1-.311,3.516-.849,0,0,1.369-.221,1.423-.453s1.376-2.245,1.376-2.245-1.326.865-1.672.565c0,0-.806.742-1.48-.464s2.5-3.231,2.5-3.231a2.9,2.9,0,0,0-1.969.914,11.389,11.389,0,0,0-1.173,1.487s-1.73-1.057-1.6-1.857a6.742,6.742,0,0,1,2.9-3.165,3.7,3.7,0,0,0-2.357,1.117c-.9,1.038-2.914-.281-2.782-.642a3.792,3.792,0,0,1,1.241-1.887,5.114,5.114,0,0,0,1.237-1.448" transform="translate(-26.228 -1165.138)" fill="#f8a364"></path><path id="Path_37920" data-name="Path 37920" d="M260.751,1530.739l16.945-44.223a1.572,1.572,0,0,0-.53-1.8,25.18,25.18,0,0,0-10.208-3.616,1.584,1.584,0,0,0-1.547,1.068l-20.045,42.214c-2.842,8.5,12.273,13.89,15.385,6.356" transform="translate(-83.379 -1246.714)" fill="#6A2186"></path></g></g></g></g></g></svg> 