<?xml version="1.0" encoding="UTF-8"?> <svg xmlns="http://www.w3.org/2000/svg" xmlns:xlink="http://www.w3.org/1999/xlink" xmlns:v="https://vecta.io/nano" width="923.442" height="552.668"><style><![CDATA[.G{animation-name:tranfX;animation-fill-mode:both;animation-duration:2.5s;transform-origin:bottom;animation-iteration-count:infinite}.E{animation-delay:.2s;animation-name:tranfX;animation-fill-mode:both;transform-origin:bottom;animation-duration:2.5s;animation-iteration-count:infinite}.F{animation-delay:.4s;animation-name:tranfX;transform-origin:bottom;animation-fill-mode:both;animation-duration:2.5s;animation-iteration-count:infinite}.D{animation-delay:.6s;animation-name:tranfX;transform-origin:bottom;animation-fill-mode:both;animation-duration:2.5s;animation-iteration-count:infinite}.C{animation-delay:.8s;animation-name:tranfX;transform-origin:bottom;animation-fill-mode:both;animation-duration:2.5s;animation-iteration-count:infinite}.B{animation-name:tob-bottom;transform-origin:bottom;animation-fill-mode:both;animation-duration:2.5s;animation-iteration-count:infinite}.I{animation-name:search;transform-origin:bottom;animation-fill-mode:both;animation-duration:2.5s;animation-iteration-count:infinite}.H{animation-name:man1;animation-fill-mode:both;animation-duration:2.5s;transform-origin:left;animation-iteration-count:infinite}.A{animation-name:line-st;animation-fill-mode:both;animation-duration:2.5s;transform-origin:left;animation-iteration-count:infinite}@keyframes tranfX{0%{transform:scaleY(1)}50%{transform:scaleY(.1)}100%{transform:scaleY(1)}} @keyframes tob-bottom{0%{transform:translateY(0px)}50%{transform:translateY(-10px)}100%{transform:translateY(0px)}} @keyframes seach{0%{transform:translatex(0px)}50%{transform:translateX(50px)}100%{transform:translateY(0px)}} @keyframes man1{0%{transform:translateX(0px)}50%{transform:translateX(50px)}100%{transform:translateX(0px)}} @keyframes line-st{0%{transform:translateY(0px)}50%{transform:translateY(50px)}100%{transform:translateY(0px)}}.J{stroke-miterlimit:10}.K{fill:none}.L{fill:#f8a364}.M{fill:#fbd3a8}.N{stroke-width:.5}.O{stroke:#010001}.P{fill:#fff}.Q{opacity:.35}.R{fill:#6A2186}.S{fill:#2d2d2d}.T{fill:#dc80ff}.U{stroke-linecap:round}.V{fill:#bfbcc0}.W{fill:#6A2186}.X{fill:#6A2186}.Y{fill:#aeb5b5}.Z{fill-rule:evenodd}.a{stroke-width:.476}.b{stroke-dasharray:3.81}]]></style><defs><linearGradient id="A" x1=".5" x2=".5" y2="1"><stop offset="0" stop-color="#6A2186" stop-opacity=".878"></stop><stop offset="1" stop-color="#d13c44" stop-opacity=".922"></stop></linearGradient><clipPath id="B"><path d="M2821.161 691.871h5.155c72.059 7.09 93.371 75.764 59.748 211.615-2.753-8.352-6.257-19.734-11.881-26.662 6.525-49.921 9.407-92.894-6.905-111.752-14.015 5.279-73.062 5.279-87.078 0-16.311 18.857-13.375 62.246-6.851 112.167-5.044 6.828-8.848 17.894-11.6 26.246-33.625-135.85-12.649-204.524 59.412-211.614z" transform="translate(-2746.114 -691.871)" class="K"></path></clipPath><clipPath id="C"><circle cx="83.905" cy="83.905" r="83.905" transform="matrix(.707107 -.707107 .707107 .707107 0 118.659)" class="K"></circle></clipPath><linearGradient id="D" x1=".5" x2=".5" y2="1"><stop offset="0" stop-color="#6A2186"></stop><stop offset="1" stop-color="#b52d35" stop-opacity=".922"></stop></linearGradient><path id="E" d="M234.616 377.232c0 2.907-2.357 5.264-5.264 5.264s-5.264-2.357-5.264-5.264 2.357-5.264 5.264-5.264c1.396 0 2.735.555 3.722 1.542s1.542 2.326 1.542 3.722z"></path><path id="F" d="M70.395 201.218c0 2.907-2.357 5.264-5.264 5.264s-5.264-2.357-5.264-5.264 2.357-5.264 5.264-5.264c1.396 0 2.735.554 3.723 1.541s1.542 2.326 1.541 3.723z"></path><path id="G" d="M589.273 153.522h-49.726a1.8 1.8 0 0 1-1.8-1.8h0a1.8 1.8 0 0 1 1.8-1.8h49.727a1.8 1.8 0 0 1 1.8 1.8h0a1.8 1.8 0 0 1-1.801 1.8z"></path><path id="H" d="M0 0h5.344v291.258H0z"></path></defs><path d="M152.836 550.682S17.975 524.008 11.101 429.774C3.187 321.314 112.023 320.118 95.328 241.5 72.025 131.767 113.76 50.666 215.865 55.172c86.1 3.8 162.563 86.972 208.624 29.007 49.676-62.515 142.6-108.705 234.554-69.985s78.408 164.542 142 191.277c177.8 66.71 155.774 340.731-51.646 346.2-45.807.988-562.44-.91-596.561-.989zm670.423-364.185s-24.925-48.044 17.616-71.175c45.795-24.9 80.9 21.358 70.092 59.447s-74.439 36.399-87.708 11.728zM35.68 221.961c-42.046-37.208 41.734-74.989 40.047-21.789-2.661 11.543-17.576 36.863-40.047 21.789z" fill="#FFD100"></path><g stroke="#ffb6a7" class="J K"><path d="M736.434 551.081c-11.082.779-55.832 1.494-47.909-36.408 7.78-29.208-34.56-28.289-21.921-56.512 3.043-10.685-10.666-7.034-13.315-23.116s7.382-29.535 24.742-29.449 13.466 18.1 19.122 24.749 14.415.525 20.215 16.375c6.15 22.308-4.19 25.016 14.684 36.052"></path><path d="M716.94 508.481c-9.151-18.625-21.507-42.277-37.038-68.753m-6.418 30.934l25.309 2.625" class="N"></path><path d="M682.327 458.842c.078 4.3-7.73 4.3-7.652 0-.079-4.3 7.729-4.3 7.652 0zm8.526-29.81c-2.419 4.335-9.173.435-6.628-3.828 2.421-4.335 9.174-.436 6.628 3.828zm15.408 86.826c.1 5.36-9.635 5.359-9.539 0-.096-5.359 9.635-5.36 9.539 0zm-22.237-96.625a1.7 1.7 0 0 1-3.4 0 1.7 1.7 0 0 1 3.4 0zm117.605 128.17c-9.171-6.545-10.079-48.035 27.529-56.434 19.205-4.289 16.128-13.9 20.008-26.269s8.751-13.275 19.744-14.954 2.74-16.663 15.788-25.341 30.564-9.343 37.088 9.623c5.525 16.058-10.124 23.131-13.316 30.6s6.094 17.55-5.228 28.811-23.434 2.783-23.584 14.709-5.447 33.654-16.943 38.125c-14.218 5.53-53.844 6.295-61.086 1.13z"></path><path d="M813.705 551.423c.553-.667 37.657-42.462 78.06-97.725" class="N"></path><path d="M827.188 491.448c-13.006-54.187 20.757-24.089 44.456-67.3 14.115-33-20.448-45-4.193-58.807s20.792-61.265-3.018-69.426c-30.867-10.579-58.608 8.772-62.379 34.262-2.908 19.661 10.273 33.393-24.034 47.806s-29.007 32.31-21.96 66.542-16.137 21.681-34.155 50.575c-14.279 22.9 5.787 46.251 14.734 54.96l69.441 1.194"></path><g class="N"><path d="M749.927 549.562L854.344 317.85"></path><path d="M814.061 404.489l46.557-2.575m-93.566 108.615l36.719-4.13m-40.224-111.811l27.356 61.405"></path></g><path d="M829.864 324.548c-5.266 7.92-14.9 1.362-9.463-6.442 5.266-7.92 14.901-1.363 9.463 6.442zm1.669 18.083c.061 4.152-6.463 4.153-6.4 0-.063-4.153 6.462-4.153 6.4 0zm23.208 82.564c.119 8.071-12.558 8.071-12.439 0-.119-8.074 12.558-8.074 12.439 0zm-781.053 124.8c-7.393 1.936-40.817 7.484-40.283-19.144.273-13.6-3.692-13.106-11.661-18.435s-7.776-8.738-7.077-16.348-6.887-3.925-11.94-13.932c-6.043-11.972 1.235-20.9 12.98-23.054s11.4 10.52 16.073 14.3 11.124-4.345 20.093 6.666c5.856 7.188-3.235 23.588 5.377 22.059"></path><g class="N"><path d="M57.413 526.795c-8.778-11.868-20.942-27.476-36.1-44.882"></path><path d="M39.799 480.499l-1.45 21.7-17.441 1.445"></path></g><path d="M21.486 392.516c-44.329-55.3 39.937-95.827 58.66-30.237 2.609 16.906-9.215 28.713 21.557 41.107s26.019 27.785 19.7 57.221 14.475 18.643 30.636 43.491c12.808 19.689-5.19 39.771-13.216 47.26l-62.942-.306c-26.053-13.921-19.049-45.2-15.972-67.359 2.279-22.115-29.514-12.228-42.177-40.607s18.333-38.694 3.754-50.57z"></path><g class="N"><path d="M126.9 550.927L33.241 351.676"></path><path d="M69.375 426.179l-41.76-2.215m83.925 93.4L64.578 512.3m50.106-94.636l-24.537 52.803"></path></g><path d="M55.196 357.436c4.565 6.716 13.4 1.348 8.487-5.539-4.559-6.717-13.387-1.349-8.487 5.539zm-1.494 15.551c-.055 3.57 5.8 3.57 5.743 0 .055-3.573-5.798-3.572-5.743 0zM32.885 443.98c-.107 6.938 11.266 6.938 11.158 0 .105-6.936-11.266-6.936-11.158 0zm262.234-20.124c44.879-40.531-20.568-86.157-45.282-33.467-4.5 13.883 3.846 25.44-23.763 31.682s-25.7 19.853-24.394 45.507-14.734 13.727-31.735 32.451c-13.473 14.837-1.053 34.205 4.685 41.608l53.055 8.326c23.843-8.168 22.209-35.468 22.643-54.553 1.1-18.937 26.525-6.274 41.062-28.449s-10.17-35.091 3.729-43.105z"></path><g class="N"><path d="M184.728 542.9s85.669-129.335 106.061-155.045"></path><path d="M250.193 445.676l35.474 3.83m-83.424 67.219l40.245 2.14m-29.295-86.54l13.465 47.82"></path></g><path d="M271.508 389.71c-4.76 5.034-11.467-.691-6.393-5.823 4.76-5.034 11.467.693 6.393 5.823zm6.991 75.936c-.856 5.859-10.435 4.308-9.4-1.522.858-5.858 10.438-4.307 9.4 1.522z"></path></g><g class="A"><path d="M66.602 203.204l163.41 175.641 53.8-98.03 44.06 103.826 92.711-88.574 86.607 127.882 91.6-223.73 114.757 42.023 90.986-127.1 42.189 35.98 45.261-70.74" stroke="#6A2186" class="J K U"></path><g class="T"><use xlink:href="#E"></use><use xlink:href="#F"></use><use xlink:href="#E" x="99.293" y="6.981"></use><use xlink:href="#E" x="277.839" y="46.716"></use><path d="M604.051 201.088c-.001 2.907-2.357 5.262-5.264 5.262s-5.263-2.357-5.262-5.263 2.356-5.263 5.263-5.263c1.396 0 2.735.555 3.722 1.542s1.541 2.326 1.541 3.722z"></path><use xlink:href="#E" x="484.194" y="-135.485"></use><use xlink:href="#F" x="739.081" y="-86.876"></use><path d="M851.774 151.123c-.001 2.906-2.357 5.262-5.263 5.262s-5.262-2.356-5.263-5.263 2.356-5.263 5.262-5.263c1.396 0 2.735.554 3.723 1.541s1.542 2.326 1.541 3.723zm31.792-67.797l8.584 4.805 6.082-17.024z"></path></g></g><g class="Z"><path d="M115.141 137.645a22.38 22.38 0 0 1 4.866 3.428l5.2-1.852 4.887 7.714-3.893 3.912a22.38 22.38 0 0 1 1.02 5.862l4.984 2.367-2 8.911-5.517.012a22.32 22.32 0 0 1-3.429 4.867l1.852 5.2-7.713 4.888-3.912-3.895c-1.901.601-3.875.944-5.867 1.021l-2.366 4.984-8.912-2-.011-5.518a22.28 22.28 0 0 1-4.867-3.428l-5.2 1.85-4.887-7.714 3.895-3.911a22.43 22.43 0 0 1-1.021-5.865l-4.983-2.367 2-8.911 5.513-.008c.921-1.768 2.074-3.405 3.429-4.867l-1.852-5.2 7.713-4.888 3.912 3.9a22.39 22.39 0 0 1 5.867-1.022l2.366-4.983 8.911 2 .013 5.518zm-7.861 10.484a9.8 9.8 0 0 0-10.426 14.808 9.8 9.8 0 0 0 17.841-3.108c1.18-5.278-2.138-10.514-7.415-11.7z" stroke="#bf3012" class="J X"></path><path d="M704.882 113.301c1.386.723 2.67 1.627 3.817 2.689l4.078-1.452 3.833 6.05-3.053 3.068c.47 1.491.739 3.038.8 4.6l3.905 1.858-1.568 6.989-4.327.009c-.722 1.387-1.626 2.67-2.689 3.817l1.452 4.079-6.05 3.833-3.068-3.055a17.55 17.55 0 0 1-4.6.8l-1.856 3.909-6.989-1.567-.009-4.329a17.5 17.5 0 0 1-3.817-2.688l-4.08 1.451-3.834-6.05 3.056-3.068a17.61 17.61 0 0 1-.8-4.6l-3.908-1.857 1.568-6.989 4.326-.009c.722-1.387 1.628-2.671 2.691-3.817l-1.452-4.079 6.05-3.833 3.068 3.055a17.6 17.6 0 0 1 4.6-.8l1.856-3.909 6.989 1.568.011 4.327zm-6.162 8.224c-3.032-.681-6.176.533-7.965 3.074s-1.871 5.91-.208 8.535 4.744 3.991 7.806 3.459 5.502-2.856 6.183-5.888c.929-4.141-1.674-8.251-5.815-9.181z" fill="url(#A)"></path></g><g class="J"><path d="M824.832 235.879a23.96 23.96 0 0 1 5.2 3.665l5.561-1.98 5.227 8.25-4.165 4.184c.642 2.033 1.01 4.143 1.092 6.273l5.331 2.531-2.138 9.529-5.9.012c-.985 1.889-2.218 3.638-3.667 5.2l1.98 5.562-8.245 5.232-4.184-4.164c-2.033.642-4.143 1.009-6.273 1.091l-2.531 5.331-9.529-2.138-.013-5.9c-1.889-.985-3.638-2.219-5.2-3.667l-5.562 1.98-5.227-8.25 4.166-4.184c-.642-2.033-1.009-4.142-1.092-6.272l-5.33-2.532 2.138-9.529 5.9-.012c.985-1.891 2.218-3.642 3.667-5.206l-1.98-5.561 8.249-5.227 4.184 4.165a24 24 0 0 1 6.266-1.093l2.531-5.329 9.529 2.137.013 5.9zm-8.4 11.212a10.48 10.48 0 0 0-12.515 7.929 10.48 10.48 0 0 0 7.929 12.515 10.48 10.48 0 0 0 12.515-7.929 10.48 10.48 0 0 0-7.93-12.515z" stroke="#ffc2b5" class="K"></path><path d="M736.531 69.488c1.404.731 2.704 1.647 3.865 2.722l4.13-1.469 3.88 6.125-3.093 3.106c.477 1.509.749 3.075.811 4.657l3.958 1.879-1.588 7.076-4.38.009c-.731 1.404-1.647 2.703-2.724 3.864l1.471 4.13-6.125 3.88-3.106-3.092c-1.51.476-3.076.749-4.658.81l-1.878 3.958-7.076-1.587-.009-4.381a17.68 17.68 0 0 1-3.864-2.722l-4.131 1.469-3.88-6.125 3.093-3.106a17.8 17.8 0 0 1-.811-4.657l-3.957-1.879 1.587-7.076 4.382-.009a17.71 17.71 0 0 1 2.722-3.864l-1.469-4.13 6.125-3.88 3.106 3.093a17.75 17.75 0 0 1 4.657-.811l1.879-3.958 7.075 1.588.01 4.38zm-6.239 8.326a7.78 7.78 0 0 0-9.293 5.888 7.78 7.78 0 0 0 5.888 9.293 7.78 7.78 0 0 0 9.293-5.888c.452-2.013.085-4.123-1.019-5.865s-2.855-2.975-4.868-3.427z" stroke="#6A2186" class="T Z"></path><g class="O"><rect width="448.153" height="282.89" rx="11.875" x="246.498" y="51.735" class="P"></rect><path d="M678.989 51.735H262.16c-8.648.002-15.658 7.014-15.658 15.662v7.828h448.149v-7.828c-.001-8.65-7.012-15.661-15.662-15.662z" class="V"></path></g></g><g class="K O"><circle cx="263.351" cy="63.841" r="5.532"></circle><path d="M289.751 63.842c0 3.055-2.477 5.532-5.532 5.532s-5.532-2.477-5.532-5.532 2.477-5.532 5.532-5.532a5.53 5.53 0 0 1 5.532 5.532zm20.868 0c0 3.055-2.477 5.532-5.532 5.532s-5.532-2.476-5.532-5.531 2.476-5.532 5.531-5.533 5.532 2.477 5.533 5.532z" class="J"></path></g><path d="M456.534 277.223H299.879c-1.594 0-2.886-1.292-2.886-2.886h0a2.88 2.88 0 0 1 2.886-2.884h156.655c.765 0 1.499.303 2.04.844s.845 1.275.845 2.04h0a2.89 2.89 0 0 1-.845 2.041 2.88 2.88 0 0 1-2.04.845zm-38.836 14.395H299.879a2.89 2.89 0 0 1-2.041-.845 2.88 2.88 0 0 1-.845-2.041h0c0-.765.304-1.499.845-2.04s1.275-.845 2.041-.845h117.819c.765 0 1.499.304 2.04.845s.845 1.275.845 2.04h0a2.89 2.89 0 0 1-.845 2.041 2.88 2.88 0 0 1-2.04.845zm-49.758 14.395h-68.061a2.89 2.89 0 0 1-2.041-.845 2.88 2.88 0 0 1-.845-2.041h0c0-.765.304-1.499.845-2.04s1.275-.845 2.041-.845h68.061c.765 0 1.499.304 2.04.845s.845 1.275.845 2.04h0a2.89 2.89 0 0 1-.845 2.041 2.88 2.88 0 0 1-2.04.845z" class="V"></path><path d="M475.348 273.498h142.373m-142.373 10.343h89.897m-89.897 10.343h67.176m-67.176 10.344h108.045" stroke-width="2" class="J K O U"></path><path d="M367.068 261.343l25.564-36.979c2.495-3.609 6.335-6.066 10.657-6.819s8.767.26 12.336 2.812l3.591 2.568c4.21 3.011 9.596 3.855 14.525 2.274s8.82-5.398 10.494-10.296l12.412-36.319c5.049-14.771 25.938-14.771 30.987 0l6.006 17.572c4.818 14.1 24.429 14.957 30.463 1.337l5.21-11.756c2.406-5.429 7.563-9.13 13.477-9.672s11.657 2.161 15.009 7.064h0c3.497 5.116 9.583 7.819 15.723 6.984s11.283-5.065 13.287-10.929l5.807-16.991c5.335-15.607 27.793-14.424 31.458 1.659l22.215 97.485s-278.442-.772-279.221.006z" fill="#FFD100" class="B"></path><path d="M628.921 226.327c-4.863-9.647-18.28-11.436-24.977-2.96q-.344.435-.664.9s-7.29 13.333-11.2 16.385c-9.606 7.5-21.505 9.143-34.4-8.089l-8.061-10.023c-5.357-6.658-15.001-7.929-21.9-2.886l-9.329 6.824c-4.382 3.205-10.368 9.42-14.978 6.9-5.106-2.783-18.772-13.729-18.772-13.729-6.899-5.044-16.544-3.773-21.9 2.886l-8.061 10.023c-3.609 4.488-9.353 6.688-15.037 5.761s-10.431-4.839-12.427-10.241l-9.95-26.923c-5.216-14.117-25.268-13.87-30.135.371l-20.002 58.499-1.548 1.7h.965l-.2.579c0-1.149 280.421-.575 280.421-.575z" class="B T"></path><g class="J K O"><path d="M312.412 262.275h354.931" class="U"></path><path d="M400.447 120.404v142.249m70.006-133.703v136.883m138.908-156.998v155.106m-68.643-106.345v105.057" class="a b"></path></g><g class="V"><use xlink:href="#G"></use><path d="M657.59 105.232h-49.726a1.8 1.8 0 0 1-1.8-1.8h0a1.8 1.8 0 0 1 1.8-1.8h49.726a1.8 1.8 0 0 1 1.8 1.8h0a1.8 1.8 0 0 1-1.8 1.8z"></path><rect width="37.261" height="3.603" rx=".892" x="606.062" y="94.448"></rect><use xlink:href="#G" x="-69.995" y="-28.343"></use><path d="M449.813 116.942h-49.725a1.8 1.8 0 0 1-1.8-1.8h0a1.8 1.8 0 0 1 1.8-1.8h49.725a1.8 1.8 0 0 1 1.8 1.8h0a1.8 1.8 0 0 1-1.8 1.8z"></path><rect width="29.085" height="3.603" rx=".788" x="398.285" y="105.232"></rect><rect width="37.835" height="3.603" rx=".899" x="537.745" y="142.713"></rect></g><path d="M336.35 147.571l48.291-7.379c3.16 20.688-7.208 41.091-25.782 50.734s-41.227 6.384-56.329-8.105-19.298-36.987-10.433-55.945 28.82-30.163 49.622-27.863zm15.669-48.401l-5.863 37.433 36.746-6.9s-5.401-20.981-30.883-30.533z" class="T"></path><g class="J O"><path d="M692.219 375.372h89.688v175.497h-89.688z" class="C X"></path><g class="T"><path d="M577.353 484.236h89.688v67.188h-89.688z" class="D"></path><path d="M342.122 354.666h89.688v196.202h-89.688z" class="E"></path></g><g class="X"><path d="M462.345 436.607h89.688v114.261h-89.688z" class="F"></path><path d="M230.013 403.202h89.688v147.666h-89.688z" class="G"></path></g></g><g class="H"><g fill="#FFD100"><path d="M2807.507 760.861l65.543 89.167-11.666 105.522h-53.876z" transform="translate(-2662.472 -694.396)"></path><path d="M3232.455,760.861l-65.544,89.167,11.667,105.522h53.877Z" transform="translate(-3087.975 -694.396)"></path></g><path d="M2961.409 2986.95l-5.935-57.294 26.456-4.046-2.612 61.34c0 1.262.38 2.496 1.091 3.539l2.948 4.324h-25.988l2.948-4.324a6.28 6.28 0 0 0 1.092-3.539z" transform="translate(-2799.991 -2461.022)" class="M"></path><path d="M2964.856 3287.344v6.206c-1.38 3.6-35.11 3.738-35.649 0v-5.739a11.31 11.31 0 0 1 .551-3.517c5.871-17.918 30.865-15.13 34.766.3.224.899.335 1.823.332 2.75z" transform="translate(-2776.66 -2743.634)" class="W"></path><path d="M2975.551 3322.5c-3.984-8.91-25.548-8.931-29.2-.061a1.02 1.02 0 0 0 .652 1.367c7.14 2.134 22.593 2.013 27.981.075a1.02 1.02 0 0 0 .567-1.381z" transform="translate(-2790.585 -2779.453)" fill="#ffd9a4"></path><path d="M3051.752 3350.39l-1.078-3.492a.52.52 0 0 0-.982.008l-.867 3.3z" transform="translate(-2885.555 -2804.548)" class="W"></path><path d="M2930.217 3307.342c1.414 1.789 1.885 5.289 0 6.829 3.4-.264 6.456-.767 8.039-2.28l.023-6.206c0-5.706-3.889-9.683-6.093-11.3a4.2 4.2 0 0 1-2.979 5.605 8.79 8.79 0 0 1 6.126 5.234c.036 1.643-2.275 2.022-5.116 2.118z" transform="translate(-2750.083 -2761.976)" fill="#6A2186"></path><g class="L"><path d="M2946.894 3333.021c1.361 1.807 1.386 4.735.439 5.465 1.314-.176 2.359-.5 2.566-1.261-.172-1.518-1.574-3.066-3.005-4.204z" transform="translate(-2764.957 -2793.506)" class="Q"></path><path d="M3093.747 3331.923c-1.361 1.807-1.385 4.736-.438 5.466-1.314-.175-2.36-.494-2.567-1.26.172-1.519 1.574-3.067 3.005-4.206z" transform="translate(-2935.258 -2792.609)" class="Q"></path></g><g class="P"><path d="M3059.89 3292.53c-2.16 1.352-3.59 2.958-3.2 3.588s2.466.047 4.625-1.3 3.59-2.957 3.2-3.588-2.466-.052-4.625 1.3z" transform="translate(-2899.817 -2759.189)" opacity=".2"></path><path d="M3091.468,3355.538a.072.072,0,0,0-.144.005l-.259,4.549a.667.667,0,0,0,.606.665l4.059.512a.079.079,0,0,0,.034-.153l-3.294-1.061a.666.666,0,0,1-.475-.515Z" transform="translate(-2937.391 -2811.829)" opacity=".2"></path></g><path d="M2975.823,3208.09c5.62,2.094,14.806,1.684,18.577-.369l.241-5.673-19.633.264Z" transform="translate(-2814.868 -2686.62)" class="L Q"></path><path d="M3237.118 2986.95l5.935-57.294-26.455-4.046 2.611 61.34a6.28 6.28 0 0 1-1.092 3.539l-2.948 4.324h25.988l-2.947-4.324a6.28 6.28 0 0 1-1.092-3.539z" transform="translate(-3107.449 -2461.022)" class="M"></path><path d="M3199.206 3287.344v6.206c1.38 3.6 35.111 3.738 35.649 0v-5.739c.004-1.194-.182-2.381-.55-3.517-5.871-17.918-30.866-15.13-34.766.3-.224.899-.336 1.823-.333 2.75z" transform="translate(-3096.315 -2743.634)" class="W"></path><path d="M3216.361 3322.5c3.984-8.91 25.549-8.931 29.2-.061a1.02 1.02 0 0 1-.651 1.367c-7.14 2.134-22.594 2.013-27.982.075a1.02 1.02 0 0 1-.567-1.381z" transform="translate(-3110.241 -2779.453)" fill="#ffd9a4"></path><path d="M3257.515 3350.39l1.08-3.492a.52.52 0 0 1 .981.008l.866 3.3z" transform="translate(-3132.626 -2804.548)" class="W"></path><path d="M3351.781 3307.342c-1.415 1.789-1.885 5.289 0 6.829-3.4-.264-6.457-.767-8.039-2.28l-.024-6.206c0-5.706 3.888-9.683 6.094-11.3a4.2 4.2 0 0 0 2.978 5.605c-2.769.65-5.051 2.601-6.126 5.234-.036 1.643 2.277 2.022 5.117 2.118z" transform="translate(-3240.827 -2761.976)" fill="#6A2186"></path><g class="L"><path d="M3362.022 3333.021c-1.36 1.807-1.386 4.735-.438 5.465-1.314-.176-2.36-.5-2.567-1.261.174-1.518 1.575-3.066 3.005-4.204z" transform="translate(-3252.873 -2793.506)" class="Q"></path><path d="M3215.169 3331.923c1.361 1.807 1.386 4.736.439 5.466 1.314-.175 2.36-.494 2.568-1.26-.176-1.519-1.576-3.067-3.007-4.206z" transform="translate(-3082.572 -2792.609)" class="Q"></path></g><g class="P"><path d="M3227.089 3292.53c2.159 1.352 3.589 2.958 3.194 3.588s-2.465.047-4.624-1.3-3.59-2.957-3.2-3.588 2.47-.052 4.63 1.3z" transform="translate(-3096.074 -2759.189)" opacity=".2"></path><path d="M3209.689,3355.538a.073.073,0,0,1,.145.005l.259,4.549a.667.667,0,0,1-.606.665l-4.059.512a.079.079,0,0,1-.034-.153l3.294-1.061a.666.666,0,0,0,.474-.515Z" transform="translate(-3072.681 -2811.829)" opacity=".2"></path></g><path d="M3259.313,3208.09c-5.619,2.094-14.8,1.684-18.576-.369l-.241-5.673,19.633.264Z" transform="translate(-3129.182 -2686.62)" class="L Q"></path><path d="M2867.5,2583.7c18.7,14.14,99.367,14.14,110.715,0l-5.234-138.486-100.618-.752Z" transform="translate(-2778.674 -2068.362)" class="R"></path><g class="S"><path d="M3318.292,1133.411l-38.976-30.49-16.082,3.229c-1.494,12.779.641,27.656,4.6,43.584,13.69,27.94,26.132,31.736,26.132,31.736l24.331-.06Z" transform="translate(-3191.439 -973.547)"></path><path d="M2780.9,1133.411l38.976-30.49,16.082,3.229c1.494,12.779-.642,27.656-4.595,43.584-13.69,27.94-26.133,31.736-26.133,31.736l-24.33-.06Z" transform="translate(-2620.964 -973.547)"></path></g><ellipse cx="144.015" cy="225.053" rx="16.656" ry="7.832" class="Y"></ellipse><path d="M3085.794 1566.521h25.727c-.214 10.444 1.239 17.022 2.772 21.135.57 1.556.129 3.302-1.113 4.4-5.62 5.023-22.406 6.823-29.242-.544-1.022-1.108-1.339-2.694-.822-4.11 1.499-4.13 2.884-10.651 2.678-20.881z" transform="translate(-2954.606 -1351.885)" class="M"></path><path d="M3124.337,1560.284l-24.539.164-.412,7.07c3.852,5.671,22.779,5.432,25.647-.266Z" transform="translate(-2968.136 -1346.796)" class="L Q"></path><path d="M2879.5,1618.154V1897.93h51.863l-3.755-183.424.059-88.167a1.535,1.535,0,0,0-.543-1.089c-6.2-5.479-16.895-7.848-29.228-9a1.733,1.733,0,0,1-1.4-.974l-2.168-4.518a.485.485,0,0,0-.877.009C2889.955,1618.138,2879.5,1618.154,2879.5,1618.154Z" transform="translate(-2734.028 -1387.766)" class="R"></path><path d="M2777.038,1272.364c11.085,0,18.154-14.756,14.713-24.28a8.865,8.865,0,0,0-4.728-5.228c-4.01-1.72-7.628.4-9.985,1.978Z" transform="translate(-2576.445 -1087.223)" class="M"></path><path d="M2803.914,1279.167c15.031-5.346,12.495,16.866.141,17.41" transform="translate(-2603.034 -1116.701)" fill="#fbbd89"></path><path d="M2803.942 1278.745a16.55 16.55 0 0 1 4.085-.916c.69-.058 1.385-.034 2.069.072a5.7 5.7 0 0 1 1.931.671c.593.351 1.099.832 1.481 1.406.382.588.655 1.24.807 1.925.16.693.243 1.401.247 2.112s-.04 1.431-.128 2.141c.288-1.416.324-2.872.106-4.3a6.14 6.14 0 0 0-.74-2.06 4.98 4.98 0 0 0-1.528-1.613 6.21 6.21 0 0 0-2.066-.846 9.37 9.37 0 0 0-2.21-.2 17.32 17.32 0 0 0-4.332.729z" transform="translate(-2603.4 -1115.723)" fill="#603813"></path><path d="M3490.557,1272.364c-11.086,0-18.154-14.756-14.713-24.28a8.867,8.867,0,0,1,4.728-5.228c4.01-1.72,7.627.4,9.985,1.978Z" transform="translate(-3402.733 -1087.223)" class="M"></path><path d="M3486.887,1279.167c-15.03-5.346-12.495,16.866-.14,17.41" transform="translate(-3399.35 -1116.701)" fill="#fbbd89"></path><path d="M3484.2 1277.869a17.32 17.32 0 0 0-4.331-.729 9.37 9.37 0 0 0-2.211.2 6.22 6.22 0 0 0-2.066.846c-.624.416-1.147.967-1.528 1.613-.368.637-.619 1.335-.74 2.06a12.29 12.29 0 0 0 .107 4.3c-.089-.71-.131-1.425-.128-2.141a9.7 9.7 0 0 1 .246-2.112c.152-.685.426-1.337.809-1.925a4.57 4.57 0 0 1 1.48-1.406 5.68 5.68 0 0 1 1.929-.671 8.73 8.73 0 0 1 2.071-.072 16.53 16.53 0 0 1 4.084.916z" transform="translate(-3396.042 -1115.723)" fill="#603813"></path><path d="M2837.468 958.413h112.994c15.332 69.842 4.316 115.771-55.722 117.211h-1.548c-60.041-1.44-71.056-47.369-55.724-117.211z" transform="translate(-2750.467 -855.616)" class="M"></path><ellipse cx="166.56" cy="160.56" rx="5.03" ry="8.029" class="S"></ellipse><ellipse cx="165.847" cy="157.119" rx="2.449" ry="3.032" class="P"></ellipse><ellipse cx="121.417" cy="160.56" rx="5.03" ry="8.029" class="S"></ellipse><ellipse cx="120.703" cy="157.119" rx="2.449" ry="3.032" class="P"></ellipse><path d="M3144.631,1366.436a1.506,1.506,0,0,1-.718-.078c-4.369-1.28-5,3.617-1.487,4.061,3.355.307,5.12-.826,6.2-2.28a1.326,1.326,0,0,0-.852-2.106A11.028,11.028,0,0,0,3144.631,1366.436Z" transform="translate(-2999.491 -1188.249)" class="L"></path><g class="S"><path d="M3270.82 1159.132c4.833.091 6.667-4.55 3.3-7.375a6.81 6.81 0 0 0-5.154-1.247c-5.019.538-8.128 2.315-8.682 5.751-.23 1.238.175 2.509 1.079 3.385 1.768 1.618 4.513 1 7.505-.187a5.04 5.04 0 0 1 1.952-.327z" transform="translate(-3148.519 -1012.336)"></path><path d="M3004.08 1159.132c-4.832.091-6.667-4.55-3.3-7.375a6.81 6.81 0 0 1 5.154-1.247c5.018.538 8.128 2.315 8.682 5.751.23 1.238-.175 2.509-1.079 3.385-1.768 1.618-4.514 1-7.505-.187a5.04 5.04 0 0 0-1.952-.327z" transform="translate(-2839.325 -1012.336)"></path><path d="M2831.388,1106.421c9.244,10.6,11.5,30.313,10.374,51.467,6.086-18.627,3.726-51.467,3.726-51.467Z" transform="translate(-2639.751 -976.403)"></path><path d="M3449.677,1106.421c-9.244,10.6-11.5,30.313-10.373,51.467-6.088-18.627-3.728-51.467-3.728-51.467Z" transform="translate(-3354.525 -976.403)"></path></g><path d="M3086.723 1616.272c-.647 6.287-7.618 10.967-16.163 11.6v124.049h-8.911l1.19-122.976 5.488-1.471v-9.3c6.363-.368 11.467-2.489 13.979-7.441a.49.49 0 0 1 .845.048l2.415 4.9c.297.337.71.548 1.157.591z" transform="translate(-2922.884 -1387.784)" opacity=".5" class="Y"></path><path d="M3144.168,1701.475l6.92,2.013v122.669" transform="translate(-3002.426 -1462.02)" stroke="#aeb5b5" stroke-width="15" class="J K"></path><path d="M3197.914,1618.154v9.3l5.488,1.472v269H3146.56l3.246-183.424-.059-88.167a1.536,1.536,0,0,1,.543-1.089c6.2-5.479,16.9-7.848,29.227-9a1.733,1.733,0,0,0,1.405-.974l2.169-4.518a.484.484,0,0,1,.876.009C3187.461,1618.138,3197.914,1618.154,3197.914,1618.154Z" transform="translate(-3055.18 -1387.766)" class="R"></path><g class="Y"><path d="M3140.094 1616.272c.648 6.287 7.618 10.967 16.162 11.6v124.049h8.912l-1.19-122.976-5.488-1.471v-9.3c-6.364-.368-11.468-2.489-13.979-7.441a.49.49 0 0 0-.844.048l-2.415 4.9c-.297.337-.711.549-1.158.591z" transform="translate(-3015.756 -1387.784)" opacity=".5"></path><circle cx="144.797" cy="249.149" r="2.024"></circle><circle cx="2.024" cy="2.024" transform="matrix(-.92388 -.382683 .382683 -.92388 145.892 276.625)" r="2.024"></circle><circle cx="2.024" cy="2.024" r="2.024" transform="matrix(-.92388 -.382683 .382683 -.92388 145.892 302.82)"></circle><circle cx="2.024" cy="2.024" transform="matrix(-.160174 -.987089 .987089 -.160174 143.124 327.33)" r="2.024"></circle><circle cx="144.797" cy="349.841" r="2.024"></circle></g><g class="S"><path d="M3037.416,1407.944v-5.15c11.429-.526,18.44,1.013,22.014,4.751a11.769,11.769,0,0,1,3.191,8.148v5.983H3057.1c2.064-4.848,2.662-8.927,0-11.643a6.587,6.587,0,0,0-4.635-1.925Z" transform="translate(-2894.326 -1218.188)"></path><path d="M3195.59,1407.944v-5.15c-11.429-.526-18.44,1.013-22.014,4.751a11.768,11.768,0,0,0-3.191,8.148v5.983h5.518c-2.064-4.848-2.662-8.927,0-11.643a6.585,6.585,0,0,1,4.635-1.925Z" transform="translate(-3051.75 -1218.188)"></path></g><g clip-path="url(#B)" transform="translate(66.363 53.777)"><path transform="translate(-81.841 -40.194)" d="M0 0h304.497v291.258H0z" class="P"></path><g opacity=".6" fill="#6A2186"><use xlink:href="#H" transform="translate(169.07 -40.194)"></use><use xlink:href="#H" transform="translate(180.33 -40.194)"></use><use xlink:href="#H" transform="translate(191.589 -40.194)"></use><use xlink:href="#H" transform="translate(202.849 -40.194)"></use><use xlink:href="#H" transform="translate(214.108 -40.194)"></use><use xlink:href="#H" transform="translate(157.811 -40.194)"></use><use xlink:href="#H" transform="translate(146.552 -40.194)"></use><use xlink:href="#H" transform="translate(135.292 -40.194)"></use><use xlink:href="#H" transform="translate(124.033 -40.194)"></use><use xlink:href="#H" transform="translate(112.773 -40.194)"></use><use xlink:href="#H" transform="translate(56.476 -40.194)"></use><use xlink:href="#H" transform="translate(67.736 -40.194)"></use><use xlink:href="#H" transform="translate(78.995 -40.194)"></use><use xlink:href="#H" transform="translate(90.254 -40.194)"></use><use xlink:href="#H" transform="translate(101.514 -40.194)"></use><use xlink:href="#H" transform="translate(45.217 -40.194)"></use><use xlink:href="#H" transform="translate(33.957 -40.194)"></use><use xlink:href="#H" transform="translate(22.698 -40.194)"></use><use xlink:href="#H" transform="translate(11.438 -40.194)"></use><use xlink:href="#H" transform="translate(.179 -40.194)"></use><use xlink:href="#H" transform="translate(-11.08 -40.194)"></use><use xlink:href="#H" transform="translate(-22.34 -40.194)"></use><use xlink:href="#H" transform="translate(-33.599 -40.194)"></use><use xlink:href="#H" transform="translate(-44.859 -40.194)"></use><use xlink:href="#H" transform="translate(-56.118 -40.194)"></use><use xlink:href="#H" transform="translate(-67.378 -40.194)"></use><use xlink:href="#H" transform="translate(-78.637 -40.194)"></use></g><g opacity=".8"><g fill="#6A2186"><use xlink:href="#H" transform="matrix(0 -1 1 0 -75.222 209.442)"></use><use xlink:href="#H" transform="matrix(0 -1 1 0 -75.222 220.702)"></use><use xlink:href="#H" transform="matrix(0 -1 1 0 -75.222 231.961)"></use><use xlink:href="#H" transform="matrix(0 -1 1 0 -75.222 243.221)"></use><use xlink:href="#H" transform="matrix(0 -1 1 0 -75.222 254.48)"></use><use xlink:href="#H" transform="matrix(0 -1 1 0 -75.222 198.183)"></use><use xlink:href="#H" transform="matrix(0 -1 1 0 -75.222 186.924)"></use><use xlink:href="#H" transform="matrix(0 -1 1 0 -75.222 175.664)"></use><use xlink:href="#H" transform="matrix(0 -1 1 0 -75.222 164.405)"></use><use xlink:href="#H" transform="matrix(0 -1 1 0 -75.222 153.145)"></use><use xlink:href="#H" transform="matrix(0 -1 1 0 -75.222 96.848)"></use><use xlink:href="#H" transform="matrix(0 -1 1 0 -75.222 108.108)"></use><use xlink:href="#H" transform="matrix(0 -1 1 0 -75.222 119.367)"></use><use xlink:href="#H" transform="matrix(0 -1 1 0 -75.222 130.626)"></use><use xlink:href="#H" transform="matrix(0 -1 1 0 -75.222 141.886)"></use><use xlink:href="#H" transform="matrix(0 -1 1 0 -75.222 85.589)"></use><use xlink:href="#H" transform="matrix(0 -1 1 0 -75.222 74.329)"></use><use xlink:href="#H" transform="matrix(0 -1 1 0 -75.222 63.07)"></use><use xlink:href="#H" transform="matrix(0 -1 1 0 -75.222 51.81)"></use><use xlink:href="#H" transform="matrix(0 -1 1 0 -75.222 40.551)"></use><use xlink:href="#H" transform="matrix(0 -1 1 0 -75.222 29.292)"></use><use xlink:href="#H" transform="matrix(0 -1 1 0 -75.222 18.032)"></use><use xlink:href="#H" transform="matrix(0 -1 1 0 -75.222 6.773)"></use><use xlink:href="#H" transform="matrix(0 -1 1 0 -75.222 -4.487)"></use><use xlink:href="#H" transform="matrix(0 -1 1 0 -75.222 -15.746)"></use><use xlink:href="#H" transform="matrix(0 -1 1 0 -75.222 -27.006)"></use><use xlink:href="#H" transform="matrix(0 -1 1 0 -75.222 -38.265)"></use></g></g></g><path d="M10.915,0H140.084A10.915,10.915,0,0,1,151,10.915v0a3.9,3.9,0,0,1-3.9,3.9H3.9a3.9,3.9,0,0,1-3.9-3.9v0A10.915,10.915,0,0,1,10.915,0Z" transform="translate(68.381 99.245)" class="S"></path><path d="M3092.82 1439.087c9.494 1.337 19.129 1.337 28.623 0 0 0 1.525 14.131-14.181 14.09H3107c-15.7.041-14.18-14.09-14.18-14.09z" transform="translate(-2963.37 -1247.888)" fill="#be1717"></path><path d="M3092.823 1439.087a102.59 102.59 0 0 0 28.622 0 12.4 12.4 0 0 1 .021 1.77c-2.847 1.1-7.364 2-14.331 1.975-6.968.025-11.485-.871-14.332-1.975-.035-.59-.028-1.181.02-1.77z" transform="translate(-2963.372 -1247.888)" class="P"></path><path d="M3114.047 1482.846c2.277-1.88 5.567-3.268 10.323-3.345h0 .117.118 0c4.756.077 8.046 1.465 10.323 3.345-2.114 1.921-5.352 3.322-10.31 3.309h-.261c-4.957.012-8.195-1.388-10.31-3.309z" transform="translate(-2980.726 -1280.866)" fill="#ff2929"></path><path d="M3105.46 1452.023h.048.134.126l.654-.008h.143l.615-.025.1-.006q.268-.016.527-.038l.127-.01q.285-.025.56-.057l.146-.018.474-.064.1-.014.507-.086.169-.032q.24-.045.472-.1l.093-.022.052-.012q.178-.04.35-.085h.015l.171-.044q.207-.055.408-.115l.167-.051.032-.01q.127-.039.25-.08l.28-.1.27-.1.232-.09.163-.067.407-.177.111-.051.257-.123.013-.006.521-.274.039-.021c6.887-3.852 6.125-12.214 6.087-12.568-.009-.091-.054-.175-.125-.233a.34.34 0 0 0-.252-.074l-.053.006c-9.43 1.324-19 1.324-28.43 0l-.054-.006c-.09-.012-.181.013-.252.07s-.116.14-.125.23c-.036.359-.8 8.721 6.089 12.574l.035.019.535.28.259.124.11.05q.2.091.41.178l.161.066.234.091.265.1.283.1.249.08.041.012.161.049.408.115.18.047.354.086.053.012.095.022.47.1.17.032q.249.046.506.086l.1.015q.233.034.473.063l.146.018q.277.032.56.057l.129.01.526.038.1.007h0l.614.025h.143l.612.005zm.182-.673h-.135c-.215 0-.427 0-.636-.008h-.14q-.3-.009-.6-.024h0l-.1-.006-.51-.036-.125-.01q-.275-.025-.541-.055l-.142-.018q-.232-.029-.457-.062l-.1-.014c-.166-.025-.327-.053-.489-.083l-.163-.031-.452-.092-.14-.033-.335-.081-.178-.046q-.2-.053-.389-.109l-.152-.047-.04-.012-.237-.077a10.77 10.77 0 0 1-.271-.093l-.252-.092-.221-.086-.153-.063c-.133-.054-.263-.11-.389-.168l-.1-.047c-.083-.038-.164-.077-.244-.117a11.28 11.28 0 0 1-.505-.265l-.034-.019c-5.834-3.264-5.855-9.984-5.773-11.58a102.35 102.35 0 0 0 28 0c.082 1.618.053 8.321-5.773 11.58l-.027.015c-.177.1-.346.187-.51.268l-.247.118-.106.048-.387.167-.155.063-.221.086-.256.093-.267.092-.239.077-.033.01-.159.049-.389.11-.163.042h-.015c-.111.029-.223.055-.336.081l-.056.013-.083.019q-.224.049-.454.093l-.164.031-.488.083-.1.014-.457.062-.142.017-.542.056-.124.01-.511.036-.1.006-.6.024h-.14l-.636.008z" transform="translate(-2961.877 -1246.398)" class="L"></path><path d="M2875.915 1444.472c7.2 11.579 20.248 15.347 29.7 10.858l5.517.44c3.3 4.461 13.458 6.648 17.668 5.326.278-2.31-.379-1.632-2.022-2.58h7.334c-1.642.948-2.3.27-2.021 2.58 4.211 1.323 14.372-.865 17.667-5.326l5.518-.44c9.454 4.489 22.5.721 29.7-10.858-7.04 14.442-22.219 26.787-54.156 28.056v.03h-.751v-.03c-31.934-1.269-47.115-13.614-54.154-28.056z" transform="translate(-2786.981 -1252.283)" class="S"></path><g transform="matrix(-.966 .259 -.259 -.966 266.989 300.547)"><path d="M20.166 60.995C11.584 55.538 5.558 32.063.086 6.329-1.395.052 16.641-2.906 18.7 3.867c5.772 20.306 14.347 46.317 14.347 46.317 4.026 12.371-5.413 15.674-12.881 10.811z" transform="matrix(.62932 -.777146 .777146 .62932 20.175 67.487)" class="R"></path><g transform="matrix(.5 -.866025 .866025 .5 0 57.293)" class="R"><path d="M11.694.257l35.74 11.546c6.747 1.735 12.551 5.276 12.614 6.731l4.764 2.181a1.918 1.918 0 0 1 1.1 2.016c-.462 3.212-3.4 9.585-5.536 11.888a1.914 1.914 0 0 1-2.224.42L53.7 32.926c-3 .367-7.476-1.655-12.508-3.824C35.64 26.794 22.261 23 7.292 19.061-.768 16.94-2.677 6.239 4.256 1.612A9.357 9.357 0 0 1 11.694.257z"></path><path d="M6.37,0C6.288.177,0,14.376,0,14.376L5.268,17c3,1.184,9.78-13.22,6.152-14.726Z" transform="translate(53.696 18.55)"></path></g><g fill="#e5dfdf"><path d="M11.551 48.789L9.137 36.72 6.591 24.68l-1.31-6.012-1.334-6.006-2.716-12-.673.621 8 2.437 8.014 2.4 8.032 2.342 8.053 2.273q-3.951-1.377-7.919-2.7L16.8 5.393l-7.958-2.58L.872.273 0 0l.2.894 2.7 12 1.375 6 1.4 5.991q1.416 5.988 2.873 11.966l3.003 11.938z" transform="matrix(.5 -.866025 .866025 .5 29.741 50.171)"></path><path d="M0 0c3.235 1.542 6.512 2.984 9.8 4.39l4.946 2.083L19.717 8.5q4.977 2 10 3.884c3.35 1.257 6.714 2.479 10.119 3.6-3.235-1.543-6.511-2.986-9.8-4.392L20.12 7.486l-4.987-1.973L10.118 3.6C6.768 2.343 3.4 1.121 0 0z" transform="matrix(.5 -.866025 .866025 .5 13.111 40.055)"></path></g></g><path d="M3397.9 1685.935c-10.013 6.216-17.045 32.952-23.43 62.263-1.728 7.149 19.318 10.518 21.722 2.8 6.735-23.128 16.741-52.754 16.741-52.754 4.696-14.086-6.318-17.844-15.033-12.309z" transform="translate(-3306.071 -1446.795)" class="R"></path><g transform="matrix(.642788 .766044 -.766044 .642788 160.591 268.198)"><path d="M.514,27.066l5.772-1.873c1.993-9.922,4.6-18.632,8.45-24.864l.156-.09a1.626,1.626,0,0,1,2.5,1.123l.24,25.617a5.121,5.121,0,0,1-.914,2.957C13.76,34.239,6.75,37.045,0,39.227Z" class="M"></path><g class="L"><path d="M.354,8.413,0,8.3A21.866,21.866,0,0,0,1.354,3.422C1.683,1.677,1.92.416,2.81.083a2.777,2.777,0,0,1,2.245.53l-.21.27C3.985.391,3.368.227,2.96.379c-.7.263-.936,1.512-1.234,3.094A22.131,22.131,0,0,1,.354,8.413Z" transform="translate(12.547 12.182)"></path><path d="M.35 10.945L0 10.823a31.96 31.96 0 0 0 1.81-5.459C2.521 2.678 3.085.557 4.443.092c.7-.181 1.443-.045 2.033.373l-.21.269C5.78.382 5.166.258 4.582.393c-1.174.4-1.743 2.553-2.4 5.043A32.44 32.44 0 0 1 .35 10.945z" transform="translate(11.059 5.161)"></path></g></g><g class="R"><path d="M13.646 34.969l41.7-11.546c7.873-1.735 14.645-5.276 14.717-6.731l5.56-2.181a1.88 1.88 0 0 0 1.287-2.016C76.376 9.283 72.944 2.91 70.454.607c-.717-.621-1.724-.783-2.6-.42L62.657 2.3c-3.5-.367-8.723 1.655-14.6 3.824-6.474 2.308-22.086 6.1-39.551 10.04-9.406 2.122-11.63 12.823-3.54 17.45a12.43 12.43 0 0 0 8.68 1.355z" transform="matrix(.985 .174 -.174 .985 72.566 274.237)"></path><path d="M3208.936,2009.4c-.1-.177-7.433-14.376-7.433-14.376l6.147-2.626c3.495-1.184,11.412,13.22,7.177,14.726Z" transform="translate(-3070.961 -1698.84)"></path></g><g fill="#e5dfdf"><path d="M13.478 0l-2.817 12.07L7.69 24.109l-1.529 6.012L4.6 36.127l-3.17 12-.78-.62 9.336-2.437 9.352-2.4 9.371-2.342 9.4-2.273q-4.611 1.377-9.241 2.7l-9.264 2.634-9.285 2.58-9.3 2.54-1.019.28.232-.889 3.151-12 1.606-6 1.632-6 3.351-11.966L13.478 0z" transform="matrix(.985 .174 -.174 .985 102.953 243.285)"></path><path d="M0 15.981C3.776 14.439 7.6 13 11.438 11.59l5.772-2.082 5.8-2.026q5.808-2 11.673-3.884C38.592 2.341 42.517 1.12 46.49 0c-3.774 1.543-7.6 2.986-11.437 4.392L23.482 8.5l-5.823 1.969-5.851 1.913C7.9 13.638 3.973 14.86 0 15.981z" transform="matrix(.985 .174 -.174 .985 94.388 294.85)"></path></g><path transform="translate(144.049 270.338)" d="M0 0h.183v28.424H0z" class="L"></path><g clip-path="url(#C)" transform="translate(270.972 3.919)"><path d="M320.2,267.877,348.181,227.4a17.924,17.924,0,0,1,25.169-4.387l3.933,2.812a17.922,17.922,0,0,0,27.385-8.781l13.589-39.754c5.526-16.169,28.394-16.169,33.92,0l6.575,19.237c5.274,15.43,26.741,16.373,33.348,1.464l5.7-12.869a17.923,17.923,0,0,1,31.184-2.854h0a17.923,17.923,0,0,0,31.756-4.318l6.357-18.6c5.84-17.087,30.424-15.79,34.436,1.815l24.317,106.715S321.05,267.023,320.2,267.877Z" transform="translate(-201.698 -10.723)" fill="#f19101"></path><path d="M607.232 219.065c-5.323-10.559-20.01-12.519-27.34-3.241q-.378.479-.727.988s-7.979 14.6-12.262 17.938c-10.515 8.205-23.54 10.008-37.656-8.855l-8.824-10.972a17.51 17.51 0 0 0-23.978-3.159l-10.213 7.47c-4.8 3.508-11.349 10.311-16.4 7.559-5.587-3.047-20.548-15.029-20.548-15.029a17.51 17.51 0 0 0-23.978 3.159l-8.824 10.972a17.51 17.51 0 0 1-30.065-4.9l-10.89-29.473c-5.711-15.454-27.661-15.184-32.989.4l-21.885 64.029-1.694 1.866h1.056l-.216.633c0-1.257 306.968-.629 306.968-.629z" transform="translate(-202.091 -.242)" class="T"></path><g class="J K O"><path transform="translate(58.67 258.172)" d="M0 0h388.531" class="U"></path><g class="a b"><path transform="translate(155.039 102.871)" d="M0 0v155.715"></path><path transform="translate(231.672 112.226)" d="M0 0v149.841"></path><path transform="translate(383.73 90.207)" d="M0 0v169.789"></path><path transform="translate(308.589 143.584)" d="M0 0v115.002"></path></g></g><g class="V"><path d="M518.259 150.166h-54.434a1.97 1.97 0 0 1-1.972-1.973h0c0-1.089.883-1.972 1.972-1.972h54.434c1.089 0 1.972.883 1.972 1.972h0a1.97 1.97 0 0 1-1.972 1.973z" transform="translate(-156.518 -11.041)"></path><path d="M574.958 110.086h-54.432a1.97 1.97 0 0 1-1.973-1.972h0a1.97 1.97 0 0 1 1.973-1.972h54.432a1.97 1.97 0 0 1 1.972 1.972h0a1.97 1.97 0 0 1-1.972 1.972z" transform="translate(-138.435 -23.823)"></path><rect width="40.788" height="3.944" rx=".892" x="380.118" y="74.458"></rect><path d="M460.166 126.642h-54.434c-1.089 0-1.972-.883-1.972-1.972h0a1.97 1.97 0 0 1 1.972-1.973h54.434a1.97 1.97 0 0 1 1.972 1.973h0a1.97 1.97 0 0 1-1.972 1.972z" transform="translate(-175.046 -18.543)"></path><path d="M402.512,119.806H348.079a1.974,1.974,0,0,1-1.973-1.973h0a1.973,1.973,0,0,1,1.973-1.972h54.432a1.973,1.973,0,0,1,1.973,1.972h0A1.973,1.973,0,0,1,402.512,119.806Z" transform="translate(-193.434 -20.724)"></path><rect width="31.838" height="3.944" rx=".788" x="152.672" y="86.263"></rect><rect width="41.417" height="3.944" rx=".899" x="305.334" y="127.292"></rect></g></g><g class="I"><g stroke="#0f110e" class="J"><path d="M219.835,244.97l-9.414-11.828,74.637-59.407,8.549,12.3Z" transform="translate(29.216 -1.711)" fill="#958f99"></path><path d="M236.328,216.381l-99.051,78.037c-4.35,3.461-5.774,8.908-3.183,12.164l3.258,4.093c2.592,3.258,8.22,3.09,12.569-.372l97.6-79Z" transform="translate(4.46 11.89)" fill="url(#D)"></path><path d="M432.123 182.944c5.161-18.104 4.755-37.343-1.165-55.213C419 91.632 383.821 65.868 345.81 65.379a93.32 93.32 0 0 0-53.468 15.813 91.74 91.74 0 0 0-37.654 97.9 93.73 93.73 0 0 0 30.332 48.663c28.406 24.08 71.077 28.22 103.482 9.792a100.43 100.43 0 0 0 12.65-8.425 91.86 91.86 0 0 0 30.971-46.178zM386.716 221.1c-.954.652-1.93 1.264-2.9 1.891-.079.053-.247.154-.39.241l-1.424.819a83.8 83.8 0 0 1-11.654 5.377c-1.736.645-3.5 1.217-5.266 1.753-.145.033-1.414.39-1.758.476q-1.767.441-3.549.8a84.43 84.43 0 0 1-12.066 1.564l-1.638.076c-.157.008-.516.018-.758.025q-1.116.01-2.232-.011-3.272-.067-6.533-.388-2.93-.287-5.838-.777-1.452-.245-2.9-.541-.8-.164-1.6-.343c-.149-.034-.613-.152-.938-.232a88.24 88.24 0 0 1-10.955-3.665q-2.748-1.136-5.41-2.464l-1.476-.756c-.111-.057-.326-.175-.518-.282l-2.688-1.575c-3.637-2.23-7.099-4.735-10.354-7.493q-1.041-.882-2.052-1.8l-1.257-1.162-.057-.051-.218-.227c-1.531-1.583-3.051-3.164-4.486-4.838a96.57 96.57 0 0 1-7.648-10.406l-.172-.264-.037-.066q-.433-.74-.851-1.486-.665-1.191-1.29-2.4-1.551-3.005-2.857-6.129-1.161-2.782-2.122-5.642c-.318-.948-.612-1.9-.9-2.859l-.066-.208c-.017-.05-.021-.082-.038-.153l-.489-1.927a84.31 84.31 0 0 1-1.99-12.025q-.135-1.472-.219-2.947-.037-.655-.065-1.31c0 .03-.018-.608-.033-1s-.011-1.037-.011-1.005q0-.655.017-1.31.034-1.638.131-3.271a84.95 84.95 0 0 1 1.641-12.316q.133-.641.277-1.279c-.007.029.144-.592.236-.977s.265-1 .257-.971q.172-.633.356-1.262.918-3.156 2.079-6.232 1.047-2.778 2.29-5.475.552-1.2 1.143-2.387l.756-1.475.219-.414.117-.208a87.57 87.57 0 0 1 6.878-10.313q1.881-2.414 3.936-4.684.574-.635 1.162-1.258l.051-.055.226-.218 2.494-2.4a85.42 85.42 0 0 1 10.141-8.038c.86-.582 1.734-1.14 2.61-1.7l.285-.181q.613-.36 1.232-.711 2.815-1.585 5.745-2.952a86.6 86.6 0 0 1 11.5-4.354c.109-.018 1.73-.468 2.054-.547q1.446-.356 2.9-.659 3.227-.671 6.5-1.088 2.932-.374 5.888-.541a98.62 98.62 0 0 1 2.373-.1l.619-.009 1.964.025a84.93 84.93 0 0 1 12.046 1.17q2.782.469 5.526 1.13l.6.161 1.579.442q1.575.457 3.134.977c3.965 1.322 7.826 2.938 11.551 4.833.315.161 1.459.786 1.6.856l2.486 1.459q2.714 1.664 5.3 3.531 2.467 1.785 4.8 3.743 1.175.987 2.313 2.015l1.008.926.256.232c.073.064.138.148.268.281a96.57 96.57 0 0 1 8.634 10.07c1.231 1.683 2.381 3.416 3.5 5.175l.182.285q.36.613.71 1.232.922 1.634 1.769 3.307c1.874 3.704 3.469 7.542 4.773 11.483.272.819.522 1.646.772 2.473-.037-.079.458 1.695.541 2.036q.748 3.049 1.267 6.148.489 2.92.772 5.872.14 1.47.229 2.945.049.819.084 1.638l.032 1.014a82.7 82.7 0 0 1-.731 11.761q-.39 2.92-.98 5.809-.263 1.28-.568 2.553l-.1.361-.528 1.9c-1.165 4.005-2.625 7.918-4.368 11.707q-.621 1.351-1.293 2.681c-.152.3-.969 1.806-.993 1.876-1.035 1.81-2.114 3.593-3.275 5.325a83.73 83.73 0 0 1-7.716 9.845q-.479.526-.968 1.042l-.241.237-2.238 2.163a91.13 91.13 0 0 1-5.037 4.339 95.61 95.61 0 0 1-5.07 3.737z" transform="translate(42.483 -36.273)" fill="#958f99"></path></g><g transform="matrix(-.615661 .788011 -.788011 -.615661 213.684 300.956)"><path d="M.418,11.522,5.1,13.3c1.619,9.4,3.733,17.653,6.862,23.557l.127.086a1.3,1.3,0,0,0,2.027-1.064l.195-24.271a5.433,5.433,0,0,0-.741-2.8C11.172,4.727,5.482,2.068,0,0Z" class="M"></path><g class="L"><path d="M.287,0,0,.108A23.436,23.436,0,0,1,1.1,4.73c.267,1.653.46,2.848,1.182,3.164.44.192,1.02.033,1.823-.5l-.17-.255c-.7.465-1.2.621-1.53.476-.569-.248-.76-1.432-1-2.931A23.713,23.713,0,0,0,.287,0Z" transform="translate(10.188 17.653)"></path><path d="M.284 0L0 .115a34.2 34.2 0 0 1 1.469 5.172c.578 2.545 1.035 4.555 2.137 5a1.76 1.76 0 0 0 1.651-.353l-.17-.255A1.49 1.49 0 0 1 3.72 10c-.953-.383-1.42-2.421-1.952-4.781C1.412 3.443.915 1.698.284 0z" transform="translate(8.98 21.907)"></path></g></g></g></g><path stroke="#0f110e" d="M8.188 551.299h893.317" class="J K N"></path></svg> 