<svg version="1.1" id="prefix__main-logo" xmlns="http://www.w3.org/2000/svg" x="0" y="0" viewBox="0 0 1000 1000" xml:space="preserve"><style>@-webkit-keyframes bounce-in-top{0%{-webkit-transform:translateY(-500px);transform:translateY(-500px);-webkit-animation-timing-function:ease-in;animation-timing-function:ease-in;opacity:0}38%{-webkit-transform:translateY(0);transform:translateY(0);-webkit-animation-timing-function:ease-out;animation-timing-function:ease-out;opacity:1}55%{-webkit-transform:translateY(-65px);transform:translateY(-65px);-webkit-animation-timing-function:ease-in;animation-timing-function:ease-in}72%,90%,to{-webkit-transform:translateY(0);transform:translateY(0);-webkit-animation-timing-function:ease-out;animation-timing-function:ease-out}81%{-webkit-transform:translateY(-28px);transform:translateY(-28px);-webkit-animation-timing-function:ease-in;animation-timing-function:ease-in}95%{-webkit-transform:translateY(-8px);transform:translateY(-8px);-webkit-animation-timing-function:ease-in;animation-timing-function:ease-in}}@keyframes bounce-in-top{0%{-webkit-transform:translateY(-500px);transform:translateY(-500px);-webkit-animation-timing-function:ease-in;animation-timing-function:ease-in;opacity:0}38%{-webkit-transform:translateY(0);transform:translateY(0);-webkit-animation-timing-function:ease-out;animation-timing-function:ease-out;opacity:1}55%{-webkit-transform:translateY(-65px);transform:translateY(-65px);-webkit-animation-timing-function:ease-in;animation-timing-function:ease-in}72%,90%,to{-webkit-transform:translateY(0);transform:translateY(0);-webkit-animation-timing-function:ease-out;animation-timing-function:ease-out}81%{-webkit-transform:translateY(-28px);transform:translateY(-28px);-webkit-animation-timing-function:ease-in;animation-timing-function:ease-in}95%{-webkit-transform:translateY(-8px);transform:translateY(-8px);-webkit-animation-timing-function:ease-in;animation-timing-function:ease-in}}@-webkit-keyframes slide-in-elliptic-top-fwd{0%{-webkit-transform:translateY(-600px) rotateX(-30deg) scale(0);transform:translateY(-600px) rotateX(-30deg) scale(0);-webkit-transform-origin:50% 100%;transform-origin:50% 100%;opacity:0}to{-webkit-transform:translateY(0) rotateX(0) scale(1);transform:translateY(0) rotateX(0) scale(1);-webkit-transform-origin:50% 1400px;transform-origin:50% 1400px;opacity:1}}@keyframes slide-in-elliptic-top-fwd{0%{-webkit-transform:translateY(-600px) rotateX(-30deg) scale(0);transform:translateY(-600px) rotateX(-30deg) scale(0);-webkit-transform-origin:50% 100%;transform-origin:50% 100%;opacity:0}to{-webkit-transform:translateY(0) rotateX(0) scale(1);transform:translateY(0) rotateX(0) scale(1);-webkit-transform-origin:50% 1400px;transform-origin:50% 1400px;opacity:1}}.prefix__st1{fill:none;stroke:#fff;stroke-width:32.1233;stroke-miterlimit:10}.prefix__st3{fill:#fff}.prefix__st1,.prefix__st3{-webkit-animation:slide-in-elliptic-top-fwd 1s cubic-bezier(.25,.46,.45,.94) both .9s;animation:slide-in-elliptic-top-fwd 1s cubic-bezier(.25,.46,.45,.94) both .9s}</style><linearGradient id="prefix__SVGID_1_" gradientUnits="userSpaceOnUse" x1="64.247" y1="500" x2="935.753" y2="500"><stop offset="0" stop-color="#f15a3a"/><stop offset="1" stop-color="#d2202b"/></linearGradient><path d="M414.33 1000h171.35c192.54 0 350.08-157.54 350.08-350.08V350.08C935.75 157.54 778.22 0 585.67 0H64.25v649.92c0 192.54 157.53 350.08 350.08 350.08z" fill="url(#prefix__SVGID_1_)"/><path class="prefix__st1" d="M819.63 583.52c0-14.58-.96-28.98-2.89-43.05v-.06C795.67 383.39 661.13 262.29 498.4 262.29s-297.27 121.1-318.34 278.12v.06c-1.93 14.07-2.89 28.46-2.89 43.05 0 41.05 7.71 80.31 21.78 116.41 14.33 36.81 35.21 70.29 61.29 99.07M282.97 821.75c56.99 51.59 132.54 83.01 215.42 83.01"/><path class="prefix__st1 prefix__s_1" d="M418.09 101.67h160.62c132.48 0 240.93 108.45 240.93 240.93v160.62c0 12.66-.96 25.06-2.89 37.2v.06"/><path d="M498.39 536.43v94.18"/><path class="prefix__st3" d="M514.46 699.94v220.49c-5.33.26-10.66.39-16.06.39s-10.73-.13-16.06-.39V699.94h32.12z"/><path class="prefix__st1" d="M819.63 342.6V583.52"/><path d="M545.49 583.52H451.3"/><path class="prefix__st1 prefix__s_1" d="M177.16 101.67H578.7"/><path class="prefix__st3" d="M545.49 583.52c0 26.02-21.07 47.09-47.09 47.09-7.07 0-13.81-1.61-19.85-4.5-5.01-2.25-9.51-5.46-13.36-9.32-3.92-3.79-7.13-8.35-9.44-13.36a46.833 46.833 0 01-4.43-19.92c0-26.02 21.07-47.09 47.09-47.09 7.07 0 13.81 1.54 19.85 4.5 5.01 2.25 9.57 5.46 13.43 9.32 3.86 3.85 7.07 8.42 9.32 13.43 2.94 6.04 4.48 12.78 4.48 19.85z" style="-webkit-animation:bounce-in-top 1.1s both 1.5s;animation:bounce-in-top 1.1s both 1.5s"/><circle class="prefix__st3" cx="180.37" cy="101.67" r="22.49"/><circle class="prefix__st3" cx="498.39" cy="699.94" r="22.49"/><circle class="prefix__st3" cx="819.63" cy="583.52" r="22.49"/><circle class="prefix__st3" cx="293.34" cy="830.76" r="22.49"/><circle class="prefix__st3" cx="252.78" cy="790.21" r="22.49"/></svg>