<?xml version="1.0" encoding="UTF-8"?> <svg xmlns="http://www.w3.org/2000/svg" xmlns:xlink="http://www.w3.org/1999/xlink" width="923.442" height="552.668" viewBox="0 0 923.442 552.668"><style> .g-1 { animation-name: tranfX; animation-fill-mode: both; animation-duration: 2.5s; transform-origin: bottom; transform-box:fill-box ; animation-iteration-count: infinite; } .g-2{ animation-delay: .2s; animation-name: tranfX; animation-fill-mode: both; transform-origin: bottom; transform-box:fill-box ; animation-duration: 2.5s; animation-iteration-count: infinite; } .g-3{ animation-delay: .4s; animation-name: tranfX; transform-origin: bottom; transform-box:fill-box ; animation-fill-mode: both; animation-duration: 2.5s; animation-iteration-count: infinite; } .g-4{ animation-delay: .6s; animation-name: tranfX; transform-origin: bottom; transform-box:fill-box ; animation-fill-mode: both; animation-duration: 2.5s; animation-iteration-count: infinite; } .g-5{ animation-delay: .8s; animation-name: tranfX; transform-origin: bottom; transform-box:fill-box ; animation-fill-mode: both; animation-duration: 2.5s; animation-iteration-count: infinite; } @keyframes tranfX { 0% { transform: scaleY(1); } 50% { transform: scaleY(.1); } 100% { transform: scaleY(1); } } .tob-bottom { animation-name: tob-bottom; transform-origin: bottom; transform-box:fill-box ; animation-fill-mode: both; animation-duration: 2.5s; animation-iteration-count: infinite; } @keyframes tob-bottom { 0% { transform:translateY(0px) ; } 50% { transform:translateY(-10px) ; } 100% { transform:translateY(0px) ; } } .search { animation-name:search; transform-origin: bottom; transform-box:fill-box ; animation-fill-mode: both; animation-duration: 2.5s; animation-iteration-count: infinite; } @keyframes seach{ 0% { transform:translatex(0px) ; } 50% { transform:translateX(50px) ; } 100% { transform:translateY(0px) ; } } .man { animation-name: man1 ; animation-fill-mode: both; animation-duration: 2.5s; transform-origin: left; transform-box:fill-box ; animation-iteration-count: infinite; } @keyframes man1 { 0% { transform:translateX(0px) ; } 50% { transform:translateX(50px) ; } 100% { transform:translateX(0px) ; } } .line-st { animation-name: line-st ; animation-fill-mode: both; animation-duration: 2.5s; transform-origin: left; transform-box:fill-box ; animation-iteration-count: infinite; } @keyframes line-st { 0% { transform:translateY(0px) ; } 50% { transform:translateY(50px) ; } 100% { transform:translateY(0px) ; } } </style><defs><linearGradient id="linear-gradient" x1="0.5" x2="0.5" y2="1" gradientUnits="objectBoundingBox"><stop offset="0" stop-color="#6A2186" stop-opacity="0.878"></stop><stop offset="1" stop-color="#d13c44" stop-opacity="0.922"></stop></linearGradient><clipPath id="clip-path"><path id="Path_37233" data-name="Path 37233" d="M2821.161,691.871h5.155c72.059,7.09,93.371,75.764,59.748,211.615-2.753-8.352-6.257-19.734-11.881-26.662,6.525-49.921,9.407-92.894-6.905-111.752-14.015,5.279-73.062,5.279-87.078,0-16.311,18.857-13.375,62.246-6.851,112.167-5.044,6.828-8.848,17.894-11.6,26.246C2728.124,767.635,2749.1,698.961,2821.161,691.871Z" transform="translate(-2746.114 -691.871)" fill="none"></path></clipPath><clipPath id="clip-path-2"><circle id="Ellipse_488" data-name="Ellipse 488" cx="83.905" cy="83.905" r="83.905" transform="translate(0 118.659) rotate(-45)" fill="none"></circle></clipPath><linearGradient id="linear-gradient-2" x1="0.5" x2="0.5" y2="1" gradientUnits="objectBoundingBox"><stop offset="0" stop-color="#6A2186"></stop><stop offset="1" stop-color="#b52d35" stop-opacity="0.922"></stop></linearGradient></defs><g id="من_نحن_-جدارة_في_سطور_-_1-1" data-name="من نحن -جدارة في سطور - 1-1" transform="translate(-24.77 -40.758)"><g id="Group_28774" data-name="Group 28774" transform="translate(25.323 40.758)"><g id="Group_28758" data-name="Group 28758"><g id="Group_28736" data-name="Group 28736" transform="translate(10.135)"><path id="Path_38115" data-name="Path 38115" d="M175.155,591.44S40.294,564.766,33.42,470.532c-7.914-108.46,100.922-109.656,84.227-188.274C94.344,172.525,136.079,91.424,238.184,95.93c86.1,3.8,162.563,86.972,208.624,29.007,49.676-62.515,142.6-108.705,234.554-69.985s78.408,164.542,142,191.277c177.8,66.71,155.774,340.731-51.646,346.2C725.909,593.417,209.276,591.519,175.155,591.44Z" transform="translate(-33.007 -40.758)" fill="#FFD100"></path><path id="Path_38116" data-name="Path 38116" d="M650.843,201.071s-24.925-48.044,17.616-71.175c45.795-24.9,80.9,21.358,70.092,59.447S664.112,225.742,650.843,201.071Z" transform="translate(161.728 -14.574)" fill="#FFD100"></path><path id="Path_38117" data-name="Path 38117" d="M54.814,220.689C12.768,183.481,96.548,145.7,94.861,198.9,92.2,210.443,77.285,235.763,54.814,220.689Z" transform="translate(-29.822 1.272)" fill="#FFD100"></path></g><g id="Group_28757" data-name="Group 28757" transform="translate(0 292.967)"><g id="Group_28744" data-name="Group 28744" transform="translate(652.315)"><g id="Group_28739" data-name="Group 28739" transform="translate(0 112.629)"><path id="Path_38118" data-name="Path 38118" d="M603.466,493.761c-11.082.779-55.832,1.494-47.909-36.408,7.78-29.208-34.56-28.289-21.921-56.512,3.043-10.685-10.666-7.034-13.315-23.116s7.382-29.535,24.742-29.449,13.466,18.1,19.122,24.749S578.6,373.55,584.4,389.4c6.15,22.308-4.19,25.016,14.684,36.052" transform="translate(-519.9 -348.276)" fill="none" stroke="#ffb6a7" stroke-miterlimit="10" stroke-width="1"></path><g id="Group_28737" data-name="Group 28737" transform="translate(20.616 34.132)"><path id="Path_38119" data-name="Path 38119" d="M577.435,442.907c-9.151-18.625-21.507-42.277-37.038-68.753" transform="translate(-533.979 -374.154)" fill="none" stroke="#ffb6a7" stroke-miterlimit="10" stroke-width="0.5"></path><line id="Line_223" data-name="Line 223" x2="25.309" y2="2.625" transform="translate(0 30.934)" fill="none" stroke="#ffb6a7" stroke-miterlimit="10" stroke-width="0.5"></line></g><g id="Group_28738" data-name="Group 28738" transform="translate(21.806 11.982)"><path id="Path_38120" data-name="Path 38120" d="M544.087,389.426c.078,4.3-7.73,4.3-7.652,0C536.356,385.126,544.164,385.126,544.087,389.426Z" transform="translate(-536.434 -348.162)" fill="none" stroke="#ffb6a7" stroke-miterlimit="10" stroke-width="1"></path><path id="Path_38121" data-name="Path 38121" d="M550.439,367.428c-2.419,4.335-9.173.435-6.628-3.828C546.232,359.265,552.985,363.164,550.439,367.428Z" transform="translate(-534.26 -355.974)" fill="none" stroke="#ffb6a7" stroke-miterlimit="10" stroke-width="1"></path><path id="Path_38122" data-name="Path 38122" d="M562.689,432.847c.1,5.36-9.635,5.359-9.539,0C553.054,427.488,562.785,427.487,562.689,432.847Z" transform="translate(-531.102 -334.567)" fill="none" stroke="#ffb6a7" stroke-miterlimit="10" stroke-width="1"></path><path id="Path_38123" data-name="Path 38123" d="M544.345,359.015a1.7,1.7,0,0,1-3.4,0A1.7,1.7,0,0,1,544.345,359.015Z" transform="translate(-534.995 -357.36)" fill="none" stroke="#ffb6a7" stroke-miterlimit="10" stroke-width="1"></path></g></g><g id="Group_28740" data-name="Group 28740" transform="translate(143.459 125.604)"><path id="Path_38124" data-name="Path 38124" d="M633.971,486.945C624.8,480.4,623.892,438.91,661.5,430.511c19.205-4.289,16.128-13.9,20.008-26.269s8.751-13.275,19.744-14.954,2.74-16.663,15.788-25.341,30.564-9.343,37.088,9.623c5.525,16.058-10.124,23.131-13.316,30.6s6.094,17.55-5.228,28.811S712.15,435.764,712,447.69s-5.447,33.654-16.943,38.125C680.839,491.345,641.213,492.11,633.971,486.945Z" transform="translate(-628.669 -358.113)" fill="none" stroke="#ffb6a7" stroke-miterlimit="10" stroke-width="1"></path><path id="Path_38125" data-name="Path 38125" d="M641.845,482.471c.553-.667,37.657-42.462,78.06-97.725" transform="translate(-624.467 -349.619)" fill="none" stroke="#ffb6a7" stroke-miterlimit="10" stroke-width="0.5"></path></g><g id="Group_28743" data-name="Group 28743" transform="translate(64.057)"><path id="Path_38126" data-name="Path 38126" d="M678.73,461.363c-13.006-54.187,20.757-24.089,44.456-67.3,14.115-33-20.448-45-4.193-58.807s20.792-61.265-3.018-69.426c-30.867-10.579-58.608,8.772-62.379,34.262-2.908,19.661,10.273,33.393-24.034,47.806s-29.007,32.31-21.96,66.542-16.137,21.681-34.155,50.575c-14.279,22.9,5.787,46.251,14.734,54.96l69.441,1.194" transform="translate(-568.467 -262.882)" fill="none" stroke="#ffb6a7" stroke-miterlimit="10" stroke-width="1"></path><g id="Group_28742" data-name="Group 28742" transform="translate(33.002 24.883)"><path id="Path_38127" data-name="Path 38127" d="M593.489,513.46s83.485-192.678,104.417-231.712" transform="translate(-593.489 -281.748)" fill="none" stroke="#ffb6a7" stroke-miterlimit="10" stroke-width="0.5"></path><g id="Group_28741" data-name="Group 28741" transform="translate(17.125 84.064)"><line id="Line_224" data-name="Line 224" y1="2.575" x2="46.557" transform="translate(47.009)" fill="none" stroke="#ffb6a7" stroke-miterlimit="10" stroke-width="0.5"></line><line id="Line_225" data-name="Line 225" y1="4.13" x2="36.719" transform="translate(0 104.485)" fill="none" stroke="#ffb6a7" stroke-miterlimit="10" stroke-width="0.5"></line></g><line id="Line_226" data-name="Line 226" x2="27.356" y2="61.405" transform="translate(13.62 76.738)" fill="none" stroke="#ffb6a7" stroke-miterlimit="10" stroke-width="0.5"></line></g><path id="Path_38128" data-name="Path 38128" d="M656.774,289.252c-5.266,7.92-14.9,1.362-9.463-6.442C652.577,274.89,662.212,281.447,656.774,289.252Z" transform="translate(-543.835 -257.671)" fill="none" stroke="#ffb6a7" stroke-miterlimit="10" stroke-width="1"></path><path id="Path_38129" data-name="Path 38129" d="M656.91,301.29c.061,4.152-6.463,4.153-6.4,0C650.447,297.137,656.972,297.137,656.91,301.29Z" transform="translate(-542.302 -251.626)" fill="none" stroke="#ffb6a7" stroke-miterlimit="10" stroke-width="1"></path><path id="Path_38130" data-name="Path 38130" d="M675.966,364.6c.119,8.071-12.558,8.071-12.439,0C663.408,356.526,676.085,356.526,675.966,364.6Z" transform="translate(-538.15 -232.372)" fill="none" stroke="#ffb6a7" stroke-miterlimit="10" stroke-width="1"></path></g></g><g id="Group_28756" data-name="Group 28756" transform="translate(0 35.461)"><g id="Group_28747" data-name="Group 28747" transform="translate(0 130.408)"><g id="Group_28745" data-name="Group 28745"><path id="Path_38131" data-name="Path 38131" d="M98.458,479.8c-7.393,1.936-40.817,7.484-40.283-19.144.273-13.6-3.692-13.106-11.661-18.435s-7.776-8.738-7.077-16.348-6.887-3.925-11.94-13.932c-6.043-11.972,1.235-20.9,12.98-23.054s11.4,10.52,16.073,14.3,11.124-4.345,20.093,6.666c5.856,7.188-3.235,23.588,5.377,22.059" transform="translate(-25.323 -388.641)" fill="none" stroke="#ffb6a7" stroke-miterlimit="10" stroke-width="1"></path></g><g id="Group_28746" data-name="Group 28746" transform="translate(20.355 21.663)"><path id="Path_38132" data-name="Path 38132" d="M77.163,451.02c-8.778-11.868-20.942-27.476-36.1-44.882" transform="translate(-40.658 -404.724)" fill="none" stroke="#ffb6a7" stroke-miterlimit="10" stroke-width="0.5"></path><path id="Path_38133" data-name="Path 38133" d="M59.647,405.066l-1.45,21.7-17.441,1.445" transform="translate(-40.756 -405.066)" fill="none" stroke="#ffb6a7" stroke-miterlimit="10" stroke-width="0.5"></path></g></g><g id="Group_28751" data-name="Group 28751" transform="translate(8.21)"><g id="Group_28748" data-name="Group 28748"><path id="Path_38134" data-name="Path 38134" d="M44.271,353.856c-44.329-55.3,39.937-95.827,58.66-30.237,2.609,16.906-9.215,28.713,21.557,41.107s26.019,27.785,19.7,57.221,14.475,18.643,30.636,43.491c12.808,19.689-5.19,39.771-13.216,47.26l-62.942-.306c-26.053-13.921-19.049-45.2-15.972-67.359,2.279-22.115-29.514-12.228-42.177-40.607S58.85,365.732,44.271,353.856Z" transform="translate(-31.548 -289.768)" fill="none" stroke="#ffb6a7" stroke-miterlimit="10" stroke-width="1"></path></g><g id="Group_28750" data-name="Group 28750" transform="translate(18.852 23.248)"><path id="Path_38135" data-name="Path 38135" d="M143.766,506.645S68.883,340.96,50.107,307.394" transform="translate(-44.481 -307.394)" fill="none" stroke="#ffb6a7" stroke-miterlimit="10" stroke-width="0.5"></path><g id="Group_28749" data-name="Group 28749" transform="translate(0 72.288)"><line id="Line_227" data-name="Line 227" x1="41.76" y1="2.215" fill="none" stroke="#ffb6a7" stroke-miterlimit="10" stroke-width="0.5"></line><line id="Line_228" data-name="Line 228" x1="46.962" y1="5.064" transform="translate(36.963 88.336)" fill="none" stroke="#ffb6a7" stroke-miterlimit="10" stroke-width="0.5"></line></g><line id="Line_229" data-name="Line 229" x1="24.537" y2="52.803" transform="translate(62.532 65.988)" fill="none" stroke="#ffb6a7" stroke-miterlimit="10" stroke-width="0.5"></line></g><path id="Path_38136" data-name="Path 38136" d="M67.1,313.846c4.565,6.716,13.4,1.348,8.487-5.539C71.028,301.59,62.2,306.958,67.1,313.846Z" transform="translate(-20.667 -284.838)" fill="none" stroke="#ffb6a7" stroke-miterlimit="10" stroke-width="1"></path><path id="Path_38137" data-name="Path 38137" d="M65.62,324.2c-.055,3.57,5.8,3.57,5.743,0C71.418,320.627,65.565,320.628,65.62,324.2Z" transform="translate(-20.681 -279.641)" fill="none" stroke="#ffb6a7" stroke-miterlimit="10" stroke-width="1"></path><path id="Path_38138" data-name="Path 38138" d="M49.837,378.636c-.107,6.938,11.266,6.938,11.158,0C61.1,371.7,49.729,371.7,49.837,378.636Z" transform="translate(-25.715 -263.084)" fill="none" stroke="#ffb6a7" stroke-miterlimit="10" stroke-width="1"></path></g><g id="Group_28755" data-name="Group 28755" transform="translate(163.343 38.192)"><g id="Group_28752" data-name="Group 28752"><path id="Path_38139" data-name="Path 38139" d="M280.391,375.961c44.879-40.531-20.568-86.157-45.282-33.467-4.5,13.883,3.846,25.44-23.763,31.682s-25.7,19.853-24.394,45.507-14.734,13.727-31.735,32.451c-13.473,14.837-1.053,34.205,4.685,41.608l53.055,8.326C236.8,493.9,235.166,466.6,235.6,447.515c1.1-18.937,26.525-6.274,41.062-28.449S266.492,383.975,280.391,375.961Z" transform="translate(-149.168 -318.725)" fill="none" stroke="#ffb6a7" stroke-miterlimit="10" stroke-width="1"></path></g><g id="Group_28754" data-name="Group 28754" transform="translate(20.832 21.235)"><path id="Path_38140" data-name="Path 38140" d="M164.963,489.87s85.669-129.335,106.061-155.045" transform="translate(-164.963 -334.825)" fill="none" stroke="#ffb6a7" stroke-miterlimit="10" stroke-width="0.5"></path><g id="Group_28753" data-name="Group 28753" transform="translate(17.515 57.821)"><line id="Line_230" data-name="Line 230" x2="35.474" y2="3.83" transform="translate(47.95)" fill="none" stroke="#ffb6a7" stroke-miterlimit="10" stroke-width="0.5"></line><line id="Line_231" data-name="Line 231" x2="40.245" y2="2.14" transform="translate(0 71.049)" fill="none" stroke="#ffb6a7" stroke-miterlimit="10" stroke-width="0.5"></line></g><line id="Line_232" data-name="Line 232" x2="13.465" y2="47.82" transform="translate(28.465 44.47)" fill="none" stroke="#ffb6a7" stroke-miterlimit="10" stroke-width="0.5"></line></g><path id="Path_38141" data-name="Path 38141" d="M232.742,338.111c-4.76,5.034-11.467-.691-6.393-5.823C231.109,327.254,237.816,332.981,232.742,338.111Z" transform="translate(-125.13 -315.021)" fill="none" stroke="#ffb6a7" stroke-miterlimit="10" stroke-width="1"></path><path id="Path_38142" data-name="Path 38142" d="M238.35,395.067c-.856,5.859-10.435,4.308-9.4-1.522C229.808,387.687,239.388,389.238,238.35,395.067Z" transform="translate(-123.747 -296.041)" fill="none" stroke="#ffb6a7" stroke-miterlimit="10" stroke-width="1"></path></g></g></g></g><g class="line-st"><g id="Group_28760" data-name="Group 28760" transform="translate(59.314 71.108)"><path id="Path_38143" data-name="Path 38143" d="M75.4,224.524l163.41,175.641,53.8-98.03L336.67,405.961l92.711-88.574,86.607,127.882,91.6-223.73,114.757,42.023,90.986-127.1,42.189,35.98,45.261-70.74" transform="translate(-68.665 -92.428)" fill="none" stroke="#6A2186" stroke-linecap="round" stroke-miterlimit="10" stroke-width="1"></path><g id="Group_28759" data-name="Group 28759" transform="translate(0)"><path id="Path_38144" data-name="Path 38144" d="M205.332,328.043a5.264,5.264,0,1,1-5.264-5.264A5.264,5.264,0,0,1,205.332,328.043Z" transform="translate(-30.583 -21.919)" fill="#dc80ff"></path><path id="Path_38145" data-name="Path 38145" d="M80.822,194.592a5.264,5.264,0,1,1-5.264-5.264A5.263,5.263,0,0,1,80.822,194.592Z" transform="translate(-70.294 -64.482)" fill="#dc80ff"></path><path id="Path_38146" data-name="Path 38146" d="M280.615,333.336a5.264,5.264,0,1,1-5.264-5.264A5.264,5.264,0,0,1,280.615,333.336Z" transform="translate(-6.573 -20.231)" fill="#dc80ff"></path><path id="Path_38147" data-name="Path 38147" d="M415.986,363.463a5.264,5.264,0,1,1-5.264-5.264A5.264,5.264,0,0,1,415.986,363.463Z" transform="translate(36.602 -10.623)" fill="#dc80ff"></path><path id="Path_38148" data-name="Path 38148" d="M485.433,194.493a5.263,5.263,0,1,1-5.263-5.264A5.263,5.263,0,0,1,485.433,194.493Z" transform="translate(58.751 -64.513)" fill="#dc80ff"></path><path id="Path_38149" data-name="Path 38149" d="M572.442,225.32a5.264,5.264,0,1,1-5.264-5.264A5.264,5.264,0,0,1,572.442,225.32Z" transform="translate(86.501 -54.681)" fill="#dc80ff"></path><path id="Path_38150" data-name="Path 38150" d="M641.184,128.723a5.264,5.264,0,1,1-5.264-5.264A5.263,5.263,0,0,1,641.184,128.723Z" transform="translate(108.425 -85.489)" fill="#dc80ff"></path><path id="Path_38151" data-name="Path 38151" d="M673.253,156.61a5.263,5.263,0,1,1-5.264-5.264A5.263,5.263,0,0,1,673.253,156.61Z" transform="translate(118.654 -76.595)" fill="#dc80ff"></path><path id="Path_38152" data-name="Path 38152" d="M694.812,106.889l8.584,4.805,6.082-17.024Z" transform="translate(128.887 -94.671)" fill="#dc80ff"></path></g></g></g><g id="Group_28773" data-name="Group 28773" transform="translate(76.713 63.52)"><g id="Group_28763" data-name="Group 28763" transform="translate(0 66.608)"><g id="Group_28762" data-name="Group 28762"><g id="Group_28761" data-name="Group 28761"><path id="Path_38153" data-name="Path 38153" d="M121.361,146.936a22.382,22.382,0,0,1,4.866,3.428l5.2-1.852,4.887,7.714-3.893,3.912A22.378,22.378,0,0,1,133.441,166l4.984,2.367-2,8.911-5.517.012a22.318,22.318,0,0,1-3.429,4.867l1.852,5.2-7.713,4.888-3.912-3.895a22.334,22.334,0,0,1-5.867,1.021l-2.366,4.984-8.912-2-.011-5.518a22.281,22.281,0,0,1-4.867-3.428l-5.2,1.85-4.887-7.714,3.895-3.911a22.432,22.432,0,0,1-1.021-5.865l-4.983-2.367,2-8.911L91,156.483a22.364,22.364,0,0,1,3.429-4.867l-1.852-5.2,7.713-4.888,3.912,3.9a22.39,22.39,0,0,1,5.867-1.022l2.366-4.983,8.911,2,.013,5.518ZM113.5,157.42a9.8,9.8,0,1,0,7.415,11.7A9.8,9.8,0,0,0,113.5,157.42Z" transform="translate(-83.486 -139.419)" fill="#6A2186" stroke="#bf3012" stroke-miterlimit="10" stroke-width="1" fill-rule="evenodd"></path></g></g></g><g id="Group_28766" data-name="Group 28766" transform="translate(597.91 43.885)"><g id="Group_28765" data-name="Group 28765"><g id="Group_28764" data-name="Group 28764"><path id="Path_38154" data-name="Path 38154" d="M566.52,128.087a17.585,17.585,0,0,1,3.817,2.689l4.078-1.452,3.833,6.05-3.053,3.068a17.566,17.566,0,0,1,.8,4.6L579.9,144.9l-1.568,6.989-4.327.009a17.524,17.524,0,0,1-2.689,3.817l1.452,4.079-6.05,3.833-3.068-3.055a17.551,17.551,0,0,1-4.6.8l-1.856,3.909-6.989-1.567-.009-4.329a17.5,17.5,0,0,1-3.817-2.688l-4.08,1.451-3.834-6.05,3.056-3.068a17.608,17.608,0,0,1-.8-4.6l-3.908-1.857,1.568-6.989,4.326-.009a17.506,17.506,0,0,1,2.691-3.817l-1.452-4.079,6.05-3.833,3.068,3.055a17.6,17.6,0,0,1,4.6-.8l1.856-3.909,6.989,1.568.011,4.327Zm-6.162,8.224a7.684,7.684,0,1,0,5.815,9.18A7.685,7.685,0,0,0,560.358,136.31Z" transform="translate(-536.814 -122.191)" fill-rule="evenodd" fill="url(#linear-gradient)"></path></g></g></g><g id="Group_28769" data-name="Group 28769" transform="translate(707.063 164.321)"><g id="Group_28768" data-name="Group 28768"><g id="Group_28767" data-name="Group 28767"><path id="Path_38155" data-name="Path 38155" d="M660.075,221.542a23.958,23.958,0,0,1,5.2,3.665l5.561-1.98,5.227,8.25-4.165,4.184a23.874,23.874,0,0,1,1.092,6.273l5.331,2.531-2.138,9.529-5.9.012a23.855,23.855,0,0,1-3.667,5.2l1.98,5.562L660.351,270l-4.184-4.164a23.886,23.886,0,0,1-6.273,1.091l-2.531,5.331-9.529-2.138-.013-5.9a23.935,23.935,0,0,1-5.2-3.667l-5.562,1.98-5.227-8.25,4.166-4.184a23.944,23.944,0,0,1-1.092-6.272l-5.33-2.532,2.138-9.529,5.9-.012a23.893,23.893,0,0,1,3.667-5.206l-1.98-5.561,8.249-5.227,4.184,4.165A24,24,0,0,1,648,218.832l2.531-5.329,9.529,2.137.013,5.9Zm-8.4,11.212a10.476,10.476,0,1,0,7.929,12.515A10.477,10.477,0,0,0,651.674,232.754Z" transform="translate(-619.572 -213.504)" fill="none" stroke="#ffc2b5" stroke-miterlimit="10" stroke-width="1" fill-rule="evenodd"></path></g></g></g><g id="Group_28772" data-name="Group 28772" transform="translate(629.191)"><g id="Group_28771" data-name="Group 28771"><g id="Group_28770" data-name="Group 28770"><path id="Path_38156" data-name="Path 38156" d="M590.605,94.886a17.784,17.784,0,0,1,3.865,2.722l4.13-1.469,3.88,6.125-3.093,3.106a17.754,17.754,0,0,1,.811,4.657l3.958,1.879-1.588,7.076-4.38.009a17.714,17.714,0,0,1-2.724,3.864l1.471,4.13-6.125,3.88-3.106-3.092a17.755,17.755,0,0,1-4.658.81l-1.878,3.958-7.076-1.587-.009-4.381a17.678,17.678,0,0,1-3.864-2.722l-4.131,1.469-3.88-6.125,3.093-3.106a17.8,17.8,0,0,1-.811-4.657l-3.957-1.879,1.587-7.076,4.382-.009a17.708,17.708,0,0,1,2.722-3.864l-1.469-4.13,6.125-3.88,3.106,3.093a17.748,17.748,0,0,1,4.657-.811l1.879-3.958,7.075,1.588.01,4.38Zm-6.239,8.326a7.779,7.779,0,1,0,5.888,9.293A7.777,7.777,0,0,0,584.367,103.213Z" transform="translate(-560.531 -88.918)" fill="#dc80ff" stroke="#6A2186" stroke-miterlimit="10" stroke-width="1" fill-rule="evenodd"></path></g></g></g></g></g><g id="Group_28813" data-name="Group 28813" transform="translate(32.958 44.677)"><g id="Group_28790" data-name="Group 28790" transform="translate(238.31 47.816)"><g id="Group_28776" data-name="Group 28776"><rect id="Rectangle_10165" data-name="Rectangle 10165" width="448.153" height="282.89" rx="11.875" fill="#fff" stroke="#010001" stroke-miterlimit="10" stroke-width="1"></rect><path id="Path_38157" data-name="Path 38157" d="M644.287,79.983H227.458A15.662,15.662,0,0,0,211.8,95.645v7.828H659.949V95.645A15.663,15.663,0,0,0,644.287,79.983Z" transform="translate(-211.796 -79.983)" fill="#bfbcc0" stroke="#010001" stroke-miterlimit="10" stroke-width="1"></path><g id="Group_28775" data-name="Group 28775" transform="translate(11.321 6.574)"><circle id="Ellipse_486" data-name="Ellipse 486" cx="5.532" cy="5.532" r="5.532" fill="none" stroke="#010001" stroke-miterlimit="10" stroke-width="1"></circle><path id="Path_38158" data-name="Path 38158" d="M247.265,90.5a5.532,5.532,0,1,1-5.532-5.532A5.532,5.532,0,0,1,247.265,90.5Z" transform="translate(-215.333 -84.967)" fill="none" stroke="#010001" stroke-miterlimit="10" stroke-width="1"></path><path id="Path_38159" data-name="Path 38159" d="M263.087,90.5a5.532,5.532,0,1,1-5.533-5.532A5.533,5.533,0,0,1,263.087,90.5Z" transform="translate(-210.287 -84.967)" fill="none" stroke="#010001" stroke-miterlimit="10" stroke-width="1"></path></g></g><g id="Group_28789" data-name="Group 28789" transform="translate(41.005 42.713)"><g id="Group_28779" data-name="Group 28779" transform="translate(9.49 177.005)"><g id="Group_28777" data-name="Group 28777"><path id="Path_38160" data-name="Path 38160" d="M409.621,252.341H252.966a2.886,2.886,0,0,1-2.886-2.886h0a2.885,2.885,0,0,1,2.886-2.884H409.621a2.884,2.884,0,0,1,2.885,2.884h0A2.885,2.885,0,0,1,409.621,252.341Z" transform="translate(-250.08 -246.571)" fill="#bfbcc0"></path><path id="Path_38161" data-name="Path 38161" d="M370.785,263.255H252.966a2.886,2.886,0,0,1-2.886-2.886h0a2.885,2.885,0,0,1,2.886-2.885H370.785a2.884,2.884,0,0,1,2.885,2.885h0A2.885,2.885,0,0,1,370.785,263.255Z" transform="translate(-250.08 -243.09)" fill="#bfbcc0"></path><path id="Path_38162" data-name="Path 38162" d="M321.027,274.169H252.966a2.886,2.886,0,0,1-2.886-2.886h0a2.885,2.885,0,0,1,2.886-2.885h68.061a2.884,2.884,0,0,1,2.885,2.885h0A2.885,2.885,0,0,1,321.027,274.169Z" transform="translate(-250.08 -239.609)" fill="#bfbcc0"></path></g><g id="Group_28778" data-name="Group 28778" transform="translate(178.355 2.045)"><line id="Line_233" data-name="Line 233" x2="142.373" fill="none" stroke="#010001" stroke-linecap="round" stroke-miterlimit="10" stroke-width="2"></line><line id="Line_234" data-name="Line 234" x2="89.897" transform="translate(0 10.343)" fill="none" stroke="#010001" stroke-linecap="round" stroke-miterlimit="10" stroke-width="2"></line><line id="Line_235" data-name="Line 235" x2="67.176" transform="translate(0 20.686)" fill="none" stroke="#010001" stroke-linecap="round" stroke-miterlimit="10" stroke-width="2"></line><line id="Line_236" data-name="Line 236" x2="108.045" transform="translate(0 31.03)" fill="none" stroke="#010001" stroke-linecap="round" stroke-miterlimit="10" stroke-width="2"></line></g></g><g id="Group_28788" data-name="Group 28788"><g class="tob-bottom"><g id="Group_28780" data-name="Group 28780" transform="translate(79.565 56.673)"><path id="Path_38163" data-name="Path 38163" d="M303.21,265.559l25.564-36.979a16.374,16.374,0,0,1,22.993-4.007l3.591,2.568a16.373,16.373,0,0,0,25.019-8.022L392.789,182.8c5.049-14.771,25.938-14.771,30.987,0l6.006,17.572c4.818,14.1,24.429,14.957,30.463,1.337l5.21-11.756a16.374,16.374,0,0,1,28.486-2.608h0a16.373,16.373,0,0,0,29.01-3.945l5.807-16.991c5.335-15.607,27.793-14.424,31.458,1.659l22.215,97.485S303.989,264.781,303.21,265.559Z" transform="translate(-303.21 -155.337)" fill="#FFD100"></path></g></g><g class="tob-bottom"><g id="Group_28781" data-name="Group 28781" transform="translate(78.077 96.264)"><path id="Path_38164" data-name="Path 38164" d="M565.423,220.969c-4.863-9.647-18.28-11.436-24.977-2.96q-.344.435-.664.9s-7.29,13.333-11.2,16.385c-9.606,7.5-21.505,9.143-34.4-8.089l-8.061-10.023a15.994,15.994,0,0,0-21.9-2.886l-9.329,6.824c-4.382,3.205-10.368,9.42-14.978,6.9-5.106-2.783-18.772-13.729-18.772-13.729a15.992,15.992,0,0,0-21.9,2.886l-8.061,10.023a15.993,15.993,0,0,1-27.464-4.48l-9.95-26.923c-5.216-14.117-25.268-13.87-30.135.371L303.63,254.667l-1.548,1.7.965,0-.2.579c0-1.149,280.421-.575,280.421-.575Z" transform="translate(-302.082 -185.354)" fill="#dc80ff"></path></g></g><line id="Line_237" data-name="Line 237" x2="354.931" transform="translate(24.909 167.827)" fill="none" stroke="#010001" stroke-linecap="round" stroke-miterlimit="10" stroke-width="1"></line><g id="Group_28782" data-name="Group 28782" transform="translate(112.944 14.387)"><line id="Line_238" data-name="Line 238" y2="142.249" transform="translate(0 11.569)" fill="none" stroke="#010001" stroke-miterlimit="10" stroke-width="0.476" stroke-dasharray="3.81"></line><line id="Line_239" data-name="Line 239" y2="136.883" transform="translate(70.006 20.115)" fill="none" stroke="#010001" stroke-miterlimit="10" stroke-width="0.476" stroke-dasharray="3.81"></line><line id="Line_240" data-name="Line 240" y2="155.106" transform="translate(208.914)" fill="none" stroke="#010001" stroke-miterlimit="10" stroke-width="0.476" stroke-dasharray="3.81"></line><line id="Line_241" data-name="Line 241" y2="105.057" transform="translate(140.271 48.761)" fill="none" stroke="#010001" stroke-miterlimit="10" stroke-width="0.476" stroke-dasharray="3.81"></line></g><path id="Path_38165" data-name="Path 38165" d="M484.143,158.028H434.417a1.8,1.8,0,0,1-1.8-1.8h0a1.8,1.8,0,0,1,1.8-1.8h49.727a1.8,1.8,0,0,1,1.8,1.8h0A1.8,1.8,0,0,1,484.143,158.028Z" transform="translate(-182.373 -98.954)" fill="#bfbcc0"></path><path id="Path_38166" data-name="Path 38166" d="M535.94,121.415H486.214a1.8,1.8,0,0,1-1.8-1.8h0a1.8,1.8,0,0,1,1.8-1.8H535.94a1.8,1.8,0,0,1,1.8,1.8h0A1.8,1.8,0,0,1,535.94,121.415Z" transform="translate(-165.853 -110.631)" fill="#bfbcc0"></path><rect id="Rectangle_10166" data-name="Rectangle 10166" width="37.261" height="3.603" rx="0.892" transform="translate(318.559)" fill="#bfbcc0"></rect><path id="Path_38167" data-name="Path 38167" d="M431.074,136.539H381.348a1.8,1.8,0,0,1-1.8-1.8h0a1.8,1.8,0,0,1,1.8-1.8h49.727a1.8,1.8,0,0,1,1.8,1.8h0A1.8,1.8,0,0,1,431.074,136.539Z" transform="translate(-199.299 -105.808)" fill="#bfbcc0"></path><path id="Path_38168" data-name="Path 38168" d="M378.406,130.294H328.681a1.8,1.8,0,0,1-1.8-1.8h0a1.8,1.8,0,0,1,1.8-1.8h49.725a1.8,1.8,0,0,1,1.8,1.8h0A1.8,1.8,0,0,1,378.406,130.294Z" transform="translate(-216.096 -107.8)" fill="#bfbcc0"></path><rect id="Rectangle_10167" data-name="Rectangle 10167" width="29.085" height="3.603" rx="0.788" transform="translate(110.782 10.784)" fill="#bfbcc0"></rect><rect id="Rectangle_10168" data-name="Rectangle 10168" width="37.835" height="3.603" rx="0.899" transform="translate(250.242 48.265)" fill="#bfbcc0"></rect><g id="Group_28787" data-name="Group 28787" transform="translate(0 4.271)"><g id="Group_28784" data-name="Group 28784"><g id="Group_28783" data-name="Group 28783"><path id="Path_38169" data-name="Path 38169" d="M291.732,164.458l48.291-7.379A48.852,48.852,0,1,1,297.1,115.9Z" transform="translate(-242.885 -115.606)" fill="#dc80ff"></path></g></g><g id="Group_28786" data-name="Group 28786" transform="translate(58.653 0.451)"><g id="Group_28785" data-name="Group 28785"><path id="Path_38170" data-name="Path 38170" d="M293.218,115.948l-5.863,37.433,36.746-6.9S318.7,125.5,293.218,115.948Z" transform="translate(-287.355 -115.948)" fill="#dc80ff"></path></g></g></g></g></g></g><g id="Group_28791" data-name="Group 28791" transform="translate(221.825 350.747)"><g class="g-5"><rect id="Rectangle_10169" data-name="Rectangle 10169" width="89.688" height="175.497" transform="translate(462.206 20.706)" fill="#6A2186" stroke="#010001" stroke-miterlimit="10" stroke-width="1"></rect></g><g class="g-4"><rect id="Rectangle_10170" data-name="Rectangle 10170" width="89.688" height="67.188" transform="translate(347.34 129.57)" fill="#dc80ff" stroke="#010001" stroke-miterlimit="10" stroke-width="1"></rect></g><g class="g-2"><rect id="Rectangle_10171" data-name="Rectangle 10171" width="89.688" height="196.202" transform="translate(112.109 0)" fill="#dc80ff" stroke="#010001" stroke-miterlimit="10" stroke-width="1"></rect></g><g class="g-3"><rect id="Rectangle_10172" data-name="Rectangle 10172" width="89.688" height="114.261" transform="translate(232.332 81.941)" fill="#6A2186" stroke="#010001" stroke-miterlimit="10" stroke-width="1"></rect></g><g class="g-1"><rect id="Rectangle_10173" data-name="Rectangle 10173" width="89.688" height="147.666" transform="translate(0 48.536)" fill="#6A2186" stroke="#010001" stroke-miterlimit="10" stroke-width="1"></rect></g></g><g id="Group_28812" data-name="Group 28812" transform="translate(58.175)"><g class="man"><g id="Group_28815" data-name="Group 28815" transform="translate(0 49.858)"><path id="Path_37184" data-name="Path 37184" d="M2807.507,760.861l65.543,89.167L2861.384,955.55h-53.876Z" transform="translate(-2728.835 -748.173)" fill="#FFD100"></path><path id="Path_37185" data-name="Path 37185" d="M3232.455,760.861l-65.544,89.167,11.667,105.522h53.877Z" transform="translate(-3154.338 -748.173)" fill="#FFD100"></path><g id="Group_26804" data-name="Group 26804" transform="translate(86.184 410.811)"><g id="Group_26803" data-name="Group 26803"><path id="Path_37186" data-name="Path 37186" d="M2961.409,2986.95l-5.935-57.294,26.456-4.046-2.612,61.34a6.285,6.285,0,0,0,1.091,3.539l2.948,4.324h-25.988l2.948-4.324A6.28,6.28,0,0,0,2961.409,2986.95Z" transform="translate(-2952.538 -2925.61)" fill="#fbd3a8"></path><path id="Path_37187" data-name="Path 37187" d="M2964.856,3287.344v6.206c-1.38,3.6-35.11,3.738-35.649,0v-5.739a11.309,11.309,0,0,1,.551-3.517c5.871-17.918,30.865-15.13,34.766.3A11.224,11.224,0,0,1,2964.856,3287.344Z" transform="translate(-2929.207 -3208.222)" fill="#6A2186"></path><path id="Path_37188" data-name="Path 37188" d="M2975.551,3322.5c-3.984-8.91-25.548-8.931-29.2-.061a1.02,1.02,0,0,0,.652,1.367c7.14,2.134,22.593,2.013,27.981.075A1.019,1.019,0,0,0,2975.551,3322.5Z" transform="translate(-2943.132 -3244.041)" fill="#ffd9a4"></path><path id="Path_37189" data-name="Path 37189" d="M3051.752,3350.39l-1.078-3.492a.519.519,0,0,0-.982.008l-.867,3.3Z" transform="translate(-3038.102 -3269.136)" fill="#6A2186"></path><path id="Path_37190" data-name="Path 37190" d="M2930.217,3307.342c1.414,1.789,1.885,5.289,0,6.829,3.4-.264,6.456-.767,8.039-2.28l.023-6.206c0-5.706-3.889-9.683-6.093-11.3a4.2,4.2,0,0,1-2.979,5.605,8.788,8.788,0,0,1,6.126,5.234C2935.369,3306.867,2933.058,3307.246,2930.217,3307.342Z" transform="translate(-2902.63 -3226.564)" fill="#6A2186"></path><path id="Path_37191" data-name="Path 37191" d="M2946.894,3333.021c1.361,1.807,1.386,4.735.439,5.465,1.314-.176,2.359-.5,2.566-1.261C2949.727,3335.707,2948.325,3334.159,2946.894,3333.021Z" transform="translate(-2917.504 -3258.094)" fill="#f8a364" opacity="0.35"></path><path id="Path_37192" data-name="Path 37192" d="M3093.747,3331.923c-1.361,1.807-1.385,4.736-.438,5.466-1.314-.175-2.36-.494-2.567-1.26C3090.914,3334.61,3092.316,3333.062,3093.747,3331.923Z" transform="translate(-3087.805 -3257.197)" fill="#f8a364" opacity="0.35"></path><path id="Path_37193" data-name="Path 37193" d="M3059.89,3292.53c-2.16,1.352-3.59,2.958-3.2,3.588s2.466.047,4.625-1.3,3.59-2.957,3.2-3.588S3062.049,3291.178,3059.89,3292.53Z" transform="translate(-3052.364 -3223.777)" fill="#fff" opacity="0.2"></path><path id="Path_37194" data-name="Path 37194" d="M3091.468,3355.538a.072.072,0,0,0-.144.005l-.259,4.549a.667.667,0,0,0,.606.665l4.059.512a.079.079,0,0,0,.034-.153l-3.294-1.061a.666.666,0,0,1-.475-.515Z" transform="translate(-3089.938 -3276.417)" fill="#fff" opacity="0.2"></path></g><path id="Path_37195" data-name="Path 37195" d="M2975.823,3208.09c5.62,2.094,14.806,1.684,18.577-.369l.241-5.673-19.633.264Z" transform="translate(-2967.415 -3151.208)" fill="#f8a364" opacity="0.35"></path></g><g id="Group_26806" data-name="Group 26806" transform="translate(36.528 410.811)"><g id="Group_26805" data-name="Group 26805"><path id="Path_37196" data-name="Path 37196" d="M3237.118,2986.95l5.935-57.294-26.455-4.046,2.611,61.34a6.282,6.282,0,0,1-1.092,3.539l-2.948,4.324h25.988l-2.947-4.324A6.28,6.28,0,0,1,3237.118,2986.95Z" transform="translate(-3210.34 -2925.61)" fill="#fbd3a8"></path><path id="Path_37197" data-name="Path 37197" d="M3199.206,3287.344v6.206c1.38,3.6,35.111,3.738,35.649,0v-5.739a11.294,11.294,0,0,0-.55-3.517c-5.871-17.918-30.866-15.13-34.766.3A11.224,11.224,0,0,0,3199.206,3287.344Z" transform="translate(-3199.206 -3208.222)" fill="#6A2186"></path><path id="Path_37198" data-name="Path 37198" d="M3216.361,3322.5c3.984-8.91,25.549-8.931,29.2-.061a1.019,1.019,0,0,1-.651,1.367c-7.14,2.134-22.594,2.013-27.982.075A1.018,1.018,0,0,1,3216.361,3322.5Z" transform="translate(-3213.132 -3244.041)" fill="#ffd9a4"></path><path id="Path_37199" data-name="Path 37199" d="M3257.515,3350.39l1.08-3.492a.519.519,0,0,1,.981.008l.866,3.3Z" transform="translate(-3235.517 -3269.136)" fill="#6A2186"></path><path id="Path_37200" data-name="Path 37200" d="M3351.781,3307.342c-1.415,1.789-1.885,5.289,0,6.829-3.4-.264-6.457-.767-8.039-2.28l-.024-6.206c0-5.706,3.888-9.683,6.094-11.3a4.2,4.2,0,0,0,2.978,5.605,8.787,8.787,0,0,0-6.126,5.234C3346.628,3306.867,3348.941,3307.246,3351.781,3307.342Z" transform="translate(-3343.718 -3226.564)" fill="#6A2186"></path><path id="Path_37201" data-name="Path 37201" d="M3362.022,3333.021c-1.36,1.807-1.386,4.735-.438,5.465-1.314-.176-2.36-.5-2.567-1.261C3359.191,3335.707,3360.592,3334.159,3362.022,3333.021Z" transform="translate(-3355.764 -3258.094)" fill="#f8a364" opacity="0.35"></path><path id="Path_37202" data-name="Path 37202" d="M3215.169,3331.923c1.361,1.807,1.386,4.736.439,5.466,1.314-.175,2.36-.494,2.568-1.26C3218,3334.61,3216.6,3333.062,3215.169,3331.923Z" transform="translate(-3185.463 -3257.197)" fill="#f8a364" opacity="0.35"></path><path id="Path_37203" data-name="Path 37203" d="M3227.089,3292.53c2.159,1.352,3.589,2.958,3.194,3.588s-2.465.047-4.624-1.3-3.59-2.957-3.2-3.588S3224.929,3291.178,3227.089,3292.53Z" transform="translate(-3198.965 -3223.777)" fill="#fff" opacity="0.2"></path><path id="Path_37204" data-name="Path 37204" d="M3209.689,3355.538a.073.073,0,0,1,.145.005l.259,4.549a.667.667,0,0,1-.606.665l-4.059.512a.079.079,0,0,1-.034-.153l3.294-1.061a.666.666,0,0,0,.474-.515Z" transform="translate(-3175.572 -3276.417)" fill="#fff" opacity="0.2"></path></g><path id="Path_37205" data-name="Path 37205" d="M3259.313,3208.09c-5.619,2.094-14.8,1.684-18.576-.369l-.241-5.673,19.633.264Z" transform="translate(-3232.073 -3151.208)" fill="#f8a364" opacity="0.35"></path></g><path id="Path_37206" data-name="Path 37206" d="M2867.5,2583.7c18.7,14.14,99.367,14.14,110.715,0l-5.234-138.486-100.618-.752Z" transform="translate(-2845.037 -2122.139)" fill="#6A2186"></path><path id="Path_37207" data-name="Path 37207" d="M3318.292,1133.411l-38.976-30.49-16.082,3.229c-1.494,12.779.641,27.656,4.6,43.584,13.69,27.94,26.132,31.736,26.132,31.736l24.331-.06Z" transform="translate(-3257.802 -1027.324)" fill="#2d2d2d"></path><path id="Path_37208" data-name="Path 37208" d="M2780.9,1133.411l38.976-30.49,16.082,3.229c1.494,12.779-.642,27.656-4.595,43.584-13.69,27.94-26.133,31.736-26.133,31.736l-24.33-.06Z" transform="translate(-2687.327 -1027.324)" fill="#2d2d2d"></path><ellipse id="Ellipse_442" data-name="Ellipse 442" cx="16.656" cy="7.832" rx="16.656" ry="7.832" transform="translate(60.996 163.444)" fill="#aeb5b5"></ellipse><path id="Path_37209" data-name="Path 37209" d="M3085.794,1566.521h25.727c-.214,10.444,1.239,17.022,2.772,21.135a4.024,4.024,0,0,1-1.113,4.4c-5.62,5.023-22.406,6.823-29.242-.544a4.024,4.024,0,0,1-.822-4.11C3084.615,1583.272,3086,1576.751,3085.794,1566.521Z" transform="translate(-3020.969 -1405.662)" fill="#fbd3a8"></path><path id="Path_37210" data-name="Path 37210" d="M3124.337,1560.284l-24.539.164-.412,7.07c3.852,5.671,22.779,5.432,25.647-.266Z" transform="translate(-3034.499 -1400.573)" fill="#f8a364" opacity="0.35"></path><path id="Path_37211" data-name="Path 37211" d="M2879.5,1618.154V1897.93h51.863l-3.755-183.424.059-88.167a1.535,1.535,0,0,0-.543-1.089c-6.2-5.479-16.895-7.848-29.228-9a1.733,1.733,0,0,1-1.4-.974l-2.168-4.518a.485.485,0,0,0-.877.009C2889.955,1618.138,2879.5,1618.154,2879.5,1618.154Z" transform="translate(-2800.391 -1441.543)" fill="#6A2186"></path><g id="Group_26808" data-name="Group 26808" transform="translate(133.901 101.215)"><path id="Path_37212" data-name="Path 37212" d="M2777.038,1272.364c11.085,0,18.154-14.756,14.713-24.28a8.865,8.865,0,0,0-4.728-5.228c-4.01-1.72-7.628.4-9.985,1.978Z" transform="translate(-2776.709 -1242.215)" fill="#fbd3a8"></path><path id="Path_37213" data-name="Path 37213" d="M2803.914,1279.167c15.031-5.346,12.495,16.866.141,17.41" transform="translate(-2803.298 -1271.693)" fill="#fbbd89"></path><g id="Group_26807" data-name="Group 26807" transform="translate(0 6.423)"><path id="Path_37214" data-name="Path 37214" d="M2803.942,1278.745a16.55,16.55,0,0,1,4.085-.916,8.717,8.717,0,0,1,2.069.072,5.7,5.7,0,0,1,1.931.671,4.587,4.587,0,0,1,1.481,1.406,5.873,5.873,0,0,1,.807,1.925,9.674,9.674,0,0,1,.247,2.112,16.867,16.867,0,0,1-.128,2.141,12.294,12.294,0,0,0,.106-4.3,6.141,6.141,0,0,0-.74-2.06,4.981,4.981,0,0,0-1.528-1.613,6.212,6.212,0,0,0-2.066-.846,9.368,9.368,0,0,0-2.21-.2,17.322,17.322,0,0,0-4.332.729Z" transform="translate(-2803.664 -1277.138)" fill="#603813"></path></g></g><g id="Group_26811" data-name="Group 26811" transform="translate(5.872 101.215)"><path id="Path_37215" data-name="Path 37215" d="M3490.557,1272.364c-11.086,0-18.154-14.756-14.713-24.28a8.867,8.867,0,0,1,4.728-5.228c4.01-1.72,7.627.4,9.985,1.978Z" transform="translate(-3474.968 -1242.215)" fill="#fbd3a8"></path><path id="Path_37216" data-name="Path 37216" d="M3486.887,1279.167c-15.03-5.346-12.495,16.866-.14,17.41" transform="translate(-3471.585 -1271.693)" fill="#fbbd89"></path><g id="Group_26810" data-name="Group 26810" transform="translate(4.898 6.423)"><g id="Group_26809" data-name="Group 26809"><path id="Path_37217" data-name="Path 37217" d="M3484.2,1277.869a17.32,17.32,0,0,0-4.331-.729,9.369,9.369,0,0,0-2.211.2,6.22,6.22,0,0,0-2.066.846,4.984,4.984,0,0,0-1.528,1.613,6.146,6.146,0,0,0-.74,2.06,12.288,12.288,0,0,0,.107,4.3,16.644,16.644,0,0,1-.128-2.141,9.7,9.7,0,0,1,.246-2.112,5.855,5.855,0,0,1,.809-1.925,4.57,4.57,0,0,1,1.48-1.406,5.682,5.682,0,0,1,1.929-.671,8.73,8.73,0,0,1,2.071-.072,16.531,16.531,0,0,1,4.084.916Z" transform="translate(-3473.175 -1277.138)" fill="#603813"></path></g></g></g><path id="Path_37218" data-name="Path 37218" d="M2837.468,958.413h112.994c15.332,69.842,4.316,115.771-55.722,117.211h-1.548C2833.151,1074.184,2822.136,1028.255,2837.468,958.413Z" transform="translate(-2816.83 -909.393)" fill="#fbd3a8"></path><ellipse id="Ellipse_443" data-name="Ellipse 443" cx="5.03" cy="8.029" rx="5.03" ry="8.029" transform="translate(95.167 98.754)" fill="#2d2d2d"></ellipse><ellipse id="Ellipse_444" data-name="Ellipse 444" cx="2.449" cy="3.032" rx="2.449" ry="3.032" transform="translate(97.035 100.31)" fill="#fff"></ellipse><ellipse id="Ellipse_445" data-name="Ellipse 445" cx="5.03" cy="8.029" rx="5.03" ry="8.029" transform="translate(50.024 98.754)" fill="#2d2d2d"></ellipse><ellipse id="Ellipse_446" data-name="Ellipse 446" cx="2.449" cy="3.032" rx="2.449" ry="3.032" transform="translate(51.891 100.31)" fill="#fff"></ellipse><path id="Path_37221" data-name="Path 37221" d="M3144.631,1366.436a1.506,1.506,0,0,1-.718-.078c-4.369-1.28-5,3.617-1.487,4.061,3.355.307,5.12-.826,6.2-2.28a1.326,1.326,0,0,0-.852-2.106A11.028,11.028,0,0,0,3144.631,1366.436Z" transform="translate(-3065.854 -1242.026)" fill="#f8a364"></path><path id="Path_37222" data-name="Path 37222" d="M3270.82,1159.132c4.833.091,6.667-4.55,3.3-7.375a6.81,6.81,0,0,0-5.154-1.247c-5.019.538-8.128,2.315-8.682,5.751a3.756,3.756,0,0,0,1.079,3.385c1.768,1.618,4.513,1,7.505-.187A5.042,5.042,0,0,1,3270.82,1159.132Z" transform="translate(-3214.882 -1066.113)" fill="#2d2d2d"></path><path id="Path_37223" data-name="Path 37223" d="M3004.08,1159.132c-4.832.091-6.667-4.55-3.3-7.375a6.812,6.812,0,0,1,5.154-1.247c5.018.538,8.128,2.315,8.682,5.751a3.756,3.756,0,0,1-1.079,3.385c-1.768,1.618-4.514,1-7.505-.187A5.042,5.042,0,0,0,3004.08,1159.132Z" transform="translate(-2905.688 -1066.113)" fill="#2d2d2d"></path><path id="Path_37224" data-name="Path 37224" d="M2795.207,901.935" transform="translate(-2648.729 -863.302)" fill="#f1f2f2"></path><path id="Path_37225" data-name="Path 37225" d="M2831.388,1106.421c9.244,10.6,11.5,30.313,10.374,51.467,6.086-18.627,3.726-51.467,3.726-51.467Z" transform="translate(-2706.114 -1030.18)" fill="#2d2d2d"></path><path id="Path_37226" data-name="Path 37226" d="M3449.677,1106.421c-9.244,10.6-11.5,30.313-10.373,51.467-6.088-18.627-3.728-51.467-3.728-51.467Z" transform="translate(-3420.888 -1030.18)" fill="#2d2d2d"></path><path id="Path_37227" data-name="Path 37227" d="M3086.723,1616.272c-.647,6.287-7.618,10.967-16.163,11.6v124.049h-8.911l1.19-122.976,5.488-1.471v-9.3c6.363-.368,11.467-2.489,13.979-7.441a.489.489,0,0,1,.845.048l2.415,4.9A1.766,1.766,0,0,0,3086.723,1616.272Z" transform="translate(-2989.247 -1441.561)" fill="#aeb5b5" opacity="0.5"></path><path id="Path_37228" data-name="Path 37228" d="M3144.168,1701.475l6.92,2.013v122.669" transform="translate(-3068.789 -1515.797)" fill="none" stroke="#aeb5b5" stroke-miterlimit="10" stroke-width="15"></path><path id="Path_37229" data-name="Path 37229" d="M3197.914,1618.154v9.3l5.488,1.472v269H3146.56l3.246-183.424-.059-88.167a1.536,1.536,0,0,1,.543-1.089c6.2-5.479,16.9-7.848,29.227-9a1.733,1.733,0,0,0,1.405-.974l2.169-4.518a.484.484,0,0,1,.876.009C3187.461,1618.138,3197.914,1618.154,3197.914,1618.154Z" transform="translate(-3121.543 -1441.543)" fill="#6A2186"></path><path id="Path_37230" data-name="Path 37230" d="M3140.094,1616.272c.648,6.287,7.618,10.967,16.162,11.6v124.049h8.912l-1.19-122.976-5.488-1.471v-9.3c-6.364-.368-11.468-2.489-13.979-7.441a.489.489,0,0,0-.844.048l-2.415,4.9A1.764,1.764,0,0,1,3140.094,1616.272Z" transform="translate(-3082.119 -1441.561)" fill="#aeb5b5" opacity="0.5"></path><g id="Group_26812" data-name="Group 26812" transform="translate(75.79 193.348)"><ellipse id="Ellipse_447" data-name="Ellipse 447" cx="2.024" cy="2.024" rx="2.024" ry="2.024" transform="translate(0.62)" fill="#aeb5b5"></ellipse><ellipse id="Ellipse_448" data-name="Ellipse 448" cx="2.024" cy="2.024" rx="2.024" ry="2.024" transform="translate(3.739 29.5) rotate(-157.5)" fill="#aeb5b5"></ellipse><circle id="Ellipse_449" data-name="Ellipse 449" cx="2.024" cy="2.024" r="2.024" transform="translate(3.739 55.695) rotate(-157.5)" fill="#aeb5b5"></circle><ellipse id="Ellipse_450" data-name="Ellipse 450" cx="2.024" cy="2.024" rx="2.024" ry="2.024" transform="translate(0.971 80.205) rotate(-99.217)" fill="#aeb5b5"></ellipse><ellipse id="Ellipse_451" data-name="Ellipse 451" cx="2.024" cy="2.024" rx="2.024" ry="2.024" transform="translate(0.62 100.692)" fill="#aeb5b5"></ellipse></g><path id="Path_37231" data-name="Path 37231" d="M3037.416,1407.944v-5.15c11.429-.526,18.44,1.013,22.014,4.751a11.769,11.769,0,0,1,3.191,8.148v5.983H3057.1c2.064-4.848,2.662-8.927,0-11.643a6.587,6.587,0,0,0-4.635-1.925Z" transform="translate(-2960.689 -1271.965)" fill="#2d2d2d"></path><path id="Path_37232" data-name="Path 37232" d="M3195.59,1407.944v-5.15c-11.429-.526-18.44,1.013-22.014,4.751a11.768,11.768,0,0,0-3.191,8.148v5.983h5.518c-2.064-4.848-2.662-8.927,0-11.643a6.585,6.585,0,0,1,4.635-1.925Z" transform="translate(-3118.113 -1271.965)" fill="#2d2d2d"></path><g id="Group_26817" data-name="Group 26817" transform="translate(0 0)"><g id="Group_26816" data-name="Group 26816" clip-path="url(#clip-path)"><g id="Group_26815" data-name="Group 26815" transform="translate(-81.841 -43.609)"><rect id="Rectangle_9653" data-name="Rectangle 9653" width="304.497" height="291.258" transform="translate(0 3.415)" fill="#fff"></rect><g id="Group_26813" data-name="Group 26813" transform="translate(3.204 3.415)" opacity="0.6"><rect id="Rectangle_9654" data-name="Rectangle 9654" width="5.344" height="291.258" transform="translate(247.707)" fill="#6A2186"></rect><rect id="Rectangle_9655" data-name="Rectangle 9655" width="5.344" height="291.258" transform="translate(258.967)" fill="#6A2186"></rect><rect id="Rectangle_9656" data-name="Rectangle 9656" width="5.344" height="291.258" transform="translate(270.226)" fill="#6A2186"></rect><rect id="Rectangle_9657" data-name="Rectangle 9657" width="5.344" height="291.258" transform="translate(281.486)" fill="#6A2186"></rect><rect id="Rectangle_9658" data-name="Rectangle 9658" width="5.344" height="291.258" transform="translate(292.745)" fill="#6A2186"></rect><rect id="Rectangle_9659" data-name="Rectangle 9659" width="5.344" height="291.258" transform="translate(236.448)" fill="#6A2186"></rect><rect id="Rectangle_9660" data-name="Rectangle 9660" width="5.344" height="291.258" transform="translate(225.189)" fill="#6A2186"></rect><rect id="Rectangle_9661" data-name="Rectangle 9661" width="5.344" height="291.258" transform="translate(213.929)" fill="#6A2186"></rect><rect id="Rectangle_9662" data-name="Rectangle 9662" width="5.344" height="291.258" transform="translate(202.67)" fill="#6A2186"></rect><rect id="Rectangle_9663" data-name="Rectangle 9663" width="5.344" height="291.258" transform="translate(191.41)" fill="#6A2186"></rect><rect id="Rectangle_9664" data-name="Rectangle 9664" width="5.344" height="291.258" transform="translate(135.113)" fill="#6A2186"></rect><rect id="Rectangle_9665" data-name="Rectangle 9665" width="5.344" height="291.258" transform="translate(146.373)" fill="#6A2186"></rect><rect id="Rectangle_9666" data-name="Rectangle 9666" width="5.344" height="291.258" transform="translate(157.632)" fill="#6A2186"></rect><rect id="Rectangle_9667" data-name="Rectangle 9667" width="5.344" height="291.258" transform="translate(168.891)" fill="#6A2186"></rect><rect id="Rectangle_9668" data-name="Rectangle 9668" width="5.344" height="291.258" transform="translate(180.151)" fill="#6A2186"></rect><rect id="Rectangle_9669" data-name="Rectangle 9669" width="5.344" height="291.258" transform="translate(123.854)" fill="#6A2186"></rect><rect id="Rectangle_9670" data-name="Rectangle 9670" width="5.344" height="291.258" transform="translate(112.594)" fill="#6A2186"></rect><rect id="Rectangle_9671" data-name="Rectangle 9671" width="5.344" height="291.258" transform="translate(101.335)" fill="#6A2186"></rect><rect id="Rectangle_9672" data-name="Rectangle 9672" width="5.344" height="291.258" transform="translate(90.075)" fill="#6A2186"></rect><rect id="Rectangle_9673" data-name="Rectangle 9673" width="5.344" height="291.258" transform="translate(78.816)" fill="#6A2186"></rect><rect id="Rectangle_9674" data-name="Rectangle 9674" width="5.344" height="291.258" transform="translate(67.557)" fill="#6A2186"></rect><rect id="Rectangle_9675" data-name="Rectangle 9675" width="5.344" height="291.258" transform="translate(56.297)" fill="#6A2186"></rect><rect id="Rectangle_9676" data-name="Rectangle 9676" width="5.344" height="291.258" transform="translate(45.038)" fill="#6A2186"></rect><rect id="Rectangle_9677" data-name="Rectangle 9677" width="5.344" height="291.258" transform="translate(33.778)" fill="#6A2186"></rect><rect id="Rectangle_9678" data-name="Rectangle 9678" width="5.344" height="291.258" transform="translate(22.519)" fill="#6A2186"></rect><rect id="Rectangle_9679" data-name="Rectangle 9679" width="5.344" height="291.258" transform="translate(11.259)" fill="#6A2186"></rect><rect id="Rectangle_9680" data-name="Rectangle 9680" width="5.344" height="291.258" transform="translate(0)" fill="#6A2186"></rect></g><g id="Group_26814" data-name="Group 26814" transform="translate(6.619 0)" opacity="0.8"><rect id="Rectangle_9681" data-name="Rectangle 9681" width="5.344" height="291.258" transform="translate(0 253.051) rotate(-90)" fill="#6A2186"></rect><rect id="Rectangle_9682" data-name="Rectangle 9682" width="5.344" height="291.258" transform="translate(0 264.311) rotate(-90)" fill="#6A2186"></rect><rect id="Rectangle_9683" data-name="Rectangle 9683" width="5.344" height="291.258" transform="translate(0 275.57) rotate(-90)" fill="#6A2186"></rect><rect id="Rectangle_9684" data-name="Rectangle 9684" width="5.344" height="291.258" transform="translate(0 286.83) rotate(-90)" fill="#6A2186"></rect><rect id="Rectangle_9685" data-name="Rectangle 9685" width="5.344" height="291.258" transform="translate(0 298.089) rotate(-90)" fill="#6A2186"></rect><rect id="Rectangle_9686" data-name="Rectangle 9686" width="5.344" height="291.258" transform="translate(0 241.792) rotate(-90)" fill="#6A2186"></rect><rect id="Rectangle_9687" data-name="Rectangle 9687" width="5.344" height="291.258" transform="translate(0 230.533) rotate(-90)" fill="#6A2186"></rect><rect id="Rectangle_9688" data-name="Rectangle 9688" width="5.344" height="291.258" transform="translate(0 219.273) rotate(-90)" fill="#6A2186"></rect><rect id="Rectangle_9689" data-name="Rectangle 9689" width="5.344" height="291.258" transform="translate(0 208.014) rotate(-90)" fill="#6A2186"></rect><rect id="Rectangle_9690" data-name="Rectangle 9690" width="5.344" height="291.258" transform="translate(0 196.754) rotate(-90)" fill="#6A2186"></rect><rect id="Rectangle_9691" data-name="Rectangle 9691" width="5.344" height="291.258" transform="translate(0 140.457) rotate(-90)" fill="#6A2186"></rect><rect id="Rectangle_9692" data-name="Rectangle 9692" width="5.344" height="291.258" transform="translate(0 151.717) rotate(-90)" fill="#6A2186"></rect><rect id="Rectangle_9693" data-name="Rectangle 9693" width="5.344" height="291.258" transform="translate(0 162.976) rotate(-90)" fill="#6A2186"></rect><rect id="Rectangle_9694" data-name="Rectangle 9694" width="5.344" height="291.258" transform="translate(0 174.235) rotate(-90)" fill="#6A2186"></rect><rect id="Rectangle_9695" data-name="Rectangle 9695" width="5.344" height="291.258" transform="translate(0 185.495) rotate(-90)" fill="#6A2186"></rect><rect id="Rectangle_9696" data-name="Rectangle 9696" width="5.344" height="291.258" transform="translate(0 129.198) rotate(-90)" fill="#6A2186"></rect><rect id="Rectangle_9697" data-name="Rectangle 9697" width="5.344" height="291.258" transform="translate(0 117.938) rotate(-90)" fill="#6A2186"></rect><rect id="Rectangle_9698" data-name="Rectangle 9698" width="5.344" height="291.258" transform="translate(0 106.679) rotate(-90)" fill="#6A2186"></rect><rect id="Rectangle_9699" data-name="Rectangle 9699" width="5.344" height="291.258" transform="translate(0 95.419) rotate(-90)" fill="#6A2186"></rect><rect id="Rectangle_9700" data-name="Rectangle 9700" width="5.344" height="291.258" transform="translate(0 84.16) rotate(-90)" fill="#6A2186"></rect><rect id="Rectangle_9701" data-name="Rectangle 9701" width="5.344" height="291.258" transform="translate(0 72.901) rotate(-90)" fill="#6A2186"></rect><rect id="Rectangle_9702" data-name="Rectangle 9702" width="5.344" height="291.258" transform="translate(0 61.641) rotate(-90)" fill="#6A2186"></rect><rect id="Rectangle_9703" data-name="Rectangle 9703" width="5.344" height="291.258" transform="translate(0 50.382) rotate(-90)" fill="#6A2186"></rect><rect id="Rectangle_9704" data-name="Rectangle 9704" width="5.344" height="291.258" transform="translate(0 39.122) rotate(-90)" fill="#6A2186"></rect><rect id="Rectangle_9705" data-name="Rectangle 9705" width="5.344" height="291.258" transform="translate(0 27.863) rotate(-90)" fill="#6A2186"></rect><rect id="Rectangle_9706" data-name="Rectangle 9706" width="5.344" height="291.258" transform="translate(0 16.603) rotate(-90)" fill="#6A2186"></rect><rect id="Rectangle_9707" data-name="Rectangle 9707" width="5.344" height="291.258" transform="translate(0 5.344) rotate(-90)" fill="#6A2186"></rect></g></g></g></g><path id="Rectangle_9708" data-name="Rectangle 9708" d="M10.915,0H140.084A10.915,10.915,0,0,1,151,10.915v0a3.9,3.9,0,0,1-3.9,3.9H3.9a3.9,3.9,0,0,1-3.9-3.9v0A10.915,10.915,0,0,1,10.915,0Z" transform="translate(2.018 45.468)" fill="#2d2d2d"></path><g id="Group_26823" data-name="Group 26823" transform="translate(62.711 137.086)"><g id="Group_26821" data-name="Group 26821" transform="translate(0.336 0.336)"><g id="Group_26818" data-name="Group 26818"><path id="Path_37234" data-name="Path 37234" d="M3092.82,1439.087a102.646,102.646,0,0,0,28.623,0s1.525,14.131-14.181,14.09H3107C3091.3,1453.218,3092.82,1439.087,3092.82,1439.087Z" transform="translate(-3092.78 -1439.087)" fill="#be1717"></path></g><g id="Group_26819" data-name="Group 26819" transform="translate(0.001)"><path id="Path_37235" data-name="Path 37235" d="M3092.823,1439.087a102.591,102.591,0,0,0,28.622,0,12.4,12.4,0,0,1,.021,1.77c-2.847,1.1-7.364,2-14.331,1.975-6.968.025-11.485-.871-14.332-1.975A12.616,12.616,0,0,1,3092.823,1439.087Z" transform="translate(-3092.783 -1439.087)" fill="#fff"></path></g><g id="Group_26820" data-name="Group 26820" transform="translate(3.911 7.432)"><path id="Path_37236" data-name="Path 37236" d="M3114.047,1482.846c2.277-1.88,5.567-3.268,10.323-3.345v0l.117,0,.118,0v0c4.756.077,8.046,1.465,10.323,3.345-2.114,1.921-5.352,3.322-10.31,3.309h-.261C3119.4,1486.167,3116.162,1484.767,3114.047,1482.846Z" transform="translate(-3114.047 -1479.497)" fill="#ff2929"></path></g></g><g id="Group_26822" data-name="Group 26822" transform="translate(0)"><path id="Path_37237" data-name="Path 37237" d="M3105.46,1452.023h.048l.134,0,.126,0c.222,0,.438,0,.654-.008l.143,0c.208-.006.414-.014.615-.025l.1-.006q.268-.016.527-.038l.127-.01q.285-.025.56-.057l.146-.018c.16-.02.318-.041.474-.064l.1-.014c.173-.027.341-.056.507-.086l.169-.032q.24-.045.472-.1l.093-.022.052-.012q.178-.04.35-.085l.015,0,.171-.044q.207-.055.408-.115l.167-.051.032-.01q.127-.039.25-.08c.095-.031.188-.063.28-.1s.181-.065.27-.1l.232-.09.163-.067c.138-.057.274-.116.407-.177l.111-.051c.086-.04.172-.081.257-.123l.013-.006c.165-.081.344-.175.521-.274l.039-.021c6.887-3.852,6.125-12.214,6.087-12.568a.344.344,0,0,0-.125-.233.339.339,0,0,0-.252-.074l-.053.006a102.225,102.225,0,0,1-28.43,0l-.054-.006a.335.335,0,0,0-.377.3c-.036.359-.8,8.721,6.089,12.574l.035.019c.185.1.359.194.535.28.085.042.172.083.259.124l.11.05q.2.091.41.178l.161.066.234.091.265.1.283.1.249.08.041.012c.053.016.106.033.161.049.134.04.27.078.408.115l.18.047c.121.031.237.059.354.086l.053.012.095.022c.153.034.311.066.47.1l.17.032q.249.046.506.086l.1.015q.233.034.473.063l.146.018q.277.032.56.057l.129.01c.173.015.348.027.526.038l.1.007h0c.2.011.406.019.614.025l.143,0C3105.054,1452.02,3105.256,1452.023,3105.46,1452.023Zm.182-.673h-.135c-.215,0-.427,0-.636-.008l-.14,0q-.3-.009-.6-.024h0l-.1-.006c-.172-.01-.342-.022-.51-.036l-.125-.01q-.275-.025-.541-.055l-.142-.018q-.232-.029-.457-.062l-.1-.014c-.166-.025-.327-.053-.489-.083l-.163-.031c-.153-.029-.3-.059-.452-.092l-.14-.033c-.114-.026-.224-.053-.335-.081l-.178-.046q-.2-.053-.389-.109l-.152-.047-.04-.012-.237-.077c-.092-.03-.181-.061-.271-.093s-.169-.061-.252-.092l-.221-.086-.153-.063c-.133-.054-.263-.11-.389-.168l-.1-.047c-.083-.038-.164-.077-.244-.117-.167-.082-.332-.169-.505-.265l-.034-.019c-5.834-3.264-5.855-9.984-5.773-11.58a102.349,102.349,0,0,0,28,0c.082,1.618.053,8.321-5.773,11.58l-.027.015c-.177.1-.346.187-.51.268-.083.041-.165.08-.247.118l-.106.048c-.127.057-.255.114-.387.167l-.155.063c-.073.029-.146.058-.221.086s-.17.063-.256.093-.177.062-.267.092l-.239.077-.033.01-.159.049c-.128.038-.259.074-.389.11l-.163.042-.015,0c-.111.029-.223.055-.336.081l-.056.013-.083.019q-.224.049-.454.093l-.164.031c-.16.029-.323.058-.488.083l-.1.014c-.15.022-.3.043-.457.062l-.142.017c-.179.021-.359.039-.542.056l-.124.01c-.168.014-.338.026-.511.036l-.1.006c-.2.011-.395.019-.6.024l-.14,0c-.209.005-.42.009-.636.008Z" transform="translate(-3090.951 -1437.261)" fill="#f8a364"></path></g></g><path id="Path_37238" data-name="Path 37238" d="M2875.915,1444.472c7.2,11.579,20.248,15.347,29.7,10.858l5.517.44c3.3,4.461,13.458,6.648,17.668,5.326.278-2.31-.379-1.632-2.022-2.58h7.334c-1.642.948-2.3.27-2.021,2.58,4.211,1.323,14.372-.865,17.667-5.326l5.518-.44c9.454,4.489,22.5.721,29.7-10.858-7.04,14.442-22.219,26.787-54.156,28.056v.03c-.126,0-.625,0-.751,0v-.03C2898.135,1471.259,2882.954,1458.914,2875.915,1444.472Z" transform="translate(-2853.344 -1306.06)" fill="#2d2d2d"></path><g id="Group_26839" data-name="Group 26839" transform="translate(0.086 143.199)"><g id="Group_26830" data-name="Group 26830" transform="matrix(-0.966, 0.259, -0.259, -0.966, 200.54, 103.571)"><path id="Path_37239" data-name="Path 37239" d="M20.166,60.995C11.584,55.538,5.558,32.063.086,6.329-1.395.052,16.641-2.906,18.7,3.867c5.772,20.306,14.347,46.317,14.347,46.317C37.073,62.555,27.634,65.858,20.166,60.995Z" transform="translate(20.175 67.487) rotate(-51)" fill="#6A2186"></path><g id="Group_26827" data-name="Group 26827" transform="translate(0 57.293) rotate(-60)"><path id="Path_37243" data-name="Path 37243" d="M11.694.257c11.96,3.767,24.191,7.8,35.74,11.546,6.747,1.735,12.551,5.276,12.614,6.731l4.764,2.181a1.918,1.918,0,0,1,1.1,2.016c-.462,3.212-3.4,9.585-5.536,11.888a1.914,1.914,0,0,1-2.224.42L53.7,32.926c-3,.367-7.476-1.655-12.508-3.824C35.64,26.794,22.261,23,7.292,19.061-.768,16.94-2.677,6.239,4.256,1.612A9.357,9.357,0,0,1,11.694.257Z" transform="translate(0 0)" fill="#6A2186"></path><path id="Path_37244" data-name="Path 37244" d="M6.37,0C6.288.177,0,14.376,0,14.376L5.268,17c3,1.184,9.78-13.22,6.152-14.726Z" transform="translate(53.696 18.55)" fill="#6A2186"></path></g><g id="Group_26828" data-name="Group 26828" transform="translate(29.741 50.171) rotate(-60)"><path id="Path_37245" data-name="Path 37245" d="M11.551,48.789c-.766-4.032-1.583-8.052-2.414-12.069S7.452,28.691,6.591,24.68l-1.31-6.012L3.947,12.662c-.885-4-1.8-8-2.716-12l-.673.621c2.664.826,5.335,1.624,8,2.437s5.343,1.6,8.014,2.4c2.677.783,5.35,1.577,8.032,2.342s5.363,1.532,8.053,2.273q-3.951-1.377-7.919-2.7C22.1,7.134,19.447,6.269,16.8,5.393c-2.653-.859-5.3-1.733-7.958-2.58S3.533,1.106.872.273L0,0,.2.894c.893,4,1.78,8.008,2.7,12l1.375,6,1.4,5.991q1.416,5.988,2.873,11.966C9.523,40.838,10.512,44.82,11.551,48.789Z" transform="translate(0 0)" fill="#e5dfdf"></path></g><g id="Group_26829" data-name="Group 26829" transform="translate(13.111 40.055) rotate(-60)"><path id="Path_37246" data-name="Path 37246" d="M0,0C3.235,1.542,6.512,2.984,9.8,4.39c1.641.713,3.3,1.389,4.946,2.083L19.717,8.5q4.977,2,10,3.884c3.35,1.257,6.714,2.479,10.119,3.6-3.235-1.543-6.511-2.986-9.8-4.392s-6.595-2.778-9.916-4.106L15.133,5.513C13.462,4.875,11.8,4.22,10.118,3.6,6.768,2.343,3.4,1.121,0,0Z" transform="translate(0 0)" fill="#e5dfdf"></path></g></g><g id="Group_26837" data-name="Group 26837" transform="translate(0 39.716)"><path id="Path_37247" data-name="Path 37247" d="M3397.9,1685.935c-10.013,6.216-17.045,32.952-23.43,62.263-1.728,7.149,19.318,10.518,21.722,2.8,6.735-23.128,16.741-52.754,16.741-52.754C3417.629,1684.158,3406.615,1680.4,3397.9,1685.935Z" transform="translate(-3372.52 -1683.487)" fill="#6A2186"></path><g id="Group_26833" data-name="Group 26833" transform="translate(94.142 31.506) rotate(50)"><path id="Path_37248" data-name="Path 37248" d="M.514,27.066l5.772-1.873c1.993-9.922,4.6-18.632,8.45-24.864l.156-.09a1.626,1.626,0,0,1,2.5,1.123l.24,25.617a5.121,5.121,0,0,1-.914,2.957C13.76,34.239,6.75,37.045,0,39.227Z" fill="#fbd3a8"></path><g id="Group_26831" data-name="Group 26831" transform="translate(12.547 12.182)"><path id="Path_37249" data-name="Path 37249" d="M.354,8.413,0,8.3A21.866,21.866,0,0,0,1.354,3.422C1.683,1.677,1.92.416,2.81.083a2.777,2.777,0,0,1,2.245.53l-.21.27C3.985.391,3.368.227,2.96.379c-.7.263-.936,1.512-1.234,3.094A22.131,22.131,0,0,1,.354,8.413Z" fill="#f8a364"></path></g><g id="Group_26832" data-name="Group 26832" transform="translate(11.059 5.161)"><path id="Path_37250" data-name="Path 37250" d="M.35,10.945,0,10.823A31.958,31.958,0,0,0,1.81,5.364C2.521,2.678,3.085.557,4.443.092A2.453,2.453,0,0,1,6.476.465L6.266.734A2.075,2.075,0,0,0,4.582.393c-1.174.4-1.743,2.553-2.4,5.043A32.442,32.442,0,0,1,.35,10.945Z" fill="#f8a364"></path></g></g><g id="Group_26834" data-name="Group 26834" transform="translate(0 37.545)"><path id="Path_37251" data-name="Path 37251" d="M13.646,34.969c13.956-3.767,28.227-7.8,41.7-11.546,7.873-1.735,14.645-5.276,14.717-6.731l5.56-2.181a1.879,1.879,0,0,0,1.287-2.016C76.376,9.283,72.944,2.91,70.454.607a2.507,2.507,0,0,0-2.6-.42L62.657,2.3c-3.5-.367-8.723,1.655-14.6,3.824-6.474,2.308-22.086,6.1-39.551,10.04C-.9,18.286-3.124,28.987,4.966,33.614A12.431,12.431,0,0,0,13.646,34.969Z" transform="matrix(0.985, 0.174, -0.174, 0.985, 6.117, 0)" fill="#6A2186"></path><path id="Path_37252" data-name="Path 37252" d="M3208.936,2009.4c-.1-.177-7.433-14.376-7.433-14.376l6.147-2.626c3.495-1.184,11.412,13.22,7.177,14.726Z" transform="translate(-3137.41 -1973.077)" fill="#6A2186"></path></g><g id="Group_26835" data-name="Group 26835" transform="matrix(0.985, 0.174, -0.174, 0.985, 36.504, 6.593)"><path id="Path_37253" data-name="Path 37253" d="M13.478,0c-.894,4.032-1.849,8.052-2.817,12.07S8.7,20.1,7.69,24.109L6.161,30.121,4.6,36.127c-1.033,4.005-2.105,8-3.17,12L.65,47.507c3.107-.826,6.224-1.624,9.336-2.437s6.235-1.6,9.352-2.4c3.122-.782,6.242-1.577,9.371-2.342s6.259-1.532,9.4-2.273q-4.611,1.377-9.241,2.7c-3.083.893-6.175,1.758-9.264,2.634-3.1.859-6.186,1.733-9.285,2.58s-6.195,1.707-9.3,2.54L0,48.789.232,47.9c1.042-4,2.076-8.008,3.151-12l1.606-6L6.621,23.9c1.1-3.992,2.21-7.982,3.351-11.966S12.264,3.97,13.478,0Z" fill="#e5dfdf"></path></g><g id="Group_26836" data-name="Group 26836" transform="matrix(0.985, 0.174, -0.174, 0.985, 27.939, 58.158)"><path id="Path_37254" data-name="Path 37254" d="M0,15.981C3.776,14.439,7.6,13,11.438,11.59c1.916-.713,3.848-1.389,5.772-2.082l5.8-2.026q5.808-2,11.673-3.884C38.592,2.341,42.517,1.12,46.49,0c-3.774,1.543-7.6,2.986-11.437,4.392S27.359,7.17,23.482,8.5l-5.823,1.969c-1.95.639-3.893,1.293-5.851,1.913C7.9,13.638,3.973,14.86,0,15.981Z" fill="#e5dfdf"></path></g></g><g id="Group_26838" data-name="Group 26838" transform="translate(77.6 73.362)"><rect id="Rectangle_9709" data-name="Rectangle 9709" width="0.183" height="28.424" transform="translate(0)" fill="#f8a364"></rect></g></g></g><g id="Group_28811" data-name="Group 28811" transform="translate(70.898)"><g id="Group_28810" data-name="Group 28810" transform="translate(0)"><g id="Group_28805" data-name="Group 28805" transform="translate(133.711)"><g id="Group_28804" data-name="Group 28804"><g id="Group_28803" data-name="Group 28803" clip-path="url(#clip-path-2)"><g id="Group_28802" data-name="Group 28802" transform="translate(31.402 74.458)"><g id="Group_28801" data-name="Group 28801"><g id="Group_28800" data-name="Group 28800"><g id="Group_28792" data-name="Group 28792" transform="translate(87.097 62.038)"><path id="Path_38171" data-name="Path 38171" d="M320.2,267.877,348.181,227.4a17.924,17.924,0,0,1,25.169-4.387l3.933,2.812a17.922,17.922,0,0,0,27.385-8.781l13.589-39.754c5.526-16.169,28.394-16.169,33.92,0l6.575,19.237c5.274,15.43,26.741,16.373,33.348,1.464l5.7-12.869a17.923,17.923,0,0,1,31.184-2.854h0a17.923,17.923,0,0,0,31.756-4.318l6.357-18.6c5.84-17.087,30.424-15.79,34.436,1.815l24.317,106.715S321.05,267.023,320.2,267.877Z" transform="translate(-320.197 -147.219)" fill="#f19101"></path></g><g id="Group_28793" data-name="Group 28793" transform="translate(85.47 105.377)"><path id="Path_38172" data-name="Path 38172" d="M607.232,219.065c-5.323-10.559-20.01-12.519-27.34-3.241q-.378.479-.727.988s-7.979,14.6-12.262,17.938c-10.515,8.205-23.54,10.008-37.656-8.855l-8.824-10.972a17.508,17.508,0,0,0-23.978-3.159l-10.213,7.47c-4.8,3.508-11.349,10.311-16.4,7.559-5.587-3.047-20.548-15.029-20.548-15.029a17.508,17.508,0,0,0-23.978,3.159l-8.824,10.972a17.509,17.509,0,0,1-30.065-4.9l-10.89-29.473c-5.711-15.454-27.661-15.184-32.989.4l-21.885,64.029-1.694,1.866,1.056,0-.216.633c0-1.257,306.968-.629,306.968-.629Z" transform="translate(-318.963 -180.077)" fill="#dc80ff"></path></g><line id="Line_242" data-name="Line 242" x2="388.531" transform="translate(27.268 183.714)" fill="none" stroke="#010001" stroke-linecap="round" stroke-miterlimit="10" stroke-width="1"></line><g id="Group_28794" data-name="Group 28794" transform="translate(123.637 15.749)"><line id="Line_243" data-name="Line 243" y2="155.715" transform="translate(0 12.664)" fill="none" stroke="#010001" stroke-miterlimit="10" stroke-width="0.476" stroke-dasharray="3.81"></line><line id="Line_244" data-name="Line 244" y2="149.841" transform="translate(76.633 22.019)" fill="none" stroke="#010001" stroke-miterlimit="10" stroke-width="0.476" stroke-dasharray="3.81"></line><line id="Line_245" data-name="Line 245" y2="169.789" transform="translate(228.691)" fill="none" stroke="#010001" stroke-miterlimit="10" stroke-width="0.476" stroke-dasharray="3.81"></line><line id="Line_246" data-name="Line 246" y2="115.002" transform="translate(153.55 53.377)" fill="none" stroke="#010001" stroke-miterlimit="10" stroke-width="0.476" stroke-dasharray="3.81"></line></g><path id="Path_38173" data-name="Path 38173" d="M518.259,150.166H463.825a1.972,1.972,0,0,1-1.972-1.973h0a1.972,1.972,0,0,1,1.972-1.972h54.434a1.972,1.972,0,0,1,1.972,1.972h0A1.972,1.972,0,0,1,518.259,150.166Z" transform="translate(-187.92 -85.499)" fill="#bfbcc0"></path><path id="Path_38174" data-name="Path 38174" d="M574.958,110.086H520.526a1.972,1.972,0,0,1-1.973-1.972h0a1.972,1.972,0,0,1,1.973-1.972h54.432a1.971,1.971,0,0,1,1.972,1.972h0A1.971,1.971,0,0,1,574.958,110.086Z" transform="translate(-169.837 -98.281)" fill="#bfbcc0"></path><rect id="Rectangle_10174" data-name="Rectangle 10174" width="40.788" height="3.944" rx="0.892" transform="translate(348.716)" fill="#bfbcc0"></rect><path id="Path_38175" data-name="Path 38175" d="M460.166,126.642H405.732a1.972,1.972,0,0,1-1.972-1.972h0a1.972,1.972,0,0,1,1.972-1.973h54.434a1.972,1.972,0,0,1,1.972,1.973h0A1.972,1.972,0,0,1,460.166,126.642Z" transform="translate(-206.448 -93.001)" fill="#bfbcc0"></path><path id="Path_38176" data-name="Path 38176" d="M402.512,119.806H348.079a1.974,1.974,0,0,1-1.973-1.973h0a1.973,1.973,0,0,1,1.973-1.972h54.432a1.973,1.973,0,0,1,1.973,1.972h0A1.973,1.973,0,0,1,402.512,119.806Z" transform="translate(-224.836 -95.182)" fill="#bfbcc0"></path><rect id="Rectangle_10175" data-name="Rectangle 10175" width="31.838" height="3.944" rx="0.788" transform="translate(121.27 11.805)" fill="#bfbcc0"></rect><rect id="Rectangle_10176" data-name="Rectangle 10176" width="41.417" height="3.944" rx="0.899" transform="translate(273.932 52.834)" fill="#bfbcc0"></rect><g id="Group_28799" data-name="Group 28799" transform="translate(0 4.675)"><g id="Group_28798" data-name="Group 28798" transform="translate(64.206 0.494)"> </g></g></g></g></g></g></g></g><g class="search"><g id="Group_28809" data-name="Group 28809" transform="translate(0 25.179)"><g id="Group_28808" data-name="Group 28808"><g id="Group_28807" data-name="Group 28807"><path id="Path_38179" data-name="Path 38179" d="M219.835,244.97l-9.414-11.828,74.637-59.407,8.549,12.3Z" transform="translate(-108.045 -30.809)" fill="#958f99" stroke="#0f110e" stroke-miterlimit="10" stroke-width="1"></path><path id="Path_38180" data-name="Path 38180" d="M236.328,216.381l-99.051,78.037c-4.35,3.461-5.774,8.908-3.183,12.164l3.258,4.093c2.592,3.258,8.22,3.09,12.569-.372l97.6-79Z" transform="translate(-132.801 -17.208)" stroke="#0f110e" stroke-miterlimit="10" stroke-width="1" fill="url(#linear-gradient-2)"></path><g id="Group_28806" data-name="Group 28806" transform="translate(157.244)"><path id="Path_38181" data-name="Path 38181" d="M432.123,182.944a93.806,93.806,0,0,0-1.165-55.213C419,91.632,383.821,65.868,345.81,65.379a93.322,93.322,0,0,0-53.468,15.813,91.736,91.736,0,0,0-37.654,97.9,93.731,93.731,0,0,0,30.332,48.663c28.406,24.08,71.077,28.22,103.482,9.792a100.428,100.428,0,0,0,12.65-8.425A91.859,91.859,0,0,0,432.123,182.944ZM386.716,221.1c-.954.652-1.93,1.264-2.9,1.891-.079.053-.247.154-.39.241-.472.277-.947.551-1.424.819a83.8,83.8,0,0,1-11.654,5.377c-1.736.645-3.5,1.217-5.266,1.753-.145.033-1.414.39-1.758.476q-1.767.441-3.549.8a84.428,84.428,0,0,1-12.066,1.564c-.546.03-1.092.047-1.638.076-.157.008-.516.018-.758.025q-1.116.01-2.232-.011-3.272-.067-6.533-.388-2.93-.287-5.838-.777-1.452-.245-2.9-.541-.8-.164-1.6-.343c-.149-.034-.613-.152-.938-.232a88.239,88.239,0,0,1-10.955-3.665q-2.748-1.136-5.41-2.464c-.495-.248-.984-.5-1.476-.756-.111-.057-.326-.175-.518-.282-.9-.513-1.8-1.033-2.688-1.575a83.773,83.773,0,0,1-10.354-7.493q-1.041-.882-2.052-1.8c-.423-.383-.841-.772-1.257-1.162l-.057-.051c-.063-.066-.132-.139-.218-.227-1.531-1.583-3.051-3.164-4.486-4.838a96.569,96.569,0,0,1-7.648-10.406c-.066-.1-.121-.187-.172-.264l-.037-.066q-.433-.74-.851-1.486-.665-1.191-1.29-2.4-1.551-3.005-2.857-6.129-1.161-2.782-2.122-5.642c-.318-.948-.612-1.9-.9-2.859-.034-.112-.049-.158-.066-.208s-.021-.082-.038-.153c-.166-.641-.334-1.282-.489-1.927a84.311,84.311,0,0,1-1.99-12.025q-.135-1.472-.219-2.947-.037-.655-.065-1.31c0,.03-.018-.608-.033-1s-.011-1.037-.011-1.005q0-.655.017-1.31.034-1.638.131-3.271a84.949,84.949,0,0,1,1.641-12.316q.133-.641.277-1.279c-.007.029.144-.592.236-.977s.265-1,.257-.971q.172-.633.356-1.262.918-3.156,2.079-6.232,1.047-2.778,2.29-5.475.552-1.2,1.143-2.387c.247-.493.5-.984.756-1.475.071-.138.146-.276.219-.414.029-.05.062-.109.117-.208A87.569,87.569,0,0,1,283.41,109.8q1.881-2.414,3.936-4.684.574-.635,1.162-1.258l.051-.055.226-.218c.83-.8,1.646-1.617,2.494-2.4a85.42,85.42,0,0,1,10.141-8.038c.86-.582,1.734-1.14,2.61-1.7l.285-.181q.613-.36,1.232-.711,2.815-1.585,5.745-2.952a86.6,86.6,0,0,1,11.5-4.354c.109-.018,1.73-.468,2.054-.547q1.446-.356,2.9-.659,3.227-.671,6.5-1.088,2.932-.374,5.888-.541c.79-.046,1.581-.073,2.373-.1.224-.005.489-.011.619-.009.654.005,1.31.009,1.964.025A84.93,84.93,0,0,1,357.136,81.5q2.782.469,5.526,1.13c.22.057.479.125.6.161.525.15,1.054.289,1.579.442q1.575.457,3.134.977a84.314,84.314,0,0,1,11.551,4.833c.315.161,1.459.786,1.6.856.835.477,1.667.956,2.486,1.459q2.714,1.664,5.3,3.531,2.467,1.785,4.8,3.743,1.175.987,2.313,2.015c.338.306.671.617,1.008.926.119.109.183.168.256.232s.138.148.268.281a96.571,96.571,0,0,1,8.634,10.07c1.231,1.683,2.381,3.416,3.5,5.175l.182.285q.36.613.71,1.232.922,1.634,1.769,3.307a83.624,83.624,0,0,1,4.773,11.483c.272.819.522,1.646.772,2.473-.037-.079.458,1.695.541,2.036q.748,3.049,1.267,6.148.489,2.92.772,5.872.14,1.47.229,2.945.049.819.084,1.638c.007.16.021.682.032,1.014a82.7,82.7,0,0,1-.731,11.761q-.39,2.92-.98,5.809-.263,1.28-.568,2.553c-.037.14-.075.286-.1.361-.181.632-.344,1.266-.528,1.9a84.547,84.547,0,0,1-4.368,11.707q-.621,1.351-1.293,2.681c-.152.3-.969,1.806-.993,1.876-1.035,1.81-2.114,3.593-3.275,5.325a83.731,83.731,0,0,1-7.716,9.845q-.479.526-.968,1.042l-.241.237c-.739.728-1.479,1.455-2.238,2.163-1.624,1.512-3.308,2.95-5.037,4.339C390.137,218.658,388.453,219.912,386.716,221.1Z" transform="translate(-252.022 -65.371)" fill="#958f99" stroke="#0f110e" stroke-miterlimit="10" stroke-width="1"></path></g><g id="Group_28816" data-name="Group 28816" transform="translate(76.423 271.858) rotate(128)"><path id="Path_37240" data-name="Path 37240" d="M.418,11.522,5.1,13.3c1.619,9.4,3.733,17.653,6.862,23.557l.127.086a1.3,1.3,0,0,0,2.027-1.064l.195-24.271a5.433,5.433,0,0,0-.741-2.8C11.172,4.727,5.482,2.068,0,0Z" transform="translate(0 0)" fill="#fbd3a8"></path><g id="Group_26824" data-name="Group 26824" transform="translate(10.188 17.653)"><path id="Path_37241" data-name="Path 37241" d="M.287,0,0,.108A23.436,23.436,0,0,1,1.1,4.73c.267,1.653.46,2.848,1.182,3.164.44.192,1.02.033,1.823-.5l-.17-.255c-.7.465-1.2.621-1.53.476-.569-.248-.76-1.432-1-2.931A23.713,23.713,0,0,0,.287,0Z" fill="#f8a364"></path></g><g id="Group_26825" data-name="Group 26825" transform="translate(8.98 21.907)"><path id="Path_37242" data-name="Path 37242" d="M.284,0,0,.115A34.2,34.2,0,0,1,1.469,5.287c.578,2.545,1.035,4.555,2.137,5a1.761,1.761,0,0,0,1.651-.353l-.17-.255A1.491,1.491,0,0,1,3.72,10C2.767,9.617,2.3,7.579,1.768,5.219A34.377,34.377,0,0,0,.284,0Z" transform="translate(0 0)" fill="#f8a364"></path></g></g></g></g></g></g></g></g></g></g><line id="Line_247" data-name="Line 247" x2="893.317" transform="translate(0 547.38)" fill="none" stroke="#0f110e" stroke-miterlimit="10" stroke-width="0.5"></line></g></g></svg> 