<svg xmlns="http://www.w3.org/2000/svg" viewBox="0 0 654.66 375.89"><defs><style>.cls-1{isolation:isolate;}.cls-10,.cls-2{fill:none;}.cls-11,.cls-12,.cls-2{stroke:#d8dbde;}.cls-2{stroke-linecap:round;stroke-linejoin:round;stroke-width:2px;}.cls-3{fill:#d8dbde;}.cls-4{fill:#0e0f2d;}.cls-13,.cls-5{mix-blend-mode:multiply;}.cls-13,.cls-6{fill:#e5e5e5;}.cls-7{fill:#1158fe;}.cls-11,.cls-12,.cls-8{fill:#fff;}.cls-9{fill:#719bff;}.cls-10{stroke:#fff;stroke-width:0.97px;}.cls-10,.cls-11,.cls-12{stroke-miterlimit:10;}.cls-11{stroke-width:2.88px;}.cls-12{stroke-width:2px;}</style></defs><title>CMS</title><g class="cls-1"><g id="Layer_2" data-name="Layer 2"><g id="OBJECTS"><line class="cls-2" x1="1" y1="324.36" x2="653.66" y2="324.36"></line><path class="cls-3" d="M519.12,176.19H509.4a3.3,3.3,0,0,1-3.09-2.08c-.13-.32-.26-.64-.4-1a3.31,3.31,0,0,1,.73-3.64l7.15-7.15a3.34,3.34,0,0,0,0-4.73l-13.7-13.7a3.34,3.34,0,0,0-4.73,0l-7,7a3.39,3.39,0,0,1-3.76.67l-.59-.25a3.4,3.4,0,0,1-2.16-3.12V137.91a3.34,3.34,0,0,0-3.35-3.34H459.09a3.34,3.34,0,0,0-3.35,3.34v10.35a3.4,3.4,0,0,1-2.16,3.13l-.32.13a3.4,3.4,0,0,1-3.75-.68l-7.6-7.6a3.34,3.34,0,0,0-4.73,0l-13.7,13.7a3.34,3.34,0,0,0,0,4.73l7.56,7.56a3.39,3.39,0,0,1,.67,3.76l0,.09a3.4,3.4,0,0,1-3.12,2.14h-11.1a3.35,3.35,0,0,0-3.35,3.35v19.37a3.35,3.35,0,0,0,3.35,3.35h10.77a3.41,3.41,0,0,1,3.14,2.19l0,0a3.43,3.43,0,0,1-.7,3.71l-7.9,7.89a3.35,3.35,0,0,0,0,4.74l13.7,13.7a3.36,3.36,0,0,0,4.73,0l7.46-7.47a3.4,3.4,0,0,1,3.8-.65l.19.08a3.38,3.38,0,0,1,2.1,3.1v10.95a3.35,3.35,0,0,0,3.35,3.35h19.37a3.35,3.35,0,0,0,3.35-3.35V229.43a3.31,3.31,0,0,1,2.11-3.1l.67-.27a3.32,3.32,0,0,1,3.6.73l7.45,7.45a3.34,3.34,0,0,0,4.73,0l13.7-13.7a3.34,3.34,0,0,0,0-4.73l-6.94-6.94a3.33,3.33,0,0,1-.7-3.69c.14-.3.26-.6.39-.9a3.31,3.31,0,0,1,3.07-2h10.2a3.35,3.35,0,0,0,3.35-3.35V179.54A3.35,3.35,0,0,0,519.12,176.19ZM468.29,208.1a19.36,19.36,0,1,1,19.36-19.36A19.36,19.36,0,0,1,468.29,208.1Z"></path><rect class="cls-4" x="185.27" y="103.61" width="284.12" height="198.93" rx="12.39"></rect><g class="cls-5"><path class="cls-6" d="M185.37,291.64a12.38,12.38,0,0,0,12.29,10.9H457a12.39,12.39,0,0,0,12.29-10.9Z"></path></g><rect class="cls-7" x="195.39" y="113.73" width="263.88" height="174.52" rx="12.39"></rect><path class="cls-8" d="M235.79,198.16c0-15.87,12.5-27,29.55-27,10.37,0,18.55,3.69,23.78,10.34l-11.29,9.81c-3.1-3.84-6.81-6-11.59-6-7.42,0-12.42,5-12.42,12.92s5,12.91,12.42,12.91c4.78,0,8.49-2.21,11.59-6l11.29,9.82c-5.23,6.64-13.41,10.33-23.78,10.33C248.29,225.17,235.79,214,235.79,198.16Z"></path><path class="cls-8" d="M344.64,224l-.16-23.55L333,219.34h-7.88l-11.51-18.08V224H297.3V172.32H312l17.27,27.53,16.82-27.53h14.69l.15,51.67Z"></path><path class="cls-8" d="M369.25,219.86l5.76-12.7a37.07,37.07,0,0,0,17.5,4.72c5.07,0,6.89-1,6.89-2.8,0-6.5-29.32-1.26-29.32-20.52,0-9.59,8.26-17.42,24.7-17.42,7.12,0,14.46,1.48,20,4.51l-5.37,12.62a33.31,33.31,0,0,0-14.77-3.84c-5.23,0-6.9,1.47-6.9,3.25,0,6.2,29.32,1,29.32,20.07,0,9.45-8.26,17.42-24.7,17.42C383.49,225.17,374.55,223,369.25,219.86Z"></path><rect class="cls-9" x="240.09" y="232.68" width="115.62" height="3.87"></rect><rect class="cls-9" x="359.86" y="232.68" width="22.79" height="3.87"></rect><rect class="cls-8" x="385.3" y="232.68" width="22.79" height="3.87"></rect><rect class="cls-9" x="359.86" y="247.43" width="22.79" height="3.87"></rect><rect class="cls-9" x="309.1" y="254.99" width="73.54" height="3.87"></rect><rect class="cls-8" x="385.3" y="247.43" width="22.79" height="3.87"></rect><rect class="cls-8" x="267.03" y="240.06" width="115.62" height="3.87"></rect><rect class="cls-9" x="385.12" y="240.06" width="22.79" height="3.87"></rect><rect class="cls-9" x="385.12" y="254.99" width="22.79" height="3.87"></rect><circle class="cls-8" cx="216.24" cy="128.95" r="4.38"></circle><circle class="cls-8" cx="230.84" cy="128.95" r="4.38"></circle><circle class="cls-8" cx="245.44" cy="128.95" r="4.38"></circle><line class="cls-10" x1="203.35" y1="138.68" x2="448.19" y2="138.68"></line><path class="cls-3" d="M481.58,324.23H173.08a17,17,0,0,1-16-11.1L151.5,298H503.16l-5.62,15.17A17,17,0,0,1,481.58,324.23Z"></path><g class="cls-5"><path class="cls-6" d="M156.71,312l.41,1.11a17,17,0,0,0,16,11.1h308.5a17,17,0,0,0,16-11.1L498,312Z"></path></g><rect class="cls-11" x="120.94" y="189.92" width="99.05" height="73.35" rx="22.43"></rect><polygon class="cls-7" points="194.33 227.38 154.31 206.34 154.31 248.93 194.33 227.38"></polygon><rect class="cls-3" x="49.6" y="121.16" width="8.57" height="167.89" transform="translate(14.8 -3.33) rotate(4.1)"></rect><rect class="cls-3" x="150.65" y="14.46" width="35.82" height="5.21"></rect><polygon class="cls-3" points="65.35 121.22 161.42 7.77 155.14 2.99 55.02 121.22 65.35 121.22"></polygon><rect class="cls-4" x="39.44" y="284.31" width="17.99" height="23.35"></rect><g class="cls-5"><rect class="cls-6" x="39.44" y="295.68" width="17.99" height="11.99"></rect></g><rect class="cls-4" x="30.92" y="302.14" width="78.26" height="22.09" rx="7.18"></rect><g class="cls-5"><path class="cls-6" d="M30.92,314.61v2.45a7.17,7.17,0,0,0,7.18,7.17H102a7.17,7.17,0,0,0,7.18-7.17v-2.45Z"></path></g><path class="cls-7" d="M177.16.26h16.73a9.31,9.31,0,0,1,9.31,9.31V38.12a0,0,0,0,1,0,0H167.85a0,0,0,0,1,0,0V9.56A9.31,9.31,0,0,1,177.16.26Z"></path><g class="cls-5"><rect class="cls-6" x="167.85" y="22.98" width="35.34" height="15.15"></rect></g><path class="cls-7" d="M186.94,27.39h0A39.6,39.6,0,0,1,226.55,67V82.3a0,0,0,0,1,0,0H147.34a0,0,0,0,1,0,0V67a39.6,39.6,0,0,1,39.6-39.6Z"></path><g class="cls-5"><rect class="cls-6" x="147.34" y="69.68" width="79.21" height="12.62"></rect></g><rect class="cls-4" x="141.5" y="73.78" width="90.89" height="12.94"></rect><circle class="cls-4" cx="60.98" cy="119.2" r="11.09"></circle><path class="cls-7" d="M216.56,342c3.33,1,4.85,3.11,4.85,8.1v11.59c0,3.4,1.74,5.35,5.28,5.35H228v8.83h-4.2c-9.05,0-13.68-4.63-13.68-12.95V349.83c0-2.31-1.23-3.4-3.19-3.4h-2.39V337.6h2.39c2,0,3.19-1.09,3.19-3.4V321.1c0-8.33,4.63-13,13.68-13H228V317h-1.31c-3.54,0-5.28,1.95-5.28,5.36v11.58C221.41,338.9,219.89,341,216.56,342Z"></path><path class="cls-7" d="M227.2,355.34a7,7,0,0,1,14,0,7,7,0,1,1-14,0Zm19.33,0a7,7,0,0,1,14,0,7,7,0,1,1-14,0Zm19.4,0a7,7,0,0,1,14,0,7,7,0,1,1-14,0Z"></path><path class="cls-7" d="M302.7,337.6v8.83h-2.38c-2,0-3.19,1.09-3.19,3.4v13.11c0,8.32-4.63,12.95-13.68,12.95h-4.2v-8.83h1.3c3.55,0,5.29-1.95,5.29-5.35V350.12c0-5,1.52-7.09,4.85-8.1-3.33-1-4.85-3.12-4.85-8.11V322.33c0-3.41-1.74-5.36-5.29-5.36h-1.3v-8.83h4.2c9.05,0,13.68,4.63,13.68,13v13.1c0,2.31,1.23,3.4,3.19,3.4Z"></path><rect class="cls-11" x="411.37" y="258.59" width="80.25" height="113.17"></rect><rect class="cls-7" x="421.5" y="273.13" width="59.77" height="2.93"></rect><rect class="cls-7" x="421.5" y="278.61" width="39.71" height="2.93"></rect><rect class="cls-7" x="421.5" y="284.15" width="51.93" height="2.93"></rect><rect class="cls-7" x="421.5" y="289.59" width="48.28" height="2.93"></rect><rect class="cls-7" x="421.5" y="336.92" width="48.28" height="2.93"></rect><rect class="cls-7" x="421.5" y="342.59" width="35.07" height="2.93"></rect><rect class="cls-7" x="421.5" y="348.42" width="39.82" height="2.93"></rect><rect class="cls-12" x="280.98" y="1" width="171.72" height="28.33" rx="7.95"></rect><path class="cls-7" d="M444.76,1H402.13a8.68,8.68,0,0,0-8.68,8.68v11a8.67,8.67,0,0,0,8.68,8.68h42.63a8,8,0,0,0,7.94-7.94V9A8,8,0,0,0,444.76,1Z"></path><rect class="cls-12" x="280.98" y="36.33" width="171.72" height="28.33" rx="7.95"></rect><path class="cls-4" d="M444.76,36.33H402.13A8.68,8.68,0,0,0,393.45,45V56a8.68,8.68,0,0,0,8.68,8.69h42.63a8,8,0,0,0,7.94-8V44.28A8,8,0,0,0,444.76,36.33Z"></path><circle class="cls-11" cx="477.66" cy="80.51" r="67.29" transform="matrix(0.16, -0.99, 0.99, 0.16, 320.09, 538.56)"></circle><path class="cls-7" d="M438.55,81.79l12.27-17.06H463L451.08,81.79l11.93,17H450.82Z"></path><path class="cls-7" d="M486.69,38.26h12.1l-28.73,82H458Z"></path><path class="cls-7" d="M492.43,98.77l11.93-17L492.43,64.73h12.19l12.27,17.06-12.27,17Z"></path><path class="cls-7" d="M617.66,137.76h-54a17.49,17.49,0,0,0-17.5,17.5v7a17.5,17.5,0,0,0,17.5,17.5h23.88L600,202.09l13.71-22.33h4a17.51,17.51,0,0,0,17.5-17.5v-7A17.5,17.5,0,0,0,617.66,137.76Z"></path><path class="cls-8" d="M565.18,159a7,7,0,0,1,14.05,0,7,7,0,1,1-14.05,0Z"></path><path class="cls-8" d="M584.15,159a7,7,0,0,1,14,0,7,7,0,1,1-14,0Z"></path><path class="cls-8" d="M603.12,159a7,7,0,0,1,14,0,7,7,0,1,1-14,0Z"></path><rect class="cls-3" x="562.92" y="217.35" width="55.48" height="18.17"></rect><rect class="cls-13" x="562.92" y="223.26" width="55.48" height="12.25"></rect><polygon class="cls-7" points="611.36 324.23 568.27 324.23 560.66 235.94 620.65 235.94 611.36 324.23"></polygon><g class="cls-5"><polygon class="cls-6" points="620.65 235.94 560.66 235.94 562.62 250.09 618.26 250.09 620.65 235.94"></polygon></g><rect class="cls-4" x="552" y="225.59" width="77.31" height="18.17"></rect><circle class="cls-8" cx="590.66" cy="281.17" r="16.92" transform="translate(-10.59 538.92) rotate(-48.66)"></circle></g></g></g></svg>