<svg xmlns="http://www.w3.org/2000/svg" class="animated" id="freepik_stories-signing-a-contract" viewBox="0 0 500 500"><style>@keyframes lightSpeedRight{60%{transform:skewX(10deg);opacity:1}80%{transform:skewX(-2deg)}}@keyframes floating{0%,to{opacity:1;transform:translateY(0)}50%{transform:translateY(-10px)}}@keyframes slideLeft{0%{opacity:0;transform:translateX(-30px)}to{opacity:1;transform:translateX(0)}}@keyframes wind{0%{transform:rotate(0deg)}25%{transform:rotate(1deg)}75%{transform:rotate(-1deg)}}svg#freepik_stories-signing-a-contract:not(.animated) .animable{opacity:0}.animator-hidden{display:none}</style><g id="freepik--Contract--inject-2" class="animable animator-active" style="transform-origin:313.005px 265px;animation:1s 1 forwards ease-in lightSpeedRight,1.5s Infinite linear floating;animation-delay:0s,1s"><path d="M403.29 418.43H235.05a5.13 5.13 0 0 1-5.2-5.78l28.87-286.42a6.54 6.54 0 0 1 6.36-5.78h168.24a5.14 5.14 0 0 1 5.2 5.78l-28.87 286.42a6.54 6.54 0 0 1-6.36 5.78z" style="fill:#407bff;transform-origin:334.184px 269.44px" id="elkipk9rjjr" class="animable"></path><path d="M378.1 142.15h-62.17a4.12 4.12 0 0 1-4.17-4.64l1.73-17.23a1 1 0 0 1 .92-.83h69.79a.73.73 0 0 1 .74.83l-1.73 17.23a5.26 5.26 0 0 1-5.11 4.64z" style="fill:#263238;transform-origin:348.337px 130.8px" id="el9yqre988kls" class="animable"></path><path d="M350.1 111.57a5.26 5.26 0 0 0-5.12 4.65l-.73 7.22h9.3l.72-7.22a4.12 4.12 0 0 0-4.17-4.65zm-.7 6.92a1.66 1.66 0 0 1-1.69-1.88 2.12 2.12 0 0 1 2.07-1.87 1.67 1.67 0 0 1 1.69 1.87 2.13 2.13 0 0 1-2.07 1.88z" style="fill:#263238;transform-origin:349.277px 117.505px" id="elci7weskt3ss" class="animable"></path><path d="M377.35 137.9h-25.17a1 1 0 0 1-.72-.31 1 1 0 0 1-.28-.73 3.27 3.27 0 0 0-.87-2.38 3.2 3.2 0 0 0-2.32-.95 4.26 4.26 0 0 0-4.1 3.53 1 1 0 0 1-1 .84h-25.15a1 1 0 0 1-.75-.33 1 1 0 0 1-.25-.77l1.26-12.47a1 1 0 0 1 1-.9h59.6a1 1 0 0 1 1 1.1L378.34 137a1 1 0 0 1-.99.9zm-24.23-2h23.32l1.06-10.47h-57.6l-1.06 10.47h23.28a6.31 6.31 0 0 1 5.87-4.37 5.11 5.11 0 0 1 5.13 4.37z" style="fill:#fff;transform-origin:348.17px 130.665px" id="elzcryfkygz2c" class="animable"></path><path d="M373.9 124.5a1.6 1.6 0 0 1 .79-1.36h-52a1.6 1.6 0 0 0-.79 1.36c-.11 1.08.51 1.36.51 1.36h52s-.62-.28-.51-1.36z" style="fill:#407bff;transform-origin:348.288px 124.5px" id="elr9b2hcf67g" class="animable"></path><path style="fill:#fff;transform-origin:334.6px 269.435px" id="eloepechldifa" class="animable" d="M403.85 409.68H237.08l28.27-280.49h166.77l-28.27 280.49z"></path><path d="M418.88 158.79H272.72a.5.5 0 0 1 0-1h146.16a.5.5 0 0 1 0 1z" style="fill:#263238;transform-origin:345.8px 158.29px" id="el009svruvc374" class="animable"></path><path d="M291.76 145.52a9 9 0 0 1-8.73 7.93 7 7 0 0 1-7.13-7.93 9 9 0 0 1 8.73-7.93 7 7 0 0 1 7.13 7.93z" style="fill:#407bff;transform-origin:283.83px 145.52px" id="elds5hlonmims" class="animable"></path><path d="M279.32 144.33s-4.26 5.62-3 7.33 13.09-7.91 15.93-11.21-.49-2-.49-2 1.25.07.58 1.08c-1.37 2.08-12.6 9.5-13.74 9.1s.72-4.3.72-4.3z" style="fill:#263238;transform-origin:284.742px 145.03px" id="ell0nmti8jsw" class="animable"></path><path d="M418.64 142.86h-15a1 1 0 0 1 0-2h15a1 1 0 0 1 0 2z" style="fill:#263238;transform-origin:411.14px 141.86px" id="el45o15n9kmgd" class="animable"></path><path d="M418.17 147.52h-9.69a1 1 0 0 1 0-2h9.69a1 1 0 0 1 0 2z" style="fill:#263238;transform-origin:413.325px 146.52px" id="elgnygrug02no" class="animable"></path><path d="M417.7 152.18h-25.32a1 1 0 0 1 0-2h25.32a1 1 0 0 1 0 2z" style="fill:#263238;transform-origin:405.04px 151.18px" id="ell1166amywng" class="animable"></path><path d="M310.53 170.79a4.83 4.83 0 0 1 4.93-4.32 3.83 3.83 0 0 1 3.18 1.4l-1.1.95a2.66 2.66 0 0 0-2.15-1 3.22 3.22 0 0 0-3.29 2.95 2.55 2.55 0 0 0 2.7 3 3.25 3.25 0 0 0 2.34-1l.91 1a4.71 4.71 0 0 1-3.47 1.41 3.8 3.8 0 0 1-4.05-4.39z" id="elbcs6o4bl86k" class="animable" style="transform-origin:314.561px 170.828px"></path><path d="M319.07 170.79a4.86 4.86 0 0 1 5-4.32 3.81 3.81 0 0 1 4.08 4.32 4.85 4.85 0 0 1-4.95 4.32 3.83 3.83 0 0 1-4.13-4.32zm7.47 0a2.54 2.54 0 0 0-2.65-2.95 3.23 3.23 0 0 0-3.25 2.95 2.55 2.55 0 0 0 2.65 3 3.23 3.23 0 0 0 3.25-3z" id="elmalh1shdhsh" class="animable" style="transform-origin:323.611px 170.791px"></path><path d="m337.66 166.59-.85 8.4h-1.28l-4.06-5.69-.57 5.7h-1.55l.85-8.4h1.28l4.06 5.69.57-5.69z" id="elziv1l7bdn7h" class="animable" style="transform-origin:333.505px 170.795px"></path><path d="M341.49 167.91h-2.79l.14-1.32H346l-.13 1.32h-2.78l-.72 7.08h-1.56z" id="elruginps8g1n" class="animable" style="transform-origin:342.35px 170.79px"></path><path d="m351.79 175-1.47-2.46h-2.22l-.25 2.45h-1.56l.85-8.4h3.46c2.2 0 3.46 1.13 3.27 3a3.05 3.05 0 0 1-2.06 2.65l1.66 2.76zm-1.4-7.08h-1.82l-.34 3.35h1.82c1.37 0 2.14-.63 2.25-1.68s-.54-1.68-1.91-1.68z" id="elfv125jk85pp" class="animable" style="transform-origin:350.089px 170.795px"></path><path d="M360.71 173h-4.2l-1 2h-1.61l4.62-8.4H360l3 8.4h-1.63zm-.39-1.22-1.22-3.67-1.94 3.67z" id="elm3rjtrxhbo" class="animable" style="transform-origin:358.45px 170.8px"></path><path d="M363.76 170.79a4.83 4.83 0 0 1 4.93-4.32 3.83 3.83 0 0 1 3.18 1.4l-1.1.95a2.66 2.66 0 0 0-2.15-1 3.23 3.23 0 0 0-3.29 2.95 2.55 2.55 0 0 0 2.7 3 3.24 3.24 0 0 0 2.34-1l.91 1a4.71 4.71 0 0 1-3.47 1.41 3.81 3.81 0 0 1-4.05-4.39z" id="el70wzo0gefq" class="animable" style="transform-origin:367.792px 170.827px"></path><path d="M375 167.91h-2.8l.13-1.32h7.12l-.13 1.32h-2.78l-.72 7.08h-1.55z" id="elu5c9khmy3h7" class="animable" style="transform-origin:375.825px 170.79px"></path><path d="M305.67 186.79h-34a1 1 0 0 1 0-2h34a1 1 0 0 1 0 2z" style="fill:#263238;transform-origin:288.67px 185.79px" id="elvczzc1x1sdm" class="animable"></path><path d="M288.14 192.19h-17a1 1 0 0 1 0-2h17a1 1 0 0 1 0 2z" style="fill:#263238;transform-origin:279.64px 191.19px" id="elikwvvoqfbq" class="animable"></path><path d="M409.91 220.42H268.32a1 1 0 0 1 0-2h141.59a1 1 0 0 1 0 2z" style="fill:#263238;transform-origin:339.115px 219.42px" id="elgoaji0zmste" class="animable"></path><path d="M409.29 226.59h-141.6a1 1 0 0 1 0-2h141.6a1 1 0 0 1 0 2z" style="fill:#263238;transform-origin:338.49px 225.59px" id="elc53tnqkvu7c" class="animable"></path><path d="M408.67 232.75h-141.6a1 1 0 0 1 0-2h141.6a1 1 0 1 1 0 2z" style="fill:#263238;transform-origin:337.87px 231.75px" id="eledaflc0kzf4" class="animable"></path><path d="M408.05 238.91h-141.6a1 1 0 0 1 0-2h141.6a1 1 0 0 1 0 2z" style="fill:#263238;transform-origin:337.25px 237.91px" id="ell1y31ia2b1" class="animable"></path><path d="M407.42 245.07H265.83a1 1 0 0 1 0-2h141.59a1 1 0 0 1 0 2z" style="fill:#263238;transform-origin:336.625px 244.07px" id="elshsfvcyo7wb" class="animable"></path><path d="M406.8 251.24H265.21a1 1 0 0 1 0-2H406.8a1 1 0 0 1 0 2z" style="fill:#263238;transform-origin:336.005px 250.24px" id="elpiu49tg6r89" class="animable"></path><path d="M406.18 257.4H264.59a1 1 0 0 1 0-2h141.59a1 1 0 1 1 0 2z" style="fill:#263238;transform-origin:335.385px 256.4px" id="elg61fsltrk96" class="animable"></path><path d="M405.56 263.56H264a1 1 0 0 1 0-2h141.56a1 1 0 0 1 0 2z" style="fill:#263238;transform-origin:334.78px 262.56px" id="elslilvtt30ed" class="animable"></path><path d="M334.94 269.72h-71.59a1 1 0 0 1 0-2h71.59a1 1 0 1 1 0 2z" style="fill:#263238;transform-origin:299.145px 268.72px" id="elp19ytx3l5jn" class="animable"></path><path d="M414.35 186.79h-24.42a1 1 0 0 1 0-2h24.42a1 1 0 0 1 0 2z" style="fill:#263238;transform-origin:402.14px 185.79px" id="eldc15b20cjsp" class="animable"></path><path d="M404.16 278.08H277.64a1 1 0 0 1 0-2h126.52a1 1 0 0 1 0 2z" style="fill:#263238;transform-origin:340.9px 277.08px" id="el0aqx3hj683mn" class="animable"></path><path d="M403.48 284.24h-141.6a1 1 0 0 1 0-2h141.6a1 1 0 0 1 0 2z" style="fill:#263238;transform-origin:332.68px 283.24px" id="elfwdzwv0uw8k" class="animable"></path><path d="M402.86 290.41h-141.6a1 1 0 0 1 0-2h141.6a1 1 0 0 1 0 2z" style="fill:#263238;transform-origin:332.06px 289.41px" id="elvvjrioaxt8" class="animable"></path><path d="M402.23 296.57H260.64a1 1 0 0 1 0-2h141.59a1 1 0 0 1 0 2z" style="fill:#263238;transform-origin:331.435px 295.57px" id="el2kxr5fqs8x2" class="animable"></path><path d="M401.61 302.73H260a1 1 0 0 1 0-2h141.61a1 1 0 0 1 0 2z" style="fill:#263238;transform-origin:330.805px 301.73px" id="ely1lq3nsfcin" class="animable"></path><path d="M311 308.9h-51.6a1 1 0 0 1 0-2H311a1 1 0 0 1 0 2z" style="fill:#263238;transform-origin:285.2px 307.9px" id="elraj10lognuj" class="animable"></path><g style="opacity:.2;isolation:isolate;transform-origin:334.6px 269.435px" class="animable" id="elyua3ruua15o"><path id="el5xavm4sciqn" class="animable" style="transform-origin:334.6px 269.435px" d="M403.85 409.68H237.08l28.27-280.49h166.77l-28.27 280.49z"></path></g><path d="M376.86 401.21H210.09c30.62-90.22 49.12-181.8 53.26-272h166.77c-4.12 90.2-22.64 181.79-53.26 272z" style="fill:#fff;transform-origin:320.105px 265.21px" id="elnvbldwq73re" class="animable"></path><path d="M417.11 157.8H270.94a.52.52 0 0 1-.51-.49.47.47 0 0 1 .49-.48h146.16a.51.51 0 0 1 .52.48.48.48 0 0 1-.49.49z" style="fill:#263238;transform-origin:344.015px 157.315px" id="elykzkbreowu" class="animable"></path><path d="M289.54 145a8.45 8.45 0 0 1-8.44 7.67 7.21 7.21 0 0 1-7.41-7.67 8.39 8.39 0 0 1 8.38-7.66 7.26 7.26 0 0 1 7.47 7.66z" style="fill:#407bff;transform-origin:281.613px 145.005px" id="eln8t0dl7lhb" class="animable"></path><path d="M277.06 143.81s-4 5.43-2.71 7.09 12.82-7.65 15.49-10.83-.59-1.91-.58-1.91 1.25.06.63 1.05c-1.26 2-12.2 9.17-13.37 8.79s.54-4.19.54-4.19z" style="fill:#263238;transform-origin:282.492px 144.503px" id="elb40eqdkmwz6" class="animable"></path><path d="M416.32 142.39h-15a1 1 0 0 1-1.05-1 .94.94 0 0 1 1-1h15a1 1 0 0 1 1 1 .94.94 0 0 1-.95 1z" style="fill:#263238;transform-origin:408.77px 141.39px" id="elcvv46kqimfo" class="animable"></path><path d="M416 146.9h-9.69a1 1 0 0 1-1-1 .94.94 0 0 1 1-1H416a1 1 0 0 1 1 1 1 1 0 0 1-1 1z" style="fill:#263238;transform-origin:411.154px 145.899px" id="eltfcrfyc6rl" class="animable"></path><path d="M415.73 151.4h-25.32a1 1 0 0 1-1-1 .93.93 0 0 1 1-1h25.31a1 1 0 0 1 1 1 .94.94 0 0 1-.99 1z" style="fill:#263238;transform-origin:403.065px 150.399px" id="el2psuog9xvhw" class="animable"></path><path d="M309 169.41a4.68 4.68 0 0 1 4.86-4.18 4 4 0 0 1 3.2 1.36l-1.08.92a2.75 2.75 0 0 0-2.16-1 3.14 3.14 0 0 0-3.25 2.86 2.55 2.55 0 0 0 2.74 2.86 3.22 3.22 0 0 0 2.33-1l.92.93a4.71 4.71 0 0 1-3.46 1.36c-2.57.07-4.32-1.68-4.1-4.11z" id="ela69lw2eyubl" class="animable" style="transform-origin:313.021px 169.374px"></path><path d="M317.54 169.41a4.71 4.71 0 0 1 4.89-4.18c2.6 0 4.37 1.76 4.15 4.18a4.71 4.71 0 0 1-4.9 4.18c-2.6 0-4.35-1.77-4.14-4.18zm7.47 0a2.55 2.55 0 0 0-2.7-2.86 3.14 3.14 0 0 0-3.2 2.86 2.54 2.54 0 0 0 2.69 2.86 3.15 3.15 0 0 0 3.2-2.86z" id="el8v5dl5tyjz8" class="animable" style="transform-origin:322.061px 169.41px"></path><path d="M336.06 165.35q-.35 4.07-.73 8.13h-1.28c-1.37-1.84-2.75-3.67-4.13-5.51-.16 1.84-.33 3.67-.5 5.51h-1.55q.39-4.06.73-8.13h1.28c1.39 1.83 2.77 3.67 4.15 5.5.16-1.83.33-3.67.48-5.5z" id="elm7c2e70lv" class="animable" style="transform-origin:331.965px 169.415px"></path><path d="M339.91 166.62h-2.78c0-.42.07-.85.11-1.27h7.12c0 .42-.07.85-.11 1.27h-2.78c-.2 2.29-.4 4.57-.62 6.86h-1.56c.22-2.29.42-4.57.62-6.86z" id="elgh4jyi50f5l" class="animable" style="transform-origin:340.745px 169.415px"></path><path d="m350.31 173.48-1.5-2.38h-2.22c-.07.79-.14 1.58-.22 2.37h-1.55q.38-4.06.72-8.13H349c2.2 0 3.48 1.09 3.32 2.89a2.92 2.92 0 0 1-2 2.57c.57.89 1.13 1.78 1.69 2.67zm-1.5-6.86H347c-.09 1.08-.19 2.16-.28 3.24h1.82c1.37 0 2.13-.6 2.22-1.62s-.58-1.62-1.95-1.62z" id="elhxlwmeqhuft" class="animable" style="transform-origin:348.577px 169.41px"></path><path d="M359.21 171.6H355l-1 1.88h-1.6q2.27-4.06 4.5-8.13h1.54q1.55 4.07 3.06 8.13h-1.63zm-.41-1.19c-.42-1.18-.84-2.37-1.27-3.55-.63 1.18-1.25 2.37-1.89 3.55z" id="elnf6wg9g31io" class="animable" style="transform-origin:356.95px 169.415px"></path><path d="M362.23 169.41a4.68 4.68 0 0 1 4.86-4.18 4 4 0 0 1 3.21 1.36c-.37.3-.73.61-1.09.92a2.75 2.75 0 0 0-2.16-1 3.14 3.14 0 0 0-3.25 2.86 2.55 2.55 0 0 0 2.74 2.86 3.22 3.22 0 0 0 2.33-1l.92.93a4.71 4.71 0 0 1-3.46 1.36c-2.57.07-4.33-1.68-4.1-4.11z" id="elvqkg62b2dv" class="animable" style="transform-origin:366.255px 169.374px"></path><path d="M373.4 166.62h-2.78c0-.42.07-.85.11-1.27h7.12c0 .42-.07.85-.11 1.27H375c-.19 2.29-.4 4.57-.62 6.86h-1.55c.17-2.29.38-4.57.57-6.86z" id="eli97rtr8qz6" class="animable" style="transform-origin:374.235px 169.415px"></path><path d="M304.24 184.92h-34a1 1 0 1 1 0-1.94h34a1 1 0 1 1 0 1.94z" style="fill:#263238;transform-origin:287.24px 183.95px" id="ell4duv9sx8rn" class="animable"></path><path d="M286.68 190.16h-17a1 1 0 0 1-1-1 1 1 0 0 1 1-1h17a1 1 0 0 1 1 1 1 1 0 0 1-1 1z" style="fill:#263238;transform-origin:278.18px 189.16px" id="elv4z7bn5v2r" class="animable"></path><path d="M407.83 217.56H266.24a1 1 0 0 1-1-1 1 1 0 0 1 1-1H407.9a1 1 0 0 1 1 1 1 1 0 0 1-1.07 1z" style="fill:#263238;transform-origin:337.07px 216.561px" id="eleyqkpqh78h6" class="animable"></path><path d="M407 223.55H265.38a.93.93 0 0 1-1-1 1 1 0 0 1 1-1h141.67a.94.94 0 0 1 1 1 1 1 0 0 1-1.05 1z" style="fill:#263238;transform-origin:336.215px 222.55px" id="elcbn9v6l6gui" class="animable"></path><path d="M406.07 229.54h-141.6a.94.94 0 0 1-1-1 1.05 1.05 0 0 1 1.05-1h141.64a1 1 0 0 1 1 1 1.06 1.06 0 0 1-1.09 1z" style="fill:#263238;transform-origin:335.314px 228.541px" id="elmh13ic7apv" class="animable"></path><path d="M405.13 235.53h-141.6a.92.92 0 0 1-.94-1 1.06 1.06 0 0 1 1.05-1h141.59a.92.92 0 0 1 .95 1 1.06 1.06 0 0 1-1.05 1z" style="fill:#263238;transform-origin:334.385px 234.53px" id="elbha10rfzgmm" class="animable"></path><path d="M404.15 241.52H262.56a.92.92 0 0 1-.94-1 1.06 1.06 0 0 1 1.06-1h141.59a.92.92 0 0 1 .94 1 1.07 1.07 0 0 1-1.06 1z" style="fill:#263238;transform-origin:333.415px 240.52px" id="el0ihz79llc6x" class="animable"></path><path d="M403.13 247.51H261.54a.91.91 0 0 1-.93-1 1.07 1.07 0 0 1 1.06-1h141.59a.92.92 0 0 1 .94 1 1.08 1.08 0 0 1-1.07 1z" style="fill:#263238;transform-origin:332.405px 246.51px" id="elwsxejil1gk" class="animable"></path><path d="M402.08 253.5h-141.6a.9.9 0 0 1-.92-1 1.08 1.08 0 0 1 1.07-1h141.59a.91.91 0 0 1 .93 1 1.08 1.08 0 0 1-1.07 1z" style="fill:#263238;transform-origin:331.354px 252.5px" id="elb5uex0ulv9e" class="animable"></path><path d="M401 259.49H259.39a.89.89 0 0 1-.92-1 1.09 1.09 0 0 1 1.08-1h141.59a.89.89 0 0 1 .92 1 1.08 1.08 0 0 1-1.06 1z" style="fill:#263238;transform-origin:330.265px 258.49px" id="elju412kk4ac" class="animable"></path><path d="M329.85 265.48h-71.59a.89.89 0 0 1-.92-1 1.09 1.09 0 0 1 1.09-1H330a.89.89 0 0 1 .92 1 1.1 1.1 0 0 1-1.07 1z" style="fill:#263238;transform-origin:294.13px 264.48px" id="elfwuo3dt7ce4" class="animable"></path><path d="M412.92 184.92H388.5a1 1 0 1 1 0-1.94h24.42a1 1 0 1 1 0 1.94z" style="fill:#263238;transform-origin:400.71px 183.95px" id="elt13zph1h38k" class="animable"></path><path d="M398.32 273.61H271.8a.89.89 0 0 1-.91-1 1.11 1.11 0 0 1 1.1-1H398.5a.88.88 0 0 1 .91 1 1.11 1.11 0 0 1-1.09 1z" style="fill:#263238;transform-origin:335.151px 272.61px" id="eloshakq4x6m8" class="animable"></path><path d="M397 279.6H255.44a.87.87 0 0 1-.9-1 1.11 1.11 0 0 1 1.1-1h141.59a.87.87 0 0 1 .9 1 1.12 1.12 0 0 1-1.13 1z" style="fill:#263238;transform-origin:326.335px 278.6px" id="ellodh2n7q2y" class="animable"></path><path d="M395.77 285.59H254.18a.87.87 0 0 1-.9-1 1.14 1.14 0 0 1 1.11-1H396a.88.88 0 0 1 .9 1 1.14 1.14 0 0 1-1.13 1z" style="fill:#263238;transform-origin:325.089px 284.59px" id="ell227898d7e" class="animable"></path><path d="M394.47 291.58H252.88a.86.86 0 0 1-.89-1 1.14 1.14 0 0 1 1.11-1h141.6a.86.86 0 0 1 .88 1 1.14 1.14 0 0 1-1.11 1z" style="fill:#263238;transform-origin:323.785px 290.58px" id="el2lt4cga9swk" class="animable"></path><path d="M393.13 297.57H251.54a.85.85 0 0 1-.88-1 1.15 1.15 0 0 1 1.12-1h141.59a.86.86 0 0 1 .88 1 1.14 1.14 0 0 1-1.12 1z" style="fill:#263238;transform-origin:322.454px 296.57px" id="elin6jos8lsmo" class="animable"></path><path d="M301.76 303.56h-51.6a.85.85 0 0 1-.87-1 1.16 1.16 0 0 1 1.12-1H302a.85.85 0 0 1 .87 1 1.16 1.16 0 0 1-1.11 1z" style="fill:#263238;transform-origin:276.08px 302.56px" id="elbck1cqqdyn7" class="animable"></path><g style="opacity:.1;transform-origin:320.105px 265.21px" class="animable" id="el2n2uxomi0uj"><path d="M376.86 401.21H210.09c30.62-90.22 49.12-181.8 53.26-272h166.77c-4.12 90.2-22.64 181.79-53.26 272z" id="el6m8txodx933" class="animable" style="transform-origin:320.105px 265.21px"></path></g><path d="M354.22 383.55H187.45c38.46-84.36 63.92-170 75.9-254.36h166.77c-11.98 84.36-37.44 170-75.9 254.36z" style="fill:#fff;transform-origin:308.785px 256.37px" id="el11h2f7xn3ge" class="animable"></path><path d="M415.62 155.94H269.46a.44.44 0 0 1-.47-.45.51.51 0 0 1 .52-.46h146.17a.44.44 0 0 1 .47.46.51.51 0 0 1-.53.45z" style="fill:#263238;transform-origin:342.57px 155.485px" id="elxm4rn2d0wil" class="animable"></path><path d="M289.17 143.94c-.63 3.95-4.73 7.16-9.11 7.16s-7.38-3.21-6.74-7.16 4.66-7.16 9-7.16 7.49 3.22 6.85 7.16z" style="fill:#407bff;transform-origin:281.243px 143.94px" id="el823e02vqja7" class="animable"></path><path d="M276.78 142.86s-4.5 5.08-3.32 6.63 13.49-7.15 16.43-10.13-.41-1.79-.41-1.79 1.25.07.54 1c-1.43 1.87-13 8.57-14.13 8.22s.9-3.93.89-3.93z" style="fill:#263238;transform-origin:282.18px 143.504px" id="eluo8cao9cdyn" class="animable"></path><path d="M416.17 141.54h-15a.91.91 0 0 1-1-.91 1 1 0 0 1 1-.9h15a.89.89 0 0 1 1 .9 1 1 0 0 1-1 .91z" style="fill:#263238;transform-origin:408.67px 140.634px" id="el2n8qx5k5jp1" class="animable"></path><path d="M415.5 145.75h-9.69a.91.91 0 0 1-1-.91 1 1 0 0 1 1-.9h9.69a.89.89 0 0 1 1 .9 1 1 0 0 1-1 .91z" style="fill:#263238;transform-origin:410.655px 144.844px" id="eld5yxkobefh" class="animable"></path><path d="M414.8 150h-25.32a.9.9 0 0 1-1-.91 1 1 0 0 1 1.05-.9h25.37a.89.89 0 0 1 1 .9 1 1 0 0 1-1.1.91z" style="fill:#263238;transform-origin:402.19px 149.094px" id="elp5mfz1vto19" class="animable"></path><path d="M256.88 369.43H205.7a.67.67 0 0 1-.7-.91 1.44 1.44 0 0 1 1.29-.9h51.18a.66.66 0 0 1 .7.9 1.43 1.43 0 0 1-1.29.91z" style="fill:#263238;transform-origin:231.586px 368.524px" id="el4lo7bw0jl6x" class="animable"></path><path d="M348.78 369.43h-59a.67.67 0 0 1-.7-.91 1.44 1.44 0 0 1 1.29-.9h59.05a.67.67 0 0 1 .71.9 1.46 1.46 0 0 1-1.35.91z" style="fill:#263238;transform-origin:319.603px 368.525px" id="eldikmtrwy2h4" class="animable"></path><path d="M266.08 317.06h-27.14a.71.71 0 0 1-.76-.9 1.32 1.32 0 0 1 1.24-.91h27.13a.71.71 0 0 1 .76.91 1.31 1.31 0 0 1-1.23.9z" style="fill:#263238;transform-origin:252.747px 316.155px" id="elpa8dwiyh14" class="animable"></path><path d="M360.24 317.06h-39.53a.71.71 0 0 1-.76-.9 1.32 1.32 0 0 1 1.24-.91h39.52a.71.71 0 0 1 .76.91 1.3 1.3 0 0 1-1.23.9z" style="fill:#263238;transform-origin:340.711px 316.155px" id="el9ci0sb0yrq" class="animable"></path><path d="M317.11 358.83a4.94 4.94 0 0 1-2.42-.51c-1.27-.74-1.58-2-.89-3.62a7.41 7.41 0 0 1 .34-.7 44.65 44.65 0 0 1-12 2.94c-2.46.15-3.06-.81-3.12-1.65-.12-1.49 1.34-3.86 3.67-6.61-5.4 2.42-9.36 3.89-9.44 3.92-.29.11-.55 0-.6-.22a.59.59 0 0 1 .43-.6c.09 0 4.8-1.79 10.94-4.61 6.24-6.79 16.62-15.15 22-18 3.87-2 6.12-2.61 6.7-1.66.9 1.5-3.52 6-10.81 10.88a125.8 125.8 0 0 1-17.32 9.44c-2.81 3.09-4.66 5.74-4.55 7.18 0 .3.1 1.19 2.3 1a45.45 45.45 0 0 0 12.6-3.21c3.12-4.22 10.37-9.2 13.69-10 1.28-.32 1.79 0 2 .34s.27.88-.43 1.78c-1.77 2.29-7.91 5.9-14.67 8.57a8.13 8.13 0 0 0-.74 1.32c-.53 1.26-.32 2.15.66 2.72 2.24 1.29 8-.55 13.72-3.19a3.55 3.55 0 0 1 .28-.9c1.6-3.64 9.42-9.28 13.58-9 .83 0 1 .41 1 .71.09 1.32-3.43 3.77-6.4 5.6a83.19 83.19 0 0 1-7.45 4c.14.49.63.8 1.47.94 6.19 1 20.66-8.05 20.79-8.14a.51.51 0 0 1 .69 0 .5.5 0 0 1-.24.64c-.6.38-15.06 9.44-21.68 8.34a2.25 2.25 0 0 1-2-1.37c-4.43 2.07-9.02 3.67-12.1 3.67zm25.35-13.54c-3.66 0-10.72 5.15-12.08 8.25 0 .09-.08.17-.11.26 2.49-1.21 4.9-2.53 6.94-3.79 4.28-2.63 5.83-4.23 5.8-4.61 0 0-.09-.08-.34-.1zm-13.2-1.73a2.44 2.44 0 0 0-.62.1c-2.86.71-8.92 4.83-12.11 8.51 6-2.5 11.3-5.63 12.83-7.62.3-.39.4-.67.29-.85a.44.44 0 0 0-.39-.14zm2.13-15.56c-.61 0-2.05.37-5 1.95-5.16 2.74-14.19 10.07-20.25 16.29a120.84 120.84 0 0 0 15.29-8.48c7.68-5.18 10.76-9 10.36-9.65-.06-.11-.18-.11-.4-.11z" style="fill:#263238;transform-origin:322.909px 342.953px" id="elkkjmycz2v0r" class="animable"></path><path d="M306.5 166.8a5.15 5.15 0 0 1 5.23-3.91 3.73 3.73 0 0 1 3.08 1.27l-1.16.86a2.56 2.56 0 0 0-2.08-.89 3.45 3.45 0 0 0-3.5 2.67c-.29 1.56.75 2.67 2.49 2.67a3.68 3.68 0 0 0 2.42-.9l.84.87a5.35 5.35 0 0 1-3.58 1.27c-2.57 0-4.17-1.64-3.74-3.91z" id="elleaymrfqbb" class="animable" style="transform-origin:310.62px 166.796px"></path><path d="M315.05 166.8a5.16 5.16 0 0 1 5.24-3.91c2.61 0 4.22 1.65 3.8 3.91a5.19 5.19 0 0 1-5.27 3.91c-2.6 0-4.2-1.66-3.77-3.91zm7.47 0a2.21 2.21 0 0 0-2.45-2.67 3.43 3.43 0 0 0-3.45 2.67c-.3 1.55.75 2.67 2.44 2.67a3.45 3.45 0 0 0 3.46-2.67z" id="elaq4po8nriik" class="animable" style="transform-origin:319.568px 166.8px"></path><path d="M333.92 163c-.47 2.53-.95 5.07-1.44 7.6h-1.28l-3.65-5.15q-.48 2.58-1 5.15H325c.49-2.53 1-5.07 1.44-7.6h1.28q1.85 2.56 3.67 5.15l1-5.15z" id="elzuf1vgqkppg" class="animable" style="transform-origin:329.46px 166.8px"></path><path d="M337.66 164.19h-2.78c.07-.4.14-.79.22-1.19h7.12c-.07.4-.15.79-.22 1.19h-2.78c-.4 2.14-.8 4.28-1.22 6.41h-1.55q.62-3.19 1.21-6.41z" id="elmyyesrdwn9m" class="animable" style="transform-origin:338.55px 166.8px"></path><path d="m347.46 170.6-1.29-2.23a1.77 1.77 0 0 1-.32 0H344l-.42 2.21H342c.49-2.53 1-5.07 1.43-7.6h3.45c2.21 0 3.39 1 3.08 2.7a3.14 3.14 0 0 1-2.24 2.4c.48.84 1 1.67 1.45 2.5zm-.9-6.41h-1.82l-.57 3H346c1.37 0 2.19-.56 2.37-1.52s-.44-1.48-1.81-1.48z" id="el5wup0y27p4" class="animable" style="transform-origin:346.004px 166.79px"></path><path d="M356.52 168.84h-4.2c-.38.59-.77 1.18-1.16 1.76h-1.61q2.63-3.79 5.21-7.6h1.54c.79 2.53 1.58 5.07 2.35 7.6H357c-.14-.6-.31-1.17-.48-1.76zm-.3-1.11-1-3.32c-.73 1.11-1.46 2.22-2.2 3.32z" id="elimcwoxfs2b" class="animable" style="transform-origin:354.1px 166.8px"></path><path d="M359.73 166.8a5.15 5.15 0 0 1 5.23-3.91 3.75 3.75 0 0 1 3.09 1.27l-1.17.86a2.56 2.56 0 0 0-2.08-.89 3.45 3.45 0 0 0-3.5 2.67c-.29 1.56.75 2.67 2.49 2.67a3.68 3.68 0 0 0 2.42-.9l.84.87a5.35 5.35 0 0 1-3.58 1.27c-2.57 0-4.16-1.64-3.74-3.91z" id="els0pfxqw9faq" class="animable" style="transform-origin:363.856px 166.796px"></path><path d="M371.15 164.19h-2.78c.07-.4.14-.79.22-1.19h7.12c-.07.4-.14.79-.22 1.19h-2.78q-.6 3.21-1.21 6.41h-1.56c.41-2.13.82-4.27 1.21-6.41z" id="el6mc2v6uqs6s" class="animable" style="transform-origin:372.04px 166.8px"></path><path d="M300.39 181.3h-34a.86.86 0 0 1-.92-.91 1.08 1.08 0 0 1 1.09-.9h34a.85.85 0 0 1 .92.9 1.07 1.07 0 0 1-1.09.91z" style="fill:#263238;transform-origin:283.475px 180.395px" id="elsdxht6x5cwp" class="animable"></path><path d="M282.39 186.2h-17a.85.85 0 0 1-.91-.91 1.09 1.09 0 0 1 1.1-.9h17a.85.85 0 0 1 .91.9 1.09 1.09 0 0 1-1.1.91z" style="fill:#263238;transform-origin:273.985px 185.295px" id="el9aaxl8jcyfq" class="animable"></path><path d="M401.15 211.82H259.56a.81.81 0 0 1-.88-.9 1.13 1.13 0 0 1 1.12-.91h141.59a.82.82 0 0 1 .88.91 1.12 1.12 0 0 1-1.12.9z" style="fill:#263238;transform-origin:330.475px 210.915px" id="el1e729wcxb48" class="animable"></path><path d="M399.77 217.42H258.18a.81.81 0 0 1-.88-.91 1.13 1.13 0 0 1 1.13-.9H400a.82.82 0 0 1 .88.9 1.14 1.14 0 0 1-1.11.91z" style="fill:#263238;transform-origin:329.089px 216.516px" id="elzds2not68yh" class="animable"></path><path d="M398.35 223h-141.6a.8.8 0 0 1-.86-.91 1.15 1.15 0 0 1 1.13-.91h141.59a.82.82 0 0 1 .87.91 1.14 1.14 0 0 1-1.13.91z" style="fill:#263238;transform-origin:327.684px 222.091px" id="el1g4eze4uenr" class="animable"></path><path d="M396.89 228.62h-141.6a.8.8 0 0 1-.86-.91 1.16 1.16 0 0 1 1.14-.9h141.59a.79.79 0 0 1 .86.9 1.14 1.14 0 0 1-1.13.91z" style="fill:#263238;transform-origin:326.225px 227.714px" id="elflkh6oduv1j" class="animable"></path><path d="M395.39 234.22h-141.6a.79.79 0 0 1-.85-.91 1.16 1.16 0 0 1 1.14-.9h141.6a.79.79 0 0 1 .85.9 1.15 1.15 0 0 1-1.14.91z" style="fill:#263238;transform-origin:324.734px 233.315px" id="eln6w6c69y7xq" class="animable"></path><path d="M393.85 239.83H252.26a.79.79 0 0 1-.85-.91 1.16 1.16 0 0 1 1.15-.91h141.59a.79.79 0 0 1 .85.91 1.18 1.18 0 0 1-1.15.91z" style="fill:#263238;transform-origin:323.205px 238.92px" id="elm1yc7npve5" class="animable"></path><path d="M392.27 245.43H250.68a.78.78 0 0 1-.84-.91 1.18 1.18 0 0 1 1.15-.91h141.6a.78.78 0 0 1 .84.91 1.2 1.2 0 0 1-1.16.91z" style="fill:#263238;transform-origin:321.635px 244.52px" id="el9h1a74gia7n" class="animable"></path><path d="M390.66 251h-141.6a.78.78 0 0 1-.83-.91 1.2 1.2 0 0 1 1.16-.91H391a.78.78 0 0 1 .84.91 1.2 1.2 0 0 1-1.18.91z" style="fill:#263238;transform-origin:320.035px 250.09px" id="eltvbg8czz8dm" class="animable"></path><path d="M319 256.63h-71.6a.77.77 0 0 1-.83-.91 1.22 1.22 0 0 1 1.17-.91h71.59a.78.78 0 0 1 .84.91 1.21 1.21 0 0 1-1.17.91z" style="fill:#263238;transform-origin:283.369px 255.72px" id="ell37vz2qcl3d" class="animable"></path><path d="M409.07 181.3h-24.41a.86.86 0 0 1-.92-.91 1.08 1.08 0 0 1 1.09-.9h24.42a.85.85 0 0 1 .91.9 1.07 1.07 0 0 1-1.09.91z" style="fill:#263238;transform-origin:396.95px 180.395px" id="elcmh6qp2i66a" class="animable"></path><path d="M386.77 264.23H260.25a.76.76 0 0 1-.82-.91 1.21 1.21 0 0 1 1.17-.91h126.52a.76.76 0 0 1 .82.91 1.21 1.21 0 0 1-1.17.91z" style="fill:#263238;transform-origin:323.685px 263.32px" id="el50hclp77vkr" class="animable"></path><path d="M385 269.83H243.37a.76.76 0 0 1-.82-.91 1.23 1.23 0 0 1 1.18-.91h141.6a.75.75 0 0 1 .81.91 1.23 1.23 0 0 1-1.14.91z" style="fill:#263238;transform-origin:314.346px 268.92px" id="el4qw52jaykkn" class="animable"></path><path d="M383.18 275.43h-141.6a.75.75 0 0 1-.81-.91 1.24 1.24 0 0 1 1.19-.9h141.6a.75.75 0 0 1 .81.9 1.24 1.24 0 0 1-1.19.91z" style="fill:#263238;transform-origin:312.569px 274.525px" id="elkpyfardl6u" class="animable"></path><path d="M381.36 281h-141.6a.75.75 0 0 1-.8-.91 1.25 1.25 0 0 1 1.2-.91h141.59a.74.74 0 0 1 .8.91 1.26 1.26 0 0 1-1.19.91z" style="fill:#263238;transform-origin:310.756px 280.089px" id="elvtc3flc8rrn" class="animable"></path><path d="M379.5 286.64H237.91a.75.75 0 0 1-.8-.91 1.25 1.25 0 0 1 1.2-.91h141.6a.73.73 0 0 1 .79.91 1.26 1.26 0 0 1-1.2.91z" style="fill:#263238;transform-origin:308.908px 285.729px" id="ellkwj7br3uuc" class="animable"></path><path d="M287.6 292.24H236a.74.74 0 0 1-.79-.91 1.27 1.27 0 0 1 1.21-.91H288a.73.73 0 0 1 .79.91 1.27 1.27 0 0 1-1.19.91z" style="fill:#263238;transform-origin:262.002px 291.329px" id="el6g89xacfin8" class="animable"></path><g style="opacity:.2;transform-origin:302.372px 341.988px" class="animable" id="el7qby5b46096"><path d="M282.23 337.13c.51-.45 1.79-1.44 2.55-2 .34-.26.77-.29 1-.06.43.52.86 1 1.28 1.57 0 0-1.42 1.59-1.88 2.13-4.6 5.45-7.35 10.69-7 11.69 4.7-.48 35.41-15.51 49.16-24.34-3.05-6.38-10.31-10.36-20.2-9.91-14.08.64-29.2 10.47-35.69 22.95a25.71 25.71 0 0 0-3.2 12.47 123 123 0 0 1 13.98-14.5z" id="elgnxgtij89n4" class="animable" style="transform-origin:297.795px 333.903px"></path><path d="M273.1 362.8c3.37 3.13 8.38 5 14.68 5 15.73 0 33.57-11.53 39.32-25.79a21.93 21.93 0 0 0 1.66-10.9c-14.09 10.04-41.45 26.49-55.66 31.69z" id="elrlm1w7yiywq" class="animable" style="transform-origin:300.988px 349.455px"></path><path d="M283.51 338.12c.05 0-20.68 18.28-17.92 23.85 2.93 5.58 55.09-25.72 68-36.49 13.09-10.74 0-6.45 0-6.44s4.44.22 1.15 3.54c-6.59 6.78-54.07 30.93-57.88 29.64s6.68-14.09 6.65-14.1z" id="elkn5qx7pajjj" class="animable" style="transform-origin:302.372px 340.408px"></path></g><path d="M220.07 360.7c-7.35 0-8.82-2.85-8.75-5.31.25-7.28 14.45-19.73 29.25-25.62 8.13-3.23 14.61-3.44 16.52-.52 1.56 2.41-.36 6.39-5.32 10.93-9.8 9-17.9 11-21.48 9.06a3.31 3.31 0 0 1-1.24-1.12c-.9.42-1.89.86-3 1.31a.43.43 0 0 1-.62-.19.58.58 0 0 1 .4-.61c1.05-.45 2-.87 2.85-1.27a3.7 3.7 0 0 1 .68-2.89 7 7 0 0 1 5.64-3.07c.94.05 1.49.47 1.46 1.13-.06 1.3-2.3 3.07-6.39 5.1a2.6 2.6 0 0 0 .92.8c2.43 1.32 9.47 1 20.13-8.78 4.56-4.18 6.38-7.76 5-9.81-1.66-2.55-7.84-2.25-15.37.74-14.39 5.72-28.19 17.68-28.43 24.59-.1 3.21 3 4.81 8.94 4.61 7.62-.24 15.67-3.35 22.44-7 2.14-4.1 8.37-9.42 15-12.61 1.32-.64 2.08-.78 2.43-.46s.22.67-.16 1.25c-1.38 2.12-7.93 7.6-16.44 12.24-.11.24-.21.48-.29.7a2.43 2.43 0 0 0 .5 2.9c2.82 2.34 13.07-4.63 16.74-7.52a.55.55 0 0 1 .72 0c.16.16.09.45-.15.64-.55.45-14.15 11-18.13 7.65-1-.82-1.21-2.08-.67-3.64-6.87 3.61-14.84 6.56-22.21 6.79zm40.17-20.24a5.93 5.93 0 0 0-1.23.48c-5.71 2.76-11.28 7.31-13.73 11a77.32 77.32 0 0 0 12-8.34 13.33 13.33 0 0 0 2.96-3.14zm-25.68 1.84a5.66 5.66 0 0 0-4.28 2.45 2.86 2.86 0 0 0-.54 2.12c4.34-2.15 5.66-3.57 5.68-4.14 0-.35-.51-.41-.74-.42z" style="fill:#407bff;transform-origin:236.802px 343.958px" id="el5xhvyzii479" class="animable"></path></g><g id="freepik--Character--inject-2" class="animable" style="transform-origin:161.402px 270.908px;animation:1.6s 1 forwards linear slideLeft,1.5s Infinite linear wind;animation-delay:0s,1.6s"><g id="freepik--group--inject-2" class="animable" style="transform-origin:161.402px 270.908px"><path d="M184.58 177.11s-18.43-18.23-40.58-19.36c0 0-13.18 31.92-19.57 63.58l43.89 7.82s6.07-32.85 16.26-52.04z" style="fill:#407bff;transform-origin:154.505px 193.45px" id="elr4vmtpfzdfs" class="animable"></path><path d="M184.58 177.11c-10.19 19.19-16.22 52-16.22 52l-43.89-7.82a328.51 328.51 0 0 1 8.83-33.49c2.4-7.61 4.76-14.32 6.65-19.47 2.43-6.6 4.09-10.62 4.09-10.62 22.11 1.17 40.54 19.4 40.54 19.4z" style="fill:#fff;opacity:.6;isolation:isolate;transform-origin:154.525px 193.41px" class="animable" id="elyylq5fe77ho"></path><path d="M175.08 158.89c-.45.43-.9.88-1.31 1.35l-.22.26a10.1 10.1 0 0 0-2 3.39 5.9 5.9 0 0 0-.28 1.67 7.23 7.23 0 0 0 2.49 5.18c-.08 2.2-5.76.06-5.76.06s-8.35-4.46-9.41-9.53c3.21-.66 6.12-4.23 8.41-8.18.58-1 1.12-2 1.62-3.05.86-1.76 1.58-3.48 2.13-4.91z" style="fill:#e4897b;transform-origin:166.835px 158.432px" id="el05jn5ftrvnpm" class="animable"></path><path d="m173.77 160.24-.22.26a10.1 10.1 0 0 0-2 3.39 5.9 5.9 0 0 0-.28 1.67c-2.45-2.33-5.57-6.73-4.27-12.47a14.5 14.5 0 0 1 1.34-3.6l.28.55z" style="opacity:.2;isolation:isolate;transform-origin:170.232px 157.525px" class="animable" id="el6yyz7ieyyb9"></path><path d="M196.1 140.11s-2.39 11-9.46 12.95.33-17.53.33-17.53z" style="fill:#263238;transform-origin:189.841px 144.364px" id="elx53552g3lj" class="animable"></path><path d="M167.39 155.23a10.12 10.12 0 0 0 9.48 7.82 11.58 11.58 0 0 0 8.78-3.42c5.15-5.34 10.27-16.17 5.12-22.93a11 11 0 0 0-18.64 1.77c-3.67 7.14-6.13 11.17-4.74 16.76z" style="fill:#e4897b;transform-origin:179.953px 147.699px" id="elgg9dns4iajh" class="animable"></path><path d="M181.49 146.59a1 1 0 0 0 .06 1.42c.38.22.94-.07 1.27-.63s.3-1.2-.06-1.41-.93.03-1.27.62z" style="fill:#263238;transform-origin:182.136px 146.989px" id="elbzqvgcef2n8" class="animable"></path><path d="M187.85 150.35a1 1 0 0 0 .07 1.41c.37.22.94-.07 1.27-.63s.3-1.19-.07-1.41-.95.1-1.27.63z" style="fill:#263238;transform-origin:188.506px 150.742px" id="elkin618222ae" class="animable"></path><path d="M185.67 149.43a23.34 23.34 0 0 0-.16 6.41 3.77 3.77 0 0 1-3-1.09z" style="fill:#de5753;transform-origin:184.09px 152.642px" id="elt38arw3vbu" class="animable"></path><path d="M191.82 149a.39.39 0 0 1-.34-.21 3.1 3.1 0 0 0-2.21-1.67.39.39 0 0 1-.35-.42.38.38 0 0 1 .42-.34 3.78 3.78 0 0 1 2.81 2.08.38.38 0 0 1-.14.52.58.58 0 0 1-.19.04z" style="fill:#263238;transform-origin:190.56px 147.679px" id="eljnn7jtrgbq" class="animable"></path><path d="M181.73 143.3a.35.35 0 0 1-.15-.17.39.39 0 0 1 .31-.45 3.81 3.81 0 0 1 3.36 1 .37.37 0 0 1 0 .54.39.39 0 0 1-.54 0 3.11 3.11 0 0 0-2.68-.73.38.38 0 0 1-.3-.19z" style="fill:#263238;transform-origin:183.471px 143.47px" id="el8ix0xaplicy" class="animable"></path><path d="m182.3 132.83-1.3 3.33a2.65 2.65 0 0 0-2.73 2.32c-.38 3.17-4 6.47-6.9 7 0 0 .53-1.17-.57-1.41s-4 5.84-3.59 9.67c0 0-1.49-4.06.2-11.15 1.56-6.55 3.91-11.45 6.27-13.06z" style="fill:#263238;transform-origin:174.452px 141.635px" id="el2b7z6ek52gw" class="animable"></path><path d="M165.76 142.35a7.66 7.66 0 0 0 1.81 5.56c1.75 2 4.11.81 4.86-1.62.65-2.16.56-5.88-1.81-7s-4.62.59-4.86 3.06z" style="fill:#e4897b;transform-origin:169.257px 143.93px" id="elq6ip845dvy" class="animable"></path><path d="M181 156.28a21.35 21.35 0 0 0-2.34 1.95l-.43-.32c-1.93-1.48-2.34-2.81-2.21-3.83a3.07 3.07 0 0 1 .56-1.37 2.91 2.91 0 0 1 .57-.63 11.55 11.55 0 0 0 3.2 3.68c.41.33.65.52.65.52z" style="fill:#263238;transform-origin:178.499px 155.155px" id="elhcijmupv69" class="animable"></path><path d="m180.37 155.76-.7.56c-1.82-1.4-2.92-2.62-3.07-3.61a2.91 2.91 0 0 1 .57-.63 11.55 11.55 0 0 0 3.2 3.68z" style="fill:#fff;transform-origin:178.485px 154.2px" id="ela39twtp3eke" class="animable"></path><path d="M178.25 157.91c-1.93-1.48-2.34-2.81-2.21-3.83a7.83 7.83 0 0 1 1.82 2.07 2.86 2.86 0 0 1 .39 1.76z" style="fill:#de5753;transform-origin:177.142px 155.995px" id="elx9curuda9ti" class="animable"></path><path d="M181 136.16s14.41 12 16.79.12c0 0-6.92-8.71-15.29-10.24s-10.87 6.8-10.87 6.8z" style="fill:#263238;transform-origin:184.71px 133.691px" id="elpx85xszabg" class="animable"></path><path d="M129.07 410.19h-10.13a.75.75 0 0 0-.72.58l-1.64 7.43a1.24 1.24 0 0 0 1 1.46h.27c3.28-.05 5.67-.25 9.78-.25 2.54 0 10.19.26 13.7.26s3.95-3.46 2.52-3.78c-6.43-1.4-11.27-3.34-13.33-5.19a2 2 0 0 0-1.45-.51z" id="elzo4idhprnt8" class="animable" style="transform-origin:130.585px 414.928px"></path><path d="M172.05 409.93h-10.13a.73.73 0 0 0-.71.57l-1.65 7.43a1.25 1.25 0 0 0 1.22 1.49c3.28-.06 5.67-.26 9.79-.26 2.53 0 10.19.27 13.69.27s4-3.46 2.52-3.78c-6.43-1.4-11.27-3.34-13.33-5.19a2 2 0 0 0-1.4-.53z" id="elg2a9502gwbu" class="animable" style="transform-origin:173.55px 414.68px"></path><path d="m124.47 217.73 44.93 6.72c.52 2.81-.72 8.6-.72 8.6 5.21 34.09 15.53 114.48 7.23 178.11h-15s1.39-110.1-11.85-145.67c-1.52 19-17 145.59-17 145.59h-15.25s2.28-47.6 4.57-92.57c1.2-23.75-1.26-72.6 1-90z" style="fill:#263238;transform-origin:147.919px 314.445px" id="eltgh8ltnbchn" class="animable"></path><path d="M149.08 265.49a118.93 118.93 0 0 1 4.92 19.16c1.24-16.95-3.71-34.92-3.71-34.92z" style="opacity:.2;isolation:isolate;transform-origin:151.64px 267.19px" class="animable" id="el00wt9cygc92a"></path><path id="el0h2tj0a0fovc" class="animable" style="transform-origin:149.775px 225.525px" d="m136.76 226.11 25.39 3.82.64-5.04-25.29-3.77-.74 4.99z"></path><path id="elc1efkypbcdk" class="animable" style="transform-origin:129.1px 222.43px" d="m135.35 220.79-11.55-1.72-.95 4.95 11.82 1.77.68-5z"></path><path id="elk5wk1mcz8e8" class="animable" style="transform-origin:166.625px 228.055px" d="m164.78 225.19-.93 4.99 4.93.74.62-5.04-4.62-.69z"></path><path d="M155.34 223.8a2.35 2.35 0 0 0-1.45-.93l-4-.7a1.69 1.69 0 0 0-2 1.54l-.29 2.6a2.46 2.46 0 0 0 1.76 2.55h.17l4 .69a1.69 1.69 0 0 0 2-1.54l.29-2.59a2.37 2.37 0 0 0-.48-1.62zm-1.81 4.73-4-.7a1 1 0 0 1-.7-.44 1.16 1.16 0 0 1-.24-.81l.29-2.6a.82.82 0 0 1 1-.74l4 .7h.12a1.21 1.21 0 0 1 .62.43 1.15 1.15 0 0 1 .23.81l-.05.39a.67.67 0 0 0-.15-.06l-1.12-.21a.6.6 0 0 0-.71.58.84.84 0 0 0 .66.83l1.12.21h.06l-.1.85a.83.83 0 0 1-1.03.76z" style="fill:#fff;transform-origin:151.71px 225.86px" id="elwijza55afad" class="animable"></path><path d="m161.26 168.37 1.53 7.42s-3.44 18.71 1.06 36l4.34 2.54 2.37-3.44s-6.72-16.91-5.15-33.73l4-5.46z" style="fill:#263238;transform-origin:165.91px 191.35px" id="ell1jpjyu8cec" class="animable"></path><path d="m162 159.49 4.26 10 5.31-5.61 3.73 5.85a10.53 10.53 0 0 1-3.71 7.5l-5.5-5.53-8.38 1s-2.61-8.66-2-10.89 6.29-2.32 6.29-2.32z" style="fill:#407bff;transform-origin:165.459px 168.36px" id="elc4z5e6zwzte" class="animable"></path><path d="M133.3 187.84c2.4-7.61 4.76-14.32 6.65-19.47l2.78-1.24s3.38 10.8-9.43 20.71z" style="opacity:.2;isolation:isolate;transform-origin:138.217px 177.485px" class="animable" id="el8axtd1yqhuc"></path><path d="m162 159.49 4.26 10 5.31-5.61 3.73 5.85a10.53 10.53 0 0 1-3.71 7.5l-5.5-5.53-8.38 1s-2.61-8.66-2-10.89 6.29-2.32 6.29-2.32z" style="fill:#fff;opacity:.4;isolation:isolate;transform-origin:165.459px 168.36px" class="animable" id="elrbh946saodp"></path><path d="M144 157.75c-5.92-.29-17.89 13.82-20.92 16.33s-11.35 2.13-16.25-2.35c0 0-3.76-.75-5.38 1.82 0 0 8 11.4 19.24 10.16s18.58-12 18.58-12a24.64 24.64 0 0 0 4.73-7.28c1.64-4.07 0-6.68 0-6.68z" style="fill:#407bff;transform-origin:123.089px 170.775px" id="el3kwzm6829vr" class="animable"></path><path d="M144 157.75c-5.92-.29-17.89 13.82-20.92 16.33s-11.35 2.13-16.25-2.35c0 0-3.76-.75-5.38 1.82 0 0 8 11.4 19.24 10.16s18.58-12 18.58-12a24.64 24.64 0 0 0 4.73-7.28c1.64-4.07 0-6.68 0-6.68z" style="fill:#fff;opacity:.6;isolation:isolate;transform-origin:123.089px 170.775px" class="animable" id="elo13y1l9t4l"></path><path style="fill:#263238;transform-origin:243.1px 295.735px" id="elrtmcl8o2nu" class="animable" d="m246.87 298.5.83 1.98-1.94-.91-7.26-7.51 1.11-1.07 7.26 7.51z"></path><path d="M83.25 121.65h4.87A1.38 1.38 0 0 1 89.5 123v21.13h-7.63V123a1.38 1.38 0 0 1 1.38-1.38z" style="fill:#263238;transform-origin:85.685px 132.875px;transform:rotate(-44.1931deg)" class="animable" id="elxgh7isf8rla"></path><path d="M83.25 121.65h4.87A1.38 1.38 0 0 1 89.5 123v21.13h-7.63V123a1.38 1.38 0 0 1 1.38-1.38z" style="fill:#fff;opacity:.1;isolation:isolate;transform-origin:85.685px 132.875px;transform:rotate(-44.1931deg)" class="animable" id="el77lfa1lmpux"></path><path d="m93.68 133.7-7.47 7.22a3.59 3.59 0 0 0-.17 5q66.15 73.47 137.51 142s10.39 8.42 20.48 10.57l1.85-1.78c-1.82-10.16-9.88-20.82-9.88-20.82q-66.06-73.53-137.34-142.2a3.59 3.59 0 0 0-4.98.01z" style="fill:#407bff;transform-origin:165.494px 215.591px" id="elm49n6htsgea" class="animable"></path><path d="m97.05 126.7-12.6 12.18a1.06 1.06 0 0 0 0 1.51l1.22 1.27 12.81-12.39c19.35 18.21 33.93 34.87 33.93 34.87l-.5 1.36 4.56 2.77c-3.81-8.58-32.41-36.45-37.71-41.57a1.2 1.2 0 0 0-1.71 0z" style="fill:#263238;transform-origin:110.302px 147.306px" id="ela1sumylkdbs" class="animable"></path><path style="fill:#407bff;transform-origin:157.61px 207.295px;transform:rotate(-44.03deg)" class="animable" d="M147.01 205.26h21.2v4.07h-21.2z" id="ela1iirbj1gr5"></path><path d="M174.4 240.87q20.7 20.89 41.76 41.3a1.64 1.64 0 0 0 2.29 0l12-11.55a1.64 1.64 0 0 0 .07-2.29q-19.64-21.72-39.87-43.12a1.65 1.65 0 0 0-2.35-.05l-13.82 13.36a1.66 1.66 0 0 0-.08 2.35z" style="fill:#263238;transform-origin:202.452px 253.664px" id="el98ngp4eolgu" class="animable"></path><path style="opacity:.2;isolation:isolate;transform-origin:157.61px 207.295px;transform:rotate(-44.03deg)" class="animable" d="M147.01 205.26h21.2v4.07h-21.2z" id="el45mnje5tjha"></path><path d="m97.05 126.7-12.6 12.18a1.06 1.06 0 0 0 0 1.51l1.22 1.27 12.81-12.39c19.35 18.21 33.93 34.87 33.93 34.87l-.5 1.36 4.56 2.77c-3.81-8.58-32.41-36.45-37.71-41.57a1.2 1.2 0 0 0-1.71 0z" style="fill:#fff;opacity:.6;isolation:isolate;transform-origin:110.302px 147.306px" class="animable" id="eln9qzyh3tlmh"></path><path d="M174.4 240.87q20.7 20.89 41.76 41.3a1.64 1.64 0 0 0 2.29 0l12-11.55a1.64 1.64 0 0 0 .07-2.29q-19.64-21.72-39.87-43.12a1.65 1.65 0 0 0-2.35-.05l-13.82 13.36a1.66 1.66 0 0 0-.08 2.35z" style="fill:#fff;opacity:.1;isolation:isolate;transform-origin:202.452px 253.664px" class="animable" id="el9jpgehqmzr"></path><path d="m195.43 222.58-1.17 1.57a4.54 4.54 0 0 0-3.61.64s.1 4 .27 4.5c.36 1.16 5.57 4.62 6.92 4.8.42.06 1.22-2.72 1.09-3.67a16.57 16.57 0 0 0-1.78-3.61l1-1.4z" style="fill:#e4897b;transform-origin:194.797px 228.335px" id="el3rx09qrbc2u" class="animable"></path><path d="m106.93 173.75.16-1.26s.85.21 1.21-1.25 1.09-5.06.58-5.94a45.38 45.38 0 0 0-4.48-5c-.74-.64-2.47 2.4-2.86 3.81s1.57 6.88 1.57 6.88l-.08 2.37a4.45 4.45 0 0 0 3.9.39z" style="fill:#e4897b;transform-origin:105.272px 167.121px" id="elu1w3jhs4bg8" class="animable"></path><path d="M184.58 177.11c2.87 3.28 11.89 16.59 14.37 23.08 3.46 9.1 0 27.4 0 27.4l-6-4s1.13-13.93-.42-18.88-13.71-14.24-13.71-14.24a24 24 0 0 1 1.78-6.47 27.44 27.44 0 0 1 3.98-6.89z" style="fill:#407bff;transform-origin:189.654px 202.35px" id="elhpy5g2d4kh4" class="animable"></path><path d="m199 227.59-6-4s1.13-13.93-.42-18.88c-.88-2.8-5.17-7-8.72-10.11-2.71-2.38-5-4.13-5-4.13a23.59 23.59 0 0 1 1.63-6l.19-.45a27.44 27.44 0 0 1 4-6.84c2.87 3.28 11.89 16.59 14.37 23.08 3.36 9.03-.05 27.33-.05 27.33z" style="fill:#fff;opacity:.6;isolation:isolate;transform-origin:189.695px 202.385px" class="animable" id="elv40mur196g"></path><path d="M183.77 194.56c-2.71-2.38-5-4.13-5-4.13a23.59 23.59 0 0 1 1.63-6 19.73 19.73 0 0 1 3.37 10.13z" style="opacity:.2;isolation:isolate;transform-origin:181.27px 189.495px" class="animable" id="elyne57scmk8j"></path></g></g><defs><filter id="active" height="200%"></filter><filter id="hover" height="200%"></filter></defs></svg>