<svg xmlns="http://www.w3.org/2000/svg" version="1.1" id="prefix__Isolation_Mode" x="0" y="0" viewBox="40 55 251.4 182" xml:space="preserve"><style>@-webkit-keyframes lamp-effect{0%,to{opacity:1}50%{opacity:.8;fill:#6A2186}}@keyframes lamp-effect{0%,to{opacity:1}50%{opacity:.8;fill:#6A2186}}@-webkit-keyframes bounceInDown{60%,75%,90%{-webkit-animation-timing-function:cubic-bezier(.215,.61,.355,1);animation-timing-function:cubic-bezier(.215,.61,.355,1)}0%{opacity:0;-webkit-transform:translate3d(0,-3000px,0);transform:translate3d(0,-3000px,0)}60%{opacity:1;-webkit-transform:translate3d(0,25px,0);transform:translate3d(0,25px,0)}75%{-webkit-transform:translate3d(0,-10px,0);transform:translate3d(0,-10px,0)}90%{-webkit-transform:translate3d(0,5px,0);transform:translate3d(0,5px,0)}}@keyframes bounceInDown{60%,75%,90%{-webkit-animation-timing-function:cubic-bezier(.215,.61,.355,1);animation-timing-function:cubic-bezier(.215,.61,.355,1)}0%{opacity:0;-webkit-transform:translate3d(0,-3000px,0);transform:translate3d(0,-3000px,0)}60%{opacity:1;-webkit-transform:translate3d(0,25px,0);transform:translate3d(0,25px,0)}75%{-webkit-transform:translate3d(0,-10px,0);transform:translate3d(0,-10px,0)}90%{-webkit-transform:translate3d(0,5px,0);transform:translate3d(0,5px,0)}}.prefix__st1{fill:#e8e8e8}.prefix__st4{fill:#fff}.prefix__st8{fill:#131c24}.prefix__st9{fill:#4f4946}.prefix__st12{fill:#eea987}.prefix__st13{fill:#e8734d}.prefix__st15{fill:#eddad3}.prefix__st16{fill:#0077ae}.prefix__st18{fill:#385369}.prefix__st20{fill:#eea886}</style><path fill="#d6d6d6" d="M261.8 186.3l-26.3-14.7 9-.6z"/><path class="prefix__st1" d="M261.8 186.3l-8.1-13-6.8-.2z"/><path fill="#c2c2c2" d="M241.5 175l-.5 3.3 20.8 8z"/><path d="M257.4 102.7c-.1-25.4-24.5-45.9-54.5-45.8-30 .1-54.2 20.9-54 46.3 0 6.7 1.7 13 4.8 18.8 0 0 16.7 32.3 19.2 63 .1 14.4 13.8 25.9 30.8 25.8 16.9-.1 30.6-11.8 30.5-26.1 2.2-30.7 18.6-63.2 18.6-63.2 2.9-5.8 4.6-12.1 4.6-18.8z" style="-webkit-animation:lamp-effect 3s linear infinite;animation:lamp-effect 3s linear infinite" fill="#fac143"/><path transform="rotate(-7.221 185.115 151.59)" class="prefix__st4" d="M184 116.6h2v69.9h-2z"/><path transform="rotate(-173.364 221.647 151.357)" class="prefix__st4" d="M220.6 116.4h2v69.9h-2z"/><path class="prefix__st4" d="M218 127.5l-7.6-7.6-7.4 7.5-7.3-7.3-7.1 7.3-8-7.9 1-1 7 6.9 7.1-7.2 7.3 7.2 7.4-7.4 7.6 7.5 7-7 .9.9z"/><path d="M221 227.1l-34.7.2c-3.9 0-7-3.1-7-6.9l-.1-13.7 48.7-.2.1 13.7c0 3.8-3.1 6.9-7 6.9z" fill="#016898"/><path d="M225.3 218.6l-43.4.2c-5.8 0-10.5-4.6-10.5-10.4l-.1-22.8 64.4-.3.1 22.8c0 5.8-4.7 10.5-10.5 10.5z" fill="#329dcf"/><path d="M240.3 126s-1-53.2-38.4-60.7c0 0 26-1 37.1 17.8 11.2 18.9 1.3 42.9 1.3 42.9z" fill="#ffd578"/><g><path class="prefix__st1" d="M71.8 177.3l-1.4-.1c.1-2.5.3-4.9.6-7.2l1.4.1-.6 7.2zm165.7-14.1c-.1-.1-1.7-3-2.8-7.1l1.3-.3c1 3.9 2.6 6.7 2.7 6.8l-1.2.6zm-164.1-.4l-1.4-.2c.4-2.5 1-5 1.5-7.3l1.3.3c-.4 2.3-.9 4.7-1.4 7.2zm3.7-14.2l-1.3-.5c.9-2.4 1.8-4.8 2.9-6.9l1.2.6c-1 2.1-2 4.4-2.8 6.8zm158.2-.1l-1.4-.1c.2-2.7.9-5.2 2.3-7.4l1.2.7c-1.3 2.1-2 4.3-2.1 6.8zm7.1-11.7l-.7-1.2c1.9-1.2 4.2-2.2 6.8-3l.2-.1.4 1.3-.2.1c-2.5.8-4.7 1.8-6.5 2.9zm-158.8-1.4l-1.1-.8c1.4-2.1 3-4.1 4.7-5.9l1 1c-1.6 1.8-3.2 3.7-4.6 5.7zm172.5-4.3l-.6-1.2c2.3-1.2 4.3-2.5 6-4.1l.9 1c-1.8 1.7-4 3.1-6.3 4.3zm-162.4-6.2l-.8-1.1c2-1.5 4.1-2.9 6.4-4.1l.7 1.2c-2.3 1.2-4.4 2.5-6.3 4zm173.6-3.9l-1.2-.7c1.2-2.1 2.1-4.4 2.6-6.7l1.4.3c-.6 2.5-1.5 4.9-2.8 7.1zm-160.8-3.1l-.5-1.3c2.2-.8 4.7-1.6 7.2-2.3l.4 1.3c-2.5.7-4.9 1.5-7.1 2.3zm14.3-3.8l-.2-1.4c2.3-.4 4.7-.8 7.4-1.1l.2 1.4c-2.7.3-5.1.6-7.4 1.1zm14.8-2l-.1-1.4c1.7-.2 3.4-.3 5.1-.5l2.3-.2.1 1.4-2.3.2c-1.7.1-3.4.3-5.1.5zm14.9-1.5l-.2-1.4c2.8-.3 5.2-.7 7.4-1.1l.2 1.4c-2.2.4-4.6.7-7.4 1.1zm14.8-2.7l-.4-1.3c2.6-.7 4.8-1.5 6.9-2.5l.6 1.3c-2.1.9-4.4 1.8-7.1 2.5zm103.5-1.5c-.3-2.3-1-4.7-2-7l1.3-.6c1.1 2.4 1.8 4.9 2.1 7.3l-1.4.3zm-89.9-5l-.9-1.1c.9-.7 1.7-1.4 2.5-2.2.9-1 1.9-1.9 2.9-2.8l.9 1c-1 .9-1.9 1.8-2.9 2.8-.7.8-1.5 1.6-2.5 2.3zm84.2-8.3c-.6-.8-1.2-1.6-1.9-2.3-1-1.1-2-2.1-3.1-3.1l.9-1c1.1 1 2.2 2.1 3.2 3.2.7.8 1.3 1.6 1.9 2.4l-1 .8zm-73-1.6l-.8-1.1c2-1.5 4.1-3 6.2-4.3l.7 1.2c-2.1 1.3-4.2 2.7-6.1 4.2zm12.5-7.7l-.6-1.2c2.3-1.1 4.6-2.1 7-2.9l.5 1.3c-2.3.8-4.6 1.7-6.9 2.8zm49.7-.4c-2.1-1.2-4.3-2.3-6.6-3.1l.5-1.3c2.4.9 4.7 2 6.9 3.2l-.8 1.2zm-35.7-4.5l-.3-1.3c2.5-.6 5-1 7.5-1.2l.1 1.4c-2.4.2-4.9.6-7.3 1.1zm21.9-.6c-2.4-.4-4.8-.7-7.3-.8l.1-1.4c2.6.1 5.1.4 7.5.8l-.3 1.4z"/></g><g style="-webkit-animation:bounceInDown 3s linear;animation:bounceInDown 3s linear"><path class="prefix__st8" d="M103.9 226.4s-.9 2-1.6 2.8c-.7.8-3.6 2.2-3.6 4.5 0 2.5 4.8 1.8 6.7 1.7 1.9-.1 2-1.4 2.8-2.9.8-1.4 1.6-1.2 1.7-2.3.1-1.2-.6-3.7-.6-3.7l-5.4-.1z"/><path class="prefix__st9" d="M103.8 225.7l-.1 1.2s3 1 5.8.1l-.2-1.6-5.5.3z"/><path class="prefix__st8" d="M138.7 226.4s.9 2 1.6 2.8c.7.8 3.6 2.2 3.6 4.5 0 2.5-4.8 1.8-6.7 1.7-1.9-.1-2-1.4-2.8-2.9-.8-1.4-1.6-1.2-1.7-2.3-.1-1.2.6-3.7.6-3.7l5.4-.1z"/><path class="prefix__st9" d="M138.8 225.7l.1 1.2s-3 1-5.8.1l.2-1.6 5.5.3z"/><path d="M137.2 193.7c0 3.1 2.9 31.7 2.9 31.7-.3 1-7.5.9-8.6.4-1.1-.5-4.4-28.8-4.6-31.9-.2-3.2-4.9-30.6-5.8-30.5-1 .1-5.6 29.5-6.4 31.9-.8 2.4-4.3 30.8-4.3 30.8-2.5 1.4-8.3-.3-8.3-.3s1.2-29.2 1.4-30c.2-1.3 0-4.8.6-12.6.5-7 2.3-22.2 3.5-30.4 0-.3.1-.6.1-.8.2-1.6.4-2.8.5-3.3 0-.2.1-.4.1-.4.3-.1.6-.3 1-.4 8.2-2.7 23.8-2.6 23.8-2.6s.2 2.8.2 2.9c0 .2.1.4.1.8.1.7.2 1.8.4 3.1v.1c.6 4.5 1.3 11 1.3 11.7-.3.9 2.1 26.7 2.1 29.8z" fill="#293e4f"/><path d="M138.4 101.3l-4 14.4c-.1.5-.3 1-.5 1.7-.7 2.6-1.5 6.5-1.7 10.8-.2 3 .4 14.9.4 14.9s-6.1 2.3-15.2 1.7c0 0-9.8-.2-9-6.2 2.1-15.9 0-22.4-.2-24 0 0-1.2-7.3-2.1-13.8 2.8-1 14.4-5.4 14.4-5.4l6.1.5c-.1 0 9.1 2.3 11.8 5.4z" fill="#d9c7c1"/><path class="prefix__st12" d="M123.4 75.1s6 1 4.9 10.3c-1 9.3-6.3 8.5-6.6 8.5-.4 0-5.3.1-5.5-11.3 0 0-.1-8.4 7.2-7.5z"/><path class="prefix__st12" d="M126 91.2s-.2 3.8.2 4.7c.4.8-4.8 3.5-8 .5 0 0 .6-4.2.4-5.7-.1-1.6 7.4.5 7.4.5zM128.5 82.7s.7-.7.9 0c.2.7-1.1 3.8-1 4 0 0-.1.3-.3.1-.1-.1.4-4.1.4-4.1zM116.3 82.5s-.6-.7-.9 0c-.3.7.7 3.8.8 4 0 0 .2.3.4.2.1-.2-.3-4.2-.3-4.2z"/><path class="prefix__st13" d="M128.9 82c-.2 1.3-.4 2.2-.4 2.2l-.9 1.1s.1-2.5-.1-2.9c-.1-.1-.1-.4-.2-.7-.1-.5-.2-1-.3-1.2-.1-.3-5.1-1.7-9.5.3v.8c0 .5-.1 1.1-.3 1.1-.4.2-.2 2.9-.2 2.9l-.7-.8s-.2-1.4-.4-3.1c0-.4-.1-.8-.1-1.2-.1-1.7.1-4.7 2.2-6.5 1.5-.6 5.5-1.3 7.7 0 0 0 1.2.7 1.5 1 2.5 2.8 1.7 7 1.7 7z"/><path d="M119.1 92.6s.9 1.3 3.2 1.3c2.2-.1 3.2-1.2 3.2-1.2s-1 2.2-3.2 2.2c-2.2-.1-3.2-2.3-3.2-2.3z" fill="#c78d71"/><path class="prefix__st12" d="M117.6 96.4s1.6 2.8 4.6 3c1.9.2 3.6-2.3 4.3-3.5.1 0-4.2-1.8-8.9.5z"/><path class="prefix__st15" d="M126 95.1s-1.2 1.6-3.8 3.3l1.6 2.5 2.7-4.9-.5-.9zM118.3 95.4s1.5 1.9 3.9 2.9l-1.8 2.6-3.1-4.4 1-1.1z"/><path class="prefix__st16" d="M122.2 98.4l1.4 2.1s-1.5.8-2.8-.1l1.4-2z"/><path d="M108 146s7.5 2.8 24.4.2l-.2-3.1s-9.8 2.9-23.8.4l-.4 2.5z" fill="#1a2833"/><path class="prefix__st18" d="M126.6 95.9s-1.7 13.1-1.5 24.3c.2 11.2 3.9 32.3 3.9 32.3s6.5-.6 8.1-2.7c0 0-3.7-20.3-3.6-23.3.1-3 4.8-25.6 4.8-25.6s-1.9-2.4-11.7-5zM117.2 96.6s0 12.4-.3 23.6c-.2 11.2-1.7 32.2-1.7 32.2s-7.6-1.1-9.3-3.1c0 0 2.7-19.7 2.6-22.7-.1-3-3.5-25.4-3.5-25.4s1.3-1.7 12.2-4.6z"/><path fill="#3e5e78" d="M118.2 144h4.6v3.4h-4.6z"/><path class="prefix__st16" d="M121.6 99.9s-2 7-2.2 20.9c-.2 13.9.3 17.9.3 17.9l1.6 3.2 2.1-3.3s-.7-32-.3-38.4l-1.5-.3z"/><path class="prefix__st20" d="M130.1 119.5s3-1.5 3.5-1.8c.4-.3 5.5-1 6.1-1 .6 0 .7.5.5.7-.2.2-5.2 1-5.3 1.1-.1.1.4.1.4.1s5.5-.1 5.8.3c.4.4-.1.7-.3.8 0 0 .5.6-.1.8-.6.2-1.4.4-1.4.4s.7.4.2.7c-.5.3-6.3 2.1-6.3 2.1s-1.9-4.1-3.1-4.2z"/><path class="prefix__st18" d="M140.6 129.9c-3.9.9-13.1-.6-16.5-1.4-.7-.2-1.6-.3-2.4-.5-1.4-.3-2.9-.6-4.1-.8-1.5-.3-2.5-.4-2.5-.4s19.1-4.3 19.8-4.3c.7 0-1.8-11.2-1.8-11.2s-2.5-9.4-1.2-13c0 0 4.9 1.5 6.4 2.6.9.6 1.5 4.7 2.1 7.4.8 3.5 2.5 11.5 2.7 13.1.2 1.7 1.4 7.6-2.5 8.5z"/><path class="prefix__st18" d="M111.3 98.4s-5.9 2-6.2 2.8c-1.2 3.2-1.7 6.8-2.1 8.2-.5 1.7-1.5 6.9-1.8 8.6-.3 2.1-1 9.8-.7 10.9.4 1.5 3.9 1.4 5.7 1.1 1.9-.3 28-6.7 28-6.7s-1.5-4.9-1.6-5.3c0 0-20.2 2.3-22.7 2.9-1.5.3-1.8.4-1.8.4s4.5-18.3 3.2-22.9z"/><path class="prefix__st20" d="M114.8 120.2s-2.6-2.1-3-2.5c-.4-.4-5.1-2.2-5.8-2.3-.6-.1-.7.4-.7.6.1.4 5 2.1 5 2.2.1.1-.4 0-.4 0s-5.3-1.3-5.8-1c-.5.3-.1.7.1.8 0 0-.6.5-.1.8.5.4 1.2.7 1.2.7s-.8.2-.4.6c.4.4 3.2 1.1 3.2 1.1s5.5-1.1 6.7-1z"/><path d="M130.5 124.2l-8.9 3.9c-1.4-.3-2.9-.6-4.1-.8l13-3.1z" fill="#263947"/><path class="prefix__st13" d="M126.2 75s1.5-.7 2.3.2c.8 1 .9 6.3-.1 8.3-1 2.1.1-7.2-2.2-8.5z"/></g></svg>