<svg xmlns="http://www.w3.org/2000/svg" version="1.1" id="prefix__Ñëîé_1" x="0" y="0" viewBox="180 100 300 210" xml:space="preserve"><style>@keyframes animate-effect1{0%,to{transform:translateX(-70px) rotateY(41deg);-webkit-transform:translateX(-70px) rotateY(41deg)}50%{transform:translateX(0) rotateY(0deg);-webkit-transform:translateX(0) rotateY(0deg)}}@-webkit-keyframes animate-effect1{0%,to{transform:translateX(-70px) rotateY(41deg);-webkit-transform:translateX(-70px) rotateY(41deg)}50%{transform:translateX(0) rotateY(0deg);-webkit-transform:translateX(0) rotateY(0deg)}}.prefix__st0{fill:#b2d2f7}.prefix__st1{fill:#4281c9}.prefix__st2{fill:#5793ce}.prefix__st3{fill:#fafdff}.prefix__st4{fill:#6A2186}.prefix__st5{fill:#fff}.prefix__st6{opacity:.4;fill:#b2d2f7}.prefix__st8{fill:#6A2186}.prefix__st9{fill:#e8a200}.prefix__st10{fill:#fdd762}.prefix__st11{fill:#f2b42a}.prefix__st12{fill:#eead00}.prefix__st13{fill:#eea886}.prefix__st14{fill:#414773}.prefix__st15{fill:#2d314f}.prefix__st17{fill:#353a3d}</style><path class="prefix__st0" d="M308 255.6l-42.9-24.4c-1.6-.9-1.4-2.5.4-3.5l24.7-14.2c1.8-1 4.5-1.2 6.1-.3l42.9 24.4c1.6.9 1.4 2.5-.4 3.5l-24.7 14.2c-1.8 1.1-4.6 1.2-6.1.3z"/><path class="prefix__st1" d="M343 229.3V129.2l-39.8-10.4-7.3-4.2c-1.7-1-4.6-.8-6.6.3l-6.8 3.9h-21.2l6.3 96.6c0 .7.3 1.3 1.1 1.8l39.7 30c1.7 1 4.6.8 6.6-.3l26.5-15.3c1-.7 1.6-1.5 1.5-2.3z"/><path class="prefix__st0" d="M292.8 114c-1.2 0-2.5.3-3.5.9l-6.8 3.9h-21.2v100.3c0 .7.3 1.3 1.1 1.8l46 26.2c.8.5 1.9.7 3 .7l.5-101-19.1-32.8z"/><path class="prefix__st2" d="M308.8 247.3c1.5.6 3.5.6 5.2-.1V145.6h-5.2v101.7z"/><path class="prefix__st0" d="M308.4 146.8l-46-26.2c-1.7-1-1.5-2.7.5-3.8l26.5-15.3c1.9-1.1 4.9-1.2 6.6-.3l46 26.2c1.7 1 1.5 2.7-.5 3.8L315 146.5c-2 1.2-4.9 1.3-6.6.3z"/><path class="prefix__st3" d="M341.4 129.4l-26.5 15.3c-1.9 1.1-4.9 1.2-6.6.3l-46-26.2c-.4-.2-.7-.5-.8-.7-.6.9-.3 1.9.8 2.6l46 26.2c1.7 1 4.6.8 6.6-.3l26.5-15.3c1.5-.9 2-2.1 1.3-3-.3.4-.7.8-1.3 1.1z"/><path class="prefix__st4" d="M309.7 136.2l-30.6-17.7c-.8-.5-.7-1.2.2-1.8l12.4-7.1c.9-.5 2.3-.6 3.1-.1l30.6 17.7c.8.5.7 1.2-.2 1.8l-12.4 7.1c-1 .5-2.3.6-3.1.1z"/><path class="prefix__st0" d="M293.1 119.3l-1.8-1c-.1-.1-.1-.2 0-.2l1.7-1c.1-.1.3-.1.4 0l1.8 1c.1.1.1.2 0 .2l-1.7 1h-.4zM299.1 122.7l-1.8-1c-.1-.1-.1-.2 0-.2l1.7-1c.1-.1.3-.1.4 0l1.8 1c.1.1.1.2 0 .2l-1.7 1h-.4zM305 126.1l-1.8-1c-.1-.1-.1-.2 0-.2l1.7-1c.1-.1.3-.1.4 0l1.8 1c.1.1.1.2 0 .2l-1.7 1h-.4zM310.9 129.5l-1.8-1c-.1-.1-.1-.2 0-.2l1.7-1c.1-.1.3-.1.4 0l1.8 1c.1.1.1.2 0 .2l-1.7 1h-.4z"/><path class="prefix__st2" d="M279.1 118.5c.1 0 .2-.1.2-.1l12.4-7.1c.9-.5 2.3-.6 3.1-.1l30.6 17.7c.7-.5.8-1.2 0-1.6l-30.6-17.7c-.8-.5-2.2-.4-3.1.1l-12.4 7.1c-.9.4-1 1.2-.2 1.7z"/><g><path class="prefix__st4" d="M320.1 166.6l17.4-10c1-.6 1.8-2.1 1.8-3.4V147c0-1.3-.8-1.9-1.8-1.3l-17.4 10c-1 .6-1.8 2.1-1.8 3.4v6.2c0 1.3.8 1.9 1.8 1.3z"/><path class="prefix__st5" d="M338.4 145.5c.3.3.4.7.4 1.3v6.2c0 1.3-.8 2.8-1.8 3.4l-17.4 10c-.3.2-.6.2-.9.2.3.3.8.4 1.3 0l17.4-10c1-.6 1.8-2.1 1.8-3.4V147c.1-.8-.3-1.4-.8-1.5z"/><path class="prefix__st1" d="M325.3 159.9l1.6-.9c.2-.1.4-.5.4-.7v-1.7c0-.3-.2-.4-.4-.3l-1.6.9c-.2.1-.4.5-.4.7v1.7c0 .3.2.4.4.3z"/><path class="prefix__st5" d="M330.7 156.8l1.6-.9c.2-.1.4-.5.4-.7v-1.7c0-.3-.2-.4-.4-.3l-1.6.9c-.2.1-.4.5-.4.7v1.7c0 .3.2.4.4.3z"/></g><g><path class="prefix__st4" d="M320.1 211.6l17.4-10c1-.6 1.8-2.1 1.8-3.4V192c0-1.3-.8-1.9-1.8-1.3l-17.4 10c-1 .6-1.8 2.1-1.8 3.4v6.2c0 1.3.8 1.9 1.8 1.3z"/><path class="prefix__st5" d="M338.4 190.5c.3.3.4.7.4 1.3v6.2c0 1.3-.8 2.8-1.8 3.4l-17.4 10c-.3.2-.6.2-.9.2.3.3.8.4 1.3 0l17.4-10c1-.6 1.8-2.1 1.8-3.4V192c.1-.8-.3-1.4-.8-1.5z"/><path class="prefix__st1" d="M325.3 204.9l1.6-.9c.2-.1.4-.5.4-.7v-1.7c0-.3-.2-.4-.4-.3l-1.6.9c-.2.1-.4.5-.4.7v1.7c0 .3.2.4.4.3z"/><path class="prefix__st5" d="M330.7 201.8l1.6-.9c.2-.1.4-.5.4-.7v-1.7c0-.3-.2-.4-.4-.3l-1.6.9c-.2.1-.4.5-.4.7v1.7c0 .3.2.4.4.3z"/></g><g><path class="prefix__st4" d="M320.1 234.1l17.4-10c1-.6 1.8-2.1 1.8-3.4v-6.2c0-1.3-.8-1.9-1.8-1.3l-17.4 10c-1 .6-1.8 2.1-1.8 3.4v6.2c0 1.3.8 1.9 1.8 1.3z"/><path class="prefix__st5" d="M338.4 213c.3.3.4.7.4 1.3v6.2c0 1.3-.8 2.8-1.8 3.4l-17.4 10c-.3.2-.6.2-.9.2.3.3.8.4 1.3 0l17.4-10c1-.6 1.8-2.1 1.8-3.4v-6.2c.1-.8-.3-1.4-.8-1.5z"/><path class="prefix__st1" d="M325.3 227.4l1.6-.9c.2-.1.4-.5.4-.7V224c0-.3-.2-.4-.4-.3l-1.6.9c-.2.1-.4.5-.4.7v1.7c0 .3.2.5.4.4z"/><path class="prefix__st5" d="M330.7 224.3l1.6-.9c.2-.1.4-.5.4-.7V221c0-.3-.2-.4-.4-.3l-1.6.9c-.2.1-.4.5-.4.7v1.7c0 .3.2.4.4.3z"/></g><g><path class="prefix__st4" d="M320.1 189.1l17.4-10c1-.6 1.8-2.1 1.8-3.4v-6.2c0-1.3-.8-1.9-1.8-1.3l-17.4 10c-1 .6-1.8 2.1-1.8 3.4v6.2c0 1.3.8 1.9 1.8 1.3z"/><path class="prefix__st5" d="M338.4 168c.3.3.4.7.4 1.3v6.2c0 1.3-.8 2.8-1.8 3.4l-17.4 10c-.3.2-.6.2-.9.2.3.3.8.4 1.3 0l17.4-10c1-.6 1.8-2.1 1.8-3.4v-6.2c.1-.8-.3-1.4-.8-1.5z"/><path class="prefix__st1" d="M325.3 182.4l1.6-.9c.2-.1.4-.5.4-.7V179c0-.3-.2-.4-.4-.3l-1.6.9c-.2.1-.4.5-.4.7v1.7c0 .4.2.5.4.4z"/><path class="prefix__st5" d="M330.7 179.3l1.6-.9c.2-.1.4-.5.4-.7V176c0-.3-.2-.4-.4-.3l-1.6.9c-.2.1-.4.5-.4.7v1.7c0 .3.2.4.4.3z"/></g><g><path class="prefix__st2" d="M305 160.3l-40.2-23.2c-.9-.5-1.6-1.9-1.6-3.1v-7.7c0-1.2.7-1.7 1.6-1.2l40.2 23.2c.9.5 1.6 1.9 1.6 3.1v7.7c.1 1.1-.7 1.7-1.6 1.2z"/><path class="prefix__st6" d="M303.9 157.6L266 135.7c-.5-.3-.8-1-.8-1.6v-5.8c0-.6.4-.9.8-.6l37.8 21.9c.5.3.8 1 .8 1.6v5.8c.1.6-.3.9-.7.6z"/><path class="prefix__st0" d="M273.9 137.4l-5.6-3.3c-.4-.3-.8-.9-.8-1.5s.4-.9.8-.6l5.6 3.3c.4.3.8.9.8 1.5s-.3.8-.8.6z"/><path class="prefix__st4" d="M278.7 139.1c0 .6-.4.8-.9.5-.5-.3-.9-1-.9-1.6 0-.6.4-.8.9-.5s.9 1 .9 1.6zM282 141c0 .6-.4.8-.9.5-.5-.3-.9-1-.9-1.6 0-.6.4-.8.9-.5.5.3.9 1 .9 1.6z"/><path class="prefix__st0" d="M285.3 142.9c0 .6-.4.8-.9.5-.5-.3-.9-1-.9-1.6 0-.6.4-.8.9-.5.4.3.9 1 .9 1.6z"/><path class="prefix__st4" d="M288.5 144.8c0 .6-.4.8-.9.5-.5-.3-.9-1-.9-1.6 0-.6.4-.8.9-.5.5.2.9 1 .9 1.6zM302.3 154.4l-1.9-1.1c-.3-.2-.5-.6-.5-1v-2c0-.4.2-.6.5-.4l1.9 1.1c.3.2.5.6.5 1v2c0 .4-.2.6-.5.4z"/></g><g><path class="prefix__st2" d="M305 173.8l-40.2-23.2c-.9-.5-1.6-1.9-1.6-3.1v-7.7c0-1.2.7-1.7 1.6-1.2l40.2 23.2c.9.5 1.6 1.9 1.6 3.1v7.7c.1 1.1-.7 1.7-1.6 1.2z"/><path class="prefix__st6" d="M303.9 171.1L266 149.2c-.5-.3-.8-1-.8-1.6v-5.8c0-.6.4-.9.8-.6l37.8 21.9c.5.3.8 1 .8 1.6v5.8c.1.6-.3.9-.7.6z"/><path class="prefix__st0" d="M273.9 150.9l-5.6-3.3c-.4-.3-.8-.9-.8-1.5s.4-.9.8-.6l5.6 3.3c.4.3.8.9.8 1.5s-.3.8-.8.6z"/><path class="prefix__st5" d="M278.7 152.6c0 .6-.4.8-.9.5-.5-.3-.9-1-.9-1.6 0-.6.4-.8.9-.5s.9 1 .9 1.6z"/><path class="prefix__st4" d="M282 154.5c0 .6-.4.8-.9.5-.5-.3-.9-1-.9-1.6 0-.6.4-.8.9-.5.5.3.9 1 .9 1.6z"/><path class="prefix__st0" d="M285.3 156.4c0 .6-.4.8-.9.5-.5-.3-.9-1-.9-1.6 0-.6.4-.8.9-.5.4.3.9 1 .9 1.6z"/><path class="prefix__st4" d="M288.5 158.3c0 .6-.4.8-.9.5-.5-.3-.9-1-.9-1.6 0-.6.4-.8.9-.5.5.2.9 1 .9 1.6zM302.3 167.9l-1.9-1.1c-.3-.2-.5-.6-.5-1v-2c0-.4.2-.6.5-.4l1.9 1.1c.3.2.5.6.5 1v2c0 .4-.2.6-.5.4z"/></g><g><path class="prefix__st2" d="M305 187.3l-40.2-23.2c-.9-.5-1.6-1.9-1.6-3.1v-7.7c0-1.2.7-1.7 1.6-1.2l40.2 23.2c.9.5 1.6 1.9 1.6 3.1v7.7c.1 1.2-.7 1.7-1.6 1.2z"/><path class="prefix__st6" d="M303.9 184.6L266 162.7c-.5-.3-.8-1-.8-1.6v-5.8c0-.6.4-.9.8-.6l37.8 21.9c.5.3.8 1 .8 1.6v5.8c.1.6-.3.9-.7.6z"/><path class="prefix__st0" d="M273.9 164.4l-5.6-3.3c-.4-.3-.8-.9-.8-1.5s.4-.9.8-.6l5.6 3.3c.4.3.8.9.8 1.5s-.3.8-.8.6z"/><path class="prefix__st5" d="M278.7 166.1c0 .6-.4.8-.9.5-.5-.3-.9-1-.9-1.6 0-.6.4-.8.9-.5.5.3.9 1 .9 1.6z"/><path class="prefix__st4" d="M282 168c0 .6-.4.8-.9.5s-.9-1-.9-1.6c0-.6.4-.8.9-.5s.9 1 .9 1.6z"/><path class="prefix__st0" d="M285.3 169.9c0 .6-.4.8-.9.5-.5-.3-.9-1-.9-1.6 0-.6.4-.8.9-.5.4.3.9 1 .9 1.6z"/><path class="prefix__st4" d="M288.5 171.8c0 .6-.4.8-.9.5-.5-.3-.9-1-.9-1.6 0-.6.4-.8.9-.5.5.2.9 1 .9 1.6zM302.3 181.4l-1.9-1.1c-.3-.2-.5-.6-.5-1v-2c0-.4.2-.6.5-.4l1.9 1.1c.3.2.5.6.5 1v2c0 .4-.2.6-.5.4z"/></g><g><path class="prefix__st2" d="M305 200.8l-40.2-23.2c-.9-.5-1.6-1.9-1.6-3.1v-7.7c0-1.2.7-1.7 1.6-1.2l40.2 23.2c.9.5 1.6 1.9 1.6 3.1v7.7c.1 1.2-.7 1.7-1.6 1.2z"/><path class="prefix__st6" d="M303.9 198.1L266 176.2c-.5-.3-.8-1-.8-1.6v-5.8c0-.6.4-.9.8-.6l37.8 21.9c.5.3.8 1 .8 1.6v5.8c.1.6-.3.9-.7.6z"/><path class="prefix__st0" d="M273.9 177.9l-5.6-3.3c-.4-.3-.8-.9-.8-1.5s.4-.9.8-.6l5.6 3.3c.4.3.8.9.8 1.5s-.3.8-.8.6z"/><path class="prefix__st4" d="M278.7 179.6c0 .6-.4.8-.9.5-.5-.3-.9-1-.9-1.6 0-.6.4-.8.9-.5.5.3.9 1 .9 1.6zM282 181.5c0 .6-.4.8-.9.5-.5-.3-.9-1-.9-1.6 0-.6.4-.8.9-.5.5.3.9 1 .9 1.6z"/><path class="prefix__st0" d="M285.3 183.4c0 .6-.4.8-.9.5-.5-.3-.9-1-.9-1.6 0-.6.4-.8.9-.5.4.3.9 1 .9 1.6z"/><path class="prefix__st4" d="M288.5 185.3c0 .6-.4.8-.9.5-.5-.3-.9-1-.9-1.6 0-.6.4-.8.9-.5.5.2.9 1 .9 1.6z"/><path class="prefix__st0" d="M302.3 194.9l-1.9-1.1c-.3-.2-.5-.6-.5-1v-2c0-.4.2-.6.5-.4l1.9 1.1c.3.2.5.6.5 1v2c0 .4-.2.6-.5.4z"/></g><g><path class="prefix__st2" d="M305 214.3l-40.2-23.2c-.9-.5-1.6-1.9-1.6-3.1v-7.7c0-1.2.7-1.7 1.6-1.2l40.2 23.2c.9.5 1.6 1.9 1.6 3.1v7.7c.1 1.2-.7 1.7-1.6 1.2z"/><path class="prefix__st6" d="M303.9 211.6L266 189.7c-.5-.3-.8-1-.8-1.6v-5.8c0-.6.4-.9.8-.6l37.8 21.9c.5.3.8 1 .8 1.6v5.8c.1.6-.3.9-.7.6z"/><path class="prefix__st0" d="M273.9 191.4l-5.6-3.3c-.4-.3-.8-.9-.8-1.5s.4-.9.8-.6l5.6 3.3c.4.3.8.9.8 1.5s-.3.8-.8.6z"/><path class="prefix__st4" d="M278.7 193.1c0 .6-.4.8-.9.5-.5-.3-.9-1-.9-1.6 0-.6.4-.8.9-.5s.9 1 .9 1.6z"/><path class="prefix__st5" d="M282 195c0 .6-.4.8-.9.5-.5-.3-.9-1-.9-1.6 0-.6.4-.8.9-.5.5.3.9 1 .9 1.6z"/><path class="prefix__st0" d="M285.3 196.9c0 .6-.4.8-.9.5-.5-.3-.9-1-.9-1.6 0-.6.4-.8.9-.5.4.3.9 1 .9 1.6z"/><path class="prefix__st5" d="M288.5 198.8c0 .6-.4.8-.9.5-.5-.3-.9-1-.9-1.6 0-.6.4-.8.9-.5.5.3.9 1 .9 1.6z"/><path class="prefix__st0" d="M302.3 208.4l-1.9-1.1c-.3-.2-.5-.6-.5-1v-2c0-.4.2-.6.5-.4l1.9 1.1c.3.2.5.6.5 1v2c0 .4-.2.6-.5.4z"/></g><g><path class="prefix__st2" d="M305 227.8l-40.2-23.2c-.9-.5-1.6-1.9-1.6-3.1v-7.7c0-1.2.7-1.7 1.6-1.2l40.2 23.2c.9.5 1.6 1.9 1.6 3.1v7.7c.1 1.2-.7 1.7-1.6 1.2z"/><path class="prefix__st6" d="M303.9 225.1L266 203.3c-.5-.3-.8-1-.8-1.6v-5.8c0-.6.4-.9.8-.6l37.8 21.9c.5.3.8 1 .8 1.6v5.8c.1.5-.3.8-.7.5z"/><path class="prefix__st0" d="M273.9 204.9l-5.6-3.3c-.4-.3-.8-.9-.8-1.5s.4-.9.8-.6l5.6 3.3c.4.3.8.9.8 1.5s-.3.9-.8.6z"/><path class="prefix__st4" d="M278.7 206.6c0 .6-.4.8-.9.5-.5-.3-.9-1-.9-1.6 0-.6.4-.8.9-.5.5.3.9 1 .9 1.6zM282 208.5c0 .6-.4.8-.9.5s-.9-1-.9-1.6c0-.6.4-.8.9-.5.5.3.9 1 .9 1.6z"/><path class="prefix__st0" d="M285.3 210.4c0 .6-.4.8-.9.5-.5-.3-.9-1-.9-1.6 0-.6.4-.8.9-.5.4.3.9 1 .9 1.6z"/><path class="prefix__st4" d="M288.5 212.3c0 .6-.4.8-.9.5-.5-.3-.9-1-.9-1.6 0-.6.4-.8.9-.5.5.3.9 1 .9 1.6zM302.3 221.9l-1.9-1.1c-.3-.2-.5-.6-.5-1v-2c0-.4.2-.6.5-.4l1.9 1.1c.3.2.5.6.5 1v2c0 .4-.2.6-.5.4z"/></g><g><path class="prefix__st2" d="M305 241.3l-40.2-23.2c-.9-.5-1.6-1.9-1.6-3.1v-7.7c0-1.2.7-1.7 1.6-1.2l40.2 23.2c.9.5 1.6 1.9 1.6 3.1v7.7c.1 1.2-.7 1.7-1.6 1.2z"/><path class="prefix__st6" d="M303.9 238.6L266 216.8c-.5-.3-.8-1-.8-1.6v-5.8c0-.6.4-.9.8-.6l37.8 21.9c.5.3.8 1 .8 1.6v5.8c.1.5-.3.8-.7.5z"/><path class="prefix__st0" d="M273.9 218.4l-5.6-3.3c-.4-.3-.8-.9-.8-1.5s.4-.9.8-.6l5.6 3.3c.4.3.8.9.8 1.5s-.3.9-.8.6z"/><path class="prefix__st5" d="M299.9 232.6c0 1.1-.8 1.6-1.7 1-1-.6-1.7-1.9-1.7-3s.8-1.6 1.7-1c.9.5 1.7 1.9 1.7 3z"/><path class="prefix__st4" d="M278.7 220.3c0 .6-.4.8-.9.5-.5-.3-.9-1-.9-1.6 0-.6.4-.8.9-.5.5.3.9 1 .9 1.6z"/><path class="prefix__st0" d="M282 222.2c0 .6-.4.8-.9.5s-.9-1-.9-1.6c0-.6.4-.8.9-.5s.9 1 .9 1.6z"/><path class="prefix__st4" d="M285.3 224c0 .6-.4.8-.9.5-.5-.3-.9-1-.9-1.6 0-.6.4-.8.9-.5.4.3.9 1.1.9 1.6z"/></g><g><path class="prefix__st0" d="M364.9 288.2L322 263.8c-1.6-.9-1.4-2.5.4-3.5l24.7-14.2c1.8-1 4.5-1.2 6.1-.3l42.9 24.4c1.6.9 1.4 2.5-.4 3.5L371 288c-1.8 1-4.5 1.1-6.1.2z"/><path class="prefix__st1" d="M400 262V161.9l-39.8-10.4-7.3-4.2c-1.7-1-4.6-.8-6.6.3l-6.8 3.9h-21.2l6.3 96.6c0 .7.3 1.3 1.1 1.8l39.7 30c1.7 1 4.6.8 6.6-.3l26.5-15.3c1-.7 1.5-1.6 1.5-2.3z"/><path class="prefix__st0" d="M349.8 146.6c-1.2 0-2.5.3-3.5.9l-6.8 3.9h-21.2v100.3c0 .7.3 1.3 1.1 1.8l46 26.2c.8.5 1.9.7 3 .7l.5-101-19.1-32.8z"/><path class="prefix__st2" d="M365.8 280c1.5.6 3.5.6 5.2-.1V178.3h-5.2V280z"/><path class="prefix__st0" d="M365.3 179.5l-46-26.2c-1.7-1-1.5-2.7.5-3.8l26.5-15.3c1.9-1.1 4.9-1.2 6.6-.3l46 26.2c1.7 1 1.5 2.7-.5 3.8l-26.5 15.3c-1.9 1.1-4.9 1.2-6.6.3z"/><path class="prefix__st3" d="M398.4 162.1l-26.5 15.3c-1.9 1.1-4.9 1.2-6.6.3l-46-26.2c-.4-.2-.7-.5-.8-.7-.6.9-.3 1.9.8 2.6l46 26.2c1.7 1 4.6.8 6.6-.3l26.5-15.3c1.5-.9 2-2.1 1.3-3-.3.3-.7.7-1.3 1.1z"/><path class="prefix__st4" d="M366.6 168.8L336 151.1c-.8-.5-.7-1.2.2-1.8l12.4-7.1c.9-.5 2.3-.6 3.1-.1l30.6 17.7c.8.5.7 1.2-.2 1.8l-12.4 7.1c-.9.5-2.3.6-3.1.1z"/><path class="prefix__st0" d="M350.1 151.9l-1.8-1c-.1-.1-.1-.2 0-.2l1.7-1c.1-.1.3-.1.4 0l1.8 1c.1.1.1.2 0 .2l-1.7 1c-.1.1-.3.1-.4 0zM356 155.3l-1.8-1c-.1-.1-.1-.2 0-.2l1.7-1c.1-.1.3-.1.4 0l1.8 1c.1.1.1.2 0 .2l-1.7 1c-.1.1-.3.1-.4 0zM362 158.7l-1.8-1c-.1-.1-.1-.2 0-.2l1.7-1c.1-.1.3-.1.4 0l1.8 1c.1.1.1.2 0 .2l-1.7 1c-.1.1-.3.1-.4 0zM367.9 162.1l-1.8-1c-.1-.1-.1-.2 0-.2l1.7-1c.1-.1.3-.1.4 0l1.8 1c.1.1.1.2 0 .2l-1.7 1c-.1.1-.3.1-.4 0z"/><path class="prefix__st2" d="M336 151.1c.1 0 .2-.1.2-.1l12.4-7.1c.9-.5 2.3-.6 3.1-.1l30.6 17.7c.7-.5.8-1.2 0-1.6l-30.6-17.7c-.8-.5-2.2-.4-3.1.1l-12.4 7.1c-.9.5-1 1.2-.2 1.7z"/><g><path class="prefix__st4" d="M377.1 199.3l17.4-10c1-.6 1.8-2.1 1.8-3.4v-6.2c0-1.3-.8-1.9-1.8-1.3l-17.4 10c-1 .6-1.8 2.1-1.8 3.4v6.2c0 1.3.8 1.9 1.8 1.3z"/><path class="prefix__st5" d="M395.3 178.2c.3.3.4.7.4 1.3v6.2c0 1.3-.8 2.8-1.8 3.4l-17.4 10c-.3.2-.6.2-.9.2.3.3.8.4 1.3 0l17.4-10c1-.6 1.8-2.1 1.8-3.4v-6.2c.1-.9-.2-1.4-.8-1.5z"/><path class="prefix__st1" d="M382.3 192.5l1.6-.9c.2-.1.4-.5.4-.7v-1.7c0-.3-.2-.4-.4-.3l-1.6.9c-.2.1-.4.5-.4.7v1.7c0 .3.2.5.4.3z"/><path class="prefix__st5" d="M387.6 189.5l1.6-.9c.2-.1.4-.5.4-.7v-1.7c0-.3-.2-.4-.4-.3l-1.6.9c-.2.1-.4.5-.4.7v1.7c.1.2.2.4.4.3z"/></g><g><path class="prefix__st4" d="M377.1 244.3l17.4-10c1-.6 1.8-2.1 1.8-3.4v-6.2c0-1.3-.8-1.9-1.8-1.3l-17.4 10c-1 .6-1.8 2.1-1.8 3.4v6.2c0 1.2.8 1.8 1.8 1.3z"/><path class="prefix__st5" d="M395.3 223.2c.3.3.4.7.4 1.3v6.2c0 1.3-.8 2.8-1.8 3.4l-17.4 10c-.3.2-.6.2-.9.2.3.3.8.4 1.3 0l17.4-10c1-.6 1.8-2.1 1.8-3.4v-6.2c.1-.9-.2-1.4-.8-1.5z"/><path class="prefix__st1" d="M382.3 237.5l1.6-.9c.2-.1.4-.5.4-.7v-1.7c0-.3-.2-.4-.4-.3l-1.6.9c-.2.1-.4.5-.4.7v1.7c0 .3.2.4.4.3z"/><path class="prefix__st5" d="M387.6 234.4l1.6-.9c.2-.1.4-.5.4-.7v-1.7c0-.3-.2-.4-.4-.3l-1.6.9c-.2.1-.4.5-.4.7v1.7c.1.3.2.5.4.3z"/></g><g><path class="prefix__st4" d="M377.1 266.8l17.4-10c1-.6 1.8-2.1 1.8-3.4v-6.2c0-1.3-.8-1.9-1.8-1.3l-17.4 10c-1 .6-1.8 2.1-1.8 3.4v6.2c0 1.2.8 1.8 1.8 1.3z"/><path class="prefix__st5" d="M395.3 245.7c.3.3.4.7.4 1.3v6.2c0 1.3-.8 2.8-1.8 3.4l-17.4 10c-.3.2-.6.2-.9.2.3.3.8.4 1.3 0l17.4-10c1-.6 1.8-2.1 1.8-3.4v-6.2c.1-.9-.2-1.5-.8-1.5z"/><path class="prefix__st1" d="M382.3 260l1.6-.9c.2-.1.4-.5.4-.7v-1.7c0-.3-.2-.4-.4-.3l-1.6.9c-.2.1-.4.5-.4.7v1.7c0 .3.2.4.4.3z"/><path class="prefix__st5" d="M387.6 256.9l1.6-.9c.2-.1.4-.5.4-.7v-1.7c0-.3-.2-.4-.4-.3l-1.6.9c-.2.1-.4.5-.4.7v1.7c.1.3.2.4.4.3z"/></g><g><path class="prefix__st4" d="M377.1 221.8l17.4-10c1-.6 1.8-2.1 1.8-3.4v-6.2c0-1.3-.8-1.9-1.8-1.3l-17.4 10c-1 .6-1.8 2.1-1.8 3.4v6.2c0 1.3.8 1.9 1.8 1.3z"/><path class="prefix__st5" d="M395.3 200.7c.3.3.4.7.4 1.3v6.2c0 1.3-.8 2.8-1.8 3.4l-17.4 10c-.3.2-.6.2-.9.2.3.3.8.4 1.3 0l17.4-10c1-.6 1.8-2.1 1.8-3.4v-6.2c.1-.9-.2-1.4-.8-1.5z"/><path class="prefix__st1" d="M382.3 215l1.6-.9c.2-.1.4-.5.4-.7v-1.7c0-.3-.2-.4-.4-.3l-1.6.9c-.2.1-.4.5-.4.7v1.7c0 .3.2.4.4.3z"/><path class="prefix__st5" d="M387.6 211.9l1.6-.9c.2-.1.4-.5.4-.7v-1.7c0-.3-.2-.4-.4-.3l-1.6.9c-.2.1-.4.5-.4.7v1.7c.1.3.2.5.4.3z"/></g><g><path class="prefix__st2" d="M362 192.9l-40.2-23.2c-.9-.5-1.6-1.9-1.6-3.1V159c0-1.2.7-1.7 1.6-1.2L362 181c.9.5 1.6 1.9 1.6 3.1v7.7c0 1.1-.7 1.6-1.6 1.1z"/><path class="prefix__st6" d="M360.8 190.2L323 168.4c-.5-.3-.8-1-.8-1.6V161c0-.6.4-.9.8-.6l37.8 21.9c.5.3.8 1 .8 1.6v5.8c.1.5-.3.8-.8.5z"/><path class="prefix__st0" d="M330.9 170l-5.6-3.3c-.4-.3-.8-.9-.8-1.5s.4-.9.8-.6l5.6 3.3c.4.3.8.9.8 1.5s-.4.9-.8.6z"/><path class="prefix__st4" d="M335.7 171.7c0 .6-.4.8-.9.5-.5-.3-.9-1-.9-1.6 0-.6.4-.8.9-.5.5.3.9 1.1.9 1.6zM339 173.6c0 .6-.4.8-.9.5-.5-.3-.9-1-.9-1.6 0-.6.4-.8.9-.5.4.3.9 1 .9 1.6z"/><path class="prefix__st0" d="M342.2 175.5c0 .6-.4.8-.9.5s-.9-1-.9-1.6c0-.6.4-.8.9-.5s.9 1 .9 1.6z"/><path class="prefix__st4" d="M345.5 177.4c0 .6-.4.8-.9.5-.5-.3-.9-1-.9-1.6 0-.6.4-.8.9-.5.5.3.9 1 .9 1.6zM359.2 187l-1.9-1.1c-.3-.2-.5-.6-.5-1v-2c0-.4.2-.6.5-.4l1.9 1.1c.3.2.5.6.5 1v2c.1.4-.2.6-.5.4z"/></g><g><path class="prefix__st2" d="M362 206.4l-40.2-23.2c-.9-.5-1.6-1.9-1.6-3.1v-7.7c0-1.2.7-1.7 1.6-1.2l40.2 23.2c.9.5 1.6 1.9 1.6 3.1v7.7c0 1.2-.7 1.7-1.6 1.2z"/><path class="prefix__st6" d="M360.8 203.7L323 181.9c-.5-.3-.8-1-.8-1.6v-5.8c0-.6.4-.9.8-.6l37.8 21.9c.5.3.8 1 .8 1.6v5.8c.1.5-.3.8-.8.5z"/><path class="prefix__st0" d="M330.9 183.5l-5.6-3.3c-.4-.3-.8-.9-.8-1.5s.4-.9.8-.6l5.6 3.3c.4.3.8.9.8 1.5s-.4.9-.8.6z"/><path class="prefix__st5" d="M335.7 185.2c0 .6-.4.8-.9.5-.5-.3-.9-1-.9-1.6 0-.6.4-.8.9-.5.5.3.9 1.1.9 1.6z"/><path class="prefix__st4" d="M339 187.1c0 .6-.4.8-.9.5s-.9-1-.9-1.6c0-.6.4-.8.9-.5s.9 1 .9 1.6z"/><path class="prefix__st0" d="M342.2 189c0 .6-.4.8-.9.5-.5-.3-.9-1-.9-1.6 0-.6.4-.8.9-.5.5.3.9 1 .9 1.6z"/><path class="prefix__st4" d="M345.5 190.9c0 .6-.4.8-.9.5-.5-.3-.9-1-.9-1.6 0-.6.4-.8.9-.5.5.3.9 1 .9 1.6zM359.2 200.5l-1.9-1.1c-.3-.2-.5-.6-.5-1v-2c0-.4.2-.6.5-.4l1.9 1.1c.3.2.5.6.5 1v2c.1.4-.2.6-.5.4z"/></g><g><path class="prefix__st2" d="M362 219.9l-40.2-23.2c-.9-.5-1.6-1.9-1.6-3.1V186c0-1.2.7-1.7 1.6-1.2L362 208c.9.5 1.6 1.9 1.6 3.1v7.7c0 1.1-.7 1.6-1.6 1.1z"/><path class="prefix__st6" d="M360.8 217.2L323 195.4c-.5-.3-.8-1-.8-1.6V188c0-.6.4-.9.8-.6l37.8 21.9c.5.3.8 1 .8 1.6v5.8c.1.5-.3.8-.8.5z"/><path class="prefix__st0" d="M330.9 197l-5.6-3.3c-.4-.3-.8-.9-.8-1.5s.4-.9.8-.6l5.6 3.3c.4.3.8.9.8 1.5s-.4.9-.8.6z"/><path class="prefix__st5" d="M335.7 198.7c0 .6-.4.8-.9.5-.5-.3-.9-1-.9-1.6 0-.6.4-.8.9-.5.5.3.9 1.1.9 1.6z"/><path class="prefix__st4" d="M339 200.6c0 .6-.4.8-.9.5-.5-.3-.9-1-.9-1.6 0-.6.4-.8.9-.5.4.3.9 1 .9 1.6z"/><path class="prefix__st0" d="M342.2 202.5c0 .6-.4.8-.9.5-.5-.3-.9-1-.9-1.6 0-.6.4-.8.9-.5.5.3.9 1 .9 1.6z"/><path class="prefix__st4" d="M345.5 204.4c0 .6-.4.8-.9.5-.5-.3-.9-1-.9-1.6 0-.6.4-.8.9-.5.5.3.9 1 .9 1.6zM359.2 214l-1.9-1.1c-.3-.2-.5-.6-.5-1v-2c0-.4.2-.6.5-.4l1.9 1.1c.3.2.5.6.5 1v2c.1.4-.2.6-.5.4z"/></g><g><path class="prefix__st2" d="M362 233.4l-40.2-23.2c-.9-.5-1.6-1.9-1.6-3.1v-7.7c0-1.2.7-1.7 1.6-1.2l40.2 23.2c.9.5 1.6 1.9 1.6 3.1v7.7c0 1.2-.7 1.8-1.6 1.2z"/><path class="prefix__st6" d="M360.8 230.7L323 208.9c-.5-.3-.8-1-.8-1.6v-5.8c0-.6.4-.9.8-.6l37.8 21.9c.5.3.8 1 .8 1.6v5.8c.1.5-.3.8-.8.5z"/><path class="prefix__st0" d="M330.9 210.5l-5.6-3.3c-.4-.3-.8-.9-.8-1.5s.4-.9.8-.6l5.6 3.3c.4.3.8.9.8 1.5s-.4.9-.8.6z"/><path class="prefix__st4" d="M335.7 212.2c0 .6-.4.8-.9.5-.5-.3-.9-1-.9-1.6 0-.6.4-.8.9-.5.5.3.9 1.1.9 1.6zM339 214.1c0 .6-.4.8-.9.5-.5-.3-.9-1-.9-1.6 0-.6.4-.8.9-.5.4.3.9 1 .9 1.6z"/><path class="prefix__st0" d="M342.2 216c0 .6-.4.8-.9.5s-.9-1-.9-1.6c0-.6.4-.8.9-.5.5.3.9 1 .9 1.6z"/><path class="prefix__st4" d="M345.5 217.9c0 .6-.4.8-.9.5-.5-.3-.9-1-.9-1.6 0-.6.4-.8.9-.5.5.3.9 1 .9 1.6z"/><path class="prefix__st0" d="M359.2 227.5l-1.9-1.1c-.3-.2-.5-.6-.5-1v-2c0-.4.2-.6.5-.4l1.9 1.1c.3.2.5.6.5 1v2c.1.4-.2.6-.5.4z"/></g><g><path class="prefix__st2" d="M362 246.9l-40.2-23.2c-.9-.5-1.6-1.9-1.6-3.1V213c0-1.2.7-1.7 1.6-1.2L362 235c.9.5 1.6 1.9 1.6 3.1v7.7c0 1.1-.7 1.7-1.6 1.1z"/><path class="prefix__st6" d="M360.8 244.3L323 222.4c-.5-.3-.8-1-.8-1.6V215c0-.6.4-.9.8-.6l37.8 21.9c.5.3.8 1 .8 1.6v5.8c.1.5-.3.8-.8.6z"/><path class="prefix__st0" d="M330.9 224l-5.6-3.3c-.4-.3-.8-.9-.8-1.5s.4-.9.8-.6l5.6 3.3c.4.3.8.9.8 1.5s-.4.9-.8.6z"/><path class="prefix__st4" d="M335.7 225.8c0 .6-.4.8-.9.5-.5-.3-.9-1-.9-1.6 0-.6.4-.8.9-.5.5.2.9 1 .9 1.6z"/><path class="prefix__st5" d="M339 227.6c0 .6-.4.8-.9.5s-.9-1-.9-1.6c0-.6.4-.8.9-.5s.9 1 .9 1.6z"/><path class="prefix__st0" d="M342.2 229.5c0 .6-.4.8-.9.5-.5-.3-.9-1-.9-1.6 0-.6.4-.8.9-.5.5.3.9 1 .9 1.6z"/><path class="prefix__st5" d="M345.5 231.4c0 .6-.4.8-.9.5-.5-.3-.9-1-.9-1.6 0-.6.4-.8.9-.5.5.3.9 1 .9 1.6z"/><path class="prefix__st0" d="M359.2 241l-1.9-1.1c-.3-.2-.5-.6-.5-1v-2c0-.4.2-.6.5-.4l1.9 1.1c.3.2.5.6.5 1v2c.1.4-.2.6-.5.4z"/></g><g><path class="prefix__st2" d="M362 260.4l-40.2-23.2c-.9-.5-1.6-1.9-1.6-3.1v-7.7c0-1.2.7-1.7 1.6-1.2l40.2 23.2c.9.5 1.6 1.9 1.6 3.1v7.7c0 1.2-.7 1.8-1.6 1.2z"/><path class="prefix__st6" d="M360.8 257.8L323 235.9c-.5-.3-.8-1-.8-1.6v-5.8c0-.6.4-.9.8-.6l37.8 21.9c.5.3.8 1 .8 1.6v5.8c.1.5-.3.8-.8.6z"/><path class="prefix__st0" d="M330.9 237.5l-5.6-3.3c-.4-.3-.8-.9-.8-1.5s.4-.9.8-.6l5.6 3.3c.4.3.8.9.8 1.5s-.4.9-.8.6z"/><path class="prefix__st4" d="M335.7 239.3c0 .6-.4.8-.9.5-.5-.3-.9-1-.9-1.6 0-.6.4-.8.9-.5.5.2.9 1 .9 1.6zM339 241.1c0 .6-.4.8-.9.5-.5-.3-.9-1-.9-1.6 0-.6.4-.8.9-.5.4.3.9 1 .9 1.6z"/><path class="prefix__st0" d="M342.2 243c0 .6-.4.8-.9.5s-.9-1-.9-1.6c0-.6.4-.8.9-.5.5.3.9 1 .9 1.6z"/><path class="prefix__st4" d="M345.5 244.9c0 .6-.4.8-.9.5-.5-.3-.9-1-.9-1.6 0-.6.4-.8.9-.5.5.3.9 1 .9 1.6zM359.2 254.5l-1.9-1.1c-.3-.2-.5-.6-.5-1v-2c0-.4.2-.6.5-.4l1.9 1.1c.3.2.5.6.5 1v2c.1.4-.2.6-.5.4z"/></g><g><path class="prefix__st2" d="M362 273.9l-40.2-23.2c-.9-.5-1.6-1.9-1.6-3.1V240c0-1.2.7-1.7 1.6-1.2L362 262c.9.5 1.6 1.9 1.6 3.1v7.7c0 1.1-.7 1.7-1.6 1.1z"/><path class="prefix__st6" d="M360.8 271.3L323 249.4c-.5-.3-.8-1-.8-1.6V242c0-.6.4-.9.8-.6l37.8 21.9c.5.3.8 1 .8 1.6v5.8c.1.5-.3.8-.8.6z"/><path class="prefix__st0" d="M330.9 251l-5.6-3.3c-.4-.3-.8-.9-.8-1.5s.4-.9.8-.6l5.6 3.3c.4.3.8.9.8 1.5s-.4.9-.8.6z"/><path class="prefix__st5" d="M336.7 253.5c0 1.1-.8 1.6-1.7 1s-1.7-1.9-1.7-3 .8-1.6 1.7-1 1.7 1.9 1.7 3z"/><path class="prefix__st4" d="M343.5 257.4c0 .6-.4.8-.9.5-.5-.3-.9-1-.9-1.6 0-.6.4-.8.9-.5.5.3.9 1.1.9 1.6z"/><path class="prefix__st0" d="M346.8 259.3c0 .6-.4.8-.9.5-.5-.3-.9-1-.9-1.6 0-.6.4-.8.9-.5.4.3.9 1 .9 1.6z"/><path class="prefix__st4" d="M350 261.2c0 .6-.4.8-.9.5-.5-.3-.9-1-.9-1.6s.4-.8.9-.5c.5.3.9 1 .9 1.6z"/><path class="prefix__st0" d="M359.2 268l-1.9-1.1c-.3-.2-.5-.6-.5-1v-2c0-.4.2-.6.5-.4l1.9 1.1c.3.2.5.6.5 1v2c.1.4-.2.6-.5.4z"/></g></g><g><path class="prefix__st2" d="M331.2 233.7v-32.3l-12-8.4c-6.1-4.2-12.2-7.8-18.2-10.5l-12-5.4-4.8 2.8 5.4 3.9V209s-.7 20.6 21.1 44.4c2.8.2 5.2 0 7.3-.5l-.4 1.2 4.3-2.5c.4-.2.7-.4 1.1-.6h.1c8.5-5.6 8.1-17.3 8.1-17.3z"/><path class="prefix__st2" d="M310.1 187.1c-3-1.8-6.1-3.3-9.1-4.7l-12-5.4-4.8 2.8 5.4 3.9V199l20.5-11.9z"/><path class="prefix__st2" d="M305.9 184.8l-10.1 5.8 8.3 4.8 10.1-5.8c-2.7-1.7-5.5-3.3-8.3-4.8z"/><path d="M326.4 236.5v-32.3l-12-8.4c-6.1-4.2-12.2-7.8-18.2-10.5l-12-5.4v32.3s-.7 20.6 21.1 44.4c21.7 1.3 21.1-20.1 21.1-20.1z" fill="#006594"/><path class="prefix__st2" d="M318 249.3c-2.6 2.5-6.3 3.8-11.1 3.8-19.4-21.8-19.2-40.6-19.2-40.8v-26.8l6.9 3.1c5.8 2.7 11.8 6.1 17.6 10.2l10.5 7.3v30.6c.1 0 .2 7.9-4.7 12.6z"/><path class="prefix__st8" d="M307.1 221.1c0 .6.4 1.3.9 1.6.5.3.9.1.9-.5s-.4-1.3-.9-1.6c-.5-.4-.9-.1-.9.5zM304.1 219.3c0 .6.4 1.3.9 1.6.5.3.9.1.9-.5s-.4-1.3-.9-1.6c-.5-.3-.9-.1-.9.5zM301 217.5c0 .6.4 1.3.9 1.6.5.3.9.1.9-.5s-.4-1.3-.9-1.6c-.5-.3-.9-.1-.9.5z"/></g><g style="-webkit-animation:animate-effect1 10s cubic-bezier(.075,.82,.165,1) infinite;animation:animate-effect1 10s cubic-bezier(0.075, 0.82, 0.165, 1) infinite transform-box: fill-box"><path class="prefix__st9" d="M351.2 197.4l-1.9-2.9-.5 1c-1-.4-2.1-.5-3.5-.5-5.7.3-12.4 4.7-14.9 9.7-.7 1.4-1 2.7-1 3.9l-1.1-.4 1.9 2.9c1 1.6 3.1 2.5 5.9 2.3 5.7-.3 12.4-4.7 14.9-9.7 1.2-2.5 1.2-4.7.2-6.3zm-12.1 5.3c-.7 1.3-2.4 2.4-3.8 2.5-1.5.1-2.1-.9-1.4-2.2.7-1.3 2.4-2.4 3.8-2.5 1.4-.1 2.1.8 1.4 2.2z"/><path class="prefix__st10" d="M341.2 207.2l-6 .7h-5.8c0 .3-.1.6 0 .9l-1.1-.4 1.9 2.9c1 1.6 3.1 2.5 5.9 2.3 2.5-.1 5.3-1.1 7.7-2.5l-2.6-3.9z"/><path class="prefix__st10" d="M343.4 192.3c-5.7.3-12.4 4.7-14.9 9.7-2.6 5.1-.1 8.9 5.6 8.6 5.7-.3 12.4-4.7 14.9-9.7 2.6-5.1.1-8.9-5.6-8.6zm-4.8 9.4c-.7 1.3-2.4 2.4-3.8 2.5-1.5.1-2.1-.9-1.4-2.2.7-1.3 2.4-2.4 3.8-2.5 1.4-.1 2 .9 1.4 2.2z"/><path class="prefix__st9" d="M338.8 197.5l-5.7 3.7c-.4.5-.9.9-1.2 1.4l3.2 4.9 7.3-4.7-3.6-5.3zm.3 5.2c-.7 1.3-2.4 2.4-3.8 2.5-1.5.1-2.1-.9-1.4-2.2.7-1.3 2.4-2.4 3.8-2.5 1.4-.1 2.1.8 1.4 2.2z"/><path class="prefix__st11" d="M342.9 193.4c-5 .3-10.9 4.1-13.2 8.6-2.3 4.5-.1 7.9 5 7.6 5-.3 10.9-4.1 13.2-8.6 2.2-4.5 0-7.9-5-7.6zm-4.3 8.3c-.7 1.3-2.4 2.4-3.8 2.5-1.5.1-2.1-.9-1.4-2.2.7-1.3 2.4-2.4 3.8-2.5 1.4-.1 2 .9 1.4 2.2z"/><path class="prefix__st9" d="M330.2 202.7c2.3-4.5 8.2-8.3 13.2-8.6 2.3-.1 4 .5 4.9 1.6-.8-1.6-2.7-2.6-5.4-2.4-5 .3-10.9 4.1-13.2 8.6-1.2 2.4-1.1 4.6 0 6-.6-1.3-.5-3.1.5-5.2z"/><path class="prefix__st11" d="M351.9 200.4c-.2.9-.5 1.9-1 2.9s-1.1 2-1.9 2.9l2.8-.1 3.1-1.8 2.1-.1-.4.8 1.6-.1.8-1.5 2.7-.1-1.2 2.5 2-.1 2-.1 1.1-2.2 3.6-.2-.6 1.2 2.3-.1.6-1.2 1.1-.1.2 2.1 3.5-.2 9.4-6.1-33.8 1.6z"/><path class="prefix__st10" d="M350.5 198.3c-.2.9-.5 1.9-1 2.9s-1.1 2-1.9 2.9l2.8-.1 3.1-1.8 2.1-.1-.4.8 1.6-.1.8-1.5 2.7-.1-1.2 2.5 2-.1 2-.1 1.1-2.2 3.6-.2-.6 1.2 2.3-.1.6-1.2 1.1-.1.2 2.1 3.5-.2 9.4-6.1-33.8 1.6z"/><path transform="rotate(-33.075 380.366 200.616)" class="prefix__st9" d="M374.7 199.4h11.2v2.5h-11.2z"/><path class="prefix__st9" d="M370.8 204.1l-1.3-2.1.6-1.2 1.3 2z"/><path class="prefix__st12" d="M367.1 202.1l1.4 2.1 2.3-.1-1.3-2.1z"/><path class="prefix__st9" d="M364.1 201.1l1.4 2.1-1.1 2.1-1.4-2z"/><path class="prefix__st12" d="M359 203.5l1.4 2.1 4-.3-1.4-2zM371.4 202.8l1.4 2.1 3.5-.2-1.3-2.1zM356.8 202.7l1.3 2.1h-1.5l-1.4-2z"/><path class="prefix__st9" d="M350.4 204l1.3 2 3.2-1.8-1.4-2.1zM377 199.2l-24.8 1.3.6-1.2 26.2-1.4z"/><path class="prefix__st11" d="M353.2 199.8l24.9-1.3.9-.6-26.2 1.4-.6 1.2h.6z"/><path class="prefix__st9" d="M351.7 206l-1.3-2-2.8.1 1.3 2.1zM357.6 201.2l1.3 2-.8 1.6-1.3-2.1z"/><path class="prefix__st10" d="M342.9 193.4c-2.8.2-5.9 1.4-8.5 3.3l.5.8c2.6-1.9 5.7-3.2 8.5-3.3 2.3-.1 4 .5 4.9 1.6-.8-1.6-2.7-2.6-5.4-2.4z"/><g><path class="prefix__st13" d="M359.6 218.9s-1-1.7.6-6.3c1.5-4.5 6.7-4.1 8.4-1.2 1.7 2.9 1.1 4.6-1.3 7.9-2.5 3.1-6.7 1.1-7.7-.4zM371.7 298.3s.3 1.9.3 2.2c0 .3 2.9-.2 2.9-.2l.2-2.3s-3 0-3.4.3z"/><path class="prefix__st14" d="M372 300.2s-.9 1.1-1.8 1.6-2.2.7-2.8 1.2c-.4.4-1.4 2 2.3 1.9 3.6 0 5.4.2 5.8-.4.4-.6-.6-4.5-.6-4.5s-.9.3-2.9.2z"/><path class="prefix__st13" d="M352 298.3s.3 1.9.3 2.2c0 .3 2.9-.2 2.9-.2l.2-2.3s-3 0-3.4.3z"/><path class="prefix__st14" d="M352.3 300.2s-.9 1.1-1.8 1.6-4.1.9-4.6 1.4c-.4.4-1 1.9 4.1 1.7 3.6-.1 5.4.2 5.8-.4.4-.6-.6-4.5-.6-4.5s-1.1.3-2.9.2z"/><path class="prefix__st15" d="M370.7 251.1s1.5 4.5 1.3 8.4c-.2 3.9.8 8.2 1.1 12.3.4 4.5 2.2 15.3 2.3 17.7.1 2.4-.3 10.2-.3 10.2l-3.5.1s-3-18.8-3.7-20.7c-.8-1.9-4.6-15.6-4.7-17.1-.2-1.6 7.5-10.9 7.5-10.9z"/><path class="prefix__st15" d="M356.1 250.6s-2.1 12-2.4 14.4c-.3 2.4-.4 11.6-.6 13.1-.1 1.5-.9 19.5-1.5 21.8h3.9s4-13.1 4-19.3 2.7-13.5 4.4-17.6c1.7-4.1 5.7-4.2 6.7-11.8.1-.1-13.1-3-14.5-.6z"/><path class="prefix__st13" d="M361 220.1s.4 1.3 0 2.2c-.4.9 5.7.4 5.7.4s-.3-1.9.5-3.5-6.2.9-6.2.9z"/><path d="M371 252.1s-2.2 2.3-15.1-.4l.2-1.1 14.7.6.2.9z" fill="#2b3b57"/><path class="prefix__st13" d="M360.1 222.6s-2.3.2-2.9.4c-.6.1-5-.8-5.9-.9-.9-.1-4.7-2.7-4.8-3-.1-.3-2.3-5.9-2.4-7.1-.1-1.2-2.1-.6-2 .2.3 1.5.7 5.3 1 6.4.2 1.2.9 3.8 1.3 4.2.4.3 3.8 2.9 7.1 4 3.4 1.1 5.9 2.7 5.9 2.7h16.5s6.4-9.2 6.6-10.6c.1-1.4-4.5-10.6-5.4-11.7-.9-1.2-2.3.4-2.3.4s2.8 8.1 3.1 9.3c.4 1.2-3.2 6.2-4.2 6.2s-3.5-.3-4.6-.4c-1.1 0-2.3-.5-2.3-.5l-4.7.4z"/><path class="prefix__st8" d="M353 228.8s2 1.3 2.2 3.6c.2 2.3.9 5.9 1.3 7.2.4 1.2-.3 10.3-.4 10.9-.1.6 12.8 2.2 14.8.6 0 0 .6-8.4.8-10.8.2-2.4 1.3-8.2 1.7-9 .4-.8 4.8-7.1 5-7.9 0 0-2.3-3.7-4-3.7 0 0-2.6 3.1-3.5 3.2-.9.1-6.1-.8-6.1-.8s-.6.8-3.6-.1c0 0-3.6.4-4.2.5-.7.1-5.7-.6-5.7-.6s-2 3.4-1.7 5.1l3.4 1.8z"/><path class="prefix__st13" d="M344.1 212.8s-.5-2.1.1-2.8c.3-.3 1.1-1.3 1.1-1.4.1-.1.9-.6.9-.8 0-.2-.8-.5-1.5.1s-1.1.8-1.4.7c-.3-.1-.7-2.3-.7-2.9 0-.6-.3-2-.6-1.9-.4.1-.3.7-.3.7s-.4-1.1-.7-.9c-.3.2-.2.8-.2.8s-.5-.6-.6-.2c-.1.5 0 .9 0 .9s-.5-.3-.6.4c0 .7.2 2.8.5 3.6.4.7 1.8 2.7 1.9 3.5.3.7 2.1.2 2.1.2zM373.2 209s-1.5-2.6-2.1-2.8c-.5-.2-1.3-.4-1.9-.8-.6-.5-1.5-.8-1.5-1 0-.2.8-.1 1.6.3s1.2.2 1.2 0c.1-.2-.4-1.5-.7-1.8-.2-.3-2-2.1-1.7-2.3.3-.3 1.4.7 1.6.9 0 0-.9-1.9-.6-2 .4-.1 1 .6 1 .6s-.1-1.6 1.7 1c0 0-.4-.9.2-.6.5.3 1.1 1.9 1.2 2.8.2.8.9 3.5 1.6 4.1.8.6-1.6 1.6-1.6 1.6z"/><path class="prefix__st17" d="M367.2 219.2s-.8.1-2.5-.5-1.9-3.6-2.2-3.2c-.8.7-1.5.2-1.8-.2 0 0 .8-1.1.5-1.6-.4-.5-1-.9-1-.9s1.2-5.8 6.7-3.2c6.4 3 .3 9.6.3 9.6z"/><path d="M361 222.3l.2-.8s3.5-.1 5.4.2l.2 1s-2.4 1.1-5.8-.4z" fill="#d4d8e8"/><path class="prefix__st13" d="M361.9 214.7c.3-.5 1.5-.9 1.6.6.1 1.2-2.1 2.4-2.1 1.4 0-1.1.3-1.6.5-2z"/><path class="prefix__st8" d="M344.1 212.3s-1.3 0-1.9.6c0 0 0 .4.1.6 0 0 1.1-.5 1.9-.6 0 0 0-.5-.1-.6z"/><circle transform="rotate(-67.109 343.059 212.796)" class="prefix__st17" cx="343.1" cy="212.8" r=".5"/></g></g></svg>