<?xml version="1.0" encoding="UTF-8"?> <svg xmlns="http://www.w3.org/2000/svg" xmlns:xlink="http://www.w3.org/1999/xlink" width="200" height="200" viewBox="0 0 200 200"><defs><clipPath id="clip-path"><rect id="Rectangle_1192" data-name="Rectangle 1192" width="185.85" height="125.123" fill="none"></rect></clipPath><clipPath id="clip-path-5"><rect id="Rectangle_1232" data-name="Rectangle 1232" width="66.348" height="83.971" transform="translate(0 0)" fill="#fff" stroke="#707070" stroke-width="1"></rect></clipPath><clipPath id="clip-path-6"><rect id="Rectangle_1140" data-name="Rectangle 1140" width="67.058" height="122.99" fill="none"></rect></clipPath><clipPath id="clip-path-7"><rect id="Rectangle_1127" data-name="Rectangle 1127" width="0.662" height="1.204" fill="none"></rect></clipPath><clipPath id="clip-path-9"><rect id="Rectangle_1129" data-name="Rectangle 1129" width="1.751" height="1.189" fill="none"></rect></clipPath><clipPath id="clip-path-10"><rect id="Rectangle_1130" data-name="Rectangle 1130" width="1.047" height="1.276" fill="none"></rect></clipPath><clipPath id="clip-path-11"><rect id="Rectangle_1131" data-name="Rectangle 1131" width="4.324" height="1.635" fill="none"></rect></clipPath><clipPath id="clip-path-17"><rect id="Rectangle_1137" data-name="Rectangle 1137" width="5.648" height="2.503" fill="none"></rect></clipPath><clipPath id="clip-path-18"><rect id="Rectangle_1138" data-name="Rectangle 1138" width="5.522" height="31.142" fill="none"></rect></clipPath><clipPath id="clip-path-20"><path id="Path_3238" data-name="Path 3238" d="M421.934,263.248c-15.869,1.561-20.562,16.685-13.157,46.6.606-1.839,1.378-4.346,2.616-5.872-1.437-10.994-2.071-20.458,1.521-24.61,3.086,1.163,16.09,1.163,19.177,0,3.592,4.153,2.945,13.708,1.509,24.7a22.4,22.4,0,0,1,2.555,5.78c7.4-29.918,2.784-45.041-13.085-46.6Z" transform="translate(-405.35 -263.248)" fill="none"></path></clipPath><clipPath id="clip-path-21"><rect id="Rectangle_1166" data-name="Rectangle 1166" width="65.646" height="64.142" fill="none"></rect></clipPath><clipPath id="clip-path-22"><rect id="Rectangle_1190" data-name="Rectangle 1190" width="64.142" height="65.646" fill="none"></rect></clipPath><clipPath id="clip-path-25"><rect id="Rectangle_1231" data-name="Rectangle 1231" width="185.85" height="119.543" fill="none"></rect></clipPath></defs><g id="Group_31164" data-name="Group 31164" transform="translate(1286 486)"><rect id="Rectangle_11268" data-name="Rectangle 11268" width="200" height="200" transform="translate(-1286 -486)" fill="none"></rect><g id="design_2" data-name="design – 2" transform="translate(-1269.297 -405.236)"><path id="Path_3254" data-name="Path 3254" d="M47.723,349.137v12.68H45.606v1.376h2.117v8.486H87.3v-7.722H84.364v-1.682H87.3v-2.523h1.3v-1.147H87.051v-9.469Z" transform="translate(-42.099 -293.08)" fill="#f5f5f5"></path><path id="Path_3255" data-name="Path 3255" d="M157.022,349.173v22.364h10.509v-7.722H164.6v-1.541l2.931.052V359.8l1.328,0-.025-1.3-1.547-.038v-9.327Z" transform="translate(-122.334 -293.08)" fill="#ebebeb"></path><g id="Group_1186" data-name="Group 1186" transform="translate(-9.256 -41.652)"><g id="Group_1185" data-name="Group 1185" clip-path="url(#clip-path)"><path id="Path_3256" data-name="Path 3256" d="M77.388,398.353c0,.077-7.161.14-15.992.14s-15.993-.063-15.993-.14,7.159-.14,15.993-.14,15.992.063,15.992.14" transform="translate(-32.696 -286.77)" fill="#e0e0e0"></path><path id="Path_3257" data-name="Path 3257" d="M77.388,393.746c0,.078-7.161.141-15.992.141s-15.993-.063-15.993-.141,7.159-.14,15.993-.14,15.992.063,15.992.14" transform="translate(-32.696 -283.452)" fill="#e0e0e0"></path><path id="Path_3258" data-name="Path 3258" d="M84.732,381.361c0,.078-7.161.14-15.992.14s-15.993-.063-15.993-.14,7.159-.14,15.993-.14,15.992.063,15.992.14" transform="translate(-37.985 -274.533)" fill="#e0e0e0"></path><path id="Path_3259" data-name="Path 3259" d="M85.438,415.112c0,.078-7.161.14-15.992.14s-15.993-.063-15.993-.14,7.159-.14,15.993-.14,15.992.063,15.992.14" transform="translate(-38.494 -298.839)" fill="#e0e0e0"></path><path id="Path_3260" data-name="Path 3260" d="M330.125,26.735a11.742,11.742,0,0,1,2.863-1.245l.59-2.834,4.788-.084.689,2.811a11.737,11.737,0,0,1,2.905,1.143l2.42-1.586,3.445,3.327-1.5,2.474a11.725,11.725,0,0,1,1.245,2.864l2.834.59.084,4.789-2.812.689a11.733,11.733,0,0,1-1.143,2.905L348.121,45,344.8,48.443l-2.474-1.5a11.713,11.713,0,0,1-2.864,1.244l-.59,2.835-4.788.084-.689-2.812a11.741,11.741,0,0,1-2.905-1.143l-2.42,1.586-3.446-3.327,1.5-2.474a11.726,11.726,0,0,1-1.244-2.864l-2.834-.59-.084-4.788,2.811-.689A11.75,11.75,0,0,1,325.91,31.1l-1.586-2.42,3.326-3.446Zm2.553,6.379a5.138,5.138,0,1,0,7.265-.128,5.138,5.138,0,0,0-7.265.128" transform="translate(-231.854 -16.255)" fill="#ebebeb"></path><path id="Path_3261" data-name="Path 3261" d="M433.865,11.1a6.849,6.849,0,0,1,1.671-.726l.344-1.653,2.794-.049.4,1.64a6.844,6.844,0,0,1,1.7.667l1.412-.925,2.01,1.941-.875,1.443a6.835,6.835,0,0,1,.726,1.671l1.653.344.049,2.794-1.64.4a6.845,6.845,0,0,1-.667,1.695l.925,1.412-1.941,2.01-1.443-.875a6.839,6.839,0,0,1-1.671.726l-.344,1.653-2.794.049-.4-1.64a6.853,6.853,0,0,1-1.695-.667l-1.412.925-2.01-1.941.875-1.443a6.842,6.842,0,0,1-.726-1.671l-1.653-.344-.049-2.794,1.64-.4a6.863,6.863,0,0,1,.667-1.695l-.926-1.412,1.941-2.01Zm1.489,3.722a3,3,0,1,0,4.238-.074,3,3,0,0,0-4.238.074" transform="translate(-309.012 -6.243)" fill="#ebebeb"></path><path id="Path_3262" data-name="Path 3262" d="M579.212,162.27a9.109,9.109,0,0,1,2.224-.966l.458-2.2,3.719-.065.536,2.183a9.109,9.109,0,0,1,2.257.888l1.879-1.232,2.676,2.584-1.165,1.921a9.1,9.1,0,0,1,.966,2.225l2.2.458.065,3.719-2.183.536a9.112,9.112,0,0,1-.888,2.256l1.232,1.88L590.6,179.13l-1.922-1.165a9.1,9.1,0,0,1-2.224.966l-.458,2.2-3.719.065-.536-2.184a9.108,9.108,0,0,1-2.256-.888l-1.88,1.232-2.676-2.584,1.165-1.922a9.1,9.1,0,0,1-.967-2.224l-2.2-.458-.065-3.719,2.183-.536a9.13,9.13,0,0,1,.888-2.256l-1.232-1.88,2.584-2.676Zm1.982,4.954a3.99,3.99,0,1,0,5.642-.1,3.99,3.99,0,0,0-5.642.1" transform="translate(-412.546 -114.53)" fill="#ebebeb"></path></g></g><g id="Group_1188" data-name="Group 1188" transform="translate(-9.256 -41.652)"><g id="Group_1187" data-name="Group 1187" clip-path="url(#clip-path)"><path id="Path_3263" data-name="Path 3263" d="M182.481,430.277c0,.04-40.853.073-91.236.073-50.4,0-91.245-.032-91.245-.073s40.844-.073,91.245-.073c50.383,0,91.236.032,91.236.073" transform="translate(0 -309.808)" fill="#263238"></path></g></g><rect id="Rectangle_1194" data-name="Rectangle 1194" width="100.027" height="78.269" transform="translate(-8.305 -41.652)" fill="#fff"></rect><rect id="Rectangle_1195" data-name="Rectangle 1195" width="100.402" height="6.508" transform="translate(-8.285 -41.652)" fill="#263238"></rect><rect id="Rectangle_1196" data-name="Rectangle 1196" width="5.585" height="71.761" transform="translate(-8.286 -35.144)" fill="#455a64"></rect><rect id="Rectangle_1197" data-name="Rectangle 1197" width="100.401" height="4.313" transform="translate(-8.285 -35.144)" fill="#455a64"></rect><g id="Group_1190" data-name="Group 1190" transform="translate(-9.256 -41.652)"><g id="Group_1189" data-name="Group 1189" clip-path="url(#clip-path)"><path id="Path_3264" data-name="Path 3264" d="M10.426,8.559a.14.14,0,0,1-.1-.238l3.187-3.24a.14.14,0,1,1,.2.2l-3.187,3.24a.139.139,0,0,1-.1.042" transform="translate(-7.406 -3.629)" fill="#fff"></path><path id="Path_3265" data-name="Path 3265" d="M13.573,8.6a.142.142,0,0,1-.1-.04L10.235,5.37a.14.14,0,1,1,.2-.2l3.241,3.187a.14.14,0,0,1,0,.2.139.139,0,0,1-.1.042" transform="translate(-7.34 -3.695)" fill="#fff"></path><path id="Path_3266" data-name="Path 3266" d="M106.971,38.48c0,.04-22.045.073-49.233.073S8.5,38.52,8.5,38.48s22.04-.073,49.238-.073,49.233.032,49.233.073" transform="translate(-6.122 -27.659)" fill="#263238"></path><path id="Path_3267" data-name="Path 3267" d="M23.238,96.8c-.04,0-.073-15.831-.073-35.356s.032-35.359.073-35.359.073,15.828.073,35.359S23.278,96.8,23.238,96.8" transform="translate(-16.682 -18.783)" fill="#263238"></path><path id="Path_3268" data-name="Path 3268" d="M43.737,29.534a10.262,10.262,0,0,1-.073-1.724,10.262,10.262,0,0,1,.073-1.724,10.258,10.258,0,0,1,.073,1.724,10.258,10.258,0,0,1-.073,1.724" transform="translate(-31.444 -18.786)" fill="#263238"></path><path id="Path_3269" data-name="Path 3269" d="M64.222,29.534a10.261,10.261,0,0,1-.073-1.724,10.261,10.261,0,0,1,.073-1.724,10.284,10.284,0,0,1,.072,1.724,10.259,10.259,0,0,1-.073,1.724" transform="translate(-46.196 -18.786)" fill="#263238"></path><path id="Path_3270" data-name="Path 3270" d="M84.707,29.534a10.263,10.263,0,0,1-.073-1.724,10.263,10.263,0,0,1,.073-1.724,10.258,10.258,0,0,1,.073,1.724,10.258,10.258,0,0,1-.073,1.724" transform="translate(-60.949 -18.786)" fill="#263238"></path><path id="Path_3271" data-name="Path 3271" d="M105.195,29.534a10.261,10.261,0,0,1-.073-1.724,10.261,10.261,0,0,1,.073-1.724,10.259,10.259,0,0,1,.073,1.724,10.259,10.259,0,0,1-.073,1.724" transform="translate(-75.703 -18.786)" fill="#263238"></path><path id="Path_3272" data-name="Path 3272" d="M125.677,29.534a10.26,10.26,0,0,1-.073-1.724,10.26,10.26,0,0,1,.073-1.724,10.261,10.261,0,0,1,.073,1.724,10.261,10.261,0,0,1-.073,1.724" transform="translate(-90.453 -18.786)" fill="#263238"></path><path id="Path_3273" data-name="Path 3273" d="M146.161,29.534a10.261,10.261,0,0,1-.073-1.724,10.261,10.261,0,0,1,.073-1.724,10.259,10.259,0,0,1,.073,1.724,10.259,10.259,0,0,1-.073,1.724" transform="translate(-105.204 -18.786)" fill="#263238"></path><path id="Path_3274" data-name="Path 3274" d="M166.646,29.534a10.264,10.264,0,0,1-.073-1.724,10.264,10.264,0,0,1,.073-1.724,10.261,10.261,0,0,1,.073,1.724,10.261,10.261,0,0,1-.073,1.724" transform="translate(-119.956 -18.786)" fill="#263238"></path><path id="Path_3275" data-name="Path 3275" d="M187.131,29.534a10.259,10.259,0,0,1-.073-1.724,10.259,10.259,0,0,1,.073-1.724,10.261,10.261,0,0,1,.073,1.724,10.261,10.261,0,0,1-.073,1.724" transform="translate(-134.708 -18.786)" fill="#263238"></path><path id="Path_3276" data-name="Path 3276" d="M207.616,29.534a10.262,10.262,0,0,1-.073-1.724,10.262,10.262,0,0,1,.073-1.724,10.259,10.259,0,0,1,.073,1.724,10.259,10.259,0,0,1-.073,1.724" transform="translate(-149.461 -18.786)" fill="#263238"></path><path id="Path_3277" data-name="Path 3277" d="M228.1,29.534a10.265,10.265,0,0,1-.073-1.724,10.265,10.265,0,0,1,.073-1.724,10.259,10.259,0,0,1,.073,1.724,10.259,10.259,0,0,1-.073,1.724" transform="translate(-164.212 -18.786)" fill="#263238"></path><path id="Path_3278" data-name="Path 3278" d="M248.585,29.534a10.264,10.264,0,0,1-.073-1.724,10.264,10.264,0,0,1,.073-1.724,10.261,10.261,0,0,1,.073,1.724,10.261,10.261,0,0,1-.073,1.724" transform="translate(-178.964 -18.786)" fill="#263238"></path><path id="Path_3279" data-name="Path 3279" d="M269.07,29.534A10.264,10.264,0,0,1,269,27.81a10.264,10.264,0,0,1,.073-1.724,10.261,10.261,0,0,1,.073,1.724,10.261,10.261,0,0,1-.073,1.724" transform="translate(-193.716 -18.786)" fill="#263238"></path><path id="Path_3280" data-name="Path 3280" d="M289.555,29.534a10.268,10.268,0,0,1-.073-1.724,10.268,10.268,0,0,1,.073-1.724,10.255,10.255,0,0,1,.073,1.724,10.274,10.274,0,0,1-.073,1.724" transform="translate(-208.468 -18.786)" fill="#263238"></path><path id="Path_3281" data-name="Path 3281" d="M310.039,29.534a10.258,10.258,0,0,1-.073-1.724,10.258,10.258,0,0,1,.073-1.724,10.265,10.265,0,0,1,.073,1.724,10.265,10.265,0,0,1-.073,1.724" transform="translate(-223.22 -18.786)" fill="#263238"></path><path id="Path_3282" data-name="Path 3282" d="M330.524,29.534a10.26,10.26,0,0,1-.073-1.724,10.26,10.26,0,0,1,.073-1.724,10.261,10.261,0,0,1,.073,1.724,10.261,10.261,0,0,1-.073,1.724" transform="translate(-237.972 -18.786)" fill="#263238"></path><path id="Path_3283" data-name="Path 3283" d="M351.009,29.534a10.268,10.268,0,0,1-.073-1.724,10.268,10.268,0,0,1,.073-1.724,10.255,10.255,0,0,1,.073,1.724,10.255,10.255,0,0,1-.073,1.724" transform="translate(-252.724 -18.786)" fill="#263238"></path><path id="Path_3284" data-name="Path 3284" d="M12.677,55.916a15.028,15.028,0,0,1-2.089.073A15.029,15.029,0,0,1,8.5,55.916a15.026,15.026,0,0,1,2.089-.073,15.022,15.022,0,0,1,2.089.073" transform="translate(-6.122 -40.215)" fill="#263238"></path><path id="Path_3285" data-name="Path 3285" d="M12.677,74.795a15.025,15.025,0,0,1-2.089.073A15.056,15.056,0,0,1,8.5,74.795a15.055,15.055,0,0,1,2.089-.073,15.023,15.023,0,0,1,2.089.073" transform="translate(-6.122 -53.811)" fill="#263238"></path><path id="Path_3286" data-name="Path 3286" d="M12.677,93.673a15.03,15.03,0,0,1-2.089.073A15.031,15.031,0,0,1,8.5,93.673a15.036,15.036,0,0,1,2.089-.073,15.022,15.022,0,0,1,2.089.073" transform="translate(-6.122 -67.406)" fill="#263238"></path><path id="Path_3287" data-name="Path 3287" d="M12.677,112.548a15.025,15.025,0,0,1-2.089.073,15.027,15.027,0,0,1-2.089-.073,15.028,15.028,0,0,1,2.089-.073,15.023,15.023,0,0,1,2.089.073" transform="translate(-6.122 -80.998)" fill="#263238"></path><path id="Path_3288" data-name="Path 3288" d="M12.677,131.425a15.027,15.027,0,0,1-2.089.073,15.028,15.028,0,0,1-2.089-.073,15.024,15.024,0,0,1,2.089-.073,15.019,15.019,0,0,1,2.089.073" transform="translate(-6.122 -94.592)" fill="#263238"></path><path id="Path_3289" data-name="Path 3289" d="M12.677,150.3a15.034,15.034,0,0,1-2.089.073A15.036,15.036,0,0,1,8.5,150.3a15.025,15.025,0,0,1,2.089-.073,15.021,15.021,0,0,1,2.089.073" transform="translate(-6.122 -108.187)" fill="#263238"></path><path id="Path_3290" data-name="Path 3290" d="M12.677,169.18a15.033,15.033,0,0,1-2.089.073A15.034,15.034,0,0,1,8.5,169.18a15.021,15.021,0,0,1,2.089-.073,15.016,15.016,0,0,1,2.089.073" transform="translate(-6.122 -121.781)" fill="#263238"></path><path id="Path_3291" data-name="Path 3291" d="M12.677,188.057a15.028,15.028,0,0,1-2.089.073,15.081,15.081,0,0,1-2.089-.073,15.082,15.082,0,0,1,2.089-.073,15.024,15.024,0,0,1,2.089.073" transform="translate(-6.122 -135.375)" fill="#263238"></path><path id="Path_3292" data-name="Path 3292" d="M12.677,206.935a15.027,15.027,0,0,1-2.089.073,15.028,15.028,0,0,1-2.089-.073,15.024,15.024,0,0,1,2.089-.073,15.019,15.019,0,0,1,2.089.073" transform="translate(-6.122 -148.97)" fill="#263238"></path><path id="Path_3293" data-name="Path 3293" d="M12.677,225.812a15.03,15.03,0,0,1-2.089.073,15.031,15.031,0,0,1-2.089-.073,15.025,15.025,0,0,1,2.089-.073,15.021,15.021,0,0,1,2.089.073" transform="translate(-6.122 -162.564)" fill="#263238"></path><path id="Path_3294" data-name="Path 3294" d="M12.677,244.689a15.024,15.024,0,0,1-2.089.073,15.026,15.026,0,0,1-2.089-.073,15.034,15.034,0,0,1,2.089-.073,15.029,15.029,0,0,1,2.089.073" transform="translate(-6.122 -176.158)" fill="#263238"></path><path id="Path_3295" data-name="Path 3295" d="M12.677,263.567a15.026,15.026,0,0,1-2.089.073,15.027,15.027,0,0,1-2.089-.073,15.024,15.024,0,0,1,2.089-.073,15.019,15.019,0,0,1,2.089.073" transform="translate(-6.122 -189.753)" fill="#263238"></path><path id="Path_3296" data-name="Path 3296" d="M209.152,63.04c-.006.027-.013.06-.025.123-.019.083-.043.213-.085.379a9.977,9.977,0,0,1-.492,1.413,10.136,10.136,0,0,1-1.219,2.07,10.007,10.007,0,0,1-2.348,2.222l-.03-.079,2.708-.409.075-.011-.02.073a17.061,17.061,0,0,1-1.446,3.958A6.593,6.593,0,0,1,204.78,74.6a4.645,4.645,0,0,1-2.241,1.064l0-.125,2.22.2.067.006-.007.066a42.131,42.131,0,0,1-1.774,8.092,66.562,66.562,0,0,1-3.4,8.462c-.471,1-.965,1.976-1.454,2.935l-.169.331.032-.371c.489-5.643,1.093-10.946.731-15.574v-.011l0-.01a44.7,44.7,0,0,1,2.662-7.795,26.5,26.5,0,0,1,1.64-3.028,20.289,20.289,0,0,1,1.746-2.348,15.04,15.04,0,0,1,3.062-2.721c.2-.135.377-.24.531-.333s.289-.168.4-.225l.326-.169-.325.189c-.207.116-.522.306-.912.571a15.352,15.352,0,0,0-3.027,2.737,20.4,20.4,0,0,0-1.726,2.348,26.651,26.651,0,0,0-1.621,3.024,44.993,44.993,0,0,0-2.633,7.782l0-.021c.372,4.648-.226,9.956-.713,15.6l-.137-.04c.489-.957.981-1.933,1.452-2.931a52.761,52.761,0,0,0,5.174-16.505l.059.072-2.22-.2-.512-.046.508-.079a4.526,4.526,0,0,0,2.183-1.031,6.482,6.482,0,0,0,1.466-1.782,17.045,17.045,0,0,0,1.45-3.928l.055.062-2.71.4-.189.028.159-.106a9.987,9.987,0,0,0,2.343-2.191,10.241,10.241,0,0,0,1.23-2.048,10.682,10.682,0,0,0,.511-1.4l.134-.5" transform="translate(-142.603 -45.398)" fill="#263238"></path><path id="Path_3297" data-name="Path 3297" d="M177.6,94.589a1.38,1.38,0,0,0,.06-.184c.036-.123.076-.311.124-.557.094-.494.2-1.229.317-2.18.231-1.9.48-4.676.726-8.126a45.746,45.746,0,0,0-.562-12.155,30.655,30.655,0,0,0-2.211-6.9,22.363,22.363,0,0,0-1.889-3.358,29.848,29.848,0,0,0-2.438-3.153l.125-.041c-.15,1.354-.3,2.795-.418,4.253-.111,1.4-.231,2.8-.205,4.165a2.636,2.636,0,0,0,.7,1.823,5.5,5.5,0,0,0,1.556,1.22l.5.271-.548-.137-2.674-.67.088-.067q-.03,1.348-.088,2.658c-.043.873-.084,1.733-.191,2.579-.011.106-.032.211-.051.317a.789.789,0,0,0-.013.29,1.514,1.514,0,0,0,.228.549,5.18,5.18,0,0,0,.794.925,14.8,14.8,0,0,0,1.876,1.487l.172.116h-.206l-2.925,0,.06-.06a20.865,20.865,0,0,0,1.565,7.462,35.509,35.509,0,0,0,2.637,5.265c.844,1.4,1.582,2.443,2.094,3.147.256.352.458.618.6.8l.154.2.052.07s-.018-.019-.057-.063l-.164-.2c-.141-.175-.35-.436-.61-.785-.522-.7-1.27-1.739-2.124-3.133a35.094,35.094,0,0,1-2.669-5.265,20.885,20.885,0,0,1-1.6-7.5v-.06h.061l2.925,0-.035.116a14.9,14.9,0,0,1-1.9-1.5,5.309,5.309,0,0,1-.816-.949,1.64,1.64,0,0,1-.248-.6.942.942,0,0,1,.014-.336c.018-.1.037-.2.049-.309.1-.835.145-1.7.186-2.567s.067-1.757.085-2.654l0-.088.086.021,2.675.667-.049.133a5.629,5.629,0,0,1-1.6-1.255,3.249,3.249,0,0,1-.55-.882,2.715,2.715,0,0,1-.146-.508c-.014-.174-.041-.349-.039-.522-.019-.693.012-1.386.053-2.083s.093-1.4.153-2.1c.123-1.461.269-2.9.419-4.258l.018-.161.107.12a29.869,29.869,0,0,1,2.45,3.172,22.462,22.462,0,0,1,1.9,3.381,30.7,30.7,0,0,1,2.211,6.933,45.527,45.527,0,0,1,.533,12.187c-.259,3.451-.524,6.223-.77,8.126-.122.952-.24,1.686-.343,2.179-.053.246-.1.433-.137.556a.6.6,0,0,1-.074.18" transform="translate(-122.689 -41.591)" fill="#263238"></path><path id="Path_3298" data-name="Path 3298" d="M210.639,119.51a.533.533,0,0,1-.01-.161c0-.107.01-.266.025-.475.034-.417.1-1.03.205-1.82.207-1.58.556-3.865,1.026-6.7a35.545,35.545,0,0,1,2.861-9.719,28.965,28.965,0,0,1,1.441-2.585L217,96.755c.279-.434.526-.885.815-1.335a12.2,12.2,0,0,1,2.168-2.385,20.117,20.117,0,0,1,2.691-1.966l.128-.078-.019.15c-.147,1.14-.315,2.347-.506,3.567-.188,1.155-.363,2.3-.659,3.409a4.179,4.179,0,0,1-.138.413l-.1.2c-.037.064-.081.123-.121.184a2.753,2.753,0,0,1-.621.6,4.708,4.708,0,0,1-1.54.7l-.017-.141,2.3-.013h.088l-.019.086c-.314,1.46-.632,2.888-.81,4.279-.011.087-.016.173-.021.259a.8.8,0,0,1-.056.278,1.375,1.375,0,0,1-.322.441,4.435,4.435,0,0,1-.85.609,12.4,12.4,0,0,1-1.833.839l-.006-.121,2.367.58.059.015-.015.058a16.831,16.831,0,0,1-2.806,5.728,28.345,28.345,0,0,1-3.252,3.679c-.982.941-1.806,1.618-2.375,2.067-.284.225-.507.39-.659.5l-.174.123c-.041.027-.06.037-.06.037l.057-.046.166-.129c.148-.114.367-.284.647-.513.561-.458,1.376-1.143,2.349-2.089a28.73,28.73,0,0,0,3.222-3.687,16.8,16.8,0,0,0,2.768-5.7l.045.072-2.369-.574-.2-.048.194-.073a12.316,12.316,0,0,0,1.81-.833,4.3,4.3,0,0,0,.823-.591,1.249,1.249,0,0,0,.291-.4.648.648,0,0,0,.046-.234c.006-.089.01-.179.021-.267.179-1.408.493-2.831.807-4.3l.069.086-2.3.015-.566,0,.55-.144a4.578,4.578,0,0,0,1.488-.674,2.609,2.609,0,0,0,.588-.569,2.12,2.12,0,0,0,.336-.75c.29-1.093.467-2.24.654-3.391.191-1.217.359-2.424.507-3.562l.108.072a20.05,20.05,0,0,0-2.67,1.949,12.1,12.1,0,0,0-2.146,2.355c-.281.435-.536.9-.814,1.331l-.817,1.293a28.93,28.93,0,0,0-1.439,2.571,35.734,35.734,0,0,0-2.881,9.678c-.482,2.832-.846,5.114-1.07,6.691-.112.788-.188,1.4-.231,1.815s-.043.634-.043.634" transform="translate(-151.676 -65.526)" fill="#263238"></path><path id="Path_3299" data-name="Path 3299" d="M149.324,149.732c-.005-.081-.015-.224-.035-.53q-.032-.262-.078-.639c-.046-.251-.086-.542-.162-.865a32.372,32.372,0,0,0-1.749-5.354q-.338-.83-.746-1.723a18.331,18.331,0,0,0-.925-1.812,17.369,17.369,0,0,0-1.235-1.8c-.455-.6-.931-1.213-1.444-1.823a20.4,20.4,0,0,0-3.6-3.456,11.622,11.622,0,0,0-4.888-2.15l.074-.108a7.567,7.567,0,0,0,4.428,3.43l.308.088-.315.053-2.046.345.048-.11a11.484,11.484,0,0,0,2.208,2.7,3.927,3.927,0,0,0,3.017.957l.539-.088-.5.214-1.554.662.033-.085a33.959,33.959,0,0,0,3.176,5.175c1.058,1.473,2.033,2.722,2.845,3.743s1.469,1.81,1.919,2.347l.513.613c.118.139.169.208.173.214s-.069-.066-.188-.2l-.528-.6c-.459-.529-1.123-1.312-1.947-2.325s-1.805-2.258-2.872-3.729a33.708,33.708,0,0,1-3.207-5.183l-.028-.058.061-.026,1.552-.666.036.125a4.057,4.057,0,0,1-3.126-.979,11.584,11.584,0,0,1-2.24-2.734l-.06-.092.108-.018,2.046-.346-.007.141a7.7,7.7,0,0,1-4.514-3.5l-.079-.133.153.025a11.734,11.734,0,0,1,4.946,2.18,20.441,20.441,0,0,1,3.618,3.486c.513.613.99,1.229,1.443,1.832a17.445,17.445,0,0,1,1.237,1.815,18.256,18.256,0,0,1,.923,1.826q.4.9.739,1.73a31.246,31.246,0,0,1,1.711,5.38c.072.325.109.618.15.87s.049.469.065.643c0,.307.006.45.007.531" transform="translate(-96.74 -93.194)" fill="#263238"></path><path id="Path_3300" data-name="Path 3300" d="M174.065,213.535v2.959h1.382l1.569,9.951h8.764l1.462-9.951h1.326v-2.959Z" transform="translate(-125.352 -153.776)" fill="#c642f8"></path><path id="Path_3301" data-name="Path 3301" d="M173.974,213.371a.366.366,0,0,1,.064,0l.2,0,.777-.008,2.956-.017,10.509-.032h.065v.065c0,.937,0,1.933,0,2.958v.069h-1.4l.069-.06-1.047,7.146-.412,2.8-.009.062h-.062l-8.764-.007h-.057l-.008-.055c-.634-4.088-1.166-7.522-1.544-9.955l.039.034-1.382-.007h-.034v-.033c.008-.962.015-1.7.019-2.211,0-.243.006-.429.008-.562s.006-.185.006-.185,0,.069.006.2,0,.323.008.569c0,.5.011,1.238.019,2.192l-.033-.033,1.382-.007h.034l.006.034,1.594,9.948-.064-.055,8.764-.007-.072.062q.2-1.38.412-2.8c.368-2.5.724-4.911,1.053-7.146l.009-.06h1.387l-.069.069c0-1.025,0-2.021,0-2.958l.065.065-10.467-.033-2.97-.017-.79-.008-.2,0a.587.587,0,0,1-.072,0" transform="translate(-125.261 -153.612)" fill="#263238"></path><path id="Path_3302" data-name="Path 3302" d="M127.179,259.478c0,.04-19.078.073-42.606.073s-42.61-.032-42.61-.073,19.074-.073,42.61-.073,42.606.032,42.606.073" transform="translate(-30.22 -186.809)" fill="#263238"></path><path id="Path_3303" data-name="Path 3303" d="M214.357,123.678a.247.247,0,0,1-.017.067c-.017.051-.037.114-.063.191l-.255.728c-.223.632-.56,1.541-.981,2.664-.841,2.245-2.051,5.326-3.294,8.763-.619,1.72-1.173,3.371-1.649,4.881s-.861,2.884-1.156,4.044c-.158.578-.273,1.107-.386,1.569s-.2.863-.269,1.19-.125.569-.165.754l-.047.2a.238.238,0,0,1-.021.065.242.242,0,0,1,.006-.068l.032-.2.139-.76c.06-.33.138-.733.245-1.2s.213-1,.365-1.576c.283-1.165.664-2.542,1.127-4.058s1.021-3.169,1.64-4.891c1.244-3.44,2.47-6.516,3.335-8.751l1.025-2.646.281-.719.076-.186a.247.247,0,0,1,.031-.062" transform="translate(-148.391 -89.066)" fill="#263238"></path><path id="Path_3304" data-name="Path 3304" d="M189.808,116.38c.04,0,.594,6.067,1.236,13.557s1.131,13.568,1.091,13.571-.593-6.066-1.236-13.559-1.131-13.566-1.091-13.57" transform="translate(-136.688 -83.81)" fill="#263238"></path><path id="Path_3305" data-name="Path 3305" d="M179.316,185.271a2.9,2.9,0,0,1-.147-.448c-.084-.291-.21-.712-.37-1.229-.32-1.035-.8-2.454-1.425-3.985s-1.276-2.88-1.771-3.844c-.247-.482-.452-.87-.6-1.137a2.891,2.891,0,0,1-.208-.423,2.914,2.914,0,0,1,.258.4c.158.259.378.64.637,1.117a39.082,39.082,0,0,1,3.2,7.847c.148.523.259.948.326,1.244a2.918,2.918,0,0,1,.093.463" transform="translate(-125.881 -125.452)" fill="#263238"></path><path id="Path_3306" data-name="Path 3306" d="M188.3,223.695c0,.04-3.258.073-7.277.073s-7.277-.032-7.277-.073,3.258-.073,7.277-.073,7.277.032,7.277.073" transform="translate(-125.119 -161.039)" fill="#263238"></path><path id="Path_3307" data-name="Path 3307" d="M232.254,212.085l2.913,6.6,1.013-2.905,2.491-.914Z" transform="translate(-167.256 -152.731)" fill="#263238"></path><rect id="Rectangle_1198" data-name="Rectangle 1198" width="3.657" height="3.657" transform="translate(70.556 64.386)" fill="#fff"></rect><path id="Path_3308" data-name="Path 3308" d="M255.546,233.537a2.31,2.31,0,0,1-.015-.276q-.006-.289-.017-.75c-.008-.657-.019-1.558-.032-2.631l.063.063-3.656.01.072-.072v.5q0,.247,0,.489c0,.322,0,.638,0,.945,0,.613-.005,1.192-.007,1.725l-.063-.063,2.631.032.75.016a2.389,2.389,0,0,1,.276.015,1.558,1.558,0,0,1-.25.014l-.736.017-2.671.032h-.063v-.064c0-.533,0-1.112-.007-1.725,0-.307,0-.623,0-.945q0-.242,0-.489v-.5l.073-.074,3.657.01h.063v.063c-.013,1.089-.024,2-.032,2.671q-.01.453-.017.736a1.562,1.562,0,0,1-.014.25" transform="translate(-181.334 -165.494)" fill="#263238"></path><path id="Path_3309" data-name="Path 3309" d="M258.459,234.265a15.254,15.254,0,0,1,0-2.976,15.247,15.247,0,0,1,0,2.976" transform="translate(-186.075 -166.562)" fill="#263238"></path><path id="Path_3310" data-name="Path 3310" d="M256.31,236.413a15.251,15.251,0,0,1-2.976,0,15.251,15.251,0,0,1,2.976,0" transform="translate(-182.438 -170.198)" fill="#263238"></path><rect id="Rectangle_1199" data-name="Rectangle 1199" width="4.018" height="67.448" transform="translate(97.354 10.821)" fill="#455a64"></rect><path id="Path_3311" data-name="Path 3311" d="M349.881,80.831h0a2.009,2.009,0,0,1-2.009-2.009v-9.8a2.009,2.009,0,1,1,4.018,0v9.8a2.009,2.009,0,0,1-2.009,2.009" transform="translate(-250.518 -48.261)" fill="#263238"></path><path id="Path_3312" data-name="Path 3312" d="M69.76,82.5a.615.615,0,0,1,0-.069c0-.05,0-.114,0-.2,0-.179,0-.434-.007-.763,0-.671-.01-1.645-.017-2.881-.008-2.477-.019-6-.032-10.235l.063.063-14.145.01c-.018.015.137-.137.071-.07V70.28q0,.955,0,1.891c0,1.248,0,2.469,0,3.657,0,2.375-.005,4.617-.007,6.673l-.063-.063,10.236.032,2.881.016.763.007.2,0a.619.619,0,0,1,.069,0,.366.366,0,0,1-.062,0l-.191,0-.751.007-2.867.016-10.276.032H55.55V82.5c0-2.056,0-4.3-.007-6.673,0-1.188,0-2.409,0-3.657q0-.936,0-1.891V68.357c-.065.064.088-.092.074-.076l14.145.01h.063v.063C69.81,72.6,69.8,76.143,69.79,78.63c-.007,1.23-.013,2.2-.016,2.867,0,.324-.006.575-.007.751,0,.08,0,.143,0,.191a.372.372,0,0,1,0,.062" transform="translate(-39.983 -49.171)" fill="#263238"></path><path id="Path_3313" data-name="Path 3313" d="M61.463,74.164a.231.231,0,0,1,.047,0l.146,0,.578-.007,2.21-.017,7.932-.032h.063v.063c0,3.174.006,6.918.01,10.912.016-.015-.139.139-.074.074H69.432l-2.821,0-5.148-.007H61.4v-.063c.013-3.277.024-6.009.032-7.932.007-.946.013-1.692.017-2.21q.005-.371.007-.578c0-.06,0-.108,0-.146a.234.234,0,0,1,0-.047.391.391,0,0,1,0,.054c0,.04,0,.09,0,.153q0,.212.007.59c0,.521.01,1.272.017,2.225.008,1.913.019,4.632.032,7.892l-.063-.063,5.148-.007,2.821,0h2.943c.066-.065-.086.089-.071.072,0-3.995.007-7.739.01-10.912l.063.063L64.485,74.2l-2.225-.016-.59-.007-.153,0a.388.388,0,0,1-.054,0" transform="translate(-44.217 -53.364)" fill="#263238"></path><path id="Path_3314" data-name="Path 3314" d="M55.78,68.516a9.2,9.2,0,0,1,1.651,1.618,9.168,9.168,0,0,1-1.651-1.618" transform="translate(-40.168 -49.34)" fill="#263238"></path><path id="Path_3315" data-name="Path 3315" d="M102.343,68.711a8.489,8.489,0,0,1-1.5,1.634,8.489,8.489,0,0,1,1.5-1.634" transform="translate(-72.618 -49.481)" fill="#263238"></path><path id="Path_3316" data-name="Path 3316" d="M102.461,115.086a71.623,71.623,0,0,1-1.362-1.6,4.052,4.052,0,0,1,1.362,1.6" transform="translate(-72.805 -81.728)" fill="#263238"></path><path id="Path_3317" data-name="Path 3317" d="M57.2,113.256a4.411,4.411,0,0,1-.732.857,4.363,4.363,0,0,1-.837.754,8.727,8.727,0,0,1,1.569-1.611" transform="translate(-40.063 -81.559)" fill="#263238"></path><path id="Path_3318" data-name="Path 3318" d="M69.977,81.943a.591.591,0,0,1,.109-.007l.332-.007,1.276-.017,4.6-.032h.063v.064c0,1.839.006,4.006.01,6.317.016-.015-.139.139-.074.074h-1.7l-1.633,0-2.98-.007h-.064v-.063c.013-1.894.024-3.476.032-4.6.007-.54.012-.969.016-1.276,0-.137.006-.247.007-.332a.59.59,0,0,1,.007-.109.918.918,0,0,1,.007.123c0,.089,0,.2.007.344,0,.311.01.745.017,1.291.008,1.114.019,2.682.032,4.56l-.063-.063,2.98-.007,1.633,0h1.7c.066-.065-.087.089-.072.072,0-2.311.007-4.478.01-6.317l.063.063-4.56-.032-1.29-.016-.344-.007a.858.858,0,0,1-.123-.007" transform="translate(-50.347 -58.965)" fill="#263238"></path><path id="Path_3319" data-name="Path 3319" d="M104.635,279.695c0,.04-22.41.073-50.049.073s-50.054-.032-50.054-.073,22.406-.073,50.054-.073,50.049.032,50.049.073" transform="translate(-3.263 -201.367)" fill="#263238"></path></g></g><rect id="Rectangle_1201" data-name="Rectangle 1201" width="36.756" height="21.588" transform="translate(70.651 -4.485)" fill="#455a64"></rect><g id="Group_1192" data-name="Group 1192" transform="translate(-9.256 -41.652)"><g id="Group_1191" data-name="Group 1191" clip-path="url(#clip-path)"><path id="Path_3320" data-name="Path 3320" d="M322.1,154.21s0-.134-.006-.39,0-.637-.006-1.131c0-.994-.008-2.452-.014-4.323-.007-3.74-.017-9.13-.03-15.743l.057.056-36.753.017h0l.073-.073c0,7.643,0,14.943-.005,21.588l-.068-.068,26.44.033,7.59.018,2.023.008.523,0c.118,0,.18,0,.18,0s-.057,0-.172,0l-.516,0-2.009.008-7.574.018-26.485.033h-.068v-.068c0-6.646,0-13.945-.005-21.589v-.073h.076l36.753.017h.057v.057c-.013,6.628-.023,12.03-.03,15.779-.006,1.866-.011,3.319-.014,4.31,0,.49,0,.865-.006,1.121s-.006.379-.006.379" transform="translate(-205.439 -95.455)" fill="#263238"></path><path id="Path_3321" data-name="Path 3321" d="M302.042,159.579h-3.591v-3.591h3.591Zm-3.311-.28h3.031v-3.031h-3.031Z" transform="translate(-214.927 -112.334)" fill="#263238"></path><rect id="Rectangle_1202" data-name="Rectangle 1202" width="24.437" height="4.691" transform="translate(92.225 37.166)" fill="#263238"></rect><path id="Path_3322" data-name="Path 3322" d="M301.885,140.743c0,.04-1.965.073-4.389.073s-4.39-.032-4.39-.073,1.965-.073,4.39-.073,4.389.032,4.389.073" transform="translate(-211.077 -101.302)" fill="#263238"></path><rect id="Rectangle_1203" data-name="Rectangle 1203" width="3.311" height="3.311" transform="translate(82.162 42.293)" fill="#c642f8"></rect><rect id="Rectangle_1204" data-name="Rectangle 1204" width="15.07" height="1.278" transform="translate(90.75 45.786)" fill="#c642f8"></rect><path id="Path_3323" data-name="Path 3323" d="M323.978,168.612l-.487.717a.135.135,0,0,0,.112.21h.96a.135.135,0,0,0,.113-.209l-.474-.717a.135.135,0,0,0-.224,0" transform="translate(-232.943 -121.382)" fill="#fff"></path><rect id="Rectangle_1205" data-name="Rectangle 1205" width="15.07" height="1.278" transform="translate(90.75 49.594)" fill="#ebebeb"></rect><path id="Path_3324" data-name="Path 3324" d="M372.935,182.22l-.487.717a.135.135,0,0,0,.112.21h.961a.135.135,0,0,0,.112-.209l-.474-.717a.135.135,0,0,0-.224,0" transform="translate(-268.199 -131.182)" fill="#fff"></path><rect id="Rectangle_1206" data-name="Rectangle 1206" width="15.07" height="1.278" transform="translate(90.75 53.708)" fill="#263238"></rect><path id="Path_3325" data-name="Path 3325" d="M336.8,196.923l-.488.717a.135.135,0,0,0,.112.21h.96a.135.135,0,0,0,.113-.209l-.474-.717a.134.134,0,0,0-.224,0" transform="translate(-242.174 -141.771)" fill="#fff"></path><rect id="Rectangle_1207" data-name="Rectangle 1207" width="5.854" height="1.721" transform="translate(107.75 45.564)" fill="#263238"></rect><rect id="Rectangle_1208" data-name="Rectangle 1208" width="5.854" height="1.721" transform="translate(107.75 49.372)" fill="#263238"></rect><rect id="Rectangle_1209" data-name="Rectangle 1209" width="5.854" height="1.721" transform="translate(107.75 53.487)" fill="#263238"></rect></g></g><g id="Mask_Group_1" data-name="Mask Group 1" transform="translate(109.512 -7.117)" clip-path="url(#clip-path-5)"><g id="Group_1183" data-name="Group 1183" transform="translate(-0.691 -9.983)"><path id="Path_3179" data-name="Path 3179" d="M487.944,339.839,473.51,359.476l2.569,23.238h11.865Z" transform="translate(-456.235 -327.441)" fill="#FFD100"></path><path id="Path_3180" data-name="Path 3180" d="M872.509,339.839l14.434,19.637-2.569,23.238H872.509Z" transform="translate(-840.678 -327.441)" fill="#FFD100"></path><g id="Group_1170" data-name="Group 1170"><g id="Group_1169" data-name="Group 1169" clip-path="url(#clip-path-6)"><path id="Path_3182" data-name="Path 3182" d="M642.608,2756.609l1.307-12.617-5.826-.891.575,13.508a1.383,1.383,0,0,1-.24.779l-.649.952H643.5l-.649-.952a1.384,1.384,0,0,1-.24-.78" transform="translate(-614.507 -2643.026)" fill="#fbd3a8"></path><path id="Path_3183" data-name="Path 3183" d="M608.615,3130.952v1.367c.3.793,7.732.823,7.851,0v-1.264a2.484,2.484,0,0,0-.121-.774,4.036,4.036,0,0,0-7.656.066,2.47,2.47,0,0,0-.073.605" transform="translate(-586.411 -3013.454)" fill="#6A2186"></path><path id="Path_3184" data-name="Path 3184" d="M627.571,3177.759c.877-1.962,5.626-1.967,6.431-.013a.225.225,0,0,1-.144.3,14.268,14.268,0,0,1-6.162.016.224.224,0,0,1-.126-.3" transform="translate(-604.656 -3060.406)" fill="#ffd9a4"></path><path id="Path_3185" data-name="Path 3185" d="M741.412,3211.267l.238-.769a.114.114,0,0,1,.216,0l.191.726Z" transform="translate(-714.364 -3093.299)" fill="#6A2186"></path><path id="Path_3186" data-name="Path 3186" d="M610.392,3155.355a1.173,1.173,0,0,0,0,1.5,3.043,3.043,0,0,1-1.77-.5l-.005-1.367a3.215,3.215,0,0,1,1.342-2.488.926.926,0,0,0,.656,1.235,1.934,1.934,0,0,0-1.349,1.152c-.007.361.5.445,1.127.466" transform="translate(-586.412 -3037.492)" fill="#6A2186"></path><g id="Group_1132" data-name="Group 1132" transform="translate(22.92 116.575)" opacity="0.35"><g id="Group_1131" data-name="Group 1131"><g id="Group_1130" data-name="Group 1130" clip-path="url(#clip-path-7)"><path id="Path_3187" data-name="Path 3187" d="M628.909,3195.4c-.3.4-.305,1.043-.1,1.2-.289-.039-.52-.109-.565-.278a1.621,1.621,0,0,1,.662-.926" transform="translate(-628.247 -3195.4)" fill="#f8a364"></path></g></g></g><g id="Group_1135" data-name="Group 1135" transform="translate(28.746 116.53)" opacity="0.35"><g id="Group_1134" data-name="Group 1134"><g id="Group_1133" data-name="Group 1133" clip-path="url(#clip-path-7)"><path id="Path_3188" data-name="Path 3188" d="M787.946,3194.18c.3.4.305,1.043.1,1.2.289-.039.52-.109.565-.277a1.622,1.622,0,0,0-.662-.926" transform="translate(-787.946 -3194.18)" fill="#f8a364"></path></g></g></g><g id="Group_1138" data-name="Group 1138" transform="translate(27.364 114.872)" opacity="0.2"><g id="Group_1137" data-name="Group 1137"><g id="Group_1136" data-name="Group 1136" clip-path="url(#clip-path-9)"><path id="Path_3189" data-name="Path 3189" d="M751.107,3149.059c.476.3.791.651.7.79s-.543.01-1.018-.288-.791-.652-.7-.79.543-.01,1.018.288" transform="translate(-750.074 -3148.715)" fill="#fff"></path></g></g></g><g id="Group_1141" data-name="Group 1141" transform="translate(28.759 117.484)" opacity="0.2"><g id="Group_1140" data-name="Group 1140"><g id="Group_1139" data-name="Group 1139" clip-path="url(#clip-path-10)"><path id="Path_3190" data-name="Path 3190" d="M789.257,3220.331a.016.016,0,0,1,.032,0l.057,1a.147.147,0,0,1-.134.146l-.894.113a.017.017,0,0,1-.008-.033l.725-.234a.148.148,0,0,0,.1-.114Z" transform="translate(-788.299 -3220.317)" fill="#fff"></path></g></g></g><g id="Group_1144" data-name="Group 1144" transform="translate(24.059 111.27)" opacity="0.35"><g id="Group_1143" data-name="Group 1143"><g id="Group_1142" data-name="Group 1142" clip-path="url(#clip-path-11)"><path id="Path_3191" data-name="Path 3191" d="M663.606,3051.327a6.2,6.2,0,0,1-4.091-.081l-.053-1.249,4.324.058Z" transform="translate(-659.462 -3049.996)" fill="#f8a364"></path></g></g></g><path id="Path_3192" data-name="Path 3192" d="M927.393,2756.607l-1.307-12.618,5.826-.891-.575,13.509a1.383,1.383,0,0,0,.24.779l.649.952H926.5l.649-.952a1.384,1.384,0,0,0,.24-.779" transform="translate(-892.3 -2643.025)" fill="#fbd3a8"></path><path id="Path_3193" data-name="Path 3193" d="M916.212,3130.952v1.367c-.3.793-7.732.823-7.851,0v-1.264a2.485,2.485,0,0,1,.121-.774,4.036,4.036,0,0,1,7.656.066,2.476,2.476,0,0,1,.073.605" transform="translate(-875.222 -3013.454)" fill="#6A2186"></path><path id="Path_3194" data-name="Path 3194" d="M933.758,3177.759c-.877-1.962-5.626-1.967-6.431-.013a.225.225,0,0,0,.144.3,14.269,14.269,0,0,0,6.162.016.225.225,0,0,0,.126-.3" transform="translate(-893.479 -3060.406)" fill="#ffd9a4"></path><path id="Path_3195" data-name="Path 3195" d="M973.74,3211.267l-.237-.769a.114.114,0,0,0-.216,0l-.191.726Z" transform="translate(-937.594 -3093.299)" fill="#6A2186"></path><path id="Path_3196" data-name="Path 3196" d="M1069.013,3155.355a1.172,1.172,0,0,1,0,1.5,3.044,3.044,0,0,0,1.771-.5l.005-1.367a3.214,3.214,0,0,0-1.342-2.488.926.926,0,0,1-.656,1.235,1.933,1.933,0,0,1,1.349,1.152c.007.361-.5.445-1.127.466" transform="translate(-1029.799 -3037.492)" fill="#6A2186"></path><g id="Group_1147" data-name="Group 1147" transform="translate(39.612 116.575)" opacity="0.35"><g id="Group_1146" data-name="Group 1146"><g id="Group_1145" data-name="Group 1145" clip-path="url(#clip-path-7)"><path id="Path_3197" data-name="Path 3197" d="M1085.78,3195.4c.3.4.305,1.043.1,1.2.289-.039.52-.109.566-.278a1.622,1.622,0,0,0-.662-.926" transform="translate(-1085.78 -3195.4)" fill="#f8a364"></path></g></g></g><g id="Group_1150" data-name="Group 1150" transform="translate(33.786 116.53)" opacity="0.35"><g id="Group_1149" data-name="Group 1149"><g id="Group_1148" data-name="Group 1148" clip-path="url(#clip-path-7)"><path id="Path_3198" data-name="Path 3198" d="M926.744,3194.18c-.3.4-.305,1.043-.1,1.2-.289-.039-.52-.109-.565-.277a1.622,1.622,0,0,1,.662-.926" transform="translate(-926.082 -3194.18)" fill="#f8a364"></path></g></g></g><g id="Group_1153" data-name="Group 1153" transform="translate(34.078 114.872)" opacity="0.2"><g id="Group_1152" data-name="Group 1152"><g id="Group_1151" data-name="Group 1151" clip-path="url(#clip-path-9)"><path id="Path_3199" data-name="Path 3199" d="M934.828,3149.059c-.475.3-.791.651-.7.79s.543.01,1.018-.288.79-.652.7-.79-.543-.01-1.018.288" transform="translate(-934.11 -3148.715)" fill="#fff"></path></g></g></g><g id="Group_1156" data-name="Group 1156" transform="translate(33.387 117.484)" opacity="0.2"><g id="Group_1155" data-name="Group 1155"><g id="Group_1154" data-name="Group 1154" clip-path="url(#clip-path-10)"><path id="Path_3200" data-name="Path 3200" d="M915.259,3220.337a.016.016,0,0,0-.032,0l-.057,1a.147.147,0,0,0,.134.146l.894.113a.017.017,0,0,0,.019-.013.017.017,0,0,0-.012-.02l-.725-.234a.147.147,0,0,1-.1-.113Z" transform="translate(-915.17 -3220.323)" fill="#fff"></path></g></g></g><g id="Group_1159" data-name="Group 1159" transform="translate(34.811 111.27)" opacity="0.35"><g id="Group_1158" data-name="Group 1158"><g id="Group_1157" data-name="Group 1157" clip-path="url(#clip-path-11)"><path id="Path_3201" data-name="Path 3201" d="M954.38,3051.327a6.2,6.2,0,0,0,4.091-.081l.053-1.249-4.323.058Z" transform="translate(-954.2 -3049.996)" fill="#f8a364"></path></g></g></g><path id="Path_3202" data-name="Path 3202" d="M564.493,2238.376c-4.118,2.99-21.883,2.99-24.382,0l1.152-29.284,22.159-.159Z" transform="translate(-520.407 -2128.346)" fill="#fff"></path><path id="Path_3203" data-name="Path 3203" d="M978.914,726.3l8.583-6.715,3.542.711a27.817,27.817,0,0,1-1.012,9.6c-3.015,6.153-5.755,6.989-5.755,6.989l-5.358-.013Z" transform="translate(-943.201 -693.335)" fill="#2d2d2d"></path><path id="Path_3204" data-name="Path 3204" d="M456.2,726.3l-8.583-6.715-3.542.711a27.817,27.817,0,0,0,1.012,9.6c3.015,6.153,5.755,6.989,5.755,6.989l5.358-.013Z" transform="translate(-427.772 -693.335)" fill="#2d2d2d"></path><path id="Path_3205" data-name="Path 3205" d="M782.107,1251.6c0,.952-1.642,1.725-3.668,1.725s-3.668-.772-3.668-1.725,1.642-1.725,3.668-1.725,3.668.772,3.668,1.725" transform="translate(-746.506 -1204.279)" fill="#aeb5b5"></path><path id="Path_3206" data-name="Path 3206" d="M785.549,1234.27h-5.666a12.573,12.573,0,0,1-.61,4.654.887.887,0,0,0,.245.969c1.238,1.106,4.935,1.5,6.44-.12a.886.886,0,0,0,.181-.905,12.711,12.711,0,0,1-.59-4.6" transform="translate(-750.791 -1189.241)" fill="#fbd3a8"></path><g id="Group_1162" data-name="Group 1162" transform="translate(29.096 44.776)" opacity="0.35"><g id="Group_1161" data-name="Group 1161"><g id="Group_1160" data-name="Group 1160" clip-path="url(#clip-path-17)"><path id="Path_3207" data-name="Path 3207" d="M797.7,1227.34l5.4.036.09,1.557c-.848,1.249-5.016,1.2-5.648-.058Z" transform="translate(-797.545 -1227.34)" fill="#f8a364"></path></g></g></g><path id="Path_3208" data-name="Path 3208" d="M564.856,1284.768v61.613H553.434l.827-40.394-.013-19.417a.34.34,0,0,1,.12-.24c1.366-1.207,3.721-1.728,6.437-1.981a.382.382,0,0,0,.309-.215l.478-.995a.107.107,0,0,1,.193,0c.769,1.623,3.071,1.626,3.071,1.626" transform="translate(-533.244 -1236.27)" fill="#6A2186"></path><path id="Path_3209" data-name="Path 3209" d="M443.112,880.868c-2.441,0-4-3.25-3.24-5.347a1.952,1.952,0,0,1,1.041-1.151,2.275,2.275,0,0,1,2.2.436Z" transform="translate(-423.639 -842.335)" fill="#fbd3a8"></path><path id="Path_3210" data-name="Path 3210" d="M471.8,914.513c-3.31-1.177-2.752,3.714-.031,3.834" transform="translate(-452.388 -880.973)" fill="#fbbd89"></path><path id="Path_3211" data-name="Path 3211" d="M471.621,913.348a3.643,3.643,0,0,0-.9-.2,1.915,1.915,0,0,0-.456.016,1.251,1.251,0,0,0-.425.148,1.006,1.006,0,0,0-.326.31,1.286,1.286,0,0,0-.178.424,2.142,2.142,0,0,0-.054.465,3.738,3.738,0,0,0,.028.471,2.713,2.713,0,0,1-.023-.947,1.355,1.355,0,0,1,.163-.454,1.1,1.1,0,0,1,.337-.355,1.366,1.366,0,0,1,.455-.186,2.066,2.066,0,0,1,.487-.043,3.815,3.815,0,0,1,.954.16Z" transform="translate(-452.137 -879.686)" fill="#603813"></path><path id="Path_3212" data-name="Path 3212" d="M1214.51,880.868c2.441,0,4-3.25,3.24-5.347a1.952,1.952,0,0,0-1.041-1.151,2.275,2.275,0,0,0-2.2.436Z" transform="translate(-1170.202 -842.335)" fill="#fbd3a8"></path><path id="Path_3213" data-name="Path 3213" d="M1216.24,914.513c3.31-1.177,2.752,3.714.031,3.834" transform="translate(-1171.869 -880.973)" fill="#fbbd89"></path><path id="Path_3214" data-name="Path 3214" d="M1212.52,913.156a3.814,3.814,0,0,1,.954-.16,2.06,2.06,0,0,1,.487.043,1.366,1.366,0,0,1,.455.186,1.092,1.092,0,0,1,.337.355,1.351,1.351,0,0,1,.163.454,2.715,2.715,0,0,1-.023.947,3.733,3.733,0,0,0,.028-.471,2.13,2.13,0,0,0-.054-.465,1.288,1.288,0,0,0-.178-.424,1.008,1.008,0,0,0-.326-.31,1.253,1.253,0,0,0-.425-.148,1.925,1.925,0,0,0-.456-.016,3.643,3.643,0,0,0-.9.2Z" transform="translate(-1168.284 -879.687)" fill="#603813"></path><path id="Path_3215" data-name="Path 3215" d="M526.119,559.157H501.235c-3.376,15.381-.951,25.5,12.271,25.813h.341c13.222-.317,15.648-10.432,12.271-25.812" transform="translate(-481.629 -538.758)" fill="#fbd3a8"></path><path id="Path_3216" data-name="Path 3216" d="M711.068,861.139c0,.977-.5,1.768-1.108,1.768s-1.108-.792-1.108-1.768.5-1.768,1.108-1.768,1.108.792,1.108,1.768" transform="translate(-682.992 -828.019)" fill="#2d2d2d"></path><path id="Path_3217" data-name="Path 3217" d="M729.825,869.435a.552.552,0,1,1-.539-.668.614.614,0,0,1,.539.668" transform="translate(-702.16 -837.073)" fill="#fff"></path><path id="Path_3219" data-name="Path 3219" d="M983.578,861.139c0,.977-.5,1.768-1.108,1.768s-1.108-.792-1.108-1.768.5-1.768,1.108-1.768,1.108.792,1.108,1.768" transform="translate(-945.56 -828.019)" fill="#2d2d2d"></path><path id="Path_3220" data-name="Path 3220" d="M1002.332,869.435a.552.552,0,1,1-.539-.668.614.614,0,0,1,.539.668" transform="translate(-964.725 -837.073)" fill="#fff"></path><path id="Path_3222" data-name="Path 3222" d="M843.744,1011.759a.331.331,0,0,0,.158-.017c.962-.282,1.1.8.327.894a1.381,1.381,0,0,1-1.365-.5.292.292,0,0,1,.188-.464,2.431,2.431,0,0,1,.692.089" transform="translate(-812.059 -974.757)" fill="#f8a364"></path><path id="Path_3223" data-name="Path 3223" d="M977.21,774.265c-1.064.02-1.468-1-.726-1.624a1.5,1.5,0,0,1,1.135-.275c1.105.119,1.79.51,1.912,1.266a.828.828,0,0,1-.237.745c-.389.356-.994.22-1.653-.041a1.11,1.11,0,0,0-.43-.072" transform="translate(-940.494 -744.176)" fill="#2d2d2d"></path><path id="Path_3224" data-name="Path 3224" d="M688.473,774.265c1.065.02,1.468-1,.726-1.624a1.5,1.5,0,0,0-1.135-.275c-1.105.119-1.79.51-1.912,1.266a.827.827,0,0,0,.238.745c.389.356.994.22,1.653-.041a1.109,1.109,0,0,1,.43-.072" transform="translate(-661.108 -744.176)" fill="#2d2d2d"></path><path id="Path_3225" data-name="Path 3225" d="M503.225,723.473c-2.036,2.334-2.532,6.676-2.284,11.334-1.34-4.1-.821-11.334-.821-11.334Z" transform="translate(-481.779 -697.079)" fill="#2d2d2d"></path><path id="Path_3226" data-name="Path 3226" d="M1170.28,723.473c2.036,2.334,2.532,6.676,2.284,11.334,1.341-4.1.821-11.334.821-11.334Z" transform="translate(-1127.586 -697.079)" fill="#2d2d2d"></path><g id="Group_1165" data-name="Group 1165" transform="translate(27.568 46.81)" opacity="0.5"><g id="Group_1164" data-name="Group 1164"><g id="Group_1163" data-name="Group 1163" clip-path="url(#clip-path-18)"><path id="Path_3227" data-name="Path 3227" d="M755.648,1284.373c.143,1.385,1.678,2.415,3.559,2.555v27.318h1.963l-.262-27.082-1.209-.324v-2.049a3.375,3.375,0,0,1-3.078-1.639.108.108,0,0,0-.186.011l-.532,1.078a.389.389,0,0,1-.255.131" transform="translate(-755.648 -1283.104)" fill="#aeb5b5"></path></g></g></g><path id="Path_3228" data-name="Path 3228" d="M848.785,1384.09l-1.524.443v27.015" transform="translate(-816.351 -1333.595)" fill="none" stroke="#aeb5b5" stroke-miterlimit="10" stroke-width="15"></path><path id="Path_3229" data-name="Path 3229" d="M851.125,1284.761v2.048l-1.209.324v59.241h12.518l-.715-40.394.013-19.417a.339.339,0,0,0-.12-.24c-1.366-1.207-3.721-1.728-6.437-1.981a.382.382,0,0,1-.309-.215l-.478-.995a.107.107,0,0,0-.193,0c-.769,1.623-3.071,1.626-3.071,1.626" transform="translate(-818.909 -1236.263)" fill="#6A2186"></path><g id="Group_1168" data-name="Group 1168" transform="translate(30.745 46.81)" opacity="0.5"><g id="Group_1167" data-name="Group 1167"><g id="Group_1166" data-name="Group 1166" clip-path="url(#clip-path-18)"><path id="Path_3230" data-name="Path 3230" d="M848.26,1284.373c-.143,1.385-1.678,2.415-3.559,2.555v27.318h-1.962l.262-27.082,1.209-.324v-2.049a3.376,3.376,0,0,0,3.078-1.639.107.107,0,0,1,.186.011l.532,1.078a.388.388,0,0,0,.255.131" transform="translate(-842.738 -1283.104)" fill="#aeb5b5"></path></g></g></g><path id="Path_3231" data-name="Path 3231" d="M859.267,1430.836a.446.446,0,1,1-.446-.446.446.446,0,0,1,.446.446" transform="translate(-827.061 -1378.206)" fill="#aeb5b5"></path><path id="Path_3232" data-name="Path 3232" d="M859.267,1580.736a.446.446,0,1,1-.446-.446.446.446,0,0,1,.446.446" transform="translate(-827.061 -1522.638)" fill="#aeb5b5"></path><path id="Path_3233" data-name="Path 3233" d="M859.267,1738.856a.446.446,0,1,1-.446-.446.446.446,0,0,1,.446.446" transform="translate(-827.061 -1674.989)" fill="#aeb5b5"></path><path id="Path_3234" data-name="Path 3234" d="M859.267,1888.757a.446.446,0,1,1-.446-.446.446.446,0,0,1,.446.446" transform="translate(-827.061 -1819.422)" fill="#aeb5b5"></path><path id="Path_3235" data-name="Path 3235" d="M859.267,2038.656a.446.446,0,1,1-.446-.446.446.446,0,0,1,.446.446" transform="translate(-827.061 -1963.852)" fill="#aeb5b5"></path><path id="Path_3236" data-name="Path 3236" d="M734.295,1053.548v-1.134c-2.517-.116-4.061.223-4.848,1.046a2.592,2.592,0,0,0-.7,1.794v1.318h1.215c-.455-1.067-.586-1.966,0-2.564a1.449,1.449,0,0,1,1.021-.424Z" transform="translate(-702.158 -1013.999)" fill="#2d2d2d"></path><path id="Path_3237" data-name="Path 3237" d="M876.366,1053.548v-1.134c2.517-.116,4.061.223,4.848,1.046a2.592,2.592,0,0,1,.7,1.794v1.318H880.7c.455-1.067.586-1.966,0-2.564a1.449,1.449,0,0,0-1.021-.424Z" transform="translate(-844.394 -1013.999)" fill="#2d2d2d"></path></g></g><g id="Group_1178" data-name="Group 1178" transform="translate(14.788 9.604)"><g id="Group_1177" data-name="Group 1177" transform="translate(0)" clip-path="url(#clip-path-20)"><rect id="Rectangle_1141" data-name="Rectangle 1141" width="67.058" height="64.142" transform="translate(-14.788 -8.852)" fill="#fff"></rect><g id="Group_1173" data-name="Group 1173" transform="translate(-14.082 -8.852)" opacity="0.6"><g id="Group_1172" data-name="Group 1172"><g id="Group_1171" data-name="Group 1171" clip-path="url(#clip-path-21)"><rect id="Rectangle_1142" data-name="Rectangle 1142" width="1.177" height="64.142" transform="translate(9.918)" fill="#6A2186"></rect><rect id="Rectangle_1143" data-name="Rectangle 1143" width="1.177" height="64.142" transform="translate(7.439)" fill="#6A2186"></rect><rect id="Rectangle_1144" data-name="Rectangle 1144" width="1.177" height="64.142" transform="translate(4.959)" fill="#6A2186"></rect><rect id="Rectangle_1145" data-name="Rectangle 1145" width="1.177" height="64.142" transform="translate(2.48)" fill="#6A2186"></rect><rect id="Rectangle_1146" data-name="Rectangle 1146" width="1.177" height="64.142" fill="#6A2186"></rect><rect id="Rectangle_1147" data-name="Rectangle 1147" width="1.177" height="64.142" transform="translate(12.398)" fill="#6A2186"></rect><rect id="Rectangle_1148" data-name="Rectangle 1148" width="1.177" height="64.142" transform="translate(14.878)" fill="#6A2186"></rect><rect id="Rectangle_1149" data-name="Rectangle 1149" width="1.177" height="64.142" transform="translate(17.357)" fill="#6A2186"></rect><rect id="Rectangle_1150" data-name="Rectangle 1150" width="1.177" height="64.142" transform="translate(19.837)" fill="#6A2186"></rect><rect id="Rectangle_1151" data-name="Rectangle 1151" width="1.177" height="64.142" transform="translate(22.316)" fill="#6A2186"></rect><rect id="Rectangle_1152" data-name="Rectangle 1152" width="1.177" height="64.142" transform="translate(34.714)" fill="#6A2186"></rect><rect id="Rectangle_1153" data-name="Rectangle 1153" width="1.177" height="64.142" transform="translate(32.235)" fill="#6A2186"></rect><rect id="Rectangle_1154" data-name="Rectangle 1154" width="1.177" height="64.142" transform="translate(29.755)" fill="#6A2186"></rect><rect id="Rectangle_1155" data-name="Rectangle 1155" width="1.177" height="64.142" transform="translate(27.275)" fill="#6A2186"></rect><rect id="Rectangle_1156" data-name="Rectangle 1156" width="1.177" height="64.142" transform="translate(24.796)" fill="#6A2186"></rect><rect id="Rectangle_1157" data-name="Rectangle 1157" width="1.177" height="64.142" transform="translate(37.194)" fill="#6A2186"></rect><rect id="Rectangle_1158" data-name="Rectangle 1158" width="1.177" height="64.142" transform="translate(39.673)" fill="#6A2186"></rect><rect id="Rectangle_1159" data-name="Rectangle 1159" width="1.177" height="64.142" transform="translate(42.153)" fill="#6A2186"></rect><rect id="Rectangle_1160" data-name="Rectangle 1160" width="1.177" height="64.142" transform="translate(44.633)" fill="#6A2186"></rect><rect id="Rectangle_1161" data-name="Rectangle 1161" width="1.177" height="64.142" transform="translate(47.112)" fill="#6A2186"></rect><rect id="Rectangle_1162" data-name="Rectangle 1162" width="1.177" height="64.142" transform="translate(49.592)" fill="#6A2186"></rect><rect id="Rectangle_1163" data-name="Rectangle 1163" width="1.177" height="64.142" transform="translate(52.071)" fill="#6A2186"></rect><rect id="Rectangle_1164" data-name="Rectangle 1164" width="1.177" height="64.142" transform="translate(54.551)" fill="#6A2186"></rect><rect id="Rectangle_1165" data-name="Rectangle 1165" width="1.177" height="64.142" transform="translate(57.031)" fill="#6A2186"></rect></g></g></g><g id="Group_1176" data-name="Group 1176" transform="translate(-13.33 -9.604)" opacity="0.8"><g id="Group_1175" data-name="Group 1175"><g id="Group_1174" data-name="Group 1174" clip-path="url(#clip-path-22)"><rect id="Rectangle_1167" data-name="Rectangle 1167" width="64.142" height="1.177" transform="translate(0 54.551)" fill="#6A2186"></rect><rect id="Rectangle_1168" data-name="Rectangle 1168" width="64.142" height="1.177" transform="translate(0 57.031)" fill="#6A2186"></rect><rect id="Rectangle_1169" data-name="Rectangle 1169" width="64.142" height="1.177" transform="translate(0 59.51)" fill="#6A2186"></rect><rect id="Rectangle_1170" data-name="Rectangle 1170" width="64.142" height="1.177" transform="translate(0 61.99)" fill="#6A2186"></rect><rect id="Rectangle_1171" data-name="Rectangle 1171" width="64.142" height="1.177" transform="translate(0 64.469)" fill="#6A2186"></rect><rect id="Rectangle_1172" data-name="Rectangle 1172" width="64.142" height="1.177" transform="translate(0 52.072)" fill="#6A2186"></rect><rect id="Rectangle_1173" data-name="Rectangle 1173" width="64.142" height="1.177" transform="translate(0 49.592)" fill="#6A2186"></rect><rect id="Rectangle_1174" data-name="Rectangle 1174" width="64.142" height="1.177" transform="translate(0 47.112)" fill="#6A2186"></rect><rect id="Rectangle_1175" data-name="Rectangle 1175" width="64.142" height="1.177" transform="translate(0 44.633)" fill="#6A2186"></rect><rect id="Rectangle_1176" data-name="Rectangle 1176" width="64.142" height="1.177" transform="translate(0 42.153)" fill="#6A2186"></rect><rect id="Rectangle_1177" data-name="Rectangle 1177" width="64.142" height="1.177" transform="translate(0 29.755)" fill="#6A2186"></rect><rect id="Rectangle_1178" data-name="Rectangle 1178" width="64.142" height="1.177" transform="translate(0 32.235)" fill="#6A2186"></rect><rect id="Rectangle_1179" data-name="Rectangle 1179" width="64.142" height="1.177" transform="translate(0 34.714)" fill="#6A2186"></rect><rect id="Rectangle_1180" data-name="Rectangle 1180" width="64.142" height="1.177" transform="translate(0 37.194)" fill="#6A2186"></rect><rect id="Rectangle_1181" data-name="Rectangle 1181" width="64.142" height="1.177" transform="translate(0 39.674)" fill="#6A2186"></rect><rect id="Rectangle_1182" data-name="Rectangle 1182" width="64.142" height="1.177" transform="translate(0 27.276)" fill="#6A2186"></rect><rect id="Rectangle_1183" data-name="Rectangle 1183" width="64.142" height="1.177" transform="translate(0 24.796)" fill="#6A2186"></rect><rect id="Rectangle_1184" data-name="Rectangle 1184" width="64.142" height="1.177" transform="translate(0 22.316)" fill="#6A2186"></rect><rect id="Rectangle_1185" data-name="Rectangle 1185" width="64.142" height="1.177" transform="translate(0 19.837)" fill="#6A2186"></rect><rect id="Rectangle_1186" data-name="Rectangle 1186" width="64.142" height="1.177" transform="translate(0 17.357)" fill="#6A2186"></rect><rect id="Rectangle_1187" data-name="Rectangle 1187" width="64.142" height="1.177" transform="translate(0 14.878)" fill="#6A2186"></rect><rect id="Rectangle_1188" data-name="Rectangle 1188" width="64.142" height="1.177" transform="translate(0 12.398)" fill="#6A2186"></rect><rect id="Rectangle_1189" data-name="Rectangle 1189" width="64.142" height="1.177" transform="translate(0 9.918)" fill="#6A2186"></rect></g></g></g></g></g><g id="Group_1180" data-name="Group 1180"><g id="Group_1179" data-name="Group 1179" clip-path="url(#clip-path-6)"><path id="Path_3239" data-name="Path 3239" d="M452.852,540.973H421.146a.774.774,0,0,1-.774-.773v-.324a2.165,2.165,0,0,1,2.165-2.165h28.924a2.165,2.165,0,0,1,2.165,2.165v.324a.774.774,0,0,1-.773.773" transform="translate(-405.036 -518.094)" fill="#2d2d2d"></path><path id="Path_3240" data-name="Path 3240" d="M796.523,1092.79a22.6,22.6,0,0,1-6.3,0,2.8,2.8,0,0,0,3.123,3.1h.057a2.8,2.8,0,0,0,3.123-3.1" transform="translate(-761.382 -1052.923)" fill="#be1717"></path><path id="Path_3241" data-name="Path 3241" d="M796.52,1092.79a22.6,22.6,0,0,1-6.3,0,2.762,2.762,0,0,0,0,.39,11.672,11.672,0,0,0,6.312,0,2.753,2.753,0,0,0,0-.39" transform="translate(-761.379 -1052.923)" fill="#fff"></path><path id="Path_3242" data-name="Path 3242" d="M818.419,1138.4a3.54,3.54,0,0,0-2.273-.737h-.052a3.54,3.54,0,0,0-2.273.737,3.224,3.224,0,0,0,2.27.729h.057a3.224,3.224,0,0,0,2.271-.729" transform="translate(-784.13 -1096.155)" fill="#ff2929"></path><path id="Path_3243" data-name="Path 3243" d="M791.45,1094.015h-.068l-.144,0h-.032l-.135-.006h-.023l-.116-.008-.028,0-.123-.013-.032,0-.1-.014-.022,0-.112-.019-.037-.007-.1-.021-.021,0-.011,0-.077-.019h0l-.038-.01-.09-.025-.037-.011-.007,0-.055-.018-.062-.021-.06-.021-.051-.02-.036-.015-.09-.039-.025-.011-.057-.027h0c-.036-.018-.076-.039-.115-.06l-.008,0a2.947,2.947,0,0,1-1.341-2.768.075.075,0,0,1,.083-.068h.012a22.522,22.522,0,0,0,6.261,0h.012a.073.073,0,0,1,.056.016.074.074,0,0,1,.027.051,2.948,2.948,0,0,1-1.341,2.769l-.007,0c-.041.022-.079.043-.118.062l-.057.027-.024.011-.09.039-.036.015-.051.02-.058.021-.062.021-.055.018-.009,0-.035.011-.09.025-.04.01-.078.019-.012,0-.021,0-.1.021-.037.007-.112.019-.022,0-.1.014-.032,0-.123.013-.028,0-.116.008h-.023l-.135.006h-.032l-.133,0m-.04-.148h.03l.14,0h.031l.132-.006h.022l.112-.008.027,0,.119-.012.031,0,.1-.014.021,0,.107-.018.036-.007.1-.02.031-.008.074-.018.039-.01.086-.024.033-.01.009,0,.052-.017.06-.021.056-.02.049-.019.034-.014.086-.037.023-.01.054-.026c.037-.018.073-.037.111-.058l.007,0a2.754,2.754,0,0,0,1.271-2.55,22.54,22.54,0,0,1-6.167,0,2.754,2.754,0,0,0,1.271,2.55l.006,0c.039.022.076.041.113.059l.054.026.023.011.085.037.034.014.049.019.057.02.059.02.053.017.007,0,.035.011.086.024.036.009h0l.074.018.012,0,.018,0,.1.021.036.007.107.018.021,0,.1.014.031,0,.119.012.027,0,.112.008h.022l.132.005h.031c.046,0,.093,0,.14,0Z" transform="translate(-759.421 -1050.971)" fill="#f8a364"></path><path id="Path_3244" data-name="Path 3244" d="M573.471,1098.77a5.26,5.26,0,0,1-6.541,2.391l-1.215.1a4.544,4.544,0,0,1-3.891,1.173c-.061-.509.083-.359.445-.568h-1.615c.362.209.506.06.445.568a4.543,4.543,0,0,1-3.891-1.173l-1.215-.1a5.26,5.26,0,0,1-6.541-2.391c1.55,3.181,4.893,5.9,11.927,6.179v.007h.165v-.007c7.033-.28,10.376-3,11.927-6.179" transform="translate(-529.408 -1058.685)" fill="#2d2d2d"></path><path id="Path_3245" data-name="Path 3245" d="M51.254,1322.236a2.4,2.4,0,0,1-.682-1.315c0-.626-.05-.932-.783-2.125a4.03,4.03,0,0,1-.677-2.125s-1.321.3-.26,2.191c.65,1.161-2.7-.975-3.633-1.717,0,0-.846-.01-.236,1.094s-.36.57.939,2.624,3.267,3.907,4.648,2.93.685-1.559.685-1.559" transform="translate(-43.129 -1268.637)" fill="#fdd4a9"></path><path id="Path_3246" data-name="Path 3246" d="M154.181,1372.05l.573,7.891-6.649,4.633a2.881,2.881,0,0,1-3.426-.665l-6.689-6.1c.358-1.824,2.284-3.818,3.426-3.917l5.334,5.2.137-.375h.614c3.54-3.051,4.962-5.11,6.68-6.66" transform="translate(-132.957 -1321.995)" fill="#fcfbfb"></path><path id="Path_3247" data-name="Path 3247" d="M1094.788,1372.867l-5.047-8.948c-3-4.614-6.117-.074-4,2.747l5.1,8.873c2.646,3.529,6.144,1.135,3.948-2.671" transform="translate(-1045.459 -1312.256)" fill="#fcfbfb" fill-rule="evenodd"></path><path id="Path_3248" data-name="Path 3248" d="M1153,1644.05q4.128.211,8.262.418l8.267.418q-1.711,3.008-3.423,6.013t-3.423,6.011l-5.007-.1-5-.095q.081-3.166.162-6.334t.164-6.335" transform="translate(-1110.626 -1584.072)" fill="#c642f8" fill-rule="evenodd"></path><path id="Path_3249" data-name="Path 3249" d="M1299.094,1610.958l1.645.083c.121-.457.239-.915.359-1.373.067-.258.552-.448,1.076-.42s.88.262.8.519c-.146.454-.291.909-.436,1.363l1.647.083c.28.014.463.146.406.292-.081.208-.162.417-.245.625l-2.968-.146-2.966-.144c.039-.212.08-.423.121-.637.029-.149.282-.258.564-.244m3.005-1.457c-.24-.012-.461.074-.495.193s.133.226.369.238.456-.074.491-.192-.125-.227-.365-.239" transform="translate(-1251.04 -1550.537)" fill="#263238" fill-rule="evenodd"></path><path id="Path_3250" data-name="Path 3250" d="M1485.153,1793.1l-1.777-.995c-.848-.475-1.563.893-.691,1.29l1.777.995a.732.732,0,0,0,.691-1.29" transform="translate(-1428.211 -1726.632)" fill="#fdd4a9" fill-rule="evenodd"></path><path id="Path_3251" data-name="Path 3251" d="M1461.563,1825.389l-2.083-1.154a.734.734,0,1,0-.694,1.288l2.083,1.154a.733.733,0,1,0,.694-1.288" transform="translate(-1405.136 -1757.574)" fill="#fdd4a9" fill-rule="evenodd"></path><path id="Path_3252" data-name="Path 3252" d="M1449.355,1862.264l-1.714-.957a.689.689,0,1,0-.652,1.21l1.714.957a.689.689,0,1,0,.652-1.21" transform="translate(-1393.796 -1793.3)" fill="#fdd4a9" fill-rule="evenodd"></path><path id="Path_3253" data-name="Path 3253" d="M1445.557,1898.282l-1.351-.762a.579.579,0,1,0-.548,1.018l1.351.762a.579.579,0,1,0,.548-1.018" transform="translate(-1390.651 -1828.206)" fill="#fdd4a9" fill-rule="evenodd"></path></g></g></g></g><rect id="Rectangle_1211" data-name="Rectangle 1211" width="33.933" height="18.513" transform="translate(1.924 42.723)" fill="#455a64"></rect><g id="Group_1194" data-name="Group 1194" transform="translate(-9.256 -41.652)"><g id="Group_1193" data-name="Group 1193" clip-path="url(#clip-path)"><path id="Path_3326" data-name="Path 3326" d="M73.7,319.815s0-.115-.006-.334,0-.545-.006-.968c0-.851-.008-2.1-.014-3.7-.007-3.2-.017-7.825-.029-13.511l.055.055-33.931.017h0l.073-.073c0,6.542,0,12.8,0,18.513l-.068-.068,24.393.033,7.017.019,1.873.008.484,0c.109,0,.167,0,.167,0s-.052,0-.159,0l-.477,0-1.859.008-7,.019-24.438.033H39.7v-.068c0-5.709,0-11.971,0-18.513v-.073h.075l33.931.017h.055v.055c-.012,5.7-.022,10.333-.03,13.544-.006,1.6-.011,2.84-.014,3.688,0,.418,0,.738-.006.957s-.006.323-.006.323" transform="translate(-28.585 -216.927)" fill="#263238"></path><path id="Path_3327" data-name="Path 3327" d="M58.032,326.193H54.7v-3.337h3.337Zm-3.057-.28h2.777v-2.777H54.975Z" transform="translate(-39.388 -232.502)" fill="#263238"></path><path id="Path_3328" data-name="Path 3328" d="M53.385,348.567a2.275,2.275,0,0,1-.015-.269q-.006-.283-.016-.731c-.008-.641-.019-1.519-.032-2.563l.063.063-3.563.01.073-.072v.484q0,.241,0,.476,0,.471,0,.921c0,.6,0,1.161-.007,1.681l-.063-.063,2.563.032.731.016a2.2,2.2,0,0,1,.269.015,1.518,1.518,0,0,1-.243.014l-.717.017-2.6.032h-.063v-.064c0-.52,0-1.084-.007-1.681q0-.449,0-.921,0-.235,0-.476V345l.073-.073,3.563.01h.064V345c-.013,1.061-.024,1.953-.032,2.6q-.01.44-.017.717a1.475,1.475,0,0,1-.014.243" transform="translate(-35.814 -248.4)" fill="#263238"></path><rect id="Rectangle_1212" data-name="Rectangle 1212" width="22.561" height="4.33" transform="translate(22.553 84.375)" fill="#263238"></rect><path id="Path_3329" data-name="Path 3329" d="M55.056,308.807c0,.04-1.814.073-4.052.073s-4.053-.032-4.053-.073,1.814-.073,4.053-.073,4.052.032,4.052.073" transform="translate(-33.811 -222.332)" fill="#263238"></path><rect id="Rectangle_1213" data-name="Rectangle 1213" width="3.057" height="3.057" transform="translate(14.06 89.108)" fill="#c642f8"></rect><rect id="Rectangle_1214" data-name="Rectangle 1214" width="3.563" height="3.563" transform="translate(14.008 96.604)" fill="#c642f8"></rect><path id="Path_3330" data-name="Path 3330" d="M59.47,353.37v1.274H58.181Z" transform="translate(-41.899 -254.477)" fill="#fff"></path><path id="Path_3331" data-name="Path 3331" d="M68.279,348.567a2.2,2.2,0,0,1-.015-.269q-.006-.283-.017-.731c-.008-.641-.019-1.519-.032-2.563l.063.063-3.563.01.073-.072v.484q0,.241,0,.476,0,.471,0,.921c0,.6-.005,1.161-.007,1.681l-.063-.063,2.563.032.731.017a2.2,2.2,0,0,1,.269.015,1.518,1.518,0,0,1-.243.014l-.717.017-2.6.032h-.063v-.064c0-.52,0-1.084-.007-1.681q0-.449,0-.921,0-.235,0-.476V345l.073-.073,3.563.01h.064V345c-.013,1.061-.024,1.953-.032,2.6q-.01.44-.017.717a1.517,1.517,0,0,1-.014.243" transform="translate(-46.54 -248.4)" fill="#263238"></path><rect id="Rectangle_1215" data-name="Rectangle 1215" width="3.563" height="3.563" transform="translate(18.176 96.604)" fill="#eb996e"></rect><path id="Path_3332" data-name="Path 3332" d="M74.364,353.37v1.274H73.075Z" transform="translate(-52.624 -254.477)" fill="#fff"></path><path id="Path_3333" data-name="Path 3333" d="M83.183,348.567a2.247,2.247,0,0,1-.014-.269q-.007-.283-.017-.731c-.008-.641-.019-1.519-.032-2.563l.063.063-3.563.01.072-.072v.484q0,.241,0,.476,0,.471,0,.921c0,.6-.005,1.161-.007,1.681l-.063-.063,2.563.032.731.017a2.2,2.2,0,0,1,.269.015,1.518,1.518,0,0,1-.243.014l-.717.017-2.6.032h-.063v-.064c0-.52,0-1.084-.007-1.681q0-.449,0-.921V345l.073-.073,3.563.01h.064V345c-.013,1.061-.024,1.953-.032,2.6q-.01.44-.016.717a1.489,1.489,0,0,1-.015.243" transform="translate(-57.276 -248.4)" fill="#263238"></path><rect id="Rectangle_1216" data-name="Rectangle 1216" width="3.563" height="3.563" transform="translate(22.344 96.604)" fill="#ffbe9d"></rect><path id="Path_3334" data-name="Path 3334" d="M89.258,353.37v1.274H87.969Z" transform="translate(-63.35 -254.477)" fill="#fff"></path><path id="Path_3335" data-name="Path 3335" d="M98.068,348.567a2.2,2.2,0,0,1-.015-.269q-.006-.283-.016-.731c-.008-.641-.019-1.519-.032-2.563l.063.063-3.563.01.073-.072v.484q0,.241,0,.476,0,.471,0,.921c0,.6,0,1.161-.007,1.681L94.5,348.5l2.563.032.731.017a2.2,2.2,0,0,1,.269.015,1.518,1.518,0,0,1-.243.014l-.717.017-2.6.032h-.063v-.064c0-.52,0-1.084-.007-1.681q0-.449,0-.921,0-.235,0-.476V345l.073-.073,3.563.01h.064V345c-.013,1.061-.024,1.953-.032,2.6q-.01.44-.017.717a1.517,1.517,0,0,1-.014.243" transform="translate(-67.992 -248.4)" fill="#263238"></path><rect id="Rectangle_1217" data-name="Rectangle 1217" width="3.563" height="3.563" transform="translate(26.512 96.604)" fill="#263238"></rect><path id="Path_3336" data-name="Path 3336" d="M104.152,353.37v1.274h-1.289Z" transform="translate(-74.076 -254.477)" fill="#fff"></path><path id="Path_3337" data-name="Path 3337" d="M112.962,348.567a2.133,2.133,0,0,1-.015-.269q-.006-.283-.016-.731c-.008-.641-.019-1.519-.032-2.563l.063.063-3.563.01.073-.072v.484c0,.16,0,.319,0,.476q0,.471,0,.921c0,.6,0,1.161-.007,1.681l-.063-.063,2.563.032.731.017a2.221,2.221,0,0,1,.269.015,1.521,1.521,0,0,1-.243.014L112,348.6l-2.6.032h-.063v-.064c0-.52-.005-1.084-.007-1.681q0-.449,0-.921,0-.235,0-.476V345l.073-.073,3.563.01h.064V345c-.013,1.061-.024,1.953-.032,2.6q-.01.44-.017.717a1.5,1.5,0,0,1-.014.243" transform="translate(-78.718 -248.4)" fill="#263238"></path><rect id="Rectangle_1218" data-name="Rectangle 1218" width="3.563" height="3.563" transform="translate(30.681 96.604)" fill="#ebebeb"></rect><path id="Path_3338" data-name="Path 3338" d="M119.047,353.37v1.274h-1.289Z" transform="translate(-84.803 -254.477)" fill="#fff"></path><path id="Path_3339" data-name="Path 3339" d="M127.861,348.567a2.2,2.2,0,0,1-.015-.269q-.006-.283-.017-.731c-.008-.641-.019-1.519-.032-2.563l.063.063-3.563.01.073-.072v.484q0,.241,0,.476,0,.471,0,.921c0,.6-.005,1.161-.007,1.681l-.063-.063,2.563.032.731.017a2.2,2.2,0,0,1,.269.015,1.518,1.518,0,0,1-.243.014l-.717.017-2.6.032h-.063v-.064c0-.52,0-1.084-.007-1.681q0-.449,0-.921,0-.235,0-.476V345l.073-.073,3.563.01h.064V345c-.013,1.061-.024,1.953-.032,2.6q-.01.44-.017.717a1.518,1.518,0,0,1-.014.243" transform="translate(-89.448 -248.4)" fill="#263238"></path><rect id="Rectangle_1219" data-name="Rectangle 1219" width="3.563" height="3.563" transform="translate(34.849 96.604)" fill="#f5f5f5"></rect><path id="Path_3340" data-name="Path 3340" d="M133.941,353.37v1.274h-1.289Z" transform="translate(-95.528 -254.477)" fill="#fff"></path><path id="Path_3341" data-name="Path 3341" d="M142.758,348.572a2.175,2.175,0,0,1-.014-.269q-.007-.283-.017-.731c-.008-.641-.019-1.519-.032-2.563l.063.063-3.563.01.073-.072v.484q0,.24,0,.476,0,.471,0,.921c0,.6,0,1.161-.007,1.681l-.063-.063,2.563.032.731.017a2.193,2.193,0,0,1,.269.015,1.522,1.522,0,0,1-.243.014l-.717.017-2.6.032h-.063v-.064c0-.52,0-1.084-.007-1.681q0-.449,0-.921,0-.235,0-.476v-.484l.073-.073,3.563.01h.064v.063c-.013,1.061-.024,1.953-.032,2.6q-.01.44-.016.717a1.531,1.531,0,0,1-.015.243" transform="translate(-100.177 -248.404)" fill="#263238"></path><rect id="Rectangle_1220" data-name="Rectangle 1220" width="3.563" height="3.563" transform="translate(39.017 96.604)" fill="#fafafa"></rect><path id="Path_3342" data-name="Path 3342" d="M148.835,353.37v1.274h-1.289Z" transform="translate(-106.254 -254.477)" fill="#fff"></path><rect id="Rectangle_1221" data-name="Rectangle 1221" width="0.784" height="0.784" transform="translate(40.356 90.306)" fill="#263238"></rect><rect id="Rectangle_1222" data-name="Rectangle 1222" width="0.784" height="0.784" transform="translate(41.444 90.306)" fill="#263238"></rect><rect id="Rectangle_1223" data-name="Rectangle 1223" width="0.784" height="0.784" transform="translate(40.356 91.329)" fill="#263238"></rect><rect id="Rectangle_1224" data-name="Rectangle 1224" width="0.784" height="0.784" transform="translate(41.444 91.329)" fill="#263238"></rect></g></g><g id="Group_1213" data-name="Group 1213" transform="translate(51.251 46.395)"><path id="Path_3343" data-name="Path 3343" d="M317.636,380.05h-3.407s-7.688-2.778-9.268-2.512c-1.424.239-6.636,3.7-7.657,4.387a.648.648,0,0,0-.247.315,1.118,1.118,0,0,0,.622,1.42l.108.045-.047.155a1.852,1.852,0,0,0-.078.622.751.751,0,0,0,1.4.325l-.2.349a.858.858,0,0,0-.109.467l.018.317a.855.855,0,0,0,1.484.531,7.2,7.2,0,0,1,3.133-1.951,22.377,22.377,0,0,1,3.077-.552,1.069,1.069,0,0,1,.992.683,30.18,30.18,0,0,0-4.944,2.133,1.514,1.514,0,0,0-.822,1.138c-.051.442.172.906,1.047.7,1.878-.439,4.221-1.256,4.221-1.256a3.863,3.863,0,0,1,2.873.3c1.588,1.121,2.316,1.532,3.681,1.079a11.543,11.543,0,0,0,2.37-1.1l2.688-.268s2.541-6.352-.934-7.326" transform="translate(-274.38 -359.915)" fill="#ffbe9d"></path><path id="Path_3344" data-name="Path 3344" d="M336.073,394.495a1.3,1.3,0,0,1-.181.133,1.423,1.423,0,0,1-.234.139,2.333,2.333,0,0,1-.339.154,3.712,3.712,0,0,1-2.342.078,3.627,3.627,0,0,1-1.44-.782l-.167-.152-.151-.172a3.125,3.125,0,0,1-.28-.377c-.172-.268-.3-.565-.484-.826a1.183,1.183,0,0,0-.768-.53,3.735,3.735,0,0,0-1.031.008,6.088,6.088,0,0,1-2.22-.22,6.408,6.408,0,0,1-1.908-.911,6.615,6.615,0,0,1-.777-.646.487.487,0,0,1-.129-.516.492.492,0,0,1,.407-.327h.005l4.995-.207,1.432-.048.381-.007a.574.574,0,0,1,.132.005.611.611,0,0,1-.131.017l-.38.029-1.43.086-4.992.26h0a.354.354,0,0,0-.292.238.345.345,0,0,0,.1.371,6.578,6.578,0,0,0,.761.629,6.3,6.3,0,0,0,1.866.888,5.978,5.978,0,0,0,2.168.217,3.844,3.844,0,0,1,1.07,0,1.264,1.264,0,0,1,.493.212,1.556,1.556,0,0,1,.357.377c.194.278.319.578.483.836a3.018,3.018,0,0,0,.266.364l.144.167.159.148a3.55,3.55,0,0,0,1.389.773,3.723,3.723,0,0,0,2.293-.032,5.561,5.561,0,0,0,.774-.372" transform="translate(-293.544 -368.385)" fill="#eb996e"></path><path id="Path_3387" data-name="Path 3387" d="M281.359,344.869l-17.552-.084-5.949-28.174a2.506,2.506,0,0,0-2.454-2H218.721a2.507,2.507,0,0,0-2.449,3.04l6.044,27.711a2.022,2.022,0,0,0,1.976,1.592h59.616c0-1.425-1.124-2.087-2.549-2.087" transform="translate(-216.215 -314.613)" fill="#e0e0e0"></path><path id="Path_3388" data-name="Path 3388" d="M363.485,346.956c-.039.009-1.694-7.224-3.7-16.155s-3.593-16.179-3.554-16.188,1.694,7.223,3.7,16.156,3.592,16.178,3.553,16.187" transform="translate(-317.047 -314.613)" fill="#263238"></path><path id="Path_3389" data-name="Path 3389" d="M293.5,367.983a2.359,2.359,0,1,1-3.454-.723,2.5,2.5,0,0,1,3.454.723" transform="translate(-268.748 -352.225)" fill="#fff"></path><path id="Path_3390" data-name="Path 3390" d="M412.756,425.246h-1.377a.583.583,0,1,1,0-1.165h1.377a.583.583,0,0,1,0,1.165" transform="translate(-356.338 -393.446)" fill="#263238"></path><path id="Path_3391" data-name="Path 3391" d="M440.9,425.746a.605.605,0,0,1,.074.081.743.743,0,0,1,.128.3,1.2,1.2,0,0,1-.463,1.11,1.672,1.672,0,0,1-.841.316,4.558,4.558,0,0,1-1.068-.03,6.181,6.181,0,0,0-1.208-.07,1.963,1.963,0,0,0-.631.147.921.921,0,0,0-.5.418.6.6,0,0,0,.136.627,1.471,1.471,0,0,0,.6.418,5.576,5.576,0,0,1,.742.321,1,1,0,0,1,.512.683,1.371,1.371,0,0,1-.926,1.422,5.338,5.338,0,0,1-1.852.234,30.992,30.992,0,0,1-3.977-.257c-1.372-.161-2.786-.365-4.242-.494a22.287,22.287,0,0,0-4.254-.01c-1.371.127-2.694.317-3.97.34a6.7,6.7,0,0,1-1.858-.167,2.591,2.591,0,0,1-1.482-.938,1.865,1.865,0,0,1-.345-1.591,1.132,1.132,0,0,1,1.189-.839.646.646,0,0,1,.545.465.862.862,0,0,1-.68,1.025,1.062,1.062,0,0,1-.6-.082,1.42,1.42,0,0,1-.734-.77,2.6,2.6,0,0,1-.186-.88c-.021-.54.029-.955.027-1.237,0-.141,0-.248,0-.32a.642.642,0,0,1,0-.11.57.57,0,0,1,.016.109c.007.072.014.18.017.322.011.283-.03.7,0,1.233a2.564,2.564,0,0,0,.193.856,1.35,1.35,0,0,0,.7.723.981.981,0,0,0,.554.071.739.739,0,0,0,.481-.319.73.73,0,0,0,.119-.593.545.545,0,0,0-.465-.389,1.026,1.026,0,0,0-1.066.768,1.753,1.753,0,0,0,.335,1.488,2.472,2.472,0,0,0,1.418.886,6.611,6.611,0,0,0,1.822.156c1.264-.026,2.582-.218,3.959-.348a22.392,22.392,0,0,1,4.28.007c1.461.13,2.876.335,4.245.5a31.125,31.125,0,0,0,3.959.265,5.253,5.253,0,0,0,1.805-.218,1.389,1.389,0,0,0,.662-.512,1.092,1.092,0,0,0,.193-.77.876.876,0,0,0-.453-.6,5.642,5.642,0,0,0-.725-.317,1.578,1.578,0,0,1-.644-.453.891.891,0,0,1-.182-.348.608.608,0,0,1,.035-.389,1.015,1.015,0,0,1,.553-.466,2.049,2.049,0,0,1,.662-.149,6.2,6.2,0,0,1,1.224.082,4.514,4.514,0,0,0,1.05.041,1.619,1.619,0,0,0,.814-.292,1.177,1.177,0,0,0,.469-1.06.852.852,0,0,0-.174-.383" transform="translate(-359.372 -394.645)" fill="#263238"></path><g id="Group_1216" data-name="Group 1216" transform="translate(72.011 29.9)"><path id="Path_3386" data-name="Path 3386" d="M512.188,423.9h-34.9a2.351,2.351,0,0,1,2.247-2.443h30.409a2.351,2.351,0,0,1,2.246,2.443" transform="translate(-477.286 -421.452)" fill="#263238"></path><path id="Path_3392" data-name="Path 3392" d="M512.561,425.595c0,.04-7.659.073-17.105.073s-17.107-.032-17.107-.073,7.657-.073,17.107-.073,17.105.032,17.105.073" transform="translate(-478.075 -424.382)" fill="#455a64"></path></g></g><g id="Group_1210" data-name="Group 1210" transform="translate(-10 -45)"><g id="Group_1209" data-name="Group 1209" clip-path="url(#clip-path-25)"><path id="Path_3393" data-name="Path 3393" d="M556.6,55.541l4.878-.745a14.943,14.943,0,1,0-3.871-3.7l-.006-.005Z" transform="translate(-399.499 -25.32)" fill="#fff"></path><path id="Path_3394" data-name="Path 3394" d="M556.472,55.4s.018-.093.059-.283l.184-.848.728-3.324a.03.03,0,0,1,.049-.017l.007.005-.044.041a15.022,15.022,0,0,1-1.638-2.853,14.785,14.785,0,0,1-1.1-3.936,14.623,14.623,0,0,1-.132-2.321,16.442,16.442,0,0,1,.273-2.481,14.865,14.865,0,0,1,1.965-5.074,14.907,14.907,0,0,1,16.977-6.481,15.437,15.437,0,0,1,3.309,1.412l.766.5.385.25c.126.087.241.188.363.282l.722.575c.236.2.448.424.674.636a14.14,14.14,0,0,1,1.229,1.346l.147.172.131.185.26.37c.168.25.356.486.507.745l.442.781c.073.13.149.258.218.39l.181.407.361.811c.11.273.191.557.287.835a14.965,14.965,0,0,1-10.738,19.213l-.621.139-.307.068-.31.037c-.411.048-.816.1-1.214.142a20.117,20.117,0,0,1-2.317-.023,14.862,14.862,0,0,1-6.937-2.418l.022,0-3.644.537-.929.135c-.207.03-.309.042-.309.042s.11-.02.321-.054l.935-.15,3.617-.572a.033.033,0,0,1,.022,0A14.869,14.869,0,0,0,568.278,57a20.151,20.151,0,0,0,2.3.016c.4-.041.8-.1,1.205-.145l.307-.038.3-.068.616-.14a14.822,14.822,0,0,0,10.626-19.06c-.1-.274-.175-.555-.284-.826l-.357-.8-.179-.4c-.068-.13-.144-.257-.216-.386l-.438-.773c-.15-.256-.336-.49-.5-.737l-.257-.367-.13-.183-.146-.171a14.025,14.025,0,0,0-1.217-1.333c-.224-.209-.433-.433-.667-.63l-.716-.569c-.12-.093-.235-.193-.359-.28l-.381-.247-.759-.493a15.282,15.282,0,0,0-3.276-1.4A14.834,14.834,0,0,0,554.961,39.4a16.316,16.316,0,0,0-.278,2.463,14.563,14.563,0,0,0,.123,2.306,14.764,14.764,0,0,0,1.082,3.917,15.077,15.077,0,0,0,1.615,2.849.03.03,0,0,1-.044.041l-.006-.005.049-.017-.76,3.3-.2.854c-.045.192-.071.293-.071.293" transform="translate(-399.374 -25.174)" fill="#263238"></path><path id="Path_3395" data-name="Path 3395" d="M592.286,70.3l-3.7,1.683a3.58,3.58,0,0,1-4.74-1.778l-3.629-7.985,10.222-4.645,3.629,7.985a3.58,3.58,0,0,1-1.778,4.74" transform="translate(-417.837 -47.045)" fill="#e0e0e0"></path><path id="Path_3396" data-name="Path 3396" d="M592.045,70.072a4.963,4.963,0,0,0,.876-.594,3.7,3.7,0,0,0,.766-.991,3.492,3.492,0,0,0,.411-1.619,3.3,3.3,0,0,0-.128-.978,6.29,6.29,0,0,0-.408-1.008l-1.021-2.23-2.409-5.276.09.034-6.96,3.168L580,62.058l.036-.1,3.015,6.656c.231.5.445,1,.673,1.47a3.518,3.518,0,0,0,3.425,1.925,6.222,6.222,0,0,0,2.077-.7l1.522-.679.959-.422.249-.106a.492.492,0,0,1,.087-.032.5.5,0,0,1-.081.044l-.244.118-.948.445-1.513.7-.952.435a3.621,3.621,0,0,1-4.688-1.672c-.234-.474-.447-.967-.681-1.472l-3.031-6.649-.03-.065.066-.03,3.26-1.482,6.964-3.16.062-.028.028.062,2.39,5.285,1.008,2.236a6.374,6.374,0,0,1,.405,1.025,3.369,3.369,0,0,1,.122,1,3.535,3.535,0,0,1-.437,1.649,3.682,3.682,0,0,1-.794.994,3.626,3.626,0,0,1-.657.445l-.184.089a.323.323,0,0,1-.064.027" transform="translate(-417.595 -46.814)" fill="#263238"></path><path id="Path_3397" data-name="Path 3397" d="M580.525,62.444a8.575,8.575,0,0,0,5.66-.45,10.008,10.008,0,0,0,4.5-4.184Z" transform="translate(-418.061 -47.212)" fill="#c642f8"></path><path id="Path_3398" data-name="Path 3398" d="M595.709,63.437a1.035,1.035,0,0,1,.175.186l.465.561,1.674,2.091,1.147,1.451c.2.268.422.516.634.824a2.07,2.07,0,0,1,.329,1.086,2.128,2.128,0,0,1-.312,1.152,2.158,2.158,0,0,1-.937.82L596.6,72.663l-1.161.534a5.709,5.709,0,0,1-1.177.453,3.579,3.579,0,0,1-3.276-.916c-.258-.254-.486-.5-.719-.744l-1.276-1.339L587.152,68.7l-.491-.538a1.064,1.064,0,0,1-.159-.2,1.045,1.045,0,0,1,.193.166l.522.508,1.889,1.9,1.3,1.32a5.608,5.608,0,0,0,1.591,1.327,3.362,3.362,0,0,0,2.214.244,5.54,5.54,0,0,0,1.132-.441l1.16-.534,2.288-1.05a1.888,1.888,0,0,0,1.13-1.761,1.865,1.865,0,0,0-.288-.979c-.186-.278-.418-.552-.613-.816l-1.125-1.468-1.616-2.136-.43-.588a1.046,1.046,0,0,1-.137-.215" transform="translate(-422.365 -51.265)" fill="#263238"></path><path id="Path_3399" data-name="Path 3399" d="M586.031,78.182a.62.62,0,1,1-.821-.308.62.62,0,0,1,.821.308" transform="translate(-421.172 -61.621)" fill="#263238"></path><path id="Path_3400" data-name="Path 3400" d="M602.439,58.117c.163.216-.06.591.056.836a1.212,1.212,0,0,1-.234,1.375.372.372,0,0,0-.072.1,1.157,1.157,0,0,0,.026.839l.4,1.368a2.388,2.388,0,0,1,.138.869.812.812,0,0,1-.464.7.975.975,0,0,1-1.061-.515c-.292-.446-.432-1-.949-1.271a.636.636,0,0,0-.737.078c-.489.481.292,1.25-.165,1.717a.563.563,0,0,1-.5.145,1.473,1.473,0,0,1-.845-.647l-1.059-1.337Z" transform="translate(-429.9 -47.433)" fill="#c642f8"></path></g></g></g></g></svg> 