<?xml version="1.0" encoding="UTF-8"?> <svg xmlns="http://www.w3.org/2000/svg" xmlns:xlink="http://www.w3.org/1999/xlink" width="200" height="200" viewBox="0 0 200 200"><defs><linearGradient id="linear-gradient" x1="1.65" y1="0.446" x2="-0.101" y2="0.528" gradientUnits="objectBoundingBox"><stop offset="0" stop-color="#6A2186"></stop><stop offset="1" stop-color="#b52d35" stop-opacity="0.922"></stop></linearGradient><clipPath id="clip-path"><path id="Path_37629" data-name="Path 37629" d="M1281.448,349.769c-.558-.567-1.773-2.755-2.814-8.413a128.515,128.515,0,0,1,0-39.94c1.042-5.658,2.256-7.846,2.814-8.413.558.567,1.773,2.755,2.814,8.413,1.007,5.468,8.95,12.56,8.95,19.97s-7.943,14.5-8.95,19.97C1283.221,347.014,1282.006,349.2,1281.448,349.769Z" transform="translate(-1277.073 -293.003)" fill="none"></path></clipPath><linearGradient id="linear-gradient-2" x1="1.279" y1="-0.542" x2="0.243" y2="0.874" gradientUnits="objectBoundingBox"><stop offset="0" stop-color="#fe7062"></stop><stop offset="1" stop-color="#ff928e"></stop></linearGradient><linearGradient id="linear-gradient-3" x1="0.525" y1="0.934" x2="0.436" y2="-0.664" xlink:href="#linear-gradient"></linearGradient><linearGradient id="linear-gradient-4" x1="0.143" y1="-0.646" x2="1.217" y2="2.77" gradientUnits="objectBoundingBox"><stop offset="0" stop-color="#6A2186"></stop><stop offset="1" stop-color="#d13c44" stop-opacity="0.922"></stop></linearGradient><linearGradient id="linear-gradient-5" x1="0.899" y1="-1.341" x2="-0.156" y2="3.524" xlink:href="#linear-gradient-2"></linearGradient><clipPath id="clip-path-2"><path id="Path_37233" data-name="Path 37233" d="M2763.164,691.871h-1.092c-15.27,1.5-19.787,16.055-12.661,44.844.584-1.77,1.326-4.182,2.518-5.65-1.383-10.579-1.993-19.685,1.463-23.682,2.97,1.119,15.483,1.119,18.453,0,3.456,4,2.834,13.191,1.452,23.77a21.552,21.552,0,0,1,2.458,5.562C2782.88,707.926,2778.434,693.373,2763.164,691.871Z" transform="translate(-2746.114 -691.871)" fill="none"></path></clipPath></defs><g id="Group_31154" data-name="Group 31154" transform="translate(1728 486)"><rect id="Rectangle_11268" data-name="Rectangle 11268" width="200" height="200" transform="translate(-1728 -486)" fill="none"></rect><g id="ادارة_الحملات_الاعلانية_و_الدعائية-_اول_سكشن" data-name="ادارة الحملات الاعلانية و الدعائية- اول سكشن" transform="translate(-1834.87 -536.51)"><g id="ادارة_الحملات_الاعلانية_و_الدعائية" data-name="ادارة الحملات الاعلانية و الدعائية" transform="translate(131.306 112.513)"><g id="Group_27253" data-name="Group 27253" transform="translate(0 0)"><path id="Path_37589" data-name="Path 37589" d="M177.616,224.514c16.773.544,34.924-2.467,50.144.39,11.158,2.094,23.668,5.092,35.019,2.3,11.726-2.882,26.5-12.81,23.036-26.8-1.139-4.6-5.434-6.178-7.97-9.717-3.236-4.516-2.17-9.015-.488-14,2.786-8.251,7.084-18.626,3.55-27.238-3.775-9.2-15.216-6.753-22.367-3.609-9.544,4.2-18.026,13.66-29.417,10.494-8.074-2.244-14.794-8.074-21.751-12.44-10.65-6.683-44.426-13.292-56.085-5.386-12.787,8.67,9.269,17.458-4.533,25.394-9.965,5.73-15.263,21.152-12.517,35.6C137.73,217.869,161.919,224,177.616,224.514Z" transform="translate(-133.515 -134.908)" fill="#FFD100"></path><g id="Group_27228" data-name="Group 27228" transform="translate(74.48 74.403)"><path id="Path_37590" data-name="Path 37590" d="M216.621,352.8h-5.053a.628.628,0,0,1-.628-.628h0a.628.628,0,0,1,.628-.628h5.053a.628.628,0,0,1,.628.628h0A.628.628,0,0,1,216.621,352.8Z" transform="translate(-210.94 -351.546)" fill="#6A2186"></path><path id="Path_37591" data-name="Path 37591" d="M357.177,352.8H340.935a.628.628,0,0,1-.628-.628h0a.628.628,0,0,1,.628-.628h16.242a.628.628,0,0,1,.628.628h0A.628.628,0,0,1,357.177,352.8Z" transform="translate(-332.306 -351.546)" fill="#6A2186"></path><path id="Path_37592" data-name="Path 37592" d="M388.73,392.606H372.488a.628.628,0,0,1-.628-.628h0a.628.628,0,0,1,.628-.629H388.73a.629.629,0,0,1,.628.629h0A.629.629,0,0,1,388.73,392.606Z" transform="translate(-361.907 -388.887)" fill="#6A2186"></path><path id="Path_37593" data-name="Path 37593" d="M384.112,472.214H372.488a.628.628,0,0,1-.628-.628h0a.628.628,0,0,1,.628-.628h11.623a.629.629,0,0,1,.628.628h0A.628.628,0,0,1,384.112,472.214Z" transform="translate(-361.907 -463.571)" fill="#6A2186"></path><path id="Path_37594" data-name="Path 37594" d="M418.179,432.41H401.937a.629.629,0,0,1-.628-.629h0a.628.628,0,0,1,.628-.628h16.242a.628.628,0,0,1,.628.628h0A.629.629,0,0,1,418.179,432.41Z" transform="translate(-389.535 -426.229)" fill="#6A2186"></path></g><g id="Group_27229" data-name="Group 27229" transform="translate(126.991 70.081)"><path id="Path_37595" data-name="Path 37595" d="M1711.067,1159.67h-5.053a.629.629,0,0,1-.629-.629h0a.629.629,0,0,1,.629-.628h5.053a.629.629,0,0,1,.629.628h0A.629.629,0,0,1,1711.067,1159.67Z" transform="translate(-1705.385 -1158.413)" fill="#6A2186"></path><path id="Path_37596" data-name="Path 37596" d="M1851.622,1159.67H1835.38a.628.628,0,0,1-.628-.629h0a.628.628,0,0,1,.628-.628h16.242a.628.628,0,0,1,.629.628h0A.628.628,0,0,1,1851.622,1159.67Z" transform="translate(-1826.751 -1158.413)" fill="#6A2186"></path><path id="Path_37597" data-name="Path 37597" d="M1883.175,1199.474h-16.242a.629.629,0,0,1-.629-.628h0a.629.629,0,0,1,.629-.628h16.242a.629.629,0,0,1,.629.628h0A.629.629,0,0,1,1883.175,1199.474Z" transform="translate(-1856.352 -1195.755)" fill="#6A2186"></path><path id="Path_37598" data-name="Path 37598" d="M1878.557,1279.081h-11.623a.629.629,0,0,1-.629-.629h0a.629.629,0,0,1,.629-.628h11.623a.629.629,0,0,1,.629.628h0A.629.629,0,0,1,1878.557,1279.081Z" transform="translate(-1856.352 -1270.438)" fill="#6A2186"></path><path id="Path_37599" data-name="Path 37599" d="M1912.624,1239.277h-16.242a.628.628,0,0,1-.628-.628h0a.628.628,0,0,1,.628-.629h16.242a.628.628,0,0,1,.628.629h0A.628.628,0,0,1,1912.624,1239.277Z" transform="translate(-1883.98 -1233.096)" fill="#6A2186"></path></g><path id="Path_37601" data-name="Path 37601" d="M1875.8,710.331v1.893a.421.421,0,0,0,.4.421l2.367.111a.421.421,0,0,0,.441-.421v-2a.421.421,0,0,0-.421-.421h-2.367A.421.421,0,0,0,1875.8,710.331Z" transform="translate(-1740.208 -694.935)" fill="#FFD100"></path><path id="Path_37603" data-name="Path 37603" d="M1950.485,931.677v1.089a.242.242,0,0,0,.231.242l1.362.064a.242.242,0,0,0,.254-.242v-1.153a.242.242,0,0,0-.242-.242h-1.362A.242.242,0,0,0,1950.485,931.677Z" transform="translate(-1808.335 -875.392)" fill="#FFD100"></path><g id="Group_27239" data-name="Group 27239" transform="translate(147.425 43.785)"><path id="Path_37604" data-name="Path 37604" d="M2009.443,708.149l-.119,7.389a.838.838,0,0,0,.837.851h8.508a.838.838,0,0,0,.838-.838v-7.389a.838.838,0,0,0-.838-.838h-8.388A.838.838,0,0,0,2009.443,708.149Z" transform="translate(-2009.323 -707.325)" fill="#dc80ff"></path><g id="Group_27238" data-name="Group 27238" transform="translate(1.286 0.799)"><path id="Path_37605" data-name="Path 37605" d="M2033.948,727.374c-.061,0-.122,0-.184,0a3.7,3.7,0,0,1-3.652-3.726,3.425,3.425,0,0,1,1.232-2.473,3.929,3.929,0,0,1,2.731-.918,3.7,3.7,0,0,1,3.652,3.726h0a3.425,3.425,0,0,1-1.232,2.473A3.912,3.912,0,0,1,2033.948,727.374Zm-.056-6.623a3.411,3.411,0,0,0-2.222.8,2.927,2.927,0,0,0-1.056,2.113,3.2,3.2,0,0,0,3.172,3.2,3.429,3.429,0,0,0,2.383-.8,2.927,2.927,0,0,0,1.056-2.113,3.2,3.2,0,0,0-3.172-3.2C2034,720.752,2033.946,720.751,2033.892,720.751Z" transform="translate(-2030.11 -720.249)" fill="#fff"></path><g id="Group_27237" data-name="Group 27237" transform="translate(0.488 0.252)"><g id="Group_27230" data-name="Group 27230" transform="translate(2.325 0.018)"><path id="Path_37606" data-name="Path 37606" d="M2078.787,729.218a10.045,10.045,0,0,1-.143,1.745c-.026.144-.056.287-.092.429a4.139,4.139,0,0,1-.128.42,1.987,1.987,0,0,1-.191.4.793.793,0,0,1-.144.168.411.411,0,0,1-.094.061.278.278,0,0,1-.11.026.275.275,0,0,1-.111-.021.384.384,0,0,1-.1-.057.748.748,0,0,1-.147-.166,1.941,1.941,0,0,1-.194-.394,4.12,4.12,0,0,1-.13-.419c-.036-.142-.066-.285-.093-.428-.052-.288-.088-.578-.112-.869s-.036-.583-.038-.875c0-.146,0-.292.009-.438s.013-.292.024-.437c.021-.291.054-.582.1-.87.024-.144.052-.288.085-.43a4.08,4.08,0,0,1,.122-.421c.024-.069.051-.137.082-.2a1.5,1.5,0,0,1,.1-.193.717.717,0,0,1,.144-.167.358.358,0,0,1,.095-.057.267.267,0,0,1,.109-.019.288.288,0,0,1,.108.025.419.419,0,0,1,.094.059.8.8,0,0,1,.147.164,1.984,1.984,0,0,1,.2.389,4.024,4.024,0,0,1,.138.416c.039.141.072.283.1.427A9.194,9.194,0,0,1,2078.787,729.218Zm-.043,0q0-.436-.034-.872a8.517,8.517,0,0,0-.113-.865c-.027-.143-.058-.285-.1-.426a3.969,3.969,0,0,0-.132-.415,1.963,1.963,0,0,0-.195-.388.79.79,0,0,0-.142-.162.4.4,0,0,0-.09-.058.266.266,0,0,0-.1-.025.249.249,0,0,0-.1.02.351.351,0,0,0-.091.056.7.7,0,0,0-.138.164,1.445,1.445,0,0,0-.1.192c-.03.066-.055.134-.079.2a4.083,4.083,0,0,0-.116.42c-.032.142-.058.285-.081.429-.044.288-.073.577-.092.868s-.025.582-.024.873.009.582.031.872.055.58.1.866c.025.143.054.286.089.427a3.979,3.979,0,0,0,.125.417,1.9,1.9,0,0,0,.188.39.73.73,0,0,0,.14.161.36.36,0,0,0,.09.055.247.247,0,0,0,.1.019.257.257,0,0,0,.1-.025.386.386,0,0,0,.088-.058.772.772,0,0,0,.137-.164,1.965,1.965,0,0,0,.186-.391,4.178,4.178,0,0,0,.124-.417c.035-.141.063-.284.088-.427.049-.287.082-.576.1-.866S2078.744,729.509,2078.744,729.218Z" transform="translate(-2076.88 -725.91)" fill="#fff"></path><path id="Path_37607" data-name="Path 37607" d="M2076.591,731.256a.364.364,0,0,1-.134-.027.462.462,0,0,1-.117-.07.824.824,0,0,1-.164-.184,2,2,0,0,1-.2-.412,4.169,4.169,0,0,1-.133-.428c-.035-.137-.066-.279-.094-.434-.05-.276-.087-.563-.113-.877-.023-.286-.036-.583-.038-.882,0-.156,0-.311.009-.441.006-.148.014-.3.024-.441.023-.316.057-.6.1-.878.026-.156.054-.3.087-.436a4.241,4.241,0,0,1,.124-.43c.028-.078.055-.147.084-.211a1.6,1.6,0,0,1,.11-.2.8.8,0,0,1,.161-.186.45.45,0,0,1,.117-.07.354.354,0,0,1,.143-.025.372.372,0,0,1,.139.033.5.5,0,0,1,.113.07.879.879,0,0,1,.163.181,2.045,2.045,0,0,1,.21.406,4.012,4.012,0,0,1,.141.425c.038.137.071.279.1.433a9.225,9.225,0,0,1,.162,1.759h0a10.043,10.043,0,0,1-.145,1.76c-.028.156-.058.3-.093.435a4.224,4.224,0,0,1-.131.428,2.055,2.055,0,0,1-.2.412.862.862,0,0,1-.16.186.5.5,0,0,1-.114.073.364.364,0,0,1-.143.033Zm-.044-6.454a.167.167,0,0,0-.064.013.263.263,0,0,0-.069.043.6.6,0,0,0-.121.145,1.365,1.365,0,0,0-.095.181c-.026.059-.051.123-.076.2a4.053,4.053,0,0,0-.114.411c-.03.133-.056.271-.079.423-.042.269-.071.55-.091.86-.017.265-.025.548-.024.867,0,.294.009.585.03.866.023.308.057.589.1.858.026.151.055.288.088.421a3.84,3.84,0,0,0,.123.408,1.807,1.807,0,0,0,.179.372.633.633,0,0,0,.123.142.274.274,0,0,0,.068.042.18.18,0,0,0,.067.013.175.175,0,0,0,.068-.017.306.306,0,0,0,.068-.045.668.668,0,0,0,.122-.146,1.852,1.852,0,0,0,.177-.374,3.97,3.97,0,0,0,.121-.408c.032-.132.061-.27.087-.421.046-.267.08-.547.1-.858.021-.28.032-.571.032-.866h0c0-.293-.011-.584-.034-.865a8.228,8.228,0,0,0-.112-.856c-.028-.149-.059-.286-.094-.42a3.863,3.863,0,0,0-.129-.406,1.853,1.853,0,0,0-.186-.371.7.7,0,0,0-.126-.144.322.322,0,0,0-.071-.046.18.18,0,0,0-.07-.017Z" transform="translate(-2075.594 -724.62)" fill="#fff"></path></g><g id="Group_27231" data-name="Group 27231" transform="translate(0.67)"><path id="Path_37608" data-name="Path 37608" d="M2055.149,728.947a4.257,4.257,0,0,1-.15,1.115,3.586,3.586,0,0,1-.465,1.022,2.957,2.957,0,0,1-.355.436,2.494,2.494,0,0,1-.437.353,2.105,2.105,0,0,1-.51.234,1.9,1.9,0,0,1-1.109,0,2.105,2.105,0,0,1-.51-.234,2.488,2.488,0,0,1-.437-.353,2.939,2.939,0,0,1-.355-.436,3.6,3.6,0,0,1-.466-1.023,4.022,4.022,0,0,1-.113-.553,4.166,4.166,0,0,1,0-1.126,4.092,4.092,0,0,1,.113-.553,3.6,3.6,0,0,1,.467-1.022,2.935,2.935,0,0,1,.355-.436,2.483,2.483,0,0,1,.437-.352,2.11,2.11,0,0,1,.51-.233,1.887,1.887,0,0,1,1.107,0,2.108,2.108,0,0,1,.509.233,2.481,2.481,0,0,1,.437.352,2.951,2.951,0,0,1,.355.436,3.6,3.6,0,0,1,.465,1.022A4.265,4.265,0,0,1,2055.149,728.947Zm-.049,0a4.225,4.225,0,0,0-.144-1.1,3.579,3.579,0,0,0-.45-1.015,2.936,2.936,0,0,0-.347-.435,2.435,2.435,0,0,0-.429-.353,2.073,2.073,0,0,0-.5-.234,1.84,1.84,0,0,0-1.1,0,2.07,2.07,0,0,0-.5.234,2.414,2.414,0,0,0-.428.353,2.9,2.9,0,0,0-.346.435,3.568,3.568,0,0,0-.449,1.015,4.075,4.075,0,0,0-.108.546,4.405,4.405,0,0,0-.036.556,4.359,4.359,0,0,0,.037.556,4.074,4.074,0,0,0,.108.546,3.571,3.571,0,0,0,.449,1.014,2.927,2.927,0,0,0,.346.435,2.421,2.421,0,0,0,.428.353,2.08,2.08,0,0,0,.5.233,1.826,1.826,0,0,0,1.094,0,2.08,2.08,0,0,0,.5-.233,2.429,2.429,0,0,0,.429-.353,2.913,2.913,0,0,0,.347-.435,3.581,3.581,0,0,0,.45-1.015A4.223,4.223,0,0,0,2055.1,728.947Z" transform="translate(-2050.119 -725.621)" fill="#fff"></path><path id="Path_37609" data-name="Path 37609" d="M2051.392,730.985a2,2,0,0,1-.579-.086,2.177,2.177,0,0,1-.531-.243,2.567,2.567,0,0,1-.453-.365,3.036,3.036,0,0,1-.366-.449,3.676,3.676,0,0,1-.477-1.047,4.183,4.183,0,0,1-.115-.565,4.253,4.253,0,0,1,0-1.148,4.124,4.124,0,0,1,.116-.564,3.677,3.677,0,0,1,.478-1.047,3.011,3.011,0,0,1,.366-.448,2.568,2.568,0,0,1,.452-.364,2.2,2.2,0,0,1,.531-.242,1.971,1.971,0,0,1,1.156,0,2.186,2.186,0,0,1,.53.242,2.571,2.571,0,0,1,.452.365,3.023,3.023,0,0,1,.365.448,3.673,3.673,0,0,1,.477,1.046,4.359,4.359,0,0,1,.154,1.137h0a4.345,4.345,0,0,1-.154,1.137,3.664,3.664,0,0,1-.476,1.047,3.024,3.024,0,0,1-.365.449,2.581,2.581,0,0,1-.452.365,2.19,2.19,0,0,1-.531.243A2.008,2.008,0,0,1,2051.392,730.985Zm0-6.467a1.812,1.812,0,0,0-.523.08,1.983,1.983,0,0,0-.482.224,2.34,2.34,0,0,0-.413.341,2.822,2.822,0,0,0-.336.422,3.482,3.482,0,0,0-.438.991,4.038,4.038,0,0,0-.105.535,4.194,4.194,0,0,0,0,1.089,4.019,4.019,0,0,0,.106.535,3.487,3.487,0,0,0,.438.99,2.813,2.813,0,0,0,.336.422,2.337,2.337,0,0,0,.413.34,1.989,1.989,0,0,0,.481.223,1.742,1.742,0,0,0,1.044,0,2,2,0,0,0,.482-.223,2.336,2.336,0,0,0,.414-.34,2.829,2.829,0,0,0,.337-.422,3.487,3.487,0,0,0,.44-.991,4.187,4.187,0,0,0,0-2.16,3.491,3.491,0,0,0-.439-.991,2.831,2.831,0,0,0-.337-.422,2.348,2.348,0,0,0-.414-.341,1.978,1.978,0,0,0-.482-.224A1.81,1.81,0,0,0,2051.392,724.519Z" transform="translate(-2048.833 -724.331)" fill="#fff"></path></g><g id="Group_27232" data-name="Group 27232" transform="translate(0.258 1.945)"><path id="Path_37610" data-name="Path 37610" d="M2043.542,757.17l.742-.006.742,0,1.484,0,1.484,0,.742,0,.742.007a0,0,0,0,1,0,0s0,0,0,0l-.742.006-.742,0-1.484,0-1.484,0-.742,0-.742-.006h0S2043.54,757.17,2043.542,757.17Z" transform="translate(-2043.454 -757.073)" fill="#fff"></path><path id="Path_37611" data-name="Path 37611" d="M2045.225,755.983l-2.227-.006-.777-.006-.052-.052v-.038l0-.083.085,0,1.484-.01,1.484,0,2.227.007.826.007,0,.172-.087,0-1.483.01Z" transform="translate(-2042.169 -755.782)" fill="#fff"></path></g><g id="Group_27233" data-name="Group 27233" transform="translate(1.119 0.698)"><path id="Path_37612" data-name="Path 37612" d="M2057.459,737l.527-.006.527,0,.527,0h.527l1.053,0,.527,0,.527.007h0s0,0,0,0l-.527.006-.527,0-1.053,0h-.527l-.527,0-.527,0-.527-.006a0,0,0,0,1,0,0A0,0,0,0,1,2057.459,737Z" transform="translate(-2057.371 -736.902)" fill="#fff"></path><path id="Path_37613" data-name="Path 37613" d="M2058.28,735.812h-1.054l-.7-.005-.352,0h-.083l0-.172.087,0,.34,0,.714-.005h1.054l1.773.009.336,0h.086l0,.171-.084,0-.35,0-.7.006Z" transform="translate(-2056.085 -735.611)" fill="#fff"></path></g><g id="Group_27234" data-name="Group 27234" transform="translate(0 3.193)"><path id="Path_37614" data-name="Path 37614" d="M2039.373,777.341l.806-.006.806,0,1.613,0,1.613,0,.806,0,.806.006a0,0,0,0,1,0,0s0,0,0,0l-.806.006-.806,0-1.613,0-1.613,0-.806,0-.806-.006a0,0,0,0,1,0,0A0,0,0,0,1,2039.373,777.341Z" transform="translate(-2039.285 -777.244)" fill="#fff"></path><path id="Path_37615" data-name="Path 37615" d="M2041.313,776.154l-2.42-.006-.891-.007,0-.173.087,0,1.613-.009,1.613,0,2.42.007.842.007.051.052,0,.12-.084,0-1.612.01Z" transform="translate(-2037.999 -775.953)" fill="#fff"></path></g><g id="Group_27235" data-name="Group 27235" transform="translate(0.258 4.44)"><path id="Path_37616" data-name="Path 37616" d="M2043.542,797.511l.742-.006.742,0,1.484,0,1.484,0,.742,0,.742.006h0s0,0,0,0l-.742.007-.742,0-1.484,0-1.484,0-.742,0-.742-.006a0,0,0,0,1,0,0A0,0,0,0,1,2043.542,797.511Z" transform="translate(-2043.454 -797.414)" fill="#fff"></path><path id="Path_37617" data-name="Path 37617" d="M2045.225,796.324l-2.227-.006-.777-.006-.052-.052v-.038l0-.083.085,0,1.484-.009,1.484,0,2.227.007.826.007,0,.172-.087,0-1.483.01Z" transform="translate(-2042.169 -796.123)" fill="#fff"></path></g><g id="Group_27236" data-name="Group 27236" transform="translate(1.217 5.692)"><path id="Path_37618" data-name="Path 37618" d="M2063.266,817.758h-4.214a.011.011,0,0,1,0-.023h4.214a.011.011,0,0,1,0,.023Z" transform="translate(-2058.955 -817.65)" fill="#fff"></path><path id="Path_37619" data-name="Path 37619" d="M2061.98,816.553h-4.214a.1.1,0,0,1,0-.193h4.214a.1.1,0,0,1,0,.193Z" transform="translate(-2057.67 -816.36)" fill="#fff"></path></g></g></g></g><g id="Group_27245" data-name="Group 27245" transform="translate(36.174 8.057)"><path id="Path_37625" data-name="Path 37625" d="M273.482,941.467s10.1,26.649,13.3,32.193c3.706,6.435,14.529,2.335,13.99-3.051s-13.183-27.646-13.183-27.646Z" transform="translate(-271.228 -899.631)" fill="#dc80ff"></path><path id="Path_37626" data-name="Path 37626" d="M468.2,297.31l52.266-21.775-.66,58.927-53.323-14.249Z" transform="translate(-452.29 -274.886)" fill="#dc80ff"></path><ellipse id="Ellipse_464" data-name="Ellipse 464" cx="6.17" cy="30.283" rx="6.17" ry="30.283" transform="translate(62.062 0)" fill="#9350ad"></ellipse><path id="Path_37627" data-name="Path 37627" d="M1281.448,349.769c-.558-.567-1.773-2.755-2.814-8.413a128.515,128.515,0,0,1,0-39.94c1.042-5.658,2.256-7.846,2.814-8.413.558.567,1.773,2.755,2.814,8.413a128.515,128.515,0,0,1,0,39.94C1283.221,347.014,1282.006,349.2,1281.448,349.769Z" transform="translate(-1212.747 -291.274)" fill="url(#linear-gradient)"></path><g id="Group_27244" data-name="Group 27244" transform="translate(64.326 1.729)"><g id="Group_27243" data-name="Group 27243" clip-path="url(#clip-path)"><path id="Path_37628" data-name="Path 37628" d="M1199.747,606.945c0,5.145-2.772,9.317-8.258,9.317s-9.933-4.171-9.933-9.317,4.447-9.317,9.933-9.317S1199.747,601.8,1199.747,606.945Z" transform="translate(-1187.464 -578.787)" fill="url(#linear-gradient-2)"></path></g></g><path id="Path_37630" data-name="Path 37630" d="M242.817,603.395a35.185,35.185,0,0,1,11.772.582,62.863,62.863,0,0,0,.464,24.609h-12.92A4.187,4.187,0,0,1,238,625.055c-.644-4.078-1.431-10.933-.592-16.439A6.2,6.2,0,0,1,242.817,603.395Z" transform="translate(-237.039 -582.238)" fill="url(#linear-gradient-3)"></path><path id="Path_37631" data-name="Path 37631" d="M289.948,666.741H279.882a.868.868,0,0,1-.728-1.339.208.208,0,1,1,.35.227.451.451,0,0,0,.378.7h10.066a.451.451,0,0,0,.451-.451v-.716a.451.451,0,0,0-.451-.451H279.808a.209.209,0,0,1,0-.417h10.141a.869.869,0,0,1,.868.868v.716A.869.869,0,0,1,289.948,666.741Z" transform="translate(-276.417 -639.596)" fill="#fff"></path><path id="Path_37632" data-name="Path 37632" d="M275.435,738.819H265.369a.868.868,0,0,1-.728-1.339.209.209,0,0,1,.35.227.451.451,0,0,0,.378.7h10.066a.451.451,0,0,0,.451-.451v-.716a.451.451,0,0,0-.451-.451H265.295a.209.209,0,0,1,0-.417h10.141a.869.869,0,0,1,.868.868v.716A.869.869,0,0,1,275.435,738.819Z" transform="translate(-262.801 -707.216)" fill="#fff"></path><path id="Path_37633" data-name="Path 37633" d="M638.616,365.076a.209.209,0,0,1-.079-.4l37.029-15.137a.209.209,0,1,1,.158.386L638.7,365.06A.207.207,0,0,1,638.616,365.076Z" transform="translate(-613.583 -344.298)" fill="#6A2186"></path><path id="Path_37634" data-name="Path 37634" d="M534.614,622.01a.209.209,0,0,1-.079-.4l2.448-1a.209.209,0,0,1,.158.386l-2.448,1A.208.208,0,0,1,534.614,622.01Z" transform="translate(-516.013 -598.602)" fill="#6A2186"></path><path id="Path_37635" data-name="Path 37635" d="M289.948,823.235H279.882a.868.868,0,0,1-.728-1.339.208.208,0,1,1,.35.227.451.451,0,0,0,.378.7h10.066a.451.451,0,0,0,.451-.451v-.716a.451.451,0,0,0-.451-.451H279.808a.209.209,0,0,1,0-.417h10.141a.869.869,0,0,1,.868.868v.716A.869.869,0,0,1,289.948,823.235Z" transform="translate(-276.417 -786.411)" fill="#fff"></path><path id="Path_37636" data-name="Path 37636" d="M305.186,916.935H295.12a.868.868,0,0,1-.728-1.339.209.209,0,1,1,.35.227.451.451,0,0,0,.378.7h10.066a.451.451,0,0,0,.451-.451v-.716a.451.451,0,0,0-.451-.451H295.046a.208.208,0,1,1,0-.417h10.141a.869.869,0,0,1,.868.868v.716A.869.869,0,0,1,305.186,916.935Z" transform="translate(-290.712 -874.316)" fill="#fff"></path><path id="Path_37637" data-name="Path 37637" d="M404.272,1130.075a6.524,6.524,0,0,1-1.389-.151,6.428,6.428,0,0,1-4.536-3.674l-8.042-17.867a.209.209,0,0,1,.38-.171l8.042,17.867a6.014,6.014,0,0,0,4.244,3.437,5.894,5.894,0,0,0,5.186-1.326q.114-.1.23-.205a.209.209,0,0,1,.281.308q-.119.108-.236.211A6.286,6.286,0,0,1,404.272,1130.075Z" transform="translate(-380.808 -1055.948)" fill="#6A2186"></path><path id="Path_37638" data-name="Path 37638" d="M357.66,1035.562a.209.209,0,0,1-.19-.123l-.9-1.993a.208.208,0,0,1,.38-.171l.9,1.993a.209.209,0,0,1-.19.294Z" transform="translate(-349.163 -985.645)" fill="#fff"></path><path id="Path_37639" data-name="Path 37639" d="M1305.785,626.122a.208.208,0,0,1-.208-.194,7.371,7.371,0,0,0-2.617-5.623c-2.689-2.064-6.522-1.355-6.561-1.348a.208.208,0,1,1-.079-.409c.164-.032,4.057-.751,6.893,1.427a7.766,7.766,0,0,1,2.779,5.924.208.208,0,0,1-.193.223Z" transform="translate(-1230.647 -596.554)" fill="#fff" opacity="0.67"></path></g><g id="Group_27251" data-name="Group 27251" transform="translate(131.628 55.322)"><path id="Path_37651" data-name="Path 37651" d="M1787.537,920.1l-6.275-.327a.853.853,0,0,0-.907.889l.162,5.771a.847.847,0,0,0,.906.808l5.959-.294a.82.82,0,0,0,.75-.8l.145-5.169A.825.825,0,0,0,1787.537,920.1Z" transform="translate(-1780.354 -919.776)" fill="url(#linear-gradient-4)"></path></g><g id="Group_27252" data-name="Group 27252" transform="translate(57.958 19.934)"><path id="Path_37656" data-name="Path 37656" d="M1751.454,370.379q.2.08.39.164a.278.278,0,0,1,.145.366.282.282,0,0,1-.061.089.278.278,0,0,1-.3.056q-.189-.082-.379-.159a.278.278,0,0,1,.21-.515Z" transform="translate(-1679.213 -368.952)" fill="#6A2186"></path><path id="Path_37657" data-name="Path 37657" d="M1689.559,856.868l.41-.063a.278.278,0,1,1,.086.549l-.414.064a.278.278,0,0,1-.082-.55Z" transform="translate(-1621.283 -825.308)" fill="#6A2186"></path><path id="Path_37658" data-name="Path 37658" d="M1730.325,362.659l.052.017q.175.057.349.118a.278.278,0,1,1-.183.525q-.169-.059-.339-.114l-.05-.016a.278.278,0,0,1,.171-.529Z" transform="translate(-1659.408 -361.716)" fill="#6A2186"></path><path id="Path_37659" data-name="Path 37659" d="M1708.687,356.532q.205.05.41.1a.278.278,0,1,1-.143.537q-.2-.053-.4-.1a.278.278,0,1,1,.132-.54Z" transform="translate(-1639.127 -355.973)" fill="#6A2186"></path><path id="Path_37660" data-name="Path 37660" d="M1711.74,853.089l.408-.074a.278.278,0,1,1,.1.547l-.413.075a.278.278,0,0,1-.1-.547Z" transform="translate(-1642.099 -821.752)" fill="#6A2186"></path><path id="Path_37661" data-name="Path 37661" d="M1733.813,848.7l.406-.085a.278.278,0,1,1,.117.544l-.411.086a.278.278,0,1,1-.112-.545Z" transform="translate(-1662.813 -817.621)" fill="#6A2186"></path><path id="Path_37662" data-name="Path 37662" d="M1791.376,390.388a.279.279,0,0,1,.381-.1q.182.107.362.217a.278.278,0,1,1-.291.474q-.175-.108-.353-.212A.278.278,0,0,1,1791.376,390.388Z" transform="translate(-1716.989 -387.614)" fill="#6A2186"></path><path id="Path_37663" data-name="Path 37663" d="M1798.895,830.482q.195-.068.388-.139a.278.278,0,1,1,.192.522q-.2.073-.4.142a.278.278,0,1,1-.182-.525Z" transform="translate(-1723.903 -800.471)" fill="#6A2186"></path><path id="Path_37664" data-name="Path 37664" d="M1771.961,379.61q.19.094.377.191a.278.278,0,1,1-.257.493q-.183-.1-.367-.186a.278.278,0,1,1,.246-.5Z" transform="translate(-1698.434 -377.604)" fill="#6A2186"></path><path id="Path_37665" data-name="Path 37665" d="M1755.751,843.606l.4-.1a.278.278,0,0,1,.137.539l-.408.1a.278.278,0,0,1-.131-.541Z" transform="translate(-1683.404 -812.827)" fill="#6A2186"></path><path id="Path_37666" data-name="Path 37666" d="M1777.48,837.593q.2-.057.4-.118a.278.278,0,0,1,.162.532q-.2.062-.4.12a.278.278,0,0,1-.154-.534Z" transform="translate(-1703.8 -807.166)" fill="#6A2186"></path><path id="Path_37667" data-name="Path 37667" d="M1641.919,347.653q.211.006.422.016a.278.278,0,1,1-.027.555q-.205-.01-.411-.015a.278.278,0,1,1,.015-.556Z" transform="translate(-1576.543 -347.651)" fill="#6A2186"></path><path id="Path_37668" data-name="Path 37668" d="M1597,348.908q.21-.023.421-.042a.278.278,0,1,1,.05.554q-.2.019-.409.041a.278.278,0,0,1-.061-.553Z" transform="translate(-1534.439 -348.787)" fill="#6A2186"></path><path id="Path_37669" data-name="Path 37669" d="M1600.183,866.479l.414-.025a.278.278,0,0,1,.035.555l-.417.025a.278.278,0,1,1-.032-.555Z" transform="translate(-1537.411 -834.363)" fill="#6A2186"></path><path id="Path_37670" data-name="Path 37670" d="M1577.74,867.673l.415-.017a.278.278,0,0,1,.025.556l-.418.017a.278.278,0,1,1-.021-.556Z" transform="translate(-1516.351 -835.491)" fill="#6A2186"></path><path id="Path_37671" data-name="Path 37671" d="M1619.426,347.627q.211-.009.423-.013a.278.278,0,1,1,.012.556q-.206,0-.411.013a.278.278,0,1,1-.023-.556Z" transform="translate(-1555.46 -347.614)" fill="#6A2186"></path><path id="Path_37672" data-name="Path 37672" d="M1574.749,351.73q.208-.038.417-.071a.278.278,0,1,1,.088.549q-.2.033-.406.069a.278.278,0,1,1-.1-.547Z" transform="translate(-1513.581 -351.405)" fill="#6A2186"></path><path id="Path_37673" data-name="Path 37673" d="M1555.289,868.453l.415-.01a.278.278,0,1,1,.015.556l-.418.01a.278.278,0,1,1-.011-.556Z" transform="translate(-1495.284 -836.23)" fill="#6A2186"></path><path id="Path_37674" data-name="Path 37674" d="M1622.6,864.836l.414-.034a.278.278,0,1,1,.047.554l-.417.034a.278.278,0,0,1-.043-.554Z" transform="translate(-1558.443 -832.814)" fill="#6A2186"></path><path id="Path_37675" data-name="Path 37675" d="M1667.3,860.064l.412-.053a.278.278,0,0,1,.072.551l-.415.053a.278.278,0,1,1-.069-.552Z" transform="translate(-1600.393 -828.318)" fill="#6A2186"></path><path id="Path_37676" data-name="Path 37676" d="M1664.367,349.038q.211.02.421.045a.278.278,0,1,1-.065.552q-.2-.024-.409-.044a.278.278,0,1,1,.053-.553Z" transform="translate(-1597.585 -348.949)" fill="#6A2186"></path><path id="Path_37677" data-name="Path 37677" d="M1644.973,862.71l.413-.043a.278.278,0,1,1,.059.553l-.417.043a.278.278,0,0,1-.056-.553Z" transform="translate(-1579.442 -830.81)" fill="#6A2186"></path><path id="Path_37678" data-name="Path 37678" d="M1810.366,402.4a.277.277,0,0,1,.386-.073q.175.119.347.242a.278.278,0,0,1-.323.452q-.167-.12-.337-.236A.278.278,0,0,1,1810.366,402.4Z" transform="translate(-1734.794 -398.896)" fill="#6A2186"></path><path id="Path_37679" data-name="Path 37679" d="M1686.662,351.994q.209.035.416.075a.278.278,0,1,1-.1.546q-.2-.038-.4-.073a.278.278,0,0,1,.093-.548Z" transform="translate(-1618.483 -351.72)" fill="#6A2186"></path><path id="Path_37680" data-name="Path 37680" d="M1895.089,771.366a.278.278,0,0,1,.408.378q-.145.157-.3.308l0,0a.278.278,0,0,1-.391-.4Q1894.95,771.515,1895.089,771.366Z" transform="translate(-1813.982 -745.073)" fill="#6A2186"></path><path id="Path_37681" data-name="Path 37681" d="M1943.208,604.174a.278.278,0,0,1-.313-.238q-.027-.2-.061-.406a.278.278,0,0,1,.549-.089q.034.21.063.42a.278.278,0,0,1-.238.313Z" transform="translate(-1859.112 -587.399)" fill="#6A2186"></path><path id="Path_37682" data-name="Path 37682" d="M1945.784,626.5a.278.278,0,0,1-.29-.265q-.009-.2-.024-.409a.278.278,0,0,1,.555-.04q.016.212.025.424a.278.278,0,0,1-.265.29Z" transform="translate(-1861.587 -608.342)" fill="#6A2186"></path><path id="Path_37683" data-name="Path 37683" d="M1938.728,582.153a.278.278,0,0,1-.332-.21q-.045-.2-.095-.4a.278.278,0,0,1,.539-.135q.051.206.1.412a.278.278,0,0,1-.21.332Z" transform="translate(-1854.854 -566.751)" fill="#6A2186"></path><path id="Path_37684" data-name="Path 37684" d="M1946.107,648.976a.278.278,0,0,1-.264-.292q.01-.2.014-.409a.278.278,0,0,1,.556.011q0,.213-.015.426a.278.278,0,0,1-.292.264Z" transform="translate(-1861.938 -629.424)" fill="#6A2186"></path><path id="Path_37685" data-name="Path 37685" d="M1943.826,671.394a.278.278,0,0,1-.233-.317q.031-.2.056-.405a.278.278,0,0,1,.552.067q-.026.212-.058.422a.278.278,0,0,1-.317.232Z" transform="translate(-1859.824 -650.462)" fill="#6A2186"></path><path id="Path_37686" data-name="Path 37686" d="M1891.136,481.116a.278.278,0,0,1-.387-.071q-.117-.169-.237-.335a.278.278,0,1,1,.45-.326q.124.171.244.345a.278.278,0,0,1-.035.357A.287.287,0,0,1,1891.136,481.116Z" transform="translate(-1809.979 -472.064)" fill="#6A2186"></path><path id="Path_37687" data-name="Path 37687" d="M1903.615,499.8a.278.278,0,0,1-.381-.1q-.1-.177-.213-.352a.278.278,0,0,1,.473-.293q.111.18.219.362a.278.278,0,0,1-.046.341A.27.27,0,0,1,1903.615,499.8Z" transform="translate(-1821.725 -489.568)" fill="#6A2186"></path><path id="Path_37688" data-name="Path 37688" d="M1932.433,560.585a.278.278,0,0,1-.348-.183q-.061-.2-.127-.389a.278.278,0,0,1,.526-.179q.068.2.132.4a.278.278,0,0,1-.183.348Z" transform="translate(-1848.898 -546.531)" fill="#6A2186"></path><path id="Path_37689" data-name="Path 37689" d="M1819.869,822.081q.19-.08.377-.164a.278.278,0,1,1,.226.508q-.193.086-.388.168a.278.278,0,1,1-.216-.512Z" transform="translate(-1743.596 -792.559)" fill="#6A2186"></path><path id="Path_37690" data-name="Path 37690" d="M1914.729,519.332a.278.278,0,0,1-.373-.125q-.092-.184-.187-.366a.278.278,0,0,1,.492-.259q.1.187.193.377a.277.277,0,0,1-.125.373Z" transform="translate(-1832.193 -507.869)" fill="#6A2186"></path><path id="Path_37691" data-name="Path 37691" d="M1924.388,539.618a.278.278,0,0,1-.362-.153q-.057-.141-.117-.28l-.042-.1a.278.278,0,0,1,.51-.221l.043.1q.062.144.121.29a.278.278,0,0,1-.153.362Z" transform="translate(-1841.299 -526.88)" fill="#6A2186"></path><path id="Path_37692" data-name="Path 37692" d="M1938.954,693.166q.053-.2.1-.395a.278.278,0,1,1,.541.127q-.049.208-.1.414a.278.278,0,1,1-.536-.146Z" transform="translate(-1855.466 -671.222)" fill="#6A2186"></path><path id="Path_37693" data-name="Path 37693" d="M1859.717,800.585q.173-.109.342-.223a.278.278,0,0,1,.311.461q-.176.118-.356.232a.278.278,0,1,1-.3-.47Z" transform="translate(-1781.017 -772.315)" fill="#6A2186"></path><path id="Path_37694" data-name="Path 37694" d="M1862.42,446.58a.278.278,0,0,1-.393-.016q-.139-.151-.282-.3a.278.278,0,0,1,.007-.392h0a.278.278,0,0,1,.393.008q.146.153.289.308a.278.278,0,0,1-.011.388Z" transform="translate(-1782.969 -439.721)" fill="#6A2186"></path><path id="Path_37695" data-name="Path 37695" d="M1845.652,430.608a.278.278,0,1,1,.374-.412q.156.142.31.287a.278.278,0,0,1,.011.393l-.008.008a.278.278,0,0,1-.385,0Q1845.8,430.746,1845.652,430.608Z" transform="translate(-1767.858 -425.021)" fill="#6A2186"></path><path id="Path_37696" data-name="Path 37696" d="M1828.48,415.7a.279.279,0,0,1,.39-.046q.166.131.329.265a.279.279,0,0,1,.038.392l-.021.023a.278.278,0,0,1-.37.015q-.159-.131-.32-.258A.278.278,0,0,1,1828.48,415.7Z" transform="translate(-1751.778 -411.393)" fill="#6A2186"></path><path id="Path_37697" data-name="Path 37697" d="M1840.219,812.182q.182-.094.362-.192a.278.278,0,0,1,.327.443.286.286,0,0,1-.061.045q-.186.1-.375.2a.278.278,0,1,1-.254-.495Z" transform="translate(-1762.705 -783.237)" fill="#6A2186"></path><path id="Path_37698" data-name="Path 37698" d="M1922,735.155q.1-.176.193-.356a.278.278,0,1,1,.494.256q-.1.189-.2.376a.278.278,0,1,1-.483-.276Z" transform="translate(-1839.534 -710.712)" fill="#6A2186"></path><path id="Path_37699" data-name="Path 37699" d="M1931.785,714.648q.077-.188.146-.379a.278.278,0,1,1,.522.19q-.073.2-.154.4a.278.278,0,1,1-.515-.21Z" transform="translate(-1848.729 -691.42)" fill="#6A2186"></path><path id="Path_37700" data-name="Path 37700" d="M1877.148,462.632q.135.162.268.327a.278.278,0,0,1-.023.373l-.02.018a.278.278,0,0,1-.391-.043q-.129-.161-.26-.319a.278.278,0,0,1,.427-.356Z" transform="translate(-1797.03 -455.424)" fill="#6A2186"></path><path id="Path_37701" data-name="Path 37701" d="M1909.674,754.173q.084-.113.165-.227a.278.278,0,1,1,.455.32q-.086.121-.175.24l-.079.1a.284.284,0,0,1-.028.031.278.278,0,0,1-.414-.369Z" transform="translate(-1827.881 -728.704)" fill="#6A2186"></path><path id="Path_37702" data-name="Path 37702" d="M1878.032,787.112q.16-.126.316-.258a.278.278,0,0,1,.374.411l-.014.013q-.163.138-.33.27a.278.278,0,0,1-.344-.436Z" transform="translate(-1798.222 -759.626)" fill="#6A2186"></path><path id="Path_37703" data-name="Path 37703" d="M1552.771,356.077q.205-.052.411-.1a.278.278,0,0,1,.125.542q-.2.046-.4.1a.278.278,0,0,1-.137-.539Z" transform="translate(-1492.981 -355.453)" fill="#6A2186"></path><path id="Path_37704" data-name="Path 37704" d="M949.3,856.273l.416-.05a.278.278,0,0,1,.065.552l-.411.05a.278.278,0,1,1-.069-.552Z" transform="translate(-926.8 -824.764)" fill="#6A2186"></path><path id="Path_37705" data-name="Path 37705" d="M927.035,859.191l.415-.061a.278.278,0,1,1,.079.55l-.41.061a.278.278,0,0,1-.084-.55Z" transform="translate(-905.921 -827.49)" fill="#6A2186"></path><path id="Path_37706" data-name="Path 37706" d="M882.8,866.815l.411-.084a.278.278,0,1,1,.109.545l-.406.083a.278.278,0,1,1-.114-.544Z" transform="translate(-864.432 -834.618)" fill="#6A2186"></path><path id="Path_37707" data-name="Path 37707" d="M904.863,862.7l.413-.073a.278.278,0,0,1,.094.548l-.408.072a.278.278,0,1,1-.1-.547Z" transform="translate(-885.128 -830.768)" fill="#6A2186"></path><path id="Path_37708" data-name="Path 37708" d="M860.856,871.56l.408-.1a.278.278,0,0,1,.125.542l-.4.095a.278.278,0,0,1-.13-.541Z" transform="translate(-843.856 -839.057)" fill="#6A2186"></path><path id="Path_37709" data-name="Path 37709" d="M1532.824,868.852l.416,0a.278.278,0,0,1,.005.556l-.418,0a.278.278,0,0,1,0-.556Z" transform="translate(-1474.205 -836.611)" fill="#6A2186"></path><path id="Path_37710" data-name="Path 37710" d="M839.067,876.952l.406-.108a.278.278,0,1,1,.141.538l-.4.107a.278.278,0,0,1-.146-.536Z" transform="translate(-823.424 -844.102)" fill="#6A2186"></path><path id="Path_37711" data-name="Path 37711" d="M1038.892,849.66l.418-.015a.278.278,0,1,1,.019.556l-.415.015a.278.278,0,1,1-.021-.556Z" transform="translate(-1010.83 -818.594)" fill="#6A2186"></path><path id="Path_37712" data-name="Path 37712" d="M971.628,853.9l.417-.041a.278.278,0,0,1,.052.554l-.413.04a.278.278,0,1,1-.056-.553Z" transform="translate(-947.743 -822.551)" fill="#6A2186"></path><path id="Path_37713" data-name="Path 37713" d="M1061.363,849.087l.418-.008a.278.278,0,1,1,.01.556l-.416.008a.278.278,0,1,1-.012-.556Z" transform="translate(-1031.907 -818.064)" fill="#6A2186"></path><path id="Path_37714" data-name="Path 37714" d="M1016.439,850.627l.418-.023a.278.278,0,0,1,.029.555l-.415.023a.278.278,0,0,1-.032-.555Z" transform="translate(-989.771 -819.494)" fill="#6A2186"></path><path id="Path_37715" data-name="Path 37715" d="M994.011,852.031l.417-.031a.278.278,0,0,1,.04.555l-.414.031a.278.278,0,0,1-.043-.554Z" transform="translate(-968.736 -820.803)" fill="#6A2186"></path><path id="Path_37716" data-name="Path 37716" d="M655.648,958.321q.173-.12.346-.238a.278.278,0,0,1,.35.429.282.282,0,0,1-.038.031q-.171.116-.341.234a.278.278,0,1,1-.318-.456Z" transform="translate(-651.429 -920.28)" fill="#6A2186"></path><path id="Path_37717" data-name="Path 37717" d="M1083.838,848.878h.419a.278.278,0,0,1,0,.556l-.416,0a.278.278,0,0,1,0-.556Z" transform="translate(-1052.988 -817.874)" fill="#6A2186"></path><path id="Path_37718" data-name="Path 37718" d="M637.519,971.376q.167-.128.335-.254a.278.278,0,0,1,.361.422.272.272,0,0,1-.027.023q-.165.124-.329.25a.278.278,0,0,1-.339-.441Z" transform="translate(-634.431 -932.507)" fill="#6A2186"></path><path id="Path_37719" data-name="Path 37719" d="M603.284,1000.006q.154-.144.309-.286a.278.278,0,0,1,.381.4l-.006.006q-.152.139-.3.28a.278.278,0,0,1-.393-.012A.275.275,0,0,1,603.284,1000.006Z" transform="translate(-602.332 -959.319)" fill="#6A2186"></path><path id="Path_38086" data-name="Path 38086" d="M603.284,1000.006q.154-.144.309-.286a.278.278,0,0,1,.381.4l-.006.006q-.152.139-.3.28a.278.278,0,0,1-.393-.012A.275.275,0,0,1,603.284,1000.006Z" transform="translate(-603.195 -958.48)" fill="#6A2186"></path><path id="Path_37720" data-name="Path 37720" d="M674.37,946.109q.178-.113.357-.223a.278.278,0,0,1,.291.474l-.351.219a.278.278,0,1,1-.3-.47Z" transform="translate(-668.983 -908.845)" fill="#6A2186"></path><path id="Path_37721" data-name="Path 37721" d="M620.052,985.273q.16-.136.323-.27a.278.278,0,0,1,.371.414l-.017.015q-.159.131-.316.265a.278.278,0,0,1-.36-.424Z" transform="translate(-618.054 -945.521)" fill="#6A2186"></path><path id="Path_37722" data-name="Path 37722" d="M733.525,914.414l.381-.177a.278.278,0,1,1,.231.506l-.376.174a.278.278,0,1,1-.237-.5Z" transform="translate(-724.451 -879.168)" fill="#6A2186"></path><path id="Path_37723" data-name="Path 37723" d="M774.923,897.233l.393-.148a.278.278,0,1,1,.193.521l-.388.146a.278.278,0,0,1-.2-.519Z" transform="translate(-763.271 -863.084)" fill="#6A2186"></path><path id="Path_37724" data-name="Path 37724" d="M754.063,905.444q.193-.082.388-.162a.278.278,0,1,1,.212.514l-.382.16a.278.278,0,0,1-.218-.512Z" transform="translate(-743.71 -870.771)" fill="#6A2186"></path><path id="Path_37725" data-name="Path 37725" d="M713.366,924.167q.187-.1.375-.192a.278.278,0,1,1,.251.5l-.368.189a.278.278,0,1,1-.257-.493Z" transform="translate(-705.548 -888.299)" fill="#6A2186"></path><path id="Path_37726" data-name="Path 37726" d="M693.63,934.728q.182-.1.366-.207a.278.278,0,1,1,.271.486q-.181.1-.36.2a.278.278,0,1,1-.277-.482Z" transform="translate(-687.042 -898.188)" fill="#6A2186"></path><path id="Path_37727" data-name="Path 37727" d="M796.07,889.766l.4-.135a.278.278,0,1,1,.175.528l-.393.133a.278.278,0,1,1-.181-.526Z" transform="translate(-783.101 -856.095)" fill="#6A2186"></path><path id="Path_37728" data-name="Path 37728" d="M817.464,883.011l.4-.121a.278.278,0,1,1,.158.533l-.4.12a.278.278,0,0,1-.163-.532Z" transform="translate(-803.164 -849.773)" fill="#6A2186"></path><path id="Path_37729" data-name="Path 37729" d="M1442.967,867.069l.416.017a.278.278,0,0,1-.022.556l-.418-.017a.278.278,0,0,1,.024-.556Z" transform="translate(-1389.892 -834.941)" fill="#6A2186"></path><path id="Path_37730" data-name="Path 37730" d="M1465.424,867.917l.416.013a.278.278,0,1,1-.017.556l-.417-.013a.278.278,0,1,1,.018-.556Z" transform="translate(-1410.963 -835.736)" fill="#6A2186"></path><path id="Path_37731" data-name="Path 37731" d="M1375.631,863.452l.416.026a.278.278,0,0,1-.034.555l-.417-.026a.278.278,0,1,1,.035-.555Z" transform="translate(-1326.716 -831.547)" fill="#6A2186"></path><path id="Path_37732" data-name="Path 37732" d="M1469.723,388.862a.277.277,0,0,1,.1-.381q.182-.108.366-.212a.278.278,0,0,1,.273.484q-.179.1-.356.206A.278.278,0,0,1,1469.723,388.862Z" transform="translate(-1415.229 -385.721)" fill="#6A2186"></path><path id="Path_38084" data-name="Path 38084" d="M1469.723,388.862a.277.277,0,0,1,.1-.381q.182-.108.366-.212a.278.278,0,0,1,.273.484q-.179.1-.356.206A.278.278,0,0,1,1469.723,388.862Z" transform="translate(-1416.484 -384.968)" fill="#6A2186"></path><path id="Path_38085" data-name="Path 38085" d="M1469.723,388.862a.277.277,0,0,1,.1-.381q.182-.108.366-.212a.278.278,0,0,1,.273.484q-.179.1-.356.206A.278.278,0,0,1,1469.723,388.862Z" transform="translate(-1417.739 -384.215)" fill="#6A2186"></path><path id="Path_37733" data-name="Path 37733" d="M1398.069,864.805l.416.023a.278.278,0,0,1-.031.555l-.417-.023a.278.278,0,1,1,.031-.555Z" transform="translate(-1347.768 -832.817)" fill="#6A2186"></path><path id="Path_37734" data-name="Path 37734" d="M1420.52,866.021l.416.021a.278.278,0,0,1-.027.555l-.417-.021a.278.278,0,0,1,.029-.555Z" transform="translate(-1368.832 -833.958)" fill="#6A2186"></path><path id="Path_37735" data-name="Path 37735" d="M1531.172,361.935q.2-.066.4-.128a.278.278,0,0,1,.275.465.274.274,0,0,1-.112.066q-.2.06-.392.125a.278.278,0,1,1-.174-.528Z" transform="translate(-1472.734 -360.918)" fill="#6A2186"></path><path id="Path_37736" data-name="Path 37736" d="M1510.357,868.864l.416,0a.278.278,0,0,1,0,.556l-.418,0a.278.278,0,1,1,.005-.556Z" transform="translate(-1453.124 -836.625)" fill="#6A2186"></path><path id="Path_37737" data-name="Path 37737" d="M1510.074,369.3q.2-.08.393-.156a.278.278,0,1,1,.2.519q-.192.074-.382.152a.278.278,0,0,1-.211-.515Z" transform="translate(-1452.959 -367.796)" fill="#6A2186"></path><path id="Path_37738" data-name="Path 37738" d="M1487.89,868.525l.416.008a.278.278,0,1,1-.01.556l-.418-.008a.278.278,0,0,1,.012-.556Z" transform="translate(-1432.042 -836.307)" fill="#6A2186"></path><path id="Path_37739" data-name="Path 37739" d="M1490.2,378.472q-.186.088-.37.179a.278.278,0,0,1-.248-.5q.19-.094.381-.184a.278.278,0,0,1,.312.451A.275.275,0,0,1,1490.2,378.472Z" transform="translate(-1433.753 -376.067)" fill="#6A2186"></path><path id="Path_37740" data-name="Path 37740" d="M1106.323,848.935l.418,0a.278.278,0,1,1-.007.556l-.416,0a.278.278,0,1,1,.005-.556Z" transform="translate(-1074.079 -817.928)" fill="#6A2186"></path><path id="Path_37741" data-name="Path 37741" d="M1218.646,853.01l.417.024a.278.278,0,0,1-.033.555l-.416-.024a.278.278,0,1,1,.031-.555Z" transform="translate(-1179.442 -821.751)" fill="#6A2186"></path><path id="Path_37742" data-name="Path 37742" d="M1173.742,850.735l.418.018a.278.278,0,0,1-.025.555l-.416-.018a.278.278,0,0,1,.023-.556Z" transform="translate(-1137.319 -819.617)" fill="#6A2186"></path><path id="Path_37743" data-name="Path 37743" d="M1196.2,851.789l.417.022a.278.278,0,0,1-.029.555l-.416-.022a.278.278,0,1,1,.028-.555Z" transform="translate(-1158.384 -820.605)" fill="#6A2186"></path><path id="Path_37744" data-name="Path 37744" d="M1353.2,861.993l.416.028a.278.278,0,1,1-.036.555l-.417-.028a.278.278,0,0,1,.037-.555Z" transform="translate(-1305.669 -830.178)" fill="#6A2186"></path><path id="Path_37745" data-name="Path 37745" d="M1151.279,849.887l.417.014a.278.278,0,0,1-.02.556l-.416-.014a.278.278,0,1,1,.019-.556Z" transform="translate(-1116.247 -818.821)" fill="#6A2186"></path><path id="Path_37746" data-name="Path 37746" d="M1128.8,849.278l.418.01a.278.278,0,1,1-.014.556l-.416-.01a.278.278,0,1,1,.012-.556Z" transform="translate(-1095.165 -818.25)" fill="#6A2186"></path><path id="Path_37747" data-name="Path 37747" d="M1241.085,854.365l.417.026a.278.278,0,1,1-.036.555l-.416-.027a.278.278,0,1,1,.035-.555Z" transform="translate(-1200.492 -823.022)" fill="#6A2186"></path><path id="Path_37748" data-name="Path 37748" d="M1308.359,858.9l.416.029a.278.278,0,0,1-.039.555l-.416-.029a.278.278,0,1,1,.038-.555Z" transform="translate(-1263.603 -827.28)" fill="#6A2186"></path><path id="Path_37749" data-name="Path 37749" d="M1330.778,860.462l.416.029a.278.278,0,1,1-.038.555l-.416-.029a.278.278,0,1,1,.038-.555Z" transform="translate(-1284.636 -828.742)" fill="#6A2186"></path><path id="Path_37750" data-name="Path 37750" d="M1263.515,855.822l.417.028a.278.278,0,0,1-.037.555l-.416-.028a.278.278,0,0,1,.037-.555Z" transform="translate(-1221.534 -824.389)" fill="#6A2186"></path><path id="Path_37751" data-name="Path 37751" d="M1285.941,857.342l.416.029a.278.278,0,0,1-.039.555l-.416-.029a.278.278,0,0,1,.039-.555Z" transform="translate(-1242.571 -825.815)" fill="#6A2186"></path></g><g id="Group_27362" data-name="Group 27362" transform="translate(115.27 10.088)"><path id="Path_37600" data-name="Path 37600" d="M1549.011,377.909v3.8a.846.846,0,0,0,.807.845l4.757.224a.846.846,0,0,0,.886-.845v-4.027a.846.846,0,0,0-.846-.846h-4.757A.846.846,0,0,0,1549.011,377.909Z" transform="translate(-1549.011 -377.063)" fill="url(#linear-gradient-5)"></path><path id="twitter-bird" d="M4.162.4a1.729,1.729,0,0,1-.427.441q0,.049,0,.111a2.452,2.452,0,0,1-.4,1.343,2.594,2.594,0,0,1-.489.556,2.179,2.179,0,0,1-.682.386,2.49,2.49,0,0,1-.853.144A2.376,2.376,0,0,1,0,3a1.846,1.846,0,0,0,.2.012,1.674,1.674,0,0,0,1.06-.366.828.828,0,0,1-.5-.17.839.839,0,0,1-.3-.423.853.853,0,0,0,.386-.014.832.832,0,0,1-.49-.294A.826.826,0,0,1,.168,1.2V1.188A.843.843,0,0,0,.555,1.3a.848.848,0,0,1-.277-.3.833.833,0,0,1-.1-.406A.839.839,0,0,1,.29.156a2.431,2.431,0,0,0,.778.63,2.373,2.373,0,0,0,.981.262A.835.835,0,0,1,2.027.854a.822.822,0,0,1,.25-.6A.854.854,0,0,1,3.5.269,1.7,1.7,0,0,0,4.046.062a.825.825,0,0,1-.375.472A1.706,1.706,0,0,0,4.162.4Z" transform="translate(1.144 1.17)" fill="#fff"></path></g><path id="linkedin" d="M.933,3.927V1.277H.052v2.65ZM.492.915A.459.459,0,1,0,.5,0,.459.459,0,1,0,.487.915H.492ZM1.42,3.927H2.3V2.447a.6.6,0,0,1,.029-.215.482.482,0,0,1,.452-.322c.319,0,.446.243.446.6V3.927h.881V2.408c0-.814-.434-1.192-1.014-1.192a.877.877,0,0,0-.8.446H2.3V1.277H1.42c.012.249,0,2.65,0,2.65Z" transform="translate(133.535 57.094)" fill="#fff"></path></g></g><g id="Group_26804" data-name="Group 26804" transform="translate(124.826 95.079)"><path id="Path_37184" data-name="Path 37184" d="M2821.4,760.86l-13.889,18.9,2.472,22.362H2821.4Z" transform="translate(-2805.114 -758.172)" fill="#FFD100"></path><path id="Path_37185" data-name="Path 37185" d="M3166.912,760.86l13.89,18.9-2.472,22.362h-11.417Z" transform="translate(-3150.512 -758.172)" fill="#FFD100"></path><g id="Group_26804-2" data-name="Group 26804" transform="translate(7.136 87.056)"><g id="Group_26803" data-name="Group 26803"><path id="Path_37186" data-name="Path 37186" d="M2960.125,2938.609l1.257-12.142-5.606-.857.554,13a1.331,1.331,0,0,1-.231.75l-.625.916h5.507l-.625-.916A1.33,1.33,0,0,1,2960.125,2938.609Z" transform="translate(-2954.45 -2925.61)" fill="#fbd3a8"></path><path id="Path_37187" data-name="Path 37187" d="M2929.207,3275.181v1.315c.292.763,7.44.792,7.555,0v-1.216a2.4,2.4,0,0,0-.117-.745,3.884,3.884,0,0,0-7.367.064A2.366,2.366,0,0,0,2929.207,3275.181Z" transform="translate(-2929.207 -3258.415)" fill="#6A2186"></path><path id="Path_37188" data-name="Path 37188" d="M2946.29,3317.221c.844-1.888,5.414-1.893,6.189-.013a.216.216,0,0,1-.138.29,13.727,13.727,0,0,1-5.929.016A.216.216,0,0,1,2946.29,3317.221Z" transform="translate(-2945.605 -3300.595)" fill="#ffd9a4"></path><path id="Path_37189" data-name="Path 37189" d="M3048.824,3347.366l.229-.74a.11.11,0,0,1,.208,0l.184.7Z" transform="translate(-3044.163 -3330.147)" fill="#6A2186"></path><path id="Path_37190" data-name="Path 37190" d="M2930.916,3297.132a1.128,1.128,0,0,0,0,1.447,2.928,2.928,0,0,1-1.7-.483l-.005-1.315a3.092,3.092,0,0,1,1.291-2.394.891.891,0,0,0,.631,1.188,1.862,1.862,0,0,0-1.3,1.109C2929.824,3297.031,2930.314,3297.112,2930.916,3297.132Z" transform="translate(-2929.207 -3280.014)" fill="#6A2186"></path><path id="Path_37191" data-name="Path 37191" d="M2947.531,3333.021c-.288.383-.294,1-.093,1.158-.278-.037-.5-.1-.544-.267A1.561,1.561,0,0,1,2947.531,3333.021Z" transform="translate(-2946.205 -3317.143)" fill="#f8a364" opacity="0.35"></path><path id="Path_37192" data-name="Path 37192" d="M3090.741,3331.922c.288.383.294,1,.093,1.158.278-.037.5-.1.544-.267A1.561,1.561,0,0,0,3090.741,3331.922Z" transform="translate(-3084.445 -3316.087)" fill="#f8a364" opacity="0.35"></path><path id="Path_37193" data-name="Path 37193" d="M3057.621,3291.3c.458.286.761.626.677.76s-.522.01-.98-.277-.761-.627-.677-.76S3057.164,3291.014,3057.621,3291.3Z" transform="translate(-3051.662 -3276.731)" fill="#fff" opacity="0.2"></path><path id="Path_37194" data-name="Path 37194" d="M3091.987,3355.488a.015.015,0,0,1,.031,0l.055.964a.141.141,0,0,1-.128.141l-.86.109a.017.017,0,0,1-.007-.033l.7-.225a.142.142,0,0,0,.1-.109Z" transform="translate(-3084.757 -3338.721)" fill="#fff" opacity="0.2"></path></g><path id="Path_37195" data-name="Path 37195" d="M2979,3203.329a5.967,5.967,0,0,1-3.937-.078l-.051-1.2,4.16.056Z" transform="translate(-2973.223 -3191.275)" fill="#f8a364" opacity="0.35"></path></g><g id="Group_26806" data-name="Group 26806" transform="translate(17.659 87.056)"><g id="Group_26805" data-name="Group 26805"><path id="Path_37196" data-name="Path 37196" d="M3216.428,2938.609l-1.258-12.142,5.606-.857-.553,13a1.331,1.331,0,0,0,.231.75l.625.916h-5.507l.625-.916A1.331,1.331,0,0,0,3216.428,2938.609Z" transform="translate(-3214.548 -2925.61)" fill="#fbd3a8"></path><path id="Path_37197" data-name="Path 37197" d="M3206.761,3275.181v1.315c-.292.763-7.44.792-7.555,0v-1.216a2.39,2.39,0,0,1,.117-.745,3.884,3.884,0,0,1,7.367.064A2.378,2.378,0,0,1,3206.761,3275.181Z" transform="translate(-3199.207 -3258.415)" fill="#6A2186"></path><path id="Path_37198" data-name="Path 37198" d="M3222.474,3317.221c-.844-1.888-5.414-1.893-6.189-.013a.216.216,0,0,0,.138.29,13.728,13.728,0,0,0,5.93.016A.216.216,0,0,0,3222.474,3317.221Z" transform="translate(-3215.604 -3300.595)" fill="#ffd9a4"></path><path id="Path_37199" data-name="Path 37199" d="M3258.135,3347.366l-.229-.74a.11.11,0,0,0-.208,0l-.184.7Z" transform="translate(-3255.243 -3330.147)" fill="#6A2186"></path><path id="Path_37200" data-name="Path 37200" d="M3343.932,3297.132a1.128,1.128,0,0,1,0,1.447,2.928,2.928,0,0,0,1.7-.483l.005-1.315a3.092,3.092,0,0,0-1.291-2.394.891.891,0,0,1-.631,1.188,1.862,1.862,0,0,1,1.3,1.109C3345.023,3297.031,3344.534,3297.112,3343.932,3297.132Z" transform="translate(-3338.086 -3280.014)" fill="#6A2186"></path><path id="Path_37201" data-name="Path 37201" d="M3359.017,3333.021c.288.383.293,1,.093,1.158.279-.037.5-.1.544-.267A1.562,1.562,0,0,0,3359.017,3333.021Z" transform="translate(-3352.789 -3317.143)" fill="#f8a364" opacity="0.35"></path><path id="Path_37202" data-name="Path 37202" d="M3215.807,3331.922c-.288.383-.294,1-.093,1.158-.279-.037-.5-.1-.544-.267A1.563,1.563,0,0,1,3215.807,3331.922Z" transform="translate(-3214.548 -3316.087)" fill="#f8a364" opacity="0.35"></path><path id="Path_37203" data-name="Path 37203" d="M3223.089,3291.3c-.458.286-.76.626-.677.76s.522.01.98-.277.761-.627.677-.76S3223.547,3291.014,3223.089,3291.3Z" transform="translate(-3221.495 -3276.731)" fill="#fff" opacity="0.2"></path><path id="Path_37204" data-name="Path 37204" d="M3205.424,3355.488a.015.015,0,0,0-.031,0l-.055.964a.141.141,0,0,0,.129.141l.86.109a.017.017,0,0,0,.007-.033l-.7-.225a.142.142,0,0,1-.1-.109Z" transform="translate(-3205.099 -3338.721)" fill="#fff" opacity="0.2"></path></g><path id="Path_37205" data-name="Path 37205" d="M3240.668,3203.329a5.967,5.967,0,0,0,3.937-.078l.051-1.2-4.16.056Z" transform="translate(-3238.886 -3191.275)" fill="#f8a364" opacity="0.35"></path></g><path id="Path_37206" data-name="Path 37206" d="M2890.964,2472.793c-3.962,2.877-21.057,2.877-23.462,0l1.109-28.179,21.323-.153Z" transform="translate(-2862.771 -2376.157)" fill="#6A2186"></path><path id="Path_37207" data-name="Path 37207" d="M3262.756,1109.382l8.26-6.461,3.408.684a26.75,26.75,0,0,1-.974,9.236c-2.9,5.921-5.538,6.725-5.538,6.725l-5.156-.013Z" transform="translate(-3242.62 -1086.901)" fill="#2d2d2d"></path><path id="Path_37208" data-name="Path 37208" d="M2792.669,1109.382l-8.259-6.461-3.408.684a26.774,26.774,0,0,0,.974,9.236c2.9,5.921,5.538,6.725,5.538,6.725l5.156-.013Z" transform="translate(-2779.544 -1086.901)" fill="#2d2d2d"></path><ellipse id="Ellipse_442" data-name="Ellipse 442" cx="3.53" cy="1.66" rx="3.53" ry="1.66" transform="translate(12.969 34.636)" fill="#aeb5b5"></ellipse><path id="Path_37209" data-name="Path 37209" d="M3088.965,1566.521h-5.452a12.1,12.1,0,0,1-.588,4.479.853.853,0,0,0,.236.932c1.191,1.064,4.748,1.446,6.2-.115a.852.852,0,0,0,.174-.871A12.233,12.233,0,0,1,3088.965,1566.521Z" transform="translate(-3069.749 -1532.433)" fill="#fbd3a8"></path><path id="Path_37210" data-name="Path 37210" d="M3099.536,1560.284l5.2.035.087,1.5c-.816,1.2-4.827,1.151-5.435-.056Z" transform="translate(-3085.62 -1526.439)" fill="#f8a364" opacity="0.35"></path><path id="Path_37211" data-name="Path 37211" d="M2890.493,1612.112V1671.4H2879.5l.8-38.87-.013-18.684a.326.326,0,0,1,.115-.231c1.314-1.161,3.58-1.663,6.194-1.906a.367.367,0,0,0,.3-.207l.46-.958a.1.1,0,0,1,.186,0C2888.278,1612.109,2890.493,1612.112,2890.493,1612.112Z" transform="translate(-2874.304 -1574.686)" fill="#6A2186"></path><g id="Group_26808" data-name="Group 26808" transform="translate(1.205 21.449)"><path id="Path_37212" data-name="Path 37212" d="M2780.341,1248.6c-2.349,0-3.847-3.127-3.118-5.145a1.879,1.879,0,0,1,1-1.108,2.188,2.188,0,0,1,2.116.419Z" transform="translate(-2777.038 -1242.215)" fill="#fbd3a8"></path><path id="Path_37213" data-name="Path 37213" d="M2806.109,1278.512c-3.185-1.133-2.648,3.574-.03,3.689" transform="translate(-2802.867 -1276.929)" fill="#fbbd89"></path><g id="Group_26807" data-name="Group 26807" transform="translate(1.038 1.361)"><path id="Path_37214" data-name="Path 37214" d="M2805.94,1277.479a3.505,3.505,0,0,0-.865-.194,1.86,1.86,0,0,0-.438.015,1.2,1.2,0,0,0-.409.142.967.967,0,0,0-.314.3,1.241,1.241,0,0,0-.171.408,2.065,2.065,0,0,0-.052.448,3.62,3.62,0,0,0,.027.454,2.613,2.613,0,0,1-.022-.911,1.3,1.3,0,0,1,.157-.437,1.05,1.05,0,0,1,.324-.342,1.317,1.317,0,0,1,.438-.179,1.979,1.979,0,0,1,.469-.042,3.669,3.669,0,0,1,.918.154Z" transform="translate(-2803.664 -1277.139)" fill="#603813"></path></g></g><g id="Group_26811" data-name="Group 26811" transform="translate(28.336 21.449)"><path id="Path_37215" data-name="Path 37215" d="M3474.968,1248.6c2.349,0,3.847-3.127,3.118-5.145a1.879,1.879,0,0,0-1-1.108,2.189,2.189,0,0,0-2.116.419Z" transform="translate(-3474.898 -1242.215)" fill="#fbd3a8"></path><path id="Path_37216" data-name="Path 37216" d="M3476.529,1278.512c3.185-1.133,2.647,3.574.03,3.689" transform="translate(-3476.399 -1276.929)" fill="#fbbd89"></path><g id="Group_26810" data-name="Group 26810" transform="translate(0 1.361)"><g id="Group_26809" data-name="Group 26809"><path id="Path_37217" data-name="Path 37217" d="M3473.174,1277.293a3.669,3.669,0,0,1,.918-.154,1.978,1.978,0,0,1,.468.042,1.319,1.319,0,0,1,.438.179,1.055,1.055,0,0,1,.324.342,1.306,1.306,0,0,1,.157.437,2.613,2.613,0,0,1-.023.911,3.621,3.621,0,0,0,.027-.454,2.065,2.065,0,0,0-.052-.448,1.236,1.236,0,0,0-.171-.408.969.969,0,0,0-.314-.3,1.2,1.2,0,0,0-.409-.142,1.86,1.86,0,0,0-.438-.015,3.509,3.509,0,0,0-.866.194Z" transform="translate(-3473.174 -1277.139)" fill="#603813"></path></g></g></g><path id="Path_37218" data-name="Path 37218" d="M2856.513,958.413h-23.945c-3.249,14.8-.915,24.533,11.808,24.838h.328C2857.428,982.946,2859.762,973.213,2856.513,958.413Z" transform="translate(-2827.933 -948.025)" fill="#fbd3a8"></path><ellipse id="Ellipse_443" data-name="Ellipse 443" cx="1.066" cy="1.702" rx="1.066" ry="1.702" transform="translate(10.655 20.927)" fill="#2d2d2d"></ellipse><ellipse id="Ellipse_444" data-name="Ellipse 444" cx="0.519" cy="0.642" rx="0.519" ry="0.642" transform="translate(11.353 21.257)" fill="#fff"></ellipse><ellipse id="Ellipse_445" data-name="Ellipse 445" cx="1.066" cy="1.702" rx="1.066" ry="1.702" transform="translate(20.221 20.927)" fill="#2d2d2d"></ellipse><ellipse id="Ellipse_446" data-name="Ellipse 446" cx="0.519" cy="0.642" rx="0.519" ry="0.642" transform="translate(20.919 21.257)" fill="#fff"></ellipse><path id="Path_37221" data-name="Path 37221" d="M3141.063,1366.1a.318.318,0,0,0,.152-.016c.926-.271,1.06.766.315.861a1.329,1.329,0,0,1-1.314-.483.281.281,0,0,1,.18-.446A2.338,2.338,0,0,1,3141.063,1366.1Z" transform="translate(-3124.803 -1339.735)" fill="#f8a364"></path><path id="Path_37222" data-name="Path 37222" d="M3261.29,1152.291c-1.024.019-1.413-.964-.7-1.563a1.442,1.442,0,0,1,1.092-.264c1.063.114,1.722.491,1.84,1.219a.8.8,0,0,1-.229.717c-.375.343-.957.211-1.591-.04A1.066,1.066,0,0,0,3261.29,1152.291Z" transform="translate(-3240.19 -1132.579)" fill="#2d2d2d"></path><path id="Path_37223" data-name="Path 37223" d="M3001.308,1152.291c1.024.019,1.413-.964.7-1.563a1.442,1.442,0,0,0-1.092-.264c-1.063.114-1.723.491-1.84,1.219a.8.8,0,0,0,.229.717c.375.343.957.211,1.591-.04A1.068,1.068,0,0,1,3001.308,1152.291Z" transform="translate(-2989.205 -1132.579)" fill="#2d2d2d"></path><path id="Path_37224" data-name="Path 37224" d="M2795.207,901.935" transform="translate(-2793.294 -893.748)" fill="#f1f2f2"></path><path id="Path_37225" data-name="Path 37225" d="M2834.471,1106.421c-1.959,2.246-2.437,6.424-2.2,10.906-1.29-3.947-.79-10.906-.79-10.906Z" transform="translate(-2828.064 -1090.265)" fill="#2d2d2d"></path><path id="Path_37226" data-name="Path 37226" d="M3435.127,1106.421c1.959,2.246,2.436,6.424,2.2,10.906,1.29-3.947.79-10.906.79-10.906Z" transform="translate(-3408.274 -1090.265)" fill="#2d2d2d"></path><path id="Path_37227" data-name="Path 37227" d="M3061.648,1611.731c.138,1.332,1.615,2.324,3.425,2.458v26.287h1.888l-.252-26.06-1.163-.312v-1.971a3.247,3.247,0,0,1-2.962-1.577.1.1,0,0,0-.179.01l-.512,1.038A.374.374,0,0,1,3061.648,1611.731Z" transform="translate(-3049.351 -1574.707)" fill="#aeb5b5" opacity="0.5"></path><path id="Path_37228" data-name="Path 37228" d="M3145.635,1701.475l-1.467.427v26" transform="translate(-3128.656 -1662.127)" fill="none" stroke="#aeb5b5" stroke-miterlimit="10" stroke-width="15"></path><path id="Path_37229" data-name="Path 37229" d="M3147.724,1612.112v1.972l-1.163.312V1671.4h12.046l-.688-38.87.013-18.684a.327.327,0,0,0-.115-.231c-1.314-1.161-3.581-1.663-6.194-1.906a.368.368,0,0,1-.3-.207l-.46-.958a.1.1,0,0,0-.186,0C3149.939,1612.109,3147.724,1612.112,3147.724,1612.112Z" transform="translate(-3130.954 -1574.686)" fill="#6A2186"></path><path id="Path_37230" data-name="Path 37230" d="M3145.407,1611.731c-.137,1.332-1.615,2.324-3.425,2.458v26.287h-1.889l.252-26.06,1.163-.312v-1.971a3.247,3.247,0,0,0,2.962-1.577.1.1,0,0,1,.179.01l.512,1.038A.375.375,0,0,0,3145.407,1611.731Z" transform="translate(-3124.739 -1574.707)" fill="#aeb5b5" opacity="0.5"></path><g id="Group_26812" data-name="Group 26812" transform="translate(15.772 40.973)"><circle id="Ellipse_447" data-name="Ellipse 447" cx="0.429" cy="0.429" r="0.429" transform="translate(0.131)" fill="#aeb5b5"></circle><circle id="Ellipse_448" data-name="Ellipse 448" cx="0.429" cy="0.429" r="0.429" transform="translate(0 5.459) rotate(-22.5)" fill="#aeb5b5"></circle><circle id="Ellipse_449" data-name="Ellipse 449" cx="0.429" cy="0.429" r="0.429" transform="translate(0 11.01) rotate(-22.5)" fill="#aeb5b5"></circle><circle id="Ellipse_450" data-name="Ellipse 450" cx="0.429" cy="0.429" r="0.429" transform="translate(0.068 16.859) rotate(-80.783)" fill="#aeb5b5"></circle><circle id="Ellipse_451" data-name="Ellipse 451" cx="0.429" cy="0.429" r="0.429" transform="translate(0.131 21.338)" fill="#aeb5b5"></circle></g><path id="Path_37231" data-name="Path 37231" d="M3042.757,1403.806v-1.091c-2.422-.111-3.908.215-4.665,1.007a2.494,2.494,0,0,0-.676,1.727v1.268h1.169c-.437-1.027-.564-1.892,0-2.467a1.394,1.394,0,0,1,.982-.408Z" transform="translate(-3026.063 -1374.991)" fill="#2d2d2d"></path><path id="Path_37232" data-name="Path 37232" d="M3170.384,1403.806v-1.091c2.422-.111,3.908.215,4.665,1.007a2.494,2.494,0,0,1,.677,1.727v1.268h-1.169c.437-1.027.564-1.892,0-2.467a1.4,1.4,0,0,0-.982-.408Z" transform="translate(-3153.848 -1374.991)" fill="#2d2d2d"></path><g id="Group_26817" data-name="Group 26817" transform="translate(0 0)"><g id="Group_26816" data-name="Group 26816" clip-path="url(#clip-path-2)"><g id="Group_26815" data-name="Group 26815" transform="translate(-14.23 -9.241)"><rect id="Rectangle_9653" data-name="Rectangle 9653" width="64.527" height="61.721" transform="translate(0 0.724)" fill="#fff"></rect><g id="Group_26813" data-name="Group 26813" transform="translate(0.679 0.724)" opacity="0.6"><rect id="Rectangle_9654" data-name="Rectangle 9654" width="1.132" height="61.721" transform="translate(9.544)" fill="#6A2186"></rect><rect id="Rectangle_9655" data-name="Rectangle 9655" width="1.132" height="61.721" transform="translate(7.158)" fill="#6A2186"></rect><rect id="Rectangle_9656" data-name="Rectangle 9656" width="1.132" height="61.721" transform="translate(4.772)" fill="#6A2186"></rect><rect id="Rectangle_9657" data-name="Rectangle 9657" width="1.132" height="61.721" transform="translate(2.386)" fill="#6A2186"></rect><rect id="Rectangle_9658" data-name="Rectangle 9658" width="1.132" height="61.721" fill="#6A2186"></rect><rect id="Rectangle_9659" data-name="Rectangle 9659" width="1.132" height="61.721" transform="translate(11.93)" fill="#6A2186"></rect><rect id="Rectangle_9660" data-name="Rectangle 9660" width="1.132" height="61.721" transform="translate(14.316)" fill="#6A2186"></rect><rect id="Rectangle_9661" data-name="Rectangle 9661" width="1.132" height="61.721" transform="translate(16.702)" fill="#6A2186"></rect><rect id="Rectangle_9662" data-name="Rectangle 9662" width="1.132" height="61.721" transform="translate(19.088)" fill="#6A2186"></rect><rect id="Rectangle_9663" data-name="Rectangle 9663" width="1.132" height="61.721" transform="translate(21.474)" fill="#6A2186"></rect><rect id="Rectangle_9664" data-name="Rectangle 9664" width="1.132" height="61.721" transform="translate(33.404)" fill="#6A2186"></rect><rect id="Rectangle_9665" data-name="Rectangle 9665" width="1.132" height="61.721" transform="translate(31.018)" fill="#6A2186"></rect><rect id="Rectangle_9666" data-name="Rectangle 9666" width="1.132" height="61.721" transform="translate(28.632)" fill="#6A2186"></rect><rect id="Rectangle_9667" data-name="Rectangle 9667" width="1.132" height="61.721" transform="translate(26.246)" fill="#6A2186"></rect><rect id="Rectangle_9668" data-name="Rectangle 9668" width="1.132" height="61.721" transform="translate(23.86)" fill="#6A2186"></rect><rect id="Rectangle_9669" data-name="Rectangle 9669" width="1.132" height="61.721" transform="translate(35.79)" fill="#6A2186"></rect><rect id="Rectangle_9670" data-name="Rectangle 9670" width="1.132" height="61.721" transform="translate(38.176)" fill="#6A2186"></rect><rect id="Rectangle_9671" data-name="Rectangle 9671" width="1.132" height="61.721" transform="translate(40.562)" fill="#6A2186"></rect><rect id="Rectangle_9672" data-name="Rectangle 9672" width="1.132" height="61.721" transform="translate(42.948)" fill="#6A2186"></rect><rect id="Rectangle_9673" data-name="Rectangle 9673" width="1.132" height="61.721" transform="translate(45.334)" fill="#6A2186"></rect><rect id="Rectangle_9674" data-name="Rectangle 9674" width="1.132" height="61.721" transform="translate(47.72)" fill="#6A2186"></rect><rect id="Rectangle_9675" data-name="Rectangle 9675" width="1.132" height="61.721" transform="translate(50.106)" fill="#6A2186"></rect><rect id="Rectangle_9676" data-name="Rectangle 9676" width="1.132" height="61.721" transform="translate(52.492)" fill="#6A2186"></rect><rect id="Rectangle_9677" data-name="Rectangle 9677" width="1.132" height="61.721" transform="translate(54.878)" fill="#6A2186"></rect><rect id="Rectangle_9678" data-name="Rectangle 9678" width="1.132" height="61.721" transform="translate(57.264)" fill="#6A2186"></rect><rect id="Rectangle_9679" data-name="Rectangle 9679" width="1.132" height="61.721" transform="translate(59.65)" fill="#6A2186"></rect><rect id="Rectangle_9680" data-name="Rectangle 9680" width="1.132" height="61.721" transform="translate(62.036)" fill="#6A2186"></rect></g><g id="Group_26814" data-name="Group 26814" transform="translate(1.403 0)" opacity="0.8"><rect id="Rectangle_9681" data-name="Rectangle 9681" width="1.132" height="61.721" transform="translate(0 53.625) rotate(-90)" fill="#6A2186"></rect><rect id="Rectangle_9682" data-name="Rectangle 9682" width="1.132" height="61.721" transform="translate(0 56.011) rotate(-90)" fill="#6A2186"></rect><rect id="Rectangle_9683" data-name="Rectangle 9683" width="1.132" height="61.721" transform="translate(0 58.397) rotate(-90)" fill="#6A2186"></rect><rect id="Rectangle_9684" data-name="Rectangle 9684" width="1.132" height="61.721" transform="translate(0 60.783) rotate(-90)" fill="#6A2186"></rect><rect id="Rectangle_9685" data-name="Rectangle 9685" width="1.132" height="61.721" transform="translate(0 63.169) rotate(-90)" fill="#6A2186"></rect><rect id="Rectangle_9686" data-name="Rectangle 9686" width="1.132" height="61.721" transform="translate(0 51.239) rotate(-90)" fill="#6A2186"></rect><rect id="Rectangle_9687" data-name="Rectangle 9687" width="1.132" height="61.721" transform="translate(0 48.853) rotate(-90)" fill="#6A2186"></rect><rect id="Rectangle_9688" data-name="Rectangle 9688" width="1.132" height="61.721" transform="translate(0 46.467) rotate(-90)" fill="#6A2186"></rect><rect id="Rectangle_9689" data-name="Rectangle 9689" width="1.132" height="61.721" transform="translate(0 44.081) rotate(-90)" fill="#6A2186"></rect><rect id="Rectangle_9690" data-name="Rectangle 9690" width="1.132" height="61.721" transform="translate(0 41.695) rotate(-90)" fill="#6A2186"></rect><rect id="Rectangle_9691" data-name="Rectangle 9691" width="1.132" height="61.721" transform="translate(0 29.765) rotate(-90)" fill="#6A2186"></rect><rect id="Rectangle_9692" data-name="Rectangle 9692" width="1.132" height="61.721" transform="translate(0 32.151) rotate(-90)" fill="#6A2186"></rect><rect id="Rectangle_9693" data-name="Rectangle 9693" width="1.132" height="61.721" transform="translate(0 34.537) rotate(-90)" fill="#6A2186"></rect><rect id="Rectangle_9694" data-name="Rectangle 9694" width="1.132" height="61.721" transform="translate(0 36.923) rotate(-90)" fill="#6A2186"></rect><rect id="Rectangle_9695" data-name="Rectangle 9695" width="1.132" height="61.721" transform="translate(0 39.309) rotate(-90)" fill="#6A2186"></rect><rect id="Rectangle_9696" data-name="Rectangle 9696" width="1.132" height="61.721" transform="translate(0 27.379) rotate(-90)" fill="#6A2186"></rect><rect id="Rectangle_9697" data-name="Rectangle 9697" width="1.132" height="61.721" transform="translate(0 24.993) rotate(-90)" fill="#6A2186"></rect><rect id="Rectangle_9698" data-name="Rectangle 9698" width="1.132" height="61.721" transform="translate(0 22.607) rotate(-90)" fill="#6A2186"></rect><rect id="Rectangle_9699" data-name="Rectangle 9699" width="1.132" height="61.721" transform="translate(0 20.221) rotate(-90)" fill="#6A2186"></rect><rect id="Rectangle_9700" data-name="Rectangle 9700" width="1.132" height="61.721" transform="translate(0 17.835) rotate(-90)" fill="#6A2186"></rect><rect id="Rectangle_9701" data-name="Rectangle 9701" width="1.132" height="61.721" transform="translate(0 15.449) rotate(-90)" fill="#6A2186"></rect><rect id="Rectangle_9702" data-name="Rectangle 9702" width="1.132" height="61.721" transform="translate(0 13.063) rotate(-90)" fill="#6A2186"></rect><rect id="Rectangle_9703" data-name="Rectangle 9703" width="1.132" height="61.721" transform="translate(0 10.677) rotate(-90)" fill="#6A2186"></rect><rect id="Rectangle_9704" data-name="Rectangle 9704" width="1.132" height="61.721" transform="translate(0 8.291) rotate(-90)" fill="#6A2186"></rect><rect id="Rectangle_9705" data-name="Rectangle 9705" width="1.132" height="61.721" transform="translate(0 5.904) rotate(-90)" fill="#6A2186"></rect><rect id="Rectangle_9706" data-name="Rectangle 9706" width="1.132" height="61.721" transform="translate(0 3.518) rotate(-90)" fill="#6A2186"></rect><rect id="Rectangle_9707" data-name="Rectangle 9707" width="1.132" height="61.721" transform="translate(0 1.132) rotate(-90)" fill="#6A2186"></rect></g></g></g></g><path id="Rectangle_9708" data-name="Rectangle 9708" d="M2.313,0H29.686A2.313,2.313,0,0,1,32,2.313v0a.826.826,0,0,1-.826.826H.826A.826.826,0,0,1,0,2.313v0A2.313,2.313,0,0,1,2.313,0Z" transform="translate(0.528 9.635)" fill="#2d2d2d"></path><g id="Group_26823" data-name="Group 26823" transform="translate(13.439 29.05)"><g id="Group_26821" data-name="Group 26821" transform="translate(0.071 0.071)"><g id="Group_26818" data-name="Group 26818"><path id="Path_37234" data-name="Path 37234" d="M3098.854,1439.087a21.757,21.757,0,0,1-6.065,0,2.691,2.691,0,0,0,3.005,2.986h.055A2.691,2.691,0,0,0,3098.854,1439.087Z" transform="translate(-3092.78 -1439.087)" fill="#be1717"></path></g><g id="Group_26819" data-name="Group 26819" transform="translate(0)"><path id="Path_37235" data-name="Path 37235" d="M3098.857,1439.087a21.745,21.745,0,0,1-6.065,0,2.659,2.659,0,0,0,0,.375,11.23,11.23,0,0,0,6.074,0A2.631,2.631,0,0,0,3098.857,1439.087Z" transform="translate(-3092.783 -1439.087)" fill="#fff"></path></g><g id="Group_26820" data-name="Group 26820" transform="translate(0.829 1.575)"><path id="Path_37236" data-name="Path 37236" d="M3118.473,1480.206a3.406,3.406,0,0,0-2.188-.709h-.05a3.405,3.405,0,0,0-2.187.709,3.1,3.1,0,0,0,2.185.7h.055A3.1,3.1,0,0,0,3118.473,1480.206Z" transform="translate(-3114.048 -1479.497)" fill="#ff2929"></path></g></g><g id="Group_26822" data-name="Group 26822"><path id="Path_37237" data-name="Path 37237" d="M3094.1,1440.39h-.065l-.138,0h-.031l-.13-.005h-.022l-.112-.008-.027,0-.119-.012-.031,0-.1-.014-.021,0-.107-.018-.036-.007-.1-.021-.02,0-.011,0-.074-.018h0l-.036-.009-.086-.024-.036-.011-.007,0-.053-.017-.06-.02-.057-.021-.049-.019-.035-.014-.086-.037-.024-.011-.054-.026h0c-.035-.017-.073-.037-.111-.058l-.008,0a2.836,2.836,0,0,1-1.29-2.663.072.072,0,0,1,.027-.049.071.071,0,0,1,.053-.016h.012a21.67,21.67,0,0,0,6.025,0h.011a.071.071,0,0,1,.08.064,2.837,2.837,0,0,1-1.291,2.664l-.007,0c-.039.022-.076.041-.113.059l-.055.026-.023.011-.087.037-.034.014-.05.019-.056.021-.06.021-.053.017-.009,0-.034.01-.086.024-.038.01-.075.018-.011,0-.02,0-.1.02-.036.007-.108.018-.021,0-.1.014-.031,0-.119.012-.027,0-.112.008h-.022l-.13.005h-.03Zm-.038-.142h.029l.135,0h.03l.127-.005h.021l.108-.008.026,0,.115-.012.03,0,.1-.013.021,0,.1-.018.035-.006.1-.02.03-.007.071-.017.038-.01.083-.023.032-.01.009,0,.05-.016.057-.02.054-.02.047-.018.032-.013.082-.036.022-.01.052-.025c.035-.017.07-.036.107-.056l.007,0a2.65,2.65,0,0,0,1.223-2.454,21.7,21.7,0,0,1-5.934,0,2.65,2.65,0,0,0,1.223,2.454l.006,0c.038.021.073.04.108.057l.052.025.022.01.082.036.033.013.047.018.054.02.057.019.051.016.007,0,.034.01.083.023.035.009h0l.071.017.012,0,.018,0,.1.02.035.006.1.018.02,0,.1.013.03,0,.115.012.026,0,.108.008h.021l.127.005h.03l.135,0Z" transform="translate(-3090.951 -1437.261)" fill="#f8a364"></path></g></g><path id="Path_37238" data-name="Path 37238" d="M2899.027,1444.472a5.061,5.061,0,0,1-6.294,2.3l-1.169.093a4.372,4.372,0,0,1-3.744,1.129c-.059-.49.08-.346.428-.547h-1.554c.348.2.488.057.428.547a4.372,4.372,0,0,1-3.744-1.129l-1.169-.093a5.061,5.061,0,0,1-6.294-2.3c1.492,3.061,4.708,5.677,11.476,5.946v.006h.159v-.006C2894.319,1450.149,2897.536,1447.533,2899.027,1444.472Z" transform="translate(-2870.857 -1415.141)" fill="#2d2d2d"></path><g id="Group_26839" data-name="Group 26839" transform="translate(1.215 38.647)"><g id="Group_26830" data-name="Group 26830"><path id="Path_37239" data-name="Path 37239" d="M2783.48,1684.12c-1.819,1.605-3.1,8.511-4.255,16.081-.314,1.846,3.508,2.716,3.945.724,1.223-5.973,3.041-13.625,3.041-13.625C2787.063,1683.661,2785.063,1682.689,2783.48,1684.12Z" transform="translate(-2779.131 -1683.488)" fill="#6A2186"></path><g id="Group_26826" data-name="Group 26826" transform="translate(12.137 7.1)"><path id="Path_37240" data-name="Path 37240" d="M3088.8,1871.388l1.048-.4a18.44,18.44,0,0,1,1.535-5.269l.028-.019a.29.29,0,0,1,.453.238l.044,5.429a1.213,1.213,0,0,1-.166.626,5.919,5.919,0,0,1-3.036,1.969Z" transform="translate(-3088.706 -1865.652)" fill="#fbd3a8"></path><g id="Group_26824" data-name="Group 26824" transform="translate(2.279 2.581)"><path id="Path_37241" data-name="Path 37241" d="M3147.238,1933.671l-.064-.024a5.219,5.219,0,0,0,.246-1.034c.06-.37.1-.637.265-.708.1-.043.228-.007.407.112l-.038.057c-.156-.1-.268-.139-.343-.106-.127.056-.17.32-.224.656A5.325,5.325,0,0,1,3147.238,1933.671Z" transform="translate(-3147.173 -1931.888)" fill="#f8a364"></path></g><g id="Group_26825" data-name="Group 26825" transform="translate(2.009 1.094)"><path id="Path_37242" data-name="Path 37242" d="M3140.307,1896.032l-.063-.026a7.681,7.681,0,0,0,.329-1.157c.129-.569.231-1.019.478-1.117a.394.394,0,0,1,.369.079l-.038.057a.333.333,0,0,0-.306-.072c-.213.085-.317.541-.437,1.069A7.7,7.7,0,0,1,3140.307,1896.032Z" transform="translate(-3140.244 -1893.713)" fill="#f8a364"></path></g></g><g id="Group_26827" data-name="Group 26827" transform="translate(0 12.037)"><path id="Path_37243" data-name="Path 37243" d="M2779.756,2001.892c2.534-.8,5.126-1.652,7.574-2.447,1.43-.368,2.66-1.118,2.673-1.426l1.01-.462a.407.407,0,0,0,.234-.427,6.473,6.473,0,0,0-1.173-2.519.406.406,0,0,0-.471-.089l-.945.448a6.519,6.519,0,0,0-2.651.81c-1.176.489-4.011,1.293-7.183,2.128a2.062,2.062,0,0,0-.644,3.7A1.983,1.983,0,0,0,2779.756,2001.892Z" transform="translate(-2777.278 -1994.397)" fill="#6A2186"></path><path id="Path_37244" data-name="Path 37244" d="M3070.6,1995.949c-.017-.037-1.35-3.046-1.35-3.046l1.116-.556c.635-.251,2.073,2.8,1.3,3.121Z" transform="translate(-3057.868 -1992.331)" fill="#6A2186"></path></g><g id="Group_26828" data-name="Group 26828" transform="translate(4.458 4.543)"><path id="Path_37245" data-name="Path 37245" d="M2894.122,1800.046c-.162.854-.336,1.706-.511,2.558s-.357,1.7-.539,2.551l-.278,1.274-.283,1.273c-.187.849-.382,1.7-.576,2.543l-.143-.132c.564-.175,1.131-.344,1.7-.516s1.132-.338,1.7-.508,1.134-.334,1.7-.5,1.137-.325,1.707-.482q-.837.292-1.678.573c-.56.189-1.121.373-1.683.558s-1.123.367-1.686.547-1.125.362-1.689.538l-.185.058.042-.189c.189-.848.377-1.7.573-2.544l.291-1.271.3-1.27c.2-.846.4-1.692.609-2.536S2893.9,1800.887,2894.122,1800.046Z" transform="translate(-2891.674 -1800.046)" fill="#e5dfdf"></path></g><g id="Group_26829" data-name="Group 26829" transform="translate(4.553 15.619)"><path id="Path_37246" data-name="Path 37246" d="M2894.1,2087.637c.686-.327,1.38-.633,2.077-.93.348-.151.7-.294,1.048-.442l1.053-.429q1.055-.424,2.12-.823c.71-.267,1.423-.525,2.145-.763-.686.327-1.38.633-2.077.931s-1.4.589-2.1.87l-1.058.417c-.354.135-.707.274-1.063.406C2895.533,2087.14,2894.82,2087.4,2894.1,2087.637Z" transform="translate(-2894.099 -2084.25)" fill="#e5dfdf"></path></g></g><g id="Group_26837" data-name="Group 26837" transform="translate(15.214)"><path id="Path_37247" data-name="Path 37247" d="M3377.3,1684.12c1.819,1.605,3.1,8.511,4.255,16.081.314,1.846-3.508,2.716-3.945.724-1.223-5.973-3.041-13.625-3.041-13.625C3373.72,1683.661,3375.721,1682.689,3377.3,1684.12Z" transform="translate(-3366.313 -1683.488)" fill="#6A2186"></path><g id="Group_26833" data-name="Group 26833" transform="translate(0 7.1)"><path id="Path_37248" data-name="Path 37248" d="M3170.754,1871.388l-1.048-.4a18.441,18.441,0,0,0-1.535-5.269l-.028-.019a.29.29,0,0,0-.453.238l-.043,5.429a1.215,1.215,0,0,0,.166.626,5.92,5.92,0,0,0,3.036,1.969Z" transform="translate(-3167.646 -1865.652)" fill="#fbd3a8"></path><g id="Group_26831" data-name="Group 26831" transform="translate(0.005 2.581)"><path id="Path_37249" data-name="Path 37249" d="M3168.627,1933.671l.064-.024a5.254,5.254,0,0,1-.246-1.034c-.06-.37-.1-.637-.264-.708-.1-.043-.228-.007-.408.112l.038.057c.156-.1.268-.139.342-.106.127.056.17.32.224.656A5.31,5.31,0,0,0,3168.627,1933.671Z" transform="translate(-3167.773 -1931.888)" fill="#f8a364"></path></g><g id="Group_26832" data-name="Group 26832" transform="translate(0.017 1.094)"><path id="Path_37250" data-name="Path 37250" d="M3169.2,1896.032l.063-.026a7.652,7.652,0,0,1-.329-1.157c-.129-.569-.231-1.019-.478-1.117a.393.393,0,0,0-.369.079l.038.057a.334.334,0,0,1,.306-.072c.213.085.316.541.436,1.069A7.671,7.671,0,0,0,3169.2,1896.032Z" transform="translate(-3168.087 -1893.713)" fill="#f8a364"></path></g></g><g id="Group_26834" data-name="Group 26834" transform="translate(1.32 12.037)"><path id="Path_37251" data-name="Path 37251" d="M3214.2,2001.892c-2.534-.8-5.126-1.652-7.574-2.447-1.43-.368-2.66-1.118-2.673-1.426l-1.01-.462a.407.407,0,0,1-.234-.427,6.477,6.477,0,0,1,1.173-2.519.406.406,0,0,1,.471-.089l.945.448a6.519,6.519,0,0,1,2.651.81c1.176.489,4.011,1.293,7.183,2.128a2.062,2.062,0,0,1,.644,3.7A1.984,1.984,0,0,1,3214.2,2001.892Z" transform="translate(-3202.662 -1994.397)" fill="#6A2186"></path><path id="Path_37252" data-name="Path 37252" d="M3202.793,1995.949c.018-.037,1.35-3.046,1.35-3.046l-1.116-.556c-.635-.251-2.073,2.8-1.3,3.121Z" transform="translate(-3201.502 -1992.331)" fill="#6A2186"></path></g><g id="Group_26835" data-name="Group 26835" transform="translate(3.96 4.543)"><path id="Path_37253" data-name="Path 37253" d="M3273.729,1800.046c.163.854.335,1.706.512,2.558s.357,1.7.54,2.551l.277,1.274.283,1.273c.188.849.383,1.7.576,2.543l.143-.132c-.564-.175-1.13-.344-1.7-.516s-1.132-.338-1.7-.508-1.133-.334-1.7-.5-1.136-.325-1.707-.482q.838.292,1.678.573c.56.189,1.122.373,1.683.558s1.123.367,1.686.547,1.125.362,1.689.538l.185.058-.042-.189c-.189-.848-.377-1.7-.573-2.544l-.291-1.271-.3-1.27q-.3-1.269-.609-2.536C3274.158,1801.731,3273.949,1800.887,3273.729,1800.046Z" transform="translate(-3269.256 -1800.046)" fill="#e5dfdf"></path></g><g id="Group_26836" data-name="Group 26836" transform="translate(2.343 15.619)"><path id="Path_37254" data-name="Path 37254" d="M3236.212,2087.637c-.686-.327-1.38-.633-2.077-.93-.348-.151-.7-.294-1.048-.442l-1.053-.429q-1.055-.424-2.12-.823c-.71-.267-1.423-.525-2.145-.763.686.327,1.38.633,2.077.931s1.4.589,2.1.87l1.058.417c.354.135.707.274,1.063.406C3234.778,2087.14,3235.491,2087.4,3236.212,2087.637Z" transform="translate(-3227.77 -2084.25)" fill="#e5dfdf"></path></g></g><g id="Group_26838" data-name="Group 26838" transform="translate(15.238 7.246)"><rect id="Rectangle_9709" data-name="Rectangle 9709" width="0.039" height="6.023" fill="#f8a364"></rect></g></g></g></g></g></svg> 