<?xml version="1.0" encoding="UTF-8"?> <svg xmlns="http://www.w3.org/2000/svg" xmlns:xlink="http://www.w3.org/1999/xlink" width="200" height="200" viewBox="0 0 200 200"><defs><clipPath id="clip-path"><rect id="Rectangle_1130" data-name="Rectangle 1130" width="54.23" height="142.744" transform="translate(0 0)" fill="#fff" stroke="#707070" stroke-width="1"></rect></clipPath><clipPath id="clip-path-2"><rect id="Rectangle_959" data-name="Rectangle 959" width="70.766" height="149.225" fill="none"></rect></clipPath><clipPath id="clip-path-4"><rect id="Rectangle_896" data-name="Rectangle 896" width="0.699" height="1.27" fill="none"></rect></clipPath><clipPath id="clip-path-6"><rect id="Rectangle_898" data-name="Rectangle 898" width="1.848" height="1.255" fill="none"></rect></clipPath><clipPath id="clip-path-7"><rect id="Rectangle_899" data-name="Rectangle 899" width="1.105" height="1.347" fill="none"></rect></clipPath><clipPath id="clip-path-8"><rect id="Rectangle_900" data-name="Rectangle 900" width="4.563" height="1.726" fill="none"></rect></clipPath><clipPath id="clip-path-14"><rect id="Rectangle_906" data-name="Rectangle 906" width="5.96" height="2.642" fill="none"></rect></clipPath><clipPath id="clip-path-15"><rect id="Rectangle_907" data-name="Rectangle 907" width="5.827" height="32.865" fill="none"></rect></clipPath><clipPath id="clip-path-17"><path id="Path_6412" data-name="Path 6412" d="M342.451,615.673c-16.747,1.648-21.7,17.608-13.885,49.18.64-1.941,1.454-4.586,2.761-6.2-1.516-11.6-2.186-21.589,1.6-25.971,3.257,1.227,16.98,1.227,20.237,0,3.791,4.383,3.108,14.466,1.592,26.068a23.639,23.639,0,0,1,2.7,6.1c7.814-31.572,2.939-47.532-13.808-49.18Z" transform="translate(-324.95 -615.673)" fill="none"></path></clipPath><clipPath id="clip-path-18"><rect id="Rectangle_929" data-name="Rectangle 929" width="69.276" height="67.689" fill="none"></rect></clipPath><clipPath id="clip-path-19"><rect id="Rectangle_957" data-name="Rectangle 957" width="67.689" height="69.276" fill="none"></rect></clipPath></defs><g id="Group_31155" data-name="Group 31155" transform="translate(1728 486)"><rect id="Rectangle_11268" data-name="Rectangle 11268" width="200" height="200" transform="translate(-1728 -486)" fill="none"></rect><g id="تصميم_و_تطوير_المواقع_الالكترونية" data-name="تصميم و تطوير المواقع الالكترونية" transform="translate(-1721.064 -562)"><g id="Website_Creator-bro" data-name="Website Creator-bro" transform="translate(-2.936 97.25)"><g id="freepik--background-simple--inject-3" transform="translate(0 117.056) rotate(-71)"><path id="Path_10038" data-name="Path 10038" d="M3.129,92.927S-5.941,70.991,6.8,48.9s39-33.757,60.012-43.735,42.832-5.118,53.2,11.224S116.165,44.4,116.145,67.7s3.725,29.473-9.76,49.161-46.54,24.047-71.538,9.445S3.129,92.927,3.129,92.927Z" transform="translate(0 0)" fill="#fff2f2"></path></g><g id="freepik--Graphics--inject-3" transform="translate(32.161 20.659)"><path id="Path_6552" data-name="Path 6552" d="M222.142,79.785V74.444l-4-.34a11.081,11.081,0,0,0-.986-2.4l2.582-3.062-3.776-3.776L212.9,67.45a10.885,10.885,0,0,0-2.381-.99l-.34-4h-5.385l-.34,4a10.886,10.886,0,0,0-2.381.99l-3.061-2.582-3.776,3.776,2.582,3.062a11.082,11.082,0,0,0-.986,2.4l-4,.34v5.341l4,.34a11.082,11.082,0,0,0,.986,2.381l-2.582,3.062,3.776,3.776,3.061-2.582a10.886,10.886,0,0,0,2.381.99l.34,4h5.341l.34-4a10.99,10.99,0,0,0,2.4-.99l3.062,2.582,3.776-3.776-2.582-3.062a11.083,11.083,0,0,0,.986-2.381Zm-14.661,3.534a6.216,6.216,0,1,0-.014,0Z" transform="translate(-169.211 -62.46)" fill="none" stroke="#FFD100" stroke-linecap="round" stroke-linejoin="round" stroke-width="1"></path><path id="Path_6553" data-name="Path 6553" d="M420.426,250.72v-2.558L418.507,248a5.416,5.416,0,0,0-.473-1.15l1.238-1.473-1.8-1.81L416,244.8a5.244,5.244,0,0,0-1.15-.473l-.167-1.919h-2.562l-.163,1.919a5.171,5.171,0,0,0-1.15.473l-1.473-1.238-1.81,1.81,1.238,1.473a5.252,5.252,0,0,0-.476,1.15l-1.919.167v2.558l1.919.167a5.252,5.252,0,0,0,.476,1.15l-1.248,1.459,1.81,1.81,1.473-1.238a5.176,5.176,0,0,0,1.15.473l.163,1.919h2.561l.167-1.919a5.243,5.243,0,0,0,1.15-.473l1.47,1.238,1.813-1.81-1.238-1.473a5.413,5.413,0,0,0,.473-1.15Zm-7.031,1.7a2.218,2.218,0,1,0-.007,0Z" transform="translate(-310.111 -181.196)" fill="none" stroke="#FFD100" stroke-linecap="round" stroke-linejoin="round" stroke-width="1"></path><path id="Path_6554" data-name="Path 6554" d="M383.118,107.059a6.984,6.984,0,0,0-8.627-8.314,6.7,6.7,0,0,0-12.525,2.868,5.47,5.47,0,0,0-6.463,4.762,3.062,3.062,0,0,0,.068,6.1h25.608a3.062,3.062,0,0,0,1.939-5.412Z" transform="translate(-274.739 -84.152)" fill="none" stroke="#FFD100" stroke-linecap="round" stroke-linejoin="round" stroke-width="1"></path><line id="Line_12" data-name="Line 12" y2="7.059" transform="translate(94.306 25.979)" fill="none" stroke="#FFD100" stroke-linecap="round" stroke-linejoin="round" stroke-width="1"></line><line id="Line_13" data-name="Line 13" y2="2.82" transform="translate(94.306 21.747)" fill="none" stroke="#FFD100" stroke-linecap="round" stroke-linejoin="round" stroke-width="1"></line><line id="Line_14" data-name="Line 14" y2="1.51" transform="translate(94.306 19.107)" fill="none" stroke="#FFD100" stroke-linecap="round" stroke-linejoin="round" stroke-width="1"></line><path id="Path_6555" data-name="Path 6555" d="M396.71,157.16l1.333,1.65,1.333-1.65" transform="translate(-303.737 -124.946)" fill="none" stroke="#FFD100" stroke-linecap="round" stroke-linejoin="round" stroke-width="1"></path><path id="Path_6556" data-name="Path 6556" d="M153.755,350.4a6.987,6.987,0,0,0-8.63-8.314,6.7,6.7,0,0,0-12.522,2.871,5.538,5.538,0,0,0-1.02-.1,5.473,5.473,0,0,0-5.443,4.858,3.062,3.062,0,0,0,.065,6.1h25.632a3.061,3.061,0,0,0,1.929-5.412Z" transform="translate(-123.397 -244.717)" fill="none" stroke="#FFD100" stroke-linecap="round" stroke-linejoin="round" stroke-width="1"></path><line id="Line_15" data-name="Line 15" y1="7.055" transform="translate(16.275 102.714)" fill="none" stroke="#FFD100" stroke-linecap="round" stroke-linejoin="round" stroke-width="1"></line><line id="Line_16" data-name="Line 16" y1="2.823" transform="translate(16.275 111.181)" fill="none" stroke="#FFD100" stroke-linecap="round" stroke-linejoin="round" stroke-width="1"></line><line id="Line_17" data-name="Line 17" y1="1.51" transform="translate(16.275 115.134)" fill="none" stroke="#FFD100" stroke-linecap="round" stroke-linejoin="round" stroke-width="1"></line><path id="Path_6557" data-name="Path 6557" d="M169.987,363.63l-1.333-1.65-1.333,1.65" transform="translate(-152.379 -260.092)" fill="none" stroke="#FFD100" stroke-linecap="round" stroke-linejoin="round" stroke-width="1"></path></g><g id="freepik--Window--inject-3" transform="translate(11.69 37.665)"><path id="Path_6558" data-name="Path 6558" d="M50.682,109.9h85.536a1.442,1.442,0,0,1,1.442,1.442v4.034H49.24v-4.034A1.442,1.442,0,0,1,50.682,109.9Z" transform="translate(-45.493 -109.9)" fill="#6A2186" stroke="#263238" stroke-linecap="round" stroke-linejoin="round" stroke-width="1"></path><rect id="Rectangle_1131" data-name="Rectangle 1131" width="89.366" height="62.887" transform="translate(3.274 6.912)" fill="#fff" stroke="#FFD100" stroke-linecap="round" stroke-linejoin="round" stroke-width="1"></rect><path id="Path_6559" data-name="Path 6559" d="M322.071,115.3a1.361,1.361,0,1,1-1.361-1.361A1.361,1.361,0,0,1,322.071,115.3Z" transform="translate(-231.171 -112.229)" fill="#fff" stroke="#263238" stroke-linecap="round" stroke-linejoin="round" stroke-width="0.5"></path><path id="Path_6560" data-name="Path 6560" d="M307.911,115.3a1.361,1.361,0,1,1-1.361-1.361A1.361,1.361,0,0,1,307.911,115.3Z" transform="translate(-221.828 -112.229)" fill="#fff" stroke="#263238" stroke-linecap="round" stroke-linejoin="round" stroke-width="0.5"></path><path id="Path_6561" data-name="Path 6561" d="M293.721,115.3a1.361,1.361,0,1,1-1.361-1.361A1.361,1.361,0,0,1,293.721,115.3Z" transform="translate(-212.465 -112.229)" fill="#fff" stroke="#263238" stroke-linecap="round" stroke-linejoin="round" stroke-width="0.5"></path><line id="Line_18" data-name="Line 18" x1="3.538" transform="translate(86.287 9.521)" fill="none" stroke="#FFD100" stroke-linecap="round" stroke-linejoin="round" stroke-width="1"></line><line id="Line_19" data-name="Line 19" x1="3.538" transform="translate(86.287 10.957)" fill="none" stroke="#FFD100" stroke-linecap="round" stroke-linejoin="round" stroke-width="1"></line><line id="Line_20" data-name="Line 20" x1="3.538" transform="translate(86.287 12.392)" fill="none" stroke="#FFD100" stroke-linecap="round" stroke-linejoin="round" stroke-width="1"></line><line id="Line_21" data-name="Line 21" x2="26.782" transform="translate(9.355 46.627)" fill="none" stroke="#FFD100" stroke-linecap="round" stroke-linejoin="round" stroke-width="1"></line><line id="Line_22" data-name="Line 22" x2="26.782" transform="translate(9.355 48.74)" fill="none" stroke="#FFD100" stroke-linecap="round" stroke-linejoin="round" stroke-width="1"></line><line id="Line_23" data-name="Line 23" x2="21.118" transform="translate(9.355 50.889)" fill="none" stroke="#FFD100" stroke-linecap="round" stroke-linejoin="round" stroke-width="1"></line><line id="Line_24" data-name="Line 24" y2="0.17" transform="translate(66.146 7.531)" fill="none" stroke="#263238" stroke-linecap="round" stroke-linejoin="round" stroke-width="1"></line><line id="Line_25" data-name="Line 25" y2="59.268" transform="translate(66.146 8.722)" fill="none" stroke="#FFD100" stroke-linecap="round" stroke-linejoin="round" stroke-width="1" stroke-dasharray="0.998 2.995"></line><line id="Line_26" data-name="Line 26" y2="0.17" transform="translate(66.146 68.5)" fill="none" stroke="#263238" stroke-linecap="round" stroke-linejoin="round" stroke-width="1"></line><line id="Line_27" data-name="Line 27" x2="0.17" transform="translate(4.242 55.608)" fill="none" stroke="#263238" stroke-linecap="round" stroke-linejoin="round" stroke-width="1"></line><line id="Line_28" data-name="Line 28" x2="85.056" transform="translate(5.429 55.608)" fill="none" stroke="#FFD100" stroke-linecap="round" stroke-linejoin="round" stroke-width="1" stroke-dasharray="0.998 2.994"></line><line id="Line_29" data-name="Line 29" x2="0.17" transform="translate(90.995 55.608)" fill="none" stroke="#263238" stroke-linecap="round" stroke-linejoin="round" stroke-width="1"></line><rect id="Rectangle_1132" data-name="Rectangle 1132" width="1.174" height="1.174" transform="translate(65.561 55.019)" fill="#fff" stroke="#263238" stroke-linecap="round" stroke-linejoin="round" stroke-width="0.5"></rect><g id="Group_7502" data-name="Group 7502" transform="translate(44.797 43.695)"><line id="Line_30" data-name="Line 30" x1="15.668" transform="translate(0.997 0.64)" fill="none" stroke="#FFD100" stroke-linecap="round" stroke-linejoin="round" stroke-width="1"></line><path id="Path_6562" data-name="Path 6562" d="M201.287,246.413s0-7.283-8.137-7.283-8.15,7.283-8.15,7.283" transform="translate(-184.32 -238.528)" fill="none" stroke="#FFD100" stroke-linecap="round" stroke-linejoin="round" stroke-width="1"></path><circle id="Ellipse_22" data-name="Ellipse 22" cx="0.687" cy="0.687" r="0.687" transform="translate(16.281 7.198)" fill="#6A2186" stroke="#263238" stroke-linecap="round" stroke-linejoin="round" stroke-width="0.5"></circle><path id="Path_6563" data-name="Path 6563" d="M183,259.22a.68.68,0,1,1,.68.68A.68.68,0,0,1,183,259.22Z" transform="translate(-183 -251.335)" fill="#6A2186" stroke="#263238" stroke-linecap="round" stroke-linejoin="round" stroke-width="0.5"></path><rect id="Rectangle_1133" data-name="Rectangle 1133" width="1.204" height="1.204" transform="translate(17.57 1.204) rotate(180)" fill="#6A2186" stroke="#263238" stroke-linecap="round" stroke-linejoin="round" stroke-width="0.5"></rect><rect id="Rectangle_1134" data-name="Rectangle 1134" width="1.204" height="1.204" transform="translate(9.433 1.204) rotate(180)" fill="#6A2186" stroke="#263238" stroke-linecap="round" stroke-linejoin="round" stroke-width="0.5"></rect><rect id="Rectangle_1135" data-name="Rectangle 1135" width="1.204" height="1.204" transform="translate(1.296 1.204) rotate(180)" fill="#6A2186" stroke="#263238" stroke-linecap="round" stroke-linejoin="round" stroke-width="0.5"></rect></g><path id="Path_6564" data-name="Path 6564" d="M81.8,159.72v-2.408l-1.8-.153a5.133,5.133,0,0,0-.446-1.082L80.72,154.7l-1.7-1.7-1.384,1.163a4.836,4.836,0,0,0-1.082-.446l-.156-1.8H74l-.156,1.8a4.762,4.762,0,0,0-1.078.446L71.376,153l-1.7,1.7,1.163,1.381a4.961,4.961,0,0,0-.446,1.082l-1.8.153v2.408l1.8.153a5.029,5.029,0,0,0,.446,1.082l-1.163,1.381,1.7,1.7,1.384-1.163a4.76,4.76,0,0,0,1.072.446l.156,1.8h2.4l.156-1.8a4.838,4.838,0,0,0,1.078-.446l1.384,1.163,1.7-1.7-1.163-1.381A5.208,5.208,0,0,0,80,159.873Zm-6.609,1.592a2.8,2.8,0,1,1,2.8-2.8A2.8,2.8,0,0,1,75.193,161.312Z" transform="translate(-62.712 -137.283)" fill="#6A2186" stroke="#263238" stroke-linecap="round" stroke-linejoin="round" stroke-width="1"></path><path id="Path_6565" data-name="Path 6565" d="M113.925,180.351V178.7l-1.235-.109a3.337,3.337,0,0,0-.3-.738l.8-.946-1.167-1.163-.946.8a3.519,3.519,0,0,0-.738-.306L110.227,175h-1.646l-.109,1.235a3.519,3.519,0,0,0-.738.306l-.946-.8-1.167,1.163.8.946a3.191,3.191,0,0,0-.306.738l-1.235.109v1.646l1.235.105a3.131,3.131,0,0,0,.306.738l-.8.952,1.167,1.163.946-.8a3.517,3.517,0,0,0,.738.306l.109,1.231h1.646l.105-1.231a3.517,3.517,0,0,0,.738-.306l.946.8,1.167-1.163-.779-.949a3.269,3.269,0,0,0,.3-.738Zm-4.521,1.089a1.915,1.915,0,1,1,1.912-1.912,1.915,1.915,0,0,1-1.912,1.912Z" transform="translate(-86.657 -152.518)" fill="#6A2186" stroke="#263238" stroke-linecap="round" stroke-linejoin="round" stroke-width="1"></path><line id="Line_31" data-name="Line 31" x2="13.175" transform="translate(69.507 59.608)" fill="none" stroke="#FFD100" stroke-linecap="round" stroke-linejoin="round" stroke-width="1"></line><line id="Line_32" data-name="Line 32" x2="13.175" transform="translate(69.507 61.72)" fill="none" stroke="#FFD100" stroke-linecap="round" stroke-linejoin="round" stroke-width="1"></line><line id="Line_33" data-name="Line 33" x2="7.511" transform="translate(69.507 63.87)" fill="none" stroke="#FFD100" stroke-linecap="round" stroke-linejoin="round" stroke-width="1"></line><path id="Path_6566" data-name="Path 6566" d="M187.857,292.652h-6.936a1.7,1.7,0,0,1-1.7-1.7h0a1.7,1.7,0,0,1,1.7-1.7h6.936a1.7,1.7,0,0,1,1.7,1.7h0A1.7,1.7,0,0,1,187.857,292.652Z" transform="translate(-139.699 -227.904)" fill="#6A2186" stroke="#263238" stroke-linecap="round" stroke-linejoin="round" stroke-width="0.5"></path><path id="Path_6567" data-name="Path 6567" d="M225.857,292.652h-6.936a1.7,1.7,0,0,1-1.7-1.7h0a1.7,1.7,0,0,1,1.7-1.7h6.936a1.7,1.7,0,0,1,1.7,1.7h0A1.7,1.7,0,0,1,225.857,292.652Z" transform="translate(-164.773 -227.904)" fill="#6A2186" stroke="#263238" stroke-linecap="round" stroke-linejoin="round" stroke-width="0.5"></path><rect id="Rectangle_1136" data-name="Rectangle 1136" width="14.709" height="14.709" transform="translate(70.47 28.254)" fill="#fff" stroke="#FFD100" stroke-linecap="round" stroke-linejoin="round" stroke-width="1"></rect><line id="Line_34" data-name="Line 34" x2="14.709" y2="14.709" transform="translate(70.47 28.254)" fill="#fff" stroke="#FFD100" stroke-linecap="round" stroke-linejoin="round" stroke-width="1"></line><line id="Line_35" data-name="Line 35" x1="14.709" y2="14.709" transform="translate(70.47 28.254)" fill="#fff" stroke="#FFD100" stroke-linecap="round" stroke-linejoin="round" stroke-width="1"></line><path id="Path_6568" data-name="Path 6568" d="M265.836,142.88v3.432l-1.514,1.514H260.89V142.88Z" transform="translate(-189.597 -131.324)" fill="#fff" stroke="#FFD100" stroke-linecap="round" stroke-linejoin="round" stroke-width="0.5"></path><path id="Path_6569" data-name="Path 6569" d="M272.494,152.97l-1.514,1.514V152.97Z" transform="translate(-196.255 -137.982)" fill="#fff" stroke="#FFD100" stroke-linecap="round" stroke-linejoin="round" stroke-width="0.5"></path><path id="Path_6570" data-name="Path 6570" d="M111.206,220.91v3.432l-1.514,1.517H106.26V220.91Z" transform="translate(-87.568 -182.811)" fill="#fff" stroke="#FFD100" stroke-linecap="round" stroke-linejoin="round" stroke-width="1"></path><path id="Path_6571" data-name="Path 6571" d="M117.864,231l-1.514,1.517V231Z" transform="translate(-94.225 -189.469)" fill="#fff" stroke="#FFD100" stroke-linecap="round" stroke-linejoin="round" stroke-width="1"></path><path id="Path_6572" data-name="Path 6572" d="M56.259,283.08v3.432l-1.514,1.514H51.31V283.08Z" transform="translate(-51.31 -223.833)" fill="#fff" stroke="#FFD100" stroke-linecap="round" stroke-linejoin="round" stroke-width="1"></path><path id="Path_6573" data-name="Path 6573" d="M62.924,293.17l-1.514,1.514V293.17Z" transform="translate(-57.974 -230.49)" fill="#fff" stroke="#FFD100" stroke-linecap="round" stroke-linejoin="round" stroke-width="1"></path></g><g id="freepik--Screens--inject-3" transform="translate(25.005 55.622)"><rect id="Rectangle_1137" data-name="Rectangle 1137" width="18.254" height="11.44" transform="translate(68.65)" fill="#FFD100" stroke="#FFD100" stroke-linecap="round" stroke-linejoin="round" stroke-width="1"></rect><rect id="Rectangle_1138" data-name="Rectangle 1138" width="18.254" height="1.738" transform="translate(68.65)" fill="#6A2186" stroke="#263238" stroke-linecap="round" stroke-linejoin="round" stroke-width="1"></rect><line id="Line_36" data-name="Line 36" x2="4.667" transform="translate(70.51 3.204)" fill="none" stroke="#fff" stroke-linecap="round" stroke-linejoin="round" stroke-width="0.5"></line><line id="Line_37" data-name="Line 37" x2="8.076" transform="translate(72.844 4.507)" fill="none" stroke="#fff" stroke-linecap="round" stroke-linejoin="round" stroke-width="0.5"></line><line id="Line_38" data-name="Line 38" x2="2.378" transform="translate(71.813 5.722)" fill="none" stroke="#fff" stroke-linecap="round" stroke-linejoin="round" stroke-width="0.5"></line><line id="Line_39" data-name="Line 39" x2="5.439" transform="translate(72.844 7.154)" fill="none" stroke="#fff" stroke-linecap="round" stroke-linejoin="round" stroke-width="0.5"></line><line id="Line_40" data-name="Line 40" x2="4.667" transform="translate(70.51 8.453)" fill="none" stroke="#fff" stroke-linecap="round" stroke-linejoin="round" stroke-width="0.5"></line><path id="Path_6653" data-name="Path 6653" d="M0,0H18.254V11.44H0Z" transform="translate(0 46.028)" fill="#FFD100" stroke="#FFD100" stroke-linecap="round" stroke-width="1"></path><rect id="Rectangle_1140" data-name="Rectangle 1140" width="18.254" height="1.738" transform="translate(0 46.028)" fill="#6A2186" stroke="#263238" stroke-linecap="round" stroke-linejoin="round" stroke-width="1"></rect><line id="Line_41" data-name="Line 41" x2="4.664" transform="translate(1.864 49.236)" fill="none" stroke="#fff" stroke-linecap="round" stroke-linejoin="round" stroke-width="0.5"></line><line id="Line_42" data-name="Line 42" x2="8.076" transform="translate(4.194 50.536)" fill="none" stroke="#fff" stroke-linecap="round" stroke-linejoin="round" stroke-width="0.5"></line><line id="Line_43" data-name="Line 43" x2="2.378" transform="translate(3.164 51.75)" fill="none" stroke="#fff" stroke-linecap="round" stroke-linejoin="round" stroke-width="0.5"></line><line id="Line_44" data-name="Line 44" x2="5.439" transform="translate(4.194 53.182)" fill="none" stroke="#fff" stroke-linecap="round" stroke-linejoin="round" stroke-width="0.5"></line><line id="Line_45" data-name="Line 45" x2="4.664" transform="translate(1.864 54.485)" fill="none" stroke="#fff" stroke-linecap="round" stroke-linejoin="round" stroke-width="0.5"></line></g><g id="freepik--speech-bubble--inject-3" transform="translate(28.332 20.659)"><path id="Path_6574" data-name="Path 6574" d="M133.032,58h-16.77a.745.745,0,0,0-.742.742v7.824a.742.742,0,0,0,.742.738h7.518l.857,3.062L125.5,67.3h7.535a.742.742,0,0,0,.742-.738V58.742A.745.745,0,0,0,133.032,58Z" transform="translate(-115.52 -58)" fill="#6A2186" stroke="#263238" stroke-linecap="round" stroke-linejoin="round" stroke-width="1"></path><line id="Line_46" data-name="Line 46" x2="12.671" transform="translate(2.783 2.238)" fill="none" stroke="#263238" stroke-linecap="round" stroke-linejoin="round" stroke-width="1"></line><line id="Line_47" data-name="Line 47" x2="12.671" transform="translate(2.783 3.844)" fill="none" stroke="#263238" stroke-linecap="round" stroke-linejoin="round" stroke-width="1"></line><line id="Line_48" data-name="Line 48" x2="12.671" transform="translate(2.783 5.45)" fill="none" stroke="#263238" stroke-linecap="round" stroke-linejoin="round" stroke-width="1"></line><line id="Line_49" data-name="Line 49" x2="9.549" transform="translate(2.783 7.055)" fill="none" stroke="#263238" stroke-linecap="round" stroke-linejoin="round" stroke-width="1"></line></g><g id="freepik--speech-bubble--inject-3-2" data-name="freepik--speech-bubble--inject-3" transform="translate(101.575 102.939)"><path id="Path_6574-2" data-name="Path 6574" d="M133.032,58h-16.77a.745.745,0,0,0-.742.742v7.824a.742.742,0,0,0,.742.738h7.518l.857,3.062L125.5,67.3h7.535a.742.742,0,0,0,.742-.738V58.742A.745.745,0,0,0,133.032,58Z" transform="translate(-115.52 -58)" fill="#6A2186" stroke="#263238" stroke-linecap="round" stroke-linejoin="round" stroke-width="1"></path><line id="Line_46-2" data-name="Line 46" x2="12.671" transform="translate(2.783 2.238)" fill="none" stroke="#263238" stroke-linecap="round" stroke-linejoin="round" stroke-width="1"></line><line id="Line_47-2" data-name="Line 47" x2="12.671" transform="translate(2.783 3.844)" fill="none" stroke="#263238" stroke-linecap="round" stroke-linejoin="round" stroke-width="1"></line><line id="Line_48-2" data-name="Line 48" x2="12.671" transform="translate(2.783 5.45)" fill="none" stroke="#263238" stroke-linecap="round" stroke-linejoin="round" stroke-width="1"></line><line id="Line_49-2" data-name="Line 49" x2="9.549" transform="translate(2.783 7.055)" fill="none" stroke="#263238" stroke-linecap="round" stroke-linejoin="round" stroke-width="1"></line></g></g><g id="Mask_Group_6261" data-name="Mask Group 6261" transform="translate(134.801 94)" clip-path="url(#clip-path)"><g id="Group_6509" data-name="Group 6509" transform="translate(-8.918 -7.526)"><g id="Group_6222" data-name="Group 6222" clip-path="url(#clip-path-2)"><g id="Group_6211" data-name="Group 6211" transform="translate(0 0)"><g id="Group_6210" data-name="Group 6210" clip-path="url(#clip-path-2)"><path id="Path_6353" data-name="Path 6353" d="M394.821,677.072l-15.232,20.723,2.711,24.524h12.521Z" transform="translate(-361.359 -644.555)" fill="#FFD100"></path><path id="Path_6354" data-name="Path 6354" d="M699.452,677.072l15.232,20.723-2.711,24.524H699.452Z" transform="translate(-665.861 -644.555)" fill="#FFD100"></path><path id="Path_6355" data-name="Path 6355" d="M319.695,2912.247c0,2.649-9.07,4.8-20.259,4.8s-20.259-2.148-20.259-4.8,9.07-4.8,20.259-4.8,20.259,2.148,20.259,4.8" transform="translate(-265.769 -2767.819)" fill="#ffe8d9" opacity="0.38"></path><path id="Path_6356" data-name="Path 6356" d="M516.377,2617.914l1.379-13.315-6.148-.94.607,14.256a1.459,1.459,0,0,1-.254.823l-.685,1h6.04l-.685-1a1.459,1.459,0,0,1-.254-.823" transform="translate(-486.722 -2478.617)" fill="#fbd3a8"></path><path id="Path_6357" data-name="Path 6357" d="M487.9,2915.447v1.442c.321.837,8.16.868,8.285,0v-1.334a2.622,2.622,0,0,0-.128-.817c-1.365-4.165-7.173-3.517-8.08.069a2.608,2.608,0,0,0-.077.639" transform="translate(-464.468 -2772.018)" fill="#232323"></path><path id="Path_6358" data-name="Path 6358" d="M503.107,2952.479c.926-2.071,5.938-2.076,6.787-.014a.237.237,0,0,1-.151.317,15.043,15.043,0,0,1-6.5.018.236.236,0,0,1-.133-.321" transform="translate(-478.925 -2809.204)" fill="#ffd9a4"></path><path id="Path_6359" data-name="Path 6359" d="M594.357,2979.182l.251-.812a.121.121,0,0,1,.228,0l.2.767Z" transform="translate(-565.813 -2835.257)" fill="#232323"></path><path id="Path_6360" data-name="Path 6360" d="M489.774,2934.874a1.238,1.238,0,0,0,0,1.587,3.208,3.208,0,0,1-1.868-.53l-.005-1.442a3.39,3.39,0,0,1,1.416-2.625.977.977,0,0,0,.692,1.3,2.042,2.042,0,0,0-1.424,1.217c-.008.382.529.469,1.189.491" transform="translate(-464.469 -2791.06)" fill="#3b3b3b"></path><g id="Group_6173" data-name="Group 6173" transform="translate(24.187 142.454)" opacity="0.35"><g id="Group_6172" data-name="Group 6172"><g id="Group_6171" data-name="Group 6171" clip-path="url(#clip-path-4)"><path id="Path_6361" data-name="Path 6361" d="M504.34,2966.246c-.316.42-.322,1.1-.1,1.27-.305-.041-.548-.115-.6-.293a1.712,1.712,0,0,1,.7-.977" transform="translate(-503.641 -2966.246)" fill="#f8a364"></path></g></g></g><g id="Group_6176" data-name="Group 6176" transform="translate(30.336 142.407)" opacity="0.35"><g id="Group_6175" data-name="Group 6175"><g id="Group_6174" data-name="Group 6174" clip-path="url(#clip-path-4)"><path id="Path_6362" data-name="Path 6362" d="M631.661,2965.269c.316.42.322,1.1.1,1.271.305-.041.548-.115.6-.293a1.714,1.714,0,0,0-.7-.978" transform="translate(-631.661 -2965.269)" fill="#f8a364"></path></g></g></g><g id="Group_6179" data-name="Group 6179" transform="translate(28.878 140.657)" opacity="0.2"><g id="Group_6178" data-name="Group 6178"><g id="Group_6177" data-name="Group 6177" clip-path="url(#clip-path-6)"><path id="Path_6363" data-name="Path 6363" d="M602.391,2929.185c.5.314.834.688.742.834s-.573.011-1.075-.3-.834-.687-.743-.834.573-.011,1.075.3" transform="translate(-601.301 -2928.822)" fill="#fff"></path></g></g></g><g id="Group_6182" data-name="Group 6182" transform="translate(30.349 143.414)" opacity="0.2"><g id="Group_6181" data-name="Group 6181"><g id="Group_6180" data-name="Group 6180" clip-path="url(#clip-path-7)"><path id="Path_6364" data-name="Path 6364" d="M632.961,2986.245a.017.017,0,0,1,.033,0l.06,1.058a.155.155,0,0,1-.141.154l-.943.119a.019.019,0,0,1-.008-.036l.766-.246a.156.156,0,0,0,.11-.12Z" transform="translate(-631.95 -2986.23)" fill="#fff"></path></g></g></g><g id="Group_6185" data-name="Group 6185" transform="translate(25.389 136.856)" opacity="0.35"><g id="Group_6184" data-name="Group 6184"><g id="Group_6183" data-name="Group 6183" clip-path="url(#clip-path-8)"><path id="Path_6365" data-name="Path 6365" d="M533.035,2851.087a6.547,6.547,0,0,1-4.317-.086l-.056-1.319,4.563.062Z" transform="translate(-528.662 -2849.683)" fill="#f8a364"></path></g></g></g><path id="Path_6366" data-name="Path 6366" d="M743.781,2617.914,742.4,2604.6l6.148-.94-.607,14.256a1.46,1.46,0,0,0,.254.823l.685,1h-6.04l.685-1a1.46,1.46,0,0,0,.254-.823" transform="translate(-706.748 -2478.617)" fill="#fbd3a8"></path><path id="Path_6367" data-name="Path 6367" d="M736.479,2915.447v1.442c-.321.837-8.16.868-8.285,0v-1.334a2.619,2.619,0,0,1,.128-.817c1.364-4.165,7.173-3.517,8.08.069a2.608,2.608,0,0,1,.077.639" transform="translate(-693.222 -2772.018)" fill="#232323"></path><path id="Path_6368" data-name="Path 6368" d="M750.185,2952.479c-.926-2.071-5.938-2.076-6.787-.014a.237.237,0,0,0,.151.317,15.043,15.043,0,0,0,6.5.018.236.236,0,0,0,.133-.321" transform="translate(-707.679 -2809.204)" fill="#ffd9a4"></path><path id="Path_6369" data-name="Path 6369" d="M780.767,2979.182l-.251-.812a.121.121,0,0,0-.228,0l-.2.767Z" transform="translate(-742.623 -2835.257)" fill="#232323"></path><path id="Path_6370" data-name="Path 6370" d="M857.041,2934.874a1.238,1.238,0,0,1,0,1.587,3.209,3.209,0,0,0,1.868-.53l.005-1.442a3.39,3.39,0,0,0-1.416-2.625.977.977,0,0,1-.692,1.3,2.042,2.042,0,0,1,1.424,1.217c.008.382-.529.469-1.189.491" transform="translate(-815.658 -2791.06)" fill="#3b3b3b"></path><g id="Group_6188" data-name="Group 6188" transform="translate(41.802 142.454)" opacity="0.35"><g id="Group_6187" data-name="Group 6187"><g id="Group_6186" data-name="Group 6186" clip-path="url(#clip-path-4)"><path id="Path_6371" data-name="Path 6371" d="M870.422,2966.246c.316.42.322,1.1.1,1.27.305-.041.548-.115.6-.293a1.713,1.713,0,0,0-.7-.977" transform="translate(-870.422 -2966.246)" fill="#f8a364"></path></g></g></g><g id="Group_6191" data-name="Group 6191" transform="translate(35.654 142.407)" opacity="0.35"><g id="Group_6190" data-name="Group 6190"><g id="Group_6189" data-name="Group 6189" clip-path="url(#clip-path-4)"><path id="Path_6372" data-name="Path 6372" d="M743.1,2965.269c-.316.42-.322,1.1-.1,1.271-.305-.041-.548-.115-.6-.293a1.714,1.714,0,0,1,.7-.978" transform="translate(-742.402 -2965.269)" fill="#f8a364"></path></g></g></g><g id="Group_6194" data-name="Group 6194" transform="translate(35.963 140.657)" opacity="0.2"><g id="Group_6193" data-name="Group 6193"><g id="Group_6192" data-name="Group 6192" clip-path="url(#clip-path-6)"><path id="Path_6373" data-name="Path 6373" d="M749.593,2929.185c-.5.314-.834.688-.742.834s.573.011,1.075-.3.834-.687.743-.834-.573-.011-1.075.3" transform="translate(-748.835 -2928.822)" fill="#fff"></path></g></g></g><g id="Group_6197" data-name="Group 6197" transform="translate(35.234 143.414)" opacity="0.2"><g id="Group_6196" data-name="Group 6196"><g id="Group_6195" data-name="Group 6195" clip-path="url(#clip-path-7)"><path id="Path_6374" data-name="Path 6374" d="M733.745,2986.245a.017.017,0,0,0-.033,0l-.06,1.058a.155.155,0,0,0,.141.154l.943.119a.019.019,0,0,0,.008-.036l-.766-.246a.156.156,0,0,1-.11-.12Z" transform="translate(-733.651 -2986.23)" fill="#fff"></path></g></g></g><g id="Group_6200" data-name="Group 6200" transform="translate(36.736 136.856)" opacity="0.35"><g id="Group_6199" data-name="Group 6199"><g id="Group_6198" data-name="Group 6198" clip-path="url(#clip-path-8)"><path id="Path_6375" data-name="Path 6375" d="M765.129,2851.087a6.548,6.548,0,0,0,4.317-.086l.056-1.319-4.563.062Z" transform="translate(-764.94 -2849.683)" fill="#f8a364"></path></g></g></g><path id="Path_6376" data-name="Path 6376" d="M458.713,2209.649c-4.345,3.473-23.093,3.473-25.73,0l1.216-34.019,23.384-.185Z" transform="translate(-412.189 -2070.969)" fill="#f9f9f9"></path><path id="Path_6377" data-name="Path 6377" d="M784.752,988.585l9.058-7.086,3.737.75a29.348,29.348,0,0,1-1.068,10.129c-3.182,6.493-6.073,7.376-6.073,7.376l-5.654-.014Z" transform="translate(-747.064 -934.362)" fill="#2d2d2d"></path><path id="Path_6378" data-name="Path 6378" d="M368.815,988.585l-9.058-7.086-3.737.75a29.346,29.346,0,0,0,1.068,10.129c3.182,6.493,6.073,7.376,6.073,7.376l5.654-.014Z" transform="translate(-338.816 -934.362)" fill="#2d2d2d"></path><path id="Path_6379" data-name="Path 6379" d="M628.841,1408.427c0,1.005-1.733,1.82-3.871,1.82s-3.871-.815-3.871-1.82,1.733-1.82,3.871-1.82,3.871.815,3.871,1.82" transform="translate(-591.271 -1339.054)" fill="#aeb5b5"></path><path id="Path_6380" data-name="Path 6380" d="M631.34,1394.095h-5.979a13.268,13.268,0,0,1-.644,4.912.935.935,0,0,0,.259,1.022c1.306,1.167,5.207,1.586,6.8-.126a.935.935,0,0,0,.191-.955,13.413,13.413,0,0,1-.622-4.853" transform="translate(-594.66 -1327.143)" fill="#fbd3a8"></path><g id="Group_6203" data-name="Group 6203" transform="translate(30.705 66.685)" opacity="0.35"><g id="Group_6202" data-name="Group 6202"><g id="Group_6201" data-name="Group 6201" clip-path="url(#clip-path-14)"><path id="Path_6381" data-name="Path 6381" d="M639.519,1388.544l5.7.038.1,1.643c-.9,1.318-5.294,1.263-5.96-.061Z" transform="translate(-639.357 -1388.544)" fill="#f8a364"></path></g></g></g><path id="Path_6382" data-name="Path 6382" d="M455.716,1435.006v65.02H443.663l.873-42.628-.014-20.49a.358.358,0,0,1,.126-.253c1.441-1.273,3.927-1.824,6.793-2.09a.4.4,0,0,0,.326-.227l.5-1.05a.113.113,0,0,1,.2,0c.812,1.713,3.241,1.716,3.241,1.716" transform="translate(-422.356 -1364.394)" fill="#f9f9f9"></path><path id="Path_6383" data-name="Path 6383" d="M356.095,1112.475c-2.576,0-4.219-3.429-3.419-5.643a2.061,2.061,0,0,1,1.1-1.215,2.4,2.4,0,0,1,2.321.46Z" transform="translate(-335.545 -1052.378)" fill="#fbd3a8"></path><path id="Path_6384" data-name="Path 6384" d="M378.8,1137.808c-3.493-1.243-2.9,3.92-.033,4.046" transform="translate(-358.316 -1082.981)" fill="#fbbd89"></path><path id="Path_6385" data-name="Path 6385" d="M378.665,1136.923a3.844,3.844,0,0,0-.949-.213,2.024,2.024,0,0,0-.481.017,1.321,1.321,0,0,0-.448.156,1.062,1.062,0,0,0-.344.327,1.36,1.36,0,0,0-.188.447,2.261,2.261,0,0,0-.057.491,3.959,3.959,0,0,0,.03.5,2.863,2.863,0,0,1-.025-1,1.425,1.425,0,0,1,.172-.479,1.157,1.157,0,0,1,.355-.375,1.442,1.442,0,0,1,.48-.2,2.175,2.175,0,0,1,.514-.046,4.031,4.031,0,0,1,1.007.169Z" transform="translate(-358.103 -1081.967)" fill="#603813"></path><path id="Path_6386" data-name="Path 6386" d="M973.618,1112.475c2.576,0,4.219-3.429,3.419-5.643a2.061,2.061,0,0,0-1.1-1.215,2.4,2.4,0,0,0-2.32.46Z" transform="translate(-926.86 -1052.378)" fill="#fbd3a8"></path><path id="Path_6387" data-name="Path 6387" d="M975,1137.808c3.493-1.243,2.9,3.92.033,4.046" transform="translate(-928.18 -1082.981)" fill="#fbbd89"></path><path id="Path_6388" data-name="Path 6388" d="M972.021,1136.719a4.027,4.027,0,0,1,1.007-.169,2.182,2.182,0,0,1,.514.046,1.443,1.443,0,0,1,.48.2,1.155,1.155,0,0,1,.355.375,1.427,1.427,0,0,1,.172.479,2.863,2.863,0,0,1-.025,1,3.924,3.924,0,0,0,.03-.5,2.263,2.263,0,0,0-.057-.491,1.359,1.359,0,0,0-.188-.447,1.061,1.061,0,0,0-.344-.327,1.318,1.318,0,0,0-.448-.156,2.024,2.024,0,0,0-.481-.017,3.84,3.84,0,0,0-.949.213Z" transform="translate(-925.34 -1081.966)" fill="#603813"></path><path id="Path_6389" data-name="Path 6389" d="M428.425,852.889h-26.26c-3.563,16.231-1,26.905,12.95,27.24h.36c13.953-.335,16.513-11.009,12.95-27.24" transform="translate(-381.476 -811.929)" fill="#fbd3a8"></path><path id="Path_6390" data-name="Path 6390" d="M570.594,1095.423c0,1.031-.523,1.866-1.169,1.866s-1.169-.836-1.169-1.866.523-1.866,1.169-1.866,1.169.836,1.169,1.866" transform="translate(-540.965 -1041.039)" fill="#2d2d2d"></path><path id="Path_6391" data-name="Path 6391" d="M585.341,1101.794a.582.582,0,1,1-.569-.7.648.648,0,0,1,.569.7" transform="translate(-556.147 -1048.21)" fill="#fff"></path><path id="Path_6393" data-name="Path 6393" d="M789.049,1095.423c0,1.031-.523,1.866-1.169,1.866s-1.169-.836-1.169-1.866.523-1.866,1.169-1.866,1.169.836,1.169,1.866" transform="translate(-748.929 -1041.039)" fill="#2d2d2d"></path><path id="Path_6394" data-name="Path 6394" d="M803.8,1101.794a.582.582,0,1,1-.569-.7.648.648,0,0,1,.569.7" transform="translate(-764.111 -1048.21)" fill="#fff"></path><path id="Path_6396" data-name="Path 6396" d="M676.633,1215.741a.353.353,0,0,0,.167-.018c1.015-.3,1.162.84.345.944a1.458,1.458,0,0,1-1.441-.53.308.308,0,0,1,.2-.489,2.565,2.565,0,0,1,.73.094" transform="translate(-643.195 -1157.26)" fill="#f8a364"></path><path id="Path_6397" data-name="Path 6397" d="M783.666,1025.817c-1.123.021-1.55-1.057-.766-1.714a1.582,1.582,0,0,1,1.2-.29c1.167.125,1.889.538,2.018,1.337a.873.873,0,0,1-.251.787c-.411.376-1.049.232-1.745-.043a1.174,1.174,0,0,0-.454-.076" transform="translate(-744.92 -974.632)" fill="#2d2d2d"></path><path id="Path_6398" data-name="Path 6398" d="M552.531,1025.817c1.123.021,1.55-1.057.766-1.714a1.582,1.582,0,0,0-1.2-.29c-1.166.125-1.889.538-2.018,1.337a.873.873,0,0,0,.251.787c.411.376,1.049.232,1.744-.043a1.174,1.174,0,0,1,.454-.076" transform="translate(-523.653 -974.632)" fill="#2d2d2d"></path><path id="Path_6399" data-name="Path 6399" d="M404.224,984.614c-2.148,2.463-2.672,7.045-2.411,11.961-1.415-4.329-.866-11.961-.866-11.961Z" transform="translate(-381.592 -937.328)" fill="#2d2d2d"></path><path id="Path_6400" data-name="Path 6400" d="M938.159,984.614c2.148,2.463,2.672,7.045,2.411,11.961,1.414-4.329.866-11.961.866-11.961Z" transform="translate(-893.104 -937.328)" fill="#2d2d2d"></path><g id="Group_6206" data-name="Group 6206" transform="translate(29.092 68.831)" opacity="0.5"><g id="Group_6205" data-name="Group 6205"><g id="Group_6204" data-name="Group 6204" clip-path="url(#clip-path-15)"><path id="Path_6401" data-name="Path 6401" d="M605.77,1434.583c.151,1.461,1.771,2.549,3.756,2.7v28.829H611.6l-.276-28.58-1.276-.342v-2.162a3.562,3.562,0,0,1-3.249-1.729.114.114,0,0,0-.2.011l-.561,1.138a.409.409,0,0,1-.269.139" transform="translate(-605.77 -1433.244)" fill="#aeb5b5"></path></g></g></g><path id="Path_6402" data-name="Path 6402" d="M680.82,1514.2l-1.608.468v28.509" transform="translate(-646.592 -1441.481)" fill="none" stroke="#aeb5b5" stroke-miterlimit="10" stroke-width="15"></path><path id="Path_6403" data-name="Path 6403" d="M682.616,1435.006v2.162l-1.275.342v62.516h13.21L693.8,1457.4l.014-20.49a.359.359,0,0,0-.126-.253c-1.441-1.273-3.927-1.824-6.793-2.09a.4.4,0,0,1-.326-.227l-.5-1.05a.113.113,0,0,0-.2,0c-.812,1.713-3.241,1.716-3.241,1.716" transform="translate(-648.619 -1364.394)" fill="#f9f9f9"></path><g id="Group_6209" data-name="Group 6209" transform="translate(32.445 68.831)" opacity="0.5"><g id="Group_6208" data-name="Group 6208"><g id="Group_6207" data-name="Group 6207" clip-path="url(#clip-path-15)"><path id="Path_6404" data-name="Path 6404" d="M681.413,1434.583c-.151,1.461-1.771,2.549-3.756,2.7v28.829h-2.071l.276-28.58,1.275-.342v-2.162a3.562,3.562,0,0,0,3.249-1.729.114.114,0,0,1,.2.011l.561,1.138a.409.409,0,0,0,.269.139" transform="translate(-675.586 -1433.244)" fill="#aeb5b5"></path></g></g></g><path id="Path_6405" data-name="Path 6405" d="M689.063,1551.786a.47.47,0,1,1-.47-.47.47.47,0,0,1,.47.47" transform="translate(-655.075 -1476.813)" fill="#aeb5b5"></path><path id="Path_6406" data-name="Path 6406" d="M689.063,1671.953a.47.47,0,1,1-.47-.47.47.47,0,0,1,.47.47" transform="translate(-655.075 -1591.21)" fill="#aeb5b5"></path><path id="Path_6407" data-name="Path 6407" d="M689.063,1798.715a.47.47,0,1,1-.47-.47.47.47,0,0,1,.47.47" transform="translate(-655.075 -1711.884)" fill="#aeb5b5"></path><path id="Path_6408" data-name="Path 6408" d="M689.063,1918.883a.47.47,0,1,1-.47-.47.47.47,0,0,1,.47.47" transform="translate(-655.075 -1826.281)" fill="#aeb5b5"></path><path id="Path_6409" data-name="Path 6409" d="M689.063,2039.051a.47.47,0,1,1-.47-.47.47.47,0,0,1,.47.47" transform="translate(-655.075 -1940.678)" fill="#aeb5b5"></path><path id="Path_6410" data-name="Path 6410" d="M590.061,1249.511v-1.2c-2.656-.122-4.286.235-5.116,1.1a2.736,2.736,0,0,0-.742,1.894v1.39h1.282c-.48-1.127-.619-2.075,0-2.706a1.531,1.531,0,0,1,1.077-.447Z" transform="translate(-556.147 -1188.342)" fill="#2d2d2d"></path><path id="Path_6411" data-name="Path 6411" d="M702.544,1249.511v-1.2c2.656-.122,4.286.235,5.116,1.1a2.735,2.735,0,0,1,.742,1.894v1.39h-1.282c.48-1.127.618-2.075,0-2.706a1.531,1.531,0,0,0-1.077-.447Z" transform="translate(-668.804 -1188.342)" fill="#2d2d2d"></path></g></g><g id="Group_6219" data-name="Group 6219" transform="translate(15.606 29.568)"><g id="Group_6218" data-name="Group 6218" clip-path="url(#clip-path-17)"><rect id="Rectangle_910" data-name="Rectangle 910" width="70.766" height="67.689" transform="translate(-15.606 -9.341)" fill="#fff"></rect><g id="Group_6214" data-name="Group 6214" transform="translate(-14.861 -9.341)" opacity="0.6"><g id="Group_6213" data-name="Group 6213"><g id="Group_6212" data-name="Group 6212" clip-path="url(#clip-path-18)"><rect id="Rectangle_911" data-name="Rectangle 911" width="1.242" height="67.689" transform="translate(10.467 0)" fill="#6A2186"></rect><rect id="Rectangle_912" data-name="Rectangle 912" width="1.242" height="67.689" transform="translate(7.85 0)" fill="#6A2186"></rect><rect id="Rectangle_913" data-name="Rectangle 913" width="1.242" height="67.689" transform="translate(13.084 0)" fill="#6A2186"></rect><rect id="Rectangle_914" data-name="Rectangle 914" width="1.242" height="67.689" transform="translate(15.7 0)" fill="#6A2186"></rect><rect id="Rectangle_915" data-name="Rectangle 915" width="1.242" height="67.689" transform="translate(18.317 0)" fill="#6A2186"></rect><rect id="Rectangle_916" data-name="Rectangle 916" width="1.242" height="67.689" transform="translate(20.934 0)" fill="#6A2186"></rect><rect id="Rectangle_917" data-name="Rectangle 917" width="1.242" height="67.689" transform="translate(23.55 0)" fill="#6A2186"></rect><rect id="Rectangle_918" data-name="Rectangle 918" width="1.242" height="67.689" transform="translate(36.634 0)" fill="#6A2186"></rect><rect id="Rectangle_919" data-name="Rectangle 919" width="1.242" height="67.689" transform="translate(34.017 0)" fill="#6A2186"></rect><rect id="Rectangle_920" data-name="Rectangle 920" width="1.242" height="67.689" transform="translate(31.401 0)" fill="#6A2186"></rect><rect id="Rectangle_921" data-name="Rectangle 921" width="1.242" height="67.689" transform="translate(28.784 0)" fill="#6A2186"></rect><rect id="Rectangle_922" data-name="Rectangle 922" width="1.242" height="67.689" transform="translate(26.167 0)" fill="#6A2186"></rect><rect id="Rectangle_923" data-name="Rectangle 923" width="1.242" height="67.689" transform="translate(39.251 0)" fill="#6A2186"></rect><rect id="Rectangle_924" data-name="Rectangle 924" width="1.242" height="67.689" transform="translate(41.867 0)" fill="#6A2186"></rect><rect id="Rectangle_925" data-name="Rectangle 925" width="1.242" height="67.689" transform="translate(44.484 0)" fill="#6A2186"></rect><rect id="Rectangle_926" data-name="Rectangle 926" width="1.242" height="67.689" transform="translate(47.101 0)" fill="#6A2186"></rect><rect id="Rectangle_927" data-name="Rectangle 927" width="1.242" height="67.689" transform="translate(49.718 0)" fill="#6A2186"></rect><rect id="Rectangle_928" data-name="Rectangle 928" width="1.242" height="67.689" transform="translate(52.334 0)" fill="#6A2186"></rect></g></g></g><g id="Group_6217" data-name="Group 6217" transform="translate(-14.067 -10.135)" opacity="0.8"><g id="Group_6216" data-name="Group 6216"><g id="Group_6215" data-name="Group 6215" clip-path="url(#clip-path-19)"><rect id="Rectangle_930" data-name="Rectangle 930" width="67.689" height="1.242" transform="translate(0 57.568)" fill="#6A2186"></rect><rect id="Rectangle_931" data-name="Rectangle 931" width="67.689" height="1.242" transform="translate(0 60.184)" fill="#6A2186"></rect><rect id="Rectangle_932" data-name="Rectangle 932" width="67.689" height="1.242" transform="translate(0 62.801)" fill="#6A2186"></rect><rect id="Rectangle_933" data-name="Rectangle 933" width="67.689" height="1.242" transform="translate(0 65.418)" fill="#6A2186"></rect><rect id="Rectangle_934" data-name="Rectangle 934" width="67.689" height="1.242" transform="translate(0 68.035)" fill="#6A2186"></rect><rect id="Rectangle_935" data-name="Rectangle 935" width="67.689" height="1.242" transform="translate(0 54.951)" fill="#6A2186"></rect><rect id="Rectangle_936" data-name="Rectangle 936" width="67.689" height="1.242" transform="translate(0 52.334)" fill="#6A2186"></rect><rect id="Rectangle_937" data-name="Rectangle 937" width="67.689" height="1.242" transform="translate(0 49.718)" fill="#6A2186"></rect><rect id="Rectangle_938" data-name="Rectangle 938" width="67.689" height="1.242" transform="translate(0 47.101)" fill="#6A2186"></rect><rect id="Rectangle_939" data-name="Rectangle 939" width="67.689" height="1.242" transform="translate(0 44.484)" fill="#6A2186"></rect><rect id="Rectangle_940" data-name="Rectangle 940" width="67.689" height="1.242" transform="translate(0 31.401)" fill="#6A2186"></rect><rect id="Rectangle_941" data-name="Rectangle 941" width="67.689" height="1.242" transform="translate(0 34.017)" fill="#6A2186"></rect><rect id="Rectangle_942" data-name="Rectangle 942" width="67.689" height="1.242" transform="translate(0 36.634)" fill="#6A2186"></rect><rect id="Rectangle_943" data-name="Rectangle 943" width="67.689" height="1.242" transform="translate(0 39.251)" fill="#6A2186"></rect><rect id="Rectangle_944" data-name="Rectangle 944" width="67.689" height="1.242" transform="translate(0 41.867)" fill="#6A2186"></rect><rect id="Rectangle_945" data-name="Rectangle 945" width="67.689" height="1.242" transform="translate(0 28.784)" fill="#6A2186"></rect><rect id="Rectangle_946" data-name="Rectangle 946" width="67.689" height="1.242" transform="translate(0 26.167)" fill="#6A2186"></rect><rect id="Rectangle_947" data-name="Rectangle 947" width="67.689" height="1.242" transform="translate(0 23.55)" fill="#6A2186"></rect><rect id="Rectangle_948" data-name="Rectangle 948" width="67.689" height="1.242" transform="translate(0 20.934)" fill="#6A2186"></rect><rect id="Rectangle_949" data-name="Rectangle 949" width="67.689" height="1.242" transform="translate(0 18.317)" fill="#6A2186"></rect><rect id="Rectangle_950" data-name="Rectangle 950" width="67.689" height="1.242" transform="translate(0 15.7)" fill="#6A2186"></rect><rect id="Rectangle_951" data-name="Rectangle 951" width="67.689" height="1.242" transform="translate(0 13.084)" fill="#6A2186"></rect><rect id="Rectangle_952" data-name="Rectangle 952" width="67.689" height="1.242" transform="translate(0 10.467)" fill="#6A2186"></rect><rect id="Rectangle_953" data-name="Rectangle 953" width="67.689" height="1.242" transform="translate(0 7.85)" fill="#6A2186"></rect><rect id="Rectangle_954" data-name="Rectangle 954" width="67.689" height="1.242" transform="translate(0 5.233)" fill="#6A2186"></rect><rect id="Rectangle_955" data-name="Rectangle 955" width="67.689" height="1.242" transform="translate(0 2.617)" fill="#6A2186"></rect><rect id="Rectangle_956" data-name="Rectangle 956" width="67.689" height="1.242" transform="translate(0 0)" fill="#6A2186"></rect></g></g></g></g></g><g id="Group_6221" data-name="Group 6221" transform="translate(0 0)"><g id="Group_6220" data-name="Group 6220" clip-path="url(#clip-path-2)"><path id="Path_6413" data-name="Path 6413" d="M371.224,839.141H337.864a.866.866,0,0,1-.866-.866v-.153a2.424,2.424,0,0,1,2.424-2.424h30.244a2.424,2.424,0,0,1,2.424,2.424v.153a.866.866,0,0,1-.866.866" transform="translate(-320.814 -795.563)" fill="#2d2d2d"></path><path id="Path_6414" data-name="Path 6414" d="M640.138,1280.681a23.839,23.839,0,0,1-6.652,0,2.951,2.951,0,0,0,3.3,3.275h.061a2.951,2.951,0,0,0,3.3-3.275" transform="translate(-603.054 -1219.176)" fill="#be1717"></path><path id="Path_6415" data-name="Path 6415" d="M640.14,1280.681a23.838,23.838,0,0,1-6.652,0,2.917,2.917,0,0,0,0,.412,12.32,12.32,0,0,0,6.661,0,2.914,2.914,0,0,0,0-.412" transform="translate(-603.056 -1219.176)" fill="#fff"></path><path id="Path_6416" data-name="Path 6416" d="M657.257,1317.423a3.734,3.734,0,0,0-2.4-.777H654.8a3.734,3.734,0,0,0-2.4.777,3.4,3.4,0,0,0,2.4.769h.061a3.4,3.4,0,0,0,2.4-.769" transform="translate(-621.072 -1253.413)" fill="#ff2929"></path><path id="Path_6417" data-name="Path 6417" d="M635.3,1282.486h-.072l-.152,0h-.033l-.143-.006h-.024l-.123-.009-.03,0-.13-.013-.034,0-.11-.015-.023,0-.118-.02-.039-.007-.11-.022-.022-.005-.012,0-.081-.02h0l-.04-.01-.095-.027-.039-.012-.008,0-.058-.019-.065-.022-.062-.023-.054-.021-.038-.015-.095-.041-.026-.012-.06-.029h0c-.038-.019-.08-.041-.121-.063l-.009-.005a3.11,3.11,0,0,1-1.415-2.921.08.08,0,0,1,.029-.054.078.078,0,0,1,.059-.017l.013,0a23.768,23.768,0,0,0,6.607,0l.012,0a.078.078,0,0,1,.088.07,3.111,3.111,0,0,1-1.415,2.922l-.008,0c-.043.024-.083.045-.124.065l-.06.029-.026.011-.1.042-.038.015-.054.021-.062.023-.066.023-.058.019-.009,0-.037.011-.095.027-.042.01-.082.02-.012,0-.022.005-.109.022-.039.007-.118.02-.023,0-.11.015-.034,0-.13.013-.03,0-.122.009h-.024l-.143.006h-.033l-.141,0m-.042-.156h.031l.148,0h.032l.139-.006h0l.024,0,.119-.008.029,0,.126-.013.033,0,.106-.014.022,0,.113-.02.038-.007.105-.022.033-.008.078-.019.042-.01.09-.026.035-.011.01,0,.055-.017.063-.022.059-.021.052-.02.036-.014.09-.039.024-.011.057-.027c.039-.019.077-.039.117-.062l.008,0a2.906,2.906,0,0,0,1.342-2.691,23.786,23.786,0,0,1-6.508,0,2.906,2.906,0,0,0,1.341,2.691l.006,0c.041.023.081.043.119.063l.057.027.025.011.09.039.036.015.051.02.06.022.062.021.055.018.008,0,.037.011.091.026.038.01h0l.078.019.013,0,.019,0,.106.022.038.007.113.02.022,0,.106.014.033,0,.126.013.029,0,.119.008.023,0,.139.006h.032l.148,0Z" transform="translate(-601.504 -1217.629)" fill="#f8a364"></path><path id="Path_6418" data-name="Path 6418" d="M465.818,1285.473c-1.673,2.691-4.706,3.567-6.9,2.524l-1.282.1a4.794,4.794,0,0,1-4.106,1.238c-.065-.537.088-.379.47-.6h-1.7c.382.22.535.063.47.6a4.794,4.794,0,0,1-4.106-1.238l-1.282-.1c-2.2,1.043-5.23.167-6.9-2.524,1.636,3.356,5.164,6.225,12.586,6.521V1292h.174v-.007c7.422-.3,10.95-3.164,12.586-6.521" transform="translate(-419.317 -1223.738)" fill="#2d2d2d"></path><path id="Path_6419" data-name="Path 6419" d="M888.756,1510.22l-3.951-9.183c-2.423-4.776-5.91-.709-4.158,2.241l4.011,9.115c2.192,3.69,5.825,1.738,4.1-2.173" transform="translate(-837.902 -1426.858)" fill="#f9f9f9" fill-rule="evenodd"></path><path id="Path_6420" data-name="Path 6420" d="M860.32,1739.089,853.2,1750.47a.445.445,0,0,1-.5.187,7.143,7.143,0,0,1-2.561-1.694.449.449,0,0,1-.022-.532l6.138-11.74c1.439-2.094,5.239.409,4.064,2.4" transform="translate(-809.219 -1652.532)" fill="#f9f9f9"></path><path id="Path_6421" data-name="Path 6421" d="M358.87,1518.37l3.1-9.932c.426-2.669-.27-3.91-2.43-3.288-1.583,1.451-3.757,6.628-5.144,13.22,0,1.393,3.847,2.351,4.477,0" transform="translate(-337.373 -1432.715)" fill="#f9f9f9"></path><path id="Path_6422" data-name="Path 6422" d="M206.572,1329.475s.238-1.745.342-2.45a3.238,3.238,0,0,0-1.325-2.169,1.828,1.828,0,0,0-.649.076,31.326,31.326,0,0,0-2.136-3.676.424.424,0,0,0-.614.134s.41.851,1.232,2.81a4.9,4.9,0,0,0-1.271.723,1.443,1.443,0,0,1-.52.638c-.273.167-.5.372-.346,1.1.373,1.771,2.682,3.813,2.682,3.813Z" transform="translate(-191.572 -1257.72)" fill="#fbd3a8"></path><path id="Path_6423" data-name="Path 6423" d="M215.791,1384.191c.364-.062.952.6,1.143.907l.374-.175s-.455.438-.575.592-.478.4-.276.73.873.028,1.2-.276a3.083,3.083,0,0,0-.387,1.6,4.014,4.014,0,0,0-1.121.31c-.331.2-.94-.094-1.067-.258,0,0-.416-.067-.432-.137s-.418-.681-.418-.681.4.262.507.171c0,0,.245.225.449-.141s-.76-.981-.76-.981a.881.881,0,0,1,.6.277,3.445,3.445,0,0,1,.356.451s.525-.321.484-.563a2.046,2.046,0,0,0-.88-.96,1.121,1.121,0,0,1,.715.339c.273.315.884-.085.844-.195a1.151,1.151,0,0,0-.377-.573,1.551,1.551,0,0,1-.375-.439" transform="translate(-203.941 -1317.712)" fill="#f8a364"></path><path id="Path_6424" data-name="Path 6424" d="M250.184,1496.165l-5.142-13.42a.477.477,0,0,1,.161-.546,7.643,7.643,0,0,1,3.1-1.1.481.481,0,0,1,.469.324l6.083,12.811c.862,2.579-3.724,4.215-4.669,1.929" transform="translate(-233.246 -1409.971)" fill="#f9f9f9"></path></g></g></g></g></g></g></g></svg> 