<?xml version="1.0" encoding="UTF-8"?> <!-- Generator: Adobe Illustrator 21.0.2, SVG Export Plug-In . SVG Version: 6.00 Build 0) --> <svg xmlns="http://www.w3.org/2000/svg" xmlns:xlink="http://www.w3.org/1999/xlink" version="1.1" id="Слой_1" x="0px" y="0px" viewBox="0 105 500 350" style="enable-background:new 0 105 500 350;" xml:space="preserve"> <style type="text/css"> .st0{fill:#AEBECC;} .st1{fill:#DEDEDE;} .st2{fill:url(#SVGID_1_);} .st3{fill:url(#SVGID_2_);} .st4{fill:#949494;} .st5{fill:#E3E3E3;} .st6{fill:#F5F7FF;} .st7{fill:#E0E0E0;} .st8{fill:#4AAFFF;} .st9{fill:#EEA886;} .st10{fill:#DB9C7C;} .st11{fill:#0077AF;} .st12{fill:#EAD8CF;} .st13{fill:#DA9B5B;} .st14{fill:#424773;} .st15{fill:#292C47;} .st16{fill:#00405E;} .st17{fill:#E2D2CA;} .st18{fill:#004261;} .st19{fill:#EFAA88;} .st20{fill:#1A598C;} .st21{fill:#2273B5;} .st22{fill:#5CAEF2;} .st23{fill:#78C2FF;} .st24{fill:#FFFFFF;} .st25{fill:#F05739;} .st26{fill:url(#SVGID_3_);} .st27{fill:#2D3038;} .st28{fill:#172444;} .st29{fill:#122536;} .st30{fill:#E65337;} .st31{fill:#3B2F26;} .st32{fill:#E54242;} .st33{fill:#BD442D;} .st34{opacity:0.1;fill:#B8B8B8;} .st35{opacity:0.3;fill:#869AC2;} .st36{fill:#3F444F;} .st37{fill:#1487E3;} .st38{fill:#FFC055;} .st39{fill:#FFC455;} #st-loading { transform-origin: center; transform-box: fill-box; animation: spin-load 2s linear infinite; -webkit-animation: spin-load 2s linear infinite; } #effect-2{ animation: effect-2 5s linear infinite 1s ; -webkit-animation: effect-2 5s linear infinite 1s ; -o-animation-fill-mode: forwards; transform-origin: center; transform-box: fill-box } #effect-3{ animation: effect-3 6s linear infinite ; -webkit-animation: effect-3 6s linear infinite ; } @keyframes effect-2 { 0% { -webkit-transform: scale(1); transform: scale(1); } 50% { -webkit-transform: scale(.6); transform: scale(.6); } 100% { -webkit-transform: scale(1); transform: scale(1); } } @-webkit-keyframes effect-3 { 0% { -webkit-transform: translateX(0); transform: translateX(0); } 50% { -webkit-transform: translateX(-120px); transform: translateX(-120px); } 100% { -webkit-transform: translateX(0); transform: translateX(0); } } @keyframes effect-3 { 0% { -webkit-transform: translateX(0); transform: translateX(0); } 50% { -webkit-transform: translateX(-120px) translateY(-10px) rotateX(20deg); transform: translateX(-120px) translateY(-10px) rotateX(20deg); } 100% { -webkit-transform: translateX(0); transform: translateX(0); } } /*start spin-load*/ @-webkit-keyframes spin-load { 0% { transform: rotate(0deg); -webkit-transform: rotate(0deg); } 100% { transform: rotate(360deg); -webkit-transform: rotate(360deg); } } @keyframes spin-load { 0% { transform: rotate(0deg); -webkit-transform: rotate(0deg); } 100% { transform: rotate(360deg); -webkit-transform: rotate(360deg); } } /*end spin-load*/ @supports (-ms-ime-align:auto){#st-loading{animation-name:none}}@supports (-ms-accelerator:true){#st-loading{animation-name:none}}</style> <g> <g> <g> <rect x="242.3" y="326.7" transform="matrix(-1 -1.224647e-16 1.224647e-16 -1 518.0127 755.1192)" class="st0" width="33.5" height="101.7"></rect> </g> <g> <path class="st1" d="M129.1,375.7h259.8c8.1,0,14.7-6.6,14.7-14.7V186.4c0-8.1-6.6-14.7-14.7-14.7H129.1 c-8.1,0-14.7,6.6-14.7,14.7V361C114.4,369.1,121,375.7,129.1,375.7z"></path> </g> <g> <linearGradient id="SVGID_1_" gradientUnits="userSpaceOnUse" x1="125.7227" y1="246.8389" x2="392.2901" y2="246.8389"> <stop offset="0" style="stop-color:#FFFFFF"></stop> <stop offset="1" style="stop-color:#F2F5FF"></stop> </linearGradient> <polygon class="st2" points="125.7,343.7 392.3,343.7 392.3,150 125.7,150 "></polygon> </g> <g> <linearGradient id="SVGID_2_" gradientUnits="userSpaceOnUse" x1="435.594" y1="161.6543" x2="103.339" y2="161.6543"> <stop offset="0" style="stop-color:#FF9F55"></stop> <stop offset="1" style="stop-color:#FFD255"></stop> </linearGradient> <polygon class="st3" points="125.7,173.4 392.3,173.4 392.3,150 125.7,150 "></polygon> </g> <g> <circle class="st4" cx="259" cy="358.4" r="9.3"></circle> </g> <rect x="183.7" y="424.6" class="st5" width="150.7" height="7.7"></rect> <path class="st6" d="M171.7,166.1H140c-1.8,0-3.2-1.4-3.2-3.2v-2.5c0-1.8,1.4-3.2,3.2-3.2h31.7c1.8,0,3.2,1.4,3.2,3.2v2.5 C174.9,164.7,173.5,166.1,171.7,166.1z"></path> <g id="effect-2"> <rect x="134.1" y="284.2" class="st7" width="9.4" height="51"></rect> <rect x="154.8" y="269.4" class="st7" width="9.4" height="65.9"></rect> <rect x="175.5" y="294.7" class="st7" width="9.4" height="40.6"></rect> <rect x="196.1" y="275" class="st7" width="9.4" height="60.3"></rect> <rect x="216.8" y="261.1" class="st7" width="9.4" height="74.2"></rect> <rect x="237.5" y="287.4" class="st7" width="9.4" height="47.9"></rect> <rect x="134.1" y="298.3" class="st8" width="9.4" height="36.9"></rect> <rect x="154.8" y="287.6" class="st8" width="9.4" height="47.7"></rect> <rect x="175.5" y="305.9" class="st8" width="9.4" height="29.4"></rect> <rect x="196.1" y="291.6" class="st8" width="9.4" height="43.7"></rect> <rect x="216.8" y="281.6" class="st8" width="9.4" height="53.7"></rect> <rect x="237.5" y="300.6" class="st8" width="9.4" height="34.7"></rect> </g> <g> <g> <g> <g> <path class="st9" d="M94,363.5c0,0,0.5,0.9,0.6,1.6c0.1,0.6,0.5,1.4,0.7,1.9c0.2,0.5,0.9,2.6,0.9,3.2c0,0.2-0.5,1.7-0.4,2.1 c0.1,0.5,0.3,1.4-0.1,1.4c-0.4,0.1-0.9-0.7-0.9-0.7s0,0.4-0.3,0.6c-0.7,0.3-1,0-1,0s-0.3,0.5-0.6,0.5c-0.7,0.1-1-0.1-1-0.1 s-0.3,0.3-0.8,0.3c-0.6,0-0.9-0.5-0.9-0.5s-0.8,0.2-1-0.2c-0.2-0.4-0.2-0.7-0.3-1.1c-0.1-0.3,0-3.3,1-5.4 c1-2.1-0.3-4.2-0.3-4.2L94,363.5z"></path> </g> </g> </g> <g> <g> <path class="st10" d="M94.9,372.7c0,0,0.1-2.7-0.6-3.2c-0.7-0.6-0.8,0.4-0.8,0.4s0.1-1-0.7-1.1c-0.8-0.1-0.8,1-0.8,1 s-0.1-0.7-0.9-0.6c-0.8,0.2-0.6,1.1-0.6,1.1s-0.8-0.9-1.3,0c-0.8,1.5,0,3.2,0,3.2s0.2,0.4,1,0.2c0,0,0.5,1,1.7,0.3 c0,0,1.2,0.6,1.6-0.4C93.5,373.6,94.8,374.3,94.9,372.7z"></path> </g> </g> <path class="st11" d="M103,325.1c0,0-4.6,15.2-6.1,20.8c-0.5,1.8-1.7,18.5-1.9,19.2c-0.2,0.7-6,1.6-6,1.6s0.7-21,0.8-22.1 c0.1-1.1,6.4-24.6,8.2-25.4c1.4-0.6,2.1-0.1,3.8,1.2C104.3,322.1,103,325.1,103,325.1z"></path> <g> <g> <path class="st12" d="M127.3,329.2l1.2-0.4c0,0-1.5-3.4-2.1-3.4c-0.7,0.1-1.7,0.3-1.7,0.3L127.3,329.2z"></path> </g> </g> <g> <g> <path class="st13" d="M127.6,329.8c-0.2-0.1-2.5-4.6-2.5-4.6l-5,0.7l2.7,5.3L127.6,329.8z"></path> </g> </g> <g> <g> <path class="st14" d="M99.3,428.8c0,0-0.4,2.9-0.5,3.3c-0.1,0.4-4.6-0.3-4.6-0.3l-0.4-3.4C93.8,428.4,98.7,428.4,99.3,428.8z"></path> </g> </g> <g> <g> <path class="st15" d="M98.9,431.8c0,0,1.4,1.7,2.8,2.5c1.4,0.8,3.6,1.1,4.4,1.8c0.6,0.6,2.2,3-3.6,3c-5.8,0-8.6,0.3-9.2-0.6 c-0.6-0.9,0.9-6.9,0.9-6.9S95.5,432.1,98.9,431.8z"></path> </g> </g> <g> <g> <path class="st14" d="M132,428.8c0,0-0.4,2.9-0.5,3.3c-0.1,0.4-4.6-0.3-4.6-0.3l-0.4-3.4C126.6,428.4,131.5,428.4,132,428.8z"></path> </g> </g> <g> <g> <path class="st15" d="M131.6,431.8c0,0,1.4,1.7,2.8,2.5c1.4,0.8,6.6,1.4,7.4,2.2c0.6,0.6,1.6,2.8-6.6,2.6 c-5.8-0.2-8.6,0.3-9.2-0.6c-0.6-0.9,0.9-6.9,0.9-6.9S128.2,432.1,131.6,431.8z"></path> </g> </g> <g> <g> <path class="st15" d="M103.1,354.7c0,0-4.3,6.8-4,13c0.3,6.2-1.6,12.9-2.2,19.3c-0.7,7.2-3.7,24.2-3.8,28 c-0.1,3.8,0.5,16.1,0.5,16.1l5.9,0.1c0,0,4.9-29.7,6.2-32.8c1.3-3,7.6-24.7,7.8-27.1C113.8,369.1,103.1,354.7,103.1,354.7z"></path> </g> </g> <g> <g> <path class="st15" d="M125.7,355.6c0,0,3.2,16.9,3.7,20.7c0.4,3.8,0.7,18.3,0.9,20.6c0.2,2.4,2,30.8,2.6,34.4h-7.5 c0,0-5.8-20.7-5.8-30.5c0-9.8-4.5-21.3-7.3-27.8s-9.5-6.6-11.3-18.6C100.9,354.4,123.3,351.8,125.7,355.6z"></path> </g> </g> <g> <g> <path class="st9" d="M110.2,297.4c0,0,5.8-2.2,8.4,2.2c2.7,4.4,2.4,13.2-0.5,14.3c-2.9,1.1-7.3,0.5-8.8-2.2 c-1.5-2.7-2.8-6.7-2.8-9.4C106.7,299.6,108.7,298.1,110.2,297.4z"></path> </g> </g> <g> <g> <path class="st9" d="M117.5,314c0,0-0.2,1.6,0.2,2.3c0.4,0.8-7.5,0.8-7.5,0.8s-0.6-4.2-1.8-7.7 C107.2,305.9,117.5,314,117.5,314z"></path> </g> </g> <g> <g> <path class="st16" d="M108.4,309.5c0,0,0.5,0.9,2.8,0.5c2.2-0.3,4.9-3.3,5.8-3.6c0.9-0.3,0.9-0.9,0.9-0.9l0.6,0.8l1,0.1 c0,0-0.9-2.6,0.5-3.7c1.4-1.1-1.4-8.5-8.5-6c0,0-5.5,1.5-5.3,4.6C106.4,304.4,107.1,307.9,108.4,309.5z"></path> </g> </g> <g> <g> <path class="st17" d="M118.2,316.3c0,0,0-1.5-0.7-1.6c-0.7-0.1-7.3-0.8-8.1-0.5v1.7C109.3,315.9,110.9,316.9,118.2,316.3z"></path> </g> </g> <g> <g> <path class="st9" d="M117.8,304.4c-0.1-0.5-1.4-2-2-0.4c-0.5,1.6,0.8,3.7,1.5,3.6C118,307.4,118.1,305.7,117.8,304.4z"></path> </g> </g> <g> <g> <path class="st11" d="M144.6,333.6C144.6,333.6,144.6,333.6,144.6,333.6C144.6,333.6,144.6,333.6,144.6,333.6z"></path> </g> </g> <g> <g> <path class="st18" d="M108.6,297.9c0,0-7.3,0.6-0.2,11.6L108.6,297.9z"></path> </g> </g> <path class="st19" d="M158.7,300.1c-0.2-0.7-1-1-1-1c-0.3-0.5-1.2-0.8-1.2-0.8c0,0,0-0.1,0-0.1c0.5-0.6,2-1.6,2.1-1.8 c0.1-0.2,0.1-0.3-0.2-0.4c-0.2-0.1-2.7,1.5-3.5,2c-0.2,0.1-0.4,0.2-0.4,0.3c-0.2,0.2-0.7,0.3-1.1,0.7c0,0-0.1,0.1-0.1,0.1 c-0.4,0.5-1.4,4.7-1.4,4.7l1.7,0.8l1.7,1.4c0,0,1.9-1.6,2.4-2.1c0.5-0.5,0.7-1.1,0.9-1.3c0-0.1,0.1-0.1,0.2-0.2 c0.2-0.3,0.6-0.7,0.6-0.7c0.2-0.2,0.3-0.8,0.3-0.8C159.5,300.4,158.7,300.1,158.7,300.1z"></path> <g> <g> <path class="st11" d="M129.2,318.5c-4.6-0.6-11-2.2-11-2.2l-8.8-0.4c0,0-8.1,1.8-11.3,3.2c-0.3,0.1-0.3,7.2-1.1,9.1l2.6,5.6 c0,0,1.5,11.1,1.8,16c0.1,2.3-3.2,21.2-3.2,21.2s3.5,1,9.6,1.7c6,0.7,21.1-0.2,21.2-1c0.1-0.7-2.9-26.5-3-27.8 c-0.2-2,0.7-12.9,0.7-12.9c1.4-1.1,13.6-6.8,16.9-9.7c0.9-0.8,4.7-4.5,5.7-5.7c3.8-4.5,6.9-8.3,7.3-9.2 c0.4-0.5-4.1-2.9-4.5-3.1c-0.4-0.1-5.5,6.5-7.5,8.7c-0.9,1-4.5,3.6-4.5,3.6S132,318.7,129.2,318.5z"></path> </g> </g> </g> <path class="st7" d="M206.7,248.4h-71.6c-0.5,0-1,0.4-1,1v3.5c0,0.5,0.4,1,1,1h71.6c0.5,0,1-0.4,1-1v-3.5 C207.7,248.9,207.3,248.4,206.7,248.4z"></path> <path class="st7" d="M180.1,236.9h-45c-0.5,0-1,0.4-1,1v3.5c0,0.5,0.4,1,1,1h45c0.5,0,1-0.4,1-1v-3.5 C181,237.3,180.6,236.9,180.1,236.9z"></path> <path class="st7" d="M191.8,226.1h-56.7c-0.5,0-1,0.4-1,1v3.5c0,0.5,0.4,1,1,1h56.7c0.5,0,1-0.4,1-1v-3.5 C192.7,226.5,192.3,226.1,191.8,226.1z"></path> <path class="st7" d="M219.3,215h-84.2c-0.5,0-1,0.4-1,1v3.5c0,0.5,0.4,1,1,1h84.2c0.5,0,1-0.4,1-1V216 C220.3,215.5,219.8,215,219.3,215z"></path> <path class="st7" d="M164.5,204.5h-29.4c-0.5,0-1,0.4-1,1v3.5c0,0.5,0.4,1,1,1h29.4c0.5,0,1-0.4,1-1v-3.5 C165.5,205,165,204.5,164.5,204.5z"></path> <g id="st-loading"> <g> <g> <path class="st8" d="M357.7,245.8c13.3-4.8,21.5-17.5,21.1-31c-0.1-3.3-0.7-6.5-1.9-9.8c-3.5-9.8-11.3-16.8-20.5-19.7 c-6.4-2-13.4-2-20.2,0.4c-0.7,0.2-1.3,0.5-2,0.8c-2.9,1.3-5.6,3-7.9,4.9c-9.8,8.3-13.9,22.2-9.4,35 C322.9,243.1,341.1,251.7,357.7,245.8z M324.4,223.8c-3.4-9.6-0.3-20,7-26.3c1.8-1.5,3.7-2.7,5.9-3.7c0.5-0.2,1-0.4,1.5-0.6 c5.1-1.8,10.4-1.8,15.2-0.3c6.9,2.2,12.8,7.4,15.4,14.8c0.9,2.4,1.3,4.9,1.4,7.3c0.3,10.1-5.8,19.6-15.8,23.2 C342.6,242.7,328.9,236.2,324.4,223.8z"></path> </g> </g> <g> <g> <path class="st20" d="M354.1,192.9l2.4-7.6c9.2,2.9,17,9.9,20.5,19.7c1.2,3.2,1.8,6.5,1.9,9.8l-8,0.2c-0.1-2.4-0.5-4.9-1.4-7.3 C366.8,200.4,361,195.1,354.1,192.9z"></path> </g> </g> <g> <g> <path class="st21" d="M337.4,193.8l-3.2-7.3c0.6-0.3,1.3-0.5,2-0.8c6.8-2.4,13.8-2.4,20.2-0.4l-2.4,7.6 c-4.8-1.5-10.1-1.5-15.2,0.3C338.4,193.4,337.9,193.6,337.4,193.8z"></path> </g> </g> <g> <g> <path class="st22" d="M326.3,191.5c2.3-2,5-3.7,7.9-4.9l3.2,7.3c-2.2,1-4.2,2.2-5.9,3.7L326.3,191.5z"></path> </g> </g> </g> <path class="st23" d="M299.5,209.5h-18.1c-0.9,0-1.7-0.8-1.7-1.7v-1.2c0-0.9,0.8-1.7,1.7-1.7h18.1c0.9,0,1.7,0.8,1.7,1.7v1.2 C301.2,208.8,300.4,209.5,299.5,209.5z"></path> <path class="st8" d="M278.5,231.1h-18.1c-0.9,0-1.7-0.8-1.7-1.7v-1.2c0-0.9,0.8-1.7,1.7-1.7h18.1c0.9,0,1.7,0.8,1.7,1.7v1.2 C280.2,230.3,279.4,231.1,278.5,231.1z"></path> <path class="st21" d="M301.7,253.4h-18.1c-0.9,0-1.7-0.8-1.7-1.7v-1.2c0-0.9,0.8-1.7,1.7-1.7h18.1c0.9,0,1.7,0.8,1.7,1.7v1.2 C303.4,252.7,302.6,253.4,301.7,253.4z"></path> <path class="st20" d="M338.2,268.6h-18.1c-0.9,0-1.7-0.8-1.7-1.7v-1.2c0-0.9,0.8-1.7,1.7-1.7h18.1c0.9,0,1.7,0.8,1.7,1.7v1.2 C339.9,267.8,339.1,268.6,338.2,268.6z"></path> <g> <g> <g> <g> <g> <g> <polygon class="st8" points="267.2,330.6 266.3,329.6 290.3,307 314.6,312.2 337.8,285.8 358,286.9 373.7,265.2 374.8,266 358.6,288.3 338.3,287.2 315.1,313.7 290.7,308.4 "></polygon> </g> </g> </g> </g> <g> <g> <g> <ellipse transform="matrix(0.9773 -0.2117 0.2117 0.9773 -59.1136 73.731)" class="st24" cx="314.8" cy="313" rx="3.6" ry="3.6"></ellipse> </g> </g> </g> <g> <g> <g> <path class="st8" d="M315.7,317.1c-2.3,0.5-4.6-1-5.1-3.3c-0.5-2.3,1-4.6,3.3-5.1c2.3-0.5,4.6,1,5.1,3.3 C319.5,314.4,318,316.6,315.7,317.1z M314.2,310.1c-1.6,0.3-2.6,1.9-2.2,3.5c0.3,1.6,1.9,2.6,3.5,2.2 c1.6-0.3,2.6-1.9,2.2-3.5C317.3,310.8,315.8,309.8,314.2,310.1z"></path> </g> </g> </g> <g> <g> <g> <ellipse transform="matrix(0.9774 -0.2115 0.2115 0.9774 -52.9991 77.9973)" class="st24" cx="338" cy="286.7" rx="3.6" ry="3.6"></ellipse> </g> </g> </g> <g> <g> <g> <path class="st8" d="M338.9,290.9c-2.3,0.5-4.6-1-5.1-3.3c-0.5-2.3,1-4.6,3.3-5.1c2.3-0.5,4.6,1,5.1,3.3 C342.7,288.1,341.2,290.4,338.9,290.9z M337.4,283.8c-1.6,0.3-2.6,1.9-2.2,3.5c0.3,1.6,1.9,2.6,3.5,2.2 c1.6-0.3,2.6-1.9,2.2-3.5C340.6,284.5,339,283.5,337.4,283.8z"></path> </g> </g> </g> <g> <g> <g> <ellipse transform="matrix(0.9773 -0.2117 0.2117 0.9773 -52.7458 82.3234)" class="st24" cx="358.1" cy="287.5" rx="3.6" ry="3.6"></ellipse> </g> </g> </g> <g> <g> <g> <path class="st8" d="M359,291.7c-2.3,0.5-4.6-1-5.1-3.3c-0.5-2.3,1-4.6,3.3-5.1c2.3-0.5,4.6,1,5.1,3.3 C362.8,288.9,361.3,291.2,359,291.7z M357.5,284.6c-1.6,0.3-2.6,1.9-2.2,3.5c0.3,1.6,1.9,2.6,3.5,2.2 c1.6-0.3,2.6-1.9,2.2-3.5C360.6,285.3,359.1,284.3,357.5,284.6z"></path> </g> </g> </g> <g> <g> <g> <ellipse transform="matrix(0.9773 -0.2117 0.2117 0.9773 -58.623 68.4726)" class="st24" cx="290.5" cy="308" rx="3.6" ry="3.6"></ellipse> </g> </g> </g> <g> <g> <g> <path class="st8" d="M291.4,312.2c-2.3,0.5-4.6-1-5.1-3.3c-0.5-2.3,1-4.6,3.3-5.1c2.3-0.5,4.6,1,5.1,3.3 C295.2,309.4,293.7,311.7,291.4,312.2z M289.9,305.2c-1.6,0.3-2.6,1.9-2.2,3.5c0.3,1.6,1.9,2.6,3.5,2.2 c1.6-0.3,2.6-1.9,2.2-3.5C293,305.8,291.4,304.8,289.9,305.2z"></path> </g> </g> </g> </g> <g> <rect x="286.9" y="321.4" class="st7" width="14.8" height="2.8"></rect> </g> <g> <rect x="297.1" y="292.3" class="st7" width="14.8" height="2.8"></rect> </g> <g> <rect x="327.7" y="312.6" class="st7" width="14.8" height="2.8"></rect> </g> <g> <rect x="341" y="272.7" class="st7" width="14.8" height="2.8"></rect> </g> <g> <rect x="362.4" y="296.5" class="st7" width="14.7" height="2.8"></rect> </g> </g> <g id="effect-3"> <g id="effect-1"> <path class="st36" d="M311.6,284.9c-29,0-52.5,23.5-52.5,52.5c0,29,23.5,52.5,52.5,52.5c29,0,52.5-23.5,52.5-52.5 C364.1,308.4,340.6,284.9,311.6,284.9z M311.6,381.4c-24.3,0-44-19.7-44-44c0-24.3,19.7-44,44-44c24.3,0,44,19.7,44,44 C355.5,361.7,335.8,381.4,311.6,381.4z"></path> <polygon class="st26" points="448.8,370.9 365.1,356.6 367.5,342.4 451.3,356.6 "></polygon> </g> <rect x="361.8" y="343.6" transform="matrix(0.9858 0.1679 -0.1679 0.9858 63.7914 -56.182)" class="st27" width="4.5" height="11"></rect> <path class="st25" d="M416.8,333.7c0,0-5.5-12.4,0.9-11.4c0,0,2.2,1.8,4.4,5.4c1.7,2.8,5.2,10,5,12.5c-0.1,2.5-1.9,4.3-3.8,8.3 c0,0-3.9,7.3-4.1,8.2l-4.2-2.2c0,0,3.5-7,6-13.2L416.8,333.7z"></path> <linearGradient id="SVGID_3_" gradientUnits="userSpaceOnUse" x1="-11528.4219" y1="356.6133" x2="-11442.2832" y2="356.6133" gradientTransform="matrix(-1 0 0 1 -11077.1611 0)"> <stop offset="0" style="stop-color:#FF9F55"></stop> <stop offset="1" style="stop-color:#FFD255"></stop> </linearGradient> <path class="st9" d="M385.2,438.6h-1c0,0,0.3-3.9-0.6-3.9c-1,0-3.3,3.2-4.7,3.7c-1.4,0.5-8.7,0.9-8.7-0.4c0-1.3,2.8-1.9,3.7-2.3 c0.9-0.4,5.2-4.5,5.9-5c0.8-0.5,2.1-3.9,2.1-3.9l4-0.2c0,0,0.2,3.2,0.5,4.9c0.1,0.6,0.2,1.2,0.2,1.6 C386.5,434.5,385.2,438.6,385.2,438.6z"></path> <path class="st9" d="M411.3,437.8h-0.9v-3.6c-0.7,0.1-3.1,2.3-3.9,3c-0.7,0.7-1.8,0.6-4.9,0.8c-3.1,0.2-3.4-1.7-2.9-2.3 s2.1-0.9,2.9-1.3c0.8-0.4,4.1-4.1,5-5c0.9-0.9,1.4-3.4,1.4-3.4l3.7,0.3c0,0,0,2.3,0.4,4.2v0c0,0,0,0,0,0c0,0.2,0.1,0.3,0.1,0.5 C412.8,433.1,411.3,437.8,411.3,437.8z"></path> <path class="st28" d="M397.7,355.7c0,0-1.4,3.3-1.5,4.1c-0.1,0.8-3.4,8.7-4.3,13.9c-0.6,3.2-2.1,13.1-2.2,14.3 c-0.2,2.2-1.2,6.9-1.4,9.1c-0.1,1.2-6.1,20.1-7.6,30c0,0,3.5,0.5,6.1-0.2c0,0,5.3-10.2,8.3-24.6c1.8-8.7,3.4-13.3,4.7-16.9 c1.4-3.6,9.2-13.7,10-14.9c0.8-1.1,5.9-7.4,1.1-14.3C406,349.4,397.7,355.7,397.7,355.7z"></path> <path class="st28" d="M415.2,384.7c-0.4,2.9,0,6.8,0.9,17.6c0.9,10.7-1.6,23.8-1.6,23.8c-3.2,1.1-6.9,0-6.9,0 c0.1-0.8,0-26.2,0-28.5s-0.7-4.8-0.8-7.4c-0.1-1.8-0.9-5-1.9-8.4c-0.3-1-0.6-2-0.8-3c0,0,0,0,0,0c-0.2-0.5-0.3-1.1-0.5-1.6 c-1.3-4.5-3.1-22-3.1-22s9.7-7.9,14.5-0.5c4.7,7.4,2.3,12.8,2.1,13.7C417.1,369.3,415.6,381.8,415.2,384.7z"></path> <path class="st29" d="M411.1,368.9c-0.1,0.2-4.9,10.9-6.2,12.8c-0.3-1-0.6-2-0.8-3c0,0,0,0,0,0S411,369.1,411.1,368.9z"></path> <path class="st25" d="M411.3,437.8h-0.9v-3.6c-0.7,0.1-3.1,2.3-3.9,3c-0.7,0.7-1.8,0.6-4.9,0.8c-3.1,0.2-3.4-1.7-2.9-2.3 s2.1-0.9,2.9-1.3c3.4,0.2,7.4-4.5,9.4-4.5c1,0,1,0.6,1.1,0.7v0c0,0,0,0,0,0c0,0.2,0.1,0.3,0.1,0.5 C412.8,433.1,411.3,437.8,411.3,437.8z"></path> <path class="st25" d="M385.2,438.6h-1c0,0,0.3-3.9-0.6-3.9c-1,0-3.3,3.2-4.7,3.7c-1.4,0.5-8.7,0.9-8.7-0.4c0-1.3,2.8-1.9,3.7-2.3 c3,0,7.9-3.3,9.4-4c1.5-0.7,3.1-0.3,3.1-0.3c0.1,0.6,0.2,1.2,0.2,1.6C386.5,434.5,385.2,438.6,385.2,438.6z"></path> <path class="st9" d="M406.3,314.6c0,0,1.6,4.1,0.3,7.3c0,0,5.7-0.4,5.9-1c0.2-0.7-0.2-6.8,0.6-8.7 C413.9,310.4,406.3,314.6,406.3,314.6z"></path> <path class="st30" d="M405.8,320.5c0,0-3.4,1.2-4.9,1.5c-1.5,0.3-4.7,1.8-4.4,7.5c0.3,5.7,1.2,10.6,1.6,13 c0.3,2.4,0.1,8.7-0.4,11.7c0,0,8.1,2,17.6,0c0,0-1.7-5.1-1.6-6.5c0-1.3,5.6-12.3,5.9-14c0.3-1.7,1.4-9.4-1.2-11.1 c-2.5-1.7-4.6-1.5-5.7-2.2C411.4,319.7,407.4,319.9,405.8,320.5z"></path> <path class="st30" d="M418.8,363.2c-13.8,3.7-24.8,0-24.8,0c1-2.1,1.7-4.1,2.3-6.1c0,0,0,0,0,0c0.4-1.4,0.7-2.8,0.8-4.1l0,0 c1.1-7.5-0.3-13.3-0.3-13.3c1.6-13.1,21.4-17,23-12.9c1.6,4.2-3.1,22-3.3,23.5C416.3,351.9,418.8,363.2,418.8,363.2z"></path> <path class="st9" d="M411.3,298.1c-2.3-0.8-8.5-1.6-10.1,7.9c-1.6,9.5,1.9,9.7,5.4,9.4c3.6-0.3,9.1-6.7,9.5-8.6 C416.6,304.8,417.9,300.3,411.3,298.1z"></path> <path class="st31" d="M402.5,301.7c0,0,1.9,4,4.4,5.5c0,0,1.6,4.3,4.9,6c0,0,8.9-5.9,3.8-13C410.4,293.2,403.1,298.8,402.5,301.7 z"></path> <path class="st9" d="M406.7,305.8c0.2-0.5,1.5-1.3,2.1,0.1c0.6,1.4-1.6,3.7-2.1,3.6C406.1,309.3,405.9,307.7,406.7,305.8z"></path> <path class="st31" d="M415.3,301.4c0.2-0.3,6.1-3,7.3,2.7c1.2,5.7-4.8,12.4-5.8,15.2c-1.1,2.9,0.5,9.6,0.5,9.6s-3.6-3.4-4.7-7 C411.4,318,411,308.1,415.3,301.4z"></path> <path class="st32" d="M415.6,301.2c0,0-1.8,1.4-2,3.7c0,0-0.3-1.8,0.4-2.8C414.6,300.9,415.6,301.2,415.6,301.2z"></path> <path class="st33" d="M396.3,357.1c0.4-1.4,0.7-2.8,0.8-4.1l0,0c0,0,0.9-1.9,1.2-2.9c0.3-0.9,2.6-12.3,2.6-12.3 S403.4,348.5,396.3,357.1z"></path> <path class="st9" d="M386.1,357.8c0,0-1.8,1.8-2.4,1.9c-0.6,0.2-1.7-0.8-5.8-1.1c-0.4,0-1,0.3-0.8,0.8c0.1,0.5,1.9,1.8,2.7,2 c0.8,0.2,4.4,1.6,6.1,0.9c1.8-0.7,2.9-2.9,2.9-2.9L386.1,357.8z"></path> <path class="st30" d="M399.9,322.3c0,0-4.7,1.9-5,8.4c-0.3,6.6-0.5,10-0.8,11c-0.3,1-0.7,5.1-1.9,7.5c-1.2,2.4-8.7,9.9-8.7,9.9 l3.7,3.4c0,0,10.6-10.6,11.2-12.5c0.6-1.9,3.3-15.4,3.5-17.7C402,330.6,404.4,322.5,399.9,322.3z"></path> <circle class="st34" cx="311.6" cy="337.4" r="46.5"></circle> <path class="st35" d="M341.1,304.9c0,0-57-7.1-68.3,53.1h0c-3.3-6.1-5.1-13.2-5.1-20.6c0-24.3,19.7-43.9,43.9-43.9 C322.9,293.5,333.3,297.8,341.1,304.9z"></path> </g> <g> <rect x="135.3" y="181.5" class="st7" width="30.5" height="3.1"></rect> </g> <g> <rect x="171.7" y="181.5" class="st7" width="21.6" height="3.1"></rect> </g> <g> <rect x="171.7" y="193.2" class="st7" width="20.2" height="3.1"></rect> </g> <g> <rect x="280" y="181.5" class="st23" width="21.6" height="3.1"></rect> </g> <g> <rect x="199.1" y="181.5" class="st37" width="27.6" height="3.1"></rect> </g> <g> <rect x="247" y="181.5" class="st38" width="27.6" height="3.1"></rect> </g> <g> <rect x="231.8" y="181.5" class="st7" width="10.1" height="3.1"></rect> </g> <g> <rect x="135.3" y="193.2" class="st23" width="15.8" height="3.1"></rect> </g> <g> <rect x="154.9" y="193.2" class="st37" width="5.1" height="3.1"></rect> </g> <g> <rect x="259.5" y="193.2" class="st7" width="42.1" height="3.1"></rect> </g> <g> <rect x="163.8" y="193.2" class="st39" width="5.2" height="3.1"></rect> </g> <g> <rect x="241.9" y="193.2" class="st37" width="13.8" height="3.1"></rect> </g> <g> <rect x="208.9" y="193.2" class="st23" width="29.3" height="3.1"></rect> </g> <g> <rect x="194.6" y="193.2" class="st7" width="10.1" height="3.1"></rect> </g> </g> </g> </svg> 