<?xml version="1.0" encoding="UTF-8"?> <svg xmlns="http://www.w3.org/2000/svg" xmlns:xlink="http://www.w3.org/1999/xlink" width="480.47" height="347.237" viewBox="0 0 480.47 347.237"><style> .g-1 { animation-name: tranfX; animation-fill-mode: both; animation-duration: 2.5s; transform-origin: left; transform-box:fill-box ; animation-iteration-count: infinite; } .g-2{ animation-delay: .2s; animation-name: tranfX; animation-fill-mode: both; transform-origin: left; transform-box:fill-box ; animation-duration: 2.5s; animation-iteration-count: infinite; } .g-3{ animation-delay: .4s; animation-name: tranfX; transform-origin: left; transform-box:fill-box ; animation-fill-mode: both; animation-duration: 2.5s; animation-iteration-count: infinite; } .g-4{ animation-delay: .6s; animation-name: tranfX; transform-origin: left; transform-box:fill-box ; animation-fill-mode: both; animation-duration: 2.5s; animation-iteration-count: infinite; } .g-5{ animation-delay: .8s; transform-origin: left; transform-box:fill-box ; animation-name: tranfX; animation-fill-mode: both; animation-duration: 2.5s; animation-iteration-count: infinite; } .g-6{ animation-delay: 1s; transform-origin: left; transform-box:fill-box ; animation-name: tranfX; animation-fill-mode: both; animation-duration: 2.5s; animation-iteration-count: infinite; } .g-7{ animation-delay: 1.2s; transform-origin: left; transform-box:fill-box ; animation-name: tranfX; animation-fill-mode: both; animation-duration: 2.5s; animation-iteration-count: infinite; } .g-8{ animation-delay: 1.4s; transform-origin: left; transform-box:fill-box ; animation-name: tranfX; animation-fill-mode: both; animation-duration: 2.5s; animation-iteration-count: infinite; } @keyframes tranfX { 0% { transform: scaleX(1); } 50% { transform: scaleX(.1); } 100% { transform: scaleX(1); } } .gt { animation-name: tranx-1; animation-fill-mode: both; animation-duration: 4s; transform-origin: bottom; transform-box:fill-box ; animation-iteration-count: infinite; } @keyframes tranx-1 { 0% { transform:translateX(0px); } 50% { transform:translateX(-30px); } 100% { transform:translateX(0px); } } .gt2 { animation-name: tranx-2; animation-fill-mode: both; animation-duration: 4s; transform-origin: bottom; transform-box:fill-box ; animation-iteration-count: infinite; } @keyframes tranx-2 { 0% { transform:translateY(0px); } 50% { transform:translateY(-2px); } 100% { transform:translateY(0px); } } .gv{ animation-name: jiggle; animation-duration: 1s; animation-iteration-count: infinite; animation-timing-function: linear; } .gv-1 { animation-name: jiggle; animation-duration: .4s; animation-iteration-count: infinite; animation-timing-function: linear; } @keyframes jiggle { 1% { transform: translate(0px, 0px) rotate(0deg); } 5% { transform: translate(1px, -1px) rotate(-1deg); } 10% { transform: translate(1px, -1px) rotate(0deg); } 15% { transform: translate(1px, -1px) rotate(1deg); } 20% { transform: translate(1px, -1px) rotate(0deg); } 25% { transform: translate(1px, -1px) rotate(-1deg); } 30% { transform: translate(0px, 0px) rotate(0deg); } 35% { transform: translate(-1px, 1px) rotate(1deg); } 40% { transform: translate(-1px, 1px) rotate(0deg); } 45% { transform: translate(-1px, 1px) rotate(-1deg); } 50% { transform: translate(-1px, 1px) rotate(1deg); } 55% { transform: translate(-1px, 1px) rotate(1deg); } 60% { transform: translate(0px, 0px) rotate(0deg); } } .gs-1 { animation-delay: 0s; transform-origin: center; transform-box:fill-box ; animation-name: transc; animation-fill-mode: both; animation-duration:1.5s; animation-timing-function:linear; animation-iteration-count: infinite; } .gs-2{ animation-delay: .2s; transform-origin: center; transform-box:fill-box ; animation-name: transc; animation-fill-mode: both; animation-duration:1.5s; animation-timing-function:linear; animation-iteration-count: infinite; } .gs-3 { animation-delay: .4s; transform-origin: center; transform-box:fill-box ; animation-name: transc; animation-fill-mode: both; animation-duration:1.5s; animation-timing-function:linear; animation-iteration-count: infinite; } .gs-4 { animation-delay: .6s; transform-origin: center; transform-box:fill-box ; animation-name: transc; animation-fill-mode: both; animation-duration:1.5s; animation-timing-function:linear; animation-iteration-count: infinite; } .gs-5 { animation-delay: .8s; transform-origin: center; transform-box:fill-box ; animation-name: transc; animation-fill-mode: both; animation-duration:1.5s; animation-timing-function:linear; animation-iteration-count: infinite; } .gs-6 { animation-delay: 1s; transform-origin: center; transform-box:fill-box ; animation-name: transc; animation-fill-mode: both; animation-duration:1.5s; animation-timing-function:linear; animation-iteration-count: infinite; } @keyframes transc { 0% { transform: scale(0) rotate(0deg); } 50% { transform: scale(1) rotate(360deg); } 100% { transform: scale(0) rotate(0deg); } } </style><defs><linearGradient id="linear-gradient" x1="0.5" x2="0.5" y2="1" gradientUnits="objectBoundingBox"><stop offset="0" stop-color="#6A2186"></stop><stop offset="1" stop-color="#d13c44" stop-opacity="0.922"></stop></linearGradient><clipPath id="clip-path"><rect id="Rectangle_9869" data-name="Rectangle 9869" width="73.195" height="46.613" fill="none"></rect></clipPath><clipPath id="clip-path-2"><rect id="Rectangle_726" data-name="Rectangle 726" width="189.322" height="347.237" fill="none"></rect></clipPath><clipPath id="clip-path-4"><rect id="Rectangle_661" data-name="Rectangle 661" width="1.869" height="3.398" fill="none"></rect></clipPath><clipPath id="clip-path-6"><rect id="Rectangle_663" data-name="Rectangle 663" width="4.943" height="3.358" fill="none"></rect></clipPath><clipPath id="clip-path-7"><rect id="Rectangle_664" data-name="Rectangle 664" width="2.956" height="3.603" fill="none"></rect></clipPath><clipPath id="clip-path-8"><rect id="Rectangle_665" data-name="Rectangle 665" width="12.207" height="4.617" fill="none"></rect></clipPath><clipPath id="clip-path-9"><rect id="Rectangle_666" data-name="Rectangle 666" width="1.868" height="3.398" fill="none"></rect></clipPath><clipPath id="clip-path-13"><rect id="Rectangle_670" data-name="Rectangle 670" width="12.206" height="4.617" fill="none"></rect></clipPath><clipPath id="clip-path-14"><rect id="Rectangle_671" data-name="Rectangle 671" width="15.946" height="7.067" fill="none"></rect></clipPath><clipPath id="clip-path-15"><rect id="Rectangle_672" data-name="Rectangle 672" width="15.589" height="87.923" fill="none"></rect></clipPath><clipPath id="clip-path-17"><path id="Path_1297" data-name="Path 1297" d="M452.169,263.248c-44.8,4.408-58.054,47.107-37.148,131.572,1.712-5.193,3.89-12.27,7.387-16.577-4.056-31.039-5.848-57.757,4.294-69.482,8.714,3.282,45.427,3.282,54.141,0,10.141,11.724,8.316,38.7,4.26,69.74,3.137,4.245,5.5,11.126,7.213,16.319,20.905-84.466,7.862-127.164-36.941-131.572Z" transform="translate(-405.349 -263.248)" fill="none"></path></clipPath><clipPath id="clip-path-18"><rect id="Rectangle_700" data-name="Rectangle 700" width="185.338" height="181.091" fill="none"></rect></clipPath><clipPath id="clip-path-19"><rect id="Rectangle_724" data-name="Rectangle 724" width="181.091" height="185.338" fill="none"></rect></clipPath></defs><g id="برمجة_الأنظمة_الإلكترونية" data-name="برمجة الأنظمة الإلكترونية" transform="translate(-162.957 -127)"><g id="Group_27227" data-name="Group 27227" transform="translate(-724.356 -101.194)"><g id="Group_27226" data-name="Group 27226" transform="translate(884.356 280.194)"><g id="Group_27223" data-name="Group 27223" transform="translate(0 10.26)"><g id="Group_27166" data-name="Group 27166" transform="translate(47.316 63.812)"><g id="Group_27164" data-name="Group 27164"><g id="Group_27163" data-name="Group 27163"><rect id="Rectangle_9850" data-name="Rectangle 9850" width="268.949" height="169.841" rx="26.16" transform="translate(0)" fill="#053f5a"></rect><path id="Path_37540" data-name="Path 37540" d="M985.706,711.979V742.1a12.249,12.249,0,0,0,12.213,12.215h244.523a12.25,12.25,0,0,0,12.213-12.215V711.979Z" transform="translate(-985.706 -584.471)" fill="#e5563b"></path></g><path id="Rectangle_9851" data-name="Rectangle 9851" d="M8.408,0H246.49A8.408,8.408,0,0,1,254.9,8.408v97.47a8.41,8.41,0,0,1-8.41,8.41H8.41A8.41,8.41,0,0,1,0,105.878V8.408A8.408,8.408,0,0,1,8.408,0Z" transform="translate(7.027 7.113)" fill="#FFD100"></path></g><rect id="Rectangle_9852" data-name="Rectangle 9852" width="132.173" height="6.98" transform="translate(68.388 195.557)" fill="#053f5a"></rect><g id="Group_27165" data-name="Group 27165" transform="translate(85.619 169.841)"><rect id="Rectangle_9853" data-name="Rectangle 9853" width="97.712" height="25.716" fill="#FFD100"></rect><path id="Path_37541" data-name="Path 37541" d="M1169.1,802.656h97.712v14.812L1169.1,807.435Z" transform="translate(-1169.103 -802.656)" fill="#053f5a"></path></g></g><g id="Group_27172" data-name="Group 27172" transform="translate(120.888 73.909)"><g id="Group_27167" data-name="Group 27167"><path id="Path_37542" data-name="Path 37542" d="M1260.751,481.878c-28.163-.462-50.575-16.648-56.551-21.393-5.972,4.745-28.381,20.93-56.552,21.393,0,0-27.668,93.944,56.552,124.876C1288.424,575.821,1260.751,481.878,1260.751,481.878Z" transform="translate(-1143.298 -460.485)" fill="#f0f9ff"></path><path id="Path_37543" data-name="Path 37543" d="M1319.886,506.049c-1.571-.026-3.121-.107-4.655-.226,4.62,26.543,8.918,94.686-61.016,121.313q4.326,2.022,9.119,3.789C1347.559,599.993,1319.886,506.049,1319.886,506.049Z" transform="translate(-1202.433 -484.657)" fill="#d2ebf9"></path></g><g class="gv"><g id="Group_27171" data-name="Group 27171" transform="translate(32.533 32.917)"><g id="Group_27169" data-name="Group 27169"><g id="Group_27168" data-name="Group 27168" transform="translate(8.826)"><path id="Path_37544" data-name="Path 37544" d="M1254.157,569.449h-5.45a16.84,16.84,0,0,1-16.819-16.818v-4.819a16.838,16.838,0,0,1,16.819-16.818h5.45a16.839,16.839,0,0,1,16.821,16.818v4.819A16.841,16.841,0,0,1,1254.157,569.449Zm-5.45-33.414a11.792,11.792,0,0,0-11.777,11.776v4.819a11.793,11.793,0,0,0,11.777,11.776h5.45a11.789,11.789,0,0,0,11.774-11.776v-4.819a11.789,11.789,0,0,0-11.774-11.776Z" transform="translate(-1231.888 -530.994)" fill="url(#linear-gradient)"></path></g><path id="Path_37545" data-name="Path 37545" d="M1269.723,618.5a16.545,16.545,0,0,1-16.5,16.5h-23.748a16.544,16.544,0,0,1-16.495-16.5V594.749a16.547,16.547,0,0,1,16.495-16.5h23.748a16.548,16.548,0,0,1,16.5,16.5Z" transform="translate(-1212.983 -556.189)" fill="url(#linear-gradient)"></path></g><g id="Group_27170" data-name="Group 27170" transform="translate(19.855 33.436)"><path id="Path_37546" data-name="Path 37546" d="M1272.537,611.128a8.512,8.512,0,1,0-12.2,7.638l-4.231,15.949a1.16,1.16,0,0,0,1.182,1.447h13.484a1.163,1.163,0,0,0,1.184-1.447l-4.233-15.951A8.485,8.485,0,0,0,1272.537,611.128Z" transform="translate(-1255.513 -602.613)" fill="#f0f9ff"></path></g></g></g></g><g id="Group_27185" data-name="Group 27185" transform="translate(266.774 147.043)"><g id="Group_27175" data-name="Group 27175"><g id="Group_27173" data-name="Group 27173"><rect id="Rectangle_9854" data-name="Rectangle 9854" width="106.786" height="60.94" fill="#d9f1ff" opacity="0.9"></rect><rect id="Rectangle_9855" data-name="Rectangle 9855" width="106.786" height="8.868" fill="#6A2186"></rect></g><g id="Group_27174" data-name="Group 27174" transform="translate(3.193 3.048)"><path id="Path_37547" data-name="Path 37547" d="M1473.076,634.578a1.28,1.28,0,1,1-1.281-1.279A1.281,1.281,0,0,1,1473.076,634.578Z" transform="translate(-1470.517 -633.299)" fill="#d9f1ff"></path><path id="Path_37548" data-name="Path 37548" d="M1483.39,634.578a1.279,1.279,0,1,1-1.278-1.279A1.279,1.279,0,0,1,1483.39,634.578Z" transform="translate(-1476.017 -633.299)" fill="#d9f1ff"></path><path id="Path_37549" data-name="Path 37549" d="M1493.706,634.578a1.279,1.279,0,1,1-1.279-1.279A1.28,1.28,0,0,1,1493.706,634.578Z" transform="translate(-1481.516 -633.299)" fill="#d9f1ff"></path></g></g><g id="Group_27184" data-name="Group 27184" transform="translate(10.723 18.25)"><g id="Group_27178" data-name="Group 27178" transform="translate(0 0.927)"><g id="Group_27177" data-name="Group 27177"><path id="Path_37550" data-name="Path 37550" d="M1516.041,682.544a14.7,14.7,0,1,1-14.7-14.7A14.7,14.7,0,0,1,1516.041,682.544Z" transform="translate(-1486.646 -667.846)" fill="#6A2186"></path><g id="Group_27176" data-name="Group 27176" transform="translate(11.066 7.536)"><path id="Path_37551" data-name="Path 37551" d="M1517.613,687.621a3.632,3.632,0,1,0-5.205,3.262l-1.813,6.81a.5.5,0,0,0,.509.618h5.753a.5.5,0,0,0,.509-.618l-1.805-6.81A3.624,3.624,0,0,0,1517.613,687.621Z" transform="translate(-1510.349 -683.988)" fill="#005d77"></path></g></g></g><g id="Group_27183" data-name="Group 27183" transform="translate(37.68)"><g id="Group_27179" data-name="Group 27179" transform="translate(0)"><rect id="Rectangle_9856" data-name="Rectangle 9856" width="26.185" height="1.816" fill="#5ca1de"></rect><rect id="Rectangle_9857" data-name="Rectangle 9857" width="47.255" height="1.814" transform="translate(0 4.817)" fill="#5ca1de"></rect></g><g id="Group_27181" data-name="Group 27181" transform="translate(0 11.381)"><path id="Path_37552" data-name="Path 37552" d="M1614.611,695.31c0,2.786-3.072,5.067-6.825,5.067h-33.6c-3.756,0-6.828-2.281-6.828-5.067s3.072-5.07,6.828-5.07h33.6C1611.54,690.239,1614.611,692.521,1614.611,695.31Z" transform="translate(-1567.356 -690.239)" fill="#f0f9ff"></path><g id="Group_27180" data-name="Group 27180" transform="translate(10.761 4.243)"><path id="Path_37553" data-name="Path 37553" d="M1592.06,700.155a.828.828,0,1,1-.827-.827A.825.825,0,0,1,1592.06,700.155Z" transform="translate(-1590.405 -699.328)" fill="#005d77"></path><path id="Path_37554" data-name="Path 37554" d="M1602.375,700.155a.828.828,0,1,1-.828-.827A.824.824,0,0,1,1602.375,700.155Z" transform="translate(-1595.904 -699.328)" fill="#005d77"></path><path id="Path_37555" data-name="Path 37555" d="M1612.691,700.155a.828.828,0,1,1-.829-.827A.825.825,0,0,1,1612.691,700.155Z" transform="translate(-1601.403 -699.328)" fill="#005d77"></path><path id="Path_37556" data-name="Path 37556" d="M1623.007,700.155a.827.827,0,1,1-.826-.827A.824.824,0,0,1,1623.007,700.155Z" transform="translate(-1606.905 -699.328)" fill="#005d77"></path><path id="Path_37557" data-name="Path 37557" d="M1633.323,700.155a.827.827,0,1,1-.827-.827A.824.824,0,0,1,1633.323,700.155Z" transform="translate(-1612.405 -699.328)" fill="#005d77"></path><path id="Path_37558" data-name="Path 37558" d="M1643.638,700.155a.828.828,0,1,1-.829-.827A.826.826,0,0,1,1643.638,700.155Z" transform="translate(-1617.902 -699.328)" fill="#005d77"></path></g></g><g id="Group_27182" data-name="Group 27182" transform="translate(0 26.789)"><rect id="Rectangle_9858" data-name="Rectangle 9858" width="22.186" height="6.648" fill="#6ab3ea"></rect><rect id="Rectangle_9859" data-name="Rectangle 9859" width="16.394" height="1.815" transform="translate(2.896 2.417)" fill="#d9f1ff" opacity="0.9"></rect></g></g></g></g><g id="Group_27196" data-name="Group 27196" transform="translate(275.522 11.24)"><g id="Group_27195" data-name="Group 27195"><g id="Group_27194" data-name="Group 27194"><g id="Group_27188" data-name="Group 27188" transform="translate(12.969)"><g id="Group_27186" data-name="Group 27186"><path id="Path_37559" data-name="Path 37559" d="M1568.865,427.34H1502.3V351.952h51.577l14.986,16.193Z" transform="translate(-1502.302 -351.952)" fill="#d9f1ff"></path><path id="Path_37560" data-name="Path 37560" d="M1612.78,351.952l14.986,16.193H1612.78Z" transform="translate(-1561.203 -351.952)" fill="#9fddfc"></path></g><g id="Group_27187" data-name="Group 27187" transform="translate(7.233 11.086)"><rect id="Rectangle_9860" data-name="Rectangle 9860" width="37.371" height="2.118" fill="#9fddfc"></rect><rect id="Rectangle_9861" data-name="Rectangle 9861" width="37.371" height="2.118" transform="translate(0 7.474)" fill="#9fddfc"></rect><rect id="Rectangle_9862" data-name="Rectangle 9862" width="53.314" height="2.118" transform="translate(0 14.948)" fill="#9fddfc"></rect><rect id="Rectangle_9863" data-name="Rectangle 9863" width="53.314" height="2.118" transform="translate(0 22.421)" fill="#9fddfc"></rect><rect id="Rectangle_9864" data-name="Rectangle 9864" width="53.314" height="2.118" transform="translate(0 29.895)" fill="#9fddfc"></rect><rect id="Rectangle_9865" data-name="Rectangle 9865" width="53.314" height="2.118" transform="translate(0 37.369)" fill="#9fddfc"></rect><rect id="Rectangle_9866" data-name="Rectangle 9866" width="53.314" height="2.118" transform="translate(0 44.843)" fill="#9fddfc"></rect><rect id="Rectangle_9867" data-name="Rectangle 9867" width="53.314" height="2.118" transform="translate(0 52.317)" fill="#9fddfc"></rect></g></g><g id="Group_27193" data-name="Group 27193" transform="translate(0 21.918)"><g id="Group_27192" data-name="Group 27192"><g id="Group_27191" data-name="Group 27191"><g id="Group_27189" data-name="Group 27189" transform="translate(4.781)"><path id="Path_37561" data-name="Path 37561" d="M1533.891,409.1a5.135,5.135,0,0,1-5.144-5.1,5.141,5.141,0,0,0-5.146-5.1h-34.237a4.5,4.5,0,0,0-4.567,5.112l6.186,54.657a5.916,5.916,0,0,0,5.724,5.113h60.712a6.067,6.067,0,0,0,5.828-5.1l5.98-44.482a4.393,4.393,0,0,0-4.464-5.1Z" transform="translate(-1484.763 -398.9)" fill="#5ca1de"></path></g><g id="Group_27190" data-name="Group 27190"><path id="Path_37562" data-name="Path 37562" d="M1523.65,409.1a5.136,5.136,0,0,1-5.145-5.1,5.141,5.141,0,0,0-5.146-5.1h-34.237a4.5,4.5,0,0,0-4.567,5.112l6.187,54.657a5.915,5.915,0,0,0,5.725,5.113h60.712a6.065,6.065,0,0,0,5.827-5.1l5.98-44.482a4.394,4.394,0,0,0-4.464-5.1Z" transform="translate(-1474.522 -398.9)" fill="#aedcff"></path></g></g></g></g></g></g><path id="Path_37563" data-name="Path 37563" d="M1565.159,438.547c-8.117-.134-14.576-4.8-16.3-6.165-1.721,1.367-8.181,6.031-16.3,6.165,0,0-7.976,27.078,16.3,35.994C1573.136,465.625,1565.159,438.547,1565.159,438.547Zm-11.305,24.569a.733.733,0,0,1-.747.912h-8.495a.73.73,0,0,1-.743-.912l2.665-10.047a5.364,5.364,0,1,1,4.653,0Z" transform="translate(-1504.797 -394.833)" fill="#f0f9ff"></path></g><g id="Group_27209" data-name="Group 27209" transform="translate(2.972 149.171)"><g id="Group_27203" data-name="Group 27203" transform="translate(0 24.394)"><g id="Group_27202" data-name="Group 27202"><rect id="Rectangle_9868" data-name="Rectangle 9868" width="73.195" height="46.613" fill="#dc80ff"></rect><path id="Path_37564" data-name="Path 37564" d="M908.022,655.42l36.6,31.287,36.6-31.287Z" transform="translate(-908.022 -655.42)" fill="#6A2186"></path><g id="Group_27201" data-name="Group 27201"><g id="Group_27200" data-name="Group 27200" clip-path="url(#clip-path)"><g id="Group_27199" data-name="Group 27199" transform="translate(-1.53 14.178)"><g id="Group_27197" data-name="Group 27197"><path id="Path_37565" data-name="Path 37565" d="M907.336,719.285q16.88-15.493,33.766-30.974c1.426-1.308-.7-3.416-2.117-2.113q-16.883,15.481-33.767,30.966c-1.427,1.309.7,3.421,2.118,2.121Z" transform="translate(-904.745 -685.788)" fill="#6A2186"></path></g><g id="Group_27198" data-name="Group 27198" transform="translate(39.674)"><path id="Path_37566" data-name="Path 37566" d="M1023.965,719.285q-16.879-15.493-33.766-30.974c-1.425-1.308.7-3.416,2.115-2.113q16.887,15.481,33.768,30.966c1.424,1.309-.7,3.421-2.118,2.121Z" transform="translate(-989.727 -685.788)" fill="#6A2186"></path></g></g></g></g></g></g><g id="Group_27208" data-name="Group 27208" transform="translate(49.221 -10)"><g id="Group_27207" data-name="Group 27207"><g id="Group_27206" data-name="Group 27206"><g id="Group_27204" data-name="Group 27204"><path id="Path_37567" data-name="Path 37567" d="M1007.961,610.528a25.132,25.132,0,1,0,35.541,0A25.134,25.134,0,0,0,1007.961,610.528Zm31.512,31.51a19.433,19.433,0,1,1,0-27.48A19.436,19.436,0,0,1,1039.473,642.038Z" transform="translate(-1000.602 -603.169)" fill="#f0f9ff"></path></g><g id="Group_27205" data-name="Group 27205" transform="translate(36.687 36.68)"><rect id="Rectangle_9870" data-name="Rectangle 9870" width="6.19" height="28.769" transform="matrix(0.707, -0.707, 0.707, 0.707, 0, 4.375)" fill="#f0f9ff"></rect><path id="Path_37569" data-name="Path 37569" d="M1122.127,720.317l-4.378,4.375-4.379-4.375,4.379-4.38Z" transform="translate(-1097.41 -699.97)" fill="#FFD100"></path></g></g></g></g></g><g id="Group_27219" data-name="Group 27219" transform="translate(2.971 22.75)"><g id="Group_27212" data-name="Group 27212" transform="translate(18.214)"><g id="Group_27210" data-name="Group 27210"><path id="Path_37571" data-name="Path 37571" d="M993.845,441.317H923.37V361.5h54.61l15.865,17.146Z" transform="translate(-923.37 -361.497)" fill="#f9f9f9"></path><path id="Path_37572" data-name="Path 37572" d="M1040.345,361.5l15.865,17.146h-15.865Z" transform="translate(-985.735 -361.497)" fill="#dc80ff"></path></g><g id="Group_27211" data-name="Group 27211" transform="translate(7.659 11.739)"><g class="g-1"><rect id="Rectangle_9871" data-name="Rectangle 9871" width="39.565" height="2.242" fill="#dc80ff"></rect></g><g class="g-2"><rect id="Rectangle_9872" data-name="Rectangle 9872" width="39.565" height="2.242" transform="translate(0 7.913)" fill="#dc80ff"></rect></g><g class="g-3"><rect id="Rectangle_9873" data-name="Rectangle 9873" width="56.447" height="2.242" transform="translate(0 15.827)" fill="#dc80ff"></rect></g><g class="g-4"><rect id="Rectangle_9874" data-name="Rectangle 9874" width="56.447" height="2.243" transform="translate(0 23.739)" fill="#dc80ff"></rect></g><g class="g-5"><rect id="Rectangle_9875" data-name="Rectangle 9875" width="56.447" height="2.242" transform="translate(0 31.653)" fill="#dc80ff"></rect></g><g class="g-6"><rect id="Rectangle_9876" data-name="Rectangle 9876" width="56.447" height="2.242" transform="translate(0 39.566)" fill="#dc80ff"></rect></g><g class="g-7"><rect id="Rectangle_9877" data-name="Rectangle 9877" width="56.447" height="2.243" transform="translate(0 47.479)" fill="#dc80ff"></rect></g><g class="g-8"><rect id="Rectangle_9878" data-name="Rectangle 9878" width="56.447" height="2.243" transform="translate(0 55.392)" fill="#dc80ff"></rect></g></g></g><g id="Group_27218" data-name="Group 27218" transform="translate(0 46.357)"><g id="Group_27217" data-name="Group 27217"><path id="Path_37573" data-name="Path 37573" d="M926.039,481.635A20.841,20.841,0,1,1,905.2,460.794,20.842,20.842,0,0,1,926.039,481.635Z" transform="translate(-884.356 -460.794)" fill="#6A2186"></path><g id="Group_27216" data-name="Group 27216" transform="translate(11.597 8.001)"><g id="Group_27214" data-name="Group 27214"><g id="Group_27213" data-name="Group 27213" transform="translate(2.876)"><path id="Path_37574" data-name="Path 37574" d="M922.614,490.463h-1.776a5.487,5.487,0,0,1-5.481-5.48v-1.571a5.487,5.487,0,0,1,5.481-5.48h1.776a5.488,5.488,0,0,1,5.482,5.48v1.571A5.488,5.488,0,0,1,922.614,490.463Zm-1.776-10.888A3.842,3.842,0,0,0,917,483.412v1.571a3.842,3.842,0,0,0,3.838,3.837h1.776a3.841,3.841,0,0,0,3.836-3.837v-1.571a3.841,3.841,0,0,0-3.836-3.837Z" transform="translate(-915.357 -477.932)" fill="#f0f9ff"></path></g><path id="Rectangle_9879" data-name="Rectangle 9879" d="M9.245,0h0a9.243,9.243,0,0,1,9.243,9.243v0A9.245,9.245,0,0,1,9.244,18.49h0A9.244,9.244,0,0,1,0,9.247v0A9.245,9.245,0,0,1,9.245,0Z" transform="translate(0 7.19)" fill="#f0f9ff"></path></g><g id="Group_27215" data-name="Group 27215" transform="translate(6.469 10.896)"><path id="Path_37575" data-name="Path 37575" d="M928.6,504.045a2.774,2.774,0,1,0-3.976,2.49l-1.379,5.2a.377.377,0,0,0,.384.471h4.394a.378.378,0,0,0,.387-.471l-1.379-5.2A2.764,2.764,0,0,0,928.6,504.045Z" transform="translate(-923.054 -501.271)" fill="#6A2186"></path></g></g></g></g></g><g id="Group_27222" data-name="Group 27222" transform="translate(150.781)"><g id="Group_27220" data-name="Group 27220"><path id="Path_37576" data-name="Path 37576" d="M1208.842,339.106c-3.2,4.711-1.16,8.565,4.536,8.565h47.954c5.7,0,7.737-3.854,4.536-8.565l-22.693-33.4c-3.2-4.711-8.439-4.711-11.639,0Z" transform="translate(-1207.328 -302.172)" fill="#6A2186"></path><path id="Path_37577" data-name="Path 37577" d="M1298.386,339.107l-22.693-33.4c-2-2.937-4.782-4.042-7.372-3.318a7.831,7.831,0,0,1,4.266,3.318l22.693,33.4c3.2,4.711,1.16,8.565-4.536,8.565h3.106C1299.547,347.672,1301.587,343.818,1298.386,339.107Z" transform="translate(-1239.846 -302.173)" fill="#cc533a"></path></g><g class="gv-1"><g id="Group_27221" data-name="Group 27221" transform="translate(27.933 11.31)"><path id="Path_37578" data-name="Path 37578" d="M1269.253,326.4a2.1,2.1,0,0,0-2.094,2.1v18.465a2.1,2.1,0,1,0,4.191,0V328.494A2.1,2.1,0,0,0,1269.253,326.4Z" transform="translate(-1267.159 -326.398)" fill="#035d77"></path><path id="Path_37579" data-name="Path 37579" d="M1269.253,379a2.1,2.1,0,1,0,2.1,2.094A2.095,2.095,0,0,0,1269.253,379Z" transform="translate(-1267.159 -354.443)" fill="#035d77"></path></g></g></g></g><g id="Group_27224" data-name="Group 27224" transform="translate(97.119 96.812)"><g class="gs-5"><path id="Path_37580" data-name="Path 37580" d="M1440.032,494.814l-2.2-7.248-2.2,7.248-7.248,2.147,7.248,2.148,2.2,7.248,2.2-7.248,7.251-2.148Z" transform="translate(-1271.524 -487.565)" fill="#f0f9ff"></path></g><g class="gs-1"><path id="Path_37581" data-name="Path 37581" d="M1100.018,573.615l-1.44-4.752-1.442,4.752-4.752,1.408,4.752,1.408,1.442,4.752,1.44-4.752,4.753-1.408Z" transform="translate(-1092.384 -530.909)" fill="#f0f9ff"></path></g></g><g id="Group_27225" data-name="Group 27225" transform="translate(5.089)"><path id="Path_37582" data-name="Path 37582" d="M1606.19,568.5l-1.664-5.487-1.662,5.487-5.487,1.625,5.487,1.626,1.662,5.486,1.664-5.486,5.487-1.626Z" transform="translate(-1269.588 -430.98)" fill="#FFD100"></path><g class="gs-2"><path id="Path_37583" data-name="Path 37583" d="M1405.42,344.2l-2.529-8.341-2.528,8.341-8.341,2.47,8.341,2.471,2.528,8.341,2.529-8.341,8.344-2.471Z" transform="translate(-1160.105 -309.872)" fill="#FFD100"></path></g><g class="gs-5"><path id="Path_37584" data-name="Path 37584" d="M908.654,590.92l-2.528-8.34-2.528,8.34-8.341,2.471,8.341,2.472,2.528,8.341,2.528-8.341L917,593.39Z" transform="translate(-895.256 -441.409)" fill="#FFD100"></path></g><g class="gs-3"><path id="Path_37585" data-name="Path 37585" d="M1121.478,351.75l-1.664-5.487-1.662,5.487-5.486,1.625,5.486,1.626,1.662,5.486,1.664-5.486,5.488-1.626Z" transform="translate(-1011.167 -315.418)" fill="#FFD100"></path></g><g class="gs-1"><path id="Path_37586" data-name="Path 37586" d="M1475.507,294.193l-1.361-4.492-1.362,4.492-4.492,1.331,4.492,1.331,1.362,4.491,1.361-4.491,4.493-1.331Z" transform="translate(-1200.768 -285.263)" fill="#FFD100"></path></g><g class="gs-4"><path id="Path_37587" data-name="Path 37587" d="M1043.266,288.535l-2.529-8.341-2.528,8.341-8.34,2.47,8.34,2.471,2.528,8.34,2.529-8.34,8.343-2.471Z" transform="translate(-967.024 -280.194)" fill="#FFD100"></path></g></g></g><path id="Path_37588" data-name="Path 37588" d="M1262.02,875.138a3.85,3.85,0,0,1-3.851,3.85H894.54a3.85,3.85,0,0,1-3.85-3.85h0a3.85,3.85,0,0,1,3.85-3.85h363.63a3.85,3.85,0,0,1,3.851,3.85Z" transform="translate(-3.377 -315.139)" fill="#FFD100"></path></g><g class="gt"><g id="Group_1615" data-name="Group 1615" transform="translate(454.104 127)"><g id="Group_1614" data-name="Group 1614" clip-path="url(#clip-path-2)"><path id="Path_1238" data-name="Path 1238" d="M514.258,339.839l-40.752,55.44,7.254,65.609h33.5Z" transform="translate(-424.736 -304.835)" fill="#FFD100"></path><path id="Path_1239" data-name="Path 1239" d="M872.509,339.839l40.752,55.44-7.254,65.609h-33.5Z" transform="translate(-782.641 -304.835)" fill="#FFD100"></path><g id="Group_1603" data-name="Group 1603" transform="translate(0 0)"><g id="Group_1602" data-name="Group 1602" clip-path="url(#clip-path-2)"><path id="Path_1241" data-name="Path 1241" d="M651.422,2781.236l3.69-35.623-16.448-2.516,1.624,38.138a3.907,3.907,0,0,1-.679,2.2l-1.833,2.688h16.158l-1.833-2.688a3.907,3.907,0,0,1-.679-2.2" transform="translate(-572.085 -2460.561)" fill="#fbd3a8"></path><path id="Path_1242" data-name="Path 1242" d="M608.615,3137.149v3.859c.858,2.24,21.83,2.323,22.165,0v-3.569a7.017,7.017,0,0,0-.343-2.187c-3.65-11.14-19.191-9.407-21.616.187a6.98,6.98,0,0,0-.207,1.709" transform="translate(-545.928 -2805.418)" fill="#232323"></path><path id="Path_1243" data-name="Path 1243" d="M627.615,3180.446c2.477-5.541,15.885-5.553,18.158-.038a.634.634,0,0,1-.405.85c-4.439,1.327-14.048,1.252-17.4.047a.633.633,0,0,1-.355-.859" transform="translate(-562.92 -2849.126)" fill="#ffd9a4"></path><path id="Path_1244" data-name="Path 1244" d="M741.412,3212.806l.671-2.17a.323.323,0,0,1,.61,0l.539,2.051Z" transform="translate(-665.047 -2879.749)" fill="#232323"></path><path id="Path_1245" data-name="Path 1245" d="M613.629,3160.562c-.879,1.112-1.172,3.289,0,4.246-2.115-.164-4.014-.477-5-1.417l-.015-3.859a9.074,9.074,0,0,1,3.788-7.025,2.613,2.613,0,0,0,1.852,3.485,5.464,5.464,0,0,0-3.809,3.255c-.022,1.021,1.416,1.256,3.181,1.315" transform="translate(-545.929 -2827.8)" fill="#3b3b3b"></path><g id="Group_1565" data-name="Group 1565" transform="translate(64.709 329.124)" opacity="0.35"><g id="Group_1564" data-name="Group 1564"><g id="Group_1563" data-name="Group 1563" clip-path="url(#clip-path-4)"><path id="Path_1246" data-name="Path 1246" d="M630.119,3195.4c-.846,1.124-.862,2.945-.273,3.4-.817-.109-1.467-.307-1.6-.783a4.582,4.582,0,0,1,1.869-2.615" transform="translate(-628.25 -3195.397)" fill="#f8a364"></path></g></g></g><g id="Group_1568" data-name="Group 1568" transform="translate(81.158 328.998)" opacity="0.35"><g id="Group_1567" data-name="Group 1567"><g id="Group_1566" data-name="Group 1566" clip-path="url(#clip-path-4)"><path id="Path_1247" data-name="Path 1247" d="M787.946,3194.178c.846,1.123.862,2.944.273,3.4.817-.109,1.467-.307,1.6-.783a4.582,4.582,0,0,0-1.869-2.615" transform="translate(-787.946 -3194.178)" fill="#f8a364"></path></g></g></g><g id="Group_1571" data-name="Group 1571" transform="translate(77.257 324.316)" opacity="0.2"><g id="Group_1570" data-name="Group 1570"><g id="Group_1569" data-name="Group 1569" clip-path="url(#clip-path-6)"><path id="Path_1248" data-name="Path 1248" d="M752.99,3149.684c1.342.84,2.232,1.839,1.986,2.231s-1.532.029-2.875-.811-2.232-1.839-1.987-2.231,1.533-.029,2.875.811" transform="translate(-750.074 -3148.715)" fill="#fff"></path></g></g></g><g id="Group_1574" data-name="Group 1574" transform="translate(81.195 331.691)" opacity="0.2"><g id="Group_1573" data-name="Group 1573"><g id="Group_1572" data-name="Group 1572" clip-path="url(#clip-path-7)"><path id="Path_1249" data-name="Path 1249" d="M791.011,3220.364a.045.045,0,0,1,.089,0l.161,2.829a.415.415,0,0,1-.377.413l-2.524.318a.049.049,0,0,1-.021-.1l2.048-.66a.415.415,0,0,0,.295-.32Z" transform="translate(-788.306 -3220.325)" fill="#fff"></path></g></g></g><g id="Group_1577" data-name="Group 1577" transform="translate(67.924 314.147)" opacity="0.35"><g id="Group_1576" data-name="Group 1576"><g id="Group_1575" data-name="Group 1575" clip-path="url(#clip-path-8)"><path id="Path_1250" data-name="Path 1250" d="M671.162,3053.75c-3.494,1.3-9.206,1.048-11.55-.229l-.15-3.527,12.207.165Z" transform="translate(-659.462 -3049.994)" fill="#f8a364"></path></g></g></g><path id="Path_1251" data-name="Path 1251" d="M929.776,2781.236l-3.69-35.623,16.449-2.516-1.624,38.138a3.905,3.905,0,0,0,.679,2.2l1.833,2.688H927.264l1.833-2.688a3.906,3.906,0,0,0,.679-2.2" transform="translate(-830.7 -2460.561)" fill="#fbd3a8"></path><path id="Path_1252" data-name="Path 1252" d="M930.528,3137.149v3.859c-.858,2.24-21.83,2.323-22.165,0v-3.569a7.018,7.018,0,0,1,.342-2.187c3.65-11.14,19.191-9.407,21.616.187a6.977,6.977,0,0,1,.207,1.709" transform="translate(-814.802 -2805.418)" fill="#232323"></path><path id="Path_1253" data-name="Path 1253" d="M945.51,3180.446c-2.477-5.541-15.885-5.553-18.158-.038a.634.634,0,0,0,.405.85c4.439,1.327,14.048,1.252,17.4.047a.633.633,0,0,0,.355-.859" transform="translate(-831.793 -2849.126)" fill="#ffd9a4"></path><path id="Path_1254" data-name="Path 1254" d="M974.914,3212.806l-.671-2.17a.323.323,0,0,0-.61,0l-.539,2.051Z" transform="translate(-872.866 -2879.749)" fill="#232323"></path><path id="Path_1255" data-name="Path 1255" d="M1069.423,3160.562c.879,1.112,1.172,3.289,0,4.246,2.115-.164,4.014-.477,5-1.417l.015-3.859a9.074,9.074,0,0,0-3.788-7.025,2.613,2.613,0,0,1-1.852,3.485,5.464,5.464,0,0,1,3.809,3.255c.022,1.021-1.416,1.256-3.182,1.315" transform="translate(-958.71 -2827.8)" fill="#3b3b3b"></path><g id="Group_1580" data-name="Group 1580" transform="translate(111.835 329.124)" opacity="0.35"><g id="Group_1579" data-name="Group 1579"><g id="Group_1578" data-name="Group 1578" clip-path="url(#clip-path-9)"><path id="Path_1256" data-name="Path 1256" d="M1085.781,3195.4c.846,1.124.862,2.945.273,3.4.817-.109,1.467-.307,1.6-.783a4.583,4.583,0,0,0-1.869-2.615" transform="translate(-1085.781 -3195.397)" fill="#f8a364"></path></g></g></g><g id="Group_1583" data-name="Group 1583" transform="translate(95.386 328.998)" opacity="0.35"><g id="Group_1582" data-name="Group 1582"><g id="Group_1581" data-name="Group 1581" clip-path="url(#clip-path-4)"><path id="Path_1257" data-name="Path 1257" d="M927.954,3194.178c-.846,1.123-.862,2.944-.273,3.4-.817-.109-1.467-.307-1.6-.783a4.582,4.582,0,0,1,1.869-2.615" transform="translate(-926.085 -3194.178)" fill="#f8a364"></path></g></g></g><g id="Group_1586" data-name="Group 1586" transform="translate(96.213 324.316)" opacity="0.2"><g id="Group_1585" data-name="Group 1585"><g id="Group_1584" data-name="Group 1584" clip-path="url(#clip-path-6)"><path id="Path_1258" data-name="Path 1258" d="M936.138,3149.684c-1.343.84-2.232,1.839-1.986,2.231s1.533.029,2.875-.811,2.232-1.839,1.987-2.231-1.533-.029-2.875.811" transform="translate(-934.111 -3148.715)" fill="#fff"></path></g></g></g><g id="Group_1589" data-name="Group 1589" transform="translate(94.262 331.691)" opacity="0.2"><g id="Group_1588" data-name="Group 1588"><g id="Group_1587" data-name="Group 1587" clip-path="url(#clip-path-7)"><path id="Path_1259" data-name="Path 1259" d="M915.421,3220.364a.045.045,0,0,0-.089,0l-.161,2.829a.415.415,0,0,0,.377.413l2.524.318a.049.049,0,0,0,.021-.1l-2.048-.66a.415.415,0,0,1-.295-.32Z" transform="translate(-915.17 -3220.325)" fill="#fff"></path></g></g></g><g id="Group_1592" data-name="Group 1592" transform="translate(98.282 314.147)" opacity="0.35"><g id="Group_1591" data-name="Group 1591"><g id="Group_1590" data-name="Group 1590" clip-path="url(#clip-path-13)"><path id="Path_1260" data-name="Path 1260" d="M954.707,3053.75c3.494,1.3,9.206,1.048,11.55-.229l.15-3.527-12.207.165Z" transform="translate(-954.2 -3049.994)" fill="#f8a364"></path></g></g></g><path id="Path_1261" data-name="Path 1261" d="M608.948,2301.522c-11.625,9.4-61.782,9.4-68.838,0l3.254-92.084,62.56-.5Z" transform="translate(-484.48 -1981.418)" fill="#6A2186"></path><path id="Path_1262" data-name="Path 1262" d="M978.914,738.544l24.234-18.957,10,2.008c.929,7.945-.4,17.2-2.857,27.1-8.512,17.372-16.248,19.732-16.248,19.732l-15.128-.037Z" transform="translate(-878.086 -645.47)" fill="#2d2d2d"></path><path id="Path_1263" data-name="Path 1263" d="M478.5,738.544l-24.233-18.957-10,2.008c-.929,7.945.4,17.2,2.857,27.1,8.512,17.372,16.248,19.732,16.248,19.732l15.128-.037Z" transform="translate(-398.239 -645.47)" fill="#2d2d2d"></path><path id="Path_1264" data-name="Path 1264" d="M795.483,1254.743c0,2.689-4.636,4.87-10.356,4.87s-10.356-2.18-10.356-4.87,4.637-4.87,10.356-4.87,10.356,2.18,10.356,4.87" transform="translate(-694.97 -1121.137)" fill="#aeb5b5"></path><path id="Path_1265" data-name="Path 1265" d="M797.085,1234.266h-16c.133,6.494-.77,10.583-1.724,13.141a2.5,2.5,0,0,0,.692,2.735c3.494,3.123,13.932,4.242,18.181-.338a2.5,2.5,0,0,0,.511-2.555c-.931-2.567-1.8-6.621-1.665-12.982" transform="translate(-698.953 -1107.137)" fill="#fbd3a8"></path><g id="Group_1595" data-name="Group 1595" transform="translate(82.147 126.415)" opacity="0.35"><g id="Group_1594" data-name="Group 1594"><g id="Group_1593" data-name="Group 1593" clip-path="url(#clip-path-14)"><path id="Path_1266" data-name="Path 1266" d="M797.978,1227.342l15.257.1.255,4.4c-2.395,3.526-14.163,3.377-15.946-.165Z" transform="translate(-797.545 -1227.342)" fill="#f8a364"></path></g></g></g><path id="Path_1267" data-name="Path 1267" d="M585.68,1287.843v173.952H553.434l2.335-114.044-.037-54.818a.957.957,0,0,1,.338-.677c3.856-3.406,10.5-4.88,18.172-5.593a1.078,1.078,0,0,0,.873-.606l1.349-2.809a.3.3,0,0,1,.545.006c2.172,4.581,8.671,4.591,8.671,4.591" transform="translate(-496.431 -1150.921)" fill="#6A2186"></path><path id="Path_1268" data-name="Path 1268" d="M449.372,892.973c-6.892,0-11.287-9.174-9.148-15.1a5.512,5.512,0,0,1,2.94-3.251c2.493-1.069,4.742.248,6.208,1.23Z" transform="translate(-394.393 -784.184)" fill="#fbd3a8"></path><path id="Path_1269" data-name="Path 1269" d="M475.959,914.845c-9.345-3.324-7.768,10.487-.087,10.825" transform="translate(-421.158 -820.154)" fill="#fbbd89"></path><path id="Path_1270" data-name="Path 1270" d="M475.919,914a10.278,10.278,0,0,0-2.539-.569,5.426,5.426,0,0,0-1.287.045,3.538,3.538,0,0,0-1.2.417,2.842,2.842,0,0,0-.92.874,3.635,3.635,0,0,0-.5,1.2,6.036,6.036,0,0,0-.153,1.313,10.557,10.557,0,0,0,.079,1.331,7.657,7.657,0,0,1-.066-2.674,3.817,3.817,0,0,1,.46-1.281,3.091,3.091,0,0,1,.95-1,3.859,3.859,0,0,1,1.284-.526A5.816,5.816,0,0,1,473.4,913a10.77,10.77,0,0,1,2.693.453Z" transform="translate(-420.908 -818.961)" fill="#603813"></path><path id="Path_1271" data-name="Path 1271" d="M1214.508,892.973c6.892,0,11.287-9.174,9.148-15.1a5.512,5.512,0,0,0-2.94-3.251c-2.493-1.069-4.742.248-6.208,1.23Z" transform="translate(-1089.414 -784.184)" fill="#fbd3a8"></path><path id="Path_1272" data-name="Path 1272" d="M1216.239,914.845c9.345-3.324,7.769,10.487.087,10.825" transform="translate(-1090.967 -820.154)" fill="#fbbd89"></path><path id="Path_1273" data-name="Path 1273" d="M1212.517,913.454a10.768,10.768,0,0,1,2.693-.453,5.816,5.816,0,0,1,1.375.122,3.857,3.857,0,0,1,1.284.526,3.09,3.09,0,0,1,.95,1,3.813,3.813,0,0,1,.46,1.281,7.65,7.65,0,0,1-.066,2.674,10.546,10.546,0,0,0,.08-1.331,6.059,6.059,0,0,0-.153-1.313,3.637,3.637,0,0,0-.5-1.2,2.842,2.842,0,0,0-.92-.874,3.537,3.537,0,0,0-1.2-.417,5.427,5.427,0,0,0-1.287-.045,10.283,10.283,0,0,0-2.539.57Z" transform="translate(-1087.628 -818.961)" fill="#603813"></path><path id="Path_1274" data-name="Path 1274" d="M573.985,559.157H503.731c-9.533,43.424-2.684,71.981,34.646,72.876h.963c37.329-.9,44.178-29.452,34.646-72.876" transform="translate(-448.38 -501.564)" fill="#fbd3a8"></path><g class="gt2"><path id="Path_1275" data-name="Path 1275" d="M715.107,864.363c0,2.757-1.4,4.992-3.128,4.992s-3.128-2.235-3.128-4.992,1.4-4.992,3.128-4.992,3.128,2.235,3.128,4.992" transform="translate(-635.841 -770.857)" fill="#2d2d2d"></path><path id="Path_1276" data-name="Path 1276" d="M731.791,870.652a1.557,1.557,0,1,1-1.523-1.885,1.733,1.733,0,0,1,1.523,1.885" transform="translate(-653.686 -779.285)" fill="#fff"></path><path id="Path_1278" data-name="Path 1278" d="M987.613,864.363c0,2.757-1.4,4.992-3.128,4.992s-3.128-2.235-3.128-4.992,1.4-4.992,3.128-4.992,3.128,2.235,3.128,4.992" transform="translate(-880.279 -770.857)" fill="#2d2d2d"></path><path id="Path_1279" data-name="Path 1279" d="M1004.3,870.652a1.557,1.557,0,1,1-1.523-1.885,1.733,1.733,0,0,1,1.523,1.885" transform="translate(-898.123 -779.285)" fill="#fff"></path><path id="Path_1281" data-name="Path 1281" d="M845.458,1011.927a.935.935,0,0,0,.447-.048c2.716-.8,3.109,2.249.923,2.525-2.086.191-3.183-.514-3.855-1.417a.824.824,0,0,1,.53-1.309,6.864,6.864,0,0,1,1.954.25" transform="translate(-756.002 -907.461)" fill="#f8a364"></path><path id="Path_1282" data-name="Path 1282" d="M979.226,777.75c-3.005.056-4.146-2.829-2.05-4.585a4.232,4.232,0,0,1,3.2-.776c3.12.334,5.054,1.44,5.4,3.576a2.336,2.336,0,0,1-.671,2.1c-1.1,1.006-2.806.62-4.667-.116a3.136,3.136,0,0,0-1.215-.2" transform="translate(-875.567 -692.802)" fill="#2d2d2d"></path><path id="Path_1283" data-name="Path 1283" d="M692.753,777.75c3.005.056,4.145-2.829,2.05-4.585a4.232,4.232,0,0,0-3.2-.776c-3.12.334-5.054,1.44-5.4,3.576a2.336,2.336,0,0,0,.671,2.1c1.1,1.006,2.807.62,4.667-.116a3.136,3.136,0,0,1,1.215-.2" transform="translate(-615.492 -692.802)" fill="#2d2d2d"></path><path id="Path_1284" data-name="Path 1284" d="M509.064,723.473c-5.747,6.59-7.149,18.847-6.45,32-3.784-11.581-2.317-32-2.317-32Z" transform="translate(-448.515 -648.956)" fill="#2d2d2d"></path><path id="Path_1285" data-name="Path 1285" d="M1170.277,723.473c5.747,6.59,7.149,18.847,6.45,32,3.784-11.581,2.317-32,2.317-32Z" transform="translate(-1049.739 -648.956)" fill="#2d2d2d"></path></g><g id="Group_1598" data-name="Group 1598" transform="translate(77.831 132.158)" opacity="0.5"><g id="Group_1597" data-name="Group 1597"><g id="Group_1596" data-name="Group 1596" clip-path="url(#clip-path-15)"><path id="Path_1286" data-name="Path 1286" d="M755.649,1286.685c.4,3.909,4.737,6.819,10.049,7.213v77.127h5.54l-.739-76.461-3.412-.915v-5.784c-3.957-.229-7.13-1.548-8.691-4.626a.3.3,0,0,0-.525.03l-1.5,3.044a1.1,1.1,0,0,1-.72.371" transform="translate(-755.649 -1283.102)" fill="#aeb5b5"></path></g></g></g><path id="Path_1287" data-name="Path 1287" d="M851.564,1384.089l-4.3,1.252v76.27" transform="translate(-759.994 -1241.529)" fill="none" stroke="#aeb5b5" stroke-miterlimit="10" stroke-width="15"></path><path id="Path_1288" data-name="Path 1288" d="M853.329,1287.843v5.784l-3.412.915v167.253h35.342L883.24,1347.75l.037-54.818a.957.957,0,0,0-.338-.677c-3.855-3.406-10.5-4.88-18.172-5.593a1.078,1.078,0,0,1-.873-.606l-1.348-2.809a.3.3,0,0,0-.545.006c-2.172,4.581-8.671,4.591-8.671,4.591" transform="translate(-762.376 -1150.921)" fill="#6A2186"></path><g id="Group_1601" data-name="Group 1601" transform="translate(86.802 132.158)" opacity="0.5"><g id="Group_1600" data-name="Group 1600"><g id="Group_1599" data-name="Group 1599" clip-path="url(#clip-path-15)"><path id="Path_1289" data-name="Path 1289" d="M858.327,1286.685c-.4,3.909-4.737,6.819-10.049,7.213v77.127h-5.54l.739-76.461,3.412-.915v-5.784c3.956-.229,7.13-1.548,8.691-4.626a.3.3,0,0,1,.525.03l1.5,3.044a1.1,1.1,0,0,0,.72.371" transform="translate(-842.738 -1283.102)" fill="#aeb5b5"></path></g></g></g><path id="Path_1290" data-name="Path 1290" d="M860.892,1431.643a1.258,1.258,0,1,1-1.258-1.258,1.258,1.258,0,0,1,1.258,1.258" transform="translate(-769.964 -1283.056)" fill="#aeb5b5"></path><path id="Path_1291" data-name="Path 1291" d="M860.892,1581.543a1.258,1.258,0,1,1-1.258-1.258,1.258,1.258,0,0,1,1.258,1.258" transform="translate(-769.964 -1417.517)" fill="#aeb5b5"></path><path id="Path_1292" data-name="Path 1292" d="M860.892,1739.668a1.258,1.258,0,1,1-1.258-1.258,1.258,1.258,0,0,1,1.258,1.258" transform="translate(-769.964 -1559.355)" fill="#aeb5b5"></path><path id="Path_1293" data-name="Path 1293" d="M860.892,1889.569a1.258,1.258,0,1,1-1.258-1.258,1.258,1.258,0,0,1,1.258,1.258" transform="translate(-769.964 -1693.816)" fill="#aeb5b5"></path><path id="Path_1294" data-name="Path 1294" d="M860.892,2039.468a1.258,1.258,0,1,1-1.258-1.258,1.258,1.258,0,0,1,1.258,1.258" transform="translate(-769.964 -1828.276)" fill="#aeb5b5"></path><path id="Path_1295" data-name="Path 1295" d="M744.416,1055.652v-3.2c-7.106-.327-11.465.63-13.687,2.954a7.318,7.318,0,0,0-1.984,5.066v3.72h3.43c-1.283-3.014-1.655-5.55,0-7.239a4.092,4.092,0,0,1,2.881-1.2Z" transform="translate(-653.685 -943.993)" fill="#2d2d2d"></path><path id="Path_1296" data-name="Path 1296" d="M876.366,1055.652v-3.2c7.106-.327,11.466.63,13.687,2.954a7.318,7.318,0,0,1,1.984,5.066v3.72h-3.43c1.283-3.014,1.655-5.55,0-7.239a4.092,4.092,0,0,0-2.881-1.2Z" transform="translate(-786.101 -943.993)" fill="#2d2d2d"></path></g></g><g id="Group_1611" data-name="Group 1611" transform="translate(41.751 27.114)"><g id="Group_1610" data-name="Group 1610" clip-path="url(#clip-path-17)"><rect id="Rectangle_675" data-name="Rectangle 675" width="189.322" height="181.091" transform="translate(-41.751 -24.991)" fill="#fff"></rect><g id="Group_1606" data-name="Group 1606" transform="translate(-39.759 -24.991)" opacity="0.6"><g id="Group_1605" data-name="Group 1605" transform="translate(0 0)"><g id="Group_1604" data-name="Group 1604" clip-path="url(#clip-path-18)"><rect id="Rectangle_676" data-name="Rectangle 676" width="3.323" height="181.091" transform="translate(28.002)" fill="#6A2186"></rect><rect id="Rectangle_677" data-name="Rectangle 677" width="3.323" height="181.091" transform="translate(21.002)" fill="#6A2186"></rect><rect id="Rectangle_678" data-name="Rectangle 678" width="3.323" height="181.091" transform="translate(14.001)" fill="#6A2186"></rect><rect id="Rectangle_679" data-name="Rectangle 679" width="3.323" height="181.091" transform="translate(7.001)" fill="#6A2186"></rect><rect id="Rectangle_680" data-name="Rectangle 680" width="3.323" height="181.091" transform="translate(0)" fill="#6A2186"></rect><rect id="Rectangle_681" data-name="Rectangle 681" width="3.323" height="181.091" transform="translate(35.003)" fill="#6A2186"></rect><rect id="Rectangle_682" data-name="Rectangle 682" width="3.323" height="181.091" transform="translate(42.004)" fill="#6A2186"></rect><rect id="Rectangle_683" data-name="Rectangle 683" width="3.323" height="181.091" transform="translate(49.004)" fill="#6A2186"></rect><rect id="Rectangle_684" data-name="Rectangle 684" width="3.323" height="181.091" transform="translate(56.005)" fill="#6A2186"></rect><rect id="Rectangle_685" data-name="Rectangle 685" width="3.323" height="181.091" transform="translate(63.005)" fill="#6A2186"></rect><rect id="Rectangle_686" data-name="Rectangle 686" width="3.323" height="181.091" transform="translate(98.008)" fill="#6A2186"></rect><rect id="Rectangle_687" data-name="Rectangle 687" width="3.323" height="181.091" transform="translate(91.008)" fill="#6A2186"></rect><rect id="Rectangle_688" data-name="Rectangle 688" width="3.323" height="181.091" transform="translate(84.007)" fill="#6A2186"></rect><rect id="Rectangle_689" data-name="Rectangle 689" width="3.323" height="181.091" transform="translate(77.006)" fill="#6A2186"></rect><rect id="Rectangle_690" data-name="Rectangle 690" width="3.323" height="181.091" transform="translate(70.006)" fill="#6A2186"></rect><rect id="Rectangle_691" data-name="Rectangle 691" width="3.323" height="181.091" transform="translate(105.009)" fill="#6A2186"></rect><rect id="Rectangle_692" data-name="Rectangle 692" width="3.323" height="181.091" transform="translate(112.009)" fill="#6A2186"></rect><rect id="Rectangle_693" data-name="Rectangle 693" width="3.323" height="181.091" transform="translate(119.01)" fill="#6A2186"></rect><rect id="Rectangle_694" data-name="Rectangle 694" width="3.323" height="181.091" transform="translate(126.011)" fill="#6A2186"></rect><rect id="Rectangle_695" data-name="Rectangle 695" width="3.323" height="181.091" transform="translate(133.011)" fill="#6A2186"></rect><rect id="Rectangle_696" data-name="Rectangle 696" width="3.323" height="181.091" transform="translate(140.012)" fill="#6A2186"></rect><rect id="Rectangle_697" data-name="Rectangle 697" width="3.323" height="181.091" transform="translate(147.012)" fill="#6A2186"></rect><rect id="Rectangle_698" data-name="Rectangle 698" width="3.323" height="181.091" transform="translate(154.013)" fill="#6A2186"></rect><rect id="Rectangle_699" data-name="Rectangle 699" width="3.323" height="181.091" transform="translate(161.013)" fill="#6A2186"></rect></g></g></g><g id="Group_1609" data-name="Group 1609" transform="translate(-37.635 -27.114)" opacity="0.8"><g id="Group_1608" data-name="Group 1608" transform="translate(0)"><g id="Group_1607" data-name="Group 1607" clip-path="url(#clip-path-19)"><rect id="Rectangle_701" data-name="Rectangle 701" width="181.091" height="3.323" transform="translate(0 154.013)" fill="#6A2186"></rect><rect id="Rectangle_702" data-name="Rectangle 702" width="181.091" height="3.323" transform="translate(0 161.014)" fill="#6A2186"></rect><rect id="Rectangle_703" data-name="Rectangle 703" width="181.091" height="3.323" transform="translate(0 168.014)" fill="#6A2186"></rect><rect id="Rectangle_704" data-name="Rectangle 704" width="181.091" height="3.323" transform="translate(0 175.015)" fill="#6A2186"></rect><rect id="Rectangle_705" data-name="Rectangle 705" width="181.091" height="3.323" transform="translate(0 182.015)" fill="#6A2186"></rect><rect id="Rectangle_706" data-name="Rectangle 706" width="181.091" height="3.323" transform="translate(0 147.012)" fill="#6A2186"></rect><rect id="Rectangle_707" data-name="Rectangle 707" width="181.091" height="3.323" transform="translate(0 140.012)" fill="#6A2186"></rect><rect id="Rectangle_708" data-name="Rectangle 708" width="181.091" height="3.323" transform="translate(0 133.011)" fill="#6A2186"></rect><rect id="Rectangle_709" data-name="Rectangle 709" width="181.091" height="3.323" transform="translate(0 126.011)" fill="#6A2186"></rect><rect id="Rectangle_710" data-name="Rectangle 710" width="181.091" height="3.323" transform="translate(0 119.01)" fill="#6A2186"></rect><rect id="Rectangle_711" data-name="Rectangle 711" width="181.091" height="3.323" transform="translate(0 84.007)" fill="#6A2186"></rect><rect id="Rectangle_712" data-name="Rectangle 712" width="181.091" height="3.323" transform="translate(0 91.008)" fill="#6A2186"></rect><rect id="Rectangle_713" data-name="Rectangle 713" width="181.091" height="3.323" transform="translate(0 98.008)" fill="#6A2186"></rect><rect id="Rectangle_714" data-name="Rectangle 714" width="181.091" height="3.323" transform="translate(0 105.009)" fill="#6A2186"></rect><rect id="Rectangle_715" data-name="Rectangle 715" width="181.091" height="3.323" transform="translate(0 112.01)" fill="#6A2186"></rect><rect id="Rectangle_716" data-name="Rectangle 716" width="181.091" height="3.323" transform="translate(0 77.007)" fill="#6A2186"></rect><rect id="Rectangle_717" data-name="Rectangle 717" width="181.091" height="3.323" transform="translate(0 70.006)" fill="#6A2186"></rect><rect id="Rectangle_718" data-name="Rectangle 718" width="181.091" height="3.323" transform="translate(0 63.005)" fill="#6A2186"></rect><rect id="Rectangle_719" data-name="Rectangle 719" width="181.091" height="3.323" transform="translate(0 56.005)" fill="#6A2186"></rect><rect id="Rectangle_720" data-name="Rectangle 720" width="181.091" height="3.323" transform="translate(0 49.004)" fill="#6A2186"></rect><rect id="Rectangle_721" data-name="Rectangle 721" width="181.091" height="3.323" transform="translate(0 42.004)" fill="#6A2186"></rect><rect id="Rectangle_722" data-name="Rectangle 722" width="181.091" height="3.323" transform="translate(0 35.003)" fill="#6A2186"></rect><rect id="Rectangle_723" data-name="Rectangle 723" width="181.091" height="3.323" transform="translate(0 28.003)" fill="#6A2186"></rect></g></g></g></g></g><g id="Group_1613" data-name="Group 1613" transform="translate(0 0)"><g id="Group_1612" data-name="Group 1612" clip-path="url(#clip-path-2)"><path id="Path_1298" data-name="Path 1298" d="M512.077,546.922H422.561a2.184,2.184,0,0,1-2.184-2.184v-.914a6.113,6.113,0,0,1,6.113-6.113h81.658a6.113,6.113,0,0,1,6.113,6.113v.914a2.183,2.183,0,0,1-2.183,2.184" transform="translate(-377.078 -482.327)" fill="#2d2d2d"></path><path id="Path_1299" data-name="Path 1299" d="M808.032,1092.792a63.826,63.826,0,0,1-17.8,0s-.948,8.786,8.817,8.76h.162c9.765.025,8.817-8.76,8.817-8.76" transform="translate(-708.819 -980.235)" fill="#be1717"></path><path id="Path_1300" data-name="Path 1300" d="M808.035,1092.792a63.8,63.8,0,0,1-17.8,0,7.8,7.8,0,0,0-.012,1.1,32.948,32.948,0,0,0,17.821,0,7.792,7.792,0,0,0-.013-1.1" transform="translate(-708.822 -980.235)" fill="#fff"></path><path id="Path_1301" data-name="Path 1301" d="M826.8,1139.735a9.992,9.992,0,0,0-6.418-2.08v0h-.146v0a9.992,9.992,0,0,0-6.418,2.08,9.1,9.1,0,0,0,6.41,2.057h.162a9.1,9.1,0,0,0,6.41-2.057" transform="translate(-729.997 -1020.476)" fill="#ff2929"></path><path id="Path_1302" data-name="Path 1302" d="M797.423,1099.943h-.192c-.138,0-.273,0-.406,0l-.09,0c-.129,0-.257-.009-.382-.016l-.064,0q-.166-.01-.328-.023l-.079-.007q-.177-.015-.348-.036l-.091-.011q-.15-.018-.295-.04l-.062-.009c-.107-.016-.212-.035-.315-.053l-.105-.02c-.1-.019-.2-.039-.294-.06l-.058-.014-.032-.007-.217-.053-.01,0-.106-.027q-.128-.034-.253-.071l-.1-.032-.02-.006-.155-.05-.174-.059-.167-.061-.144-.056-.1-.041q-.129-.053-.253-.11l-.069-.031-.16-.076-.007,0c-.1-.05-.214-.109-.324-.17l-.024-.013c-4.282-2.4-3.808-7.594-3.786-7.814a.215.215,0,0,1,.078-.145.211.211,0,0,1,.156-.046l.034,0a63.567,63.567,0,0,0,17.677,0l.033,0a.207.207,0,0,1,.157.044.209.209,0,0,1,.077.144c.023.223.5,5.422-3.786,7.818l-.022.012c-.115.063-.223.12-.332.174l-.161.077-.068.031q-.125.057-.255.11l-.1.041-.145.056-.165.06-.176.06-.155.05-.025.008-.1.031q-.125.037-.253.071l-.112.029-.22.053-.033.008-.058.014c-.1.021-.194.041-.293.06l-.105.02c-.1.019-.208.037-.315.053l-.062.009q-.145.022-.294.04l-.091.011q-.171.02-.348.035l-.08.007q-.161.014-.328.023l-.064,0h0q-.188.01-.382.016l-.089,0c-.124,0-.249,0-.376,0m-.113-.418h.084c.134,0,.266,0,.4,0l.087,0q.189-.005.372-.015h0l.063,0c.107-.006.213-.014.317-.022l.077-.006q.171-.015.337-.035l.088-.011c.1-.012.191-.025.284-.038l.06-.009c.1-.016.2-.033.3-.052l.1-.019c.1-.018.189-.037.281-.058l.087-.02.208-.051.111-.029c.082-.022.163-.044.242-.068l.094-.029.025-.008.148-.047.168-.058.157-.057.138-.053.1-.039c.082-.034.163-.069.242-.1l.064-.029.152-.073c.1-.051.206-.1.314-.165l.021-.012c3.628-2.029,3.641-6.208,3.589-7.2a63.638,63.638,0,0,1-17.411,0c-.052,1.005-.033,5.174,3.589,7.2l.016.009c.11.061.215.116.318.167l.153.074.066.03q.118.053.24.1l.1.039.137.053.159.058.166.057.148.048.02.006.1.03c.08.024.161.046.243.068l.1.026.01,0,.208.051.035.008.052.012c.093.021.187.04.282.058l.1.019c.1.018.2.036.3.052l.059.009c.094.014.188.026.285.039l.088.011q.166.019.337.035l.077.006c.1.009.21.016.318.022l.063,0q.183.01.372.015l.087,0c.13,0,.261.005.4,0Z" transform="translate(-706.998 -978.417)" fill="#f8a364"></path><path id="Path_1303" data-name="Path 1303" d="M617.262,1098.769c-4.476,7.2-12.589,9.542-18.467,6.752l-3.431.273c-2.049,2.773-8.367,4.134-10.984,3.311-.174-1.436.236-1.015,1.256-1.6h-4.559c1.021.589,1.43.168,1.256,1.6-2.618.823-8.935-.538-10.984-3.311l-3.43-.273c-5.878,2.791-13.991.448-18.467-6.752,4.377,8.979,13.815,16.655,33.672,17.444v.018c.078,0,.388,0,.467,0v-.018c19.857-.789,29.3-8.465,33.672-17.444" transform="translate(-492.859 -985.597)" fill="#2d2d2d"></path><path id="Path_1304" data-name="Path 1304" d="M63.086,1332.387s-1.919-1.939-1.924-3.712-.141-2.632-2.212-6a11.384,11.384,0,0,1-1.912-6s-3.729.836-.736,6.187c1.835,3.276-7.617-2.751-10.257-4.847,0,0-2.387-.029-.666,3.089s-1.017,1.611,2.65,7.409,9.223,11.03,13.123,8.272,1.934-4.4,1.934-4.4" transform="translate(-40.145 -1181.06)" fill="#fdd4a9"></path><path id="Path_1305" data-name="Path 1305" d="M183.7,1372.047l1.618,22.279-18.771,13.081c-3.836,1.557-7.035.843-9.671-1.876L137.995,1388.3c1.011-5.149,6.448-10.778,9.671-11.058l15.059,14.667.387-1.058h1.732c9.994-8.612,14.008-14.427,18.858-18.8" transform="translate(-123.782 -1230.727)" fill="#6A2186"></path><path id="Path_1306" data-name="Path 1306" d="M1112.553,1392.781l-14.251-25.264c-8.473-13.027-17.269-.209-11.3,7.756l14.4,25.05c7.469,9.964,17.345,3.2,11.147-7.542" transform="translate(-973.285 -1221.66)" fill="#6A2186" fill-rule="evenodd"></path><path id="Path_1307" data-name="Path 1307" d="M1153.6,1644.047q11.655.594,23.326,1.18t23.341,1.18q-4.833,8.492-9.665,16.975t-9.665,16.971l-14.135-.269-14.124-.269q.229-8.939.459-17.882t.464-17.886" transform="translate(-1033.952 -1474.711)" fill-rule="evenodd" fill="url(#linear-gradient)"></path><path id="Path_1308" data-name="Path 1308" d="M1300.348,1614.084l4.644.235c.341-1.291.676-2.583,1.014-3.877.19-.729,1.559-1.263,3.037-1.187s2.484.739,2.25,1.466c-.412,1.281-.821,2.567-1.232,3.848l4.649.235c.791.04,1.308.411,1.148.823-.23.589-.458,1.179-.692,1.764q-4.191-.208-8.379-.411t-8.374-.407c.11-.6.225-1.2.341-1.8.081-.421.8-.729,1.593-.69m8.485-4.113c-.677-.035-1.3.209-1.4.547s.377.638,1.042.671,1.286-.207,1.386-.543-.354-.639-1.032-.674" transform="translate(-1163.213 -1444.496)" fill="#FFD100" fill-rule="evenodd"></path><path id="Path_1309" data-name="Path 1309" d="M1490.373,1795.1l-5.018-2.809c-2.4-1.341-4.412,2.521-1.949,3.641l5.018,2.809c2.409,1.3,4.227-2.216,1.949-3.641" transform="translate(-1329.609 -1607.436)" fill="#fdd4a9" fill-rule="evenodd"></path><path id="Path_1310" data-name="Path 1310" d="M1467.435,1827.7l-5.88-3.259c-2.611-1.447-4.633,2.411-1.959,3.636l5.88,3.259c2.6,1.443,4.446-2.108,1.959-3.637" transform="translate(-1308.127 -1636.24)" fill="#fdd4a9" fill-rule="evenodd"></path><path id="Path_1311" data-name="Path 1311" d="M1454.437,1864.207l-4.84-2.7a1.946,1.946,0,1,0-1.841,3.417l4.84,2.7c2.443,1.363,4.178-1.981,1.841-3.417" transform="translate(-1297.576 -1669.501)" fill="#fdd4a9" fill-rule="evenodd"></path><path id="Path_1312" data-name="Path 1312" d="M1449.664,1899.836l-3.815-2.152a1.636,1.636,0,1,0-1.548,2.873l3.815,2.152a1.635,1.635,0,1,0,1.548-2.873" transform="translate(-1294.647 -1701.992)" fill="#fdd4a9" fill-rule="evenodd"></path></g></g></g></g></g></g></svg> 