<?xml version="1.0" encoding="UTF-8"?> <svg xmlns="http://www.w3.org/2000/svg" xmlns:xlink="http://www.w3.org/1999/xlink" width="385.811" height="371.047" viewBox="0 0 385.811 371.047"><style> .gt { animation-name: tranx-1; animation-fill-mode: both; animation-duration: 4s; transform-origin: left; transform-box:fill-box ; animation-iteration-count: infinite; } @keyframes tranx-1 { 0% { transform:translateX(0px); } 50% { transform:translateX(-30px); } 100% { transform:translateX(0px); } } .gt2 { animation-name: tranx-2; animation-fill-mode: both; animation-duration: 2s; transform-origin: bottom; transform-box:fill-box ; animation-iteration-count: infinite; } @keyframes tranx-2 { 0% { transform:translateY(0px); } 50% { transform:translateY(-2px); } 100% { transform:translateY(0px); } } .g-1 { animation-name: tranfX; animation-fill-mode: both; animation-duration: 2.5s; transform-origin: left; transform-box:fill-box ; animation-iteration-count: infinite; } .g-2{ animation-delay: .2s; animation-name: tranfX; animation-fill-mode: both; transform-origin: left; transform-box:fill-box ; animation-duration: 2.5s; animation-iteration-count: infinite; } .g-3{ animation-delay: .4s; animation-name: tranfX; transform-origin: left; transform-box:fill-box ; animation-fill-mode: both; animation-duration: 2.5s; animation-iteration-count: infinite; } .g-4{ animation-delay: .6s; animation-name: tranfX; transform-origin: left; transform-box:fill-box ; animation-fill-mode: both; animation-duration: 2.5s; animation-iteration-count: infinite; } .g-5{ animation-delay: .8s; transform-origin: left; transform-box:fill-box ; animation-name: tranfX; animation-fill-mode: both; animation-duration: 2.5s; animation-iteration-count: infinite; } .g-6{ animation-delay: 1s; transform-origin: left; transform-box:fill-box ; animation-name: tranfX; animation-fill-mode: both; animation-duration: 2.5s; animation-iteration-count: infinite; } .g-7{ animation-delay: 1.2s; transform-origin: left; transform-box:fill-box ; animation-name: tranfX; animation-fill-mode: both; animation-duration: 2.5s; animation-iteration-count: infinite; } .g-8{ animation-delay: 1.4s; transform-origin: left; transform-box:fill-box ; animation-name: tranfX; animation-fill-mode: both; animation-duration: 2.5s; animation-iteration-count: infinite; } .g-9{ animation-delay: 1.6s; transform-origin: left; transform-box:fill-box ; animation-name: tranfX; animation-fill-mode: both; animation-duration: 2.5s; animation-iteration-count: infinite; } .g-10{ animation-delay: 1.8s; transform-origin: left; transform-box:fill-box ; animation-name: tranfX; animation-fill-mode: both; animation-duration: 2.5s; animation-iteration-count: infinite; } .g-11{ animation-delay: 2s; transform-origin: left; transform-box:fill-box ; animation-name: tranfX; animation-fill-mode: both; animation-duration: 2.5s; animation-iteration-count: infinite; } .g-12 { animation-delay: 2.2s; transform-origin: left; transform-box:fill-box ; animation-name: tranfX; animation-fill-mode: both; animation-duration: 2.5s; animation-iteration-count: infinite; } .g-13 { animation-delay: 2.4s; transform-origin: left; transform-box:fill-box ; animation-name: tranfX; animation-fill-mode: both; animation-duration: 2.5s; animation-iteration-count: infinite; } .g-14 { animation-delay: 2.6s; transform-origin: left; transform-box:fill-box ; animation-name: tranfX; animation-fill-mode: both; animation-duration: 2.5s; animation-iteration-count: infinite; } .g-15 { animation-delay: 2.8s; transform-origin: left; transform-box:fill-box ; animation-name: tranfX; animation-fill-mode: both; animation-duration: 2.5s; animation-iteration-count: infinite; } .g-16 { animation-delay: 3s; transform-origin: left; transform-box:fill-box ; animation-name: tranfX; animation-fill-mode: both; animation-duration: 2.5s; animation-iteration-count: infinite; } .g-17 { animation-delay: 3.2s; transform-origin: left; transform-box:fill-box ; animation-name: tranfX; animation-fill-mode: both; animation-duration: 2.5s; animation-iteration-count: infinite; } .g-18 { animation-delay: 3.4s; transform-origin: left; transform-box:fill-box ; animation-name: tranfX; animation-fill-mode: both; animation-duration: 2.5s; animation-iteration-count: infinite; } @keyframes tranfX { 0% { transform: scaleX(1); } 50% { transform: scaleX(.1); } 100% { transform: scaleX(1); } } .gn-1 { animation-name: tranfX-1 ; animation-fill-mode: both; animation-duration: 2.5s; transform-origin: bottom; transform-box:fill-box ; animation-iteration-count: infinite; } .gn-2{ animation-delay: .2s; animation-name: tranfX-1 ; animation-fill-mode: both; transform-origin: bottom; transform-box:fill-box ; animation-duration: 2.5s; animation-iteration-count: infinite; } .gn-3{ animation-delay: .4s; animation-name: tranfX-1 ; transform-origin: bottom; transform-box:fill-box ; animation-fill-mode: both; animation-duration: 2.5s; animation-iteration-count: infinite; } @keyframes tranfX-1 { 0% { transform: scaleY(1); } 50% { transform: scaleY(.1); } 100% { transform: scaleY(1); } } </style><defs><clipPath id="clip-path"><rect id="Rectangle_979" data-name="Rectangle 979" width="286.018" height="312.068" transform="translate(58)" fill="none"></rect></clipPath><clipPath id="clip-path-2"><rect id="Rectangle_978" data-name="Rectangle 978" width="344.018" height="358.688" fill="none"></rect></clipPath><clipPath id="clip-path-3"><rect id="Rectangle_917" data-name="Rectangle 917" width="122.871" height="44.577" fill="none"></rect></clipPath><linearGradient id="linear-gradient" x1="0.556" x2="0.953" y2="0.629" gradientUnits="objectBoundingBox"><stop offset="0" stop-color="#6A2186"></stop><stop offset="1" stop-color="#8b1223"></stop></linearGradient><clipPath id="clip-path-4"><rect id="Rectangle_947" data-name="Rectangle 947" width="103.085" height="88.397" fill="none"></rect></clipPath><linearGradient id="linear-gradient-2" x1="0.351" y1="0.031" x2="0.96" y2="0.952" gradientUnits="objectBoundingBox"><stop offset="0" stop-color="#c48284"></stop><stop offset="1" stop-color="#6A2186"></stop></linearGradient><clipPath id="clip-path-5"><rect id="Rectangle_977" data-name="Rectangle 977" width="123.89" height="43.982" fill="none"></rect></clipPath><linearGradient id="linear-gradient-3" x1="0.083" y1="0.276" x2="0.855" y2="0.797" gradientUnits="objectBoundingBox"><stop offset="0" stop-color="#d82a2e"></stop><stop offset="1" stop-color="#6A2186"></stop></linearGradient><linearGradient id="linear-gradient-4" x1="0.123" y1="0.081" x2="0.827" y2="0.891" gradientUnits="objectBoundingBox"><stop offset="0" stop-color="#8b1223"></stop><stop offset="1" stop-color="#6A2186"></stop></linearGradient><clipPath id="clip-path-6"><rect id="Rectangle_1130" data-name="Rectangle 1130" width="140.965" height="371.047" transform="translate(0 0)" fill="#fff" stroke="#707070" stroke-width="1"></rect></clipPath><clipPath id="clip-path-7"><rect id="Rectangle_959" data-name="Rectangle 959" width="183.946" height="387.892" fill="none"></rect></clipPath><clipPath id="clip-path-8"><rect id="Rectangle_909" data-name="Rectangle 909" width="183.947" height="387.891" fill="none"></rect></clipPath><clipPath id="clip-path-9"><rect id="Rectangle_896" data-name="Rectangle 896" width="1.816" height="3.302" fill="none"></rect></clipPath><clipPath id="clip-path-11"><rect id="Rectangle_898" data-name="Rectangle 898" width="4.803" height="3.263" fill="none"></rect></clipPath><clipPath id="clip-path-12"><rect id="Rectangle_899" data-name="Rectangle 899" width="2.872" height="3.501" fill="none"></rect></clipPath><clipPath id="clip-path-13"><rect id="Rectangle_900" data-name="Rectangle 900" width="11.86" height="4.486" fill="none"></rect></clipPath><clipPath id="clip-path-19"><rect id="Rectangle_906" data-name="Rectangle 906" width="15.493" height="6.867" fill="none"></rect></clipPath><clipPath id="clip-path-20"><rect id="Rectangle_907" data-name="Rectangle 907" width="15.147" height="85.428" fill="none"></rect></clipPath><clipPath id="clip-path-22"><path id="Path_6412" data-name="Path 6412" d="M370.442,615.673c-43.53,4.283-56.405,45.769-36.093,127.837,1.664-5.045,3.78-11.921,7.177-16.106-3.941-30.157-5.682-56.117,4.172-67.509,8.467,3.189,44.137,3.189,52.6,0,9.853,11.392,8.08,37.6,4.139,67.76,3.048,4.125,5.345,10.81,7.009,15.855,20.312-82.068,7.639-123.554-35.892-127.837Z" transform="translate(-324.95 -615.673)" fill="none"></path></clipPath><clipPath id="clip-path-23"><rect id="Rectangle_929" data-name="Rectangle 929" width="180.076" height="175.95" fill="none"></rect></clipPath><clipPath id="clip-path-24"><rect id="Rectangle_957" data-name="Rectangle 957" width="175.949" height="180.075" fill="none"></rect></clipPath></defs><g id="تصميم_و_تطوير_التطبيقات_الالكترونية_2" data-name="تصميم و تطوير التطبيقات الالكترونية 2" transform="translate(-56.026 -236.574)"><g id="Group_1875" data-name="Group 1875" transform="translate(-1.974 295.553)"><g id="Group_1874" data-name="Group 1874" clip-path="url(#clip-path)"><g id="Group_1873" data-name="Group 1873"><g id="Group_1872" data-name="Group 1872" clip-path="url(#clip-path-2)"><path id="Path_1496" data-name="Path 1496" d="M107.911,15.44A16.675,16.675,0,0,0,91.361,32.2V281.527a16.675,16.675,0,0,0,16.55,16.756H208.251A16.675,16.675,0,0,0,224.8,281.527V32.2a16.676,16.676,0,0,0-16.552-16.76Z" transform="translate(10.304 1.741)" fill="#fff"></path><path id="Path_1497" data-name="Path 1497" d="M208.251,15.44H107.911A16.675,16.675,0,0,0,91.361,32.2V42.555H224.8V32.2a16.676,16.676,0,0,0-16.552-16.76" transform="translate(10.304 1.741)" fill="#ffe3de"></path><path id="Path_1498" data-name="Path 1498" d="M227.867,29.766c0-12.91-7.855-17.542-17.55-17.542h-103.9c-9.7,0-17.552,5.624-17.552,17.542v254.92c0,9.689,4.028,17.54,17.552,17.54h103.9c12.481,0,17.55-7.851,17.55-17.54Zm-4.658,252.718c0,7.6-5.172,13.763-12.776,13.763H107.276c-8.6,0-13.768-4.856-13.768-13.763V31.5c0-6.66,4.858-13.3,13.768-13.3H209.452c8.778,0,13.757,4.957,13.757,12.56Z" transform="translate(10.022 1.379)" fill="#6A2186"></path><path id="Path_1499" data-name="Path 1499" d="M152.893,20.955a3.683,3.683,0,1,1-3.671,3.694,3.677,3.677,0,0,1,3.671-3.694" transform="translate(17.354 2.417)" fill="#fff"></path><g id="Group_1865" data-name="Group 1865" transform="translate(141.955 133.469)" opacity="0.2" style="mix-blend-mode: multiply;isolation: isolate"><g id="Group_1864" data-name="Group 1864"><g id="Group_1863" data-name="Group 1863" clip-path="url(#clip-path-3)"><path id="Path_1500" data-name="Path 1500" d="M234.177,119.942H143.831a16.263,16.263,0,1,0,0,32.525h64.043l-1.205,12.051,8.384-12.051h19.124a16.263,16.263,0,0,0,0-32.525" transform="translate(-127.568 -119.942)" fill="#0e1f47"></path><path id="Path_1501" data-name="Path 1501" d="M153.368,135.519a9.5,9.5,0,1,1-9.5-9.5,9.494,9.494,0,0,1,9.5,9.5" transform="translate(-126.8 -119.256)" fill="#0e1f47"></path><path id="Path_1502" data-name="Path 1502" d="M194.49,130.143H157.754a.623.623,0,0,1,0-1.245H194.49a.623.623,0,0,1,0,1.245" transform="translate(-124.234 -118.932)" fill="#0e1f47"></path><path id="Path_1503" data-name="Path 1503" d="M235.068,135.242H157.754a.623.623,0,0,1,0-1.245h77.314a.623.623,0,1,1,0,1.245" transform="translate(-124.234 -118.357)" fill="#0e1f47"></path><path id="Path_1504" data-name="Path 1504" d="M235.068,140.372H157.754a.623.623,0,0,1,0-1.245h77.314a.623.623,0,1,1,0,1.245" transform="translate(-124.234 -117.778)" fill="#0e1f47"></path><circle id="Ellipse_6" data-name="Ellipse 6" cx="6.297" cy="6.297" r="6.297" transform="translate(9.497 20.945) rotate(-76.717)" fill="none" stroke="#0e1f47" stroke-miterlimit="10" stroke-width="1"></circle></g></g></g><path id="Path_1505" data-name="Path 1505" d="M230.177,115.942H139.831a16.263,16.263,0,1,0,0,32.525h64.043l-1.205,12.051,8.384-12.051h19.124a16.263,16.263,0,0,0,0-32.525" transform="translate(13.936 13.076)" fill="url(#linear-gradient)"></path><path id="Path_1506" data-name="Path 1506" d="M149.368,131.519a9.5,9.5,0,1,1-9.5-9.5,9.494,9.494,0,0,1,9.5,9.5" transform="translate(14.704 13.762)" fill="#fff"></path><g class="gn-1"><path id="Path_1507" data-name="Path 1507" d="M190.49,126.143H153.754a.623.623,0,0,1,0-1.245H190.49a.623.623,0,0,1,0,1.245" transform="translate(17.27 14.086)" fill="#fff"></path></g><g class="gn-2"><path id="Path_1508" data-name="Path 1508" d="M231.068,131.242H153.754a.623.623,0,0,1,0-1.245h77.314a.623.623,0,1,1,0,1.245" transform="translate(17.27 14.661)" fill="#fff"></path></g><g class="gn-3"><path id="Path_1509" data-name="Path 1509" d="M231.068,136.372H153.754a.623.623,0,0,1,0-1.245h77.314a.623.623,0,1,1,0,1.245" transform="translate(17.27 15.24)" fill="#fff"></path></g><circle id="Ellipse_7" data-name="Ellipse 7" cx="6.297" cy="6.297" r="6.297" transform="translate(147.001 149.963) rotate(-76.717)" fill="none" stroke="#214881" stroke-miterlimit="10" stroke-width="1"></circle><path id="Path_1510" data-name="Path 1510" d="M132.438,100.06a25.78,25.78,0,1,1,25.78-25.781,25.811,25.811,0,0,1-25.78,25.781m0-49.335a23.555,23.555,0,1,0,23.554,23.554,23.582,23.582,0,0,0-23.554-23.554" transform="translate(12.029 5.47)" fill="#d82a2e"></path><path id="Path_1511" data-name="Path 1511" d="M135.868,66.154a5.488,5.488,0,1,1-5.488-5.488,5.489,5.489,0,0,1,5.488,5.488" transform="translate(14.085 6.842)" fill="#f56617"></path><path id="Path_1512" data-name="Path 1512" d="M138.284,82.287a7.681,7.681,0,1,0-15.36,0Z" transform="translate(13.863 8.402)" fill="#f56617"></path><g id="Group_1868" data-name="Group 1868" transform="translate(194.66 4.451)" opacity="0.2" style="mix-blend-mode: multiply;isolation: isolate"><g id="Group_1867" data-name="Group 1867"><g id="Group_1866" data-name="Group 1866" clip-path="url(#clip-path-4)"><rect id="Rectangle_918" data-name="Rectangle 918" width="94.926" height="80.236" rx="3" transform="translate(1.112 7.048)" fill="none" stroke="#6A2186" stroke-linecap="round" stroke-miterlimit="10" stroke-width="2"></rect><rect id="Rectangle_919" data-name="Rectangle 919" width="94.926" height="80.236" rx="3" transform="translate(8.159 0)" fill="#6A2186"></rect><rect id="Rectangle_920" data-name="Rectangle 920" width="5.658" height="1.18" transform="translate(16.771 8.77)" fill="#0e1f47"></rect><rect id="Rectangle_921" data-name="Rectangle 921" width="5.658" height="1.18" transform="translate(16.771 12.243)" fill="#0e1f47"></rect><rect id="Rectangle_922" data-name="Rectangle 922" width="5.658" height="1.18" transform="translate(16.771 15.403)" fill="#0e1f47"></rect><rect id="Rectangle_923" data-name="Rectangle 923" width="35.272" height="1.18" transform="translate(28.746 8.77)" fill="#0e1f47"></rect><rect id="Rectangle_924" data-name="Rectangle 924" width="65.139" height="1.18" transform="translate(28.746 12.243)" fill="#0e1f47"></rect><rect id="Rectangle_925" data-name="Rectangle 925" width="65.139" height="1.18" transform="translate(28.746 15.403)" fill="#0e1f47"></rect><rect id="Rectangle_926" data-name="Rectangle 926" width="65.139" height="1.18" transform="translate(28.746 18.789)" fill="#0e1f47"></rect><rect id="Rectangle_927" data-name="Rectangle 927" width="56.812" height="1.18" transform="translate(28.745 21.946)" fill="#0e1f47"></rect><rect id="Rectangle_928" data-name="Rectangle 928" width="5.66" height="1.18" transform="translate(16.736 29.505)" fill="#0e1f47"></rect><rect id="Rectangle_929-2" data-name="Rectangle 929" width="5.66" height="1.178" transform="translate(16.736 32.982)" fill="#0e1f47"></rect><rect id="Rectangle_930" data-name="Rectangle 930" width="47.383" height="1.18" transform="translate(28.713 29.505)" fill="#0e1f47"></rect><rect id="Rectangle_931" data-name="Rectangle 931" width="65.138" height="1.178" transform="translate(28.714 32.982)" fill="#0e1f47"></rect><rect id="Rectangle_932" data-name="Rectangle 932" width="65.138" height="1.178" transform="translate(28.714 36.14)" fill="#0e1f47"></rect><rect id="Rectangle_933" data-name="Rectangle 933" width="51.574" height="1.18" transform="translate(28.713 39.524)" fill="#0e1f47"></rect><rect id="Rectangle_934" data-name="Rectangle 934" width="12.096" height="1.18" transform="translate(81.822 39.524)" fill="#0e1f47"></rect><rect id="Rectangle_935" data-name="Rectangle 935" width="65.138" height="1.18" transform="translate(28.78 49.246)" fill="#0e1f47"></rect><rect id="Rectangle_936" data-name="Rectangle 936" width="65.138" height="1.18" transform="translate(28.78 46.088)" fill="#0e1f47"></rect><rect id="Rectangle_937" data-name="Rectangle 937" width="51.719" height="1.18" transform="translate(42.199 42.703)" fill="#0e1f47"></rect><rect id="Rectangle_938" data-name="Rectangle 938" width="12.096" height="1.18" transform="translate(28.713 42.703)" fill="#0e1f47"></rect><rect id="Rectangle_939" data-name="Rectangle 939" width="5.658" height="1.18" transform="translate(16.771 56.609)" fill="#0e1f47"></rect><rect id="Rectangle_940" data-name="Rectangle 940" width="5.658" height="1.18" transform="translate(16.771 60.085)" fill="#0e1f47"></rect><rect id="Rectangle_941" data-name="Rectangle 941" width="5.658" height="1.18" transform="translate(16.771 63.243)" fill="#0e1f47"></rect><rect id="Rectangle_942" data-name="Rectangle 942" width="25.212" height="1.18" transform="translate(28.746 56.609)" fill="#0e1f47"></rect><rect id="Rectangle_943" data-name="Rectangle 943" width="65.139" height="1.18" transform="translate(28.746 60.085)" fill="#0e1f47"></rect><rect id="Rectangle_944" data-name="Rectangle 944" width="65.139" height="1.18" transform="translate(28.746 63.243)" fill="#0e1f47"></rect><rect id="Rectangle_945" data-name="Rectangle 945" width="65.139" height="1.18" transform="translate(28.746 66.628)" fill="#0e1f47"></rect><rect id="Rectangle_946" data-name="Rectangle 946" width="37.034" height="1.18" transform="translate(28.746 69.787)" fill="#0e1f47"></rect></g></g></g><rect id="Rectangle_948" data-name="Rectangle 948" width="94.926" height="80.236" rx="3" transform="translate(191.321 7.048)" fill="none" stroke="#6A2186" stroke-linecap="round" stroke-miterlimit="10" stroke-width="2"></rect><path id="Path_1537" data-name="Path 1537" d="M1.562,0h91.8a1.562,1.562,0,0,1,1.562,1.562V78.674a1.562,1.562,0,0,1-1.562,1.562H1.562A1.562,1.562,0,0,1,0,78.674V1.562A1.562,1.562,0,0,1,1.562,0Z" transform="translate(198.368 0)" fill="url(#linear-gradient-2)"></path><rect id="Rectangle_950" data-name="Rectangle 950" width="5.658" height="1.18" transform="translate(206.979 8.77)" fill="#dfecf4"></rect><rect id="Rectangle_951" data-name="Rectangle 951" width="5.658" height="1.18" transform="translate(206.979 12.243)" fill="#fffcfc"></rect><rect id="Rectangle_952" data-name="Rectangle 952" width="5.658" height="1.18" transform="translate(206.979 15.403)" fill="#ffc2a1"></rect><g class="g-1"><rect id="Rectangle_953" data-name="Rectangle 953" width="35.272" height="1.18" transform="translate(218.955 8.77)" fill="#ffc2a1"></rect></g><g class="g-2"><rect id="Rectangle_954" data-name="Rectangle 954" width="65.139" height="1.18" transform="translate(218.955 12.243)" fill="#cf142e"></rect></g><g class="g-3"><rect id="Rectangle_955" data-name="Rectangle 955" width="65.139" height="1.18" transform="translate(218.955 15.403)" fill="#d2e2f2"></rect></g><g class="g-4"><rect id="Rectangle_956" data-name="Rectangle 956" width="65.139" height="1.18" transform="translate(218.955 18.789)" fill="#ffc2a1"></rect></g><g class="g-5"><rect id="Rectangle_957-2" data-name="Rectangle 957" width="56.812" height="1.18" transform="translate(218.954 21.946)" fill="#fffcfc"></rect></g><rect id="Rectangle_958-2" data-name="Rectangle 958" width="5.66" height="1.18" transform="translate(206.945 29.505)" fill="#cf142e"></rect><rect id="Rectangle_959-2" data-name="Rectangle 959" width="5.66" height="1.178" transform="translate(206.945 32.982)" fill="#fffcfc"></rect><g class="g-6"><rect id="Rectangle_960" data-name="Rectangle 960" width="47.383" height="1.18" transform="translate(218.922 29.505)" fill="#ffc2a1"></rect></g><g class="g-7"><rect id="Rectangle_961" data-name="Rectangle 961" width="65.138" height="1.178" transform="translate(218.922 32.982)" fill="#cf142e"></rect></g><g class="g-8"><rect id="Rectangle_962" data-name="Rectangle 962" width="65.138" height="1.178" transform="translate(218.922 36.14)" fill="#d2e2f2"></rect></g><g class="g-9"><rect id="Rectangle_963" data-name="Rectangle 963" width="51.574" height="1.18" transform="translate(218.922 39.524)" fill="#ffc2a1"></rect></g><g class="g-10"><rect id="Rectangle_964" data-name="Rectangle 964" width="12.096" height="1.18" transform="translate(272.03 39.524)" fill="#f56617"></rect></g><g class="g-11"><rect id="Rectangle_965" data-name="Rectangle 965" width="65.138" height="1.18" transform="translate(218.989 49.246)" fill="#fffcfc"></rect></g><g class="g-12"><rect id="Rectangle_966" data-name="Rectangle 966" width="65.138" height="1.18" transform="translate(218.989 46.088)" fill="#dfecf4"></rect></g><rect id="Rectangle_967" data-name="Rectangle 967" width="51.719" height="1.18" transform="translate(232.408 42.703)" fill="#d94632"></rect><rect id="Rectangle_968" data-name="Rectangle 968" width="12.096" height="1.18" transform="translate(218.922 42.703)" fill="#ffc2a1"></rect><rect id="Rectangle_969" data-name="Rectangle 969" width="5.658" height="1.18" transform="translate(206.979 56.609)" fill="#fffcfc"></rect><rect id="Rectangle_970" data-name="Rectangle 970" width="5.658" height="1.18" transform="translate(206.979 60.085)" fill="#d2e2f2"></rect><rect id="Rectangle_971" data-name="Rectangle 971" width="5.658" height="1.18" transform="translate(206.979 63.243)" fill="#ffc2a1"></rect><g class="g-13"><rect id="Rectangle_972" data-name="Rectangle 972" width="25.212" height="1.18" transform="translate(218.955 56.609)" fill="#fffcfc"></rect></g><g class="g-14"><rect id="Rectangle_973" data-name="Rectangle 973" width="65.139" height="1.18" transform="translate(218.955 60.085)" fill="#cf142e"></rect></g><g class="g-15"><rect id="Rectangle_974" data-name="Rectangle 974" width="65.139" height="1.18" transform="translate(218.955 63.243)" fill="#d2e2f2"></rect></g><g class="g-16"><rect id="Rectangle_975" data-name="Rectangle 975" width="65.139" height="1.18" transform="translate(218.955 66.628)" fill="#ffc2a1"></rect></g><g class="g-16"><rect id="Rectangle_976" data-name="Rectangle 976" width="37.034" height="1.18" transform="translate(218.955 69.787)" fill="#fffcfc"></rect></g><g id="Group_1871" data-name="Group 1871" transform="translate(79.732 197.399)" opacity="0.2" style="mix-blend-mode: multiply;isolation: isolate"><g id="Group_1870" data-name="Group 1870"><g id="Group_1869" data-name="Group 1869" clip-path="url(#clip-path-5)"><path id="Path_1517" data-name="Path 1517" d="M179.144,177.393h-91.1a16.4,16.4,0,1,0,0,32.794h6.236l7.783,11.188-1.118-11.188h78.2a16.4,16.4,0,1,0,0-32.794" transform="translate(-71.651 -177.393)" fill="#0e1f47"></path><path id="Path_1518" data-name="Path 1518" d="M97.666,193.1a9.574,9.574,0,1,1-9.574-9.574,9.575,9.575,0,0,1,9.574,9.574" transform="translate(-70.877 -176.701)" fill="#0e1f47"></path><path id="Path_1519" data-name="Path 1519" d="M139.129,187.677H102.088a.628.628,0,1,1,0-1.255h37.041a.628.628,0,1,1,0,1.255" transform="translate(-68.29 -176.374)" fill="#0e1f47"></path><path id="Path_1520" data-name="Path 1520" d="M180.042,192.818H102.088a.628.628,0,1,1,0-1.255h77.955a.628.628,0,0,1,0,1.255" transform="translate(-68.289 -175.794)" fill="#0e1f47"></path><path id="Path_1521" data-name="Path 1521" d="M180.042,197.991H102.088a.628.628,0,0,1,0-1.256h77.955a.628.628,0,0,1,0,1.256" transform="translate(-68.289 -175.211)" fill="#0e1f47"></path><path id="Path_1522" data-name="Path 1522" d="M94.323,192.79a6.539,6.539,0,1,1-6.54-6.539A6.54,6.54,0,0,1,94.323,192.79Z" transform="translate(-70.569 -176.394)" fill="none" stroke="#0e1f47" stroke-miterlimit="10" stroke-width="1"></path></g></g></g><path id="Path_1523" data-name="Path 1523" d="M175.145,173.393h-91.1a16.4,16.4,0,1,0,0,32.794h6.236l7.783,11.188-1.118-11.188h78.2a16.4,16.4,0,0,0,0-32.794" transform="translate(7.63 19.555)" fill="url(#linear-gradient-3)"></path><path id="Path_1524" data-name="Path 1524" d="M93.666,189.1a9.574,9.574,0,1,1-9.574-9.574,9.575,9.575,0,0,1,9.574,9.574" transform="translate(8.404 20.247)" fill="#fff"></path><g class="gn-1"><path id="Path_1525" data-name="Path 1525" d="M135.129,183.677H98.088a.628.628,0,1,1,0-1.255h37.041a.628.628,0,0,1,0,1.255" transform="translate(10.991 20.574)" fill="#fff"></path></g><g class="gn-2"><path id="Path_1526" data-name="Path 1526" d="M176.042,188.818H98.088a.628.628,0,1,1,0-1.255h77.955a.628.628,0,0,1,0,1.255" transform="translate(10.992 21.153)" fill="#fff"></path></g><g class="gn-3"><path id="Path_1527" data-name="Path 1527" d="M176.042,193.991H98.088a.628.628,0,0,1,0-1.256h77.955a.628.628,0,0,1,0,1.256" transform="translate(10.992 21.737)" fill="#fff"></path></g><path id="Path_1528" data-name="Path 1528" d="M90.323,188.79a6.539,6.539,0,1,1-6.54-6.539A6.54,6.54,0,0,1,90.323,188.79Z" transform="translate(8.712 20.554)" fill="none" stroke="#214881" stroke-miterlimit="10" stroke-width="1"></path><g id="Group_6521" data-name="Group 6521" transform="translate(272.03 103.215)"><path id="Path_1529" data-name="Path 1529" d="M282.271,140.8a19.454,19.454,0,1,1,19.453-19.454A19.477,19.477,0,0,1,282.271,140.8" transform="translate(-262.816 -101.897)" fill="url(#linear-gradient-4)"></path><path id="Path_1530" data-name="Path 1530" d="M286,117.411a5.421,5.421,0,1,0-.7,8.252l5.411,5.411a.91.91,0,1,0,1.287-1.287l-5.411-5.411a5.425,5.425,0,0,0-.585-6.965m-1.287,6.38a3.6,3.6,0,1,1,0-5.092,3.6,3.6,0,0,1,0,5.092" transform="translate(-265.049 -104.13)" fill="#fff"></path></g><path id="Path_1531" data-name="Path 1531" d="M186.482,221.2a4.984,4.984,0,0,0-2.86.9,5.009,5.009,0,0,0-8.107-3.152,5.021,5.021,0,0,0-4.651-3.143,4.97,4.97,0,0,0-2.782.852V199.474a5.012,5.012,0,1,0-10.024,0v27.2c0,.017-.01.031-.01.049v.12l-1.484-2.823a5.012,5.012,0,1,0-8.888,4.637L159.74,251.6c.161.324.324.643.485.921l.116.22a3.8,3.8,0,0,0,.29.453,16.716,16.716,0,0,0,30.772-7.382,5.184,5.184,0,0,0,.091-.93V226.218a5.019,5.019,0,0,0-5.013-5.013m-2.8,5.079c0-.023.013-.042.013-.066a2.787,2.787,0,1,1,5.574,0v18.661a3.781,3.781,0,0,1-.069.631,14.494,14.494,0,0,1-26.708,6.462l-.083-.12a1.488,1.488,0,0,1-.1-.145l-.138-.262c-.157-.273-.3-.553-.452-.86l-12.077-22.963a2.787,2.787,0,1,1,4.945-2.572l3.456,6.572v3.872a1.113,1.113,0,0,0,2.226,0v-4.071c0-.02.01-.038.01-.058V199.474a2.786,2.786,0,1,1,5.573,0v20.264c0,.033-.019.062-.019.1v8.775a1.113,1.113,0,1,0,2.226,0v-7.741c0-.032.019-.059.019-.09a2.784,2.784,0,0,1,5.568.041l0,2.027c0,.026.013.046.014.07v5.553a1.113,1.113,0,0,0,2.226,0v-5.764a2.781,2.781,0,0,1,5.559.146l.01,1.837c0,.009-.006.017-.006.026v5.007a1.112,1.112,0,0,0,1.113,1.113" transform="translate(16.888 25.767)" fill="#9c9c9c"></path></g></g></g></g><g class="gt"><g id="Mask_Group_6261" data-name="Mask Group 6261" transform="translate(300.871 236.574)" clip-path="url(#clip-path-6)"><g id="Group_6509" data-name="Group 6509" transform="translate(-23.181 -19.564)"><g id="Group_6222" data-name="Group 6222" clip-path="url(#clip-path-7)"><g id="Group_6211" data-name="Group 6211" transform="translate(0 0)"><g id="Group_6210" data-name="Group 6210" clip-path="url(#clip-path-8)"><path id="Path_6353" data-name="Path 6353" d="M419.184,677.072l-39.595,53.866,7.048,63.746h32.547Z" transform="translate(-332.203 -592.549)" fill="#FFD100"></path><path id="Path_6354" data-name="Path 6354" d="M699.452,677.072l39.6,53.866L732,794.684H699.452Z" transform="translate(-612.136 -592.549)" fill="#FFD100"></path><path id="Path_6355" data-name="Path 6355" d="M384.5,2919.919c0,6.887-23.578,12.469-52.662,12.469s-52.662-5.582-52.662-12.469,23.578-12.469,52.662-12.469,52.662,5.583,52.662,12.469" transform="translate(-244.325 -2544.497)" fill="#fff1e8"></path><path id="Path_6356" data-name="Path 6356" d="M524.535,2640.713l3.585-34.611-15.981-2.444,1.578,37.055a3.8,3.8,0,0,1-.659,2.138l-1.781,2.612h15.7l-1.781-2.612a3.8,3.8,0,0,1-.66-2.138" transform="translate(-447.451 -2278.629)" fill="#fbd3a8"></path><path id="Path_6357" data-name="Path 6357" d="M487.9,2921.183v3.749c.834,2.176,21.21,2.257,21.536,0v-3.468a6.821,6.821,0,0,0-.333-2.124c-3.547-10.824-18.646-9.141-21,.182a6.773,6.773,0,0,0-.2,1.661" transform="translate(-426.993 -2548.357)" fill="#232323"></path><path id="Path_6358" data-name="Path 6358" d="M503.141,2954.969c2.407-5.383,15.434-5.4,17.642-.037a.616.616,0,0,1-.394.826c-4.313,1.289-13.649,1.216-16.9.045a.615.615,0,0,1-.345-.835" transform="translate(-440.283 -2582.543)" fill="#ffd9a4"></path><path id="Path_6359" data-name="Path 6359" d="M594.357,2980.608l.652-2.109a.314.314,0,0,1,.593,0l.523,1.993Z" transform="translate(-520.16 -2606.493)" fill="#232323"></path><path id="Path_6360" data-name="Path 6360" d="M492.77,2939.689c-.854,1.081-1.139,3.2,0,4.125-2.055-.159-3.9-.463-4.856-1.377l-.014-3.749a8.817,8.817,0,0,1,3.681-6.826,2.539,2.539,0,0,0,1.8,3.386,5.308,5.308,0,0,0-3.7,3.163c-.021.992,1.375,1.221,3.091,1.278" transform="translate(-426.993 -2565.863)" fill="#3b3b3b"></path><g id="Group_6173" data-name="Group 6173" transform="translate(62.872 370.293)" opacity="0.35"><g id="Group_6172" data-name="Group 6172"><g id="Group_6171" data-name="Group 6171" clip-path="url(#clip-path-9)"><path id="Path_6361" data-name="Path 6361" d="M505.457,2966.246c-.822,1.092-.837,2.861-.265,3.3-.794-.106-1.425-.3-1.551-.761a4.452,4.452,0,0,1,1.816-2.541" transform="translate(-503.641 -2966.246)" fill="#f8a364"></path></g></g></g><g id="Group_6176" data-name="Group 6176" transform="translate(78.854 370.171)" opacity="0.35"><g id="Group_6175" data-name="Group 6175"><g id="Group_6174" data-name="Group 6174" clip-path="url(#clip-path-9)"><path id="Path_6362" data-name="Path 6362" d="M631.661,2965.27c.822,1.091.837,2.861.265,3.3.794-.106,1.426-.3,1.551-.761a4.451,4.451,0,0,0-1.816-2.54" transform="translate(-631.661 -2965.27)" fill="#f8a364"></path></g></g></g><g id="Group_6179" data-name="Group 6179" transform="translate(75.064 365.621)" opacity="0.2"><g id="Group_6178" data-name="Group 6178"><g id="Group_6177" data-name="Group 6177" clip-path="url(#clip-path-11)"><path id="Path_6363" data-name="Path 6363" d="M604.134,2929.765c1.3.816,2.169,1.787,1.93,2.167s-1.489.028-2.794-.788-2.168-1.787-1.93-2.168,1.489-.028,2.793.789" transform="translate(-601.301 -2928.823)" fill="#fff"></path></g></g></g><g id="Group_6182" data-name="Group 6182" transform="translate(78.89 372.787)" opacity="0.2"><g id="Group_6181" data-name="Group 6181"><g id="Group_6180" data-name="Group 6180" clip-path="url(#clip-path-12)"><path id="Path_6364" data-name="Path 6364" d="M634.578,2986.268a.044.044,0,0,1,.087,0l.157,2.749a.4.4,0,0,1-.366.4l-2.452.309a.048.048,0,0,1-.021-.093l1.99-.641a.4.4,0,0,0,.287-.311Z" transform="translate(-631.95 -2986.23)" fill="#fff"></path></g></g></g><g id="Group_6185" data-name="Group 6185" transform="translate(65.996 355.741)" opacity="0.35"><g id="Group_6184" data-name="Group 6184"><g id="Group_6183" data-name="Group 6183" clip-path="url(#clip-path-13)"><path id="Path_6365" data-name="Path 6365" d="M540.03,2853.333c-3.395,1.265-8.944,1.017-11.222-.223l-.146-3.427,11.86.16Z" transform="translate(-528.662 -2849.683)" fill="#f8a364"></path></g></g></g><path id="Path_6366" data-name="Path 6366" d="M745.987,2640.713,742.4,2606.1l15.982-2.444-1.578,37.055a3.8,3.8,0,0,0,.659,2.138l1.781,2.612h-15.7l1.781-2.612a3.8,3.8,0,0,0,.66-2.138" transform="translate(-649.724 -2278.629)" fill="#fbd3a8"></path><path id="Path_6367" data-name="Path 6367" d="M749.73,2921.183v3.749c-.834,2.176-21.21,2.257-21.536,0v-3.468a6.823,6.823,0,0,1,.333-2.124c3.547-10.824,18.646-9.141,21,.182a6.781,6.781,0,0,1,.2,1.661" transform="translate(-637.29 -2548.357)" fill="#232323"></path><path id="Path_6368" data-name="Path 6368" d="M761.069,2954.969c-2.407-5.383-15.434-5.4-17.642-.037a.616.616,0,0,0,.394.826c4.313,1.289,13.649,1.216,16.9.045a.615.615,0,0,0,.345-.835" transform="translate(-650.58 -2582.543)" fill="#ffd9a4"></path><path id="Path_6369" data-name="Path 6369" d="M781.855,2980.608l-.652-2.109a.313.313,0,0,0-.593,0l-.523,1.993Z" transform="translate(-682.704 -2606.493)" fill="#232323"></path><path id="Path_6370" data-name="Path 6370" d="M857.416,2939.689c.854,1.081,1.139,3.2,0,4.125,2.055-.159,3.9-.463,4.856-1.377l.014-3.749a8.817,8.817,0,0,0-3.681-6.826,2.539,2.539,0,0,1-1.8,3.386,5.309,5.309,0,0,1,3.7,3.163c.021.992-1.375,1.221-3.091,1.278" transform="translate(-749.846 -2565.863)" fill="#3b3b3b"></path><g id="Group_6188" data-name="Group 6188" transform="translate(108.66 370.293)" opacity="0.35"><g id="Group_6187" data-name="Group 6187"><g id="Group_6186" data-name="Group 6186" clip-path="url(#clip-path-9)"><path id="Path_6371" data-name="Path 6371" d="M870.422,2966.246c.822,1.092.837,2.861.265,3.3.794-.106,1.425-.3,1.551-.761a4.453,4.453,0,0,0-1.816-2.541" transform="translate(-870.422 -2966.246)" fill="#f8a364"></path></g></g></g><g id="Group_6191" data-name="Group 6191" transform="translate(92.678 370.171)" opacity="0.35"><g id="Group_6190" data-name="Group 6190"><g id="Group_6189" data-name="Group 6189" clip-path="url(#clip-path-9)"><path id="Path_6372" data-name="Path 6372" d="M744.218,2965.27c-.822,1.091-.837,2.861-.265,3.3-.794-.106-1.426-.3-1.551-.761a4.452,4.452,0,0,1,1.816-2.54" transform="translate(-742.402 -2965.27)" fill="#f8a364"></path></g></g></g><g id="Group_6194" data-name="Group 6194" transform="translate(93.481 365.621)" opacity="0.2"><g id="Group_6193" data-name="Group 6193"><g id="Group_6192" data-name="Group 6192" clip-path="url(#clip-path-11)"><path id="Path_6373" data-name="Path 6373" d="M750.8,2929.765c-1.3.816-2.168,1.787-1.93,2.167s1.489.028,2.793-.788,2.169-1.787,1.93-2.168-1.489-.028-2.794.789" transform="translate(-748.835 -2928.823)" fill="#fff"></path></g></g></g><g id="Group_6197" data-name="Group 6197" transform="translate(91.586 372.787)" opacity="0.2"><g id="Group_6196" data-name="Group 6196"><g id="Group_6195" data-name="Group 6195" clip-path="url(#clip-path-12)"><path id="Path_6374" data-name="Path 6374" d="M733.895,2986.268a.044.044,0,0,0-.087,0l-.157,2.749a.4.4,0,0,0,.366.4l2.452.309a.048.048,0,0,0,.021-.093L734.5,2989a.4.4,0,0,1-.287-.311Z" transform="translate(-733.651 -2986.23)" fill="#fff"></path></g></g></g><g id="Group_6200" data-name="Group 6200" transform="translate(95.492 355.741)" opacity="0.35"><g id="Group_6199" data-name="Group 6199"><g id="Group_6198" data-name="Group 6198" clip-path="url(#clip-path-13)"><path id="Path_6375" data-name="Path 6375" d="M765.432,2853.333c3.395,1.265,8.944,1.017,11.222-.223l.146-3.427-11.86.16Z" transform="translate(-764.94 -2849.683)" fill="#f8a364"></path></g></g></g><path id="Path_6376" data-name="Path 6376" d="M499.866,2263.965c-11.295,8.989-60.027,8.989-66.883,0l3.162-88.041,60.784-.478Z" transform="translate(-378.931 -1903.873)" fill="#f9f9f9"></path><path id="Path_6377" data-name="Path 6377" d="M784.752,999.918,808.3,981.5l9.715,1.951c.9,7.72-.387,16.707-2.776,26.329-8.27,16.878-15.787,19.172-15.787,19.172l-14.7-.036Z" transform="translate(-686.787 -858.973)" fill="#2d2d2d"></path><path id="Path_6378" data-name="Path 6378" d="M389.458,999.918,365.913,981.5,356.2,983.45c-.9,7.72.387,16.707,2.776,26.329,8.27,16.878,15.787,19.172,15.787,19.172l14.7-.036Z" transform="translate(-311.479 -858.973)" fill="#2d2d2d"></path><path id="Path_6379" data-name="Path 6379" d="M641.223,1411.338c0,2.613-4.5,4.731-10.062,4.731s-10.062-2.118-10.062-4.731,4.505-4.732,10.062-4.732,10.062,2.118,10.062,4.732" transform="translate(-543.564 -1231.012)" fill="#aeb5b5"></path><path id="Path_6380" data-name="Path 6380" d="M642.026,1394.095H626.484c.13,6.309-.748,10.283-1.675,12.768a2.431,2.431,0,0,0,.672,2.657c3.395,3.034,13.536,4.122,17.665-.328a2.43,2.43,0,0,0,.5-2.483c-.9-2.494-1.745-6.433-1.618-12.613" transform="translate(-546.68 -1220.063)" fill="#fbd3a8"></path><g id="Group_6203" data-name="Group 6203" transform="translate(79.814 173.339)" opacity="0.35"><g id="Group_6202" data-name="Group 6202"><g id="Group_6201" data-name="Group 6201" clip-path="url(#clip-path-19)"><path id="Path_6381" data-name="Path 6381" d="M639.778,1388.544l14.824.1.248,4.271c-2.327,3.426-13.76,3.281-15.493-.16Z" transform="translate(-639.357 -1388.544)" fill="#f8a364"></path></g></g></g><path id="Path_6382" data-name="Path 6382" d="M474.994,1437.856v169.013H443.663l2.269-110.807L445.9,1442.8a.931.931,0,0,1,.328-.658c3.746-3.309,10.207-4.741,17.657-5.434a1.047,1.047,0,0,0,.849-.589l1.31-2.73a.293.293,0,0,1,.53.005c2.11,4.451,8.425,4.46,8.425,4.46" transform="translate(-388.278 -1254.308)" fill="#f9f9f9"></path><path id="Path_6383" data-name="Path 6383" d="M361.889,1123.681c-6.7,0-10.967-8.914-8.888-14.667a5.356,5.356,0,0,1,2.856-3.158c2.423-1.039,4.608.241,6.032,1.195Z" transform="translate(-308.471 -967.467)" fill="#fbd3a8"></path><path id="Path_6384" data-name="Path 6384" d="M382.65,1138.116c-9.08-3.23-7.548,10.189-.085,10.517" transform="translate(-329.405 -995.601)" fill="#fbbd89"></path><path id="Path_6385" data-name="Path 6385" d="M382.658,1137.521a9.991,9.991,0,0,0-2.467-.553,5.29,5.29,0,0,0-1.25.043,3.435,3.435,0,0,0-1.166.406,2.757,2.757,0,0,0-.894.849,3.526,3.526,0,0,0-.488,1.163,5.868,5.868,0,0,0-.149,1.276,10.271,10.271,0,0,0,.077,1.293,7.442,7.442,0,0,1-.064-2.6,3.708,3.708,0,0,1,.447-1.245,3,3,0,0,1,.923-.974,3.751,3.751,0,0,1,1.248-.511,5.651,5.651,0,0,1,1.335-.119,10.469,10.469,0,0,1,2.616.44Z" transform="translate(-329.209 -994.669)" fill="#603813"></path><path id="Path_6386" data-name="Path 6386" d="M973.618,1123.681c6.7,0,10.967-8.914,8.888-14.667a5.355,5.355,0,0,0-2.856-3.158c-2.423-1.039-4.608.241-6.032,1.195Z" transform="translate(-852.076 -967.467)" fill="#fbd3a8"></path><path id="Path_6387" data-name="Path 6387" d="M975.005,1138.116c9.08-3.23,7.548,10.189.085,10.517" transform="translate(-853.29 -995.601)" fill="#fbbd89"></path><path id="Path_6388" data-name="Path 6388" d="M972.021,1136.991a10.465,10.465,0,0,1,2.616-.44,5.653,5.653,0,0,1,1.336.119,3.753,3.753,0,0,1,1.248.511,3,3,0,0,1,.923.974,3.7,3.7,0,0,1,.447,1.245,7.445,7.445,0,0,1-.064,2.6,10.254,10.254,0,0,0,.077-1.293,5.877,5.877,0,0,0-.149-1.276,3.537,3.537,0,0,0-.488-1.163,2.755,2.755,0,0,0-.894-.849,3.436,3.436,0,0,0-1.166-.406,5.277,5.277,0,0,0-1.25-.043,9.987,9.987,0,0,0-2.467.553Z" transform="translate(-850.678 -994.668)" fill="#603813"></path><g class="gt2"><path id="Path_6389" data-name="Path 6389" d="M472.736,852.889H404.476c-9.262,42.191-2.607,69.937,33.662,70.807h.936c36.269-.87,42.924-28.616,33.662-70.807" transform="translate(-350.696 -746.419)" fill="#fbd3a8"></path><path id="Path_6390" data-name="Path 6390" d="M574.333,1098.407c0,2.679-1.361,4.851-3.039,4.851s-3.039-2.172-3.039-4.851,1.36-4.851,3.039-4.851,3.039,2.172,3.039,4.851" transform="translate(-497.317 -957.042)" fill="#2d2d2d"></path><path id="Path_6391" data-name="Path 6391" d="M587.162,1102.921a1.513,1.513,0,1,1-1.479-1.831,1.684,1.684,0,0,1,1.479,1.831" transform="translate(-511.274 -963.635)" fill="#fff"></path><path id="Path_6393" data-name="Path 6393" d="M792.789,1098.407c0,2.679-1.361,4.851-3.039,4.851s-3.039-2.172-3.039-4.851,1.36-4.851,3.039-4.851,3.039,2.172,3.039,4.851" transform="translate(-688.502 -957.042)" fill="#2d2d2d"></path><path id="Path_6394" data-name="Path 6394" d="M805.618,1102.921a1.513,1.513,0,1,1-1.479-1.831,1.684,1.684,0,0,1,1.479,1.831" transform="translate(-702.459 -963.635)" fill="#fff"></path><path id="Path_6396" data-name="Path 6396" d="M678.216,1215.9a.913.913,0,0,0,.434-.047c2.639-.773,3.021,2.185.9,2.453a3.789,3.789,0,0,1-3.745-1.377.8.8,0,0,1,.515-1.272,6.68,6.68,0,0,1,1.9.243" transform="translate(-591.299 -1063.887)" fill="#f8a364"></path><path id="Path_6397" data-name="Path 6397" d="M785.531,1029.044c-2.92.055-4.028-2.748-1.992-4.455a4.112,4.112,0,0,1,3.113-.753c3.032.325,4.91,1.4,5.245,3.474a2.269,2.269,0,0,1-.651,2.045c-1.068.977-2.727.6-4.535-.113a3.045,3.045,0,0,0-1.18-.2" transform="translate(-684.816 -895.994)" fill="#2d2d2d"></path><path id="Path_6398" data-name="Path 6398" d="M556.469,1029.044c2.92.055,4.028-2.748,1.991-4.455a4.112,4.112,0,0,0-3.113-.753c-3.032.325-4.91,1.4-5.245,3.474a2.269,2.269,0,0,0,.652,2.045c1.068.977,2.727.6,4.535-.113a3.045,3.045,0,0,1,1.18-.2" transform="translate(-481.401 -895.994)" fill="#2d2d2d"></path></g><path id="Path_6399" data-name="Path 6399" d="M409.632,984.614c-5.584,6.4-6.946,18.312-6.267,31.091-3.677-11.253-2.251-31.091-2.251-31.091Z" transform="translate(-350.803 -861.7)" fill="#2d2d2d"></path><path id="Path_6400" data-name="Path 6400" d="M938.159,984.614c5.584,6.4,6.946,18.312,6.267,31.091,3.677-11.253,2.251-31.091,2.251-31.091Z" transform="translate(-821.044 -861.7)" fill="#2d2d2d"></path><g id="Group_6206" data-name="Group 6206" transform="translate(75.622 178.919)" opacity="0.5"><g id="Group_6205" data-name="Group 6205"><g id="Group_6204" data-name="Group 6204" clip-path="url(#clip-path-20)"><path id="Path_6401" data-name="Path 6401" d="M605.77,1436.725c.392,3.8,4.6,6.625,9.764,7.008v74.938h5.383l-.719-74.29-3.315-.889v-5.62c-3.844-.222-6.928-1.5-8.444-4.495a.3.3,0,0,0-.51.029l-1.459,2.958a1.065,1.065,0,0,1-.7.361" transform="translate(-605.77 -1433.243)" fill="#aeb5b5"></path></g></g></g><path id="Path_6402" data-name="Path 6402" d="M683.392,1514.2l-4.18,1.216v74.1" transform="translate(-594.422 -1325.175)" fill="none" stroke="#aeb5b5" stroke-miterlimit="10" stroke-width="15"></path><path id="Path_6403" data-name="Path 6403" d="M684.656,1437.856v5.62l-3.315.889v162.5h34.338l-1.961-110.807.036-53.262a.93.93,0,0,0-.328-.658c-3.746-3.309-10.207-4.741-17.656-5.434a1.048,1.048,0,0,1-.849-.589l-1.31-2.73a.293.293,0,0,0-.53.005c-2.11,4.451-8.425,4.46-8.425,4.46" transform="translate(-596.285 -1254.308)" fill="#f9f9f9"></path><g id="Group_6209" data-name="Group 6209" transform="translate(84.337 178.919)" opacity="0.5"><g id="Group_6208" data-name="Group 6208"><g id="Group_6207" data-name="Group 6207" clip-path="url(#clip-path-20)"><path id="Path_6404" data-name="Path 6404" d="M690.733,1436.725c-.391,3.8-4.6,6.625-9.764,7.008v74.938h-5.383l.718-74.29,3.315-.889v-5.62c3.844-.222,6.928-1.5,8.444-4.495a.3.3,0,0,1,.51.029l1.459,2.958a1.065,1.065,0,0,0,.7.361" transform="translate(-675.586 -1433.243)" fill="#aeb5b5"></path></g></g></g><path id="Path_6405" data-name="Path 6405" d="M690.567,1552.538a1.223,1.223,0,1,1-1.223-1.222,1.223,1.223,0,0,1,1.223,1.222" transform="translate(-602.22 -1357.656)" fill="#aeb5b5"></path><path id="Path_6406" data-name="Path 6406" d="M690.567,1672.706a1.223,1.223,0,1,1-1.223-1.223,1.222,1.222,0,0,1,1.223,1.223" transform="translate(-602.22 -1462.823)" fill="#aeb5b5"></path><path id="Path_6407" data-name="Path 6407" d="M690.567,1799.468a1.223,1.223,0,1,1-1.223-1.223,1.223,1.223,0,0,1,1.223,1.223" transform="translate(-602.22 -1573.76)" fill="#aeb5b5"></path><path id="Path_6408" data-name="Path 6408" d="M690.567,1919.636a1.223,1.223,0,1,1-1.223-1.223,1.222,1.222,0,0,1,1.223,1.223" transform="translate(-602.22 -1678.927)" fill="#aeb5b5"></path><path id="Path_6409" data-name="Path 6409" d="M690.567,2039.8a1.223,1.223,0,1,1-1.223-1.222,1.222,1.222,0,0,1,1.223,1.222" transform="translate(-602.22 -1784.094)" fill="#aeb5b5"></path><path id="Path_6410" data-name="Path 6410" d="M599.429,1251.463v-3.111c-6.9-.317-11.14.612-13.3,2.87a7.11,7.11,0,0,0-1.928,4.922v3.614h3.333c-1.247-2.928-1.608-5.393,0-7.033a3.976,3.976,0,0,1,2.8-1.163Z" transform="translate(-511.274 -1092.46)" fill="#2d2d2d"></path><path id="Path_6411" data-name="Path 6411" d="M702.544,1251.463v-3.111c6.9-.317,11.14.612,13.3,2.87a7.109,7.109,0,0,1,1.928,4.922v3.614h-3.333c1.247-2.928,1.608-5.393,0-7.033a3.976,3.976,0,0,0-2.8-1.163Z" transform="translate(-614.841 -1092.46)" fill="#2d2d2d"></path></g></g><g id="Group_6219" data-name="Group 6219" transform="translate(40.565 76.858)"><g id="Group_6218" data-name="Group 6218" clip-path="url(#clip-path-22)"><rect id="Rectangle_910" data-name="Rectangle 910" width="183.947" height="175.949" transform="translate(-40.565 -24.281)" fill="#fff"></rect><g id="Group_6214" data-name="Group 6214" transform="translate(-38.63 -24.281)" opacity="0.6"><g id="Group_6213" data-name="Group 6213"><g id="Group_6212" data-name="Group 6212" clip-path="url(#clip-path-23)"><rect id="Rectangle_911" data-name="Rectangle 911" width="3.228" height="175.949" transform="translate(27.207 0)" fill="#6A2186"></rect><rect id="Rectangle_912" data-name="Rectangle 912" width="3.228" height="175.949" transform="translate(20.405 0)" fill="#6A2186"></rect><rect id="Rectangle_913" data-name="Rectangle 913" width="3.228" height="175.949" transform="translate(34.009 0)" fill="#6A2186"></rect><rect id="Rectangle_914" data-name="Rectangle 914" width="3.228" height="175.949" transform="translate(40.811 0)" fill="#6A2186"></rect><rect id="Rectangle_915" data-name="Rectangle 915" width="3.228" height="175.949" transform="translate(47.613 0)" fill="#6A2186"></rect><rect id="Rectangle_916" data-name="Rectangle 916" width="3.228" height="175.949" transform="translate(54.415 0)" fill="#6A2186"></rect><rect id="Rectangle_917-2" data-name="Rectangle 917" width="3.228" height="175.949" transform="translate(61.216 0)" fill="#6A2186"></rect><rect id="Rectangle_918-2" data-name="Rectangle 918" width="3.228" height="175.949" transform="translate(95.226 0)" fill="#6A2186"></rect><rect id="Rectangle_919-2" data-name="Rectangle 919" width="3.228" height="175.949" transform="translate(88.424 0)" fill="#6A2186"></rect><rect id="Rectangle_920-2" data-name="Rectangle 920" width="3.228" height="175.949" transform="translate(81.622 0)" fill="#6A2186"></rect><rect id="Rectangle_921-2" data-name="Rectangle 921" width="3.228" height="175.949" transform="translate(74.82 0)" fill="#6A2186"></rect><rect id="Rectangle_922-2" data-name="Rectangle 922" width="3.228" height="175.949" transform="translate(68.018 0)" fill="#6A2186"></rect><rect id="Rectangle_923-2" data-name="Rectangle 923" width="3.228" height="175.949" transform="translate(102.027 0)" fill="#6A2186"></rect><rect id="Rectangle_924-2" data-name="Rectangle 924" width="3.228" height="175.949" transform="translate(108.829 0)" fill="#6A2186"></rect><rect id="Rectangle_925-2" data-name="Rectangle 925" width="3.228" height="175.949" transform="translate(115.631 0)" fill="#6A2186"></rect><rect id="Rectangle_926-2" data-name="Rectangle 926" width="3.228" height="175.949" transform="translate(122.433 0)" fill="#6A2186"></rect><rect id="Rectangle_927-2" data-name="Rectangle 927" width="3.228" height="175.949" transform="translate(129.235 0)" fill="#6A2186"></rect><rect id="Rectangle_928-2" data-name="Rectangle 928" width="3.228" height="175.949" transform="translate(136.037 0)" fill="#6A2186"></rect></g></g></g><g id="Group_6217" data-name="Group 6217" transform="translate(-36.567 -26.344)" opacity="0.8"><g id="Group_6216" data-name="Group 6216"><g id="Group_6215" data-name="Group 6215" clip-path="url(#clip-path-24)"><rect id="Rectangle_930-2" data-name="Rectangle 930" width="175.949" height="3.228" transform="translate(0 149.64)" fill="#6A2186"></rect><rect id="Rectangle_931-2" data-name="Rectangle 931" width="175.949" height="3.228" transform="translate(0 156.442)" fill="#6A2186"></rect><rect id="Rectangle_932-2" data-name="Rectangle 932" width="175.949" height="3.228" transform="translate(0 163.244)" fill="#6A2186"></rect><rect id="Rectangle_933-2" data-name="Rectangle 933" width="175.949" height="3.228" transform="translate(0 170.046)" fill="#6A2186"></rect><rect id="Rectangle_934-2" data-name="Rectangle 934" width="175.949" height="3.228" transform="translate(0 176.848)" fill="#6A2186"></rect><rect id="Rectangle_935-2" data-name="Rectangle 935" width="175.949" height="3.228" transform="translate(0 142.839)" fill="#6A2186"></rect><rect id="Rectangle_936-2" data-name="Rectangle 936" width="175.949" height="3.228" transform="translate(0 136.037)" fill="#6A2186"></rect><rect id="Rectangle_937-2" data-name="Rectangle 937" width="175.949" height="3.228" transform="translate(0 129.235)" fill="#6A2186"></rect><rect id="Rectangle_938-2" data-name="Rectangle 938" width="175.949" height="3.228" transform="translate(0 122.433)" fill="#6A2186"></rect><rect id="Rectangle_939-2" data-name="Rectangle 939" width="175.949" height="3.228" transform="translate(0 115.631)" fill="#6A2186"></rect><rect id="Rectangle_940-2" data-name="Rectangle 940" width="175.949" height="3.228" transform="translate(0 81.622)" fill="#6A2186"></rect><rect id="Rectangle_941-2" data-name="Rectangle 941" width="175.949" height="3.228" transform="translate(0 88.424)" fill="#6A2186"></rect><rect id="Rectangle_942-2" data-name="Rectangle 942" width="175.949" height="3.228" transform="translate(0 95.226)" fill="#6A2186"></rect><rect id="Rectangle_943-2" data-name="Rectangle 943" width="175.949" height="3.228" transform="translate(0 102.027)" fill="#6A2186"></rect><rect id="Rectangle_944-2" data-name="Rectangle 944" width="175.949" height="3.228" transform="translate(0 108.829)" fill="#6A2186"></rect><rect id="Rectangle_945-2" data-name="Rectangle 945" width="175.949" height="3.228" transform="translate(0 74.82)" fill="#6A2186"></rect><rect id="Rectangle_946-2" data-name="Rectangle 946" width="175.949" height="3.228" transform="translate(0 68.018)" fill="#6A2186"></rect><rect id="Rectangle_947-2" data-name="Rectangle 947" width="175.949" height="3.228" transform="translate(0 61.216)" fill="#6A2186"></rect><rect id="Rectangle_948-2" data-name="Rectangle 948" width="175.949" height="3.228" transform="translate(0 54.415)" fill="#6A2186"></rect><rect id="Rectangle_949" data-name="Rectangle 949" width="175.949" height="3.228" transform="translate(0 47.613)" fill="#6A2186"></rect><rect id="Rectangle_950-2" data-name="Rectangle 950" width="175.949" height="3.228" transform="translate(0 40.811)" fill="#6A2186"></rect><rect id="Rectangle_951-2" data-name="Rectangle 951" width="175.949" height="3.228" transform="translate(0 34.009)" fill="#6A2186"></rect><rect id="Rectangle_952-2" data-name="Rectangle 952" width="175.949" height="3.228" transform="translate(0 27.207)" fill="#6A2186"></rect><rect id="Rectangle_953-2" data-name="Rectangle 953" width="175.949" height="3.228" transform="translate(0 20.406)" fill="#6A2186"></rect><rect id="Rectangle_954-2" data-name="Rectangle 954" width="175.949" height="3.228" transform="translate(0 13.604)" fill="#6A2186"></rect><rect id="Rectangle_955-2" data-name="Rectangle 955" width="175.949" height="3.228" transform="translate(0 6.802)" fill="#6A2186"></rect><rect id="Rectangle_956-2" data-name="Rectangle 956" width="175.949" height="3.228" transform="translate(0 0)" fill="#6A2186"></rect></g></g></g></g></g><g id="Group_6221" data-name="Group 6221" transform="translate(0 0)"><g id="Group_6220" data-name="Group 6220" clip-path="url(#clip-path-8)"><path id="Path_6413" data-name="Path 6413" d="M425.966,844.647H339.249A2.251,2.251,0,0,1,337,842.4V842a6.3,6.3,0,0,1,6.3-6.3h78.616a6.3,6.3,0,0,1,6.3,6.3v.4a2.251,2.251,0,0,1-2.251,2.251" transform="translate(-294.929 -731.373)" fill="#2d2d2d"></path><path id="Path_6414" data-name="Path 6414" d="M650.792,1280.681a62,62,0,0,1-17.291,0s-.921,8.536,8.567,8.512h.158c9.488.025,8.567-8.512,8.567-8.512" transform="translate(-554.396 -1120.807)" fill="#be1717"></path><path id="Path_6415" data-name="Path 6415" d="M650.794,1280.681a61.989,61.989,0,0,1-17.291,0,7.561,7.561,0,0,0-.012,1.07,32.017,32.017,0,0,0,17.315,0,7.561,7.561,0,0,0-.012-1.07" transform="translate(-554.398 -1120.807)" fill="#fff"></path><path id="Path_6416" data-name="Path 6416" d="M665.018,1318.668a9.708,9.708,0,0,0-6.236-2.021v0h-.142v0a9.708,9.708,0,0,0-6.236,2.021,8.843,8.843,0,0,0,6.228,2h.158a8.844,8.844,0,0,0,6.228-2" transform="translate(-570.961 -1152.281)" fill="#ff2929"></path><path id="Path_6417" data-name="Path 6417" d="M640.83,1287.973h-.186c-.134,0-.265,0-.395,0l-.087,0c-.126,0-.25-.008-.371-.015l-.062,0q-.162-.009-.319-.023l-.077-.006q-.172-.016-.338-.035l-.088-.011q-.145-.018-.286-.039l-.06-.008c-.1-.016-.206-.034-.306-.052l-.1-.019c-.1-.019-.192-.038-.285-.059l-.056-.013-.031-.007-.211-.051-.009,0-.1-.027q-.125-.033-.246-.069l-.1-.031-.019-.006-.151-.048-.169-.058-.162-.059-.14-.055-.1-.04q-.125-.052-.246-.106l-.067-.031-.155-.074-.007,0c-.1-.049-.208-.106-.315-.165l-.023-.013c-4.16-2.327-3.7-7.379-3.678-7.592a.208.208,0,0,1,.076-.141.206.206,0,0,1,.152-.045l.033,0a61.73,61.73,0,0,0,17.175,0l.032,0a.2.2,0,0,1,.228.182c.022.217.483,5.268-3.678,7.6l-.021.012c-.111.062-.217.117-.323.169l-.156.075-.066.03q-.121.055-.247.107l-.1.04-.141.055-.16.058-.171.059-.15.048-.024.008-.1.03c-.081.024-.163.047-.246.069l-.109.028-.214.052-.032.007-.057.013c-.093.021-.188.04-.284.058l-.1.019c-.1.018-.2.036-.306.052l-.06.008c-.094.014-.189.027-.286.039l-.089.011c-.111.013-.223.024-.338.035l-.077.006q-.157.013-.318.023l-.063,0h0c-.122.007-.246.011-.371.015l-.087,0c-.12,0-.242,0-.366,0m-.11-.406h.082c.13,0,.258,0,.384,0l.084,0c.122,0,.243-.008.361-.015h0l.061,0c.1-.006.207-.014.308-.022l.075-.006q.166-.015.327-.034l.086-.01c.093-.012.186-.024.276-.037l.058-.008c.1-.015.2-.032.295-.05l.1-.019c.092-.018.184-.036.273-.056l.085-.02c.068-.016.135-.032.2-.049l.108-.027q.119-.032.235-.066l.091-.028.025-.008.143-.046.163-.056.153-.056.134-.052.093-.038q.12-.049.235-.1l.063-.029.148-.071c.1-.05.2-.1.305-.16l.021-.011c3.525-1.972,3.537-6.031,3.488-7a61.842,61.842,0,0,1-16.917,0c-.05.977-.032,5.027,3.487,7l.016.009c.107.06.209.113.309.162l.149.071.064.029q.115.052.233.1l.094.038.133.052.155.057.161.055.144.046.02.006.1.03q.116.034.236.066l.1.025.009,0c.067.017.134.033.2.049l.034.008.05.011c.09.02.182.038.274.056l.1.019c.1.018.195.035.295.05l.058.008c.091.014.183.026.276.037l.085.01q.162.019.327.034l.075.006c.1.008.2.016.309.022l.06,0c.119.007.239.011.361.015l.084,0c.127,0,.254.005.384,0Z" transform="translate(-552.972 -1119.384)" fill="#f8a364"></path><path id="Path_6418" data-name="Path 6418" d="M506.356,1285.473c-4.349,7-12.232,9.271-17.943,6.56l-3.333.266c-1.991,2.694-8.129,4.016-10.673,3.217-.169-1.4.229-.986,1.221-1.559H471.2c.992.573,1.389.163,1.221,1.559-2.543.8-8.682-.522-10.673-3.217l-3.333-.266c-5.711,2.712-13.594.435-17.943-6.56,4.253,8.724,13.423,16.182,32.716,16.949v.018c.076,0,.377,0,.453,0v-.018c19.293-.767,28.463-8.225,32.716-16.949" transform="translate(-385.485 -1125.001)" fill="#2d2d2d"></path><path id="Path_6419" data-name="Path 6419" d="M902.484,1528.422l-10.271-23.87c-6.3-12.415-15.362-1.843-10.807,5.825l10.427,23.694c5.7,9.592,15.143,4.517,10.652-5.649" transform="translate(-770.296 -1311.731)" fill="#f9f9f9" fill-rule="evenodd"></path><path id="Path_6420" data-name="Path 6420" d="M876.76,1744.191l-18.511,29.585a1.158,1.158,0,0,1-1.293.485,18.565,18.565,0,0,1-6.656-4.4,1.168,1.168,0,0,1-.058-1.384l15.954-30.517c3.742-5.442,13.617,1.063,10.564,6.235" transform="translate(-743.927 -1519.197)" fill="#f9f9f9"></path><path id="Path_6421" data-name="Path 6421" d="M366.031,1539.767l8.049-25.818c1.107-6.937-.7-10.164-6.317-8.546-4.115,3.772-9.767,17.23-13.37,34.365,0,3.62,10,6.11,11.638,0" transform="translate(-310.152 -1317.116)" fill="#f9f9f9"></path><path id="Path_6422" data-name="Path 6422" d="M215.105,1342.758s.618-4.535.888-6.37-2.69-5.541-3.444-5.637a4.762,4.762,0,0,0-1.688.2s-4.59-8.89-5.552-9.554a1.1,1.1,0,0,0-1.6.349s1.066,2.211,3.2,7.3c0,0-2.982,1.265-3.3,1.879a3.752,3.752,0,0,1-1.35,1.66c-.709.433-1.3.968-.9,2.853.971,4.6,6.973,9.913,6.973,9.913Z" transform="translate(-176.115 -1156.241)" fill="#fbd3a8"></path><path id="Path_6423" data-name="Path 6423" d="M218.289,1384.2c.945-.16,2.475,1.548,2.97,2.358l.973-.456s-1.182,1.139-1.494,1.539-1.243,1.038-.718,1.9,2.27.074,3.109-.717c0,0-1.314,2.4-1,4.161a10.413,10.413,0,0,0-2.915.807c-.861.526-2.445-.245-2.774-.67,0,0-1.08-.175-1.122-.358s-1.085-1.771-1.085-1.771,1.046.682,1.319.446c0,0,.636.585,1.167-.365s-1.975-2.549-1.975-2.549a2.287,2.287,0,0,1,1.553.721,8.971,8.971,0,0,1,.925,1.173s1.365-.834,1.259-1.464a5.318,5.318,0,0,0-2.288-2.5,2.916,2.916,0,0,1,1.859.881c.709.819,2.3-.221,2.195-.506a2.992,2.992,0,0,0-.979-1.489,4.033,4.033,0,0,1-.976-1.142" transform="translate(-187.486 -1211.392)" fill="#f8a364"></path><path id="Path_6424" data-name="Path 6424" d="M258.455,1520.258l-13.367-34.885a1.24,1.24,0,0,1,.418-1.419,19.865,19.865,0,0,1,8.053-2.853,1.25,1.25,0,0,1,1.22.842l15.812,33.3c2.242,6.7-9.681,10.957-12.136,5.014" transform="translate(-214.426 -1296.208)" fill="#f9f9f9"></path></g></g></g></g></g></g></g></svg> 