<?xml version="1.0" encoding="UTF-8"?> <svg xmlns="http://www.w3.org/2000/svg" xmlns:xlink="http://www.w3.org/1999/xlink" width="608.647" height="442.806" viewBox="0 0 608.647 442.806"><style> .man { animation-name:man; animation-fill-mode: both; animation-duration: 5s; transform-origin: bottom; transform-box:fill-box ; animation-iteration-count: infinite; } @keyframes man { 0% { transform:translateX(0px); } 50% { transform:translateX(60px); } 100% { transform:translateX(0px); } } .g-1 { animation-name: tranfX; animation-fill-mode: both; animation-duration: 2.5s; transform-origin: left; transform-box:fill-box ; animation-iteration-count: infinite; } .g-2{ animation-delay: .2s; animation-name: tranfX; animation-fill-mode: both; transform-origin: left; transform-box:fill-box ; animation-duration: 2.5s; animation-iteration-count: infinite; } .g-3{ animation-delay: .4s; animation-name: tranfX; transform-origin: left; transform-box:fill-box ; animation-fill-mode: both; animation-duration: 2.5s; animation-iteration-count: infinite; } .g-4{ animation-delay: .6s; animation-name: tranfX; transform-origin: left; transform-box:fill-box ; animation-fill-mode: both; animation-duration: 2.5s; animation-iteration-count: infinite; } .g-5{ animation-delay: .8s; transform-origin: left; transform-box:fill-box ; animation-name: tranfX; animation-fill-mode: both; animation-duration: 2.5s; animation-iteration-count: infinite; } .g-6{ animation-delay: 1s; transform-origin: left; transform-box:fill-box ; animation-name: tranfX; animation-fill-mode: both; animation-duration: 2.5s; animation-iteration-count: infinite; } @keyframes tranfX { 0% { transform: scaleX(1); } 50% { transform: scaleX(.1); } 100% { transform: scaleX(1); } } .dots{ transform-origin: left; transform-box:fill-box ; animation-name: dots1; animation-fill-mode: both; animation-duration: 3s; animation-iteration-count: infinite; } @keyframes dots1 { 0% { transform:translateY(0px) scale(1) rotate(0deg); } 50% { transform:translateY(-60px) scale(3.6) rotate(90deg); } 100% { transform:translateY(0px) scale(1) rotate(0deg); } } .dots2 { transform-origin: left; transform-box:fill-box ; animation-name: dots2; animation-fill-mode: both; animation-duration: 3s; animation-iteration-count: infinite; } @keyframes dots2 { 0% { transform:translateY(0px) scale(1) rotate(0deg); } 50% { transform:translateY(60px) scale(3.6) rotate(90deg); } 100% { transform:translateY(0px) scale(1) rotate(0deg); } } .rotate1 { transform-origin: center; transform-box:fill-box ; animation-name: rotate1; animation-fill-mode: both; animation-duration: 3s; animation-iteration-count: infinite; } .rotate2 { animation-delay: .3s; transform-origin: center; transform-box:fill-box ; animation-name: rotate1; animation-fill-mode: both; animation-duration: 3s; animation-iteration-count: infinite; } .rotate3 { animation-delay: .6s; transform-origin: center; transform-box:fill-box ; animation-name: rotate1; animation-fill-mode: both; animation-duration: 3s; animation-iteration-count: infinite; } .rotate4 { animation-delay: .9s; transform-origin: center; transform-box:fill-box ; animation-name: rotate1; animation-fill-mode: both; animation-duration: 3s; animation-iteration-count: infinite; } @keyframes rotate1 { 0% { transform: rotate(0deg); } 50% { transform: rotate(45deg); } 100% { transform: rotate(0deg); } } .secle1 { transform-origin: center; transform-box:fill-box ; animation-name: secle1; animation-fill-mode: both; animation-duration: 4s; animation-iteration-count: infinite; } .secle2 { animation-delay: .3s; transform-origin: center; transform-box:fill-box ; animation-name: secle1; animation-fill-mode: both; animation-duration: 4s; animation-iteration-count: infinite; } .secle3{ animation-delay: .6s; transform-origin: center; transform-box:fill-box ; animation-name: secle1; animation-fill-mode: both; animation-duration: 4s; animation-iteration-count: infinite; } .secle4 { animation-delay: .9s; transform-origin: center; transform-box:fill-box ; animation-name: secle1; animation-fill-mode: both; animation-duration: 4s; animation-iteration-count: infinite; } @keyframes secle1 { 0% { transform: scale(1); } 25% { transform: scale(-1 , 1 ); } 50% { transform: scale(1 , 1 ); } 75% { transform: scale(-1 , 1 ); } 100% { transform: scale(1); } } </style><defs><linearGradient id="linear-gradient" x1="1.65" y1="0.446" x2="-0.101" y2="0.528" gradientUnits="objectBoundingBox"><stop offset="0" stop-color="#6A2186"></stop><stop offset="1" stop-color="#b52d35" stop-opacity="0.922"></stop></linearGradient><clipPath id="clip-path"><path id="Path_37629" data-name="Path 37629" d="M1294.5,519.1c-2.221-2.259-7.06-10.974-11.209-33.509-4.009-21.778-6.217-50.026-6.217-79.539s2.208-57.761,6.217-79.539c4.148-22.536,8.987-31.25,11.209-33.509,2.221,2.259,7.06,10.974,11.208,33.509,4.01,21.778,35.647,50.026,35.647,79.539s-31.638,57.761-35.647,79.539C1301.559,508.126,1296.72,516.84,1294.5,519.1Z" transform="translate(-1277.073 -293.003)" fill="none"></path></clipPath><linearGradient id="linear-gradient-2" x1="1.279" y1="-0.542" x2="0.243" y2="0.874" gradientUnits="objectBoundingBox"><stop offset="0" stop-color="#fe7062"></stop><stop offset="1" stop-color="#ff928e"></stop></linearGradient><linearGradient id="linear-gradient-3" x1="0.525" y1="0.934" x2="0.436" y2="-0.664" xlink:href="#linear-gradient"></linearGradient><linearGradient id="linear-gradient-4" x1="0.143" y1="-0.646" x2="1.217" y2="2.77" gradientUnits="objectBoundingBox"><stop offset="0" stop-color="#6A2186"></stop><stop offset="1" stop-color="#d13c44" stop-opacity="0.922"></stop></linearGradient><linearGradient id="linear-gradient-6" x1="0.899" y1="-1.341" x2="-0.156" y2="3.524" xlink:href="#linear-gradient-2"></linearGradient><clipPath id="clip-path-2"><path id="Path_37233" data-name="Path 37233" d="M2810.2,691.871h-4.106c-57.4,5.648-74.371,60.347-47.59,168.554,2.194-6.653,4.984-15.719,9.463-21.237-5.2-39.763-7.492-73.991,5.5-89.011,11.163,4.2,58.2,4.2,69.359,0,12.992,15.02,10.653,49.58,5.457,89.343,4.018,5.439,7.047,14.253,9.24,20.905C2884.307,752.218,2867.6,697.519,2810.2,691.871Z" transform="translate(-2746.114 -691.871)" fill="none"></path></clipPath></defs><g id="ادارة_الحملات_الاعلانية_و_الدعائية" data-name="ادارة الحملات الاعلانية و الدعائية" transform="translate(-124.826 -93.255)"><g id="ادارة_الحملات_الاعلانية_و_الدعائية-2" data-name="ادارة الحملات الاعلانية و الدعائية" transform="translate(1 15.787)"><g id="Group_27253" data-name="Group 27253" transform="translate(83.525 27.092)"><path id="Path_37589" data-name="Path 37589" d="M309.168,491.805c66.805,2.167,139.1-9.826,199.723,1.551,44.441,8.341,94.267,20.283,139.478,9.172,46.7-11.478,105.543-51.023,91.749-106.753-4.535-18.324-21.644-24.608-31.744-38.7-12.891-17.988-8.642-35.907-1.944-55.743,11.1-32.863,28.215-74.187,14.139-108.486-15.034-36.631-60.6-26.9-89.086-14.375-38.012,16.714-71.8,54.407-117.168,41.8-32.159-8.938-58.924-32.158-86.634-49.549-42.417-26.62-176.945-52.94-223.386-21.454C153.365,183.8,241.214,218.8,186.24,250.407c-39.689,22.822-60.793,84.249-49.853,141.783C150.3,465.338,246.647,489.777,309.168,491.805Z" transform="translate(-93.214 -13.847)" fill="#FFD100"></path><g id="Group_27228" data-name="Group 27228" transform="translate(311.588 404.254)"><g class="g-1"><path id="Path_37590" data-name="Path 37590" d="M233.569,356.552H213.443a2.5,2.5,0,0,1-2.5-2.5h0a2.5,2.5,0,0,1,2.5-2.5h20.126a2.5,2.5,0,0,1,2.5,2.5h0A2.5,2.5,0,0,1,233.569,356.552Z" transform="translate(-210.94 -351.546)" fill="#6A2186"></path></g><g class="g-1"><path id="Path_37591" data-name="Path 37591" d="M407.5,356.552H342.81a2.5,2.5,0,0,1-2.5-2.5h0a2.5,2.5,0,0,1,2.5-2.5H407.5a2.5,2.5,0,0,1,2.5,2.5h0A2.5,2.5,0,0,1,407.5,356.552Z" transform="translate(-308.438 -351.546)" fill="#6A2186"></path></g><g class="g-2"><path id="Path_37592" data-name="Path 37592" d="M439.053,396.355h-64.69a2.5,2.5,0,0,1-2.5-2.5h0a2.5,2.5,0,0,1,2.5-2.5h64.69a2.5,2.5,0,0,1,2.5,2.5h0A2.5,2.5,0,0,1,439.053,396.355Z" transform="translate(-332.218 -381.544)" fill="#6A2186"></path></g><g class="g-4"><path id="Path_37593" data-name="Path 37593" d="M420.658,475.963H374.363a2.5,2.5,0,0,1-2.5-2.5h0a2.5,2.5,0,0,1,2.5-2.5h46.294a2.5,2.5,0,0,1,2.5,2.5h0A2.5,2.5,0,0,1,420.658,475.963Z" transform="translate(-332.218 -441.541)" fill="#6A2186"></path></g><g class="g-3"><path id="Path_37594" data-name="Path 37594" d="M468.5,436.159h-64.69a2.5,2.5,0,0,1-2.5-2.5h0a2.5,2.5,0,0,1,2.5-2.5H468.5a2.5,2.5,0,0,1,2.5,2.5h0A2.5,2.5,0,0,1,468.5,436.159Z" transform="translate(-354.413 -411.542)" fill="#6A2186"></path></g></g><g id="Group_27229" data-name="Group 27229" transform="translate(520.736 387.042)"><g class="g-1"><path id="Path_37595" data-name="Path 37595" d="M1728.014,1163.419h-20.126a2.5,2.5,0,0,1-2.5-2.5h0a2.5,2.5,0,0,1,2.5-2.5h20.126a2.5,2.5,0,0,1,2.5,2.5h0A2.5,2.5,0,0,1,1728.014,1163.419Z" transform="translate(-1705.385 -1158.413)" fill="#6A2186"></path></g><g class="g-1"><path id="Path_37596" data-name="Path 37596" d="M1901.945,1163.419h-64.69a2.5,2.5,0,0,1-2.5-2.5h0a2.5,2.5,0,0,1,2.5-2.5h64.69a2.5,2.5,0,0,1,2.5,2.5h0A2.5,2.5,0,0,1,1901.945,1163.419Z" transform="translate(-1802.883 -1158.413)" fill="#6A2186"></path></g><g class="g-2"><path id="Path_37597" data-name="Path 37597" d="M1933.5,1203.223h-64.69a2.5,2.5,0,0,1-2.5-2.5h0a2.5,2.5,0,0,1,2.5-2.5h64.69a2.5,2.5,0,0,1,2.5,2.5h0A2.5,2.5,0,0,1,1933.5,1203.223Z" transform="translate(-1826.663 -1188.411)" fill="#6A2186"></path></g><g class="g-4"><path id="Path_37598" data-name="Path 37598" d="M1915.1,1282.83h-46.294a2.5,2.5,0,0,1-2.5-2.5h0a2.5,2.5,0,0,1,2.5-2.5H1915.1a2.5,2.5,0,0,1,2.5,2.5h0A2.5,2.5,0,0,1,1915.1,1282.83Z" transform="translate(-1826.663 -1248.408)" fill="#6A2186"></path></g><g class="g-3"><path id="Path_37599" data-name="Path 37599" d="M1962.947,1243.026h-64.69a2.5,2.5,0,0,1-2.5-2.5h0a2.5,2.5,0,0,1,2.5-2.5h64.69a2.5,2.5,0,0,1,2.5,2.5h0A2.5,2.5,0,0,1,1962.947,1243.026Z" transform="translate(-1848.858 -1218.409)" fill="#6A2186"></path></g></g><g class="dots2"><path id="Path_37601" data-name="Path 37601" d="M1875.8,711.587v7.538a1.677,1.677,0,0,0,1.6,1.675l9.426.443a1.677,1.677,0,0,0,1.756-1.675v-7.981a1.677,1.677,0,0,0-1.677-1.677h-9.427A1.677,1.677,0,0,0,1875.8,711.587Z" transform="translate(-1320.816 -542.354)" fill="#FFD100"></path></g><g class="dots"><path id="Path_37603" data-name="Path 37603" d="M1950.485,932.4v4.339a.965.965,0,0,0,.92.964l5.426.255a.965.965,0,0,0,1.01-.964V932.4a.965.965,0,0,0-.965-.965h-5.425A.965.965,0,0,0,1950.485,932.4Z" transform="translate(-1369.37 -600.307)" fill="#FFD100"></path></g><g id="Group_27239" data-name="Group 27239" transform="translate(602.124 282.306)"><g class="rotate3"><path id="Path_37604" data-name="Path 37604" d="M2009.8,710.607l-.476,29.431a3.336,3.336,0,0,0,3.336,3.39h33.885a3.336,3.336,0,0,0,3.336-3.336V710.661a3.336,3.336,0,0,0-3.336-3.336h-33.41A3.336,3.336,0,0,0,2009.8,710.607Z" transform="translate(-2009.323 -707.325)" fill="#dc80ff"></path></g><g class="secle3"><g id="Group_27238" data-name="Group 27238" transform="translate(5.121 3.184)"><path id="Path_37605" data-name="Path 37605" d="M2045.4,748.627q-.365,0-.731-.016c-8.362-.369-14.886-7.026-14.545-14.841a13.639,13.639,0,0,1,4.907-9.851,15.647,15.647,0,0,1,10.877-3.655c8.362.369,14.886,7.026,14.545,14.841h0a13.64,13.64,0,0,1-4.907,9.851A15.582,15.582,0,0,1,2045.4,748.627Zm-.222-26.379a13.584,13.584,0,0,0-8.85,3.194,11.659,11.659,0,0,0-4.206,8.415c-.293,6.714,5.374,12.436,12.634,12.756a13.659,13.659,0,0,0,9.493-3.18,11.66,11.66,0,0,0,4.206-8.416c.293-6.713-5.374-12.435-12.634-12.755C2045.6,722.253,2045.39,722.249,2045.177,722.249Z" transform="translate(-2030.109 -720.249)" fill="#fff"></path><g id="Group_27237" data-name="Group 27237" transform="translate(1.944 1.006)"><g id="Group_27230" data-name="Group 27230" transform="translate(9.261 0.071)"><path id="Path_37606" data-name="Path 37606" d="M2084.222,738.832a39.954,39.954,0,0,1-.571,6.949c-.1.573-.223,1.143-.366,1.707a16.547,16.547,0,0,1-.511,1.671,7.933,7.933,0,0,1-.762,1.575,3.154,3.154,0,0,1-.572.67,1.628,1.628,0,0,1-.375.242,1.115,1.115,0,0,1-.437.1,1.1,1.1,0,0,1-.442-.082,1.531,1.531,0,0,1-.383-.229,2.977,2.977,0,0,1-.584-.659,7.67,7.67,0,0,1-.773-1.569,16.171,16.171,0,0,1-.517-1.669c-.144-.564-.265-1.134-.369-1.706-.208-1.146-.35-2.3-.446-3.461s-.143-2.323-.149-3.487c0-.582.013-1.164.033-1.745s.054-1.162.1-1.742c.086-1.16.214-2.318.4-3.466.1-.574.207-1.145.341-1.712a16.558,16.558,0,0,1,.484-1.677c.1-.274.2-.546.325-.811a5.94,5.94,0,0,1,.416-.77,2.855,2.855,0,0,1,.572-.664,1.442,1.442,0,0,1,.378-.227,1.06,1.06,0,0,1,.435-.078,1.147,1.147,0,0,1,.429.1,1.674,1.674,0,0,1,.374.234,3.2,3.2,0,0,1,.584.652,7.849,7.849,0,0,1,.8,1.551,15.952,15.952,0,0,1,.549,1.657c.155.561.285,1.128.4,1.7A36.642,36.642,0,0,1,2084.222,738.832Zm-.172,0q0-1.738-.138-3.473a33.564,33.564,0,0,0-.451-3.445c-.107-.569-.231-1.135-.378-1.7a15.924,15.924,0,0,0-.528-1.653,7.8,7.8,0,0,0-.776-1.544,3.13,3.13,0,0,0-.565-.645,1.62,1.62,0,0,0-.358-.23,1.063,1.063,0,0,0-.409-.1,1,1,0,0,0-.412.078,1.393,1.393,0,0,0-.361.223,2.8,2.8,0,0,0-.551.655,5.876,5.876,0,0,0-.4.764c-.117.264-.22.534-.313.808a16.445,16.445,0,0,0-.463,1.672c-.127.565-.232,1.135-.321,1.708-.177,1.145-.292,2.3-.365,3.457s-.1,2.316-.1,3.475.036,2.318.122,3.474.219,2.308.417,3.449c.1.571.215,1.138.354,1.7a15.979,15.979,0,0,0,.5,1.66,7.566,7.566,0,0,0,.75,1.552,2.886,2.886,0,0,0,.559.642,1.437,1.437,0,0,0,.358.218.982.982,0,0,0,.4.077,1.025,1.025,0,0,0,.4-.1,1.54,1.54,0,0,0,.351-.231,3.041,3.041,0,0,0,.548-.653,7.827,7.827,0,0,0,.739-1.558,16.448,16.448,0,0,0,.494-1.662c.137-.562.252-1.13.351-1.7.2-1.142.328-2.294.415-3.45S2084.051,739.991,2084.051,738.832Z" transform="translate(-2076.627 -725.656)" fill="#fff"></path><path id="Path_37607" data-name="Path 37607" d="M2079.563,751.053a1.448,1.448,0,0,1-.535-.107,1.845,1.845,0,0,1-.467-.278,3.263,3.263,0,0,1-.654-.734,7.938,7.938,0,0,1-.81-1.64,16.426,16.426,0,0,1-.528-1.705c-.139-.544-.261-1.11-.375-1.73-.2-1.1-.346-2.241-.45-3.494-.093-1.139-.144-2.321-.149-3.513,0-.623.015-1.238.033-1.758.022-.591.055-1.182.1-1.755.093-1.26.226-2.4.407-3.5.1-.623.217-1.19.345-1.735a16.722,16.722,0,0,1,.494-1.712c.11-.311.22-.586.336-.84a6.274,6.274,0,0,1,.44-.814,3.147,3.147,0,0,1,.642-.741,1.793,1.793,0,0,1,.467-.28,1.41,1.41,0,0,1,.571-.1,1.475,1.475,0,0,1,.553.13,1.987,1.987,0,0,1,.449.28,3.477,3.477,0,0,1,.648.721,8.134,8.134,0,0,1,.838,1.619,16.057,16.057,0,0,1,.562,1.694c.15.546.283,1.109.4,1.724a36.655,36.655,0,0,1,.644,7.007h0a40.016,40.016,0,0,1-.576,7.008c-.112.62-.233,1.185-.371,1.731a16.747,16.747,0,0,1-.521,1.706,8.223,8.223,0,0,1-.8,1.643,3.426,3.426,0,0,1-.636.743,1.977,1.977,0,0,1-.453.292,1.448,1.448,0,0,1-.571.133Zm-.176-25.7a.669.669,0,0,0-.256.053,1.068,1.068,0,0,0-.274.171,2.43,2.43,0,0,0-.482.576,5.467,5.467,0,0,0-.378.72c-.1.234-.2.49-.3.78a16.035,16.035,0,0,0-.453,1.637c-.119.529-.222,1.08-.316,1.685-.166,1.072-.284,2.193-.362,3.425-.067,1.054-.1,2.184-.1,3.453,0,1.172.037,2.332.12,3.449.092,1.226.227,2.344.413,3.417.1.6.219,1.148.35,1.676a15.512,15.512,0,0,0,.489,1.625,7.165,7.165,0,0,0,.714,1.482,2.508,2.508,0,0,0,.49.566,1.1,1.1,0,0,0,.271.167.716.716,0,0,0,.267.053.689.689,0,0,0,.271-.068,1.2,1.2,0,0,0,.272-.181,2.662,2.662,0,0,0,.485-.581,7.411,7.411,0,0,0,.7-1.489,16.031,16.031,0,0,0,.483-1.627c.129-.526.242-1.074.345-1.678.183-1.063.318-2.181.411-3.417.085-1.115.128-2.275.127-3.449h0c0-1.169-.043-2.328-.136-3.444a32.9,32.9,0,0,0-.447-3.41c-.111-.594-.233-1.141-.373-1.671a15.383,15.383,0,0,0-.516-1.617,7.4,7.4,0,0,0-.74-1.476,2.766,2.766,0,0,0-.5-.575,1.276,1.276,0,0,0-.282-.182.717.717,0,0,0-.278-.069Z" transform="translate(-2075.595 -724.62)" fill="#fff"></path></g><g id="Group_27231" data-name="Group 27231" transform="translate(2.669)"><path id="Path_37608" data-name="Path 37608" d="M2069.9,738.614a17.009,17.009,0,0,1-.6,4.441,14.321,14.321,0,0,1-1.851,4.072,11.766,11.766,0,0,1-1.413,1.738,9.942,9.942,0,0,1-1.74,1.406,8.366,8.366,0,0,1-2.03.932,7.567,7.567,0,0,1-4.415,0,8.37,8.37,0,0,1-2.031-.93,9.908,9.908,0,0,1-1.742-1.4,11.7,11.7,0,0,1-1.416-1.737,14.338,14.338,0,0,1-1.855-4.074,16.137,16.137,0,0,1-.449-2.2,16.616,16.616,0,0,1,0-4.484,16.2,16.2,0,0,1,.451-2.2,14.345,14.345,0,0,1,1.858-4.071,11.7,11.7,0,0,1,1.417-1.735,9.884,9.884,0,0,1,1.742-1.4,8.4,8.4,0,0,1,2.03-.927,7.514,7.514,0,0,1,4.408,0,8.392,8.392,0,0,1,2.029.929,9.9,9.9,0,0,1,1.74,1.4,11.724,11.724,0,0,1,1.414,1.736,14.311,14.311,0,0,1,1.853,4.069A17,17,0,0,1,2069.9,738.614Zm-.2,0a16.81,16.81,0,0,0-.575-4.393,14.251,14.251,0,0,0-1.792-4.044,11.609,11.609,0,0,0-1.382-1.733,9.68,9.68,0,0,0-1.709-1.407,8.24,8.24,0,0,0-2-.93,7.329,7.329,0,0,0-4.364,0,8.231,8.231,0,0,0-2,.932,9.648,9.648,0,0,0-1.707,1.408,11.582,11.582,0,0,0-1.378,1.733,14.231,14.231,0,0,0-1.787,4.043,16.32,16.32,0,0,0-.429,2.176,16.962,16.962,0,0,0,0,4.427A16.275,16.275,0,0,0,2051,743a14.241,14.241,0,0,0,1.79,4.04,11.588,11.588,0,0,0,1.379,1.731,9.621,9.621,0,0,0,1.706,1.405,8.269,8.269,0,0,0,2,.928,7.276,7.276,0,0,0,4.357,0,8.277,8.277,0,0,0,2-.927,9.638,9.638,0,0,0,1.708-1.4,11.573,11.573,0,0,0,1.382-1.731,14.258,14.258,0,0,0,1.794-4.042A16.813,16.813,0,0,0,2069.7,738.614Z" transform="translate(-2049.866 -725.367)" fill="#fff"></path><path id="Path_37609" data-name="Path 37609" d="M2059.025,750.836a7.975,7.975,0,0,1-2.305-.343,8.693,8.693,0,0,1-2.114-.968,10.238,10.238,0,0,1-1.8-1.453,12.1,12.1,0,0,1-1.458-1.787,14.637,14.637,0,0,1-1.9-4.17,16.56,16.56,0,0,1-.459-2.249,16.934,16.934,0,0,1,0-4.574,16.553,16.553,0,0,1,.46-2.248,14.645,14.645,0,0,1,1.9-4.168,12.048,12.048,0,0,1,1.458-1.786,10.23,10.23,0,0,1,1.8-1.451,8.738,8.738,0,0,1,2.112-.964,7.852,7.852,0,0,1,4.6,0,8.724,8.724,0,0,1,2.11.965,10.25,10.25,0,0,1,1.8,1.452,12.048,12.048,0,0,1,1.455,1.786,14.6,14.6,0,0,1,1.9,4.166,17.35,17.35,0,0,1,.615,4.53v0a17.338,17.338,0,0,1-.612,4.529,14.621,14.621,0,0,1-1.9,4.17,12.054,12.054,0,0,1-1.455,1.788,10.268,10.268,0,0,1-1.8,1.454,8.72,8.72,0,0,1-2.113.969A7.993,7.993,0,0,1,2059.025,750.836Zm0-25.756a7.22,7.22,0,0,0-2.082.318,7.907,7.907,0,0,0-1.92.894,9.326,9.326,0,0,0-1.646,1.358,11.259,11.259,0,0,0-1.338,1.682,13.866,13.866,0,0,0-1.744,3.946,16.1,16.1,0,0,0-.421,2.13,16.663,16.663,0,0,0,0,4.339,16.031,16.031,0,0,0,.422,2.13,13.871,13.871,0,0,0,1.746,3.943,11.236,11.236,0,0,0,1.338,1.681,9.321,9.321,0,0,0,1.646,1.356,7.925,7.925,0,0,0,1.918.89,6.936,6.936,0,0,0,4.16,0,7.953,7.953,0,0,0,1.921-.889,9.3,9.3,0,0,0,1.647-1.355,11.32,11.32,0,0,0,1.341-1.68,13.9,13.9,0,0,0,1.751-3.945,16.683,16.683,0,0,0,0-8.6,13.9,13.9,0,0,0-1.748-3.947,11.3,11.3,0,0,0-1.341-1.682,9.334,9.334,0,0,0-1.649-1.357,7.894,7.894,0,0,0-1.921-.892A7.214,7.214,0,0,0,2059.024,725.08Z" transform="translate(-2048.833 -724.331)" fill="#fff"></path></g><g id="Group_27232" data-name="Group 27232" transform="translate(1.027 7.748)"><path id="Path_37610" data-name="Path 37610" d="M2043.552,757.207l2.955-.024,2.955-.013,5.91-.011,5.911.012,2.955.015,2.955.026a.009.009,0,0,1,.009.009s0,.009-.009.009l-2.955.026-2.955.015-5.911.012-5.91-.011-2.955-.013-2.955-.024a.021.021,0,0,1-.013-.006C2043.539,757.212,2043.545,757.207,2043.552,757.207Z" transform="translate(-2043.201 -756.819)" fill="#fff"></path><path id="Path_37611" data-name="Path 37611" d="M2054.341,756.583l-8.868-.024-3.1-.026-.207-.207v-.152l.008-.331.34-.013,5.911-.038,5.912-.011,8.868.027,3.291.029.009.683-.346.009-5.909.041Z" transform="translate(-2042.169 -755.782)" fill="#fff"></path></g><g id="Group_27233" data-name="Group 27233" transform="translate(4.455 2.779)"><path id="Path_37612" data-name="Path 37612" d="M2057.469,737.036c.7-.011,1.4-.016,2.1-.024l2.1-.014c.7-.006,1.4-.005,2.1-.007l2.1,0,4.2.012,2.1.015c.7.009,1.4.014,2.1.026a.013.013,0,0,1,.009,0c0,.009,0,.013-.009.013-.7.012-1.4.017-2.1.026l-2.1.015-4.2.012-2.1,0c-.7,0-1.4,0-2.1-.007l-2.1-.014c-.7-.008-1.4-.013-2.1-.024a.013.013,0,0,1,0-.026Z" transform="translate(-2057.118 -736.648)" fill="#fff"></path><path id="Path_37613" data-name="Path 37613" d="M2064.829,736.412l-2.644-.005c-.519,0-1.038,0-1.556-.006l-2.8-.021c-.467,0-.934-.009-1.4-.017l-.332-.005-.013-.686.345-.013c.452-.007.9-.012,1.356-.016l2.844-.021c.492,0,.985,0,1.478-.006l2.72-.005,7.061.036c.446,0,.892.01,1.338.017l.344.006-.015.681-.334.009c-.461.008-.928.013-1.4.018l-2.8.023Z" transform="translate(-2056.085 -735.611)" fill="#fff"></path></g><g id="Group_27234" data-name="Group 27234" transform="translate(0 12.717)"><path id="Path_37614" data-name="Path 37614" d="M2039.383,777.377l3.212-.024,3.212-.014,6.424-.011,6.424.012,3.212.015,3.212.026a.009.009,0,0,1,.009.009s0,.009-.009.009l-3.212.026-3.212.015-6.424.012-6.424-.011-3.212-.014-3.212-.024a.013.013,0,0,1-.013-.013A.013.013,0,0,1,2039.383,777.377Z" transform="translate(-2039.032 -776.99)" fill="#fff"></path><path id="Path_37615" data-name="Path 37615" d="M2051.2,776.754l-9.638-.025-3.548-.026-.013-.688.348-.013,6.425-.037,6.425-.011,9.638.027,3.355.027.2.208-.013.478-.335.009-6.422.041Z" transform="translate(-2037.999 -775.953)" fill="#fff"></path></g><g id="Group_27235" data-name="Group 27235" transform="translate(1.027 17.686)"><path id="Path_37616" data-name="Path 37616" d="M2043.552,797.548l2.955-.024,2.955-.014,5.91-.011,5.911.012,2.955.015,2.955.026a.015.015,0,0,1,.009,0c0,.01,0,.013-.009.013l-2.955.026-2.955.015-5.911.012-5.91-.011-2.955-.014-2.955-.024a.013.013,0,0,1-.013-.013A.013.013,0,0,1,2043.552,797.548Z" transform="translate(-2043.201 -797.16)" fill="#fff"></path><path id="Path_37617" data-name="Path 37617" d="M2054.341,796.924l-8.868-.024-3.1-.025-.207-.207v-.152l.007-.331.34-.013,5.912-.038,5.912-.011,8.868.027,3.291.029.009.684-.346.009-5.909.041Z" transform="translate(-2042.169 -796.123)" fill="#fff"></path></g><g id="Group_27236" data-name="Group 27236" transform="translate(4.846 22.671)"><path id="Path_37618" data-name="Path 37618" d="M2075.871,817.826h-16.785a.045.045,0,0,1,0-.091h16.785a.045.045,0,0,1,0,.091Z" transform="translate(-2058.703 -817.396)" fill="#fff"></path><path id="Path_37619" data-name="Path 37619" d="M2074.838,817.128h-16.785a.384.384,0,0,1,0-.768h16.785a.384.384,0,0,1,0,.768Z" transform="translate(-2057.67 -816.36)" fill="#fff"></path></g></g></g></g></g><g id="Group_27245" data-name="Group 27245" transform="translate(159.018 140.001)"><path id="Path_37625" data-name="Path 37625" d="M273.482,941.467s40.246,106.143,52.961,128.223c14.76,25.631,57.866,9.3,55.722-12.152s-52.508-110.113-52.508-110.113Z" transform="translate(-264.505 -774.835)" fill="#dc80ff"></path><path id="Path_37626" data-name="Path 37626" d="M473.317,362.264,681.49,275.535l-2.627,234.7L466.481,453.485Z" transform="translate(-409.959 -272.952)" fill="#dc80ff"></path><ellipse id="Ellipse_464" data-name="Ellipse 464" cx="24.576" cy="120.616" rx="24.576" ry="120.616" transform="translate(247.191 0)" fill="#9350ad"></ellipse><path id="Path_37627" data-name="Path 37627" d="M1294.5,519.1c-2.221-2.259-7.06-10.974-11.209-33.509-4.009-21.778-6.217-50.026-6.217-79.539s2.208-57.761,6.217-79.539c4.148-22.536,8.987-31.25,11.209-33.509,2.221,2.259,7.06,10.974,11.208,33.509,4.01,21.778,6.217,50.026,6.217,79.539s-2.208,57.761-6.217,79.539C1301.559,508.126,1296.72,516.84,1294.5,519.1Z" transform="translate(-1020.867 -286.117)" fill="url(#linear-gradient)"></path><g id="Group_27244" data-name="Group 27244" transform="translate(256.206 6.886)"><g id="Group_27243" data-name="Group 27243" clip-path="url(#clip-path)"><path id="Path_37628" data-name="Path 37628" d="M1254.011,634.736c0,20.494-11.04,37.108-32.891,37.108s-39.565-16.614-39.565-37.108,17.714-37.108,39.565-37.108S1254.011,614.242,1254.011,634.736Z" transform="translate(-1205.086 -522.585)" fill="url(#linear-gradient-2)"></path></g></g><path id="Path_37630" data-name="Path 37630" d="M260.052,604.127a140.144,140.144,0,0,1,46.886,2.32c-6.011,31.4-5.1,64.127,1.848,98.015H257.327a16.676,16.676,0,0,1-16.48-14.063c-2.564-16.244-5.7-43.546-2.357-65.474A24.679,24.679,0,0,1,260.052,604.127Z" transform="translate(-237.039 -519.86)" fill="url(#linear-gradient-3)"></path><path id="Path_37631" data-name="Path 37631" d="M322.569,674.054H282.476a3.456,3.456,0,0,1-2.9-5.334.83.83,0,1,1,1.394.9,1.8,1.8,0,0,0,1.507,2.77h40.093a1.8,1.8,0,0,0,1.795-1.795v-2.853a1.8,1.8,0,0,0-1.795-1.795h-40.39a.83.83,0,0,1,0-1.661h40.39a3.459,3.459,0,0,1,3.456,3.456V670.6A3.46,3.46,0,0,1,322.569,674.054Z" transform="translate(-268.673 -565.939)" fill="#fff"></path><path id="Path_37632" data-name="Path 37632" d="M308.056,746.132H267.963a3.456,3.456,0,0,1-2.9-5.333.831.831,0,0,1,1.395.9,1.795,1.795,0,0,0,1.507,2.77h40.093a1.8,1.8,0,0,0,1.795-1.8v-2.852a1.8,1.8,0,0,0-1.795-1.8h-40.39a.831.831,0,0,1,0-1.661h40.39a3.46,3.46,0,0,1,3.456,3.456v2.852A3.46,3.46,0,0,1,308.056,746.132Z" transform="translate(-257.735 -620.261)" fill="#fff"></path><path id="Path_37633" data-name="Path 37633" d="M639.239,411.472a.831.831,0,0,1-.314-1.6L786.41,349.584a.831.831,0,1,1,.628,1.538L639.553,411.41A.827.827,0,0,1,639.239,411.472Z" transform="translate(-539.533 -328.713)" fill="#6A2186"></path><path id="Path_37634" data-name="Path 37634" d="M535.236,626.239a.831.831,0,0,1-.314-1.6l9.751-3.986a.831.831,0,1,1,.628,1.538l-9.751,3.986A.83.83,0,0,1,535.236,626.239Z" transform="translate(-461.151 -533.006)" fill="#6A2186"></path><path id="Path_37635" data-name="Path 37635" d="M322.569,830.548H282.476a3.456,3.456,0,0,1-2.9-5.333.83.83,0,1,1,1.394.9,1.795,1.795,0,0,0,1.507,2.77h40.093a1.8,1.8,0,0,0,1.795-1.8v-2.852a1.8,1.8,0,0,0-1.795-1.795h-40.39a.831.831,0,0,1,0-1.661h40.39a3.46,3.46,0,0,1,3.456,3.456v2.852A3.46,3.46,0,0,1,322.569,830.548Z" transform="translate(-268.673 -683.881)" fill="#fff"></path><path id="Path_37636" data-name="Path 37636" d="M337.807,924.248H297.714a3.456,3.456,0,0,1-2.9-5.334.831.831,0,0,1,1.395.9,1.795,1.795,0,0,0,1.507,2.77h40.093a1.8,1.8,0,0,0,1.795-1.795v-2.853a1.8,1.8,0,0,0-1.795-1.795h-40.39a.83.83,0,1,1,0-1.661h40.39a3.46,3.46,0,0,1,3.456,3.456v2.853A3.46,3.46,0,0,1,337.807,924.248Z" transform="translate(-280.157 -754.499)" fill="#fff"></path><path id="Path_37637" data-name="Path 37637" d="M445.992,1195.656a26,26,0,0,1-5.534-.6,25.6,25.6,0,0,1-18.066-14.632l-32.032-71.162a.83.83,0,0,1,1.515-.682l32.032,71.162a23.954,23.954,0,0,0,16.9,13.691,23.477,23.477,0,0,0,20.657-5.282q.455-.4.915-.818a.831.831,0,0,1,1.12,1.227q-.473.432-.941.841A25.037,25.037,0,0,1,445.992,1195.656Z" transform="translate(-352.534 -900.411)" fill="#6A2186"></path><path id="Path_37638" data-name="Path 37638" d="M360.959,1042.752a.83.83,0,0,1-.758-.49l-3.573-7.938a.83.83,0,1,1,1.515-.682l3.573,7.939a.831.831,0,0,1-.757,1.172Z" transform="translate(-327.113 -843.934)" fill="#fff"></path><path id="Path_37639" data-name="Path 37639" d="M1334.521,649.129a.83.83,0,0,1-.828-.772c-.717-10.1-4.224-17.636-10.422-22.4-10.709-8.222-25.978-5.4-26.13-5.368a.83.83,0,1,1-.314-1.631c.654-.127,16.16-2.991,27.456,5.682,6.592,5.061,10.316,13,11.067,23.6a.83.83,0,0,1-.77.887Z" transform="translate(-1035.246 -531.361)" fill="#fff" opacity="0.67"></path></g><g id="Group_27248" data-name="Group 27248" transform="translate(474.051 245.023)"><g class="rotate1"><path id="Path_37643" data-name="Path 37643" d="M1593.433,633.047l-46.481-2.418a6.314,6.314,0,0,0-6.718,6.586l1.2,42.746a6.27,6.27,0,0,0,6.708,5.985l44.137-2.18a6.071,6.071,0,0,0,5.551-5.945l1.076-38.29A6.111,6.111,0,0,0,1593.433,633.047Z" transform="translate(-1540.232 -630.619)" fill="#FFD100"></path></g><g class="secle1"><g id="Group_27247" data-name="Group 27247" transform="translate(11.053 10.007)"><g id="Group_27361" data-name="Group 27361"><path id="Path_37644" data-name="Path 37644" d="M1602.605,706.256a17.507,17.507,0,1,1,17.507-17.507A17.527,17.527,0,0,1,1602.605,706.256Zm0-32.08a14.573,14.573,0,1,0,14.573,14.573A14.59,14.59,0,0,0,1602.605,674.176Z" transform="translate(-1585.098 -671.242)" fill="#fff"></path><path id="Path_37645" data-name="Path 37645" d="M1633.9,725.856V713.27a1.735,1.735,0,0,1,2.62-1.492l10.606,6.293a1.735,1.735,0,0,1,0,2.984l-10.606,6.293A1.735,1.735,0,0,1,1633.9,725.856Z" transform="translate(-1621.88 -701.607)" fill="#fff" fill-rule="evenodd"></path></g></g></g></g><g id="Group_27251" data-name="Group 27251" transform="translate(539.204 328.255)"><g class="rotate4"><path id="Path_37651" data-name="Path 37651" d="M1808.962,921.081l-24.995-1.3a3.4,3.4,0,0,0-3.612,3.542l.646,22.986a3.372,3.372,0,0,0,3.607,3.218l23.734-1.172a3.265,3.265,0,0,0,2.985-3.2l.579-20.59A3.286,3.286,0,0,0,1808.962,921.081Z" transform="translate(-1780.354 -919.776)" fill="url(#linear-gradient-4)"></path></g></g><g id="Group_27252" data-name="Group 27252" transform="translate(249.218 187.307)"><path id="Path_37656" data-name="Path 37656" d="M1752.6,370.44q.78.318,1.553.653a1.107,1.107,0,1,1-.879,2.033q-.752-.326-1.51-.634a1.107,1.107,0,0,1,.836-2.051Z" transform="translate(-1468.299 -364.755)" fill="#6A2186"></path><path id="Path_37657" data-name="Path 37657" d="M1690.266,857.065q.817-.122,1.634-.25a1.107,1.107,0,1,1,.344,2.188q-.825.13-1.651.253a1.107,1.107,0,1,1-.327-2.19Z" transform="translate(-1421.761 -731.366)" fill="#6A2186"></path><path id="Path_37658" data-name="Path 37658" d="M1731.41,362.7l.207.068q.7.228,1.39.47a1.107,1.107,0,1,1-.727,2.091q-.674-.234-1.352-.456l-.2-.065a1.108,1.108,0,0,1,.682-2.108Z" transform="translate(-1452.389 -358.943)" fill="#6A2186"></path><path id="Path_37659" data-name="Path 37659" d="M1709.713,356.556q.818.2,1.632.417a1.107,1.107,0,0,1-.571,2.14q-.792-.211-1.587-.405a1.108,1.108,0,1,1,.526-2.152Z" transform="translate(-1436.096 -354.329)" fill="#6A2186"></path><path id="Path_37660" data-name="Path 37660" d="M1712.426,853.324q.813-.143,1.625-.294a1.107,1.107,0,1,1,.4,2.178q-.823.152-1.645.3a1.107,1.107,0,0,1-.384-2.181Z" transform="translate(-1438.484 -728.509)" fill="#6A2186"></path><path id="Path_37661" data-name="Path 37661" d="M1734.475,848.972q.809-.166,1.616-.34a1.108,1.108,0,0,1,.465,2.166q-.818.176-1.636.343a1.107,1.107,0,0,1-.445-2.169Z" transform="translate(-1455.125 -725.191)" fill="#6A2186"></path><path id="Path_37662" data-name="Path 37662" d="M1791.49,390.8a1.109,1.109,0,0,1,1.516-.4q.726.425,1.443.866a1.107,1.107,0,0,1,.365,1.523,1.083,1.083,0,0,1-.172.216,1.108,1.108,0,0,1-1.35.149q-.7-.428-1.405-.843A1.108,1.108,0,0,1,1791.49,390.8Z" transform="translate(-1498.646 -379.747)" fill="#6A2186"></path><path id="Path_37663" data-name="Path 37663" d="M1799.452,830.947q.775-.269,1.546-.552a1.107,1.107,0,1,1,.764,2.079q-.789.29-1.583.566a1.107,1.107,0,0,1-.726-2.092Z" transform="translate(-1504.2 -711.413)" fill="#6A2186"></path><path id="Path_37664" data-name="Path 37664" d="M1773.158,379.7q.755.373,1.5.762a1.107,1.107,0,1,1-1.023,1.964q-.727-.378-1.461-.742a1.107,1.107,0,0,1,.982-1.985Z" transform="translate(-1483.74 -371.706)" fill="#6A2186"></path><path id="Path_37665" data-name="Path 37665" d="M1756.386,843.929q.8-.193,1.6-.4a1.107,1.107,0,0,1,.547,2.146q-.813.207-1.626.4a1.108,1.108,0,1,1-.521-2.153Z" transform="translate(-1471.666 -721.34)" fill="#6A2186"></path><path id="Path_37666" data-name="Path 37666" d="M1778.08,837.98q.79-.228,1.576-.468a1.108,1.108,0,0,1,.647,2.119q-.8.245-1.61.478a1.107,1.107,0,0,1-.614-2.128Z" transform="translate(-1488.051 -716.792)" fill="#6A2186"></path><path id="Path_37667" data-name="Path 37667" d="M1642.771,347.654q.841.023,1.683.063a1.107,1.107,0,1,1-.106,2.212q-.818-.038-1.637-.061a1.107,1.107,0,0,1,.06-2.214Z" transform="translate(-1385.82 -347.644)" fill="#6A2186"></path><path id="Path_37668" data-name="Path 37668" d="M1597.739,349.038q.837-.093,1.675-.169a1.107,1.107,0,1,1,.2,2.205q-.816.074-1.631.165a1.108,1.108,0,0,1-.245-2.2Z" transform="translate(-1351.996 -348.556)" fill="#6A2186"></path><path id="Path_37669" data-name="Path 37669" d="M1600.964,866.556q.825-.048,1.651-.1a1.108,1.108,0,0,1,.14,2.211q-.832.052-1.663.1a1.107,1.107,0,1,1-.128-2.21Z" transform="translate(-1354.384 -738.64)" fill="#6A2186"></path><path id="Path_37670" data-name="Path 37670" d="M1578.537,867.725q.827-.032,1.653-.069a1.108,1.108,0,0,1,.1,2.213q-.833.036-1.666.068a1.107,1.107,0,1,1-.085-2.213Z" transform="translate(-1337.465 -739.547)" fill="#6A2186"></path><path id="Path_37671" data-name="Path 37671" d="M1620.221,347.667q.842-.034,1.684-.053a1.107,1.107,0,1,1,.047,2.214q-.82.018-1.638.052a1.108,1.108,0,0,1-.093-2.213Z" transform="translate(-1368.883 -347.614)" fill="#6A2186"></path><path id="Path_37672" data-name="Path 37672" d="M1575.43,351.952q.828-.15,1.658-.283a1.107,1.107,0,1,1,.352,2.186q-.809.13-1.615.276a1.107,1.107,0,1,1-.395-2.179Z" transform="translate(-1335.24 -350.659)" fill="#6A2186"></path><path id="Path_37673" data-name="Path 37673" d="M1556.1,868.483q.827-.017,1.653-.04a1.107,1.107,0,1,1,.059,2.214q-.833.023-1.667.039a1.107,1.107,0,1,1-.046-2.214Z" transform="translate(-1320.541 -740.14)" fill="#6A2186"></path><path id="Path_37674" data-name="Path 37674" d="M1623.361,864.94q.824-.064,1.648-.134a1.107,1.107,0,1,1,.186,2.207q-.831.071-1.663.135a1.107,1.107,0,0,1-.171-2.208Z" transform="translate(-1371.279 -737.396)" fill="#6A2186"></path><path id="Path_37675" data-name="Path 37675" d="M1668.026,860.228q.82-.1,1.641-.209a1.107,1.107,0,1,1,.287,2.2q-.827.108-1.654.211a1.107,1.107,0,1,1-.274-2.2Z" transform="translate(-1404.98 -733.784)" fill="#6A2186"></path><path id="Path_37676" data-name="Path 37676" d="M1665.276,349.042q.839.081,1.675.18a1.107,1.107,0,1,1-.26,2.2q-.813-.1-1.628-.175a1.107,1.107,0,1,1,.213-2.2Z" transform="translate(-1402.724 -348.686)" fill="#6A2186"></path><path id="Path_37677" data-name="Path 37677" d="M1645.719,862.842q.823-.082,1.644-.17a1.107,1.107,0,0,1,.236,2.2q-.83.089-1.659.172a1.108,1.108,0,0,1-.221-2.2Z" transform="translate(-1388.149 -735.785)" fill="#6A2186"></path><path id="Path_37678" data-name="Path 37678" d="M1810.51,402.76a1.106,1.106,0,0,1,1.539-.289q.7.475,1.38.965a1.107,1.107,0,0,1,.257,1.545,1.12,1.12,0,0,1-.13.151,1.108,1.108,0,0,1-1.414.106q-.666-.476-1.342-.938A1.108,1.108,0,0,1,1810.51,402.76Z" transform="translate(-1512.95 -388.811)" fill="#6A2186"></path><path id="Path_37679" data-name="Path 37679" d="M1687.629,352.006q.831.14,1.658.3a1.107,1.107,0,1,1-.416,2.175q-.8-.153-1.611-.29a1.107,1.107,0,1,1,.369-2.183Z" transform="translate(-1419.512 -350.912)" fill="#6A2186"></path><path id="Path_37680" data-name="Path 37680" d="M1896.171,771.633a1.107,1.107,0,1,1,1.626,1.5q-.579.626-1.179,1.228l-.014.013a1.107,1.107,0,0,1-1.556-1.576Q1895.621,772.228,1896.171,771.633Z" transform="translate(-1576.565 -666.909)" fill="#6A2186"></path><path id="Path_37681" data-name="Path 37681" d="M1944.332,607.056a1.108,1.108,0,0,1-1.246-.948q-.11-.809-.241-1.616a1.107,1.107,0,1,1,2.186-.355q.136.835.249,1.672a1.108,1.108,0,0,1-.948,1.247Z" transform="translate(-1612.82 -540.244)" fill="#6A2186"></path><path id="Path_37682" data-name="Path 37682" d="M1946.725,629.4a1.108,1.108,0,0,1-1.156-1.056q-.037-.814-.1-1.63a1.107,1.107,0,1,1,2.208-.161q.062.845.1,1.69a1.108,1.108,0,0,1-1.056,1.157Z" transform="translate(-1614.808 -557.068)" fill="#6A2186"></path><path id="Path_37683" data-name="Path 37683" d="M1940.027,585a1.108,1.108,0,0,1-1.323-.838q-.179-.8-.377-1.591a1.107,1.107,0,0,1,2.148-.537q.2.819.39,1.642a1.107,1.107,0,0,1-.838,1.323Z" transform="translate(-1609.4 -523.656)" fill="#6A2186"></path><path id="Path_37684" data-name="Path 37684" d="M1946.9,651.878a1.107,1.107,0,0,1-1.051-1.161q.04-.813.056-1.629a1.107,1.107,0,0,1,2.214.045q-.017.848-.059,1.695a1.107,1.107,0,0,1-1.161,1.051Z" transform="translate(-1615.09 -574.004)" fill="#6A2186"></path><path id="Path_37685" data-name="Path 37685" d="M1944.529,674.277a1.106,1.106,0,0,1-.926-1.262q.123-.8.222-1.614a1.107,1.107,0,1,1,2.2.268q-.1.843-.232,1.682a1.106,1.106,0,0,1-1.262.926Z" transform="translate(-1613.392 -590.904)" fill="#6A2186"></path><path id="Path_37686" data-name="Path 37686" d="M1893.155,483.643a1.107,1.107,0,0,1-1.541-.281q-.465-.673-.945-1.336a1.107,1.107,0,1,1,1.794-1.3q.494.682.973,1.375a1.108,1.108,0,0,1-.139,1.424A1.146,1.146,0,0,1,1893.155,483.643Z" transform="translate(-1573.349 -447.59)" fill="#6A2186"></path><path id="Path_37687" data-name="Path 37687" d="M1905.511,502.408a1.107,1.107,0,0,1-1.517-.389q-.417-.705-.849-1.4a1.108,1.108,0,1,1,1.882-1.168q.444.715.873,1.441a1.108,1.108,0,0,1-.181,1.357A1.092,1.092,0,0,1,1905.511,502.408Z" transform="translate(-1582.785 -461.652)" fill="#6A2186"></path><path id="Path_37688" data-name="Path 37688" d="M1933.9,563.388a1.107,1.107,0,0,1-1.387-.728q-.243-.779-.506-1.55a1.108,1.108,0,0,1,2.1-.714q.272.8.523,1.605a1.107,1.107,0,0,1-.728,1.387Z" transform="translate(-1604.614 -507.413)" fill="#6A2186"></path><path id="Path_37689" data-name="Path 37689" d="M1820.377,822.64q.755-.318,1.5-.651a1.107,1.107,0,1,1,.9,2.023q-.767.342-1.544.669a1.107,1.107,0,0,1-.86-2.041Z" transform="translate(-1520.021 -705.057)" fill="#6A2186"></path><path id="Path_37690" data-name="Path 37690" d="M1916.495,522.012a1.107,1.107,0,0,1-1.485-.5q-.365-.733-.746-1.458a1.107,1.107,0,0,1,1.961-1.03q.392.746.767,1.5a1.1,1.1,0,0,1-.5,1.485Z" transform="translate(-1591.195 -476.354)" fill="#6A2186"></path><path id="Path_37691" data-name="Path 37691" d="M1926.01,542.362a1.108,1.108,0,0,1-1.443-.61q-.228-.562-.465-1.116l-.167-.388a1.107,1.107,0,1,1,2.032-.882l.171.4q.246.575.482,1.157a1.107,1.107,0,0,1-.61,1.443Z" transform="translate(-1598.51 -491.626)" fill="#6A2186"></path><path id="Path_37692" data-name="Path 37692" d="M1938.984,694.984q.213-.782.4-1.573a1.107,1.107,0,0,1,2.156.506q-.195.829-.418,1.649a1.107,1.107,0,1,1-2.136-.583Z" transform="translate(-1609.891 -607.582)" fill="#6A2186"></path><path id="Path_37693" data-name="Path 37693" d="M1860.1,801.394q.688-.436,1.363-.89a1.107,1.107,0,0,1,1.392,1.712,1.085,1.085,0,0,1-.153.124q-.7.472-1.417.926a1.108,1.108,0,0,1-1.185-1.872Z" transform="translate(-1550.083 -688.794)" fill="#6A2186"></path><path id="Path_37694" data-name="Path 37694" d="M1864.664,448.926a1.107,1.107,0,0,1-1.564-.064q-.555-.6-1.122-1.194a1.107,1.107,0,0,1,.028-1.561l0,0a1.108,1.108,0,0,1,1.566.032q.583.607,1.153,1.227a1.107,1.107,0,0,1-.043,1.544Z" transform="translate(-1551.651 -421.608)" fill="#6A2186"></path><path id="Path_37695" data-name="Path 37695" d="M1845.924,432.051a1.107,1.107,0,1,1,1.489-1.639q.623.566,1.235,1.145a1.107,1.107,0,0,1,.043,1.565l-.033.034a1.107,1.107,0,0,1-1.532.009Q1846.531,432.6,1845.924,432.051Z" transform="translate(-1539.512 -409.798)" fill="#6A2186"></path><path id="Path_37696" data-name="Path 37696" d="M1828.659,416.018a1.109,1.109,0,0,1,1.555-.182q.661.522,1.311,1.057a1.109,1.109,0,0,1,.15,1.559,1.236,1.236,0,0,1-.084.091,1.107,1.107,0,0,1-1.475.059q-.632-.52-1.275-1.029A1.107,1.107,0,0,1,1828.659,416.018Z" transform="translate(-1526.594 -398.851)" fill="#6A2186"></path><path id="Path_37697" data-name="Path 37697" d="M1840.669,812.855q.727-.374,1.442-.763a1.107,1.107,0,0,1,1.061,1.944q-.74.4-1.491.789a1.107,1.107,0,1,1-1.012-1.97Z" transform="translate(-1535.371 -697.568)" fill="#6A2186"></path><path id="Path_37698" data-name="Path 37698" d="M1922.109,736.663q.4-.7.77-1.417a1.107,1.107,0,1,1,1.966,1.019q-.391.754-.814,1.5a1.129,1.129,0,0,1-.19.246,1.108,1.108,0,0,1-1.733-1.344Z" transform="translate(-1597.092 -639.306)" fill="#6A2186"></path><path id="Path_37699" data-name="Path 37699" d="M1931.846,716.324q.305-.749.583-1.509a1.108,1.108,0,1,1,2.081.758q-.292.8-.614,1.588a1.107,1.107,0,1,1-2.05-.837Z" transform="translate(-1604.479 -623.808)" fill="#6A2186"></path><path id="Path_37700" data-name="Path 37700" d="M1878.615,462.93q.539.646,1.066,1.3a1.108,1.108,0,0,1-.093,1.486c-.025.024-.052.048-.08.071a1.108,1.108,0,0,1-1.557-.173q-.512-.64-1.037-1.269a1.107,1.107,0,0,1,1.7-1.419Z" transform="translate(-1562.947 -434.222)" fill="#6A2186"></path><path id="Path_37701" data-name="Path 37701" d="M1910.07,755.2q.337-.449.657-.905a1.108,1.108,0,0,1,1.811,1.276q-.341.483-.7.958l-.314.414a1.136,1.136,0,0,1-.109.123,1.107,1.107,0,0,1-1.65-1.468Z" transform="translate(-1587.731 -653.76)" fill="#6A2186"></path><path id="Path_37702" data-name="Path 37702" d="M1878.349,788.078q.638-.5,1.257-1.026a1.107,1.107,0,0,1,1.488,1.639c-.018.018-.037.035-.057.052q-.647.548-1.316,1.075a1.107,1.107,0,0,1-1.372-1.738Z" transform="translate(-1563.904 -678.601)" fill="#6A2186"></path><path id="Path_37703" data-name="Path 37703" d="M1553.4,356.4q.817-.207,1.637-.4a1.107,1.107,0,0,1,.5,2.158q-.8.184-1.592.386a1.108,1.108,0,0,1-.544-2.147Z" transform="translate(-1318.691 -353.911)" fill="#6A2186"></path><path id="Path_37704" data-name="Path 37704" d="M950.025,856.429q.828-.1,1.655-.2a1.107,1.107,0,0,1,.257,2.2q-.819.1-1.639.2a1.107,1.107,0,1,1-.274-2.2Z" transform="translate(-863.854 -730.929)" fill="#6A2186"></path><path id="Path_37705" data-name="Path 37705" d="M927.74,859.382q.826-.126,1.651-.244a1.107,1.107,0,1,1,.315,2.192q-.817.118-1.633.242a1.107,1.107,0,0,1-.333-2.19Z" transform="translate(-847.081 -733.119)" fill="#6A2186"></path><path id="Path_37706" data-name="Path 37706" d="M883.455,867.082q.817-.171,1.637-.336a1.108,1.108,0,0,1,.435,2.172q-.809.161-1.617.331a1.108,1.108,0,0,1-.455-2.168Z" transform="translate(-813.751 -738.845)" fill="#6A2186"></path><path id="Path_37707" data-name="Path 37707" d="M905.546,862.927q.822-.148,1.645-.289a1.108,1.108,0,0,1,.373,2.184q-.814.139-1.626.285a1.107,1.107,0,1,1-.392-2.179Z" transform="translate(-830.377 -735.752)" fill="#6A2186"></path><path id="Path_37708" data-name="Path 37708" d="M861.492,871.868q.813-.195,1.627-.383a1.107,1.107,0,0,1,.5,2.158q-.8.185-1.608.378a1.107,1.107,0,1,1-.516-2.153Z" transform="translate(-797.222 -742.411)" fill="#6A2186"></path><path id="Path_37709" data-name="Path 37709" d="M1533.65,868.862q.828,0,1.655-.013a1.108,1.108,0,0,1,.021,2.215q-.832.008-1.665.013a1.107,1.107,0,1,1-.012-2.215Z" transform="translate(-1303.607 -740.446)" fill="#6A2186"></path><path id="Path_37710" data-name="Path 37710" d="M839.679,877.3q.807-.221,1.616-.432a1.107,1.107,0,1,1,.562,2.142q-.8.21-1.6.427a1.107,1.107,0,0,1-.583-2.136Z" transform="translate(-780.807 -746.464)" fill="#6A2186"></path><path id="Path_37711" data-name="Path 37711" d="M1039.689,849.7q.833-.033,1.665-.06a1.107,1.107,0,1,1,.075,2.213q-.827.028-1.655.06a1.107,1.107,0,1,1-.085-2.213Z" transform="translate(-931.359 -725.972)" fill="#6A2186"></path><path id="Path_37712" data-name="Path 37712" d="M972.375,854.029q.83-.083,1.659-.162a1.108,1.108,0,0,1,.208,2.206q-.823.077-1.645.16a1.108,1.108,0,1,1-.222-2.2Z" transform="translate(-880.678 -729.151)" fill="#6A2186"></path><path id="Path_37713" data-name="Path 37713" d="M1062.174,849.112q.833-.019,1.666-.032a1.107,1.107,0,1,1,.038,2.214q-.828.015-1.655.032a1.107,1.107,0,0,1-.049-2.214Z" transform="translate(-948.291 -725.546)" fill="#6A2186"></path><path id="Path_37714" data-name="Path 37714" d="M1017.22,850.7q.831-.049,1.664-.092a1.107,1.107,0,0,1,.116,2.212q-.827.043-1.652.091a1.107,1.107,0,0,1-.128-2.21Z" transform="translate(-914.442 -726.695)" fill="#6A2186"></path><path id="Path_37715" data-name="Path 37715" d="M994.776,852.127q.831-.065,1.662-.125a1.107,1.107,0,0,1,.16,2.209q-.825.06-1.65.124a1.107,1.107,0,0,1-.173-2.208Z" transform="translate(-897.543 -727.747)" fill="#6A2186"></path><path id="Path_37716" data-name="Path 37716" d="M656,959.175q.687-.48,1.38-.949a1.107,1.107,0,0,1,1.394,1.71,1.133,1.133,0,0,1-.151.123q-.681.462-1.357.933A1.107,1.107,0,1,1,656,959.175Z" transform="translate(-642.636 -807.661)" fill="#6A2186"></path><path id="Path_37717" data-name="Path 37717" d="M1084.663,848.883q.833,0,1.667-.006a1.107,1.107,0,0,1,0,2.215q-.829,0-1.656.006a1.108,1.108,0,0,1-.014-2.215Z" transform="translate(-965.226 -725.394)" fill="#6A2186"></path><path id="Path_37718" data-name="Path 37718" d="M637.844,972.3q.664-.51,1.334-1.012a1.107,1.107,0,1,1,1.327,1.773q-.659.493-1.311.994a1.107,1.107,0,1,1-1.349-1.756Z" transform="translate(-628.981 -817.483)" fill="#6A2186"></path><path id="Path_37719" data-name="Path 37719" d="M603.549,1001.075q.612-.575,1.231-1.139a1.107,1.107,0,0,1,1.518,1.612l-.026.024q-.607.553-1.207,1.117a1.107,1.107,0,1,1-1.516-1.614Z" transform="translate(-603.195 -839.023)" fill="#6A2186"></path><path id="Path_37720" data-name="Path 37720" d="M674.757,946.9q.707-.448,1.421-.887a1.107,1.107,0,0,1,1.16,1.887q-.7.432-1.4.872a1.107,1.107,0,1,1-1.184-1.871Z" transform="translate(-656.739 -798.475)" fill="#6A2186"></path><path id="Path_37721" data-name="Path 37721" d="M620.344,986.268q.638-.543,1.284-1.076a1.107,1.107,0,0,1,1.477,1.648c-.021.021-.044.041-.068.061q-.633.522-1.26,1.055a1.107,1.107,0,0,1-1.434-1.687Z" transform="translate(-615.825 -827.938)" fill="#6A2186"></path><path id="Path_37722" data-name="Path 37722" d="M734,915.017q.758-.356,1.519-.7a1.107,1.107,0,1,1,.92,2.014q-.751.343-1.5.694a1.108,1.108,0,1,1-.943-2Z" transform="translate(-701.299 -774.634)" fill="#6A2186"></path><path id="Path_37723" data-name="Path 37723" d="M775.456,897.728q.782-.3,1.567-.591a1.108,1.108,0,1,1,.77,2.077q-.774.287-1.545.582a1.107,1.107,0,0,1-.792-2.068Z" transform="translate(-732.484 -761.713)" fill="#6A2186"></path><path id="Path_37724" data-name="Path 37724" d="M754.568,905.991q.769-.328,1.544-.646a1.107,1.107,0,1,1,.844,2.047q-.763.314-1.522.637a1.107,1.107,0,0,1-.866-2.038Z" transform="translate(-716.77 -767.888)" fill="#6A2186"></path><path id="Path_37725" data-name="Path 37725" d="M713.812,924.829q.743-.387,1.492-.765a1.108,1.108,0,1,1,1,1.978q-.736.371-1.467.752a1.107,1.107,0,0,1-1.023-1.964Z" transform="translate(-686.113 -781.969)" fill="#6A2186"></path><path id="Path_37726" data-name="Path 37726" d="M694.046,935.451q.726-.418,1.458-.825a1.107,1.107,0,1,1,1.078,1.935q-.721.4-1.434.811a1.107,1.107,0,1,1-1.1-1.92Z" transform="translate(-671.246 -789.914)" fill="#6A2186"></path><path id="Path_37727" data-name="Path 37727" d="M796.63,890.21q.791-.272,1.585-.536a1.107,1.107,0,1,1,.7,2.1q-.784.26-1.564.528a1.107,1.107,0,1,1-.72-2.094Z" transform="translate(-748.415 -756.098)" fill="#6A2186"></path><path id="Path_37728" data-name="Path 37728" d="M818.05,883.407q.8-.245,1.6-.482a1.107,1.107,0,1,1,.629,2.123q-.792.235-1.581.477a1.107,1.107,0,0,1-.649-2.118Z" transform="translate(-764.532 -751.019)" fill="#6A2186"></path><path id="Path_37729" data-name="Path 37729" d="M1443.832,867.07l1.657.068a1.108,1.108,0,0,1-.088,2.213l-1.663-.068a1.108,1.108,0,0,1,.094-2.213Z" transform="translate(-1235.876 -739.104)" fill="#6A2186"></path><path id="Path_37730" data-name="Path 37730" d="M1466.28,867.917l1.658.051a1.107,1.107,0,1,1-.066,2.214l-1.663-.052a1.107,1.107,0,1,1,.071-2.214Z" transform="translate(-1252.803 -739.743)" fill="#6A2186"></path><path id="Path_37731" data-name="Path 37731" d="M1376.511,863.453l1.658.1a1.108,1.108,0,0,1-.136,2.211l-1.66-.1a1.107,1.107,0,1,1,.137-2.211Z" transform="translate(-1185.123 -736.378)" fill="#6A2186"></path><path id="Path_37732" data-name="Path 37732" d="M1469.839,390.737a1.105,1.105,0,0,1,.388-1.517q.725-.43,1.459-.843a1.107,1.107,0,1,1,1.087,1.929q-.712.4-1.417.819A1.107,1.107,0,0,1,1469.839,390.737Z" transform="translate(-1256.229 -378.227)" fill="#6A2186"></path><path id="Path_37733" data-name="Path 37733" d="M1398.946,864.807l1.658.093a1.107,1.107,0,0,1-.123,2.211l-1.661-.093a1.107,1.107,0,1,1,.126-2.211Z" transform="translate(-1202.036 -737.398)" fill="#6A2186"></path><path id="Path_37734" data-name="Path 37734" d="M1421.392,866.023l1.656.083a1.107,1.107,0,1,1-.107,2.211l-1.662-.083a1.107,1.107,0,0,1,.114-2.211Z" transform="translate(-1218.957 -738.315)" fill="#6A2186"></path><path id="Path_37735" data-name="Path 37735" d="M1531.742,362.354q.8-.263,1.605-.509a1.107,1.107,0,0,1,1.095,1.854,1.093,1.093,0,0,1-.447.263q-.782.24-1.56.5a1.108,1.108,0,1,1-.693-2.1Z" transform="translate(-1302.426 -358.302)" fill="#6A2186"></path><path id="Path_37736" data-name="Path 37736" d="M1511.194,868.864q.828.007,1.655.011a1.107,1.107,0,1,1-.01,2.215q-.832,0-1.666-.011a1.107,1.107,0,0,1,.021-2.214Z" transform="translate(-1286.672 -740.457)" fill="#6A2186"></path><path id="Path_37737" data-name="Path 37737" d="M1510.59,369.823q.779-.319,1.565-.622a1.107,1.107,0,1,1,.8,2.067q-.765.3-1.523.6a1.107,1.107,0,1,1-.839-2.05Z" transform="translate(-1286.54 -363.827)" fill="#6A2186"></path><path id="Path_37738" data-name="Path 37738" d="M1488.737,868.525q.828.018,1.655.032a1.107,1.107,0,1,1-.038,2.214q-.833-.014-1.665-.033a1.107,1.107,0,1,1,.048-2.214Z" transform="translate(-1269.737 -740.202)" fill="#6A2186"></path><path id="Path_37739" data-name="Path 37739" d="M1492.5,380.052q-.741.349-1.474.713a1.108,1.108,0,0,1-.986-1.984q.755-.374,1.517-.733a1.108,1.108,0,0,1,1.243,1.8A1.1,1.1,0,0,1,1492.5,380.052Z" transform="translate(-1271.111 -370.471)" fill="#6A2186"></path><path id="Path_37740" data-name="Path 37740" d="M1107.16,848.935q.833.007,1.665.018a1.107,1.107,0,1,1-.028,2.214l-1.657-.018a1.107,1.107,0,1,1,.02-2.214Z" transform="translate(-982.169 -725.437)" fill="#6A2186"></path><path id="Path_37741" data-name="Path 37741" d="M1219.523,853.012l1.661.1a1.108,1.108,0,0,1-.132,2.211l-1.656-.1a1.107,1.107,0,1,1,.126-2.211Z" transform="translate(-1066.812 -728.509)" fill="#6A2186"></path><path id="Path_37742" data-name="Path 37742" d="M1174.606,850.736l1.663.073a1.107,1.107,0,0,1-.1,2.212l-1.657-.072a1.108,1.108,0,0,1,.094-2.213Z" transform="translate(-1032.973 -726.794)" fill="#6A2186"></path><path id="Path_37743" data-name="Path 37743" d="M1197.07,851.79l1.661.086a1.107,1.107,0,1,1-.116,2.211l-1.657-.086a1.107,1.107,0,1,1,.113-2.212Z" transform="translate(-1049.895 -727.588)" fill="#6A2186"></path><path id="Path_37744" data-name="Path 37744" d="M1354.083,862l1.656.11a1.107,1.107,0,1,1-.146,2.209l-1.659-.11a1.107,1.107,0,1,1,.149-2.209Z" transform="translate(-1168.215 -735.278)" fill="#6A2186"></path><path id="Path_37745" data-name="Path 37745" d="M1152.136,849.887l1.662.057a1.107,1.107,0,1,1-.078,2.213l-1.659-.057a1.107,1.107,0,0,1,.075-2.214Z" transform="translate(-1016.045 -726.155)" fill="#6A2186"></path><path id="Path_37746" data-name="Path 37746" d="M1129.65,849.278q.833.018,1.665.039a1.107,1.107,0,0,1-.055,2.214l-1.657-.038a1.107,1.107,0,0,1,.048-2.214Z" transform="translate(-999.109 -725.696)" fill="#6A2186"></path><path id="Path_37747" data-name="Path 37747" d="M1241.967,854.367l1.659.106a1.107,1.107,0,1,1-.142,2.21l-1.656-.106a1.107,1.107,0,1,1,.14-2.209Z" transform="translate(-1083.722 -729.53)" fill="#6A2186"></path><path id="Path_37748" data-name="Path 37748" d="M1309.246,858.906l1.657.116a1.107,1.107,0,0,1-.155,2.209l-1.656-.116a1.107,1.107,0,1,1,.153-2.209Z" transform="translate(-1134.422 -732.95)" fill="#6A2186"></path><path id="Path_37749" data-name="Path 37749" d="M1331.665,860.464l1.656.114a1.107,1.107,0,1,1-.152,2.209l-1.657-.114a1.107,1.107,0,1,1,.153-2.209Z" transform="translate(-1151.319 -734.124)" fill="#6A2186"></path><path id="Path_37750" data-name="Path 37750" d="M1264.4,855.823l1.658.111a1.107,1.107,0,0,1-.149,2.209l-1.657-.111a1.107,1.107,0,0,1,.147-2.21Z" transform="translate(-1100.626 -730.627)" fill="#6A2186"></path><path id="Path_37751" data-name="Path 37751" d="M1286.828,857.345l1.656.115a1.107,1.107,0,0,1-.153,2.209l-1.657-.115a1.107,1.107,0,0,1,.155-2.209Z" transform="translate(-1117.527 -731.773)" fill="#6A2186"></path></g><g id="Group_27250" data-name="Group 27250" transform="translate(575.358 202.317)"><g class="rotate2"><path id="Path_37646" data-name="Path 37646" d="M1955.353,386.406l-42.4-2.206a5.76,5.76,0,0,0-6.128,6.009l1.1,39a5.72,5.72,0,0,0,6.119,5.46l40.265-1.989a5.538,5.538,0,0,0,5.064-5.423l.982-34.931A5.576,5.576,0,0,0,1955.353,386.406Z" transform="translate(-1906.819 -384.191)" fill="url(#linear-gradient-4)"></path></g><g class="secle2"><g id="Group_27360" data-name="Group 27360" transform="translate(-431.811 -415.906)"><path id="Path_38077" data-name="Path 38077" d="M444.2,448.282V434.024c.017-.1.039-.2.05-.3a6.888,6.888,0,0,1,.593-2.239,7.606,7.606,0,0,1,7.205-4.69c4.35-.053,8.7-.014,13.053-.012a7.44,7.44,0,0,1,3.839.989,7.643,7.643,0,0,1,4,6.935c.023,4.294.011,8.588,0,12.882a7.56,7.56,0,0,1-.147,1.616,7.649,7.649,0,0,1-5.769,6.079c-.429.12-.88.161-1.321.238H451.443c-.3-.047-.612-.075-.911-.143a7.684,7.684,0,0,1-6.1-5.782C444.317,449.171,444.277,448.722,444.2,448.282ZM458.564,433.3a7.858,7.858,0,1,0,7.868,7.849A7.886,7.886,0,0,0,458.564,433.3Zm8.06,1.851a2.322,2.322,0,1,0-2.323-2.319A2.349,2.349,0,0,0,466.624,435.146Z" transform="translate(0)" fill="#fff"></path><path id="Path_38082" data-name="Path 38082" d="M567.016,543.585a6.173,6.173,0,1,1-6.187,6.167A6.195,6.195,0,0,1,567.016,543.585Z" transform="translate(-108.43 -108.604)" fill="#fff"></path><path id="Path_38083" data-name="Path 38083" d="M755.394,504.6a.632.632,0,1,1-.616-.64A.649.649,0,0,1,755.394,504.6Z" transform="translate(-288.141 -71.763)" fill="#fff"></path></g></g></g><g id="Group_27363" data-name="Group 27363"><g class="rotate3"><g id="Group_27242" data-name="Group 27242" transform="translate(514.157 178.851)"><path id="Path_37620" data-name="Path 37620" d="M1703.729,417.379l-20.342,2.143a4.261,4.261,0,0,1-4.708-4.238V391.8a4.261,4.261,0,0,1,3.654-4.218l20.342-2.929a4.261,4.261,0,0,1,4.869,4.218v24.266A4.261,4.261,0,0,1,1703.729,417.379Z" transform="translate(-1678.679 -384.613)" fill="#dc80ff"></path></g></g><g class="secle3"><g id="Group_27359" data-name="Group 27359" transform="translate(150.301 -301.017)"><path id="Path_38076" data-name="Path 38076" d="M376.144,507.5c0-.086-.01-.172-.01-.257q0-4.366,0-8.732v-.279H373.02v-3.615h3.113c0-.1,0-.179,0-.256,0-.946-.02-1.893.019-2.837a4.522,4.522,0,0,1,1.188-3.034,4.174,4.174,0,0,1,2.236-1.2,8.488,8.488,0,0,1,2.115-.1c.575.022,1.148.071,1.722.11a1.37,1.37,0,0,1,.144.026v3.223h-.208c-.707.01-1.416,0-2.122.037a1.279,1.279,0,0,0-1.342,1.347c-.036.872-.012,1.746-.014,2.619a.254.254,0,0,0,.023.058h3.546l-.465,3.614h-3.091c-.007.078-.016.134-.016.19q0,4.475,0,8.95c0,.046.006.092.01.138Z" fill="#fff"></path></g></g></g><g id="Group_27362" data-name="Group 27362" transform="translate(-3.652 -6)"><g class="rotate4"><path id="Path_37600" data-name="Path 37600" d="M1549.011,380.433v15.15a3.37,3.37,0,0,0,3.213,3.367l18.945.89a3.37,3.37,0,0,0,3.529-3.367v-16.04a3.37,3.37,0,0,0-3.37-3.37h-18.946A3.371,3.371,0,0,0,1549.011,380.433Z" transform="translate(-1071.307 -222.972)" fill="url(#linear-gradient-6)"></path></g><g class="secle4"><path id="twitter-bird" d="M16.575,1.595a6.886,6.886,0,0,1-1.7,1.756q.01.195.01.44a9.768,9.768,0,0,1-1.612,5.347,10.331,10.331,0,0,1-1.947,2.215,8.678,8.678,0,0,1-2.716,1.538,9.919,9.919,0,0,1-3.4.574A9.465,9.465,0,0,1,0,11.937a7.353,7.353,0,0,0,.811.047,6.667,6.667,0,0,0,4.224-1.457A3.3,3.3,0,0,1,3.06,9.848a3.342,3.342,0,0,1-1.2-1.683A3.4,3.4,0,0,0,3.4,8.108,3.314,3.314,0,0,1,1.443,6.937,3.29,3.29,0,0,1,.668,4.775V4.734a3.356,3.356,0,0,0,1.541.425A3.378,3.378,0,0,1,1.1,3.947,3.318,3.318,0,0,1,.7,2.33,3.341,3.341,0,0,1,1.155.622a9.682,9.682,0,0,0,3.1,2.51A9.45,9.45,0,0,0,8.163,4.175,3.325,3.325,0,0,1,8.074,3.4a3.276,3.276,0,0,1,1-2.4,3.4,3.4,0,0,1,4.886.076A6.773,6.773,0,0,0,16.115.247a3.288,3.288,0,0,1-1.494,1.882,6.8,6.8,0,0,0,1.954-.534Z" transform="translate(482.259 158.75)" fill="#fff"></path></g></g><g class="secle4"> </g><path id="linkedin" d="M3.714,15.641V5.088H.207V15.641ZM1.961,3.646A1.829,1.829,0,1,0,1.984,0a1.828,1.828,0,1,0-.046,3.646h.023ZM5.656,15.641H9.163V9.748a2.4,2.4,0,0,1,.115-.856,1.92,1.92,0,0,1,1.8-1.283c1.269,0,1.777.968,1.777,2.386v5.646h3.508V9.59c0-3.242-1.731-4.75-4.038-4.75A3.493,3.493,0,0,0,9.14,6.618h.024V5.088H5.656c.046.99,0,10.553,0,10.553Z" transform="translate(546.8 335.313)" fill="#fff"></path></g></g><g class="man"><g id="Group_26804" data-name="Group 26804" transform="translate(163.697 93.255)"><path id="Path_37184" data-name="Path 37184" d="M2859.713,760.861l-52.206,71.023,9.293,84.05h42.913Z" transform="translate(-2798.513 -750.754)" fill="#FFD100"></path><path id="Path_37185" data-name="Path 37185" d="M3166.912,760.861l52.206,71.023-9.292,84.05h-42.913Z" transform="translate(-3105.27 -750.754)" fill="#FFD100"></path><g id="Group_26804-2" data-name="Group 26804" transform="translate(26.821 327.216)"><g id="Group_26803" data-name="Group 26803"><path id="Path_37186" data-name="Path 37186" d="M2972.957,2974.469l4.727-45.636-21.072-3.222,2.08,48.858a5,5,0,0,1-.869,2.819l-2.348,3.444h20.7l-2.348-3.444A5,5,0,0,1,2972.957,2974.469Z" transform="translate(-2951.626 -2925.61)" fill="#fbd3a8"></path><path id="Path_37187" data-name="Path 37187" d="M2929.208,3284.2v4.944c1.1,2.869,27.967,2.976,28.4,0v-4.572a8.979,8.979,0,0,0-.439-2.8c-4.676-14.271-24.585-12.051-27.691.24A8.957,8.957,0,0,0,2929.208,3284.2Z" transform="translate(-2929.208 -3221.182)" fill="#232323"></path><path id="Path_37188" data-name="Path 37188" d="M2946.344,3321.138c3.173-7.1,20.35-7.114,23.261-.049a.812.812,0,0,1-.519,1.089c-5.687,1.7-18,1.6-22.287.06A.811.811,0,0,1,2946.344,3321.138Z" transform="translate(-2943.771 -3258.644)" fill="#ffd9a4"></path><path id="Path_37189" data-name="Path 37189" d="M3048.825,3349.609l.86-2.781a.413.413,0,0,1,.781.006l.69,2.627Z" transform="translate(-3031.302 -3284.889)" fill="#232323"></path><path id="Path_37190" data-name="Path 37190" d="M2935.629,3304.706c-1.126,1.425-1.5,4.213,0,5.439-2.709-.21-5.142-.611-6.4-1.815l-.019-4.943c0-4.545,3.1-7.713,4.853-9a3.348,3.348,0,0,0,2.374,4.464,7,7,0,0,0-4.88,4.169C2931.526,3304.328,2933.367,3304.63,2935.629,3304.706Z" transform="translate(-2929.208 -3240.365)" fill="#3b3b3b"></path><path id="Path_37191" data-name="Path 37191" d="M2949.288,3333.021c-1.084,1.439-1.1,3.772-.35,4.353-1.046-.14-1.879-.394-2.044-1C2947.032,3335.161,2948.149,3333.929,2949.288,3333.021Z" transform="translate(-2944.303 -3273.34)" fill="#f8a364" opacity="0.35"></path><path id="Path_37192" data-name="Path 37192" d="M3090.741,3331.923c1.084,1.439,1.1,3.772.35,4.353,1.047-.14,1.88-.393,2.045-1A5.87,5.87,0,0,0,3090.741,3331.923Z" transform="translate(-3067.078 -3272.403)" fill="#f8a364" opacity="0.35"></path><path id="Path_37193" data-name="Path 37193" d="M3060.363,3292.213c1.72,1.076,2.86,2.355,2.545,2.858s-1.963.037-3.683-1.039-2.859-2.356-2.545-2.858S3058.644,3291.136,3060.363,3292.213Z" transform="translate(-3037.963 -3237.45)" fill="#fff" opacity="0.2"></path><path id="Path_37194" data-name="Path 37194" d="M3094.531,3355.525a.058.058,0,0,1,.115,0l.207,3.624a.532.532,0,0,1-.484.53l-3.233.408a.063.063,0,0,1-.027-.122l2.624-.845a.532.532,0,0,0,.378-.41Z" transform="translate(-3067.355 -3292.505)" fill="#fff" opacity="0.2"></path></g><path id="Path_37195" data-name="Path 37195" d="M2990,3206.86c-4.476,1.668-11.793,1.341-14.8-.294l-.193-4.518,15.638.21Z" transform="translate(-2968.299 -3161.553)" fill="#f8a364" opacity="0.35"></path></g><g id="Group_26806" data-name="Group 26806" transform="translate(66.373 327.216)"><g id="Group_26805" data-name="Group 26805"><path id="Path_37196" data-name="Path 37196" d="M3219.9,2974.469l-4.727-45.636,21.072-3.222-2.081,48.858a5,5,0,0,0,.87,2.819l2.348,3.444h-20.7l2.348-3.444A5,5,0,0,0,3219.9,2974.469Z" transform="translate(-3212.832 -2925.61)" fill="#fbd3a8"></path><path id="Path_37197" data-name="Path 37197" d="M3227.6,3284.2v4.944c-1.1,2.869-27.967,2.976-28.4,0v-4.572a8.986,8.986,0,0,1,.439-2.8c4.676-14.271,24.585-12.051,27.691.24A8.946,8.946,0,0,1,3227.6,3284.2Z" transform="translate(-3199.207 -3221.182)" fill="#232323"></path><path id="Path_37198" data-name="Path 37198" d="M3239.592,3321.138c-3.173-7.1-20.35-7.114-23.261-.049a.812.812,0,0,0,.519,1.089c5.687,1.7,18,1.6,22.287.06A.811.811,0,0,0,3239.592,3321.138Z" transform="translate(-3213.77 -3258.644)" fill="#ffd9a4"></path><path id="Path_37199" data-name="Path 37199" d="M3259.846,3349.609l-.86-2.781a.413.413,0,0,0-.782.006l-.69,2.627Z" transform="translate(-3248.973 -3284.889)" fill="#232323"></path><path id="Path_37200" data-name="Path 37200" d="M3344.522,3304.706c1.126,1.425,1.5,4.213,0,5.439,2.71-.21,5.142-.611,6.4-1.815l.019-4.943c0-4.545-3.1-7.713-4.854-9a3.347,3.347,0,0,1-2.373,4.464,7,7,0,0,1,4.88,4.169C3348.626,3304.328,3346.785,3304.63,3344.522,3304.706Z" transform="translate(-3322.549 -3240.365)" fill="#3b3b3b"></path><path id="Path_37201" data-name="Path 37201" d="M3359.017,3333.021c1.083,1.439,1.1,3.772.35,4.353,1.047-.14,1.88-.394,2.044-1C3361.273,3335.161,3360.156,3333.929,3359.017,3333.021Z" transform="translate(-3335.607 -3273.34)" fill="#f8a364" opacity="0.35"></path><path id="Path_37202" data-name="Path 37202" d="M3217.565,3331.923c-1.083,1.439-1.1,3.772-.35,4.353-1.047-.14-1.88-.393-2.044-1C3215.309,3334.062,3216.426,3332.831,3217.565,3331.923Z" transform="translate(-3212.832 -3272.403)" fill="#f8a364" opacity="0.35"></path><path id="Path_37203" data-name="Path 37203" d="M3225,3292.213c-1.72,1.076-2.859,2.355-2.545,2.858s1.963.037,3.683-1.039,2.859-2.356,2.544-2.858S3226.716,3291.136,3225,3292.213Z" transform="translate(-3219.002 -3237.45)" fill="#fff" opacity="0.2"></path><path id="Path_37204" data-name="Path 37204" d="M3205.66,3355.525a.057.057,0,0,0-.114,0l-.207,3.624a.532.532,0,0,0,.483.53l3.233.408a.063.063,0,0,0,.027-.122l-2.623-.845a.531.531,0,0,1-.378-.41Z" transform="translate(-3204.441 -3292.505)" fill="#fff" opacity="0.2"></path></g><path id="Path_37205" data-name="Path 37205" d="M3241.145,3206.86c4.476,1.668,11.793,1.341,14.8-.294l.193-4.518-15.638.21Z" transform="translate(-3234.447 -3161.553)" fill="#f8a364" opacity="0.35"></path></g><path id="Path_37206" data-name="Path 37206" d="M2955.689,2561.019c-14.893,11.837-79.147,11.837-88.186,0l4.169-115.928,80.144-.63Z" transform="translate(-2849.721 -2187.728)" fill="#6A2186"></path><path id="Path_37207" data-name="Path 37207" d="M3262.756,1127.207l31.045-24.286,12.809,2.572c1.19,10.178-.51,22.028-3.659,34.715-10.9,22.255-20.815,25.279-20.815,25.279l-19.38-.048Z" transform="translate(-3187.074 -1042.707)" fill="#2d2d2d"></path><path id="Path_37208" data-name="Path 37208" d="M2825.136,1127.207l-31.045-24.286-12.809,2.572c-1.19,10.178.51,22.028,3.66,34.715,10.9,22.255,20.815,25.279,20.815,25.279l19.379-.048Z" transform="translate(-2775.804 -1042.707)" fill="#2d2d2d"></path><ellipse id="Ellipse_442" data-name="Ellipse 442" cx="13.267" cy="6.239" rx="13.267" ry="6.239" transform="translate(48.745 130.185)" fill="#aeb5b5"></ellipse><path id="Path_37209" data-name="Path 37209" d="M3105.771,1566.521h-20.492c.17,8.319-.987,13.558-2.208,16.834a3.206,3.206,0,0,0,.887,3.5c4.476,4,17.847,5.435,23.291-.434a3.2,3.2,0,0,0,.655-3.273C3106.711,1579.863,3105.6,1574.67,3105.771,1566.521Z" transform="translate(-3033.542 -1438.396)" fill="#fbd3a8"></path><path id="Path_37210" data-name="Path 37210" d="M3099.944,1560.284l19.545.131.327,5.631c-3.068,4.517-18.144,4.327-20.428-.212Z" transform="translate(-3047.638 -1433.072)" fill="#f8a364" opacity="0.35"></path><path id="Path_37211" data-name="Path 37211" d="M2920.813,1616.594v222.845H2879.5l2.991-146.1-.048-70.226a1.226,1.226,0,0,1,.433-.868c4.939-4.364,13.458-6.251,23.28-7.165a1.382,1.382,0,0,0,1.119-.776l1.727-3.6a.386.386,0,0,1,.7.007C2912.486,1616.582,2920.813,1616.594,2920.813,1616.594Z" transform="translate(-2859.963 -1475.921)" fill="#6A2186"></path><g id="Group_26808" data-name="Group 26808" transform="translate(4.53 80.619)"><path id="Path_37212" data-name="Path 37212" d="M2789.455,1266.229c-8.829,0-14.459-11.753-11.719-19.339a7.06,7.06,0,0,1,3.766-4.164c3.194-1.37,6.076.317,7.953,1.576Z" transform="translate(-2777.039 -1242.215)" fill="#fbd3a8"></path><path id="Path_37213" data-name="Path 37213" d="M2812.165,1279c-11.972-4.258-9.952,13.434-.112,13.867" transform="translate(-2799.977 -1273.045)" fill="#fbbd89"></path><g id="Group_26807" data-name="Group 26807" transform="translate(3.9 5.116)"><path id="Path_37214" data-name="Path 37214" d="M2812.221,1278.419a13.169,13.169,0,0,0-3.253-.729,6.937,6.937,0,0,0-1.648.057,4.532,4.532,0,0,0-1.538.535,3.639,3.639,0,0,0-1.179,1.12,4.658,4.658,0,0,0-.644,1.533,7.757,7.757,0,0,0-.2,1.682,13.526,13.526,0,0,0,.1,1.7,9.825,9.825,0,0,1-.084-3.425,4.89,4.89,0,0,1,.59-1.641,3.957,3.957,0,0,1,1.217-1.284,4.945,4.945,0,0,1,1.645-.674,7.435,7.435,0,0,1,1.761-.156,13.8,13.8,0,0,1,3.45.58Z" transform="translate(-2803.664 -1277.139)" fill="#603813"></path></g></g><g id="Group_26811" data-name="Group 26811" transform="translate(106.506 80.619)"><path id="Path_37215" data-name="Path 37215" d="M3474.969,1266.229c8.83,0,14.459-11.753,11.719-19.339a7.063,7.063,0,0,0-3.766-4.164c-3.195-1.37-6.075.317-7.953,1.576Z" transform="translate(-3474.706 -1242.215)" fill="#fbd3a8"></path><path id="Path_37216" data-name="Path 37216" d="M3476.529,1279c11.972-4.258,9.952,13.434.112,13.867" transform="translate(-3476.038 -1273.045)" fill="#fbbd89"></path><g id="Group_26810" data-name="Group 26810" transform="translate(0 5.116)"><g id="Group_26809" data-name="Group 26809"><path id="Path_37217" data-name="Path 37217" d="M3473.175,1277.721a13.792,13.792,0,0,1,3.45-.58,7.436,7.436,0,0,1,1.761.156,4.947,4.947,0,0,1,1.645.674,3.959,3.959,0,0,1,1.217,1.284,4.89,4.89,0,0,1,.59,1.641,9.8,9.8,0,0,1-.084,3.425,13.526,13.526,0,0,0,.1-1.7,7.758,7.758,0,0,0-.2-1.682,4.663,4.663,0,0,0-.644-1.533,3.634,3.634,0,0,0-1.179-1.12,4.526,4.526,0,0,0-1.537-.535,6.941,6.941,0,0,0-1.649-.057,13.16,13.16,0,0,0-3.253.729Z" transform="translate(-3473.175 -1277.139)" fill="#603813"></path></g></g></g><path id="Path_37218" data-name="Path 37218" d="M2926.2,958.413h-90c-12.212,55.63-3.438,92.213,44.384,93.36h1.234C2929.642,1050.626,2938.416,1014.042,2926.2,958.413Z" transform="translate(-2818.779 -919.368)" fill="#fbd3a8"></path><ellipse id="Ellipse_443" data-name="Ellipse 443" cx="4.007" cy="6.396" rx="4.007" ry="6.396" transform="translate(40.047 78.658)" fill="#2d2d2d"></ellipse><ellipse id="Ellipse_444" data-name="Ellipse 444" cx="1.951" cy="2.415" rx="1.951" ry="2.415" transform="translate(42.672 79.898)" fill="#fff"></ellipse><ellipse id="Ellipse_445" data-name="Ellipse 445" cx="4.007" cy="6.396" rx="4.007" ry="6.396" transform="translate(76.004 78.658)" fill="#2d2d2d"></ellipse><ellipse id="Ellipse_446" data-name="Ellipse 446" cx="1.951" cy="2.415" rx="1.951" ry="2.415" transform="translate(78.629 79.898)" fill="#fff"></ellipse><path id="Path_37221" data-name="Path 37221" d="M3143.552,1366.349a1.2,1.2,0,0,0,.573-.062c3.479-1.02,3.983,2.881,1.183,3.235-2.672.245-4.078-.658-4.938-1.816a1.056,1.056,0,0,1,.679-1.677A8.792,8.792,0,0,1,3143.552,1366.349Z" transform="translate(-3082.437 -1267.255)" fill="#f8a364"></path><path id="Path_37222" data-name="Path 37222" d="M3264.224,1157.365c-3.85.072-5.311-3.624-2.626-5.874a5.423,5.423,0,0,1,4.1-.994c4,.429,6.475,1.844,6.916,4.581a2.993,2.993,0,0,1-.859,2.7c-1.408,1.289-3.6.794-5.979-.149A4.015,4.015,0,0,0,3264.224,1157.365Z" transform="translate(-3184.916 -1083.275)" fill="#2d2d2d"></path><path id="Path_37223" data-name="Path 37223" d="M3007.5,1157.365c3.85.072,5.311-3.624,2.626-5.874a5.424,5.424,0,0,0-4.1-.994c-4,.429-6.474,1.844-6.915,4.581a2.992,2.992,0,0,0,.859,2.7c1.408,1.289,3.6.794,5.979-.149A4.015,4.015,0,0,1,3007.5,1157.365Z" transform="translate(-2962.009 -1083.275)" fill="#2d2d2d"></path><path id="Path_37224" data-name="Path 37224" d="M2795.207,901.935" transform="translate(-2788.016 -871.163)" fill="#f1f2f2"></path><path id="Path_37225" data-name="Path 37225" d="M2842.977,1106.421c-7.363,8.442-9.158,24.145-8.262,40.994-4.848-14.837-2.968-40.994-2.968-40.994Z" transform="translate(-2818.896 -1045.694)" fill="#2d2d2d"></path><path id="Path_37226" data-name="Path 37226" d="M3435.126,1106.421c7.363,8.442,9.158,24.145,8.263,40.994,4.847-14.837,2.968-40.994,2.968-40.994Z" transform="translate(-3334.194 -1045.694)" fill="#2d2d2d"></path><path id="Path_37227" data-name="Path 37227" d="M3061.649,1615.1c.516,5.008,6.069,8.736,12.874,9.24v98.806h7.1l-.947-97.951-4.372-1.172v-7.41c-5.068-.293-9.135-1.982-11.134-5.927a.39.39,0,0,0-.673.039l-1.924,3.9A1.405,1.405,0,0,1,3061.649,1615.1Z" transform="translate(-3015.427 -1475.94)" fill="#aeb5b5" opacity="0.5"></path><path id="Path_37228" data-name="Path 37228" d="M3149.681,1701.475l-5.512,1.6v97.708" transform="translate(-3085.859 -1553.58)" fill="none" stroke="#aeb5b5" stroke-miterlimit="10" stroke-width="15"></path><path id="Path_37229" data-name="Path 37229" d="M3150.933,1616.594V1624l-4.372,1.172v214.263h45.275l-2.586-146.1.048-70.226a1.225,1.225,0,0,0-.433-.868c-4.939-4.364-13.458-6.251-23.28-7.165a1.381,1.381,0,0,1-1.119-.776l-1.728-3.6a.386.386,0,0,0-.7.007C3159.259,1616.582,3150.933,1616.594,3150.933,1616.594Z" transform="translate(-3087.901 -1475.921)" fill="#6A2186"></path><path id="Path_37230" data-name="Path 37230" d="M3160.066,1615.1c-.516,5.008-6.068,8.736-12.873,9.24v98.806h-7.1l.947-97.951,4.371-1.172v-7.41c5.068-.293,9.135-1.982,11.134-5.927a.389.389,0,0,1,.672.039l1.924,3.9A1.406,1.406,0,0,0,3160.066,1615.1Z" transform="translate(-3082.382 -1475.94)" fill="#aeb5b5" opacity="0.5"></path><g id="Group_26812" data-name="Group 26812" transform="translate(59.283 154.004)"><circle id="Ellipse_447" data-name="Ellipse 447" cx="1.612" cy="1.612" r="1.612" transform="translate(0.494)" fill="#aeb5b5"></circle><circle id="Ellipse_448" data-name="Ellipse 448" cx="1.612" cy="1.612" r="1.612" transform="translate(0 20.519) rotate(-22.5)" fill="#aeb5b5"></circle><circle id="Ellipse_449" data-name="Ellipse 449" cx="1.612" cy="1.612" r="1.612" transform="translate(0 41.383) rotate(-22.5)" fill="#aeb5b5"></circle><circle id="Ellipse_450" data-name="Ellipse 450" cx="1.612" cy="1.612" r="1.612" transform="translate(0.257 63.368) rotate(-80.783)" fill="#aeb5b5"></circle><circle id="Ellipse_451" data-name="Ellipse 451" cx="1.612" cy="1.612" r="1.612" transform="translate(0.494 80.203)" fill="#aeb5b5"></circle></g><path id="Path_37231" data-name="Path 37231" d="M3057.492,1406.875v-4.1c-9.1-.419-14.688.807-17.534,3.784a9.374,9.374,0,0,0-2.542,6.49v4.766h4.395c-1.644-3.861-2.12-7.111,0-9.274a5.241,5.241,0,0,1,3.691-1.533Z" transform="translate(-2994.743 -1298.567)" fill="#2d2d2d"></path><path id="Path_37232" data-name="Path 37232" d="M3170.385,1406.875v-4.1c9.1-.419,14.688.807,17.535,3.784a9.375,9.375,0,0,1,2.541,6.49v4.766h-4.395c1.644-3.861,2.12-7.111,0-9.274a5.242,5.242,0,0,0-3.691-1.533Z" transform="translate(-3108.234 -1298.567)" fill="#2d2d2d"></path><g id="Group_26817" data-name="Group 26817" transform="translate(0 0)"><g id="Group_26816" data-name="Group 26816" clip-path="url(#clip-path-2)"><g id="Group_26815" data-name="Group 26815" transform="translate(-53.486 -34.735)"><rect id="Rectangle_9653" data-name="Rectangle 9653" width="242.536" height="231.991" transform="translate(0 2.72)" fill="#fff"></rect><g id="Group_26813" data-name="Group 26813" transform="translate(2.552 2.72)" opacity="0.6"><rect id="Rectangle_9654" data-name="Rectangle 9654" width="4.257" height="231.991" transform="translate(35.873)" fill="#6A2186"></rect><rect id="Rectangle_9655" data-name="Rectangle 9655" width="4.257" height="231.991" transform="translate(26.905)" fill="#6A2186"></rect><rect id="Rectangle_9656" data-name="Rectangle 9656" width="4.257" height="231.991" transform="translate(17.937)" fill="#6A2186"></rect><rect id="Rectangle_9657" data-name="Rectangle 9657" width="4.257" height="231.991" transform="translate(8.968)" fill="#6A2186"></rect><rect id="Rectangle_9658" data-name="Rectangle 9658" width="4.257" height="231.991" fill="#6A2186"></rect><rect id="Rectangle_9659" data-name="Rectangle 9659" width="4.257" height="231.991" transform="translate(44.841)" fill="#6A2186"></rect><rect id="Rectangle_9660" data-name="Rectangle 9660" width="4.257" height="231.991" transform="translate(53.81)" fill="#6A2186"></rect><rect id="Rectangle_9661" data-name="Rectangle 9661" width="4.257" height="231.991" transform="translate(62.778)" fill="#6A2186"></rect><rect id="Rectangle_9662" data-name="Rectangle 9662" width="4.257" height="231.991" transform="translate(71.746)" fill="#6A2186"></rect><rect id="Rectangle_9663" data-name="Rectangle 9663" width="4.257" height="231.991" transform="translate(80.714)" fill="#6A2186"></rect><rect id="Rectangle_9664" data-name="Rectangle 9664" width="4.257" height="231.991" transform="translate(125.556)" fill="#6A2186"></rect><rect id="Rectangle_9665" data-name="Rectangle 9665" width="4.257" height="231.991" transform="translate(116.588)" fill="#6A2186"></rect><rect id="Rectangle_9666" data-name="Rectangle 9666" width="4.257" height="231.991" transform="translate(107.619)" fill="#6A2186"></rect><rect id="Rectangle_9667" data-name="Rectangle 9667" width="4.257" height="231.991" transform="translate(98.651)" fill="#6A2186"></rect><rect id="Rectangle_9668" data-name="Rectangle 9668" width="4.257" height="231.991" transform="translate(89.683)" fill="#6A2186"></rect><rect id="Rectangle_9669" data-name="Rectangle 9669" width="4.257" height="231.991" transform="translate(134.524)" fill="#6A2186"></rect><rect id="Rectangle_9670" data-name="Rectangle 9670" width="4.257" height="231.991" transform="translate(143.492)" fill="#6A2186"></rect><rect id="Rectangle_9671" data-name="Rectangle 9671" width="4.257" height="231.991" transform="translate(152.461)" fill="#6A2186"></rect><rect id="Rectangle_9672" data-name="Rectangle 9672" width="4.257" height="231.991" transform="translate(161.429)" fill="#6A2186"></rect><rect id="Rectangle_9673" data-name="Rectangle 9673" width="4.257" height="231.991" transform="translate(170.397)" fill="#6A2186"></rect><rect id="Rectangle_9674" data-name="Rectangle 9674" width="4.257" height="231.991" transform="translate(179.365)" fill="#6A2186"></rect><rect id="Rectangle_9675" data-name="Rectangle 9675" width="4.257" height="231.991" transform="translate(188.334)" fill="#6A2186"></rect><rect id="Rectangle_9676" data-name="Rectangle 9676" width="4.257" height="231.991" transform="translate(197.302)" fill="#6A2186"></rect><rect id="Rectangle_9677" data-name="Rectangle 9677" width="4.257" height="231.991" transform="translate(206.27)" fill="#6A2186"></rect><rect id="Rectangle_9678" data-name="Rectangle 9678" width="4.257" height="231.991" transform="translate(215.239)" fill="#6A2186"></rect><rect id="Rectangle_9679" data-name="Rectangle 9679" width="4.257" height="231.991" transform="translate(224.207)" fill="#6A2186"></rect><rect id="Rectangle_9680" data-name="Rectangle 9680" width="4.257" height="231.991" transform="translate(233.175)" fill="#6A2186"></rect></g><g id="Group_26814" data-name="Group 26814" transform="translate(5.273 0)" opacity="0.8"><rect id="Rectangle_9681" data-name="Rectangle 9681" width="4.257" height="231.991" transform="translate(0 201.559) rotate(-90)" fill="#6A2186"></rect><rect id="Rectangle_9682" data-name="Rectangle 9682" width="4.257" height="231.991" transform="translate(0 210.527) rotate(-90)" fill="#6A2186"></rect><rect id="Rectangle_9683" data-name="Rectangle 9683" width="4.257" height="231.991" transform="translate(0 219.495) rotate(-90)" fill="#6A2186"></rect><rect id="Rectangle_9684" data-name="Rectangle 9684" width="4.257" height="231.991" transform="translate(0 228.463) rotate(-90)" fill="#6A2186"></rect><rect id="Rectangle_9685" data-name="Rectangle 9685" width="4.257" height="231.991" transform="translate(0 237.432) rotate(-90)" fill="#6A2186"></rect><rect id="Rectangle_9686" data-name="Rectangle 9686" width="4.257" height="231.991" transform="translate(0 192.59) rotate(-90)" fill="#6A2186"></rect><rect id="Rectangle_9687" data-name="Rectangle 9687" width="4.257" height="231.991" transform="translate(0 183.622) rotate(-90)" fill="#6A2186"></rect><rect id="Rectangle_9688" data-name="Rectangle 9688" width="4.257" height="231.991" transform="translate(0 174.654) rotate(-90)" fill="#6A2186"></rect><rect id="Rectangle_9689" data-name="Rectangle 9689" width="4.257" height="231.991" transform="translate(0 165.685) rotate(-90)" fill="#6A2186"></rect><rect id="Rectangle_9690" data-name="Rectangle 9690" width="4.257" height="231.991" transform="translate(0 156.717) rotate(-90)" fill="#6A2186"></rect><rect id="Rectangle_9691" data-name="Rectangle 9691" width="4.257" height="231.991" transform="translate(0 111.876) rotate(-90)" fill="#6A2186"></rect><rect id="Rectangle_9692" data-name="Rectangle 9692" width="4.257" height="231.991" transform="translate(0 120.844) rotate(-90)" fill="#6A2186"></rect><rect id="Rectangle_9693" data-name="Rectangle 9693" width="4.257" height="231.991" transform="translate(0 129.812) rotate(-90)" fill="#6A2186"></rect><rect id="Rectangle_9694" data-name="Rectangle 9694" width="4.257" height="231.991" transform="translate(0 138.781) rotate(-90)" fill="#6A2186"></rect><rect id="Rectangle_9695" data-name="Rectangle 9695" width="4.257" height="231.991" transform="translate(0 147.749) rotate(-90)" fill="#6A2186"></rect><rect id="Rectangle_9696" data-name="Rectangle 9696" width="4.257" height="231.991" transform="translate(0 102.908) rotate(-90)" fill="#6A2186"></rect><rect id="Rectangle_9697" data-name="Rectangle 9697" width="4.257" height="231.991" transform="translate(0 93.939) rotate(-90)" fill="#6A2186"></rect><rect id="Rectangle_9698" data-name="Rectangle 9698" width="4.257" height="231.991" transform="translate(0 84.971) rotate(-90)" fill="#6A2186"></rect><rect id="Rectangle_9699" data-name="Rectangle 9699" width="4.257" height="231.991" transform="translate(0 76.003) rotate(-90)" fill="#6A2186"></rect><rect id="Rectangle_9700" data-name="Rectangle 9700" width="4.257" height="231.991" transform="translate(0 67.034) rotate(-90)" fill="#6A2186"></rect><rect id="Rectangle_9701" data-name="Rectangle 9701" width="4.257" height="231.991" transform="translate(0 58.066) rotate(-90)" fill="#6A2186"></rect><rect id="Rectangle_9702" data-name="Rectangle 9702" width="4.257" height="231.991" transform="translate(0 49.098) rotate(-90)" fill="#6A2186"></rect><rect id="Rectangle_9703" data-name="Rectangle 9703" width="4.257" height="231.991" transform="translate(0 40.13) rotate(-90)" fill="#6A2186"></rect><rect id="Rectangle_9704" data-name="Rectangle 9704" width="4.257" height="231.991" transform="translate(0 31.161) rotate(-90)" fill="#6A2186"></rect><rect id="Rectangle_9705" data-name="Rectangle 9705" width="4.257" height="231.991" transform="translate(0 22.193) rotate(-90)" fill="#6A2186"></rect><rect id="Rectangle_9706" data-name="Rectangle 9706" width="4.257" height="231.991" transform="translate(0 13.225) rotate(-90)" fill="#6A2186"></rect><rect id="Rectangle_9707" data-name="Rectangle 9707" width="4.257" height="231.991" transform="translate(0 4.257) rotate(-90)" fill="#6A2186"></rect></g></g></g></g><path id="Rectangle_9708" data-name="Rectangle 9708" d="M8.694,0H111.578a8.694,8.694,0,0,1,8.694,8.694v0a3.105,3.105,0,0,1-3.105,3.105H3.105A3.105,3.105,0,0,1,0,8.694v0A8.694,8.694,0,0,1,8.694,0Z" transform="translate(1.983 36.215)" fill="#2d2d2d"></path><g id="Group_26823" data-name="Group 26823" transform="translate(50.515 109.191)"><g id="Group_26821" data-name="Group 26821" transform="translate(0.268 0.267)"><g id="Group_26818" data-name="Group 26818"><path id="Path_37234" data-name="Path 37234" d="M3115.611,1439.087a81.779,81.779,0,0,1-22.8,0s-1.215,11.255,11.295,11.223h.208C3116.825,1450.342,3115.611,1439.087,3115.611,1439.087Z" transform="translate(-3092.78 -1439.087)" fill="#be1717"></path></g><g id="Group_26819" data-name="Group 26819" transform="translate(0)"><path id="Path_37235" data-name="Path 37235" d="M3115.613,1439.087a81.755,81.755,0,0,1-22.8,0,10.028,10.028,0,0,0-.016,1.41c2.268.879,5.866,1.593,11.415,1.573,5.55.02,9.148-.694,11.415-1.573A9.946,9.946,0,0,0,3115.613,1439.087Z" transform="translate(-3092.783 -1439.087)" fill="#fff"></path></g><g id="Group_26820" data-name="Group 26820" transform="translate(3.115 5.92)"><path id="Path_37236" data-name="Path 37236" d="M3130.68,1482.164a12.8,12.8,0,0,0-8.222-2.665v0h-.187v0a12.8,12.8,0,0,0-8.223,2.665c1.684,1.53,4.263,2.646,8.212,2.636h.208C3126.417,1484.81,3129,1483.695,3130.68,1482.164Z" transform="translate(-3114.048 -1479.497)" fill="#ff2929"></path></g></g><g id="Group_26822" data-name="Group 26822"><path id="Path_37237" data-name="Path 37237" d="M3102.793,1449.019h-.245c-.177,0-.35,0-.521-.006l-.115,0c-.166,0-.329-.011-.49-.02l-.082,0c-.143-.009-.282-.019-.42-.03l-.1-.008q-.227-.02-.446-.046l-.116-.014q-.192-.024-.378-.051l-.079-.011c-.137-.021-.271-.044-.4-.069l-.134-.025c-.127-.024-.253-.05-.376-.077l-.074-.017-.041-.01c-.094-.022-.187-.044-.278-.068l-.012,0-.136-.035c-.11-.029-.218-.06-.325-.091l-.134-.041-.025-.008-.2-.064c-.075-.025-.149-.05-.223-.076l-.214-.078-.185-.072-.13-.053q-.165-.068-.324-.141l-.089-.04q-.1-.048-.2-.1l-.01-.005c-.132-.065-.274-.139-.415-.218l-.031-.017c-5.486-3.068-4.878-9.729-4.85-10.01a.272.272,0,0,1,.3-.245l.043.005a81.471,81.471,0,0,0,22.646,0l.042-.005a.267.267,0,0,1,.3.24c.029.286.636,6.946-4.85,10.015l-.028.016c-.147.081-.286.154-.426.223-.068.034-.137.066-.206.1l-.087.04q-.16.073-.326.141l-.129.052-.186.073-.211.077c-.075.026-.15.052-.227.077l-.2.064-.033.01-.128.039c-.106.032-.215.062-.324.091l-.144.037c-.1.024-.188.047-.282.068l-.042.01-.075.017c-.123.027-.249.053-.375.077l-.135.025q-.2.037-.4.069l-.08.011q-.185.027-.377.051l-.117.015c-.146.017-.294.032-.446.046l-.1.008c-.138.011-.278.022-.419.03l-.083.005h0q-.241.013-.49.02l-.114,0C3103.116,1449.017,3102.956,1449.019,3102.793,1449.019Zm-.144-.536h.107c.171,0,.34,0,.507-.006l.112,0c.161,0,.32-.011.476-.02h0l.08,0q.206-.012.406-.029l.1-.008q.219-.019.431-.044l.113-.014c.123-.015.245-.031.364-.049l.076-.011c.132-.021.261-.043.389-.066l.13-.024c.122-.023.242-.048.36-.074l.112-.026c.09-.021.178-.042.266-.064l.143-.037q.157-.042.31-.087l.121-.037.032-.01.189-.061.215-.073.2-.074c.06-.022.118-.045.177-.069l.122-.05q.158-.065.31-.134l.082-.037c.066-.031.131-.062.2-.093.133-.065.264-.134.4-.211l.028-.015c4.648-2.6,4.664-7.952,4.6-9.224a81.533,81.533,0,0,1-22.305,0c-.066,1.288-.042,6.628,4.6,9.223l.021.012c.141.078.276.149.407.213.066.033.131.064.2.094l.084.038q.151.068.308.133l.124.05c.058.023.116.046.176.068s.135.05.2.074.141.049.212.073l.19.061.026.008.126.039q.153.045.311.087l.129.033.013,0c.088.022.177.044.267.065l.044.011.066.015c.119.026.239.051.362.074l.13.024q.192.035.389.066l.076.011q.18.027.365.049l.113.014q.212.025.432.044l.1.008q.2.016.407.029l.08,0c.156.009.315.015.476.02l.111,0c.167,0,.334.007.507.006Z" transform="translate(-3090.952 -1437.261)" fill="#f8a364"></path></g></g><path id="Path_37238" data-name="Path 37238" d="M2962.786,1444.472c-5.735,9.223-16.127,12.224-23.658,8.649l-4.394.35c-2.625,3.553-10.719,5.3-14.073,4.242-.222-1.84.3-1.3,1.61-2.055h-5.842c1.308.755,1.832.215,1.61,2.055-3.354,1.054-11.447-.689-14.072-4.242l-4.395-.35c-7.53,3.575-17.923.574-23.658-8.649,5.607,11.5,17.7,21.336,43.136,22.347v.024c.1,0,.5,0,.6,0v-.024C2945.088,1465.808,2957.179,1455.975,2962.786,1444.472Z" transform="translate(-2856.901 -1334.225)" fill="#2d2d2d"></path><g id="Group_26839" data-name="Group 26839" transform="translate(4.565 145.26)"><g id="Group_26830" data-name="Group 26830"><path id="Path_37239" data-name="Path 37239" d="M2795.269,1685.863c-6.836,6.034-11.635,31.99-15.993,60.444-1.18,6.94,13.186,10.21,14.827,2.721,4.6-22.453,11.427-51.213,11.427-51.213C2808.736,1684.139,2801.217,1680.486,2795.269,1685.863Z" transform="translate(-2778.924 -1683.488)" fill="#6A2186"></path><g id="Group_26826" data-name="Group 26826" transform="translate(45.62 26.685)"><path id="Path_37240" data-name="Path 37240" d="M3089.057,1887.21l3.94-1.492c1.36-7.9,3.138-14.84,5.768-19.8l.107-.072a1.091,1.091,0,0,1,1.7.895l.164,20.4a4.568,4.568,0,0,1-.623,2.355c-2.019,3.428-6.8,5.663-11.411,7.4Z" transform="translate(-3088.706 -1865.652)" fill="#fbd3a8"></path><g id="Group_26824" data-name="Group 26824" transform="translate(8.565 9.703)"><path id="Path_37241" data-name="Path 37241" d="M3147.415,1938.59l-.241-.091a19.7,19.7,0,0,0,.925-3.886c.224-1.39.386-2.394.993-2.659.371-.162.857-.028,1.533.422l-.143.214c-.587-.391-1.007-.522-1.286-.4-.479.209-.639,1.2-.842,2.464A19.952,19.952,0,0,1,3147.415,1938.59Z" transform="translate(-3147.174 -1931.888)" fill="#f8a364"></path></g><g id="Group_26825" data-name="Group 26825" transform="translate(7.55 4.111)"><path id="Path_37242" data-name="Path 37242" d="M3140.482,1902.43l-.239-.1a28.686,28.686,0,0,0,1.235-4.348c.486-2.14.87-3.829,1.8-4.2a1.479,1.479,0,0,1,1.388.3l-.143.214a1.253,1.253,0,0,0-1.15-.272c-.8.32-1.19,2.034-1.641,4.017A28.852,28.852,0,0,1,3140.482,1902.43Z" transform="translate(-3140.244 -1893.713)" fill="#f8a364"></path></g></g><g id="Group_26827" data-name="Group 26827" transform="translate(0 45.242)"><path id="Path_37243" data-name="Path 37243" d="M2786.593,2022.335c9.526-3,19.269-6.21,28.468-9.2,5.374-1.382,10-4.2,10.046-5.362l3.8-1.737a1.527,1.527,0,0,0,.878-1.606,24.308,24.308,0,0,0-4.41-9.469,1.525,1.525,0,0,0-1.771-.335l-3.551,1.683c-2.387-.292-5.955,1.318-9.963,3.046-4.419,1.839-15.076,4.86-27,8a7.749,7.749,0,0,0-2.418,13.9A7.452,7.452,0,0,0,2786.593,2022.335Z" transform="translate(-2777.278 -1994.166)" fill="#6A2186"></path><path id="Path_37244" data-name="Path 37244" d="M3074.321,2005.928c-.065-.141-5.074-11.45-5.074-11.45l4.2-2.092c2.385-.943,7.79,10.53,4.9,11.73Z" transform="translate(-3026.477 -1992.331)" fill="#6A2186"></path></g><g id="Group_26828" data-name="Group 26828" transform="translate(16.758 17.074)"><path id="Path_37245" data-name="Path 37245" d="M2900.875,1800.046c-.61,3.212-1.261,6.414-1.923,9.614s-1.342,6.4-2.028,9.59l-1.043,4.788-1.062,4.784c-.7,3.19-1.437,6.374-2.164,9.559l-.535-.495c2.121-.658,4.249-1.293,6.373-1.941s4.256-1.272,6.384-1.909,4.261-1.256,6.4-1.866,4.272-1.22,6.414-1.81q-3.148,1.1-6.307,2.153c-2.1.711-4.216,1.4-6.325,2.1s-4.222,1.38-6.338,2.055-4.229,1.359-6.348,2.023l-.7.218.159-.712c.712-3.189,1.418-6.378,2.152-9.562l1.1-4.777,1.115-4.772q1.129-4.769,2.288-9.531C2899.259,1806.38,2900.046,1803.208,2900.875,1800.046Z" transform="translate(-2891.674 -1800.046)" fill="#e5dfdf"></path></g><g id="Group_26829" data-name="Group 26829" transform="translate(17.113 58.707)"><path id="Path_37246" data-name="Path 37246" d="M2894.1,2096.98c2.577-1.229,5.187-2.377,7.807-3.5,1.307-.568,2.626-1.106,3.939-1.659l3.958-1.613q3.965-1.6,7.969-3.094c2.668-1,5.348-1.975,8.061-2.867-2.577,1.229-5.187,2.378-7.807,3.5s-5.252,2.212-7.9,3.271l-3.976,1.569c-1.331.508-2.656,1.031-3.994,1.523C2899.491,2095.113,2896.811,2096.086,2894.1,2096.98Z" transform="translate(-2894.099 -2084.25)" fill="#e5dfdf"></path></g></g><g id="Group_26837" data-name="Group 26837" transform="translate(57.184)"><path id="Path_37247" data-name="Path 37247" d="M3385.4,1685.863c6.836,6.034,11.635,31.99,15.994,60.444,1.179,6.94-13.186,10.21-14.827,2.721-4.6-22.453-11.428-51.213-11.428-51.213C3371.93,1684.139,3379.448,1680.486,3385.4,1685.863Z" transform="translate(-3344.087 -1683.488)" fill="#6A2186"></path><g id="Group_26833" data-name="Group 26833" transform="translate(0 26.685)"><path id="Path_37248" data-name="Path 37248" d="M3179.329,1887.21l-3.94-1.492c-1.36-7.9-3.138-14.84-5.768-19.8l-.107-.072a1.091,1.091,0,0,0-1.7.895l-.164,20.4a4.568,4.568,0,0,0,.623,2.355c2.019,3.428,6.8,5.663,11.411,7.4Z" transform="translate(-3167.646 -1865.652)" fill="#fbd3a8"></path><g id="Group_26831" data-name="Group 26831" transform="translate(0.019 9.703)"><path id="Path_37249" data-name="Path 37249" d="M3170.983,1938.59l.241-.091a19.666,19.666,0,0,1-.924-3.886c-.224-1.39-.386-2.394-.994-2.659-.37-.162-.857-.028-1.532.422l.143.214c.587-.391,1.008-.522,1.287-.4.478.209.638,1.2.842,2.464A19.954,19.954,0,0,0,3170.983,1938.59Z" transform="translate(-3167.774 -1931.888)" fill="#f8a364"></path></g><g id="Group_26832" data-name="Group 26832" transform="translate(0.065 4.111)"><path id="Path_37250" data-name="Path 37250" d="M3172.268,1902.43l.239-.1a28.686,28.686,0,0,1-1.235-4.348c-.486-2.14-.87-3.829-1.8-4.2a1.48,1.48,0,0,0-1.388.3l.143.214a1.253,1.253,0,0,1,1.15-.272c.8.32,1.19,2.034,1.641,4.017A28.882,28.882,0,0,0,3172.268,1902.43Z" transform="translate(-3168.087 -1893.713)" fill="#f8a364"></path></g></g><g id="Group_26834" data-name="Group 26834" transform="translate(4.96 45.242)"><path id="Path_37251" data-name="Path 37251" d="M3245.914,2022.335c-9.527-3-19.268-6.21-28.468-9.2-5.374-1.382-10-4.2-10.047-5.362l-3.8-1.737a1.528,1.528,0,0,1-.878-1.606,24.319,24.319,0,0,1,4.41-9.469,1.525,1.525,0,0,1,1.771-.335l3.551,1.683c2.387-.292,5.955,1.318,9.963,3.046,4.419,1.839,15.075,4.86,27,8a7.749,7.749,0,0,1,2.419,13.9A7.452,7.452,0,0,1,3245.914,2022.335Z" transform="translate(-3202.533 -1994.166)" fill="#6A2186"></path><path id="Path_37252" data-name="Path 37252" d="M3206.354,2005.928c.065-.141,5.074-11.45,5.074-11.45l-4.2-2.092c-2.385-.943-7.79,10.53-4.9,11.73Z" transform="translate(-3201.503 -1992.331)" fill="#6A2186"></path></g><g id="Group_26835" data-name="Group 26835" transform="translate(14.885 17.074)"><path id="Path_37253" data-name="Path 37253" d="M3286.068,1800.046c.611,3.212,1.262,6.414,1.923,9.614s1.342,6.4,2.028,9.59l1.043,4.788,1.062,4.784c.7,3.19,1.437,6.374,2.164,9.559l.536-.495c-2.121-.658-4.25-1.293-6.374-1.941s-4.256-1.272-6.384-1.909-4.261-1.256-6.4-1.866-4.272-1.22-6.414-1.81q3.146,1.1,6.307,2.153c2.1.711,4.216,1.4,6.324,2.1s4.222,1.38,6.338,2.055,4.229,1.359,6.348,2.023l.694.218-.159-.712c-.711-3.189-1.418-6.378-2.151-9.562l-1.1-4.777-1.115-4.772q-1.129-4.769-2.288-9.531C3287.684,1806.38,3286.9,1803.208,3286.068,1800.046Z" transform="translate(-3269.257 -1800.046)" fill="#e5dfdf"></path></g><g id="Group_26836" data-name="Group 26836" transform="translate(8.807 58.707)"><path id="Path_37254" data-name="Path 37254" d="M3259.5,2096.98c-2.577-1.229-5.187-2.377-7.807-3.5-1.307-.568-2.626-1.106-3.94-1.659l-3.958-1.613q-3.965-1.6-7.969-3.094c-2.668-1-5.348-1.975-8.061-2.867,2.577,1.229,5.187,2.378,7.807,3.5s5.253,2.212,7.9,3.271l3.976,1.569c1.331.508,2.657,1.031,3.994,1.523C3254.113,2095.113,3256.793,2096.086,3259.5,2096.98Z" transform="translate(-3227.77 -2084.25)" fill="#e5dfdf"></path></g></g><g id="Group_26838" data-name="Group 26838" transform="translate(57.274 27.234)"><rect id="Rectangle_9709" data-name="Rectangle 9709" width="0.145" height="22.64" fill="#f8a364"></rect></g></g></g></g></g></svg> 