<?xml version="1.0" encoding="UTF-8"?> <svg xmlns="http://www.w3.org/2000/svg" xmlns:xlink="http://www.w3.org/1999/xlink" width="533.771" height="435.97" viewBox="0 0 533.771 435.97"><style> .gt { animation-name: tranx-1; animation-fill-mode: both; animation-duration: 4s; transform-origin: left; transform-box:fill-box ; animation-iteration-count: infinite; } .gt1 { animation-name: tranx2; animation-fill-mode: both; animation-duration: 4s; transform-origin: left; transform-box:fill-box ; animation-iteration-count: infinite; } .gtr1 { animation-name: tranx2; animation-fill-mode: both; animation-duration: 11s; transform-origin: left; transform-box:fill-box ; animation-iteration-count: infinite; } @keyframes transc { 0% { transform:scale(.8); } 50% { transform:scale(1.9); } 100% { transform:scale(.8); } } .ggt-1 { animation-name: trangg; animation-fill-mode: both; animation-duration: 4s; transform-origin: center; transform-box:fill-box ; animation-iteration-count: infinite; } .gsc { animation-name: transc; animation-fill-mode: both; animation-duration: 4s; transform-origin: center; transform-box:fill-box ; animation-iteration-count: infinite; } @keyframes transc { 0% { transform:scale(.8); } 50% { transform:scale(1); } 100% { transform:scale(.8); } } .gsc2{ animation-name: transc2; animation-fill-mode: both; animation-duration: 4s; transform-origin: center; transform-box:fill-box ; animation-iteration-count: infinite; } @keyframes transc2 { 0% { transform: rotate(0deg); } 50% { transform:rotate(45deg); } 100% { transform: rotate(0deg); } } @keyframes trangg { 0% { transform:translateX(0px) rotate(0deg); } 50% { transform:translateX(10px) rotate(90deg); } 100% { transform:translateX(0px) rotate(0deg); } } @keyframes tranx2 { 0% { transform:translateX(0px); } 50% { transform:translateX(30px); } 100% { transform:translateX(0px); } } @keyframes tranx-1 { 0% { transform:translateX(0px); } 50% { transform:translateX(-30px); } 100% { transform:translateX(0px); } } .gt2 { animation-name: tranx-2; animation-fill-mode: both; animation-duration: 2s; transform-origin: bottom; transform-box:fill-box ; animation-iteration-count: infinite; } @keyframes tranx-2 { 0% { transform:translateY(0px); } 50% { transform:translateY(-2px); } 100% { transform:translateY(0px); } } .g-1{ animation-name: tranfY; animation-fill-mode: both; animation-duration: 4.5s; transform-origin: right; transform-box:fill-box ; animation-iteration-count: infinite; } .g-2{ animation-delay: .2s; animation-name: tranfY; animation-fill-mode: both; animation-duration: 4.5s; transform-origin: right; transform-box:fill-box ; animation-iteration-count: infinite; } .g-3{ animation-delay: .4s; animation-name: tranfY; animation-fill-mode: both; animation-duration: 4.5s; transform-origin: right; transform-box:fill-box ; animation-iteration-count: infinite; } @keyframes tranfY { 0% { transform: scaleX(1); } 50% { transform: scaleX(.1); } 100% { transform: scaleX(1); } } </style><defs><linearGradient id="linear-gradient" x1="0.5" x2="0.5" y2="1" gradientUnits="objectBoundingBox"><stop offset="0" stop-color="#6A2186" stop-opacity="0.878"></stop><stop offset="1" stop-color="#d13c44" stop-opacity="0.922"></stop></linearGradient><clipPath id="clip-path"><path id="Path_37479" data-name="Path 37479" d="M2465.351,809.6h-4.288c-59.932,5.9-77.657,63.013-49.692,176,2.29-6.946,5.2-16.413,9.881-22.175-5.426-41.52-7.823-77.26,5.743-92.944,11.656,4.391,60.767,4.391,72.423,0,13.565,15.683,11.124,51.77,5.7,93.29,4.2,5.679,7.359,14.883,9.649,21.829C2542.73,872.613,2525.282,815.5,2465.351,809.6Z" transform="translate(-2398.432 -809.6)" fill="none"></path></clipPath></defs><g id="تصميم_المتاجر_الالكترونية" data-name="تصميم المتاجر الالكترونية" transform="translate(-222.835 -141.071)"><g id="Group_27050" data-name="Group 27050" transform="translate(275.809 95.232)"><path id="Path_37260" data-name="Path 37260" d="M413.96,434c0,7.148-104.527,12.943-233.467,12.943S-52.974,441.144-52.974,434s104.527-12.944,233.467-12.944S413.96,426.848,413.96,434Z" transform="translate(0 34.87)" fill="#f6ddff"></path><g id="Group_26845" data-name="Group 26845" transform="translate(-41.375 58.97)"><path id="Path_37261" data-name="Path 37261" d="M152.634,123.865C134.16,56.85,50.91,35.261,3.2,85.346q-1.028,1.079-2.054,2.194c-68.4,74.353-36.086,257.58,106.66,304.02S399.03,353.195,407.371,277.386s-57.516-99.63-159.717-78.431C189.913,210.931,164.135,165.586,152.634,123.865Z" transform="translate(43.201 -57.853)" fill="#f6ddff"></path><path id="Path_37262" data-name="Path 37262" d="M252.329,133.324c-18.488,5.711-21.4,23.2-5.14,33.058,5.374,3.258,12.723,5.564,22.771,5.826,38.279,1,55.83-18.312,37.847-37.689C296.709,122.559,270.651,127.663,252.329,133.324Z" transform="translate(68.281 -51.406)" fill="#fbded3"></path><path id="Path_37263" data-name="Path 37263" d="M-11.683,294.363c-14.723-12.556-31.052-5.649-30.671,13.362.127,6.283,2.115,13.725,7.273,22.352,19.651,32.864,45.362,37.344,52.1,11.781C21.172,326.08,2.908,306.806-11.683,294.363Z" transform="translate(42.361 -36.464)" fill="#f6ddff"></path><path id="Path_37264" data-name="Path 37264" d="M287.447,357.607c-16.829,9.551-15.915,27.257,2.083,33.39,5.949,2.027,13.621,2.7,23.491.8,37.6-7.245,50.591-29.881,28.865-44.941C328.478,337.559,304.125,348.143,287.447,357.607Z" transform="translate(71.892 -31.33)" fill="#f6ddff"></path><path id="Path_37265" data-name="Path 37265" d="M338.985,328.232c-5.421,7.651-1.207,16.742,8.106,17.086a18.23,18.23,0,0,0,10.606-3.309c15.143-9.743,16.044-23.612,3.155-28.022C352.9,311.265,344.357,320.649,338.985,328.232Z" transform="translate(77.577 -34.095)" fill="#f6ddff"></path></g><g id="Group_26856" data-name="Group 26856" transform="translate(-29.929 345.664)"><g id="Group_26851" data-name="Group 26851" transform="translate(38.017)"><g id="Group_26847" data-name="Group 26847" transform="translate(28.934 0.76)"><g id="Group_26846" data-name="Group 26846"><path id="Path_37266" data-name="Path 37266" d="M31.564,349.516c.009-.187.978-18.653,8-24.658a6.918,6.918,0,0,1,5.478-1.75c12.021,1.3,12.332,26.254,12.333,26.506l2.2-.015c-.007-1.107-.334-27.163-14.293-28.674a9.112,9.112,0,0,0-7.143,2.266c-7.741,6.621-8.727,25.423-8.765,26.219Z" transform="translate(-29.37 -320.865)" fill="#ed3915"></path></g></g><path id="Path_37267" data-name="Path 37267" d="M66.642,345.106l-53.091-.222L2.9,437.441l74.741.313Z" transform="translate(-2.896 -317.873)" fill="url(#linear-gradient)"></path><circle id="Ellipse_452" data-name="Ellipse 452" cx="17.186" cy="17.186" r="17.186" transform="translate(22.195 53.505)" fill="#ed3915"></circle><g id="Group_26850" data-name="Group 26850" transform="translate(24.28)"><g id="Group_26849" data-name="Group 26849"><g id="Group_26848" data-name="Group 26848"><path id="Path_37268" data-name="Path 37268" d="M27.306,348.82c.009-.186.978-18.652,8-24.657a6.916,6.916,0,0,1,5.478-1.751c12.02,1.3,12.332,26.254,12.333,26.506l2.2-.014c-.007-1.108-.336-27.164-14.293-28.675a9.113,9.113,0,0,0-7.143,2.266c-7.741,6.622-8.728,25.423-8.765,26.219Z" transform="translate(-25.112 -320.17)" fill="#fc5f2d"></path></g></g></g><path id="Path_37269" data-name="Path 37269" d="M72.217,437.735l6-6.716L66.164,349.011l-4.942-3.923Z" transform="translate(2.524 -317.854)" fill="#ed3915"></path></g><g id="Group_26855" data-name="Group 26855" transform="translate(0 3.419)"><g id="Group_26852" data-name="Group 26852" transform="translate(28.933 0.76)"><path id="Path_37270" data-name="Path 37270" d="M-3.22,352.644c.009-.186.978-18.653,8-24.657a6.917,6.917,0,0,1,5.478-1.751c12.02,1.3,12.33,26.254,12.333,26.506l2.2-.014c-.008-1.108-.336-27.164-14.293-28.675a9.115,9.115,0,0,0-7.143,2.266c-7.741,6.621-8.728,25.423-8.766,26.219Z" transform="translate(5.415 -323.994)" fill="#094d6d"></path></g><path id="Path_37271" data-name="Path 37271" d="M31.858,348.234l-53.091-.222-10.655,92.557,74.741.313Z" transform="translate(31.888 -321.002)" fill="#FFD100"></path><circle id="Ellipse_453" data-name="Ellipse 453" cx="17.186" cy="17.186" r="17.186" transform="translate(12.665 62.089) rotate(-22.274)" fill="#024767"></circle><g id="Group_26854" data-name="Group 26854" transform="translate(24.28)"><g id="Group_26853" data-name="Group 26853"><path id="Path_37272" data-name="Path 37272" d="M-7.478,351.948c.009-.186.978-18.652,8-24.657A6.917,6.917,0,0,1,6,325.542c12.021,1.3,12.332,26.253,12.334,26.5l2.2-.014c-.008-1.108-.336-27.164-14.293-28.674a9.109,9.109,0,0,0-7.143,2.266c-7.742,6.621-8.728,25.423-8.766,26.219Z" transform="translate(9.673 -323.298)" fill="#FFD100"></path></g></g><path id="Path_37273" data-name="Path 37273" d="M37.433,440.863l6-6.716L31.38,352.139l-4.942-3.923Z" transform="translate(37.308 -320.983)" fill="#054e71"></path></g></g><g id="Group_26872" data-name="Group 26872" transform="translate(-49.223 49.671)"><g id="Group_26858" data-name="Group 26858" transform="translate(325.556 113.132)"><path id="Path_37274" data-name="Path 37274" d="M248.332,233.671l2.715.9,1.441.474,4.08,1.344s60.767-49.156,45.195-78.438c-4.794-9.015-19.285-8.455-27.413,21.682C266.813,207.566,248.332,233.671,248.332,233.671Z" transform="translate(-248.332 -152.858)" fill="#db2121"></path><g id="Group_26857" data-name="Group 26857" transform="translate(2.715 19.34)"><path id="Path_37275" data-name="Path 37275" d="M250.816,232.922l1.44.474c12.208-12.853,21.629-28.041,27.568-38.955a212.636,212.636,0,0,0,10.9-22.957.685.685,0,0,0-1.28-.491,211.457,211.457,0,0,1-10.834,22.813C272.639,204.773,263.132,220.082,250.816,232.922Z" transform="translate(-250.816 -170.554)" fill="#9d0d15"></path></g></g><g id="Group_26860" data-name="Group 26860" transform="translate(104.053)"><path id="Path_37276" data-name="Path 37276" d="M81.313,140.4l-2.858.054-1.516.028-4.3.079S29.112,75.643,52.639,52.27c7.243-7.2,20.922-2.38,19.784,28.813C71.369,110,81.313,140.4,81.313,140.4Z" transform="translate(-45.664 -49.345)" fill="#db2121"></path><g id="Group_26859" data-name="Group 26859" transform="translate(12.814 19.891)"><path id="Path_37277" data-name="Path 37277" d="M77.366,138.759l-1.516.028c-7.866-15.886-12.38-33.18-14.83-45.361a212.976,212.976,0,0,1-3.63-25.153.685.685,0,0,1,1.367-.091,211.8,211.8,0,0,0,3.612,25C64.833,105.42,69.392,122.855,77.366,138.759Z" transform="translate(-57.388 -67.545)" fill="#9d0d15"></path></g></g><g id="Group_26862" data-name="Group 26862" transform="translate(49.089 5.565)"><path id="Path_37278" data-name="Path 37278" d="M99.888,150.045l-3.443,2.3-1.826,1.218-5.174,3.45S-14.318,111.873-3.89,65C-.682,50.576,19.756,45.763,42.729,84.68,64.024,120.753,99.888,150.045,99.888,150.045Z" transform="translate(4.627 -54.437)" fill="#6A2186"></path><g id="Group_26861" data-name="Group 26861" transform="translate(21.48 25.998)"><path id="Path_37279" data-name="Path 37279" d="M94.619,150.132l-1.826,1.218c-21.994-13.222-41-30.781-53.5-43.717A308.058,308.058,0,0,1,15.222,79.8a.992.992,0,0,1,1.6-1.178,306.631,306.631,0,0,0,23.923,27.651C53.3,119.276,72.477,136.97,94.619,150.132Z" transform="translate(-15.027 -78.225)" fill="#db2121"></path></g></g><g id="Group_26864" data-name="Group 26864" transform="translate(311.46 124.914)"><path id="Path_37280" data-name="Path 37280" d="M235.434,242.124l2.99,2.862,1.587,1.517,4.5,4.3s110.033-26.4,107.917-74.369c-.651-14.767-19.939-23.061-49.332,11.266C275.845,219.516,235.434,242.124,235.434,242.124Z" transform="translate(-235.434 -163.638)" fill="#6A2186"></path><g id="Group_26863" data-name="Group 26863" transform="translate(2.99 24.194)"><path id="Path_37281" data-name="Path 37281" d="M238.17,242.929l1.587,1.517c23.959-9.195,45.732-23.18,60.291-33.744a308.039,308.039,0,0,0,28.542-23.217.992.992,0,0,0-1.367-1.438,306.317,306.317,0,0,1-28.367,23.069C284.222,219.729,262.264,233.818,238.17,242.929Z" transform="translate(-238.17 -185.774)" fill="#db2121"></path></g></g><g class="gtr1"><g id="Group_26868" data-name="Group 26868" transform="translate(0 144.902)"><g id="Group_26865" data-name="Group 26865"><path id="Path_37282" data-name="Path 37282" d="M100.581,288.932c.167,1.14.336,2.387.492,3.721v0c1.635,14,2.016,37.691-12.05,47.164,0,0-6.536-46.849-40.5-48.069S14.18,278.493,9.291,258.5s.493-25.959-26.554-37.044-32.279-39.526-32.279-39.526,30.267,24.205,51.594,17.746,31.146,10.282,34.8,23.972,22.078,9.108,34.409,13.574S99.3,281.83,99.3,281.83,99.938,284.586,100.581,288.932Z" transform="translate(49.542 -181.926)" fill="#dc80ff"></path></g><g id="Group_26867" data-name="Group 26867" transform="translate(44.148 28.851)"><g id="Group_26866" data-name="Group 26866" transform="translate(0)"><path id="Path_37283" data-name="Path 37283" d="M96.827,286.478c.167,1.14.336,2.387.492,3.721a70.386,70.386,0,0,0-13.583-13.518c-10.144-7.7-22.434-12.669-32.071-12.983-15.343-.5-26.523-11.572-36.248-35.921C9.774,213.643-8.172,210.268-8.355,210.239a.965.965,0,0,1-.778-1.118.964.964,0,0,1,1.118-.781c.779.139,19.178,3.583,25.223,18.721,9.4,23.538,20.047,34.246,34.52,34.715C61.895,262.1,74.3,267.1,84.9,275.145A73.165,73.165,0,0,1,96.827,286.478Z" transform="translate(9.148 -208.324)" fill="#db2121"></path></g></g></g></g><g id="Group_26871" data-name="Group 26871" transform="translate(298.56 202.083)"><g id="Group_26869" data-name="Group 26869"><path id="Path_37284" data-name="Path 37284" d="M223.759,368.056c.055,1.15.128,2.407.231,3.747v0c1.08,14.051,5.25,37.377,20.873,43.977,0,0-2.571-47.232,30.523-54.944s31.167-19.6,32.131-40.163-5.462-25.383,18.957-41.448,24.1-44.983,24.1-44.983S325.51,263.8,303.34,261.555s-28.6,16.066-29.561,30.2-19.921,13.174-31.166,19.921-18.957,49.16-18.957,49.16S223.556,363.667,223.759,368.056Z" transform="translate(-223.631 -234.245)" fill="#6A2186"></path></g><g id="Group_26870" data-name="Group 26870" transform="translate(0.128 36.949)"><path id="Path_37285" data-name="Path 37285" d="M223.748,364.914c.055,1.15.128,2.407.231,3.747a70.363,70.363,0,0,1,10.738-15.873c8.48-9.5,19.588-16.737,28.986-18.892,14.963-3.429,23.812-16.445,28.686-42.207,2.827-14.955,19.792-21.708,19.966-21.772a.965.965,0,0,0-.7-1.8c-.739.285-18.134,7.194-21.165,23.211-4.711,24.9-13.105,37.455-27.221,40.691-9.916,2.271-21.13,9.556-29.994,19.484A73.121,73.121,0,0,0,223.748,364.914Z" transform="translate(-223.748 -268.052)" fill="#db2121"></path></g></g></g><g id="Group_26893" data-name="Group 26893" transform="translate(72.655 86.755)"><g id="Group_26888" data-name="Group 26888" transform="translate(0 1.454)"><g id="Group_26873" data-name="Group 26873" transform="translate(7.069)"><path id="Path_37286" data-name="Path 37286" d="M276.648,103.929v340.5a19.322,19.322,0,0,1-19.324,19.323H87.764a19.318,19.318,0,0,1-19.323-19.323v-340.5A19.321,19.321,0,0,1,87.764,84.606h169.56a19.314,19.314,0,0,1,19.324,19.323Z" transform="translate(-68.441 -84.606)" fill="#133643"></path><path id="Path_37287" data-name="Path 37287" d="M276.171,103.751v340.5a19.322,19.322,0,0,1-19.324,19.323H87.287a19.267,19.267,0,0,1-13.713-5.706L265.612,86.526A19.313,19.313,0,0,1,276.171,103.751Z" transform="translate(-67.964 -84.428)" fill="#033750"></path></g><g id="Group_26874" data-name="Group 26874" transform="translate(0 57.835)"><path id="Rectangle_9711" data-name="Rectangle 9711" d="M5.671,0h1.4a0,0,0,0,1,0,0V44.983a0,0,0,0,1,0,0h-1.4A5.671,5.671,0,0,1,0,39.312V5.671A5.671,5.671,0,0,1,5.671,0Z" transform="translate(0 3.416)" fill="#000b17"></path><path id="Rectangle_9712" data-name="Rectangle 9712" d="M4.64,0H5.784a0,0,0,0,1,0,0V36.629a0,0,0,0,1,0,0H4.64A4.64,4.64,0,0,1,0,31.989V4.64A4.64,4.64,0,0,1,4.64,0Z" transform="translate(221.059 36.629) rotate(180)" fill="#000b17"></path><path id="Rectangle_9713" data-name="Rectangle 9713" d="M5.671,0h1.4a0,0,0,0,1,0,0V44.983a0,0,0,0,1,0,0h-1.4A5.671,5.671,0,0,1,0,39.311V5.671A5.671,5.671,0,0,1,5.671,0Z" transform="translate(0 54.503)" fill="#000b17"></path></g><g id="Group_26886" data-name="Group 26886" transform="translate(16.709 9.639)"><path id="Path_37288" data-name="Path 37288" d="M266.185,101.939V444.77a8.51,8.51,0,0,1-8.514,8.514H85.775a8.508,8.508,0,0,1-8.514-8.514V101.939a8.517,8.517,0,0,1,8.514-8.514h171.9a8.494,8.494,0,0,1,8.514,8.514Z" transform="translate(-77.261 -93.425)" fill="#fff"></path><g id="Group_26881" data-name="Group 26881" transform="translate(7.888 71.317)"><rect id="Rectangle_9714" data-name="Rectangle 9714" width="84.265" height="84.265" rx="10.007" fill="#fbded3"></rect><g id="Group_26880" data-name="Group 26880" transform="translate(6.599 23.453)"><path id="Path_37289" data-name="Path 37289" d="M139.127,185.327s-3.67-5.305-6.736-5.189-27.3,18.049-35.437,19.318-6.772,7.272-5.4,10.364,64.5,1.09,64.5,1.09,2.379-18.687.52-24.493S145.4,186.9,139.127,185.327Z" transform="translate(-90.516 -180.136)" fill="url(#linear-gradient)"></path><g id="Group_26879" data-name="Group 26879" transform="translate(17.63 5.75)"><g id="Group_26875" data-name="Group 26875" transform="translate(4.662 3.072)"><path id="Path_37290" data-name="Path 37290" d="M123.741,197.21a1.132,1.132,0,0,0,1.365-1.6c-.1-.186-2.416-4.558-5.68-6.346a7.809,7.809,0,0,0-8.023.1,1.132,1.132,0,1,0,1.287,1.863,5.57,5.57,0,0,1,5.647.027c2.659,1.458,4.742,5.373,4.763,5.412A1.13,1.13,0,0,0,123.741,197.21Z" transform="translate(-110.913 -188.208)" fill="#fff"></path></g><g id="Group_26876" data-name="Group 26876" transform="translate(8.148)"><path id="Path_37291" data-name="Path 37291" d="M126.929,194.4a1.133,1.133,0,0,0,1.366-1.6c-.1-.186-2.416-4.558-5.68-6.347a7.8,7.8,0,0,0-8.023.1,1.132,1.132,0,1,0,1.287,1.863,5.567,5.567,0,0,1,5.646.026c2.671,1.465,4.742,5.373,4.762,5.413A1.127,1.127,0,0,0,126.929,194.4Z" transform="translate(-114.102 -185.397)" fill="#fff"></path></g><g id="Group_26878" data-name="Group 26878" transform="translate(0 5.499)"><g id="Group_26877" data-name="Group 26877"><path id="Path_37292" data-name="Path 37292" d="M119.474,199.433a1.132,1.132,0,0,0,1.366-1.6c-.1-.185-2.416-4.556-5.68-6.347a7.8,7.8,0,0,0-8.023.1,1.132,1.132,0,1,0,1.287,1.863,5.569,5.569,0,0,1,5.646.027c2.671,1.465,4.742,5.373,4.763,5.412A1.128,1.128,0,0,0,119.474,199.433Z" transform="translate(-106.647 -190.428)" fill="#fff"></path></g></g></g></g></g><g id="Group_26882" data-name="Group 26882" transform="translate(97.003 71.317)"><rect id="Rectangle_9715" data-name="Rectangle 9715" width="84.265" height="84.265" rx="10.007" fill="#fbded3"></rect><path id="Path_37293" data-name="Path 37293" d="M237.6,190.423h-11.41V228.11H187.939l.119-37.686H176.707a40.036,40.036,0,0,1,9.055-15.6,7.17,7.17,0,0,1,5.227-2.253h7.42a8.656,8.656,0,0,0,17.312,0h7.6a7.172,7.172,0,0,1,5.228,2.253A40.05,40.05,0,0,1,237.6,190.423Z" transform="translate(-165.022 -157.387)" fill="#6A2186"></path></g><g id="Group_26883" data-name="Group 26883" transform="translate(7.888 249.602)"><rect id="Rectangle_9716" data-name="Rectangle 9716" width="84.265" height="84.265" rx="10.007" fill="#fbded3"></rect></g><g id="Group_26884" data-name="Group 26884" transform="translate(97.003 249.602)"><rect id="Rectangle_9717" data-name="Rectangle 9717" width="84.265" height="84.265" rx="10.007" fill="#fbded3"></rect></g><rect id="Rectangle_9718" data-name="Rectangle 9718" width="173.379" height="24.552" rx="4.785" transform="translate(7.888 33.042)" fill="#fbded3"></rect><g id="Group_26885" data-name="Group 26885" transform="translate(7.888 168.312)"><g class="g-1"><rect id="Rectangle_9719" data-name="Rectangle 9719" width="173.379" height="10.705" rx="1.893" fill="#fbded3"></rect></g><g class="g-2"><rect id="Rectangle_9720" data-name="Rectangle 9720" width="173.379" height="10.705" rx="1.893" transform="translate(0 23.188)" fill="#fbded3"></rect></g><g class="g-3"><rect id="Rectangle_9721" data-name="Rectangle 9721" width="173.379" height="10.705" rx="1.893" transform="translate(0 46.376)" fill="#fbded3"></rect></g></g></g><g id="Group_26887" data-name="Group 26887" transform="translate(52.736 7.069)"><rect id="Rectangle_9722" data-name="Rectangle 9722" width="116.872" height="19.6" rx="7.863" fill="#133643"></rect><path id="Rectangle_9723" data-name="Rectangle 9723" d="M1.933,0H68.111a1.933,1.933,0,0,1,1.933,1.933v.953A1.933,1.933,0,0,1,68.111,4.82H1.934A1.934,1.934,0,0,1,0,2.886V1.933A1.933,1.933,0,0,1,1.933,0Z" transform="translate(18.559 6.105)" fill="#FFD100"></path><path id="Path_37294" data-name="Path 37294" d="M207.4,98.963a2.892,2.892,0,1,1-2.892-2.892A2.892,2.892,0,0,1,207.4,98.963Z" transform="translate(-101.732 -90.609)" fill="#FFD100"></path></g><path id="Path_37295" data-name="Path 37295" d="M266.128,101.881V444.712a8.51,8.51,0,0,1-8.514,8.514H85.717a8.513,8.513,0,0,1-7.836-5.18l183.077-354A8.544,8.544,0,0,1,266.128,101.881Z" transform="translate(-60.495 -83.729)" fill="#fff" opacity="0.3"></path></g></g><g class="gt1"><g id="Group_27001" data-name="Group 27001" transform="translate(107.78 289.864)"><g id="Group_27000" data-name="Group 27000" transform="translate(0 0)"><g id="Group_26990" data-name="Group 26990" transform="translate(15.682 72.137)"><rect id="Rectangle_9724" data-name="Rectangle 9724" width="75.132" height="57.068" transform="translate(2.488 2.851)" fill="#fc5f2d"></rect><rect id="Rectangle_9725" data-name="Rectangle 9725" width="80.109" height="9.49" fill="#ff8652"></rect><rect id="Rectangle_9726" data-name="Rectangle 9726" width="75.132" height="5.223" transform="translate(2.488 9.49)" fill="#ed3915"></rect><rect id="Rectangle_9727" data-name="Rectangle 9727" width="6.585" height="59.969" transform="translate(36.762)" fill="#fff"></rect><rect id="Rectangle_9728" data-name="Rectangle 9728" width="6.584" height="45.602" transform="translate(36.762 14.367)" fill="#f1f1f1"></rect><rect id="Rectangle_9729" data-name="Rectangle 9729" width="6.584" height="5.222" transform="translate(36.762 9.491)" fill="#d8d8d8"></rect></g><g id="Group_26991" data-name="Group 26991" transform="translate(57.836)"><rect id="Rectangle_9730" data-name="Rectangle 9730" width="75.132" height="57.068" transform="translate(23.613 3.625) rotate(24.442)" fill="#6A2186"></rect><rect id="Rectangle_9731" data-name="Rectangle 9731" width="80.109" height="9.49" transform="translate(22.527 0) rotate(24.441)" fill="#6A2186"></rect><rect id="Rectangle_9732" data-name="Rectangle 9732" width="75.132" height="5.223" transform="translate(20.866 9.669) rotate(24.442)" fill="#d53515"></rect><rect id="Rectangle_9733" data-name="Rectangle 9733" width="6.585" height="59.969" transform="translate(55.994 15.211) rotate(24.441)" fill="#fff"></rect><rect id="Rectangle_9734" data-name="Rectangle 9734" width="45.602" height="6.584" transform="translate(31.182 69.806) rotate(-65.558)" fill="#f1f1f1"></rect><rect id="Rectangle_9735" data-name="Rectangle 9735" width="5.222" height="6.584" transform="translate(49.908 28.605) rotate(-65.559)" fill="#d8d8d8"></rect></g><g id="Group_26999" data-name="Group 26999" transform="translate(0 32.939)"><g id="Group_26994" data-name="Group 26994" transform="translate(34.399 130.707)"><g id="Group_26992" data-name="Group 26992"><circle id="Ellipse_454" data-name="Ellipse 454" cx="10.015" cy="10.015" r="10.015" fill="#0b3f57"></circle></g><g id="Group_26993" data-name="Group 26993" transform="translate(3.752 3.752)"><path id="Path_37398" data-name="Path 37398" d="M135.28,434.8a6.263,6.263,0,1,1,6.262-6.264A6.27,6.27,0,0,1,135.28,434.8Z" transform="translate(-129.018 -422.278)" fill="#FFD100"></path></g></g><g id="Group_26997" data-name="Group 26997" transform="translate(89.067 130.707)"><g id="Group_26995" data-name="Group 26995"><circle id="Ellipse_455" data-name="Ellipse 455" cx="10.015" cy="10.015" r="10.015" fill="#0b3f57"></circle></g><g id="Group_26996" data-name="Group 26996" transform="translate(3.752 3.751)"><path id="Path_37399" data-name="Path 37399" d="M185.3,434.8a6.263,6.263,0,1,1,6.263-6.264A6.27,6.27,0,0,1,185.3,434.8Z" transform="translate(-179.038 -422.278)" fill="#FFD100"></path></g></g><g id="Group_26998" data-name="Group 26998" transform="translate(0 0.001)"><path id="Path_37400" data-name="Path 37400" d="M270.762,300.831c-.361-.508-.7-1.032-1.016-1.577h-20.6a2.57,2.57,0,0,0-2.481,1.894l-2.345,8.59H96.656a2.543,2.543,0,0,0-2.52,2.9L96.5,329.612a2.45,2.45,0,0,0-.082.638,2.542,2.542,0,0,0,.348,1.289l2.994,21.475.707,5.092,2.818,20.223.708,5.092,2.493,17.895a2.544,2.544,0,0,0,2.52,2.2H218.262L214.7,416.3a13.933,13.933,0,0,1-13.378,10.164H123.432a2.544,2.544,0,1,0,0,5.089h77.891a19.041,19.041,0,0,0,18.283-13.885l4.368-15.692v0l0,0a1.882,1.882,0,0,0,.113-.32l5.077-18.228,1.416-5.092,5.634-20.223,1.416-5.092,5.821-20.9.715-2.561v0l4.618-16.585a2.15,2.15,0,0,0,.051-.23l2.276-8.337h16.78A34.118,34.118,0,0,0,270.762,300.831Zm-47.474,84.723v.009a3.1,3.1,0,0,0-.121.333l-3.489,12.524H111.223l-2.089-15H223.884Zm2.015-7.225H108.424l-2.818-20.223H230.931Zm7.049-25.315H104.9l-2.811-20.219h135.9Zm7.047-25.308H101.374L99.579,314.83H242.986Z" transform="translate(-94.111 -299.254)" fill="#FFD100"></path></g><path id="Path_37401" data-name="Path 37401" d="M255.605,299.253c.315.546.656,1.071,1.016,1.579a34.114,34.114,0,0,1-2.869,3.565h-7.489v-5.144Z" transform="translate(-79.971 -299.253)" fill="#FFD100"></path><path id="Path_37403" data-name="Path 37403" d="M274.646,301.827a2.875,2.875,0,0,1-3.1,2.571h-4.573a2.914,2.914,0,0,0-.277-2.142c-1.969-1.618-6.374-2.314-6.374-3h11.223A2.875,2.875,0,0,1,274.646,301.827Z" transform="translate(-94.031 -299.253)" fill="#FFD100"></path></g></g></g></g><g id="Group_27011" data-name="Group 27011" transform="translate(22.21 137.571)"><g id="Group_27002" data-name="Group 27002" transform="translate(7.148 150.33)"><g class="gsc2"><rect id="Rectangle_9736" data-name="Rectangle 9736" width="36.223" height="36.223" rx="5.033" fill="#fff"></rect></g><g class="gsc"><path id="Path_37404" data-name="Path 37404" d="M50.351,282.054a6.3,6.3,0,0,1-1.843,4.467l-8.389,8.389-8.389-8.389a6.334,6.334,0,0,1,0-8.93c2.292-2.292,5.783-1.878,8.392,2,2.609-3.873,6.1-4.288,8.392-2A6.293,6.293,0,0,1,50.351,282.054Z" transform="translate(-21.657 -266.495)" fill="url(#linear-gradient)"></path></g></g><g id="Group_27004" data-name="Group 27004"><rect id="Rectangle_9737" data-name="Rectangle 9737" width="115.028" height="23.777" rx="3.629" fill="#FFD100"></rect><g class="ggt-1"><rect id="Rectangle_9738" data-name="Rectangle 9738" width="13.492" height="13.492" rx="1.083" transform="translate(95.764 4.664)" fill="#fff"></rect></g><g id="Group_27003" data-name="Group 27003" transform="translate(7.41 4.664)"><g class="g-1"><rect id="Rectangle_9739" data-name="Rectangle 9739" width="78.272" height="2.552" rx="1.024" fill="#fff"></rect></g><g class="g-2"><rect id="Rectangle_9740" data-name="Rectangle 9740" width="78.272" height="2.552" rx="1.024" transform="translate(0 5.47)" fill="#fff"></rect></g><g class="g-3"><rect id="Rectangle_9741" data-name="Rectangle 9741" width="78.272" height="2.552" rx="1.024" transform="translate(0 10.939)" fill="#fff"></rect></g></g></g><g id="Group_27010" data-name="Group 27010" transform="translate(0.576 34.898)"><rect id="Rectangle_9742" data-name="Rectangle 9742" width="115.028" height="23.777" rx="3.629" fill="#6A2186"></rect><g class="ggt-1"><rect id="Rectangle_9743" data-name="Rectangle 9743" width="13.492" height="13.492" rx="1.083" transform="translate(95.188 5.132)" fill="#fff"></rect></g><g id="Group_27009" data-name="Group 27009" transform="translate(6.834 5.143)"><g id="Group_27008" data-name="Group 27008"><g class="g-1"><g id="Group_27005" data-name="Group 27005"><rect id="Rectangle_9744" data-name="Rectangle 9744" width="78.272" height="2.552" rx="1.024" fill="#fefefe"></rect></g></g><g class="g-2"><g id="Group_27006" data-name="Group 27006" transform="translate(0 5.47)"><rect id="Rectangle_9745" data-name="Rectangle 9745" width="78.272" height="2.552" rx="1.024" fill="#fefefe"></rect></g></g><g class="g-3"><g id="Group_27007" data-name="Group 27007" transform="translate(0 10.939)"><rect id="Rectangle_9746" data-name="Rectangle 9746" width="78.272" height="2.552" rx="1.024" fill="#fefefe"></rect></g></g></g></g></g></g><g id="Group_27049" data-name="Group 27049" transform="translate(-42.366 45.839)"><g id="Group_27030" data-name="Group 27030" transform="translate(318.984)"><g id="Group_27012" data-name="Group 27012" transform="translate(31.338 27.821)"><path id="Path_37405" data-name="Path 37405" d="M283.463,83.688a6.2,6.2,0,1,1,6.2-6.2A6.2,6.2,0,0,1,283.463,83.688Zm0-10.45a4.253,4.253,0,1,0,4.253,4.253A4.257,4.257,0,0,0,283.463,73.238Z" transform="translate(-277.266 -71.294)" fill="#FFD100"></path></g><g id="Group_27013" data-name="Group 27013" transform="translate(21.111)"><path id="Path_37406" data-name="Path 37406" d="M274.106,58.234a6.2,6.2,0,1,1,6.2-6.2A6.2,6.2,0,0,1,274.106,58.234Zm0-10.451a4.253,4.253,0,1,0,4.253,4.254A4.258,4.258,0,0,0,274.106,47.783Z" transform="translate(-267.909 -45.839)" fill="#FFD100"></path></g><g id="Group_27021" data-name="Group 27021" transform="translate(44.622 50.925)"><g id="Group_27020" data-name="Group 27020"><g id="Group_27016" data-name="Group 27016" transform="translate(6.018)"><g id="Group_27014" data-name="Group 27014"><path id="Path_37407" data-name="Path 37407" d="M295.9,98.666a.972.972,0,0,1-.972-.973V93.407a.972.972,0,1,1,1.944,0v4.286A.973.973,0,0,1,295.9,98.666Z" transform="translate(-294.927 -92.434)" fill="#fc5f2d"></path></g><g id="Group_27015" data-name="Group 27015" transform="translate(0 7.503)"><path id="Path_37408" data-name="Path 37408" d="M295.9,105.53a.972.972,0,0,1-.972-.973v-4.286a.972.972,0,0,1,1.944,0v4.286A.973.973,0,0,1,295.9,105.53Z" transform="translate(-294.927 -99.299)" fill="#fc5f2d"></path></g></g><g id="Group_27019" data-name="Group 27019" transform="translate(0 5.895)"><g id="Group_27017" data-name="Group 27017" transform="translate(8.184)"><path id="Path_37409" data-name="Path 37409" d="M301.732,99.772h-3.852a.972.972,0,0,1,0-1.944h3.852a.972.972,0,0,1,0,1.944Z" transform="translate(-296.909 -97.828)" fill="#fc5f2d"></path></g><g id="Group_27018" data-name="Group 27018"><path id="Path_37410" data-name="Path 37410" d="M294.244,99.772h-3.85a.972.972,0,1,1,0-1.944h3.85a.972.972,0,1,1,0,1.944Z" transform="translate(-289.421 -97.828)" fill="#fc5f2d"></path></g></g></g></g><g id="Group_27029" data-name="Group 27029" transform="translate(0 20.204)"><g id="Group_27028" data-name="Group 27028"><g id="Group_27024" data-name="Group 27024" transform="translate(6.018)"><g id="Group_27022" data-name="Group 27022"><path id="Path_37411" data-name="Path 37411" d="M255.071,70.557a.973.973,0,0,1-.972-.973V65.3a.972.972,0,1,1,1.944,0v4.286A.973.973,0,0,1,255.071,70.557Z" transform="translate(-254.099 -64.325)" fill="#fc5f2d"></path></g><g id="Group_27023" data-name="Group 27023" transform="translate(0 7.502)"><path id="Path_37412" data-name="Path 37412" d="M255.071,77.421a.973.973,0,0,1-.972-.973V72.162a.972.972,0,1,1,1.944,0v4.286A.973.973,0,0,1,255.071,77.421Z" transform="translate(-254.099 -71.189)" fill="#fc5f2d"></path></g></g><g id="Group_27027" data-name="Group 27027" transform="translate(0 5.895)"><g id="Group_27025" data-name="Group 27025" transform="translate(8.184)"><path id="Path_37413" data-name="Path 37413" d="M260.9,71.662h-3.851a.972.972,0,0,1,0-1.943H260.9a.972.972,0,1,1,0,1.943Z" transform="translate(-256.081 -69.719)" fill="#fc5f2d"></path></g><g id="Group_27026" data-name="Group 27026"><path id="Path_37414" data-name="Path 37414" d="M253.416,71.662h-3.85a.972.972,0,1,1,0-1.943h3.85a.972.972,0,1,1,0,1.943Z" transform="translate(-248.593 -69.719)" fill="#fc5f2d"></path></g></g></g></g></g><g id="Group_27048" data-name="Group 27048" transform="translate(0 221.142)"><g id="Group_27031" data-name="Group 27031" transform="translate(18.586)"><path id="Path_37415" data-name="Path 37415" d="M-20.065,260.571a6.2,6.2,0,0,1-6.2-6.2,6.2,6.2,0,0,1,6.2-6.2,6.2,6.2,0,0,1,6.2,6.2A6.2,6.2,0,0,1-20.065,260.571Zm0-10.449a4.257,4.257,0,0,0-4.253,4.253,4.258,4.258,0,0,0,4.253,4.254,4.258,4.258,0,0,0,4.253-4.254A4.257,4.257,0,0,0-20.065,250.121Z" transform="translate(26.262 -248.177)" fill="#FFD100"></path></g><g id="Group_27032" data-name="Group 27032" transform="translate(33.505 26.351)"><path id="Path_37416" data-name="Path 37416" d="M-6.415,284.681a6.2,6.2,0,0,1-6.2-6.2,6.2,6.2,0,0,1,6.2-6.2,6.2,6.2,0,0,1,6.2,6.2A6.2,6.2,0,0,1-6.415,284.681Zm0-10.45a4.257,4.257,0,0,0-4.253,4.253,4.257,4.257,0,0,0,4.253,4.253,4.257,4.257,0,0,0,4.253-4.253A4.257,4.257,0,0,0-6.415,274.231Z" transform="translate(12.612 -272.287)" fill="#fc5f2d"></path></g><g id="Group_27039" data-name="Group 27039" transform="translate(44.622 52.086)"><g id="Group_27035" data-name="Group 27035" transform="translate(6.018)"><g id="Group_27033" data-name="Group 27033" transform="translate(0)"><path id="Path_37417" data-name="Path 37417" d="M4.038,302.065a.972.972,0,0,1-.972-.972v-4.288a.972.972,0,0,1,1.944,0v4.288A.973.973,0,0,1,4.038,302.065Z" transform="translate(-3.066 -295.834)" fill="#FFD100"></path></g><g id="Group_27034" data-name="Group 27034" transform="translate(0 7.502)"><path id="Path_37418" data-name="Path 37418" d="M4.038,308.929a.972.972,0,0,1-.972-.972v-4.286a.972.972,0,1,1,1.944,0v4.286A.973.973,0,0,1,4.038,308.929Z" transform="translate(-3.066 -302.698)" fill="#FFD100"></path></g></g><g id="Group_27038" data-name="Group 27038" transform="translate(0 5.894)"><g id="Group_27036" data-name="Group 27036" transform="translate(8.184)"><path id="Path_37419" data-name="Path 37419" d="M9.871,303.171H6.02a.972.972,0,0,1,0-1.944H9.871a.972.972,0,0,1,0,1.944Z" transform="translate(-5.048 -301.227)" fill="#FFD100"></path></g><g id="Group_27037" data-name="Group 27037"><path id="Path_37420" data-name="Path 37420" d="M2.383,303.171h-3.85a.972.972,0,0,1-.973-.972.972.972,0,0,1,.973-.973h3.85a.972.972,0,0,1,0,1.944Z" transform="translate(2.44 -301.227)" fill="#FFD100"></path></g></g></g><g id="Group_27047" data-name="Group 27047" transform="translate(0 21.365)"><g id="Group_27046" data-name="Group 27046"><g id="Group_27042" data-name="Group 27042" transform="translate(6.018)"><g id="Group_27040" data-name="Group 27040"><path id="Path_37421" data-name="Path 37421" d="M-36.79,273.956a.972.972,0,0,1-.972-.972V268.7a.972.972,0,0,1,.972-.972.973.973,0,0,1,.973.972v4.288A.973.973,0,0,1-36.79,273.956Z" transform="translate(37.762 -267.725)" fill="#fc5f2d"></path></g><g id="Group_27041" data-name="Group 27041" transform="translate(0 7.502)"><path id="Path_37422" data-name="Path 37422" d="M-36.79,280.82a.972.972,0,0,1-.972-.972v-4.288a.972.972,0,0,1,.972-.972.973.973,0,0,1,.973.972v4.288A.973.973,0,0,1-36.79,280.82Z" transform="translate(37.762 -274.589)" fill="#fc5f2d"></path></g></g><g id="Group_27045" data-name="Group 27045" transform="translate(0 5.894)"><g id="Group_27043" data-name="Group 27043" transform="translate(8.184)"><path id="Path_37423" data-name="Path 37423" d="M-30.957,275.062h-3.851a.972.972,0,0,1-.972-.973.972.972,0,0,1,.972-.972h3.851a.972.972,0,0,1,.972.972A.972.972,0,0,1-30.957,275.062Z" transform="translate(35.78 -273.118)" fill="#fc5f2d"></path></g><g id="Group_27044" data-name="Group 27044"><path id="Path_37424" data-name="Path 37424" d="M-38.445,275.062H-42.3a.972.972,0,0,1-.972-.973.972.972,0,0,1,.972-.972h3.851a.972.972,0,0,1,.972.972A.972.972,0,0,1-38.445,275.062Z" transform="translate(43.268 -273.118)" fill="#fc5f2d"></path></g></g></g></g></g></g></g><g class="gt"><g id="Group_27075" data-name="Group 27075" transform="translate(-1298.499 -655.292)"><path id="Path_37425" data-name="Path 37425" d="M2514.993,879.326l-54.513,74.161,9.7,87.763h44.81Z" transform="translate(-525.53 -59.173)" fill="#FFD100"></path><path id="Path_37426" data-name="Path 37426" d="M2823.719,879.326l54.513,74.161-9.7,87.763h-44.81Z" transform="translate(-833.794 -59.173)" fill="#FFD100"></path><g id="Group_27052" data-name="Group 27052" transform="translate(1953.565 1151.272)"><g id="Group_27051" data-name="Group 27051" transform="translate(0 0)"><path id="Path_37427" data-name="Path 37427" d="M2628.281,3118.186l4.936-47.651-22-3.365,2.172,51.016a5.227,5.227,0,0,1-.908,2.944l-2.452,3.6h21.615l-2.452-3.6A5.222,5.222,0,0,1,2628.281,3118.186Z" transform="translate(-2606.008 -3067.17)" fill="#fbd3a8"></path><path id="Path_37428" data-name="Path 37428" d="M2583.479,3430v5.162c1.148,3,29.2,3.108,29.649,0v-4.773a9.4,9.4,0,0,0-.458-2.925c-4.884-14.9-25.671-12.584-28.915.25A9.327,9.327,0,0,0,2583.479,3430Z" transform="translate(-2583.479 -3364.196)" fill="#232323"></path><path id="Path_37429" data-name="Path 37429" d="M2600.8,3467.1c3.313-7.411,21.249-7.428,24.289-.051a.849.849,0,0,1-.542,1.137c-5.938,1.775-18.791,1.674-23.272.063A.847.847,0,0,1,2600.8,3467.1Z" transform="translate(-2598.114 -3401.841)" fill="#ffd9a4"></path><path id="Path_37430" data-name="Path 37430" d="M2704.372,3495.8l.9-2.9a.432.432,0,0,1,.817.006l.72,2.743Z" transform="translate(-2686.076 -3428.216)" fill="#232323"></path><path id="Path_37431" data-name="Path 37431" d="M2590.185,3450.656c-1.176,1.488-1.568,4.4,0,5.679-2.83-.219-5.37-.637-6.686-1.9l-.02-5.162c0-4.746,3.233-8.053,5.068-9.4a3.5,3.5,0,0,0,2.478,4.661,7.31,7.31,0,0,0-5.1,4.354C2585.9,3450.262,2587.823,3450.577,2590.185,3450.656Z" transform="translate(-2583.479 -3383.473)" fill="#3b3b3b"></path><path id="Path_37432" data-name="Path 37432" d="M2603.854,3478.928c-1.132,1.5-1.153,3.939-.365,4.545-1.093-.146-1.962-.411-2.135-1.048C2601.5,3481.163,2602.665,3479.876,2603.854,3478.928Z" transform="translate(-2598.648 -3416.611)" fill="#f8a364" opacity="0.35"></path><path id="Path_37433" data-name="Path 37433" d="M2746.737,3477.818c1.131,1.5,1.152,3.938.365,4.545,1.093-.146,1.963-.411,2.135-1.048C2749.092,3480.052,2747.926,3478.766,2746.737,3477.818Z" transform="translate(-2722.029 -3415.669)" fill="#f8a364" opacity="0.35"></path><path id="Path_37434" data-name="Path 37434" d="M2716.159,3437.726c1.8,1.124,2.985,2.46,2.657,2.985s-2.05.039-3.846-1.085-2.986-2.46-2.657-2.985S2714.363,3436.6,2716.159,3437.726Z" transform="translate(-2692.769 -3380.544)" fill="#fff" opacity="0.2"></path><path id="Path_37435" data-name="Path 37435" d="M2750.683,3501.674a.06.06,0,0,1,.119,0l.216,3.784a.556.556,0,0,1-.5.553l-3.375.425a.065.065,0,0,1-.029-.127l2.74-.882a.556.556,0,0,0,.395-.428Z" transform="translate(-2722.306 -3435.869)" fill="#fff" opacity="0.2"></path></g><path id="Path_37436" data-name="Path 37436" d="M2645.419,3351.582c-4.674,1.742-12.314,1.4-15.45-.306l-.2-4.718,16.329.22Z" transform="translate(-2622.762 -3304.273)" fill="#f8a364" opacity="0.35"></path></g><g id="Group_27054" data-name="Group 27054" transform="translate(1994.864 1151.272)"><g id="Group_27053" data-name="Group 27053" transform="translate(0 0)"><path id="Path_37437" data-name="Path 37437" d="M2877.428,3118.186l-4.935-47.651,22-3.365-2.172,51.016a5.225,5.225,0,0,0,.908,2.944l2.452,3.6h-21.614l2.452-3.6A5.221,5.221,0,0,0,2877.428,3118.186Z" transform="translate(-2870.051 -3067.17)" fill="#fbd3a8"></path><path id="Path_37438" data-name="Path 37438" d="M2886.009,3430v5.162c-1.148,3-29.2,3.108-29.65,0v-4.773a9.391,9.391,0,0,1,.458-2.925c4.883-14.9,25.671-12.584,28.915.25A9.34,9.34,0,0,1,2886.009,3430Z" transform="translate(-2856.359 -3364.196)" fill="#232323"></path><path id="Path_37439" data-name="Path 37439" d="M2897.957,3467.1c-3.313-7.411-21.249-7.428-24.289-.051a.848.848,0,0,0,.542,1.137c5.938,1.775,18.791,1.674,23.272.063A.848.848,0,0,0,2897.957,3467.1Z" transform="translate(-2870.993 -3401.841)" fill="#ffd9a4"></path><path id="Path_37440" data-name="Path 37440" d="M2917.724,3495.8l-.9-2.9a.432.432,0,0,0-.816.006l-.721,2.743Z" transform="translate(-2906.37 -3428.216)" fill="#232323"></path><path id="Path_37441" data-name="Path 37441" d="M3003.251,3450.656c1.176,1.488,1.568,4.4,0,5.679,2.83-.219,5.37-.637,6.686-1.9l.02-5.162c0-4.746-3.234-8.053-5.068-9.4a3.5,3.5,0,0,1-2.478,4.661,7.31,7.31,0,0,1,5.1,4.354C3007.536,3450.262,3005.613,3450.577,3003.251,3450.656Z" transform="translate(-2980.307 -3383.473)" fill="#3b3b3b"></path><path id="Path_37442" data-name="Path 37442" d="M3017.874,3478.928c1.131,1.5,1.153,3.939.365,4.545,1.093-.146,1.963-.411,2.135-1.048C3020.23,3481.163,3019.064,3479.876,3017.874,3478.928Z" transform="translate(-2993.43 -3416.611)" fill="#f8a364" opacity="0.35"></path><path id="Path_37443" data-name="Path 37443" d="M2874.993,3477.818c-1.131,1.5-1.153,3.938-.365,4.545-1.093-.146-1.963-.411-2.135-1.048C2872.637,3480.052,2873.8,3478.766,2874.993,3477.818Z" transform="translate(-2870.051 -3415.669)" fill="#f8a364" opacity="0.35"></path><path id="Path_37444" data-name="Path 37444" d="M2882.51,3437.726c-1.8,1.124-2.986,2.46-2.657,2.985s2.05.039,3.846-1.085,2.985-2.46,2.657-2.985S2884.306,3436.6,2882.51,3437.726Z" transform="translate(-2876.25 -3380.544)" fill="#fff" opacity="0.2"></path><path id="Path_37445" data-name="Path 37445" d="M2862.891,3501.674a.06.06,0,0,0-.119,0l-.216,3.784a.556.556,0,0,0,.5.553l3.375.425a.065.065,0,0,0,.029-.127l-2.74-.882a.556.556,0,0,1-.395-.428Z" transform="translate(-2861.618 -3435.869)" fill="#fff" opacity="0.2"></path></g><path id="Path_37446" data-name="Path 37446" d="M2898.765,3351.582c4.674,1.742,12.314,1.4,15.45-.306l.2-4.718-16.329.22Z" transform="translate(-2891.771 -3304.273)" fill="#f8a364" opacity="0.35"></path></g><path id="Path_37447" data-name="Path 37447" d="M2613.2,2703.357c-15.551,12.437-82.643,12.437-92.082,0l4.353-121.807,83.686-.662Z" transform="translate(-576.989 -1503.212)" fill="#f9f9f9"></path><path id="Path_37448" data-name="Path 37448" d="M2920.586,1250.394,2953,1225.036l13.375,2.686c1.243,10.628-.533,23-3.821,36.249-11.386,23.238-21.735,26.4-21.735,26.4l-20.236-.05Z" transform="translate(-916.001 -352.562)" fill="#2d2d2d"></path><path id="Path_37449" data-name="Path 37449" d="M2479.779,1250.394l-32.417-25.358-13.375,2.686c-1.243,10.628.533,23,3.821,36.249,11.386,23.238,21.735,26.4,21.735,26.4l20.236-.05Z" transform="translate(-502.709 -352.562)" fill="#2d2d2d"></path><ellipse id="Ellipse_456" data-name="Ellipse 456" cx="13.853" cy="6.514" rx="13.853" ry="6.514" transform="translate(1976.458 945.537)" fill="#aeb5b5"></ellipse><path id="Path_37450" data-name="Path 37450" d="M2762.693,1693.582h-21.4c.178,8.686-1.031,14.157-2.306,17.578a3.348,3.348,0,0,0,.926,3.658c4.674,4.178,18.636,5.675,24.32-.453a3.346,3.346,0,0,0,.685-3.418C2763.674,1707.514,2762.518,1702.09,2762.693,1693.582Z" transform="translate(-761.714 -750.196)" fill="#fbd3a8"></path><path id="Path_37451" data-name="Path 37451" d="M2756.055,1687.278l20.409.136.342,5.88c-3.2,4.716-18.945,4.517-21.33-.221Z" transform="translate(-775.879 -744.846)" fill="#f8a364" opacity="0.35"></path><path id="Path_37452" data-name="Path 37452" d="M2576.378,1744.394v232.69h-43.135l3.125-152.554-.05-73.328a1.283,1.283,0,0,1,.452-.906c5.158-4.556,14.052-6.527,24.309-7.481a1.442,1.442,0,0,0,1.168-.811l1.8-3.758a.4.4,0,0,1,.729.008C2567.685,1744.381,2576.378,1744.394,2576.378,1744.394Z" transform="translate(-587.281 -787.906)" fill="#f9f9f9"></path><g id="Group_27056" data-name="Group 27056" transform="translate(1930.289 893.781)"><path id="Path_37453" data-name="Path 37453" d="M2442.652,1390.89c-9.22,0-15.1-12.272-12.237-20.193a7.373,7.373,0,0,1,3.932-4.348c3.335-1.431,6.344.331,8.3,1.645Z" transform="translate(-2429.687 -1365.816)" fill="#fbd3a8"></path><path id="Path_37454" data-name="Path 37454" d="M2465.465,1403.012c-12.5-4.446-10.392,14.028-.117,14.48" transform="translate(-2452.738 -1396.797)" fill="#fbbd89"></path><g id="Group_27055" data-name="Group 27055" transform="translate(4.073 5.342)"><path id="Path_37455" data-name="Path 37455" d="M2465.531,1402.448a13.754,13.754,0,0,0-3.4-.761,7.25,7.25,0,0,0-1.721.059,4.738,4.738,0,0,0-1.605.558,3.809,3.809,0,0,0-1.231,1.169,4.883,4.883,0,0,0-.672,1.6,8.114,8.114,0,0,0-.2,1.756,14.12,14.12,0,0,0,.106,1.78,10.231,10.231,0,0,1-.089-3.576,5.124,5.124,0,0,1,.616-1.714,4.136,4.136,0,0,1,1.271-1.341,5.156,5.156,0,0,1,1.718-.7,7.8,7.8,0,0,1,1.839-.163,14.4,14.4,0,0,1,3.6.606Z" transform="translate(-2456.596 -1401.112)" fill="#603813"></path></g></g><g id="Group_27059" data-name="Group 27059" transform="translate(2036.77 893.781)"><path id="Path_37456" data-name="Path 37456" d="M3135.063,1390.89c9.22,0,15.1-12.272,12.237-20.193a7.374,7.374,0,0,0-3.932-4.348c-3.335-1.431-6.344.331-8.3,1.645Z" transform="translate(-3134.788 -1365.816)" fill="#fbd3a8"></path><path id="Path_37457" data-name="Path 37457" d="M3136.639,1403.012c12.5-4.446,10.392,14.028.117,14.48" transform="translate(-3136.126 -1396.797)" fill="#fbbd89"></path><g id="Group_27058" data-name="Group 27058" transform="translate(0 5.342)"><g id="Group_27057" data-name="Group 27057"><path id="Path_37458" data-name="Path 37458" d="M3133.25,1401.72a14.4,14.4,0,0,1,3.6-.606,7.792,7.792,0,0,1,1.839.163,5.157,5.157,0,0,1,1.718.7,4.131,4.131,0,0,1,1.271,1.341,5.1,5.1,0,0,1,.616,1.714,10.255,10.255,0,0,1-.089,3.576,14.166,14.166,0,0,0,.106-1.78,8.085,8.085,0,0,0-.205-1.756,4.878,4.878,0,0,0-.672-1.6,3.8,3.8,0,0,0-1.231-1.169,4.731,4.731,0,0,0-1.6-.558,7.249,7.249,0,0,0-1.721-.059,13.745,13.745,0,0,0-3.4.761Z" transform="translate(-3133.25 -1401.112)" fill="#603813"></path></g></g></g><path id="Path_37459" data-name="Path 37459" d="M2583.625,1078.985h-93.977c-12.752,58.087-3.59,96.287,46.344,97.484h1.288C2587.215,1175.272,2596.377,1137.072,2583.625,1078.985Z" transform="translate(-545.896 -228.615)" fill="#fbd3a8"></path><ellipse id="Ellipse_457" data-name="Ellipse 457" cx="4.184" cy="6.678" rx="4.184" ry="6.678" transform="translate(1967.376 891.733)" fill="#2d2d2d"></ellipse><ellipse id="Ellipse_458" data-name="Ellipse 458" cx="2.037" cy="2.521" rx="2.037" ry="2.521" transform="translate(1970.117 893.028)" fill="#fff"></ellipse><ellipse id="Ellipse_459" data-name="Ellipse 459" cx="4.184" cy="6.678" rx="4.184" ry="6.678" transform="translate(2004.921 891.733)" fill="#2d2d2d"></ellipse><ellipse id="Ellipse_460" data-name="Ellipse 460" cx="2.037" cy="2.521" rx="2.037" ry="2.521" transform="translate(2007.662 893.028)" fill="#fff"></ellipse><path id="Path_37462" data-name="Path 37462" d="M2800.224,1491.285a1.25,1.25,0,0,0,.6-.065c3.633-1.064,4.159,3.008,1.235,3.378-2.79.255-4.257-.687-5.156-1.9a1.1,1.1,0,0,1,.709-1.751A9.174,9.174,0,0,1,2800.224,1491.285Z" transform="translate(-810.85 -578.214)" fill="#f8a364"></path><path id="Path_37463" data-name="Path 37463" d="M2922.2,1280.292c-4.02.075-5.545-3.784-2.742-6.133a5.662,5.662,0,0,1,4.286-1.038c4.175.448,6.76,1.926,7.221,4.783a3.124,3.124,0,0,1-.9,2.815c-1.47,1.345-3.754.829-6.243-.156A4.19,4.19,0,0,0,2922.2,1280.292Z" transform="translate(-913.831 -393.328)" fill="#2d2d2d"></path><path id="Path_37464" data-name="Path 37464" d="M2662.889,1280.292c4.02.075,5.546-3.784,2.742-6.133a5.662,5.662,0,0,0-4.286-1.038c-4.174.448-6.76,1.926-7.22,4.783a3.124,3.124,0,0,0,.9,2.815c1.471,1.345,3.754.829,6.243-.156A4.186,4.186,0,0,1,2662.889,1280.292Z" transform="translate(-689.829 -393.328)" fill="#2d2d2d"></path><path id="Path_37465" data-name="Path 37465" d="M2448.048,1021.906" transform="translate(-514.98 -180.175)" fill="#f1f2f2"></path><path id="Path_37466" data-name="Path 37466" d="M2496.717,1228.573c-7.688,8.815-9.563,25.211-8.628,42.805-5.062-15.492-3.1-42.805-3.1-42.805Z" transform="translate(-546.013 -355.564)" fill="#2d2d2d"></path><path id="Path_37467" data-name="Path 37467" d="M3094.8,1228.573c7.688,8.815,9.563,25.211,8.628,42.805,5.062-15.492,3.1-42.805,3.1-42.805Z" transform="translate(-1063.845 -355.564)" fill="#2d2d2d"></path><path id="Path_37468" data-name="Path 37468" d="M2717.333,1742.832c.539,5.229,6.337,9.121,13.443,9.648v103.172h7.411l-.989-102.279-4.565-1.224v-7.737c-5.292-.306-9.538-2.07-11.626-6.189a.407.407,0,0,0-.7.04l-2.009,4.072A1.468,1.468,0,0,1,2717.333,1742.832Z" transform="translate(-743.51 -787.924)" fill="#aeb5b5" opacity="0.5"></path><path id="Path_37469" data-name="Path 37469" d="M2806.49,1829.975l-5.756,1.675v102.024" transform="translate(-814.288 -865.946)" fill="none" stroke="#aeb5b5" stroke-miterlimit="10" stroke-width="15"></path><path id="Path_37470" data-name="Path 37470" d="M2807.717,1744.394v7.737l-4.564,1.224v223.729h47.275l-2.7-152.554.05-73.328a1.284,1.284,0,0,0-.452-.906c-5.158-4.556-14.052-6.527-24.309-7.481a1.442,1.442,0,0,1-1.168-.811l-1.8-3.758a.4.4,0,0,0-.729.008C2816.41,1744.381,2807.717,1744.394,2807.717,1744.394Z" transform="translate(-816.341 -787.906)" fill="#f9f9f9"></path><path id="Path_37471" data-name="Path 37471" d="M2817.47,1742.832c-.54,5.229-6.337,9.121-13.443,9.648v103.172h-7.411l.989-102.279,4.565-1.224v-7.737c5.292-.306,9.538-2.07,11.625-6.189a.406.406,0,0,1,.7.04l2.009,4.072A1.469,1.469,0,0,0,2817.47,1742.832Z" transform="translate(-810.794 -787.924)" fill="#aeb5b5" opacity="0.5"></path><g id="Group_27060" data-name="Group 27060" transform="translate(1987.977 970.408)"><path id="Path_37472" data-name="Path 37472" d="M2814.219,1873.805a1.683,1.683,0,1,1-1.683-1.683A1.683,1.683,0,0,1,2814.219,1873.805Z" transform="translate(-2810.853 -1872.122)" fill="#aeb5b5"></path><path id="Path_37473" data-name="Path 37473" d="M2814.219,2010.269a1.683,1.683,0,1,1-1.683-1.683A1.683,1.683,0,0,1,2814.219,2010.269Z" transform="translate(-2810.853 -1987.933)" fill="#aeb5b5"></path><path id="Path_37474" data-name="Path 37474" d="M2814.219,2154.221a1.683,1.683,0,1,1-1.683-1.683A1.683,1.683,0,0,1,2814.219,2154.221Z" transform="translate(-2810.853 -2110.099)" fill="#aeb5b5"></path><path id="Path_37475" data-name="Path 37475" d="M2814.219,2290.684a1.683,1.683,0,1,1-1.683-1.683A1.683,1.683,0,0,1,2814.219,2290.684Z" transform="translate(-2810.853 -2225.908)" fill="#aeb5b5"></path><path id="Path_37476" data-name="Path 37476" d="M2814.219,2427.148a1.683,1.683,0,1,1-1.683-1.683A1.683,1.683,0,0,1,2814.219,2427.148Z" transform="translate(-2810.853 -2341.719)" fill="#aeb5b5"></path></g><path id="Path_37477" data-name="Path 37477" d="M2713.8,1532.372v-4.283c-9.505-.437-15.337.843-18.309,3.951a9.787,9.787,0,0,0-2.654,6.777v4.976h4.589c-1.716-4.032-2.213-7.425,0-9.683a5.474,5.474,0,0,1,3.854-1.6Z" transform="translate(-722.725 -609.679)" fill="#2d2d2d"></path><path id="Path_37478" data-name="Path 37478" d="M2827.23,1532.372v-4.283c9.506-.437,15.337.843,18.309,3.951a9.787,9.787,0,0,1,2.655,6.777v4.976H2843.6c1.717-4.032,2.213-7.425,0-9.683a5.474,5.474,0,0,0-3.854-1.6Z" transform="translate(-836.774 -609.679)" fill="#2d2d2d"></path><g id="Group_27065" data-name="Group 27065" transform="translate(1925.559 809.6)"><g id="Group_27064" data-name="Group 27064" transform="translate(0 0)" clip-path="url(#clip-path)"><g id="Group_27063" data-name="Group 27063" transform="translate(-55.849 -36.27)"><rect id="Rectangle_9747" data-name="Rectangle 9747" width="253.251" height="242.24" transform="translate(0 2.841)" fill="#fff"></rect><g id="Group_27061" data-name="Group 27061" transform="translate(2.665 2.841)" opacity="0.6"><rect id="Rectangle_9748" data-name="Rectangle 9748" width="4.445" height="242.24" transform="translate(37.458)" fill="#6A2186"></rect><rect id="Rectangle_9749" data-name="Rectangle 9749" width="4.445" height="242.24" transform="translate(28.093)" fill="#6A2186"></rect><rect id="Rectangle_9750" data-name="Rectangle 9750" width="4.445" height="242.24" transform="translate(18.729)" fill="#6A2186"></rect><rect id="Rectangle_9751" data-name="Rectangle 9751" width="4.445" height="242.24" transform="translate(9.364)" fill="#6A2186"></rect><rect id="Rectangle_9752" data-name="Rectangle 9752" width="4.445" height="242.24" fill="#6A2186"></rect><rect id="Rectangle_9753" data-name="Rectangle 9753" width="4.445" height="242.24" transform="translate(46.822)" fill="#6A2186"></rect><rect id="Rectangle_9754" data-name="Rectangle 9754" width="4.445" height="242.24" transform="translate(56.187)" fill="#6A2186"></rect><rect id="Rectangle_9755" data-name="Rectangle 9755" width="4.445" height="242.24" transform="translate(65.551)" fill="#6A2186"></rect><rect id="Rectangle_9756" data-name="Rectangle 9756" width="4.445" height="242.24" transform="translate(74.916)" fill="#6A2186"></rect><rect id="Rectangle_9757" data-name="Rectangle 9757" width="4.445" height="242.24" transform="translate(84.28)" fill="#6A2186"></rect><rect id="Rectangle_9758" data-name="Rectangle 9758" width="4.445" height="242.24" transform="translate(131.103)" fill="#6A2186"></rect><rect id="Rectangle_9759" data-name="Rectangle 9759" width="4.445" height="242.24" transform="translate(121.738)" fill="#6A2186"></rect><rect id="Rectangle_9760" data-name="Rectangle 9760" width="4.445" height="242.24" transform="translate(112.374)" fill="#6A2186"></rect><rect id="Rectangle_9761" data-name="Rectangle 9761" width="4.445" height="242.24" transform="translate(103.009)" fill="#6A2186"></rect><rect id="Rectangle_9762" data-name="Rectangle 9762" width="4.445" height="242.24" transform="translate(93.645)" fill="#6A2186"></rect><rect id="Rectangle_9763" data-name="Rectangle 9763" width="4.445" height="242.24" transform="translate(140.467)" fill="#6A2186"></rect><rect id="Rectangle_9764" data-name="Rectangle 9764" width="4.445" height="242.24" transform="translate(149.832)" fill="#6A2186"></rect><rect id="Rectangle_9765" data-name="Rectangle 9765" width="4.445" height="242.24" transform="translate(159.196)" fill="#6A2186"></rect><rect id="Rectangle_9766" data-name="Rectangle 9766" width="4.445" height="242.24" transform="translate(168.561)" fill="#6A2186"></rect><rect id="Rectangle_9767" data-name="Rectangle 9767" width="4.445" height="242.24" transform="translate(177.925)" fill="#6A2186"></rect><rect id="Rectangle_9768" data-name="Rectangle 9768" width="4.445" height="242.24" transform="translate(187.29)" fill="#6A2186"></rect><rect id="Rectangle_9769" data-name="Rectangle 9769" width="4.445" height="242.24" transform="translate(196.654)" fill="#6A2186"></rect><rect id="Rectangle_9770" data-name="Rectangle 9770" width="4.445" height="242.24" transform="translate(206.019)" fill="#6A2186"></rect><rect id="Rectangle_9771" data-name="Rectangle 9771" width="4.445" height="242.24" transform="translate(215.383)" fill="#6A2186"></rect><rect id="Rectangle_9772" data-name="Rectangle 9772" width="4.445" height="242.24" transform="translate(224.748)" fill="#6A2186"></rect><rect id="Rectangle_9773" data-name="Rectangle 9773" width="4.445" height="242.24" transform="translate(234.112)" fill="#6A2186"></rect><rect id="Rectangle_9774" data-name="Rectangle 9774" width="4.445" height="242.24" transform="translate(243.477)" fill="#6A2186"></rect></g><g id="Group_27062" data-name="Group 27062" transform="translate(5.505 0)" opacity="0.8"><rect id="Rectangle_9775" data-name="Rectangle 9775" width="4.445" height="242.24" transform="translate(0 210.463) rotate(-90)" fill="#6A2186"></rect><rect id="Rectangle_9776" data-name="Rectangle 9776" width="4.445" height="242.24" transform="translate(0 219.828) rotate(-90)" fill="#6A2186"></rect><rect id="Rectangle_9777" data-name="Rectangle 9777" width="4.445" height="242.24" transform="translate(0 229.192) rotate(-90)" fill="#6A2186"></rect><rect id="Rectangle_9778" data-name="Rectangle 9778" width="4.445" height="242.24" transform="translate(0 238.557) rotate(-90)" fill="#6A2186"></rect><rect id="Rectangle_9779" data-name="Rectangle 9779" width="4.445" height="242.24" transform="translate(0 247.921) rotate(-90)" fill="#6A2186"></rect><rect id="Rectangle_9780" data-name="Rectangle 9780" width="4.445" height="242.24" transform="translate(0 201.099) rotate(-90)" fill="#6A2186"></rect><rect id="Rectangle_9781" data-name="Rectangle 9781" width="4.445" height="242.24" transform="translate(0 191.734) rotate(-90)" fill="#6A2186"></rect><rect id="Rectangle_9782" data-name="Rectangle 9782" width="4.445" height="242.24" transform="translate(0 182.37) rotate(-90)" fill="#6A2186"></rect><rect id="Rectangle_9783" data-name="Rectangle 9783" width="4.445" height="242.24" transform="translate(0 173.005) rotate(-90)" fill="#6A2186"></rect><rect id="Rectangle_9784" data-name="Rectangle 9784" width="4.445" height="242.24" transform="translate(0 163.641) rotate(-90)" fill="#6A2186"></rect><rect id="Rectangle_9785" data-name="Rectangle 9785" width="4.445" height="242.24" transform="translate(0 116.818) rotate(-90)" fill="#6A2186"></rect><rect id="Rectangle_9786" data-name="Rectangle 9786" width="4.445" height="242.24" transform="translate(0 126.183) rotate(-90)" fill="#6A2186"></rect><rect id="Rectangle_9787" data-name="Rectangle 9787" width="4.445" height="242.24" transform="translate(0 135.547) rotate(-90)" fill="#6A2186"></rect><rect id="Rectangle_9788" data-name="Rectangle 9788" width="4.445" height="242.24" transform="translate(0 144.912) rotate(-90)" fill="#6A2186"></rect><rect id="Rectangle_9789" data-name="Rectangle 9789" width="4.445" height="242.24" transform="translate(0 154.276) rotate(-90)" fill="#6A2186"></rect><rect id="Rectangle_9790" data-name="Rectangle 9790" width="4.445" height="242.24" transform="translate(0 107.454) rotate(-90)" fill="#6A2186"></rect><rect id="Rectangle_9791" data-name="Rectangle 9791" width="4.445" height="242.24" transform="translate(0 98.089) rotate(-90)" fill="#6A2186"></rect><rect id="Rectangle_9792" data-name="Rectangle 9792" width="4.445" height="242.24" transform="translate(0 88.725) rotate(-90)" fill="#6A2186"></rect><rect id="Rectangle_9793" data-name="Rectangle 9793" width="4.445" height="242.24" transform="translate(0 79.36) rotate(-90)" fill="#6A2186"></rect><rect id="Rectangle_9794" data-name="Rectangle 9794" width="4.445" height="242.24" transform="translate(0 69.996) rotate(-90)" fill="#6A2186"></rect><rect id="Rectangle_9795" data-name="Rectangle 9795" width="4.445" height="242.24" transform="translate(0 60.631) rotate(-90)" fill="#6A2186"></rect><rect id="Rectangle_9796" data-name="Rectangle 9796" width="4.445" height="242.24" transform="translate(0 51.267) rotate(-90)" fill="#6A2186"></rect><rect id="Rectangle_9797" data-name="Rectangle 9797" width="4.445" height="242.24" transform="translate(0 41.903) rotate(-90)" fill="#6A2186"></rect><rect id="Rectangle_9798" data-name="Rectangle 9798" width="4.445" height="242.24" transform="translate(0 32.538) rotate(-90)" fill="#6A2186"></rect><rect id="Rectangle_9799" data-name="Rectangle 9799" width="4.445" height="242.24" transform="translate(0 23.174) rotate(-90)" fill="#6A2186"></rect><rect id="Rectangle_9800" data-name="Rectangle 9800" width="4.445" height="242.24" transform="translate(0 13.809) rotate(-90)" fill="#6A2186"></rect><rect id="Rectangle_9801" data-name="Rectangle 9801" width="4.445" height="242.24" transform="translate(0 4.445) rotate(-90)" fill="#6A2186"></rect></g></g></g></g><path id="Rectangle_9802" data-name="Rectangle 9802" d="M9.078,0h107.43a9.078,9.078,0,0,1,9.078,9.078v0a3.243,3.243,0,0,1-3.243,3.243H3.243A3.243,3.243,0,0,1,0,9.078v0A9.078,9.078,0,0,1,9.078,0Z" transform="translate(1927.63 847.415)" fill="#2d2d2d"></path><g id="Group_27071" data-name="Group 27071" transform="translate(1978.306 923.615)"><g id="Group_27069" data-name="Group 27069" transform="translate(0.28 0.279)"><g id="Group_27066" data-name="Group 27066"><path id="Path_37480" data-name="Path 37480" d="M2772.636,1564.788a85.378,85.378,0,0,1-23.805,0s-1.269,11.752,11.794,11.719h.217C2773.9,1576.54,2772.636,1564.788,2772.636,1564.788Z" transform="translate(-2748.797 -1564.788)" fill="#be1717"></path></g><g id="Group_27067" data-name="Group 27067" transform="translate(0)"><path id="Path_37481" data-name="Path 37481" d="M2772.638,1564.788a85.355,85.355,0,0,1-23.805,0,10.437,10.437,0,0,0-.017,1.472c2.368.917,6.124,1.663,11.92,1.642,5.795.021,9.551-.725,11.919-1.642A10.409,10.409,0,0,0,2772.638,1564.788Z" transform="translate(-2748.799 -1564.788)" fill="#fff"></path></g><g id="Group_27068" data-name="Group 27068" transform="translate(3.253 6.181)"><path id="Path_37482" data-name="Path 37482" d="M2787.657,1608.414a13.365,13.365,0,0,0-8.586-2.782v0l-.1,0-.1,0v0a13.366,13.366,0,0,0-8.586,2.782c1.758,1.6,4.451,2.763,8.574,2.752h.217C2783.207,1611.177,2785.9,1610.012,2787.657,1608.414Z" transform="translate(-2770.291 -1605.629)" fill="#ff2929"></path></g></g><g id="Group_27070" data-name="Group 27070" transform="translate(0 0)"><path id="Path_37483" data-name="Path 37483" d="M2759.313,1575.22h-.256c-.184,0-.365,0-.543-.006l-.12,0c-.172-.005-.344-.012-.511-.021l-.085-.005c-.149-.009-.295-.019-.439-.031l-.106-.009q-.237-.021-.466-.048l-.121-.015q-.2-.025-.394-.054l-.083-.012c-.143-.022-.283-.046-.422-.071l-.141-.027c-.133-.025-.264-.052-.393-.081l-.078-.018-.043-.01q-.146-.034-.29-.071l-.013,0-.142-.037q-.172-.046-.339-.1l-.14-.043-.026-.008-.208-.067c-.078-.026-.156-.052-.232-.08s-.15-.054-.224-.082l-.193-.075-.136-.055c-.115-.048-.228-.1-.339-.147l-.092-.042q-.108-.05-.214-.1l-.01-.005c-.138-.068-.286-.146-.434-.228l-.032-.018c-5.728-3.2-5.093-10.158-5.063-10.452a.286.286,0,0,1,.1-.194.281.281,0,0,1,.209-.062l.044.006a85.031,85.031,0,0,0,23.646,0l.044-.005a.28.28,0,0,1,.21.059.277.277,0,0,1,.1.192c.03.3.665,7.253-5.064,10.457l-.029.016c-.153.085-.3.161-.445.233q-.107.053-.215.1l-.091.042c-.111.051-.225.1-.341.148l-.134.055-.194.076-.221.081-.236.081-.207.067-.033.01-.133.042q-.167.049-.338.1l-.15.039c-.1.025-.2.049-.295.071l-.043.01-.079.018c-.128.028-.259.055-.392.08l-.141.027c-.139.025-.279.049-.421.071l-.083.012q-.193.029-.394.053l-.122.015q-.229.027-.466.047l-.106.009q-.216.018-.438.031l-.086.005h0c-.167.009-.338.016-.511.021l-.119,0C2759.65,1575.218,2759.483,1575.22,2759.313,1575.22Zm-.151-.56h.113c.178,0,.354,0,.528-.006l.116,0c.168-.005.334-.012.5-.021h0l.084,0q.215-.013.424-.03l.1-.009q.229-.02.45-.046l.118-.014c.128-.016.256-.033.381-.052l.08-.011c.137-.021.272-.044.406-.069l.136-.026c.127-.025.253-.05.376-.077l.118-.027q.141-.033.277-.067l.149-.038q.165-.044.324-.091l.126-.039.034-.011c.066-.02.132-.042.2-.063s.15-.05.225-.077l.21-.077.185-.072.127-.052q.165-.068.323-.14l.086-.039q.1-.048.2-.1c.139-.068.276-.14.42-.22l.028-.016c4.853-2.714,4.87-8.3,4.8-9.631a85.123,85.123,0,0,1-23.29,0c-.069,1.345-.044,6.921,4.8,9.631l.022.012c.148.082.288.156.425.223l.205.1.088.04c.1.047.212.094.321.139l.129.053.184.071.213.078c.073.026.147.051.222.076l.2.064.027.008.132.041q.16.047.324.091l.135.035.013,0c.092.023.184.046.279.067l.046.011.069.016q.187.041.378.077l.136.026c.133.024.269.048.406.069l.079.011c.125.018.252.036.381.052l.117.014c.148.017.3.033.451.046l.1.009q.21.018.425.03l.083,0c.164.009.329.016.5.021l.116,0c.174,0,.349.007.529.006Z" transform="translate(-2746.949 -1562.943)" fill="#f8a364"></path></g></g><path id="Path_37484" data-name="Path 37484" d="M2620.327,1570.23c-5.988,9.63-16.841,12.764-24.7,9.031l-4.589.366c-2.741,3.71-11.192,5.529-14.693,4.429-.232-1.921.315-1.357,1.681-2.146h-6.1c1.365.789,1.913.225,1.68,2.146-3.5,1.1-11.952-.719-14.693-4.429l-4.589-.366c-7.863,3.733-18.715.6-24.7-9.031,5.855,12.012,18.48,22.279,45.042,23.335v.025c.1,0,.519,0,.624,0v-.025C2601.847,1592.509,2614.472,1582.242,2620.327,1570.23Z" transform="translate(-584.205 -645.512)" fill="#2d2d2d"></path><g id="Group_27074" data-name="Group 27074" transform="translate(1874.189 949.111)"><g id="Group_27073" data-name="Group 27073" transform="translate(0 0)"><path id="Path_37490" data-name="Path 37490" d="M2078.053,1804.6s-8.074-5.027-11.574-9.606c-3.619-4.735-3.73-3.3-5.067-7.606s2.107-9.451,1.089-10.965a11.281,11.281,0,0,1,8.915,2.293c1.861,1.615,14.682,20.756,14.682,20.756Z" transform="translate(-2057.678 -1772.626)" fill="#f8a566"></path><path id="Path_37492" data-name="Path 37492" d="M2040.536,1777.13a11.675,11.675,0,0,1,5.567,2.631c1.46,1.365,1.765,3.427-.765,3.263a14.625,14.625,0,0,1-5.871-2.014C2037.9,1779.931,2038.192,1776.565,2040.536,1777.13Z" transform="translate(-2038.489 -1773.283)" fill="#f8a566"></path><path id="Path_37493" data-name="Path 37493" d="M2042.371,1806.07a9.674,9.674,0,0,1,5.772,2.147c1.569,1.237,2.049,3.266-.488,3.318a12.427,12.427,0,0,1-6.247-2.267C2039.815,1807.9,2040.01,1806.09,2042.371,1806.07Z" transform="translate(-2040.09 -1797.897)" fill="#f8a566"></path><path id="Path_37494" data-name="Path 37494" d="M2050.685,1829.693a9.668,9.668,0,0,1,5.769,2.147c1.569,1.238,2.049,3.266-.485,3.318a12.406,12.406,0,0,1-6.247-2.267C2048.125,1831.523,2048.321,1829.713,2050.685,1829.693Z" transform="translate(-2047.143 -1817.945)" fill="#f8a566"></path><path id="Path_37495" data-name="Path 37495" d="M2053.008,1849.653a9.672,9.672,0,0,1,5.77,2.147c1.569,1.238,2.049,3.266-.485,3.318a12.4,12.4,0,0,1-6.248-2.266C2050.448,1851.485,2050.643,1849.673,2053.008,1849.653Z" transform="translate(-2049.114 -1834.884)" fill="#f8a566"></path><g id="Group_27076" data-name="Group 27076" transform="translate(-22.416 -47.071)"><path id="Path_37296" data-name="Path 37296" d="M251.574,159.486l15.219,34.7a4.448,4.448,0,0,0,5.862,2.288l34.7-15.219a4.451,4.451,0,0,0,2.287-5.862l-15.22-34.7a4.45,4.45,0,0,0-5.862-2.288l-34.7,15.22A4.448,4.448,0,0,0,251.574,159.486Zm23.138-6.693a2.292,2.292,0,1,1,.919-2.227A2.3,2.3,0,0,1,274.712,152.792Z" transform="translate(-251.198 -138.027)" fill="#FFD100"></path><g id="Group_26889" data-name="Group 26889" transform="translate(12.938 14.214)"><path id="Path_37297" data-name="Path 37297" d="M263.725,167.054c-1.672-3.812-.168-7.075,3.091-8.505s6.677-.325,8.349,3.488c1.686,3.844.172,7.075-3.087,8.505S265.411,170.9,263.725,167.054Zm15.863-13.741,5.2-2.28-5.256,27.973-5.2,2.28ZM270.8,163.951c-.9-2.059-1.849-2.378-2.526-2.082s-1.084,1.21-.181,3.269,1.853,2.378,2.529,2.082S271.7,166.013,270.8,163.951Zm13.155,6.33c-1.672-3.813-.172-7.075,3.089-8.505s6.677-.325,8.349,3.489c1.686,3.843.172,7.075-3.089,8.505S285.639,174.126,283.953,170.282Zm7.071-3.1c-.9-2.06-1.85-2.378-2.526-2.082s-1.083,1.208-.178,3.269,1.849,2.378,2.525,2.082S291.928,169.241,291.024,167.18Z" transform="translate(-263.036 -151.033)" fill="#fff"></path></g></g><path id="Path_37496" data-name="Path 37496" d="M2077.1,1775.432s-5.906-8.152-8.779-16.077c-.792-2.184-5.67-5.088-9.638-5.824s-6.267-.53-8.212-1.258c-2.173-.816-4.151.883.119,4.012a32.581,32.581,0,0,0,8.938,4.5s-1.2,6.644,1.193,10.269,9.415,10.579,9.415,10.579Z" transform="translate(-2046.613 -1752.069)" fill="#fdd4a9"></path></g><path id="Path_37497" data-name="Path 37497" d="M2203.148,1818.4l2.237,30.8-25.951,18.086c-5.3,2.152-9.726,1.166-13.371-2.594l-26.108-23.823c1.4-7.118,8.914-14.9,13.371-15.289l20.819,20.278.535-1.463h2.4C2190.894,1832.489,2196.442,1824.45,2203.148,1818.4Z" transform="translate(-2123.255 -1808.36)" fill="#f9f9f9"></path><path id="Path_37500" data-name="Path 37500" d="M278.113,142.5c-2.336-11.751-8.293-25.128-15.94-35.788-.157-.221-.318-.44-.482-.663v2.083c7.939,11.278,13.3,24.422,15.325,34.617a39.161,39.161,0,0,1,.85,10.77,11.115,11.115,0,0,1-1.536,5.191,4.456,4.456,0,0,1-1.079,1.135,3.95,3.95,0,0,1-2.114.72,2.572,2.572,0,0,0,.109,1.208,5.035,5.035,0,0,0,2.631-.937,5.533,5.533,0,0,0,1.332-1.39,12.891,12.891,0,0,0,1.821-6.472A41.69,41.69,0,0,0,278.113,142.5Zm-16.422,10.884c-11.653-15.395-28.057-60.69-30.853-68.554-.02-.06-.04-.114-.06-.169.246.055.49.11.734.169h4.139A36.9,36.9,0,0,0,230,83.285a.537.537,0,0,0-.528.205.622.622,0,0,0-.1.59c.043.124.132.378.262.748,2.456,6.962,19.832,55.5,32.054,70.4a18.177,18.177,0,0,0,3.269,3.231q.48.348.946.656l1.259-.588q-.766-.471-1.578-1.057A19.737,19.737,0,0,1,261.691,153.383Z" transform="translate(-275.645 -195.078)" fill="#000b17"></path></g><path id="Path_37498" data-name="Path 37498" d="M916.1,1534.4l-16.54-28.694c-10.142-14.924-24.738-2.215-17.4,7l16.791,28.482c9.175,11.53,24.385,5.43,17.153-6.79" transform="translate(1137.111 -538.409)" fill="#f9f9f9" fill-rule="evenodd"></path><path id="Path_37499" data-name="Path 37499" d="M890.768,1744.706l-28.216,31.42a2.189,2.189,0,0,1-1.972.516c-2.866-.593-8.313-3.087-10.145-4.677a.955.955,0,0,1-.088-1.47l24.319-32.411c5.7-5.78,20.757,1.129,16.1,6.622" transform="translate(1163.247 -738.746)" fill="#f9f9f9"></path></g></g></g></svg> 