<?xml version="1.0" encoding="UTF-8"?> <svg xmlns="http://www.w3.org/2000/svg" xmlns:xlink="http://www.w3.org/1999/xlink" width="539.264" height="409.352" viewBox="0 0 539.264 409.352"><style> .man { animation-name: man; animation-fill-mode: both; animation-duration: 4s; transform-origin: left; transform-box:fill-box ; animation-iteration-count: infinite; } @keyframes man { 0% { transform:translateX(0px) ; } 50% { transform:translateX(-50px); } 100% { transform:translateX(0px) ; } } .arrow-1 { animation-name: arrow-1 ; animation-fill-mode: both; animation-duration: 4s; transform-origin: left; transform-box:fill-box ; animation-iteration-count: infinite; } @keyframes arrow-1 { 0% { transform:translateY(0px) ; } 50% { transform:translateY(20px); } 100% { transform:translateY(0px) ; } } .arrow-2 { animation-name: arrow-2 ; animation-fill-mode: both; animation-duration: 4s; transform-origin: left; transform-box:fill-box ; animation-iteration-count: infinite; } @keyframes arrow-2 { 0% { transform:translateY(0px) ; } 50% { transform:translateY(-20px); } 100% { transform:translateY(0px) ; } } </style><defs><linearGradient id="linear-gradient" x1="0.5" x2="0.5" y2="1" gradientUnits="objectBoundingBox"><stop offset="0" stop-color="#6A2186"></stop><stop offset="1" stop-color="#d13c44" stop-opacity="0.922"></stop></linearGradient><linearGradient id="linear-gradient-2" x1="0.5" x2="0.5" y2="1" gradientUnits="objectBoundingBox"><stop offset="0" stop-color="#6A2186" stop-opacity="0.878"></stop><stop offset="1" stop-color="#d13c44" stop-opacity="0.922"></stop></linearGradient><clipPath id="clip-path"><path id="Path_37233" data-name="Path 37233" d="M2812.118,691.871h-4.229c-59.112,5.817-76.6,62.152-49.013,173.594,2.259-6.851,5.133-16.189,9.746-21.872-5.352-40.952-7.716-76.2,5.665-91.673,11.5,4.331,59.936,4.331,71.433,0,13.38,15.469,10.972,51.062,5.62,92.014,4.138,5.6,7.258,14.679,9.517,21.53C2888.439,754.023,2871.23,697.688,2812.118,691.871Z" transform="translate(-2746.114 -691.871)" fill="none"></path></clipPath></defs><g id="الإستضافة" transform="translate(-163 -145.324)"><g id="Group_27162" data-name="Group 27162" transform="translate(130.652 103.45)"><g id="Group_27090" data-name="Group 27090"><g id="Group_27082" data-name="Group 27082"><g id="Group_27077" data-name="Group 27077"><line id="Line_163" data-name="Line 163" y2="6.987" transform="translate(443.997 72.494)" fill="none" stroke="#f0c8ff" stroke-linecap="round" stroke-linejoin="round" stroke-width="3.886"></line><line id="Line_164" data-name="Line 164" x2="6.987" transform="translate(440.504 75.988)" fill="none" stroke="#f0c8ff" stroke-linecap="round" stroke-linejoin="round" stroke-width="3.886"></line></g><g id="Group_27078" data-name="Group 27078"><line id="Line_165" data-name="Line 165" y2="10.815" transform="translate(385.556 62.164)" fill="none" stroke="#f0c8ff" stroke-linecap="round" stroke-linejoin="round" stroke-width="3.886"></line><line id="Line_166" data-name="Line 166" x2="10.815" transform="translate(380.149 67.572)" fill="none" stroke="#f0c8ff" stroke-linecap="round" stroke-linejoin="round" stroke-width="3.886"></line></g><g id="Group_27079" data-name="Group 27079"><line id="Line_167" data-name="Line 167" y2="5.703" transform="translate(438.093 133.37)" fill="none" stroke="#f0c8ff" stroke-linecap="round" stroke-linejoin="round" stroke-width="3.886"></line><line id="Line_168" data-name="Line 168" x2="5.703" transform="translate(435.241 136.222)" fill="none" stroke="#f0c8ff" stroke-linecap="round" stroke-linejoin="round" stroke-width="3.886"></line></g><path id="Path_37501" data-name="Path 37501" d="M420.438,94.59a9.834,9.834,0,1,0,9.834-9.834A9.834,9.834,0,0,0,420.438,94.59Z" fill="none" stroke="#f0c8ff" stroke-linecap="round" stroke-linejoin="round" stroke-width="3.886"></path><g id="Group_27080" data-name="Group 27080"><line id="Line_169" data-name="Line 169" y1="8.759" transform="translate(462.102 169.552)" fill="none" stroke="#f0c8ff" stroke-linecap="round" stroke-linejoin="round" stroke-width="3.886"></line><line id="Line_170" data-name="Line 170" x1="8.76" transform="translate(457.722 173.932)" fill="none" stroke="#f0c8ff" stroke-linecap="round" stroke-linejoin="round" stroke-width="3.886"></line></g><g id="Group_27081" data-name="Group 27081"><line id="Line_171" data-name="Line 171" y1="8.759" transform="translate(410.573 153.709)" fill="none" stroke="#f0c8ff" stroke-linecap="round" stroke-linejoin="round" stroke-width="3.886"></line><line id="Line_172" data-name="Line 172" x1="8.759" transform="translate(406.193 158.089)" fill="none" stroke="#f0c8ff" stroke-linecap="round" stroke-linejoin="round" stroke-width="3.886"></line></g><circle id="Ellipse_461" data-name="Ellipse 461" cx="7.965" cy="7.965" r="7.965" transform="translate(425.615 194.775) rotate(-45)" fill="none" stroke="#f0c8ff" stroke-linecap="round" stroke-linejoin="round" stroke-width="3.886"></circle></g><g id="Group_27085" data-name="Group 27085"><g id="Group_27083" data-name="Group 27083"><line id="Line_173" data-name="Line 173" y2="15.731" transform="translate(51.496 334.243)" fill="none" stroke="#e4e4e4" stroke-linecap="round" stroke-linejoin="round" stroke-width="3.886"></line><line id="Line_174" data-name="Line 174" x2="15.73" transform="translate(43.631 342.109)" fill="none" stroke="#e4e4e4" stroke-linecap="round" stroke-linejoin="round" stroke-width="3.886"></line></g><g id="Group_27084" data-name="Group 27084"><line id="Line_175" data-name="Line 175" y2="10.815" transform="translate(72.981 398.052)" fill="none" stroke="#e4e4e4" stroke-linecap="round" stroke-linejoin="round" stroke-width="3.886"></line><line id="Line_176" data-name="Line 176" x2="10.815" transform="translate(67.573 403.459)" fill="none" stroke="#e4e4e4" stroke-linecap="round" stroke-linejoin="round" stroke-width="3.886"></line></g><path id="Path_37502" data-name="Path 37502" d="M50.846,390.029a7.965,7.965,0,1,0-7.965,7.965A7.965,7.965,0,0,0,50.846,390.029Z" fill="none" stroke="#e4e4e4" stroke-linecap="round" stroke-linejoin="round" stroke-width="3.886"></path><path id="Path_37503" data-name="Path 37503" d="M51.624,416.26a3.485,3.485,0,1,0-3.485,3.485A3.485,3.485,0,0,0,51.624,416.26Z" fill="none" stroke="#e4e4e4" stroke-linecap="round" stroke-linejoin="round" stroke-width="3.886"></path></g><g id="Group_27089" data-name="Group 27089"><g id="Group_27086" data-name="Group 27086"><line id="Line_177" data-name="Line 177" y2="6.987" transform="translate(158.632 207.226)" fill="none" stroke="#ffece8" stroke-linecap="round" stroke-linejoin="round" stroke-width="3.886"></line><line id="Line_178" data-name="Line 178" x2="6.987" transform="translate(155.138 210.72)" fill="none" stroke="#ffece8" stroke-linecap="round" stroke-linejoin="round" stroke-width="3.886"></line></g><g id="Group_27087" data-name="Group 27087"><line id="Line_179" data-name="Line 179" y2="10.815" transform="translate(71.319 189.335)" fill="none" stroke="#ffece8" stroke-linecap="round" stroke-linejoin="round" stroke-width="3.886"></line><line id="Line_180" data-name="Line 180" x2="10.815" transform="translate(65.912 194.742)" fill="none" stroke="#ffece8" stroke-linecap="round" stroke-linejoin="round" stroke-width="3.886"></line></g><g id="Group_27088" data-name="Group 27088"><line id="Line_181" data-name="Line 181" y2="10.815" transform="translate(67.904 90.435)" fill="none" stroke="#ffece8" stroke-linecap="round" stroke-linejoin="round" stroke-width="3.886"></line><line id="Line_182" data-name="Line 182" x2="10.815" transform="translate(62.497 95.843)" fill="none" stroke="#ffece8" stroke-linecap="round" stroke-linejoin="round" stroke-width="3.886"></line></g><circle id="Ellipse_462" data-name="Ellipse 462" cx="9.834" cy="9.834" r="9.834" transform="translate(46.892 154.61) rotate(-13.089)" fill="none" stroke="#ffece8" stroke-linecap="round" stroke-linejoin="round" stroke-width="3.886"></circle><path id="Path_37504" data-name="Path 37504" d="M89.211,70.109a9.834,9.834,0,1,0,9.834-9.834A9.834,9.834,0,0,0,89.211,70.109Z" fill="none" stroke="#ffece8" stroke-linecap="round" stroke-linejoin="round" stroke-width="3.886"></path><path id="Path_37505" data-name="Path 37505" d="M169.592,232.212a9.834,9.834,0,1,0,9.834-9.834A9.834,9.834,0,0,0,169.592,232.212Z" fill="none" stroke="#ffece8" stroke-linecap="round" stroke-linejoin="round" stroke-width="3.886"></path><path id="Path_37506" data-name="Path 37506" d="M120.352,84.86a4.3,4.3,0,1,0,4.3-4.3A4.3,4.3,0,0,0,120.352,84.86Z" fill="none" stroke="#ffece8" stroke-linecap="round" stroke-linejoin="round" stroke-width="3.886"></path><path id="Path_37507" data-name="Path 37507" d="M92.56,145.6a3.485,3.485,0,1,0-3.485,3.485A3.485,3.485,0,0,0,92.56,145.6Z" fill="none" stroke="#ffece8" stroke-linecap="round" stroke-linejoin="round" stroke-width="3.886"></path><path id="Path_37508" data-name="Path 37508" d="M172.626,58.569a3.485,3.485,0,1,0-3.485,3.485A3.486,3.486,0,0,0,172.626,58.569Z" fill="none" stroke="#ffece8" stroke-linecap="round" stroke-linejoin="round" stroke-width="3.886"></path></g></g><g id="Group_27093" data-name="Group 27093"><g id="Group_27092" data-name="Group 27092"><path id="Path_37509" data-name="Path 37509" d="M356.214,123.107c.17-2.058.279-4.134.279-6.236A75,75,0,0,0,208.645,99.062a36.759,36.759,0,0,0-26.137-11.013c-19.292,0-35.194,15.147-37.466,34.695a37.719,37.719,0,0,0,3.466,75.279H349.943a37.72,37.72,0,0,0,6.271-74.916Z" fill="#6A2186"></path><g id="Group_27091" data-name="Group 27091"><path id="Path_37510" data-name="Path 37510" d="M349.943,187.415H148.508a37.723,37.723,0,0,1-37.346-32.441,37.735,37.735,0,0,0,37.346,43.049H349.943a37.732,37.732,0,0,0,37.346-43.046A37.724,37.724,0,0,1,349.943,187.415Z" fill="#000042" opacity="0.2"></path></g></g><text id="WEBSITE_HOSTING_" data-name="WEBSITE HOSTING " transform="translate(130.592 105.08)" fill="#fff" font-size="35.781" font-family="Montserrat-Black, Montserrat" font-weight="800" letter-spacing="0.025em" opacity="0.31"><tspan x="26.107" y="35">WEBSITE</tspan><tspan x="27.806" y="69.101">HOSTING</tspan></text></g><g id="Group_27161" data-name="Group 27161"><g id="Group_27138" data-name="Group 27138"><g id="Group_27098" data-name="Group 27098"><g id="Group_27094" data-name="Group 27094"><rect id="Rectangle_9803" data-name="Rectangle 9803" width="16.848" height="12.636" transform="translate(326.258 219.879)" fill="#d4573d"></rect><rect id="Rectangle_9804" data-name="Rectangle 9804" width="16.848" height="12.636" transform="translate(397.861 219.879)" fill="#d4573d"></rect></g><g id="Group_27097" data-name="Group 27097"><rect id="Rectangle_9805" data-name="Rectangle 9805" width="108.573" height="15.444" transform="translate(316.197 210.52)" fill="#dc80ff"></rect><g id="Group_27096" data-name="Group 27096"><rect id="Rectangle_9806" data-name="Rectangle 9806" width="60.956" height="4.212" transform="translate(353.753 215.667)" fill="#6A2186"></rect><g id="Group_27095" data-name="Group 27095"><path id="Path_37511" data-name="Path 37511" d="M340.883,217.3a2.34,2.34,0,1,0,2.34-2.34A2.34,2.34,0,0,0,340.883,217.3Z" fill="#fff"></path><path id="Path_37512" data-name="Path 37512" d="M332.927,217.3a2.34,2.34,0,1,0,2.34-2.34A2.34,2.34,0,0,0,332.927,217.3Z" fill="#fff"></path><path id="Path_37513" data-name="Path 37513" d="M324.971,217.3a2.34,2.34,0,1,0,2.34-2.34A2.34,2.34,0,0,0,324.971,217.3Z" fill="#fff"></path></g></g></g></g><g id="Group_27137" data-name="Group 27137"><g id="Group_27099" data-name="Group 27099"><path id="Path_37514" data-name="Path 37514" d="M288.389,449.818H442.8c15.857,0,28.713-12.572,28.713-28.079V270.734c0-15.508-12.855-28.079-28.713-28.079" fill="none" stroke="#FFD100" stroke-linecap="round" stroke-linejoin="round" stroke-width="1.872"></path><path id="Path_37515" data-name="Path 37515" d="M467.473,325.645a28.079,28.079,0,0,0-28.08-28.079" fill="none" stroke="#FFD100" stroke-linecap="round" stroke-linejoin="round" stroke-width="1.872"></path><path id="Path_37516" data-name="Path 37516" d="M467.473,380.243a28.079,28.079,0,0,0-28.08-28.079" fill="none" stroke="#FFD100" stroke-linecap="round" stroke-linejoin="round" stroke-width="1.872"></path><path id="Path_37517" data-name="Path 37517" d="M440.319,406.45a18.735,18.735,0,0,1,18.735,18.735l-.006,2.261a18.735,18.735,0,0,1-18.735,18.735H307.426" fill="none" stroke="#FFD100" stroke-linecap="round" stroke-linejoin="round" stroke-width="1.938"></path></g><g id="Group_27136" data-name="Group 27136"><g id="Group_27108" data-name="Group 27108"><g id="Group_27107" data-name="Group 27107"><g id="Group_27101" data-name="Group 27101"><path id="Path_37518" data-name="Path 37518" d="M425.076,242.11a6.714,6.714,0,0,0,6.714,6.715h4.029a6.714,6.714,0,0,0,6.714-6.715h0a6.714,6.714,0,0,0-6.714-6.714H431.79a6.714,6.714,0,0,0-6.714,6.714Z" fill="#FFD100"></path><g id="Group_27100" data-name="Group 27100"><rect id="Rectangle_9807" data-name="Rectangle 9807" width="22.157" height="11.696" transform="translate(311.369 274.056)" fill="#06007b"></rect><rect id="Rectangle_9808" data-name="Rectangle 9808" width="22.157" height="11.696" transform="translate(396.037 274.056)" fill="#FFD100"></rect></g></g><g id="Group_27106" data-name="Group 27106"><g id="Group_27102" data-name="Group 27102"><rect id="Rectangle_9809" data-name="Rectangle 9809" width="143.753" height="49.014" rx="6.714" transform="translate(292.905 229.353)" fill="url(#linear-gradient)"></rect><path id="Path_37519" data-name="Path 37519" d="M429.944,268.967H299.619a6.714,6.714,0,0,1-6.714-6.714v9.4a6.714,6.714,0,0,0,6.714,6.714H429.944a6.714,6.714,0,0,0,6.714-6.714v-9.4A6.714,6.714,0,0,1,429.944,268.967Z" fill="#06007b" opacity="0.2"></path></g><g id="Group_27105" data-name="Group 27105"><g id="Group_27103" data-name="Group 27103"><rect id="Rectangle_9810" data-name="Rectangle 9810" width="42.3" height="23.5" transform="translate(300.291 237.41)" fill="#fff"></rect><rect id="Rectangle_9811" data-name="Rectangle 9811" width="79.296" height="23.5" transform="translate(349.305 237.41)" fill="#fff"></rect></g><g id="Group_27104" data-name="Group 27104"><rect id="Rectangle_9812" data-name="Rectangle 9812" width="15.193" height="5.371" transform="translate(368.509 241.439)" fill="#6A2186"></rect><rect id="Rectangle_9813" data-name="Rectangle 9813" width="15.193" height="5.371" transform="translate(407.576 241.439)" fill="#6A2186"></rect><rect id="Rectangle_9814" data-name="Rectangle 9814" width="15.194" height="5.371" transform="translate(387.893 241.439)" fill="#81b5fc"></rect></g></g></g></g></g><g id="Group_27117" data-name="Group 27117"><g id="Group_27116" data-name="Group 27116"><g id="Group_27110" data-name="Group 27110"><path id="Path_37520" data-name="Path 37520" d="M425.076,297.221a6.714,6.714,0,0,0,6.714,6.714h4.029a6.714,6.714,0,0,0,6.714-6.714h0a6.714,6.714,0,0,0-6.714-6.714H431.79a6.714,6.714,0,0,0-6.714,6.714Z" fill="#FFD100"></path><g id="Group_27109" data-name="Group 27109"><rect id="Rectangle_9815" data-name="Rectangle 9815" width="22.157" height="11.696" transform="translate(311.369 329.167)" fill="#06007b"></rect><rect id="Rectangle_9816" data-name="Rectangle 9816" width="22.157" height="11.696" transform="translate(396.037 329.167)" fill="#FFD100"></rect></g></g><g id="Group_27115" data-name="Group 27115"><g id="Group_27111" data-name="Group 27111"><rect id="Rectangle_9817" data-name="Rectangle 9817" width="143.753" height="49.014" rx="6.714" transform="translate(292.905 284.464)" fill="url(#linear-gradient-2)"></rect><path id="Path_37521" data-name="Path 37521" d="M429.944,324.078H299.619a6.714,6.714,0,0,1-6.714-6.714v9.4a6.714,6.714,0,0,0,6.714,6.714H429.944a6.714,6.714,0,0,0,6.714-6.714v-9.4A6.714,6.714,0,0,1,429.944,324.078Z" opacity="0.2" fill="url(#linear-gradient-2)"></path></g><g id="Group_27114" data-name="Group 27114"><g id="Group_27112" data-name="Group 27112"><rect id="Rectangle_9818" data-name="Rectangle 9818" width="42.3" height="23.5" transform="translate(300.291 292.521)" fill="#fff"></rect><rect id="Rectangle_9819" data-name="Rectangle 9819" width="79.296" height="23.5" transform="translate(349.305 292.521)" fill="#fff"></rect></g><g id="Group_27113" data-name="Group 27113"><rect id="Rectangle_9820" data-name="Rectangle 9820" width="15.193" height="5.371" transform="translate(368.509 296.55)" fill="#6A2186"></rect><rect id="Rectangle_9821" data-name="Rectangle 9821" width="15.193" height="5.371" transform="translate(407.576 296.55)" fill="#6A2186"></rect><rect id="Rectangle_9822" data-name="Rectangle 9822" width="15.194" height="5.371" transform="translate(387.893 296.55)" fill="#81b5fc"></rect></g></g></g></g></g><g id="Group_27126" data-name="Group 27126"><g id="Group_27125" data-name="Group 27125"><g id="Group_27119" data-name="Group 27119"><path id="Path_37522" data-name="Path 37522" d="M425.076,352.332a6.714,6.714,0,0,0,6.714,6.714h4.029a6.714,6.714,0,0,0,6.714-6.714h0a6.714,6.714,0,0,0-6.714-6.714H431.79a6.714,6.714,0,0,0-6.714,6.714Z" fill="#FFD100"></path><g id="Group_27118" data-name="Group 27118"><rect id="Rectangle_9823" data-name="Rectangle 9823" width="22.157" height="11.696" transform="translate(311.369 384.278)" fill="#06007b"></rect><rect id="Rectangle_9824" data-name="Rectangle 9824" width="22.157" height="11.696" transform="translate(396.037 384.278)" fill="#FFD100"></rect></g></g><g id="Group_27124" data-name="Group 27124"><g id="Group_27120" data-name="Group 27120"><rect id="Rectangle_9825" data-name="Rectangle 9825" width="143.753" height="49.014" rx="6.714" transform="translate(292.905 339.575)" fill="url(#linear-gradient-2)"></rect><path id="Path_37523" data-name="Path 37523" d="M429.944,379.189H299.619a6.714,6.714,0,0,1-6.714-6.714v9.4a6.714,6.714,0,0,0,6.714,6.714H429.944a6.714,6.714,0,0,0,6.714-6.714v-9.4A6.714,6.714,0,0,1,429.944,379.189Z" opacity="0.2" fill="url(#linear-gradient-2)"></path></g><g id="Group_27123" data-name="Group 27123"><g id="Group_27121" data-name="Group 27121"><rect id="Rectangle_9826" data-name="Rectangle 9826" width="42.3" height="23.5" transform="translate(300.291 347.632)" fill="#fff"></rect><rect id="Rectangle_9827" data-name="Rectangle 9827" width="79.296" height="23.5" transform="translate(349.305 347.632)" fill="#fff"></rect></g><g id="Group_27122" data-name="Group 27122"><rect id="Rectangle_9828" data-name="Rectangle 9828" width="15.193" height="5.371" transform="translate(368.509 351.661)" fill="#6A2186"></rect><rect id="Rectangle_9829" data-name="Rectangle 9829" width="15.193" height="5.371" transform="translate(407.576 351.661)" fill="#6A2186"></rect><rect id="Rectangle_9830" data-name="Rectangle 9830" width="15.194" height="5.371" transform="translate(387.893 351.661)" fill="#81b5fc"></rect></g></g></g></g></g><g id="Group_27135" data-name="Group 27135"><g id="Group_27134" data-name="Group 27134"><g id="Group_27128" data-name="Group 27128"><path id="Path_37524" data-name="Path 37524" d="M425.076,407.443a6.714,6.714,0,0,0,6.714,6.714h4.029a6.714,6.714,0,0,0,6.714-6.714h0a6.714,6.714,0,0,0-6.714-6.714H431.79a6.714,6.714,0,0,0-6.714,6.714Z" fill="#FFD100"></path><g id="Group_27127" data-name="Group 27127"><rect id="Rectangle_9831" data-name="Rectangle 9831" width="22.157" height="11.696" transform="translate(311.369 439.389)" fill="#06007b"></rect><rect id="Rectangle_9832" data-name="Rectangle 9832" width="22.157" height="11.696" transform="translate(396.037 439.389)" fill="#FFD100"></rect></g></g><g id="Group_27133" data-name="Group 27133"><g id="Group_27129" data-name="Group 27129"><rect id="Rectangle_9833" data-name="Rectangle 9833" width="143.753" height="49.014" rx="6.714" transform="translate(292.905 394.686)" fill="url(#linear-gradient)"></rect><path id="Path_37525" data-name="Path 37525" d="M429.944,434.3H299.619a6.714,6.714,0,0,1-6.714-6.714v9.4a6.714,6.714,0,0,0,6.714,6.714H429.944a6.714,6.714,0,0,0,6.714-6.714v-9.4A6.714,6.714,0,0,1,429.944,434.3Z" fill="#06007b" opacity="0.2"></path></g><g id="Group_27132" data-name="Group 27132"><g id="Group_27130" data-name="Group 27130"><rect id="Rectangle_9834" data-name="Rectangle 9834" width="42.3" height="23.5" transform="translate(300.291 402.743)" fill="#fff"></rect><rect id="Rectangle_9835" data-name="Rectangle 9835" width="79.296" height="23.5" transform="translate(349.305 402.743)" fill="#fff"></rect></g><g id="Group_27131" data-name="Group 27131"><rect id="Rectangle_9836" data-name="Rectangle 9836" width="15.193" height="5.371" transform="translate(368.509 406.772)" fill="#6A2186"></rect><rect id="Rectangle_9837" data-name="Rectangle 9837" width="15.193" height="5.371" transform="translate(407.576 406.772)" fill="#6A2186"></rect><rect id="Rectangle_9838" data-name="Rectangle 9838" width="15.194" height="5.371" transform="translate(387.893 406.772)" fill="#81b5fc"></rect></g></g></g></g></g></g></g></g><g id="Group_27144" data-name="Group 27144"><g class="arrow-2"><g id="Group_27139" data-name="Group 27139"><rect id="Rectangle_9839" data-name="Rectangle 9839" width="16.913" height="84.562" transform="translate(264.473 204.499)" fill="#e39aff"></rect><path id="Path_37526" data-name="Path 37526" d="M251.565,219.533l21.364-37,21.365,37Z" fill="#e39aff"></path></g></g><g id="Group_27142" data-name="Group 27142"><g id="Group_27140" data-name="Group 27140"><rect id="Rectangle_9840" data-name="Rectangle 9840" width="76.217" height="143.773" transform="translate(174.439 298.417)" fill="#03364e"></rect><rect id="Rectangle_9841" data-name="Rectangle 9841" width="241.751" height="11.797" transform="translate(91.672 439.429)" fill="#FFD100"></rect></g><g id="Group_27141" data-name="Group 27141"><rect id="Rectangle_9842" data-name="Rectangle 9842" width="241.47" height="147.409" rx="9.36" transform="translate(91.812 266.762)" fill="#fff"></rect><path id="Path_37527" data-name="Path 37527" d="M323.922,417.448H101.172a12.651,12.651,0,0,1-12.636-12.636V276.122a12.651,12.651,0,0,1,12.636-12.636h222.75a12.651,12.651,0,0,1,12.636,12.636v128.69A12.651,12.651,0,0,1,323.922,417.448Zm-222.75-147.41a6.091,6.091,0,0,0-6.084,6.084v128.69a6.09,6.09,0,0,0,6.084,6.083h222.75a6.089,6.089,0,0,0,6.083-6.083V276.122a6.09,6.09,0,0,0-6.083-6.084Z" fill="#FFD100"></path></g></g><g class="arrow-1"><g id="Group_27143" data-name="Group 27143"><rect id="Rectangle_9843" data-name="Rectangle 9843" width="16.912" height="84.562" transform="translate(213.04 182.529)" fill="#e39aff"></rect><path id="Path_37528" data-name="Path 37528" d="M242.861,252.057l-21.364,37-21.364-37Z" fill="#e39aff"></path></g></g></g><g id="Group_27160" data-name="Group 27160"><g id="Group_27150" data-name="Group 27150"><g id="Group_27147" data-name="Group 27147"><path id="Path_37529" data-name="Path 37529" d="M141.707,249.651a4.515,4.515,0,0,0-2.673-3.737L92.093,225.161a4.507,4.507,0,0,0-1.176-.318c-.074-.01-.146-.016-.221-.023a4.494,4.494,0,0,0-2.253.341L41.5,245.914a4.514,4.514,0,0,0-2.673,3.737C33.09,315.387,86.2,338.26,86.738,338.484a4.545,4.545,0,0,0,1.733.345h3.594a4.545,4.545,0,0,0,1.733-.345C94.336,338.26,147.448,315.387,141.707,249.651Z" fill="#000042" opacity="0.2"></path><g id="Group_27146" data-name="Group 27146"><g id="Group_27145" data-name="Group 27145"><path id="Path_37530" data-name="Path 37530" d="M131.163,245.34,84.221,224.587,37.279,245.34c-5.517,63.2,45.146,84.272,45.146,84.272h3.593S136.681,308.544,131.163,245.34Z" fill="#ebb5ff"></path><path id="Path_37531" data-name="Path 37531" d="M86.018,334.126H82.424a4.546,4.546,0,0,1-1.733-.346c-.538-.223-53.648-23.1-47.909-88.832a4.517,4.517,0,0,1,2.673-3.738L82.4,220.458a4.513,4.513,0,0,1,3.65,0l46.941,20.752a4.517,4.517,0,0,1,2.673,3.738c5.741,65.736-47.371,88.609-47.909,88.832A4.546,4.546,0,0,1,86.018,334.126ZM83.383,325.1h1.676c6.274-2.911,45.179-23.185,41.805-76.72L84.221,229.523,41.578,248.377C38.206,301.912,77.109,322.186,83.383,325.1Z" fill="#6A2186"></path></g><path id="Path_37532" data-name="Path 37532" d="M135.66,244.948a4.517,4.517,0,0,0-2.673-3.738L86.046,220.458a4.509,4.509,0,0,0-2.583-.307V334.126h2.555a4.546,4.546,0,0,0,1.733-.346C88.289,333.557,141.4,310.684,135.66,244.948Z" fill="#000042" opacity="0.1"></path></g></g><g id="Group_27149" data-name="Group 27149"><circle id="Ellipse_463" data-name="Ellipse 463" cx="25.585" cy="25.585" r="25.585" transform="translate(54.43 256.383) rotate(-13.136)" fill="url(#linear-gradient)"></circle><g id="Group_27148" data-name="Group 27148"><path id="Path_37533" data-name="Path 37533" d="M78.368,295.8,65.944,274.346l5.535-3.205L79.158,284.4,99.087,258.9l5.04,3.938Z" fill="#fff"></path></g></g></g><g id="Group_27159" data-name="Group 27159"><g id="Group_27154" data-name="Group 27154"><rect id="Rectangle_9844" data-name="Rectangle 9844" width="150.827" height="83.688" rx="1.872" transform="translate(162.206 300.924)" fill="#000042" opacity="0.2"></rect><g id="Group_27153" data-name="Group 27153"><g id="Group_27151" data-name="Group 27151"><rect id="Rectangle_9845" data-name="Rectangle 9845" width="147.084" height="79.944" transform="translate(158.462 299.052)" fill="#ebb5ff" stroke="#6A2186" stroke-linecap="round" stroke-linejoin="round" stroke-width="3.744"></rect><rect id="Rectangle_9846" data-name="Rectangle 9846" width="147.004" height="10.182" transform="translate(158.462 299.067)" fill="#6A2186"></rect></g><g id="Group_27152" data-name="Group 27152"><path id="Path_37534" data-name="Path 37534" d="M296.574,303.415a2.574,2.574,0,1,0,2.574-2.574A2.574,2.574,0,0,0,296.574,303.415Z" fill="#fff"></path><path id="Path_37535" data-name="Path 37535" d="M287.215,303.415a2.574,2.574,0,1,0,2.573-2.574A2.573,2.573,0,0,0,287.215,303.415Z" fill="#fff"></path><path id="Path_37536" data-name="Path 37536" d="M277.855,303.415a2.574,2.574,0,1,0,2.574-2.574A2.573,2.573,0,0,0,277.855,303.415Z" fill="#fff"></path></g></g></g><g id="Group_27158" data-name="Group 27158"><rect id="Rectangle_9847" data-name="Rectangle 9847" width="113.857" height="69.648" rx="1.872" transform="translate(123.831 332.279)" fill="#000042" opacity="0.2"></rect><g id="Group_27157" data-name="Group 27157"><g id="Group_27155" data-name="Group 27155"><rect id="Rectangle_9848" data-name="Rectangle 9848" width="110.113" height="65.904" transform="translate(120.087 330.407)" fill="#ebb5ff" stroke="#6A2186" stroke-linecap="round" stroke-linejoin="round" stroke-width="3.744"></rect><rect id="Rectangle_9849" data-name="Rectangle 9849" width="110.033" height="10.182" transform="translate(120.087 330.423)" fill="#6A2186"></rect></g><g id="Group_27156" data-name="Group 27156"><path id="Path_37537" data-name="Path 37537" d="M221.228,334.771A2.574,2.574,0,1,0,223.8,332.2,2.575,2.575,0,0,0,221.228,334.771Z" fill="#fff"></path><path id="Path_37538" data-name="Path 37538" d="M211.869,334.771a2.574,2.574,0,1,0,2.574-2.574A2.574,2.574,0,0,0,211.869,334.771Z" fill="#fff"></path><path id="Path_37539" data-name="Path 37539" d="M202.509,334.771a2.574,2.574,0,1,0,2.574-2.574A2.574,2.574,0,0,0,202.509,334.771Z" fill="#fff"></path></g></g></g></g></g></g></g><g class="man"><g id="Group_26804" data-name="Group 26804" transform="translate(574.697 145.373)"><path id="Path_37184" data-name="Path 37184" d="M2861.275,760.861l-53.767,73.147,9.571,86.563h44.2Z" transform="translate(-2798.245 -750.452)" fill="#FFD100"></path><path id="Path_37185" data-name="Path 37185" d="M3166.912,760.861l53.767,73.147-9.57,86.563h-44.2Z" transform="translate(-3103.427 -750.452)" fill="#FFD100"></path><g id="Group_26804-2" data-name="Group 26804" transform="translate(27.623 337.001)"><g id="Group_26803" data-name="Group 26803"><path id="Path_37186" data-name="Path 37186" d="M2973.479,2975.929l4.868-47-21.7-3.319,2.142,50.319a5.153,5.153,0,0,1-.9,2.9l-2.418,3.547h21.319l-2.418-3.547A5.156,5.156,0,0,1,2973.479,2975.929Z" transform="translate(-2951.511 -2925.61)" fill="#fbd3a8"></path><path id="Path_37187" data-name="Path 37187" d="M2929.208,3284.571v5.091c1.132,2.955,28.8,3.065,29.244,0v-4.708a9.25,9.25,0,0,0-.452-2.885c-4.816-14.7-25.32-12.412-28.519.247A9.212,9.212,0,0,0,2929.208,3284.571Z" transform="translate(-2929.208 -3219.665)" fill="#232323"></path><path id="Path_37188" data-name="Path 37188" d="M2946.346,3321.3c3.268-7.31,20.958-7.327,23.957-.05a.837.837,0,0,1-.535,1.122c-5.857,1.751-18.534,1.652-22.954.062A.835.835,0,0,1,2946.346,3321.3Z" transform="translate(-2943.697 -3256.935)" fill="#ffd9a4"></path><path id="Path_37189" data-name="Path 37189" d="M3048.825,3349.7l.885-2.864a.425.425,0,0,1,.8.006l.711,2.706Z" transform="translate(-3030.779 -3283.046)" fill="#232323"></path><path id="Path_37190" data-name="Path 37190" d="M2935.821,3305.015c-1.16,1.467-1.547,4.339,0,5.6-2.791-.217-5.3-.629-6.594-1.87l-.02-5.091c0-4.681,3.19-7.944,5-9.269a3.448,3.448,0,0,0,2.444,4.6,7.208,7.208,0,0,0-5.026,4.294C2931.595,3304.625,2933.492,3304.937,2935.821,3305.015Z" transform="translate(-2929.208 -3238.75)" fill="#3b3b3b"></path><path id="Path_37191" data-name="Path 37191" d="M2949.36,3333.021c-1.116,1.482-1.137,3.885-.36,4.483-1.077-.144-1.936-.405-2.106-1.033C2947.036,3335.225,2948.187,3333.956,2949.36,3333.021Z" transform="translate(-2944.226 -3271.556)" fill="#f8a364" opacity="0.35"></path><path id="Path_37192" data-name="Path 37192" d="M3090.741,3331.923c1.116,1.482,1.136,3.885.36,4.483,1.078-.144,1.936-.405,2.106-1.033C3093.065,3334.126,3091.915,3332.858,3090.741,3331.923Z" transform="translate(-3066.371 -3270.623)" fill="#f8a364" opacity="0.35"></path><path id="Path_37193" data-name="Path 37193" d="M3060.475,3292.25c1.771,1.108,2.945,2.426,2.621,2.944s-2.022.038-3.793-1.07-2.945-2.427-2.621-2.944S3058.7,3291.141,3060.475,3292.25Z" transform="translate(-3037.405 -3235.85)" fill="#fff" opacity="0.2"></path><path id="Path_37194" data-name="Path 37194" d="M3094.635,3355.526a.06.06,0,0,1,.119,0l.213,3.732a.548.548,0,0,1-.5.545l-3.329.42a.065.065,0,0,1-.028-.126l2.7-.87a.548.548,0,0,0,.39-.422Z" transform="translate(-3066.647 -3290.622)" fill="#fff" opacity="0.2"></path></g><path id="Path_37195" data-name="Path 37195" d="M2990.445,3207c-4.61,1.718-12.146,1.381-15.238-.3l-.2-4.653,16.105.217Z" transform="translate(-2968.099 -3160.343)" fill="#f8a364" opacity="0.35"></path></g><g id="Group_26806" data-name="Group 26806" transform="translate(68.357 337.001)"><g id="Group_26805" data-name="Group 26805"><path id="Path_37196" data-name="Path 37196" d="M3220.039,2975.929l-4.868-47,21.7-3.319-2.143,50.319a5.154,5.154,0,0,0,.9,2.9l2.418,3.547h-21.319l2.418-3.547A5.154,5.154,0,0,0,3220.039,2975.929Z" transform="translate(-3212.762 -2925.61)" fill="#fbd3a8"></path><path id="Path_37197" data-name="Path 37197" d="M3228.452,3284.571v5.091c-1.133,2.955-28.8,3.065-29.245,0v-4.708a9.258,9.258,0,0,1,.452-2.885c4.816-14.7,25.32-12.412,28.519.247A9.213,9.213,0,0,1,3228.452,3284.571Z" transform="translate(-3199.207 -3219.665)" fill="#232323"></path><path id="Path_37198" data-name="Path 37198" d="M3240.29,3321.3c-3.268-7.31-20.958-7.327-23.957-.05a.837.837,0,0,0,.535,1.122c5.857,1.751,18.534,1.652,22.954.062A.835.835,0,0,0,3240.29,3321.3Z" transform="translate(-3213.696 -3256.935)" fill="#ffd9a4"></path><path id="Path_37199" data-name="Path 37199" d="M3259.916,3349.7l-.885-2.864a.426.426,0,0,0-.805.006l-.711,2.706Z" transform="translate(-3248.718 -3283.046)" fill="#232323"></path><path id="Path_37200" data-name="Path 37200" d="M3344.546,3305.015c1.16,1.467,1.547,4.339,0,5.6,2.792-.217,5.3-.629,6.594-1.87l.02-5.091c0-4.681-3.189-7.944-5-9.269a3.447,3.447,0,0,1-2.443,4.6,7.208,7.208,0,0,1,5.026,4.294C3348.773,3304.625,3346.876,3304.937,3344.546,3305.015Z" transform="translate(-3321.916 -3238.75)" fill="#3b3b3b"></path><path id="Path_37201" data-name="Path 37201" d="M3359.017,3333.021c1.116,1.482,1.137,3.885.36,4.483,1.078-.144,1.936-.405,2.105-1.033C3361.341,3335.225,3360.19,3333.956,3359.017,3333.021Z" transform="translate(-3334.907 -3271.556)" fill="#f8a364" opacity="0.35"></path><path id="Path_37202" data-name="Path 37202" d="M3217.637,3331.923c-1.116,1.482-1.137,3.885-.36,4.483-1.078-.144-1.936-.405-2.105-1.033C3215.313,3334.126,3216.463,3332.858,3217.637,3331.923Z" transform="translate(-3212.762 -3270.623)" fill="#f8a364" opacity="0.35"></path><path id="Path_37203" data-name="Path 37203" d="M3225.074,3292.25c-1.771,1.108-2.945,2.426-2.621,2.944s2.022.038,3.793-1.07,2.945-2.427,2.621-2.944S3226.845,3291.141,3225.074,3292.25Z" transform="translate(-3218.9 -3235.85)" fill="#fff" opacity="0.2"></path><path id="Path_37204" data-name="Path 37204" d="M3205.669,3355.526a.059.059,0,0,0-.118,0l-.213,3.732a.548.548,0,0,0,.5.545l3.33.42a.065.065,0,0,0,.028-.126l-2.7-.87a.548.548,0,0,1-.39-.422Z" transform="translate(-3204.414 -3290.622)" fill="#fff" opacity="0.2"></path></g><path id="Path_37205" data-name="Path 37205" d="M3241.164,3207c4.61,1.718,12.146,1.381,15.239-.3l.2-4.653-16.106.217Z" transform="translate(-3234.266 -3160.343)" fill="#f8a364" opacity="0.35"></path></g><path id="Path_37206" data-name="Path 37206" d="M2958.326,2564.5c-15.338,12.19-81.514,12.19-90.823,0l4.293-119.394,82.541-.649Z" transform="translate(-2849.189 -2180.051)" fill="#6A2186"></path><path id="Path_37207" data-name="Path 37207" d="M3262.756,1127.933l31.973-25.012,13.192,2.649c1.226,10.483-.525,22.687-3.769,35.753-11.231,22.92-21.437,26.035-21.437,26.035l-19.959-.049Z" transform="translate(-3184.811 -1040.907)" fill="#2d2d2d"></path><path id="Path_37208" data-name="Path 37208" d="M2826.458,1127.933l-31.973-25.012-13.192,2.649c-1.226,10.483.526,22.687,3.769,35.753,11.231,22.92,21.438,26.035,21.438,26.035l19.959-.049Z" transform="translate(-2775.652 -1040.907)" fill="#2d2d2d"></path><ellipse id="Ellipse_442" data-name="Ellipse 442" cx="13.663" cy="6.425" rx="13.663" ry="6.425" transform="translate(50.203 134.078)" fill="#aeb5b5"></ellipse><path id="Path_37209" data-name="Path 37209" d="M3106.456,1566.521h-21.1c.176,8.567-1.016,13.963-2.274,17.338a3.3,3.3,0,0,0,.913,3.608c4.61,4.12,18.381,5.6,23.988-.447a3.3,3.3,0,0,0,.675-3.371C3107.424,1580.262,3106.283,1574.913,3106.456,1566.521Z" transform="translate(-3032.067 -1434.564)" fill="#fbd3a8"></path><path id="Path_37210" data-name="Path 37210" d="M3099.96,1560.284l20.13.135.337,5.8c-3.16,4.652-18.686,4.456-21.039-.218Z" transform="translate(-3046.091 -1429.268)" fill="#f8a364" opacity="0.35"></path><path id="Path_37211" data-name="Path 37211" d="M2922.048,1616.776v229.508H2879.5l3.081-150.468-.049-72.326a1.263,1.263,0,0,1,.446-.894c5.087-4.494,13.86-6.438,23.976-7.379a1.424,1.424,0,0,0,1.152-.8l1.779-3.707a.4.4,0,0,1,.719.007C2913.473,1616.764,2922.048,1616.776,2922.048,1616.776Z" transform="translate(-2859.379 -1471.897)" fill="#6A2186"></path><g id="Group_26808" data-name="Group 26808" transform="translate(4.665 83.03)"><path id="Path_37212" data-name="Path 37212" d="M2789.826,1266.947c-9.093,0-14.891-12.1-12.069-19.917a7.271,7.271,0,0,1,3.878-4.289c3.29-1.411,6.257.327,8.191,1.623Z" transform="translate(-2777.039 -1242.215)" fill="#fbd3a8"></path><path id="Path_37213" data-name="Path 37213" d="M2812.412,1279.017c-12.33-4.385-10.25,13.836-.115,14.282" transform="translate(-2799.859 -1272.887)" fill="#fbbd89"></path><g id="Group_26807" data-name="Group 26807" transform="translate(4.017 5.269)"><path id="Path_37214" data-name="Path 37214" d="M2812.477,1278.457a13.561,13.561,0,0,0-3.35-.751,7.151,7.151,0,0,0-1.7.059,4.668,4.668,0,0,0-1.583.551,3.748,3.748,0,0,0-1.214,1.153,4.8,4.8,0,0,0-.663,1.579,7.988,7.988,0,0,0-.2,1.733,13.923,13.923,0,0,0,.1,1.756,10.114,10.114,0,0,1-.087-3.527,5.039,5.039,0,0,1,.608-1.69,4.077,4.077,0,0,1,1.253-1.323,5.1,5.1,0,0,1,1.695-.694,7.652,7.652,0,0,1,1.813-.161,14.206,14.206,0,0,1,3.553.6Z" transform="translate(-2803.664 -1277.139)" fill="#603813"></path></g></g><g id="Group_26811" data-name="Group 26811" transform="translate(109.69 83.03)"><path id="Path_37215" data-name="Path 37215" d="M3474.969,1266.947c9.094,0,14.892-12.1,12.069-19.917a7.273,7.273,0,0,0-3.878-4.289c-3.29-1.411-6.257.327-8.191,1.623Z" transform="translate(-3474.698 -1242.215)" fill="#fbd3a8"></path><path id="Path_37216" data-name="Path 37216" d="M3476.53,1279.017c12.33-4.385,10.25,13.836.115,14.282" transform="translate(-3476.024 -1272.887)" fill="#fbbd89"></path><g id="Group_26810" data-name="Group 26810" transform="translate(0 5.269)"><g id="Group_26809" data-name="Group 26809"><path id="Path_37217" data-name="Path 37217" d="M3473.175,1277.738a14.2,14.2,0,0,1,3.553-.6,7.655,7.655,0,0,1,1.814.161,5.1,5.1,0,0,1,1.694.694,4.077,4.077,0,0,1,1.253,1.323,5.034,5.034,0,0,1,.608,1.69,10.1,10.1,0,0,1-.087,3.527,13.969,13.969,0,0,0,.105-1.756,7.989,7.989,0,0,0-.2-1.733,4.8,4.8,0,0,0-.663-1.579,3.745,3.745,0,0,0-1.214-1.153,4.664,4.664,0,0,0-1.583-.551,7.155,7.155,0,0,0-1.7-.059,13.554,13.554,0,0,0-3.35.751Z" transform="translate(-3473.175 -1277.139)" fill="#603813"></path></g></g></g><path id="Path_37218" data-name="Path 37218" d="M2929.043,958.413h-92.692c-12.577,57.293-3.541,94.97,45.711,96.151h1.271C2932.584,1053.383,2941.621,1015.706,2929.043,958.413Z" transform="translate(-2818.407 -918.2)" fill="#fbd3a8"></path><ellipse id="Ellipse_443" data-name="Ellipse 443" cx="4.126" cy="6.587" rx="4.126" ry="6.587" transform="translate(41.245 81.01)" fill="#2d2d2d"></ellipse><ellipse id="Ellipse_444" data-name="Ellipse 444" cx="2.009" cy="2.487" rx="2.009" ry="2.487" transform="translate(43.948 82.287)" fill="#fff"></ellipse><ellipse id="Ellipse_445" data-name="Ellipse 445" cx="4.126" cy="6.587" rx="4.126" ry="6.587" transform="translate(78.277 81.01)" fill="#2d2d2d"></ellipse><ellipse id="Ellipse_446" data-name="Ellipse 446" cx="2.009" cy="2.487" rx="2.009" ry="2.487" transform="translate(80.98 82.287)" fill="#fff"></ellipse><path id="Path_37221" data-name="Path 37221" d="M3143.654,1366.359a1.237,1.237,0,0,0,.59-.064c3.583-1.05,4.1,2.967,1.219,3.332-2.752.252-4.2-.678-5.086-1.87a1.087,1.087,0,0,1,.7-1.727A9.052,9.052,0,0,1,3143.654,1366.359Z" transform="translate(-3080.711 -1264.303)" fill="#f8a364"></path><path id="Path_37222" data-name="Path 37222" d="M3264.344,1157.572c-3.965.074-5.47-3.732-2.7-6.05a5.585,5.585,0,0,1,4.227-1.023c4.117.442,6.668,1.9,7.122,4.718a3.081,3.081,0,0,1-.885,2.777c-1.45,1.327-3.7.818-6.158-.154A4.136,4.136,0,0,0,3264.344,1157.572Z" transform="translate(-3182.664 -1081.266)" fill="#2d2d2d"></path><path id="Path_37223" data-name="Path 37223" d="M3007.753,1157.572c3.965.074,5.469-3.732,2.7-6.05a5.585,5.585,0,0,0-4.227-1.023c-4.117.442-6.668,1.9-7.122,4.718a3.081,3.081,0,0,0,.885,2.777c1.45,1.327,3.7.818,6.158-.154A4.136,4.136,0,0,1,3007.753,1157.572Z" transform="translate(-2960.901 -1081.266)" fill="#2d2d2d"></path><path id="Path_37224" data-name="Path 37224" d="M2795.207,901.935" transform="translate(-2787.801 -870.243)" fill="#f1f2f2"></path><path id="Path_37225" data-name="Path 37225" d="M2843.324,1106.421c-7.583,8.694-9.432,24.866-8.51,42.22-4.993-15.28-3.057-42.22-3.057-42.22Z" transform="translate(-2818.523 -1043.879)" fill="#2d2d2d"></path><path id="Path_37226" data-name="Path 37226" d="M3435.126,1106.421c7.583,8.694,9.432,24.866,8.51,42.22,4.992-15.28,3.057-42.22,3.057-42.22Z" transform="translate(-3331.176 -1043.879)" fill="#2d2d2d"></path><path id="Path_37227" data-name="Path 37227" d="M3061.649,1615.237c.531,5.158,6.25,9,13.259,9.517v101.76h7.31l-.975-100.88-4.5-1.207V1616.8c-5.22-.3-9.408-2.042-11.467-6.1a.4.4,0,0,0-.693.04l-1.982,4.016A1.448,1.448,0,0,1,3061.649,1615.237Z" transform="translate(-3014.045 -1471.917)" fill="#aeb5b5" opacity="0.5"></path><path id="Path_37228" data-name="Path 37228" d="M3149.846,1701.475l-5.677,1.652v100.629" transform="translate(-3084.115 -1549.158)" fill="none" stroke="#aeb5b5" stroke-miterlimit="10" stroke-width="15"></path><path id="Path_37229" data-name="Path 37229" d="M3151.064,1616.776v7.632l-4.5,1.207v220.67h46.629l-2.664-150.468.049-72.326a1.261,1.261,0,0,0-.446-.894c-5.087-4.494-13.86-6.438-23.976-7.379a1.422,1.422,0,0,1-1.152-.8l-1.779-3.707a.4.4,0,0,0-.719.007C3159.639,1616.764,3151.064,1616.776,3151.064,1616.776Z" transform="translate(-3086.147 -1471.897)" fill="#6A2186"></path><path id="Path_37230" data-name="Path 37230" d="M3160.663,1615.237c-.532,5.158-6.25,9-13.258,9.517v101.76h-7.31l.976-100.88,4.5-1.207V1616.8c5.22-.3,9.408-2.042,11.467-6.1a.4.4,0,0,1,.692.04l1.981,4.016A1.449,1.449,0,0,0,3160.663,1615.237Z" transform="translate(-3080.656 -1471.917)" fill="#aeb5b5" opacity="0.5"></path><g id="Group_26812" data-name="Group 26812" transform="translate(61.055 158.609)"><circle id="Ellipse_447" data-name="Ellipse 447" cx="1.66" cy="1.66" r="1.66" transform="translate(0.509)" fill="#aeb5b5"></circle><circle id="Ellipse_448" data-name="Ellipse 448" cx="1.66" cy="1.66" r="1.66" transform="translate(0 21.132) rotate(-22.5)" fill="#aeb5b5"></circle><circle id="Ellipse_449" data-name="Ellipse 449" cx="1.66" cy="1.66" r="1.66" transform="translate(0 42.621) rotate(-22.5)" fill="#aeb5b5"></circle><circle id="Ellipse_450" data-name="Ellipse 450" cx="1.66" cy="1.66" r="1.66" transform="translate(0.264 65.263) rotate(-80.783)" fill="#aeb5b5"></circle><circle id="Ellipse_451" data-name="Ellipse 451" cx="1.66" cy="1.66" r="1.66" transform="translate(0.509 82.601)" fill="#aeb5b5"></circle></g><path id="Path_37231" data-name="Path 37231" d="M3058.092,1407v-4.224c-9.375-.431-15.127.831-18.059,3.9a9.654,9.654,0,0,0-2.618,6.684v4.908h4.526c-1.693-3.976-2.183-7.323,0-9.551a5.4,5.4,0,0,1,3.8-1.579Z" transform="translate(-2993.468 -1295.453)" fill="#2d2d2d"></path><path id="Path_37232" data-name="Path 37232" d="M3170.385,1407v-4.224c9.375-.431,15.127.831,18.059,3.9a9.655,9.655,0,0,1,2.617,6.684v4.908h-4.526c1.693-3.976,2.183-7.323,0-9.551a5.4,5.4,0,0,0-3.8-1.579Z" transform="translate(-3106.376 -1295.453)" fill="#2d2d2d"></path><g id="Group_26817" data-name="Group 26817" transform="translate(0 0)"><g id="Group_26816" data-name="Group 26816" clip-path="url(#clip-path)"><g id="Group_26815" data-name="Group 26815" transform="translate(-55.085 -35.774)"><rect id="Rectangle_9653" data-name="Rectangle 9653" width="249.788" height="238.928" transform="translate(0 2.802)" fill="#fff"></rect><g id="Group_26813" data-name="Group 26813" transform="translate(2.628 2.802)" opacity="0.6"><rect id="Rectangle_9654" data-name="Rectangle 9654" width="4.384" height="238.928" transform="translate(36.946)" fill="#6A2186"></rect><rect id="Rectangle_9655" data-name="Rectangle 9655" width="4.384" height="238.928" transform="translate(27.709)" fill="#6A2186"></rect><rect id="Rectangle_9656" data-name="Rectangle 9656" width="4.384" height="238.928" transform="translate(18.473)" fill="#6A2186"></rect><rect id="Rectangle_9657" data-name="Rectangle 9657" width="4.384" height="238.928" transform="translate(9.236)" fill="#6A2186"></rect><rect id="Rectangle_9658" data-name="Rectangle 9658" width="4.384" height="238.928" fill="#6A2186"></rect><rect id="Rectangle_9659" data-name="Rectangle 9659" width="4.384" height="238.928" transform="translate(46.182)" fill="#6A2186"></rect><rect id="Rectangle_9660" data-name="Rectangle 9660" width="4.384" height="238.928" transform="translate(55.419)" fill="#6A2186"></rect><rect id="Rectangle_9661" data-name="Rectangle 9661" width="4.384" height="238.928" transform="translate(64.655)" fill="#6A2186"></rect><rect id="Rectangle_9662" data-name="Rectangle 9662" width="4.384" height="238.928" transform="translate(73.892)" fill="#6A2186"></rect><rect id="Rectangle_9663" data-name="Rectangle 9663" width="4.384" height="238.928" transform="translate(83.128)" fill="#6A2186"></rect><rect id="Rectangle_9664" data-name="Rectangle 9664" width="4.384" height="238.928" transform="translate(129.31)" fill="#6A2186"></rect><rect id="Rectangle_9665" data-name="Rectangle 9665" width="4.384" height="238.928" transform="translate(120.074)" fill="#6A2186"></rect><rect id="Rectangle_9666" data-name="Rectangle 9666" width="4.384" height="238.928" transform="translate(110.837)" fill="#6A2186"></rect><rect id="Rectangle_9667" data-name="Rectangle 9667" width="4.384" height="238.928" transform="translate(101.601)" fill="#6A2186"></rect><rect id="Rectangle_9668" data-name="Rectangle 9668" width="4.384" height="238.928" transform="translate(92.364)" fill="#6A2186"></rect><rect id="Rectangle_9669" data-name="Rectangle 9669" width="4.384" height="238.928" transform="translate(138.547)" fill="#6A2186"></rect><rect id="Rectangle_9670" data-name="Rectangle 9670" width="4.384" height="238.928" transform="translate(147.783)" fill="#6A2186"></rect><rect id="Rectangle_9671" data-name="Rectangle 9671" width="4.384" height="238.928" transform="translate(157.019)" fill="#6A2186"></rect><rect id="Rectangle_9672" data-name="Rectangle 9672" width="4.384" height="238.928" transform="translate(166.256)" fill="#6A2186"></rect><rect id="Rectangle_9673" data-name="Rectangle 9673" width="4.384" height="238.928" transform="translate(175.492)" fill="#6A2186"></rect><rect id="Rectangle_9674" data-name="Rectangle 9674" width="4.384" height="238.928" transform="translate(184.729)" fill="#6A2186"></rect><rect id="Rectangle_9675" data-name="Rectangle 9675" width="4.384" height="238.928" transform="translate(193.965)" fill="#6A2186"></rect><rect id="Rectangle_9676" data-name="Rectangle 9676" width="4.384" height="238.928" transform="translate(203.202)" fill="#6A2186"></rect><rect id="Rectangle_9677" data-name="Rectangle 9677" width="4.384" height="238.928" transform="translate(212.438)" fill="#6A2186"></rect><rect id="Rectangle_9678" data-name="Rectangle 9678" width="4.384" height="238.928" transform="translate(221.674)" fill="#6A2186"></rect><rect id="Rectangle_9679" data-name="Rectangle 9679" width="4.384" height="238.928" transform="translate(230.911)" fill="#6A2186"></rect><rect id="Rectangle_9680" data-name="Rectangle 9680" width="4.384" height="238.928" transform="translate(240.147)" fill="#6A2186"></rect></g><g id="Group_26814" data-name="Group 26814" transform="translate(5.43 0)" opacity="0.8"><rect id="Rectangle_9681" data-name="Rectangle 9681" width="4.384" height="238.928" transform="translate(0 207.585) rotate(-90)" fill="#6A2186"></rect><rect id="Rectangle_9682" data-name="Rectangle 9682" width="4.384" height="238.928" transform="translate(0 216.822) rotate(-90)" fill="#6A2186"></rect><rect id="Rectangle_9683" data-name="Rectangle 9683" width="4.384" height="238.928" transform="translate(0 226.058) rotate(-90)" fill="#6A2186"></rect><rect id="Rectangle_9684" data-name="Rectangle 9684" width="4.384" height="238.928" transform="translate(0 235.295) rotate(-90)" fill="#6A2186"></rect><rect id="Rectangle_9685" data-name="Rectangle 9685" width="4.384" height="238.928" transform="translate(0 244.531) rotate(-90)" fill="#6A2186"></rect><rect id="Rectangle_9686" data-name="Rectangle 9686" width="4.384" height="238.928" transform="translate(0 198.349) rotate(-90)" fill="#6A2186"></rect><rect id="Rectangle_9687" data-name="Rectangle 9687" width="4.384" height="238.928" transform="translate(0 189.113) rotate(-90)" fill="#6A2186"></rect><rect id="Rectangle_9688" data-name="Rectangle 9688" width="4.384" height="238.928" transform="translate(0 179.876) rotate(-90)" fill="#6A2186"></rect><rect id="Rectangle_9689" data-name="Rectangle 9689" width="4.384" height="238.928" transform="translate(0 170.64) rotate(-90)" fill="#6A2186"></rect><rect id="Rectangle_9690" data-name="Rectangle 9690" width="4.384" height="238.928" transform="translate(0 161.403) rotate(-90)" fill="#6A2186"></rect><rect id="Rectangle_9691" data-name="Rectangle 9691" width="4.384" height="238.928" transform="translate(0 115.221) rotate(-90)" fill="#6A2186"></rect><rect id="Rectangle_9692" data-name="Rectangle 9692" width="4.384" height="238.928" transform="translate(0 124.458) rotate(-90)" fill="#6A2186"></rect><rect id="Rectangle_9693" data-name="Rectangle 9693" width="4.384" height="238.928" transform="translate(0 133.694) rotate(-90)" fill="#6A2186"></rect><rect id="Rectangle_9694" data-name="Rectangle 9694" width="4.384" height="238.928" transform="translate(0 142.93) rotate(-90)" fill="#6A2186"></rect><rect id="Rectangle_9695" data-name="Rectangle 9695" width="4.384" height="238.928" transform="translate(0 152.167) rotate(-90)" fill="#6A2186"></rect><rect id="Rectangle_9696" data-name="Rectangle 9696" width="4.384" height="238.928" transform="translate(0 105.985) rotate(-90)" fill="#6A2186"></rect><rect id="Rectangle_9697" data-name="Rectangle 9697" width="4.384" height="238.928" transform="translate(0 96.748) rotate(-90)" fill="#6A2186"></rect><rect id="Rectangle_9698" data-name="Rectangle 9698" width="4.384" height="238.928" transform="translate(0 87.512) rotate(-90)" fill="#6A2186"></rect><rect id="Rectangle_9699" data-name="Rectangle 9699" width="4.384" height="238.928" transform="translate(0 78.275) rotate(-90)" fill="#6A2186"></rect><rect id="Rectangle_9700" data-name="Rectangle 9700" width="4.384" height="238.928" transform="translate(0 69.039) rotate(-90)" fill="#6A2186"></rect><rect id="Rectangle_9701" data-name="Rectangle 9701" width="4.384" height="238.928" transform="translate(0 59.802) rotate(-90)" fill="#6A2186"></rect><rect id="Rectangle_9702" data-name="Rectangle 9702" width="4.384" height="238.928" transform="translate(0 50.566) rotate(-90)" fill="#6A2186"></rect><rect id="Rectangle_9703" data-name="Rectangle 9703" width="4.384" height="238.928" transform="translate(0 41.33) rotate(-90)" fill="#6A2186"></rect><rect id="Rectangle_9704" data-name="Rectangle 9704" width="4.384" height="238.928" transform="translate(0 32.093) rotate(-90)" fill="#6A2186"></rect><rect id="Rectangle_9705" data-name="Rectangle 9705" width="4.384" height="238.928" transform="translate(0 22.857) rotate(-90)" fill="#6A2186"></rect><rect id="Rectangle_9706" data-name="Rectangle 9706" width="4.384" height="238.928" transform="translate(0 13.62) rotate(-90)" fill="#6A2186"></rect><rect id="Rectangle_9707" data-name="Rectangle 9707" width="4.384" height="238.928" transform="translate(0 4.384) rotate(-90)" fill="#6A2186"></rect></g></g></g></g><path id="Rectangle_9708" data-name="Rectangle 9708" d="M8.954,0H114.915a8.954,8.954,0,0,1,8.954,8.954v0a3.2,3.2,0,0,1-3.2,3.2H3.2A3.2,3.2,0,0,1,0,8.954v0A8.954,8.954,0,0,1,8.954,0Z" transform="translate(2.042 37.298)" fill="#2d2d2d"></path><g id="Group_26823" data-name="Group 26823" transform="translate(52.025 112.456)"><g id="Group_26821" data-name="Group 26821" transform="translate(0.276 0.275)"><g id="Group_26818" data-name="Group 26818"><path id="Path_37234" data-name="Path 37234" d="M3116.293,1439.087a84.219,84.219,0,0,1-23.48,0s-1.252,11.592,11.633,11.558h.215C3117.544,1450.678,3116.293,1439.087,3116.293,1439.087Z" transform="translate(-3092.78 -1439.087)" fill="#be1717"></path></g><g id="Group_26819" data-name="Group 26819" transform="translate(0)"><path id="Path_37235" data-name="Path 37235" d="M3116.3,1439.087a84.2,84.2,0,0,1-23.48,0,10.338,10.338,0,0,0-.017,1.452c2.336.9,6.041,1.64,11.757,1.62,5.716.021,9.421-.715,11.756-1.62A10.256,10.256,0,0,0,3116.3,1439.087Z" transform="translate(-3092.783 -1439.087)" fill="#fff"></path></g><g id="Group_26820" data-name="Group 26820" transform="translate(3.209 6.097)"><path id="Path_37236" data-name="Path 37236" d="M3131.177,1482.244a13.18,13.18,0,0,0-8.468-2.744v0h-.193v0a13.182,13.182,0,0,0-8.469,2.744c1.734,1.576,4.39,2.725,8.458,2.715h.214C3126.787,1484.969,3129.444,1483.82,3131.177,1482.244Z" transform="translate(-3114.048 -1479.497)" fill="#ff2929"></path></g></g><g id="Group_26822" data-name="Group 26822"><path id="Path_37237" data-name="Path 37237" d="M3103.147,1449.371h-.252c-.182,0-.36,0-.536-.006l-.118,0c-.17,0-.339-.012-.5-.021l-.084,0c-.147-.009-.291-.019-.433-.031l-.105-.008q-.233-.021-.459-.047l-.12-.015q-.2-.025-.389-.053l-.081-.011c-.141-.022-.279-.046-.416-.071l-.138-.026c-.131-.025-.26-.051-.387-.08l-.076-.017-.042-.01q-.145-.034-.287-.07l-.013,0-.14-.036q-.17-.045-.334-.094l-.138-.042-.026-.008-.205-.066c-.077-.025-.153-.052-.229-.079l-.221-.08-.191-.074-.134-.055q-.17-.07-.334-.145l-.092-.042q-.107-.049-.211-.1l-.01-.005c-.136-.067-.282-.144-.427-.224l-.031-.017c-5.65-3.16-5.024-10.019-4.995-10.31a.282.282,0,0,1,.1-.191.279.279,0,0,1,.207-.061l.044.006a83.9,83.9,0,0,0,23.323,0l.044-.006a.274.274,0,0,1,.309.248c.03.295.656,7.154-4.995,10.314l-.029.016c-.151.084-.294.159-.439.23-.07.035-.141.068-.212.1l-.09.041c-.11.05-.222.1-.336.146l-.133.054-.192.075-.217.079c-.077.027-.155.054-.233.079l-.2.066-.033.01-.132.041c-.109.033-.221.064-.334.094l-.148.038c-.1.025-.194.048-.291.07l-.043.01-.077.018c-.127.028-.256.054-.386.079l-.139.026c-.136.025-.275.049-.416.071l-.082.011c-.127.019-.257.036-.388.052l-.12.015q-.226.026-.459.047l-.1.008q-.214.018-.432.031l-.085.005h0q-.248.014-.5.021l-.118,0C3103.48,1449.368,3103.315,1449.371,3103.147,1449.371Zm-.149-.552h.11c.176,0,.35,0,.522-.006l.115,0c.166,0,.329-.011.49-.02h0l.083,0q.212-.013.418-.03l.1-.008q.226-.02.444-.046l.116-.014c.127-.016.252-.032.375-.051l.079-.011c.136-.021.269-.044.4-.068l.134-.025c.125-.024.25-.049.371-.076l.115-.027c.093-.021.184-.043.274-.066l.147-.038c.108-.029.214-.059.319-.09l.125-.038.033-.01.2-.063.221-.076.208-.076.182-.071.126-.051c.108-.045.214-.091.319-.138l.085-.039c.068-.032.135-.063.2-.1.137-.067.272-.138.414-.217l.028-.016c4.787-2.677,4.8-8.19,4.736-9.5a83.968,83.968,0,0,1-22.972,0c-.068,1.327-.044,6.826,4.735,9.5l.022.012c.146.081.284.153.419.22.068.034.135.066.2.1l.087.04q.155.07.317.137l.127.052c.06.024.12.048.181.071s.139.052.21.077.145.051.219.075l.2.063.027.008.13.04q.158.047.32.09l.133.034.013,0q.136.035.275.067l.046.011.068.016c.122.027.246.052.372.077l.134.025q.2.036.4.068l.078.011q.185.027.375.051l.116.014q.219.026.445.046l.1.008q.207.017.419.03l.082,0c.161.009.325.015.49.02l.114,0c.172,0,.344.007.522.006Z" transform="translate(-3090.952 -1437.261)" fill="#f8a364"></path></g></g><path id="Path_37238" data-name="Path 37238" d="M2965.384,1444.472c-5.906,9.5-16.61,12.59-24.365,8.908l-4.526.36c-2.7,3.659-11.039,5.454-14.493,4.369-.229-1.9.311-1.339,1.658-2.117h-6.016c1.347.778,1.887.222,1.658,2.117-3.454,1.085-11.789-.709-14.493-4.369l-4.526-.36c-7.755,3.682-18.459.591-24.365-8.908,5.775,11.847,18.227,21.974,44.426,23.016v.025c.1,0,.512,0,.616,0v-.025C2947.156,1466.446,2959.609,1456.319,2965.384,1444.472Z" transform="translate(-2856.333 -1330.928)" fill="#2d2d2d"></path><g id="Group_26839" data-name="Group 26839" transform="translate(4.702 149.604)"><g id="Group_26830" data-name="Group 26830"><path id="Path_37239" data-name="Path 37239" d="M2795.749,1685.934c-7.04,6.214-11.983,32.946-16.472,62.251-1.215,7.147,13.58,10.516,15.27,2.8,4.735-23.124,11.769-52.744,11.769-52.744C2809.619,1684.158,2801.875,1680.4,2795.749,1685.934Z" transform="translate(-2778.916 -1683.488)" fill="#6A2186"></path><g id="Group_26826" data-name="Group 26826" transform="translate(46.985 27.483)"><path id="Path_37240" data-name="Path 37240" d="M3089.068,1887.855l4.058-1.536c1.4-8.14,3.232-15.284,5.94-20.4l.11-.075a1.124,1.124,0,0,1,1.755.921l.169,21.015a4.706,4.706,0,0,1-.642,2.425c-2.079,3.53-7.006,5.832-11.752,7.623Z" transform="translate(-3088.706 -1865.652)" fill="#fbd3a8"></path><g id="Group_26824" data-name="Group 26824" transform="translate(8.821 9.993)"><path id="Path_37241" data-name="Path 37241" d="M3147.423,1938.79l-.248-.093a20.291,20.291,0,0,0,.952-4c.231-1.431.4-2.466,1.023-2.739.382-.167.883-.029,1.578.435l-.147.221c-.6-.4-1.038-.538-1.325-.412-.493.215-.658,1.24-.867,2.538A20.544,20.544,0,0,1,3147.423,1938.79Z" transform="translate(-3147.174 -1931.888)" fill="#f8a364"></path></g><g id="Group_26825" data-name="Group 26825" transform="translate(7.775 4.233)"><path id="Path_37242" data-name="Path 37242" d="M3140.49,1902.691l-.246-.1a29.559,29.559,0,0,0,1.272-4.478c.5-2.2.9-3.944,1.85-4.325a1.524,1.524,0,0,1,1.429.306l-.147.221a1.29,1.29,0,0,0-1.184-.28c-.824.33-1.226,2.094-1.69,4.137A29.722,29.722,0,0,1,3140.49,1902.691Z" transform="translate(-3140.244 -1893.713)" fill="#f8a364"></path></g></g><g id="Group_26827" data-name="Group 26827" transform="translate(0 46.595)"><path id="Path_37243" data-name="Path 37243" d="M2786.871,2023.168c9.811-3.09,19.844-6.4,29.319-9.471,5.534-1.423,10.3-4.328,10.347-5.522l3.909-1.789a1.573,1.573,0,0,0,.9-1.654,25.036,25.036,0,0,0-4.542-9.752,1.57,1.57,0,0,0-1.824-.345l-3.657,1.734c-2.458-.3-6.133,1.357-10.261,3.137-4.552,1.894-15.527,5.006-27.806,8.237a7.981,7.981,0,0,0-2.49,14.314A7.674,7.674,0,0,0,2786.871,2023.168Z" transform="translate(-2777.278 -1994.157)" fill="#6A2186"></path><path id="Path_37244" data-name="Path 37244" d="M3074.473,2006.335c-.067-.145-5.226-11.793-5.226-11.793l4.322-2.154c2.457-.971,8.023,10.845,5.046,12.08Z" transform="translate(-3025.198 -1992.331)" fill="#6A2186"></path></g><g id="Group_26828" data-name="Group 26828" transform="translate(17.259 17.585)"><path id="Path_37245" data-name="Path 37245" d="M2901.15,1800.046c-.628,3.308-1.3,6.606-1.98,9.9s-1.382,6.587-2.089,9.876l-1.075,4.931-1.094,4.927c-.726,3.286-1.48,6.565-2.229,9.845l-.552-.509c2.185-.677,4.376-1.332,6.564-2s4.383-1.31,6.574-1.966,4.388-1.294,6.588-1.922,4.4-1.257,6.606-1.864q-3.242,1.13-6.5,2.218c-2.167.733-4.342,1.442-6.514,2.161s-4.348,1.421-6.527,2.116-4.355,1.4-6.538,2.083l-.716.224.164-.733c.733-3.284,1.46-6.569,2.216-9.848l1.128-4.919,1.148-4.915q1.162-4.912,2.356-9.816C2899.486,1806.569,2900.3,1803.3,2901.15,1800.046Z" transform="translate(-2891.674 -1800.046)" fill="#e5dfdf"></path></g><g id="Group_26829" data-name="Group 26829" transform="translate(17.625 60.462)"><path id="Path_37246" data-name="Path 37246" d="M2894.1,2097.36c2.654-1.265,5.342-2.448,8.041-3.6,1.346-.585,2.7-1.139,4.057-1.708l4.076-1.661q4.083-1.643,8.208-3.186c2.748-1.032,5.508-2.034,8.3-2.953-2.654,1.266-5.342,2.449-8.041,3.6s-5.41,2.279-8.134,3.369l-4.095,1.616c-1.371.524-2.736,1.062-4.113,1.569C2899.652,2095.438,2896.892,2096.44,2894.1,2097.36Z" transform="translate(-2894.099 -2084.25)" fill="#e5dfdf"></path></g></g><g id="Group_26837" data-name="Group 26837" transform="translate(58.894)"><path id="Path_37247" data-name="Path 37247" d="M3385.727,1685.934c7.04,6.214,11.983,32.946,16.472,62.251,1.215,7.147-13.58,10.516-15.27,2.8-4.735-23.124-11.769-52.744-11.769-52.744C3371.857,1684.158,3379.6,1680.4,3385.727,1685.934Z" transform="translate(-3343.182 -1683.488)" fill="#6A2186"></path><g id="Group_26833" data-name="Group 26833" transform="translate(0 27.483)"><path id="Path_37248" data-name="Path 37248" d="M3179.678,1887.855l-4.057-1.536c-1.4-8.14-3.232-15.284-5.941-20.4l-.11-.075a1.124,1.124,0,0,0-1.754.921l-.169,21.015a4.7,4.7,0,0,0,.642,2.425c2.079,3.53,7.006,5.832,11.752,7.623Z" transform="translate(-3167.646 -1865.652)" fill="#fbd3a8"></path><g id="Group_26831" data-name="Group 26831" transform="translate(0.019 9.993)"><path id="Path_37249" data-name="Path 37249" d="M3171.079,1938.79l.248-.093a20.254,20.254,0,0,1-.952-4c-.231-1.431-.4-2.466-1.024-2.739-.381-.167-.882-.029-1.578.435l.147.221c.6-.4,1.038-.538,1.325-.412.492.215.658,1.24.867,2.538A20.544,20.544,0,0,0,3171.079,1938.79Z" transform="translate(-3167.774 -1931.888)" fill="#f8a364"></path></g><g id="Group_26832" data-name="Group 26832" transform="translate(0.067 4.233)"><path id="Path_37250" data-name="Path 37250" d="M3172.393,1902.691l.246-.1a29.531,29.531,0,0,1-1.272-4.478c-.5-2.2-.9-3.944-1.851-4.325a1.524,1.524,0,0,0-1.429.306l.147.221a1.29,1.29,0,0,1,1.184-.28c.825.33,1.226,2.094,1.69,4.137A29.751,29.751,0,0,0,3172.393,1902.691Z" transform="translate(-3168.087 -1893.713)" fill="#f8a364"></path></g></g><g id="Group_26834" data-name="Group 26834" transform="translate(5.108 46.595)"><path id="Path_37251" data-name="Path 37251" d="M3247.205,2023.168c-9.811-3.09-19.844-6.4-29.319-9.471-5.534-1.423-10.3-4.328-10.347-5.522l-3.908-1.789a1.574,1.574,0,0,1-.9-1.654,25.047,25.047,0,0,1,4.542-9.752,1.571,1.571,0,0,1,1.824-.345l3.657,1.734c2.458-.3,6.133,1.357,10.261,3.137,4.551,1.894,15.526,5.006,27.805,8.237a7.981,7.981,0,0,1,2.491,14.314A7.674,7.674,0,0,1,3247.205,2023.168Z" transform="translate(-3202.528 -1994.157)" fill="#6A2186"></path><path id="Path_37252" data-name="Path 37252" d="M3206.5,2006.335c.067-.145,5.226-11.793,5.226-11.793l-4.322-2.154c-2.457-.971-8.023,10.845-5.046,12.08Z" transform="translate(-3201.503 -1992.331)" fill="#6A2186"></path></g><g id="Group_26835" data-name="Group 26835" transform="translate(15.33 17.585)"><path id="Path_37253" data-name="Path 37253" d="M3286.571,1800.046c.629,3.308,1.3,6.606,1.98,9.9s1.382,6.587,2.089,9.876l1.074,4.931,1.094,4.927c.726,3.286,1.48,6.565,2.229,9.845l.552-.509c-2.185-.677-4.376-1.332-6.564-2s-4.383-1.31-6.574-1.966-4.388-1.294-6.588-1.922-4.4-1.257-6.606-1.864q3.241,1.13,6.5,2.218c2.167.733,4.342,1.442,6.514,2.161s4.348,1.421,6.528,2.116,4.355,1.4,6.538,2.083l.715.224-.164-.733c-.733-3.284-1.46-6.569-2.216-9.848l-1.128-4.919-1.148-4.915q-1.162-4.912-2.356-9.816C3288.235,1806.569,3287.424,1803.3,3286.571,1800.046Z" transform="translate(-3269.257 -1800.046)" fill="#e5dfdf"></path></g><g id="Group_26836" data-name="Group 26836" transform="translate(9.071 60.462)"><path id="Path_37254" data-name="Path 37254" d="M3260.453,2097.36c-2.654-1.265-5.342-2.448-8.041-3.6-1.346-.585-2.7-1.139-4.058-1.708l-4.076-1.661q-4.084-1.643-8.207-3.186c-2.748-1.032-5.508-2.034-8.3-2.953,2.654,1.266,5.342,2.449,8.04,3.6s5.41,2.279,8.134,3.369l4.095,1.616c1.371.524,2.736,1.062,4.113,1.569C3254.9,2095.438,3257.661,2096.44,3260.453,2097.36Z" transform="translate(-3227.77 -2084.25)" fill="#e5dfdf"></path></g></g><g id="Group_26838" data-name="Group 26838" transform="translate(58.987 28.048)"><rect id="Rectangle_9709" data-name="Rectangle 9709" width="0.15" height="23.317" fill="#f8a364"></rect></g></g></g></g></g></svg> 