<?xml version="1.0" encoding="UTF-8"?> <svg xmlns="http://www.w3.org/2000/svg" xmlns:xlink="http://www.w3.org/1999/xlink" width="615.936" height="526.987" viewBox="0 0 615.936 526.987"><style> .man { animation-delay: .0s; transform-origin: center; transform-box:fill-box ; animation-name: man; animation-fill-mode: both; animation-duration: 5s; animation-iteration-count: infinite; } @keyframes man { 0% { transform:translateX(0px); } 50% { transform:translateX(-65px); } 100% { transform:translateX(0px); } } .topber { animation-delay: .0s; transform-origin: center; transform-box:fill-box ; animation-name: topber; animation-fill-mode: both; animation-duration: 5s; animation-iteration-count: infinite; } @keyframes topber { 0% { transform:translateX(0px); } 50% { transform:translateX(15px); } 100% { transform:translateX(0px); } } .cloud { animation-delay: .0s; transform-origin: center; transform-box:fill-box ; animation-name: cloud; animation-fill-mode: both; animation-duration: 5s; animation-iteration-count: infinite; } @keyframes cloud { 0% { transform:translateX(0px); } 50% { transform:translateX(-60px); } 100% { transform:translateX(0px); } } .cloud2{ animation-delay: .0s; transform-origin: center; transform-box:fill-box ; animation-name: cloud2; animation-fill-mode: both; animation-duration: 5s; animation-iteration-count: infinite; } @keyframes cloud2 { 0% { transform:translateX(0px); } 50% { transform:translateX(60px); } 100% { transform:translateX(0px); } } .rotet { animation-delay: .0s; animation-name: rota1; transform-origin: center; transform-box:fill-box ; animation-fill-mode: both; animation-duration: 2.5s; animation-iteration-count: infinite; animation-timing-function: linear; } @keyframes rota1 { from { transform: rotate(0deg); } to { transform: rotate(360deg); } } .rotet2 { animation-delay: .0s; animation-name: rota2; transform-origin: center; transform-box:fill-box ; animation-fill-mode: both; animation-duration: 2.5s; animation-iteration-count: infinite; animation-timing-function: linear; } @keyframes rota2 { from { transform: rotate(0deg); } to { transform: rotate(-360deg); } } .g-1 { animation-name: tranfX; animation-fill-mode: both; animation-duration: 2.5s; transform-origin: left; transform-box:fill-box ; animation-iteration-count: infinite; } .g-2{ animation-delay: .2s; animation-name: tranfX; animation-fill-mode: both; transform-origin: left; transform-box:fill-box ; animation-duration: 2.5s; animation-iteration-count: infinite; } .g-3{ animation-delay: .4s; animation-name: tranfX; transform-origin: left; transform-box:fill-box ; animation-fill-mode: both; animation-duration: 2.5s; animation-iteration-count: infinite; } .g-4{ animation-delay: .6s; animation-name: tranfX; transform-origin: left; transform-box:fill-box ; animation-fill-mode: both; animation-duration: 2.5s; animation-iteration-count: infinite; } .g-5{ animation-delay: .8s; transform-origin: left; transform-box:fill-box ; animation-name: tranfX; animation-fill-mode: both; animation-duration: 2.5s; animation-iteration-count: infinite; } @keyframes tranfX { 0% { transform: scaleX(1); } 50% { transform: scaleX(.1); } 100% { transform: scaleX(1); } } </style><defs><clipPath id="clip-path"><rect id="Rectangle_1130" data-name="Rectangle 1130" width="174" height="458" transform="translate(0 -0.193)" fill="#fff" stroke="#707070" stroke-width="1"></rect></clipPath><clipPath id="clip-path-2"><rect id="Rectangle_959" data-name="Rectangle 959" width="227.054" height="478.793" fill="none"></rect></clipPath><clipPath id="clip-path-3"><rect id="Rectangle_909" data-name="Rectangle 909" width="227.054" height="478.792" fill="none"></rect></clipPath><clipPath id="clip-path-4"><rect id="Rectangle_896" data-name="Rectangle 896" width="2.241" height="4.075" fill="none"></rect></clipPath><clipPath id="clip-path-6"><rect id="Rectangle_898" data-name="Rectangle 898" width="5.928" height="4.027" fill="none"></rect></clipPath><clipPath id="clip-path-7"><rect id="Rectangle_899" data-name="Rectangle 899" width="3.545" height="4.321" fill="none"></rect></clipPath><clipPath id="clip-path-8"><rect id="Rectangle_900" data-name="Rectangle 900" width="14.64" height="5.538" fill="none"></rect></clipPath><clipPath id="clip-path-14"><rect id="Rectangle_906" data-name="Rectangle 906" width="19.124" height="8.477" fill="none"></rect></clipPath><clipPath id="clip-path-15"><rect id="Rectangle_907" data-name="Rectangle 907" width="18.697" height="105.447" fill="none"></rect></clipPath><clipPath id="clip-path-17"><path id="Path_6412" data-name="Path 6412" d="M381.1,615.673c-53.732,5.287-69.624,56.495-44.552,157.795,2.053-6.228,4.666-14.715,8.859-19.881-4.865-37.225-7.014-69.268,5.149-83.33,10.451,3.937,54.481,3.937,64.931,0,12.163,14.061,9.974,46.415,5.109,83.64,3.762,5.092,6.6,13.343,8.651,19.571,25.072-101.3,9.429-152.508-44.3-157.795Z" transform="translate(-324.95 -615.673)" fill="none"></path></clipPath><clipPath id="clip-path-18"><rect id="Rectangle_929" data-name="Rectangle 929" width="222.276" height="217.183" fill="none"></rect></clipPath><clipPath id="clip-path-19"><rect id="Rectangle_957" data-name="Rectangle 957" width="217.182" height="222.275" fill="none"></rect></clipPath></defs><g id="تصميم_و_تطوير_المواقع_الالكترونية" data-name="تصميم و تطوير المواقع الالكترونية" transform="translate(2.936 -94)"><g id="Website_Creator-bro" data-name="Website Creator-bro" transform="translate(-17.068 109.069)"><g id="freepik--background-simple--inject-3" transform="translate(14.132 370.936) rotate(-71)"><path id="Path_10038" data-name="Path 10038" d="M68.351,327.274s-29.1-70.382,11.795-141.253S205.277,77.711,272.7,45.7,410.124,29.274,443.39,81.709s-12.359,89.864-12.421,164.636,11.952,94.566-31.314,157.734-149.326,77.156-229.532,30.3S68.351,327.274,68.351,327.274Z" transform="translate(-58.313 -29.116)" fill="#fff2f2"></path></g><g id="freepik--Graphics--inject-3" transform="translate(117.32 61.641)"><g class="rotet"><path id="Path_6552" data-name="Path 6552" d="M286.88,118.047V100.912L274.045,99.82a35.558,35.558,0,0,0-3.165-7.695l8.284-9.823L267.048,70.187l-9.823,8.284a34.925,34.925,0,0,0-7.64-3.176L248.494,62.46H231.216L230.125,75.3a34.927,34.927,0,0,0-7.64,3.176l-9.823-8.284L200.547,82.3l8.284,9.823a35.558,35.558,0,0,0-3.165,7.695l-12.835,1.091v17.136l12.835,1.091a35.558,35.558,0,0,0,3.165,7.64l-8.284,9.823,12.115,12.115,9.823-8.284a34.928,34.928,0,0,0,7.64,3.176l1.091,12.835h17.136l1.091-12.835a35.264,35.264,0,0,0,7.695-3.176l9.823,8.284L279.076,136.6l-8.284-9.823a35.557,35.557,0,0,0,3.165-7.64Zm-47.041,11.34a19.945,19.945,0,1,0-.044,0Z" transform="translate(-117.048 -62.46)" fill="none" stroke="#FFD100" stroke-linecap="round" stroke-linejoin="round" stroke-width="1"></path></g><g class="cloud"><path id="Path_6554" data-name="Path 6554" d="M450.161,132.952a22.407,22.407,0,0,0-27.679-26.675,21.5,21.5,0,0,0-40.187,9.2,17.551,17.551,0,0,0-20.738,15.28,9.823,9.823,0,0,0,.218,19.559h82.164a9.823,9.823,0,0,0,6.221-17.365Z" transform="translate(-102.423 -59.454)" fill="none" stroke="#FFD100" stroke-linecap="round" stroke-linejoin="round" stroke-width="1"></path><line id="Line_12" data-name="Line 12" y2="22.648" transform="translate(302.585 83.354)" fill="none" stroke="#FFD100" stroke-linecap="round" stroke-linejoin="round" stroke-width="1"></line><line id="Line_13" data-name="Line 13" y2="9.048" transform="translate(302.585 69.776)" fill="none" stroke="#FFD100" stroke-linecap="round" stroke-linejoin="round" stroke-width="1"></line><line id="Line_14" data-name="Line 14" y2="4.846" transform="translate(302.585 61.307)" fill="none" stroke="#FFD100" stroke-linecap="round" stroke-linejoin="round" stroke-width="1"></line><path id="Path_6555" data-name="Path 6555" d="M396.71,157.16l4.279,5.294,4.278-5.294" transform="translate(-98.404 -53.8)" fill="none" stroke="#FFD100" stroke-linecap="round" stroke-linejoin="round" stroke-width="1"></path></g><g class="cloud2"><path id="Path_6556" data-name="Path 6556" d="M220.8,376.3a22.418,22.418,0,0,0-27.69-26.675,21.491,21.491,0,0,0-40.176,9.212,17.762,17.762,0,0,0-3.274-.316A17.561,17.561,0,0,0,132.2,374.109a9.823,9.823,0,0,0,.207,19.559h82.241a9.823,9.823,0,0,0,6.188-17.365Z" transform="translate(-123.397 -37.201)" fill="none" stroke="#FFD100" stroke-linecap="round" stroke-linejoin="round" stroke-width="1"></path><line id="Line_15" data-name="Line 15" y1="22.637" transform="translate(52.218 329.562)" fill="none" stroke="#FFD100" stroke-linecap="round" stroke-linejoin="round" stroke-width="1"></line><line id="Line_16" data-name="Line 16" y1="9.059" transform="translate(52.218 356.728)" fill="none" stroke="#FFD100" stroke-linecap="round" stroke-linejoin="round" stroke-width="1"></line><line id="Line_17" data-name="Line 17" y1="4.846" transform="translate(52.218 369.411)" fill="none" stroke="#FFD100" stroke-linecap="round" stroke-linejoin="round" stroke-width="1"></line><path id="Path_6557" data-name="Path 6557" d="M175.877,367.274,171.6,361.98l-4.278,5.294" transform="translate(-119.381 -35.07)" fill="none" stroke="#FFD100" stroke-linecap="round" stroke-linejoin="round" stroke-width="1"></path></g></g><g id="freepik--Window--inject-3" transform="translate(49.382 117.287)"><g class="topber"><path id="Path_6558" data-name="Path 6558" d="M53.868,109.9H328.312a4.628,4.628,0,0,1,4.628,4.628v12.945H49.24V114.528A4.628,4.628,0,0,1,53.868,109.9Z" transform="translate(-42.473 -110.98)" fill="#6A2186" stroke="#263238" stroke-linecap="round" stroke-linejoin="round" stroke-width="1"></path></g><rect id="Rectangle_1131" data-name="Rectangle 1131" width="286.734" height="201.776" transform="translate(12.764 21.098)" fill="#fff" stroke="#FFD100" stroke-linecap="round" stroke-linejoin="round" stroke-width="1"></rect><path id="Path_6559" data-name="Path 6559" d="M328.082,118.306a4.366,4.366,0,1,1-4.366-4.366A4.366,4.366,0,0,1,328.082,118.306Z" transform="translate(-24.539 -109.531)" fill="#fff" stroke="#263238" stroke-linecap="round" stroke-linejoin="round" stroke-width="1"></path><path id="Path_6560" data-name="Path 6560" d="M313.922,118.306a4.366,4.366,0,1,1-4.366-4.366A4.366,4.366,0,0,1,313.922,118.306Z" transform="translate(-25.834 -109.531)" fill="#fff" stroke="#263238" stroke-linecap="round" stroke-linejoin="round" stroke-width="1"></path><path id="Path_6561" data-name="Path 6561" d="M299.732,118.306a4.366,4.366,0,1,1-4.366-4.366A4.366,4.366,0,0,1,299.732,118.306Z" transform="translate(-27.132 -109.531)" fill="#fff" stroke="#263238" stroke-linecap="round" stroke-linejoin="round" stroke-width="1"></path><line id="Line_18" data-name="Line 18" x1="11.351" transform="translate(279.116 29.469)" fill="none" stroke="#FFD100" stroke-linecap="round" stroke-linejoin="round" stroke-width="2"></line><line id="Line_19" data-name="Line 19" x1="11.351" transform="translate(279.116 34.075)" fill="none" stroke="#FFD100" stroke-linecap="round" stroke-linejoin="round" stroke-width="2"></line><line id="Line_20" data-name="Line 20" x1="11.351" transform="translate(279.116 38.681)" fill="none" stroke="#FFD100" stroke-linecap="round" stroke-linejoin="round" stroke-width="2"></line><line id="Line_21" data-name="Line 21" x2="85.93" transform="translate(32.274 148.524)" fill="none" stroke="#FFD100" stroke-linecap="round" stroke-linejoin="round" stroke-width="2"></line><line id="Line_22" data-name="Line 22" x2="85.93" transform="translate(32.274 155.302)" fill="none" stroke="#FFD100" stroke-linecap="round" stroke-linejoin="round" stroke-width="2"></line><line id="Line_23" data-name="Line 23" x2="67.757" transform="translate(32.274 162.2)" fill="none" stroke="#FFD100" stroke-linecap="round" stroke-linejoin="round" stroke-width="2"></line><line id="Line_24" data-name="Line 24" y2="0.546" transform="translate(214.491 23.084)" fill="none" stroke="#263238" stroke-linecap="round" stroke-linejoin="round" stroke-width="1"></line><line id="Line_25" data-name="Line 25" y2="190.163" transform="translate(214.491 26.904)" fill="none" stroke="#FFD100" stroke-linecap="round" stroke-linejoin="round" stroke-width="1" stroke-dasharray="0.998 2.995"></line><line id="Line_26" data-name="Line 26" y2="0.546" transform="translate(214.491 218.704)" fill="none" stroke="#263238" stroke-linecap="round" stroke-linejoin="round" stroke-width="1"></line><line id="Line_27" data-name="Line 27" x2="0.546" transform="translate(15.87 177.338)" fill="none" stroke="#263238" stroke-linecap="round" stroke-linejoin="round" stroke-width="1"></line><line id="Line_28" data-name="Line 28" x2="272.905" transform="translate(19.679 177.338)" fill="none" stroke="#FFD100" stroke-linecap="round" stroke-linejoin="round" stroke-width="1" stroke-dasharray="0.998 2.994"></line><line id="Line_29" data-name="Line 29" x2="0.546" transform="translate(294.221 177.338)" fill="none" stroke="#263238" stroke-linecap="round" stroke-linejoin="round" stroke-width="1"></line><rect id="Rectangle_1132" data-name="Rectangle 1132" width="3.765" height="3.765" transform="translate(212.614 175.45)" fill="#fff" stroke="#263238" stroke-linecap="round" stroke-linejoin="round" stroke-width="1"></rect><g id="Group_7502" data-name="Group 7502"><line id="Line_30" data-name="Line 30" x1="50.272" transform="translate(149.19 141.168)" fill="none" stroke="#FFD100" stroke-linecap="round" stroke-linejoin="round" stroke-width="1"></line><path id="Path_6562" data-name="Path 6562" d="M237.258,262.5s0-23.368-26.107-23.368S185,262.5,185,262.5" transform="translate(-36.825 -98.082)" fill="none" stroke="#FFD100" stroke-linecap="round" stroke-linejoin="round" stroke-width="1"></path><circle id="Ellipse_22" data-name="Ellipse 22" cx="2.205" cy="2.205" r="2.205" transform="translate(198.229 162.211)" fill="#6A2186" stroke="#263238" stroke-linecap="round" stroke-linejoin="round" stroke-width="1"></circle><path id="Path_6563" data-name="Path 6563" d="M183,260.723a2.183,2.183,0,1,1,2.183,2.183A2.183,2.183,0,0,1,183,260.723Z" transform="translate(-37.008 -96.307)" fill="#6A2186" stroke="#263238" stroke-linecap="round" stroke-linejoin="round" stroke-width="1"></path><rect id="Rectangle_1133" data-name="Rectangle 1133" width="3.864" height="3.864" transform="translate(202.365 142.98) rotate(180)" fill="#6A2186" stroke="#263238" stroke-linecap="round" stroke-linejoin="round" stroke-width="1"></rect><rect id="Rectangle_1134" data-name="Rectangle 1134" width="3.864" height="3.864" transform="translate(176.258 142.98) rotate(180)" fill="#6A2186" stroke="#263238" stroke-linecap="round" stroke-linejoin="round" stroke-width="1"></rect><rect id="Rectangle_1135" data-name="Rectangle 1135" width="3.864" height="3.864" transform="translate(150.15 142.98) rotate(180)" fill="#6A2186" stroke="#263238" stroke-linecap="round" stroke-linejoin="round" stroke-width="1"></rect></g><g class="rotet"><path id="Path_6564" data-name="Path 6564" d="M110.982,176.97v-7.727l-5.774-.491a16.47,16.47,0,0,0-1.43-3.471l3.733-4.431-5.457-5.457-4.442,3.733a15.52,15.52,0,0,0-3.471-1.43l-.5-5.785H85.933l-.5,5.785a15.281,15.281,0,0,0-3.46,1.43l-4.442-3.733-5.457,5.457L75.8,165.28a15.913,15.913,0,0,0-1.43,3.471l-5.785.491v7.727l5.785.491a16.131,16.131,0,0,0,1.43,3.471l-3.733,4.431,5.457,5.457,4.442-3.733a15.279,15.279,0,0,0,3.438,1.43l.5,5.785h7.717l.5-5.785a15.519,15.519,0,0,0,3.46-1.43l4.442,3.733,5.457-5.457-3.733-4.431a16.711,16.711,0,0,0,1.43-3.471Zm-21.207,5.108a8.972,8.972,0,1,1,8.972-8.972A8.972,8.972,0,0,1,89.775,182.078Z" transform="translate(-47.471 -106.058)" fill="#6A2186" stroke="#263238" stroke-linecap="round" stroke-linejoin="round" stroke-width="1"></path></g><g class="rotet2"><path id="Path_6565" data-name="Path 6565" d="M133.9,192.168v-5.283l-3.962-.349a10.706,10.706,0,0,0-.971-2.368l2.554-3.034-3.744-3.733-3.034,2.554a11.287,11.287,0,0,0-2.368-.982L122.038,175h-5.283l-.349,3.962a11.287,11.287,0,0,0-2.368.982L111,177.39l-3.744,3.733,2.565,3.034a10.238,10.238,0,0,0-.982,2.368l-3.962.349v5.283l3.962.338a10.042,10.042,0,0,0,.982,2.368l-2.565,3.056L111,201.653l3.034-2.554a11.284,11.284,0,0,0,2.368.982l.349,3.951h5.283l.338-3.951a11.285,11.285,0,0,0,2.368-.982l3.034,2.554,3.744-3.733-2.5-3.045a10.49,10.49,0,0,0,.971-2.368ZM119.4,195.661a6.145,6.145,0,1,1,6.134-6.134,6.145,6.145,0,0,1-6.134,6.134Z" transform="translate(-44.152 -103.947)" fill="#6A2186" stroke="#263238" stroke-linecap="round" stroke-linejoin="round" stroke-width="1"></path></g><line id="Line_31" data-name="Line 31" x2="42.272" transform="translate(225.275 190.174)" fill="none" stroke="#FFD100" stroke-linecap="round" stroke-linejoin="round" stroke-width="2"></line><line id="Line_32" data-name="Line 32" x2="42.272" transform="translate(225.275 196.952)" fill="none" stroke="#FFD100" stroke-linecap="round" stroke-linejoin="round" stroke-width="2"></line><line id="Line_33" data-name="Line 33" x2="24.099" transform="translate(225.275 203.85)" fill="none" stroke="#FFD100" stroke-linecap="round" stroke-linejoin="round" stroke-width="2"></line><path id="Path_6566" data-name="Path 6566" d="M206.932,300.164H184.677a5.457,5.457,0,0,1-5.457-5.457h0a5.457,5.457,0,0,1,5.457-5.457h22.255a5.457,5.457,0,0,1,5.457,5.457h0A5.457,5.457,0,0,1,206.932,300.164Z" transform="translate(-37.354 -93.499)" fill="#6A2186" stroke="#263238" stroke-linecap="round" stroke-linejoin="round" stroke-width="1"></path><path id="Path_6567" data-name="Path 6567" d="M244.932,300.164H222.677a5.457,5.457,0,0,1-5.457-5.457h0a5.457,5.457,0,0,1,5.457-5.457h22.255a5.457,5.457,0,0,1,5.457,5.457h0A5.457,5.457,0,0,1,244.932,300.164Z" transform="translate(-33.879 -93.499)" fill="#6A2186" stroke="#263238" stroke-linecap="round" stroke-linejoin="round" stroke-width="1"></path><rect id="Rectangle_1136" data-name="Rectangle 1136" width="47.194" height="47.194" transform="translate(228.363 89.575)" fill="#fff" stroke="#FFD100" stroke-linecap="round" stroke-linejoin="round" stroke-width="1"></rect><line id="Line_34" data-name="Line 34" x2="47.194" y2="47.194" transform="translate(228.363 89.575)" fill="#fff" stroke="#FFD100" stroke-linecap="round" stroke-linejoin="round" stroke-width="1"></line><line id="Line_35" data-name="Line 35" x1="47.194" y2="47.194" transform="translate(228.363 89.575)" fill="#fff" stroke="#FFD100" stroke-linecap="round" stroke-linejoin="round" stroke-width="1"></line><path id="Path_6568" data-name="Path 6568" d="M276.76,142.88v11.013L271.9,158.75H260.89V142.88Z" transform="translate(-29.885 -106.884)" fill="#fff" stroke="#FFD100" stroke-linecap="round" stroke-linejoin="round" stroke-width="1"></path><path id="Path_6569" data-name="Path 6569" d="M275.837,152.97l-4.857,4.857V152.97Z" transform="translate(-28.963 -105.961)" fill="#fff" stroke="#FFD100" stroke-linecap="round" stroke-linejoin="round" stroke-width="1"></path><path id="Path_6570" data-name="Path 6570" d="M122.13,220.91v11.013l-4.857,4.868H106.26V220.91Z" transform="translate(-44.026 -99.748)" fill="#fff" stroke="#FFD100" stroke-linecap="round" stroke-linejoin="round" stroke-width="1"></path><path id="Path_6571" data-name="Path 6571" d="M121.207,231l-4.857,4.868V231Z" transform="translate(-43.103 -98.826)" fill="#fff" stroke="#FFD100" stroke-linecap="round" stroke-linejoin="round" stroke-width="1"></path><path id="Path_6572" data-name="Path 6572" d="M67.191,283.08v11.013l-4.857,4.857H51.31V283.08Z" transform="translate(-49.051 -94.063)" fill="#fff" stroke="#FFD100" stroke-linecap="round" stroke-linejoin="round" stroke-width="1"></path><path id="Path_6573" data-name="Path 6573" d="M66.267,293.17l-4.857,4.857V293.17Z" transform="translate(-48.127 -93.141)" fill="#fff" stroke="#FFD100" stroke-linecap="round" stroke-linejoin="round" stroke-width="1"></path></g><g id="freepik--Screens--inject-3" transform="translate(94.362 173.823)"><rect id="Rectangle_1137" data-name="Rectangle 1137" width="58.567" height="36.705" transform="translate(220.265)" fill="#FFD100" stroke="#FFD100" stroke-linecap="round" stroke-linejoin="round" stroke-width="1"></rect><rect id="Rectangle_1138" data-name="Rectangle 1138" width="58.567" height="5.577" transform="translate(220.265)" fill="#6A2186" stroke="#263238" stroke-linecap="round" stroke-linejoin="round" stroke-width="1"></rect><line id="Line_36" data-name="Line 36" x2="14.975" transform="translate(226.235 10.281)" fill="none" stroke="#fff" stroke-linecap="round" stroke-linejoin="round" stroke-width="1"></line><line id="Line_37" data-name="Line 37" x2="25.911" transform="translate(233.722 14.462)" fill="none" stroke="#fff" stroke-linecap="round" stroke-linejoin="round" stroke-width="1"></line><line id="Line_38" data-name="Line 38" x2="7.629" transform="translate(230.415 18.358)" fill="none" stroke="#fff" stroke-linecap="round" stroke-linejoin="round" stroke-width="1"></line><line id="Line_39" data-name="Line 39" x2="17.452" transform="translate(233.722 22.953)" fill="none" stroke="#fff" stroke-linecap="round" stroke-linejoin="round" stroke-width="1"></line><line id="Line_40" data-name="Line 40" x2="14.975" transform="translate(226.235 27.122)" fill="none" stroke="#fff" stroke-linecap="round" stroke-linejoin="round" stroke-width="1"></line><path id="Path_6653" data-name="Path 6653" d="M0,0H58.567V36.705H0Z" transform="translate(0 147.684)" fill="#FFD100" stroke="#FFD100" stroke-linecap="round" stroke-width="1"></path><rect id="Rectangle_1140" data-name="Rectangle 1140" width="58.567" height="5.577" transform="translate(0 147.684)" fill="#6A2186" stroke="#263238" stroke-linecap="round" stroke-linejoin="round" stroke-width="1"></rect><line id="Line_41" data-name="Line 41" x2="14.964" transform="translate(5.981 157.976)" fill="none" stroke="#fff" stroke-linecap="round" stroke-linejoin="round" stroke-width="1"></line><line id="Line_42" data-name="Line 42" x2="25.911" transform="translate(13.458 162.145)" fill="none" stroke="#fff" stroke-linecap="round" stroke-linejoin="round" stroke-width="1"></line><line id="Line_43" data-name="Line 43" x2="7.629" transform="translate(10.15 166.042)" fill="none" stroke="#fff" stroke-linecap="round" stroke-linejoin="round" stroke-width="1"></line><line id="Line_44" data-name="Line 44" x2="17.452" transform="translate(13.458 170.637)" fill="none" stroke="#fff" stroke-linecap="round" stroke-linejoin="round" stroke-width="1"></line><line id="Line_45" data-name="Line 45" x2="14.964" transform="translate(5.981 174.817)" fill="none" stroke="#fff" stroke-linecap="round" stroke-linejoin="round" stroke-width="1"></line></g><g id="freepik--speech-bubble--inject-3" transform="translate(105.037 61.641)"><path id="Path_6574" data-name="Path 6574" d="M171.708,58H117.9a2.39,2.39,0,0,0-2.379,2.379v25.1a2.379,2.379,0,0,0,2.379,2.368H142.02l2.75,9.823,2.761-9.823h24.176a2.379,2.379,0,0,0,2.379-2.368v-25.1A2.39,2.39,0,0,0,171.708,58Z" transform="translate(-115.52 -58)" fill="#6A2186" stroke="#263238" stroke-linecap="round" stroke-linejoin="round" stroke-width="1"></path><g class="g-1"><line id="Line_46" data-name="Line 46" x2="40.656" transform="translate(8.928 7.182)" fill="none" stroke="#263238" stroke-linecap="round" stroke-linejoin="round" stroke-width="2"></line></g><g class="g-2"><line id="Line_47" data-name="Line 47" x2="40.656" transform="translate(8.928 12.333)" fill="none" stroke="#263238" stroke-linecap="round" stroke-linejoin="round" stroke-width="2"></line></g><g class="g-3"><line id="Line_48" data-name="Line 48" x2="40.656" transform="translate(8.928 17.485)" fill="none" stroke="#263238" stroke-linecap="round" stroke-linejoin="round" stroke-width="2"></line></g><g class="g-4"><line id="Line_49" data-name="Line 49" x2="30.637" transform="translate(8.928 22.637)" fill="none" stroke="#263238" stroke-linecap="round" stroke-linejoin="round" stroke-width="2"></line></g></g><g id="freepik--speech-bubble--inject-3-2" data-name="freepik--speech-bubble--inject-3" transform="translate(340.037 325.641)"><path id="Path_6574-2" data-name="Path 6574" d="M171.708,58H117.9a2.39,2.39,0,0,0-2.379,2.379v25.1a2.379,2.379,0,0,0,2.379,2.368H142.02l2.75,9.823,2.761-9.823h24.176a2.379,2.379,0,0,0,2.379-2.368v-25.1A2.39,2.39,0,0,0,171.708,58Z" transform="translate(-115.52 -58)" fill="#6A2186" stroke="#263238" stroke-linecap="round" stroke-linejoin="round" stroke-width="1"></path><g class="g-1"><line id="Line_46-2" data-name="Line 46" x2="40.656" transform="translate(8.928 7.182)" fill="none" stroke="#263238" stroke-linecap="round" stroke-linejoin="round" stroke-width="2"></line></g><g class="g-2"><line id="Line_47-2" data-name="Line 47" x2="40.656" transform="translate(8.928 12.333)" fill="none" stroke="#263238" stroke-linecap="round" stroke-linejoin="round" stroke-width="2"></line></g><g class="g-3"><line id="Line_48-2" data-name="Line 48" x2="40.656" transform="translate(8.928 17.485)" fill="none" stroke="#263238" stroke-linecap="round" stroke-linejoin="round" stroke-width="2"></line></g><g class="g-4"><line id="Line_49-2" data-name="Line 49" x2="30.637" transform="translate(8.928 22.637)" fill="none" stroke="#263238" stroke-linecap="round" stroke-linejoin="round" stroke-width="2"></line></g></g></g><g class="man"><g id="Mask_Group_6261" data-name="Mask Group 6261" transform="translate(439 94.193)" clip-path="url(#clip-path)"><g id="Group_6509" data-name="Group 6509" transform="translate(-28.613 -24.341)"><g id="Group_6222" data-name="Group 6222" clip-path="url(#clip-path-2)"><g id="Group_6211" data-name="Group 6211" transform="translate(0 0)"><g id="Group_6210" data-name="Group 6210" clip-path="url(#clip-path-3)"><path id="Path_6353" data-name="Path 6353" d="M428.463,677.072l-48.874,66.489,8.7,78.685h40.174Z" transform="translate(-321.098 -572.742)" fill="#FFD100"></path><path id="Path_6354" data-name="Path 6354" d="M699.452,677.072l48.874,66.489-8.7,78.685H699.452Z" transform="translate(-591.673 -572.742)" fill="#FFD100"></path><path id="Path_6355" data-name="Path 6355" d="M409.182,2922.842c0,8.5-29.1,15.391-65,15.391s-65-6.891-65-15.391,29.1-15.392,65-15.392,65,6.891,65,15.392" transform="translate(-236.158 -2459.441)" fill="#ffe8d9" opacity="0.38"></path><path id="Path_6356" data-name="Path 6356" d="M527.642,2649.4l4.425-42.722-19.727-3.017,1.948,45.739a4.683,4.683,0,0,1-.814,2.639l-2.2,3.224h19.379l-2.2-3.224a4.683,4.683,0,0,1-.814-2.639" transform="translate(-432.493 -2202.46)" fill="#fbd3a8"></path><path id="Path_6357" data-name="Path 6357" d="M487.9,2923.367V2928c1.029,2.686,26.181,2.786,26.583,0v-4.28a8.424,8.424,0,0,0-.411-2.622c-4.378-13.36-23.016-11.282-25.924.224a8.359,8.359,0,0,0-.248,2.05" transform="translate(-412.719 -2463.171)" fill="#232323"></path><path id="Path_6358" data-name="Path 6358" d="M503.154,2955.917c2.971-6.645,19.051-6.66,21.776-.046a.76.76,0,0,1-.486,1.02c-5.324,1.592-16.847,1.5-20.865.056a.759.759,0,0,1-.426-1.03" transform="translate(-425.565 -2496.214)" fill="#ffd9a4"></path><path id="Path_6359" data-name="Path 6359" d="M594.357,2981.152l.8-2.6a.387.387,0,0,1,.732.005l.646,2.46Z" transform="translate(-502.772 -2519.365)" fill="#232323"></path><path id="Path_6360" data-name="Path 6360" d="M493.912,2941.523c-1.054,1.334-1.406,3.945,0,5.092-2.537-.2-4.814-.572-5.994-1.7l-.018-4.628a10.882,10.882,0,0,1,4.543-8.425,3.134,3.134,0,0,0,2.222,4.179,6.552,6.552,0,0,0-4.568,3.9c-.026,1.224,1.7,1.507,3.815,1.577" transform="translate(-412.719 -2480.092)" fill="#3b3b3b"></path><g id="Group_6173" data-name="Group 6173" transform="translate(77.606 457.069)" opacity="0.35"><g id="Group_6172" data-name="Group 6172"><g id="Group_6171" data-name="Group 6171" clip-path="url(#clip-path-4)"><path id="Path_6361" data-name="Path 6361" d="M505.882,2966.246c-1.014,1.348-1.033,3.531-.327,4.075-.98-.131-1.76-.368-1.914-.939a5.5,5.5,0,0,1,2.241-3.136" transform="translate(-503.641 -2966.246)" fill="#f8a364"></path></g></g></g><g id="Group_6176" data-name="Group 6176" transform="translate(97.333 456.919)" opacity="0.35"><g id="Group_6175" data-name="Group 6175"><g id="Group_6174" data-name="Group 6174" clip-path="url(#clip-path-4)"><path id="Path_6362" data-name="Path 6362" d="M631.661,2965.269c1.014,1.347,1.033,3.531.327,4.075.98-.131,1.76-.369,1.914-.939a5.5,5.5,0,0,0-2.241-3.136" transform="translate(-631.661 -2965.269)" fill="#f8a364"></path></g></g></g><g id="Group_6179" data-name="Group 6179" transform="translate(92.655 451.303)" opacity="0.2"><g id="Group_6178" data-name="Group 6178"><g id="Group_6177" data-name="Group 6177" clip-path="url(#clip-path-6)"><path id="Path_6363" data-name="Path 6363" d="M604.8,2929.985c1.61,1.007,2.677,2.206,2.382,2.676s-1.838.035-3.448-.973-2.677-2.205-2.382-2.676,1.838-.035,3.448.973" transform="translate(-601.301 -2928.823)" fill="#fff"></path></g></g></g><g id="Group_6182" data-name="Group 6182" transform="translate(97.377 460.149)" opacity="0.2"><g id="Group_6181" data-name="Group 6181"><g id="Group_6180" data-name="Group 6180" clip-path="url(#clip-path-7)"><path id="Path_6364" data-name="Path 6364" d="M635.194,2986.277a.054.054,0,0,1,.107,0l.193,3.392a.5.5,0,0,1-.452.5l-3.027.382a.059.059,0,0,1-.025-.114l2.456-.791a.5.5,0,0,0,.354-.384Z" transform="translate(-631.95 -2986.23)" fill="#fff"></path></g></g></g><g id="Group_6185" data-name="Group 6185" transform="translate(81.462 439.108)" opacity="0.35"><g id="Group_6184" data-name="Group 6184"><g id="Group_6183" data-name="Group 6183" clip-path="url(#clip-path-8)"><path id="Path_6365" data-name="Path 6365" d="M542.694,2854.188c-4.19,1.562-11.04,1.256-13.852-.275l-.18-4.23,14.64.2Z" transform="translate(-528.662 -2849.683)" fill="#f8a364"></path></g></g></g><path id="Path_6366" data-name="Path 6366" d="M746.827,2649.4l-4.425-42.722,19.727-3.017-1.948,45.739a4.683,4.683,0,0,0,.814,2.639l2.2,3.224H743.815l2.2-3.224a4.683,4.683,0,0,0,.814-2.639" transform="translate(-628.005 -2202.46)" fill="#fbd3a8"></path><path id="Path_6367" data-name="Path 6367" d="M754.777,2923.367V2928c-1.029,2.686-26.181,2.786-26.583,0v-4.28a8.424,8.424,0,0,1,.411-2.622c4.378-13.36,23.016-11.282,25.924.224a8.37,8.37,0,0,1,.248,2.05" transform="translate(-615.986 -2463.171)" fill="#232323"></path><path id="Path_6368" data-name="Path 6368" d="M765.214,2955.917c-2.971-6.645-19.051-6.66-21.776-.046a.76.76,0,0,0,.486,1.02c5.324,1.592,16.847,1.5,20.865.056a.759.759,0,0,0,.426-1.03" transform="translate(-628.832 -2496.214)" fill="#ffd9a4"></path><path id="Path_6369" data-name="Path 6369" d="M782.27,2981.152l-.8-2.6a.387.387,0,0,0-.732.005l-.646,2.46Z" transform="translate(-659.883 -2519.365)" fill="#232323"></path><path id="Path_6370" data-name="Path 6370" d="M857.559,2941.523c1.054,1.334,1.406,3.945,0,5.092,2.537-.2,4.814-.572,5.994-1.7l.018-4.628a10.882,10.882,0,0,0-4.543-8.425,3.134,3.134,0,0,1-2.221,4.179,6.552,6.552,0,0,1,4.568,3.9c.026,1.224-1.7,1.507-3.815,1.577" transform="translate(-724.781 -2480.092)" fill="#3b3b3b"></path><g id="Group_6188" data-name="Group 6188" transform="translate(134.124 457.069)" opacity="0.35"><g id="Group_6187" data-name="Group 6187"><g id="Group_6186" data-name="Group 6186" clip-path="url(#clip-path-4)"><path id="Path_6371" data-name="Path 6371" d="M870.422,2966.246c1.014,1.348,1.033,3.531.327,4.075.98-.131,1.76-.368,1.914-.939a5.5,5.5,0,0,0-2.241-3.136" transform="translate(-870.422 -2966.246)" fill="#f8a364"></path></g></g></g><g id="Group_6191" data-name="Group 6191" transform="translate(114.397 456.919)" opacity="0.35"><g id="Group_6190" data-name="Group 6190"><g id="Group_6189" data-name="Group 6189" clip-path="url(#clip-path-4)"><path id="Path_6372" data-name="Path 6372" d="M744.643,2965.269c-1.014,1.347-1.033,3.531-.327,4.075-.98-.131-1.76-.369-1.914-.939a5.5,5.5,0,0,1,2.241-3.136" transform="translate(-742.402 -2965.269)" fill="#f8a364"></path></g></g></g><g id="Group_6194" data-name="Group 6194" transform="translate(115.388 451.303)" opacity="0.2"><g id="Group_6193" data-name="Group 6193"><g id="Group_6192" data-name="Group 6192" clip-path="url(#clip-path-6)"><path id="Path_6373" data-name="Path 6373" d="M751.266,2929.985c-1.61,1.007-2.677,2.206-2.382,2.676s1.838.035,3.448-.973,2.677-2.205,2.382-2.676-1.838-.035-3.448.973" transform="translate(-748.835 -2928.823)" fill="#fff"></path></g></g></g><g id="Group_6197" data-name="Group 6197" transform="translate(113.049 460.149)" opacity="0.2"><g id="Group_6196" data-name="Group 6196"><g id="Group_6195" data-name="Group 6195" clip-path="url(#clip-path-7)"><path id="Path_6374" data-name="Path 6374" d="M733.952,2986.277a.054.054,0,0,0-.107,0l-.193,3.392a.5.5,0,0,0,.452.5l3.027.382a.059.059,0,0,0,.025-.114l-2.456-.791a.5.5,0,0,1-.354-.384Z" transform="translate(-733.651 -2986.23)" fill="#fff"></path></g></g></g><g id="Group_6200" data-name="Group 6200" transform="translate(117.87 439.108)" opacity="0.35"><g id="Group_6199" data-name="Group 6199"><g id="Group_6198" data-name="Group 6198" clip-path="url(#clip-path-8)"><path id="Path_6375" data-name="Path 6375" d="M765.548,2854.188c4.19,1.562,11.04,1.256,13.852-.275l.18-4.23-14.64.2Z" transform="translate(-764.94 -2849.683)" fill="#f8a364"></path></g></g></g><path id="Path_6376" data-name="Path 6376" d="M515.54,2285.189c-13.942,11.144-74.095,11.144-82.557,0l3.9-109.151,75.029-.593Z" transform="translate(-366.265 -1840.231)" fill="#f9f9f9"></path><path id="Path_6377" data-name="Path 6377" d="M784.752,1004.234,813.815,981.5l11.992,2.408c1.114,9.529-.478,20.622-3.426,32.5-10.208,20.834-19.486,23.665-19.486,23.665l-18.142-.045Z" transform="translate(-663.829 -830.26)" fill="#2d2d2d"></path><path id="Path_6378" data-name="Path 6378" d="M397.321,1004.234,368.257,981.5l-11.992,2.408c-1.114,9.529.478,20.622,3.426,32.5,10.208,20.834,19.486,23.665,19.486,23.665l18.142-.045Z" transform="translate(-301.067 -830.26)" fill="#2d2d2d"></path><path id="Path_6379" data-name="Path 6379" d="M645.939,1412.447c0,3.226-5.56,5.84-12.42,5.84s-12.42-2.615-12.42-5.84,5.561-5.84,12.42-5.84,12.42,2.615,12.42,5.84" transform="translate(-525.394 -1189.862)" fill="#aeb5b5"></path><path id="Path_6380" data-name="Path 6380" d="M646.1,1394.095H626.911c.16,7.788-.924,12.693-2.067,15.76a3,3,0,0,0,.83,3.28c4.19,3.745,16.708,5.088,21.8-.406a3,3,0,0,0,.613-3.064c-1.117-3.079-2.154-7.941-2-15.569" transform="translate(-528.405 -1179.279)" fill="#fbd3a8"></path><g id="Group_6203" data-name="Group 6203" transform="translate(98.519 213.96)" opacity="0.35"><g id="Group_6202" data-name="Group 6202"><g id="Group_6201" data-name="Group 6201" clip-path="url(#clip-path-14)"><path id="Path_6381" data-name="Path 6381" d="M639.877,1388.544l18.3.122.306,5.272c-2.872,4.229-16.985,4.051-19.124-.2Z" transform="translate(-639.357 -1388.543)" fill="#f8a364"></path></g></g></g><path id="Path_6382" data-name="Path 6382" d="M482.336,1438.941v208.621H443.663l2.8-136.774-.045-65.743a1.149,1.149,0,0,1,.405-.812c4.624-4.085,12.6-5.852,21.794-6.708a1.293,1.293,0,0,0,1.047-.727l1.617-3.369a.361.361,0,0,1,.654.007c2.6,5.494,10.4,5.506,10.4,5.506" transform="translate(-375.299 -1212.379)" fill="#f9f9f9"></path><path id="Path_6383" data-name="Path 6383" d="M364.1,1127.949c-8.266,0-13.537-11-10.971-18.1a6.61,6.61,0,0,1,3.525-3.9c2.99-1.283,5.688.3,7.446,1.475Z" transform="translate(-298.16 -935.127)" fill="#fbd3a8"></path><path id="Path_6384" data-name="Path 6384" d="M384.116,1138.234c-11.207-3.986-9.317,12.577-.1,12.982" transform="translate(-318.394 -962.32)" fill="#fbbd89"></path><path id="Path_6385" data-name="Path 6385" d="M384.179,1137.748a12.329,12.329,0,0,0-3.045-.683,6.508,6.508,0,0,0-1.543.054,4.24,4.24,0,0,0-1.439.5,3.4,3.4,0,0,0-1.1,1.048,4.359,4.359,0,0,0-.6,1.435,7.244,7.244,0,0,0-.184,1.575,12.67,12.67,0,0,0,.1,1.6,9.186,9.186,0,0,1-.079-3.207,4.577,4.577,0,0,1,.552-1.536,3.707,3.707,0,0,1,1.139-1.2,4.63,4.63,0,0,1,1.54-.631,6.982,6.982,0,0,1,1.648-.146,12.91,12.91,0,0,1,3.229.543Z" transform="translate(-318.205 -961.419)" fill="#603813"></path><path id="Path_6386" data-name="Path 6386" d="M973.618,1127.949c8.266,0,13.537-11,10.971-18.1a6.609,6.609,0,0,0-3.525-3.9c-2.99-1.283-5.688.3-7.445,1.475Z" transform="translate(-823.593 -935.127)" fill="#fbd3a8"></path><path id="Path_6387" data-name="Path 6387" d="M975.005,1138.234c11.207-3.986,9.317,12.577.1,12.982" transform="translate(-824.766 -962.32)" fill="#fbbd89"></path><path id="Path_6388" data-name="Path 6388" d="M972.021,1137.094a12.911,12.911,0,0,1,3.229-.543,6.972,6.972,0,0,1,1.649.146,4.632,4.632,0,0,1,1.54.631,3.71,3.71,0,0,1,1.139,1.2,4.578,4.578,0,0,1,.552,1.536,9.186,9.186,0,0,1-.079,3.206,12.657,12.657,0,0,0,.1-1.6,7.252,7.252,0,0,0-.184-1.575,4.363,4.363,0,0,0-.6-1.435,3.4,3.4,0,0,0-1.1-1.048,4.236,4.236,0,0,0-1.439-.5,6.508,6.508,0,0,0-1.543-.054,12.331,12.331,0,0,0-3.045.683Z" transform="translate(-822.242 -961.418)" fill="#603813"></path><path id="Path_6389" data-name="Path 6389" d="M489.612,852.889H405.356c-11.433,52.079-3.218,86.327,41.55,87.4h1.155c44.769-1.073,52.983-35.322,41.55-87.4" transform="translate(-338.973 -721.468)" fill="#fbd3a8"></path><path id="Path_6390" data-name="Path 6390" d="M575.758,1099.544c0,3.307-1.679,5.987-3.751,5.987s-3.751-2.681-3.751-5.987,1.679-5.987,3.751-5.987,3.751,2.681,3.751,5.987" transform="translate(-480.693 -925.051)" fill="#2d2d2d"></path><path id="Path_6391" data-name="Path 6391" d="M587.855,1103.35a1.868,1.868,0,1,1-1.826-2.26,2.078,2.078,0,0,1,1.826,2.26" transform="translate(-494.183 -931.423)" fill="#fff"></path><path id="Path_6393" data-name="Path 6393" d="M794.213,1099.544c0,3.307-1.679,5.987-3.751,5.987s-3.751-2.681-3.751-5.987,1.679-5.987,3.751-5.987,3.751,2.681,3.751,5.987" transform="translate(-665.487 -925.051)" fill="#2d2d2d"></path><path id="Path_6394" data-name="Path 6394" d="M806.311,1103.35a1.868,1.868,0,1,1-1.826-2.26,2.078,2.078,0,0,1,1.826,2.26" transform="translate(-678.977 -931.423)" fill="#fff"></path><path id="Path_6396" data-name="Path 6396" d="M678.819,1215.961a1.125,1.125,0,0,0,.536-.058c3.257-.954,3.728,2.7,1.107,3.028-2.5.229-3.817-.616-4.623-1.7a.988.988,0,0,1,.636-1.57,8.234,8.234,0,0,1,2.344.3" transform="translate(-571.533 -1028.323)" fill="#f8a364"></path><path id="Path_6397" data-name="Path 6397" d="M786.242,1030.273c-3.6.068-4.972-3.392-2.458-5.5a5.075,5.075,0,0,1,3.842-.93c3.742.4,6.061,1.726,6.474,4.288a2.8,2.8,0,0,1-.8,2.524c-1.318,1.206-3.366.744-5.6-.139a3.758,3.758,0,0,0-1.457-.244" transform="translate(-661.924 -866.043)" fill="#2d2d2d"></path><path id="Path_6398" data-name="Path 6398" d="M557.968,1030.273c3.6.068,4.972-3.392,2.458-5.5a5.075,5.075,0,0,0-3.842-.93c-3.742.4-6.061,1.726-6.474,4.288a2.8,2.8,0,0,0,.8,2.524c1.318,1.206,3.366.744,5.6-.139a3.759,3.759,0,0,1,1.457-.244" transform="translate(-465.309 -866.043)" fill="#2d2d2d"></path><path id="Path_6399" data-name="Path 6399" d="M411.692,984.614c-6.893,7.9-8.573,22.6-7.735,38.377-4.539-13.89-2.779-38.377-2.779-38.377Z" transform="translate(-339.076 -832.895)" fill="#2d2d2d"></path><path id="Path_6400" data-name="Path 6400" d="M938.159,984.614c6.893,7.9,8.573,22.6,7.735,38.377,4.539-13.89,2.779-38.377,2.779-38.377Z" transform="translate(-793.598 -832.895)" fill="#2d2d2d"></path><g id="Group_6206" data-name="Group 6206" transform="translate(93.343 220.848)" opacity="0.5"><g id="Group_6205" data-name="Group 6205"><g id="Group_6204" data-name="Group 6204" clip-path="url(#clip-path-15)"><path id="Path_6401" data-name="Path 6401" d="M605.77,1437.541c.483,4.688,5.681,8.178,12.052,8.651v92.5h6.645l-.887-91.7-4.092-1.1v-6.937c-4.745-.274-8.551-1.856-10.423-5.548a.364.364,0,0,0-.63.036l-1.8,3.651a1.315,1.315,0,0,1-.863.445" transform="translate(-605.77 -1433.243)" fill="#aeb5b5"></path></g></g></g><path id="Path_6402" data-name="Path 6402" d="M684.372,1514.2l-5.16,1.5v91.471" transform="translate(-574.552 -1280.878)" fill="none" stroke="#aeb5b5" stroke-miterlimit="10" stroke-width="15"></path><path id="Path_6403" data-name="Path 6403" d="M685.433,1438.941v6.937l-4.092,1.1v200.587h42.385l-2.421-136.774.045-65.743a1.148,1.148,0,0,0-.405-.812c-4.624-4.085-12.6-5.852-21.794-6.708a1.294,1.294,0,0,1-1.047-.727l-1.617-3.369a.361.361,0,0,0-.654.007c-2.6,5.494-10.4,5.506-10.4,5.506" transform="translate(-576.353 -1212.379)" fill="#f9f9f9"></path><g id="Group_6209" data-name="Group 6209" transform="translate(104.101 220.848)" opacity="0.5"><g id="Group_6208" data-name="Group 6208"><g id="Group_6207" data-name="Group 6207" clip-path="url(#clip-path-15)"><path id="Path_6404" data-name="Path 6404" d="M694.283,1437.541c-.483,4.688-5.681,8.178-12.052,8.651v92.5h-6.645l.887-91.7,4.092-1.1v-6.937c4.745-.274,8.551-1.856,10.423-5.548a.364.364,0,0,1,.63.036l1.8,3.651a1.315,1.315,0,0,0,.863.445" transform="translate(-675.586 -1433.243)" fill="#aeb5b5"></path></g></g></g><path id="Path_6405" data-name="Path 6405" d="M691.14,1552.824a1.509,1.509,0,1,1-1.509-1.509,1.509,1.509,0,0,1,1.509,1.509" transform="translate(-582.089 -1312.273)" fill="#aeb5b5"></path><path id="Path_6406" data-name="Path 6406" d="M691.14,1672.992a1.509,1.509,0,1,1-1.509-1.509,1.509,1.509,0,0,1,1.509,1.509" transform="translate(-582.089 -1413.924)" fill="#aeb5b5"></path><path id="Path_6407" data-name="Path 6407" d="M691.14,1799.754a1.509,1.509,0,1,1-1.509-1.509,1.509,1.509,0,0,1,1.509,1.509" transform="translate(-582.089 -1521.153)" fill="#aeb5b5"></path><path id="Path_6408" data-name="Path 6408" d="M691.14,1919.922a1.509,1.509,0,1,1-1.509-1.509,1.509,1.509,0,0,1,1.509,1.509" transform="translate(-582.089 -1622.805)" fill="#aeb5b5"></path><path id="Path_6409" data-name="Path 6409" d="M691.14,2040.09a1.509,1.509,0,1,1-1.509-1.509,1.509,1.509,0,0,1,1.509,1.509" transform="translate(-582.089 -1724.456)" fill="#aeb5b5"></path><path id="Path_6410" data-name="Path 6410" d="M603,1252.206v-3.84c-8.522-.392-13.75.756-16.415,3.542a8.776,8.776,0,0,0-2.379,6.076v4.461h4.114c-1.539-3.615-1.984-6.657,0-8.682a4.907,4.907,0,0,1,3.456-1.435Z" transform="translate(-494.183 -1055.942)" fill="#2d2d2d"></path><path id="Path_6411" data-name="Path 6411" d="M702.544,1252.206v-3.84c8.522-.392,13.75.756,16.415,3.542a8.775,8.775,0,0,1,2.38,6.076v4.461h-4.114c1.539-3.615,1.984-6.657,0-8.682a4.907,4.907,0,0,0-3.456-1.435Z" transform="translate(-594.289 -1055.942)" fill="#2d2d2d"></path></g></g><g id="Group_6219" data-name="Group 6219" transform="translate(50.072 94.869)"><g id="Group_6218" data-name="Group 6218" clip-path="url(#clip-path-17)"><rect id="Rectangle_910" data-name="Rectangle 910" width="227.054" height="217.182" transform="translate(-50.072 -29.971)" fill="#fff"></rect><g id="Group_6214" data-name="Group 6214" transform="translate(-47.682 -29.971)" opacity="0.6"><g id="Group_6213" data-name="Group 6213"><g id="Group_6212" data-name="Group 6212" clip-path="url(#clip-path-18)"><rect id="Rectangle_911" data-name="Rectangle 911" width="3.985" height="217.182" transform="translate(33.583 0)" fill="#6A2186"></rect><rect id="Rectangle_912" data-name="Rectangle 912" width="3.985" height="217.182" transform="translate(25.187 0)" fill="#6A2186"></rect><rect id="Rectangle_913" data-name="Rectangle 913" width="3.985" height="217.182" transform="translate(41.979 0)" fill="#6A2186"></rect><rect id="Rectangle_914" data-name="Rectangle 914" width="3.985" height="217.182" transform="translate(50.375 0)" fill="#6A2186"></rect><rect id="Rectangle_915" data-name="Rectangle 915" width="3.985" height="217.182" transform="translate(58.771 0)" fill="#6A2186"></rect><rect id="Rectangle_916" data-name="Rectangle 916" width="3.985" height="217.182" transform="translate(67.166 0)" fill="#6A2186"></rect><rect id="Rectangle_917" data-name="Rectangle 917" width="3.985" height="217.182" transform="translate(75.562 0)" fill="#6A2186"></rect><rect id="Rectangle_918" data-name="Rectangle 918" width="3.985" height="217.182" transform="translate(117.541 0)" fill="#6A2186"></rect><rect id="Rectangle_919" data-name="Rectangle 919" width="3.985" height="217.182" transform="translate(109.146 0)" fill="#6A2186"></rect><rect id="Rectangle_920" data-name="Rectangle 920" width="3.985" height="217.182" transform="translate(100.75 0)" fill="#6A2186"></rect><rect id="Rectangle_921" data-name="Rectangle 921" width="3.985" height="217.182" transform="translate(92.354 0)" fill="#6A2186"></rect><rect id="Rectangle_922" data-name="Rectangle 922" width="3.985" height="217.182" transform="translate(83.958 0)" fill="#6A2186"></rect><rect id="Rectangle_923" data-name="Rectangle 923" width="3.985" height="217.182" transform="translate(125.937 0)" fill="#6A2186"></rect><rect id="Rectangle_924" data-name="Rectangle 924" width="3.985" height="217.182" transform="translate(134.333 0)" fill="#6A2186"></rect><rect id="Rectangle_925" data-name="Rectangle 925" width="3.985" height="217.182" transform="translate(142.729 0)" fill="#6A2186"></rect><rect id="Rectangle_926" data-name="Rectangle 926" width="3.985" height="217.182" transform="translate(151.125 0)" fill="#6A2186"></rect><rect id="Rectangle_927" data-name="Rectangle 927" width="3.985" height="217.182" transform="translate(159.52 0)" fill="#6A2186"></rect><rect id="Rectangle_928" data-name="Rectangle 928" width="3.985" height="217.182" transform="translate(167.916 0)" fill="#6A2186"></rect></g></g></g><g id="Group_6217" data-name="Group 6217" transform="translate(-45.136 -32.518)" opacity="0.8"><g id="Group_6216" data-name="Group 6216"><g id="Group_6215" data-name="Group 6215" clip-path="url(#clip-path-19)"><rect id="Rectangle_930" data-name="Rectangle 930" width="217.182" height="3.985" transform="translate(0 184.708)" fill="#6A2186"></rect><rect id="Rectangle_931" data-name="Rectangle 931" width="217.182" height="3.985" transform="translate(0 193.104)" fill="#6A2186"></rect><rect id="Rectangle_932" data-name="Rectangle 932" width="217.182" height="3.985" transform="translate(0 201.5)" fill="#6A2186"></rect><rect id="Rectangle_933" data-name="Rectangle 933" width="217.182" height="3.985" transform="translate(0 209.895)" fill="#6A2186"></rect><rect id="Rectangle_934" data-name="Rectangle 934" width="217.182" height="3.985" transform="translate(0 218.291)" fill="#6A2186"></rect><rect id="Rectangle_935" data-name="Rectangle 935" width="217.182" height="3.985" transform="translate(0 176.312)" fill="#6A2186"></rect><rect id="Rectangle_936" data-name="Rectangle 936" width="217.182" height="3.985" transform="translate(0 167.916)" fill="#6A2186"></rect><rect id="Rectangle_937" data-name="Rectangle 937" width="217.182" height="3.985" transform="translate(0 159.52)" fill="#6A2186"></rect><rect id="Rectangle_938" data-name="Rectangle 938" width="217.182" height="3.985" transform="translate(0 151.125)" fill="#6A2186"></rect><rect id="Rectangle_939" data-name="Rectangle 939" width="217.182" height="3.985" transform="translate(0 142.729)" fill="#6A2186"></rect><rect id="Rectangle_940" data-name="Rectangle 940" width="217.182" height="3.985" transform="translate(0 100.75)" fill="#6A2186"></rect><rect id="Rectangle_941" data-name="Rectangle 941" width="217.182" height="3.985" transform="translate(0 109.146)" fill="#6A2186"></rect><rect id="Rectangle_942" data-name="Rectangle 942" width="217.182" height="3.985" transform="translate(0 117.542)" fill="#6A2186"></rect><rect id="Rectangle_943" data-name="Rectangle 943" width="217.182" height="3.985" transform="translate(0 125.937)" fill="#6A2186"></rect><rect id="Rectangle_944" data-name="Rectangle 944" width="217.182" height="3.985" transform="translate(0 134.333)" fill="#6A2186"></rect><rect id="Rectangle_945" data-name="Rectangle 945" width="217.182" height="3.985" transform="translate(0 92.354)" fill="#6A2186"></rect><rect id="Rectangle_946" data-name="Rectangle 946" width="217.182" height="3.985" transform="translate(0 83.958)" fill="#6A2186"></rect><rect id="Rectangle_947" data-name="Rectangle 947" width="217.182" height="3.985" transform="translate(0 75.562)" fill="#6A2186"></rect><rect id="Rectangle_948" data-name="Rectangle 948" width="217.182" height="3.985" transform="translate(0 67.166)" fill="#6A2186"></rect><rect id="Rectangle_949" data-name="Rectangle 949" width="217.182" height="3.985" transform="translate(0 58.771)" fill="#6A2186"></rect><rect id="Rectangle_950" data-name="Rectangle 950" width="217.182" height="3.985" transform="translate(0 50.375)" fill="#6A2186"></rect><rect id="Rectangle_951" data-name="Rectangle 951" width="217.182" height="3.985" transform="translate(0 41.979)" fill="#6A2186"></rect><rect id="Rectangle_952" data-name="Rectangle 952" width="217.182" height="3.985" transform="translate(0 33.583)" fill="#6A2186"></rect><rect id="Rectangle_953" data-name="Rectangle 953" width="217.182" height="3.985" transform="translate(0 25.188)" fill="#6A2186"></rect><rect id="Rectangle_954" data-name="Rectangle 954" width="217.182" height="3.985" transform="translate(0 16.792)" fill="#6A2186"></rect><rect id="Rectangle_955" data-name="Rectangle 955" width="217.182" height="3.985" transform="translate(0 8.396)" fill="#6A2186"></rect><rect id="Rectangle_956" data-name="Rectangle 956" width="217.182" height="3.985" transform="translate(0 0)" fill="#6A2186"></rect></g></g></g></g></g><g id="Group_6221" data-name="Group 6221" transform="translate(0 0)"><g id="Group_6220" data-name="Group 6220" clip-path="url(#clip-path-3)"><path id="Path_6413" data-name="Path 6413" d="M446.815,846.744H339.776A2.778,2.778,0,0,1,337,843.966v-.49a7.778,7.778,0,0,1,7.778-7.778h97.04a7.778,7.778,0,0,1,7.778,7.778v.49a2.778,2.778,0,0,1-2.778,2.778" transform="translate(-285.07 -706.925)" fill="#2d2d2d"></path><path id="Path_6414" data-name="Path 6414" d="M654.85,1280.681a76.542,76.542,0,0,1-21.343,0s-1.137,10.537,10.574,10.506h.195c11.711.03,10.574-10.506,10.574-10.506" transform="translate(-535.864 -1083.341)" fill="#be1717"></path><path id="Path_6415" data-name="Path 6415" d="M654.851,1280.681a76.517,76.517,0,0,1-21.343,0,9.339,9.339,0,0,0-.015,1.32c2.123.823,5.491,1.491,10.686,1.472,5.2.019,8.564-.65,10.687-1.472a9.348,9.348,0,0,0-.015-1.32" transform="translate(-535.866 -1083.341)" fill="#fff"></path><path id="Path_6416" data-name="Path 6416" d="M667.974,1319.142a11.982,11.982,0,0,0-7.7-2.495v0H660.1v0a11.982,11.982,0,0,0-7.7,2.495c1.576,1.433,3.991,2.477,7.688,2.468h.195c3.7.01,6.111-1.035,7.688-2.468" transform="translate(-551.875 -1113.763)" fill="#ff2929"></path><path id="Path_6417" data-name="Path 6417" d="M642.934,1290.063h-.23c-.165,0-.327,0-.487-.006l-.107,0c-.155,0-.308-.01-.458-.019l-.077,0q-.2-.012-.393-.028l-.1-.008q-.212-.019-.418-.043l-.109-.013q-.179-.022-.353-.048l-.074-.01c-.128-.02-.254-.042-.378-.064l-.126-.023c-.119-.023-.237-.047-.352-.073l-.069-.016-.039-.009q-.132-.03-.261-.063l-.011,0-.127-.033q-.154-.041-.3-.086l-.125-.038-.024-.008-.186-.06-.209-.072-.2-.073-.173-.067-.122-.05q-.155-.064-.3-.131l-.083-.038-.192-.092-.009,0c-.123-.061-.257-.13-.389-.2l-.029-.016c-5.135-2.873-4.567-9.108-4.54-9.372a.255.255,0,0,1,.281-.229l.04.005a76.225,76.225,0,0,0,21.2,0l.04-.005a.251.251,0,0,1,.281.225c.027.268.6,6.5-4.54,9.375l-.026.015c-.137.076-.267.144-.4.209l-.193.092-.082.037q-.15.068-.305.132l-.121.049-.174.068-.2.072c-.07.025-.14.049-.211.073l-.186.06-.03.009-.12.037q-.149.044-.3.085l-.135.035c-.09.023-.177.044-.264.064l-.039.009-.07.016c-.115.026-.232.049-.351.072l-.126.024c-.124.023-.25.044-.378.064l-.074.01c-.116.017-.234.033-.353.048l-.109.014q-.206.024-.417.043l-.1.008q-.194.016-.393.028l-.077,0h0c-.15.008-.3.014-.458.019l-.107,0c-.149,0-.3.006-.451.006m-.135-.5h.1c.16,0,.318,0,.474-.006l.1,0q.226-.006.446-.018h0l.075,0q.193-.011.381-.027l.092-.007q.205-.018.4-.042l.106-.013c.115-.014.229-.03.341-.046l.072-.01c.123-.019.244-.04.364-.062l.122-.023c.114-.022.227-.045.337-.069l.1-.024c.084-.019.167-.039.249-.061l.133-.034q.147-.039.29-.082l.113-.035.03-.01.177-.057.2-.069.189-.069.166-.064.114-.047q.148-.061.29-.125l.077-.035.183-.087c.125-.061.247-.126.377-.2l.026-.014c4.351-2.434,4.366-7.445,4.3-8.635a76.318,76.318,0,0,1-20.881,0c-.062,1.206-.04,6.2,4.3,8.635l.02.011c.133.073.258.139.381.2.062.031.123.06.184.088l.079.036q.141.064.288.125l.116.047.165.064.191.07.2.068.178.057.024.008.118.036q.143.042.291.082l.121.031.012,0c.082.021.166.041.25.061l.042.01.062.014c.111.025.224.047.339.069l.122.023c.119.022.241.043.364.062l.071.01c.112.017.226.032.341.046l.105.013q.2.023.4.042l.092.007q.188.016.381.027l.075,0q.22.012.446.018l.1,0c.156,0,.313.006.475.006Z" transform="translate(-534.487 -1081.966)" fill="#f8a364"></path><path id="Path_6418" data-name="Path 6418" d="M521.8,1285.473c-5.368,8.634-15.1,11.444-22.148,8.1l-4.114.328c-2.458,3.326-10.034,4.958-13.174,3.971-.208-1.722.283-1.217,1.507-1.924H478.4c1.224.707,1.715.2,1.507,1.924-3.139.987-10.716-.645-13.174-3.971l-4.114-.328c-7.05,3.347-16.779.537-22.148-8.1,5.249,10.769,16.568,19.974,40.383,20.921v.022c.094,0,.466,0,.56,0v-.022c23.814-.947,35.134-10.152,40.383-20.921" transform="translate(-372.599 -1087.394)" fill="#2d2d2d"></path><path id="Path_6419" data-name="Path 6419" d="M907.713,1535.354l-12.678-29.464c-7.774-15.325-18.962-2.274-13.34,7.19l12.87,29.246c7.033,11.84,18.691,5.576,13.148-6.972" transform="translate(-744.546 -1267.883)" fill="#f9f9f9" fill-rule="evenodd"></path><path id="Path_6420" data-name="Path 6420" d="M883.021,1746.135l-22.849,36.517a1.429,1.429,0,0,1-1.6.6,22.908,22.908,0,0,1-8.215-5.436,1.442,1.442,0,0,1-.071-1.708l19.693-37.669c4.619-6.717,16.808,1.312,13.039,7.7" transform="translate(-719.059 -1468.414)" fill="#f9f9f9"></path><path id="Path_6421" data-name="Path 6421" d="M368.759,1547.917l9.936-31.869c1.367-8.563-.865-12.546-7.8-10.549-5.079,4.656-12.056,21.267-16.5,42.417,0,4.468,12.342,7.542,14.366,0" transform="translate(-299.785 -1273.088)" fill="#f9f9f9"></path><path id="Path_6422" data-name="Path 6422" d="M218.355,1347.817s.763-5.6,1.1-7.862-3.32-6.84-4.251-6.958a5.88,5.88,0,0,0-2.083.243s-5.666-10.973-6.853-11.793a1.36,1.36,0,0,0-1.969.43s1.315,2.729,3.954,9.015c0,0-3.681,1.562-4.077,2.319a4.631,4.631,0,0,1-1.667,2.049c-.875.535-1.6,1.194-1.111,3.521,1.2,5.683,8.607,12.236,8.607,12.236Z" transform="translate(-170.228 -1117.59)" fill="#fbd3a8"></path><path id="Path_6423" data-name="Path 6423" d="M219.24,1384.2c1.167-.2,3.055,1.91,3.667,2.91l1.2-.562s-1.458,1.406-1.844,1.9-1.535,1.281-.886,2.344,2.8.09,3.837-.885c0,0-1.622,2.965-1.24,5.136a12.864,12.864,0,0,0-3.6,1c-1.062.649-3.018-.3-3.424-.827,0,0-1.333-.215-1.386-.441s-1.34-2.186-1.34-2.186,1.291.842,1.628.55c0,0,.785.722,1.441-.451s-2.437-3.146-2.437-3.146a2.823,2.823,0,0,1,1.917.89,11.073,11.073,0,0,1,1.142,1.448s1.684-1.029,1.554-1.808a6.563,6.563,0,0,0-2.825-3.081,3.6,3.6,0,0,1,2.3,1.087c.875,1.011,2.838-.273,2.709-.625a3.693,3.693,0,0,0-1.209-1.838,4.977,4.977,0,0,1-1.2-1.41" transform="translate(-181.218 -1170.898)" fill="#f8a364"></path><path id="Path_6424" data-name="Path 6424" d="M261.605,1529.434l-16.5-43.06a1.53,1.53,0,0,1,.516-1.751,24.52,24.52,0,0,1,9.94-3.521,1.542,1.542,0,0,1,1.506,1.04l19.518,41.1c2.767,8.276-11.95,13.524-14.98,6.189" transform="translate(-207.258 -1252.878)" fill="#f9f9f9"></path></g></g></g></g></g></g></g></svg> 