<?xml version="1.0" encoding="UTF-8"?> <svg xmlns="http://www.w3.org/2000/svg" xmlns:xlink="http://www.w3.org/1999/xlink" width="2409.704" height="1355.555" viewBox="0 0 2409.704 1355.555"><style> .man { animation-name: man1; animation-fill-mode: both; animation-duration: 3s; transform-origin: left; transform-box: fill-box; animation-iteration-count: infinite; } @keyframes man1 { 0% { transform: translateX(0px); } 50% { transform: translateX(-50px); } 100% { transform: translateX(0px); } } .rota1 { animation-delay: 0.0s; animation-name: rota1; transform-origin: center; transform-box: fill-box; animation-fill-mode: both; animation-duration: 2.5s; animation-iteration-count: infinite; animation-timing-function: linear; } @keyframes rota1 { from { transform: rotate(0deg); } to { transform: rotate(360deg); } } .g { animation-delay: 0.4s; animation-name: tranfX; transform-origin: center; transform-box: fill-box; animation-fill-mode: both; animation-duration: .5s; transform: translateY(-90px); animation-iteration-count: infinite; } @keyframes tranfX { 0% { transform: translateY(40px) scaleX(1); } 50% { transform:translateY(40px) scaleX(-1); } 100% { transform:translateY(40px) scaleX(1); } } </style><defs><clipPath id="clip-path"><rect id="Rectangle_410" data-name="Rectangle 410" width="8.122" height="14.768" fill="none"></rect></clipPath><clipPath id="clip-path-2"><rect id="Rectangle_411" data-name="Rectangle 411" width="8.122" height="14.767" fill="none"></rect></clipPath><clipPath id="clip-path-3"><rect id="Rectangle_412" data-name="Rectangle 412" width="21.481" height="14.594" fill="none"></rect></clipPath><clipPath id="clip-path-4"><rect id="Rectangle_413" data-name="Rectangle 413" width="12.846" height="15.658" fill="none"></rect></clipPath><clipPath id="clip-path-5"><rect id="Rectangle_414" data-name="Rectangle 414" width="53.049" height="20.066" fill="none"></rect></clipPath><clipPath id="clip-path-8"><rect id="Rectangle_417" data-name="Rectangle 417" width="21.482" height="14.594" fill="none"></rect></clipPath><clipPath id="clip-path-11"><rect id="Rectangle_420" data-name="Rectangle 420" width="69.298" height="30.716" fill="none"></rect></clipPath><clipPath id="clip-path-12"><rect id="Rectangle_421" data-name="Rectangle 421" width="67.75" height="382.105" fill="none"></rect></clipPath><clipPath id="clip-path-14"><path id="Path_1233" data-name="Path 1233" d="M528.426,211.033c-194.706,19.158-252.293,204.719-161.44,571.8,7.441-22.567,16.906-53.323,32.1-72.042C381.46,575.9,373.674,459.781,417.747,408.828c37.869,14.265,197.42,14.265,235.289,0,44.073,50.954,36.141,168.193,18.512,303.082,13.633,18.45,23.907,48.352,31.348,70.919,90.853-367.077,34.167-552.638-160.539-571.8Z" transform="translate(-324.951 -211.033)" fill="none"></path></clipPath><clipPath id="clip-path-15"><rect id="Rectangle_443" data-name="Rectangle 443" width="805.454" height="786.997" fill="none"></rect></clipPath><clipPath id="clip-path-16"><rect id="Rectangle_467" data-name="Rectangle 467" width="786.995" height="805.451" fill="none"></rect></clipPath></defs><g id="offers1" transform="translate(-164.187 -326.544)"><g class="rota1"><path id="Path_7596" data-name="Path 7596" d="M1731.861,497.763l30.4,20.9c1.914.222,3.065-1.207,5.948-4.718,5.158-6.28,10.318-12.564,15.691-18.658a5.246,5.246,0,0,1,4.252-1.249c7.794,1.593,15.494,3.657,23.3,5.17,2.42.469,3.587,1.092,4.231,3.608,2.58,10.057,5.44,20.042,8.166,29.944,9.436.765,32.474-3.227,39.759-6.972-.872-9.854-1.611-19.936-2.744-29.973-.353-3.124.33-4.443,3.235-6.022a208.215,208.215,0,0,0,19.463-12.347c2.552-1.779,4.363-2.583,7.357-.782,7.76,4.666,15.8,8.861,23.643,13.4,2.107,1.219,3.662,1.242,5.07-.773q9.943-14.22,19.869-28.451c1.629-2.331-.371-3.41-1.687-4.545-6.663-5.739-13.3-11.517-20.149-17.027-2.572-2.069-3.052-3.893-2.132-7.111,2.438-8.519,4.32-17.2,6.583-26.473l31.952-8.927a118.521,118.521,0,0,0-7.343-39.464l-32.4,2.741c-5.91-8.778-11.2-17.029-16.959-24.945-1.665-2.292-1.623-3.656-.331-5.88,4.484-7.719,8.727-15.578,13.156-23.329.958-1.676,1.45-2.972-.219-4.522-8.435-7.833-17.416-14.85-27.876-19.87-2.332-1.119-3.575-.552-5.049,1.192-5.932,7.019-12,13.926-17.9,20.97-1.431,1.707-2.526,2.262-4.979,1.673-8.5-2.042-17.107-3.72-25.734-5.174-2.2-.371-2.808-1.3-3.31-3.1-2.8-10-5.664-19.987-8.58-30.233-13.4.432-26.322,2.321-39.1,6.861.97,11.469,1.934,22.863,2.857,33.768l-28,17.885c-6.949-3.866-14.923-8.38-22.97-12.757-6.6-3.592-5.356-4.3-10.585,1.812a12.475,12.475,0,0,1-1.822,1.473l-11.779,17.133a24.594,24.594,0,0,1-1.962,4.242c-2.305,3.252-2.135,5.552,1.278,8.235,7.113,5.59,13.879,11.629,20.642,17.647a4.809,4.809,0,0,1,1.261,3.815c-1.433,7.7-3.538,15.288-4.563,23.028-.5,3.787-1.963,4.98-5.32,5.853-9.522,2.475-18.943,5.341-29.353,8.326,2.321,13.244,4.586,26.163,6.876,39.227,2.51-.165,3.956-.236,5.4-.358,8.892-.755,17.793-1.427,26.669-2.34,2.521-.259,3.605.631,4.919,2.721,4.514,7.179,9.49,14.069,14.053,21.218a5.3,5.3,0,0,1,.132,4.488c-3.394,6.486-7.145,12.784-10.667,19.2C1731.654,493.491,1730.614,495.43,1731.861,497.763Zm55.167-49.3a59.708,59.708,0,0,1-15.376-83.028h0a59.708,59.708,0,0,1,83.028-15.377h0a59.709,59.709,0,0,1,15.377,83.028h0a59.708,59.708,0,0,1-83.028,15.377Z" transform="translate(-500.544 396.264)" fill="#ebebeb"></path></g><g class="rota1"><path id="Path_7597" data-name="Path 7597" d="M2174.721,676.078l14.648,64.3c2.248,2.61,5.49,2.127,13.533,1,14.387-2.009,28.781-4.018,43.224-5.521,2.273-.236,5.7,1.568,7.1,3.508,8.316,11.534,15.937,23.573,24.367,35.019,2.612,3.547,3.391,5.779,1.192,9.868-8.791,16.344-17.125,32.934-25.534,49.252,11.477,12.434,46.6,35.092,60.707,38.992,10.789-14.01,22.029-28.156,32.7-42.723,3.32-4.533,5.816-5.441,11.546-4a372.088,372.088,0,0,0,40.54,7.344c5.51.752,8.863,1.889,10.618,7.881,4.548,15.534,10.038,30.788,14.85,46.249,1.293,4.155,3.309,6.068,7.6,5.125q30.292-6.649,60.576-13.333c4.964-1.092,3.644-4.933,3.286-8.019-1.808-15.614-3.532-31.246-5.861-46.785-.875-5.835.7-8.814,5.811-11.93,13.521-8.246,26.5-17.374,40.716-26.825l52.815,26.964c16.2-17.933,28.554-38.026,38.144-60.77l-45.913-35.641c2.863-18.7,5.9-35.955,7.922-53.331.586-5.029,2.294-6.771,6.685-8.13,15.243-4.717,30.339-9.909,45.55-14.731,3.289-1.042,5.506-2.151,5.189-6.21-1.6-20.513-4.907-40.614-12.575-59.883-1.709-4.3-4.031-5.056-8.08-4.549-16.3,2.042-32.643,3.772-48.934,5.881-3.948.511-6.06-.087-8.57-3.831-8.706-12.985-17.982-25.61-27.561-37.971-2.447-3.157-2.114-5.114-.6-8.082,8.441-16.535,16.763-33.132,25.339-50.133-18.142-15.666-37.409-28.83-59.7-38.337l-37.144,47.848-58.473-10.408c-4.452-13.5-9.468-29.088-14.744-44.589-4.331-12.722-1.828-12.146-16.109-10.44a22.38,22.38,0,0,1-4.179-.271l-36.234,8.255c-2.566,1.1-5.039,2.632-7.717,3.2-6.969,1.482-9.531,4.712-8.294,12.372,2.578,15.964,4.157,32.1,5.761,48.2a8.6,8.6,0,0,1-2.963,6.543c-11.2,8.38-23.166,15.812-33.888,24.743-5.247,4.37-8.612,4.169-14.082,1.25-15.514-8.28-31.369-15.921-48.67-24.607-12.988,20.22-25.659,39.945-38.473,59.891,3.5,2.824,5.486,4.481,7.53,6.068,12.6,9.779,25.118,19.675,37.891,29.226,3.627,2.712,3.975,5.2,3.171,9.535-2.762,14.905-4.566,29.986-7.228,44.912a9.476,9.476,0,0,1-5.261,6.059c-12.317,4.416-24.875,8.151-37.282,12.322C2179.624,670.213,2175.908,671.5,2174.721,676.078Zm132.232,2.009A106.723,106.723,0,0,1,2387.3,550.324h0a106.722,106.722,0,0,1,127.764,80.349h0a106.722,106.722,0,0,1-80.35,127.764h0a106.725,106.725,0,0,1-127.765-80.35Z" transform="translate(-685.574 338.805)" fill="#FFD100"></path></g><g class="rota1"><path id="Path_7598" data-name="Path 7598" d="M2179.029,327.8l18.525,12.736c1.167.135,1.868-.735,3.625-2.874,3.143-3.827,6.287-7.656,9.561-11.369a3.2,3.2,0,0,1,2.591-.762c4.75.971,9.441,2.229,14.2,3.151,1.474.285,2.186.666,2.578,2.2,1.572,6.128,3.314,12.213,4.976,18.247,5.75.466,19.789-1.966,24.227-4.248-.531-6-.982-12.148-1.672-18.264-.215-1.9.2-2.708,1.971-3.67a126.866,126.866,0,0,0,11.861-7.524c1.555-1.084,2.658-1.574,4.482-.477,4.729,2.843,9.629,5.4,14.407,8.164,1.285.743,2.231.757,3.091-.471q6.058-8.665,12.106-17.336c.993-1.421-.226-2.079-1.028-2.77-4.06-3.5-8.1-7.018-12.278-10.375-1.566-1.262-1.86-2.372-1.3-4.334,1.485-5.191,2.632-10.479,4.011-16.131l19.47-5.44a72.255,72.255,0,0,0-4.474-24.047l-19.745,1.67c-3.6-5.349-6.827-10.377-10.334-15.2a2.725,2.725,0,0,1-.2-3.583c2.732-4.7,5.318-9.492,8.017-14.215.584-1.021.884-1.812-.134-2.756a69.1,69.1,0,0,0-16.986-12.108,2.172,2.172,0,0,0-3.076.727c-3.615,4.278-7.313,8.486-10.91,12.779a2.522,2.522,0,0,1-3.033,1.019c-5.182-1.244-10.424-2.267-15.681-3.152a2.145,2.145,0,0,1-2.017-1.888c-1.7-6.1-3.451-12.179-5.228-18.423a77.511,77.511,0,0,0-23.825,4.18c.591,6.988,1.178,13.932,1.741,20.577l-17.064,10.9c-4.235-2.356-9.094-5.106-14-7.773-4.024-2.189-3.264-2.623-6.45,1.1a7.585,7.585,0,0,1-1.11.9q-3.589,5.22-7.177,10.44a15.008,15.008,0,0,1-1.2,2.585c-1.4,1.981-1.3,3.383.779,5.018,4.334,3.407,8.457,7.087,12.579,10.753a2.934,2.934,0,0,1,.769,2.325c-.874,4.689-2.156,9.315-2.781,14.032-.305,2.308-1.2,3.034-3.241,3.566-5.8,1.508-11.543,3.255-17.887,5.074,1.415,8.07,2.794,15.942,4.189,23.9,1.529-.1,2.41-.144,3.289-.218,5.419-.459,10.843-.869,16.251-1.425,1.536-.158,2.2.385,3,1.657,2.75,4.375,5.782,8.573,8.563,12.93a3.238,3.238,0,0,1,.081,2.735c-2.068,3.952-4.354,7.79-6.5,11.7C2178.9,325.194,2178.269,326.376,2179.029,327.8Zm33.616-30.043a36.384,36.384,0,0,1-9.37-50.593h0a36.383,36.383,0,0,1,50.594-9.37h0a36.383,36.383,0,0,1,9.37,50.593h0a36.383,36.383,0,0,1-50.594,9.37Z" transform="translate(-676.864 406.526)" fill="#ebebeb"></path></g><g id="Group_4814" data-name="Group 4814" transform="translate(354.141 646.33)"><g id="Group_4811" data-name="Group 4811" transform="translate(60.479 0)"><g id="Group_4810" data-name="Group 4810" transform="translate(0 0)"><path id="Path_7599" data-name="Path 7599" d="M712.011,670.418S530.383,580.864,499.149,534.155s14.68-49.354,14.68-49.354-81.052-78.829-69.648-112.014,53.391-2.75,53.391-2.75-52.117-116.014-27.543-127.676c45.771-21.723,109.98,103.1,109.98,103.1s-13.8-54.225,17.719-52.463C645.26,295.657,643.3,418.318,643.3,418.318s5.369-47.032,34.017-31.754C728.716,413.974,712.011,670.418,712.011,670.418Z" transform="translate(-443.081 -239.823)" fill="#FFD100"></path></g><path id="Path_7600" data-name="Path 7600" d="M704.135,367.591c-22.372-12.414-44.653,23.87-44.653,23.87s2.257-95.8-45.276-98.462c-31.518-1.762-17.719,52.463-17.719,52.463s-64.209-124.823-109.98-103.1L728.7,668.425C730.41,638.672,748.453,392.183,704.135,367.591Z" transform="translate(-459.56 -239.823)" fill="#FFD100"></path><path id="Path_4109" data-name="Path 4109" d="M80.4,35.78c1.1-1.011,41.428,41.205,90.056,94.286,48.643,53.1,87.167,96.947,86.064,97.959s-41.421-41.2-90.063-94.294C117.833,80.65,79.3,36.792,80.4,35.78" transform="matrix(0.985, 0.174, -0.174, 0.985, 29.867, 76.589)" fill="#ffe8e1"></path></g><g id="Group_4813" data-name="Group 4813" transform="translate(0 226.649)"><g id="Group_4812" data-name="Group 4812" transform="translate(0 13.968)"><path id="Path_7601" data-name="Path 7601" d="M670.332,818.675s-148.547,18.45-187.009,2.008-10.9-36.749-10.9-36.749-82.587-16.234-88.959-41.566,31.726-23.313,31.726-23.313-79.19-51.281-68.6-68.54c19.722-32.148,110.492,19.617,110.492,19.617s-30.64-28.215-10.265-39.923c30.728-17.656,79.345,59.649,79.345,59.649s-3.021-19.054,21.057-21.166C590.42,664.9,670.332,818.675,670.332,818.675Z" transform="translate(-345.617 -627.586)" fill="#f9ddcf"></path></g><path id="Path_7602" data-name="Path 7602" d="M548.792,646.3c-24.077,2.112-22.032,35.012-22.032,35.012s-49.5-91.637-80.225-73.98c-20.375,11.708,3.731,50.161,3.731,50.161s-83.356-47.673-103.079-15.525L671.379,809.309C660.356,790.056,589.143,642.763,548.792,646.3Z" transform="translate(-346.213 -605.076)" fill="#ffdac8"></path></g><path id="Path_7643" data-name="Path 7643" d="M80.4,35.78c1.1-1.011,41.428,41.205,90.056,94.286,48.643,53.1,87.167,96.947,86.064,97.959s-41.421-41.2-90.063-94.294C117.833,80.65,79.3,36.792,80.4,35.78" transform="translate(-5.913 302.972) rotate(-21)" fill="#fffaf8"></path></g><g id="Group_4815" data-name="Group 4815" transform="translate(892.734 728.872)"><path id="Path_7603" data-name="Path 7603" d="M1697.679,573.986h-484.1v-102.2a99.052,99.052,0,0,1,98.94-98.94h286.221a99.052,99.052,0,0,1,98.94,98.94Zm-441.1-43h398.109V471.782a56.007,56.007,0,0,0-55.944-55.944H1312.519a56.007,56.007,0,0,0-55.944,55.944Z" transform="translate(-1213.579 -372.842)" fill="#6A2186"></path></g><path id="Rectangle_2022" data-name="Rectangle 2022" d="M22.749,0h58.9A22.75,22.75,0,0,1,104.4,22.75V31.86A22.749,22.749,0,0,1,81.652,54.609h-58.9A22.749,22.749,0,0,1,0,31.86V22.749A22.749,22.749,0,0,1,22.749,0Z" transform="translate(862.031 855.183)" fill="#a83e30"></path><rect id="Rectangle_2023" data-name="Rectangle 2023" width="104.402" height="54.609" rx="22.749" transform="translate(1303.135 855.183)" fill="#a83e30"></rect><path id="Path_7642" data-name="Path 7642" d="M0,0H1134.815V748.529a43.8,43.8,0,0,1-43.8,43.8H43.8A43.8,43.8,0,0,1,0,748.529Z" transform="translate(551.92 887.021)" fill="#6A2186"></path><path id="Path_7604" data-name="Path 7604" d="M1778.768,1022.667,1454.783,1059.8a2109.259,2109.259,0,0,1-480.339,0L650.46,1022.667a35.3,35.3,0,0,1-31.28-35.07V653.645a35.3,35.3,0,0,1,35.3-35.3H1774.749a35.3,35.3,0,0,1,35.3,35.3V987.6A35.3,35.3,0,0,1,1778.768,1022.667Z" transform="translate(-95.286 262.868)" fill="#50bfa5"></path><path id="Path_7605" data-name="Path 7605" d="M1799.161,1068.2V665.155a35.417,35.417,0,0,0-7.273-.754H671.618a35.4,35.4,0,0,0-7.272.754V1068.2q1.6.335,3.253.526l323.985,37.133a2109.266,2109.266,0,0,0,480.34,0l323.985-37.133Q1797.561,1068.534,1799.161,1068.2Z" transform="translate(-112.425 245.392)" fill="#b75742" opacity="0.3" style="mix-blend-mode: multiply;isolation: isolate"></path><path id="Path_7606" data-name="Path 7606" d="M1778.768,1022.667,1454.783,1059.8a2109.259,2109.259,0,0,1-480.339,0L650.46,1022.667a35.3,35.3,0,0,1-31.28-35.07V653.645a35.3,35.3,0,0,1,35.3-35.3H1774.749a35.3,35.3,0,0,1,35.3,35.3V987.6A35.3,35.3,0,0,1,1778.768,1022.667Z" transform="translate(-95.286 262.868)" fill="#c642f8"></path><g id="Group_4816" data-name="Group 4816" transform="translate(1028.834 1287.771)"><rect id="Rectangle_2025" data-name="Rectangle 2025" width="180.987" height="97.231" rx="24" transform="translate(0 0)" fill="#f7cc7f"></rect><rect id="Rectangle_2026" data-name="Rectangle 2026" width="143.725" height="66.656" rx="20" transform="translate(18.631 15.287)" fill="#eab054"></rect></g><path id="Path_7607" data-name="Path 7607" d="M1774.749,618.346H654.478a35.3,35.3,0,0,0-35.3,35.3v59.2a35.3,35.3,0,0,1,35.3-35.3H1774.749a35.3,35.3,0,0,1,35.3,35.3v-59.2A35.3,35.3,0,0,0,1774.749,618.346Z" transform="translate(-95.286 262.868)" fill="#b75742" opacity="0.3" style="mix-blend-mode: multiply;isolation: isolate"></path><g id="Group_4818" data-name="Group 4818" transform="translate(266.166 1613.538)"><path id="Path_7608" data-name="Path 7608" d="M203.842,1819.015v41.94c0,6.779,75.638,12.277,168.943,12.277s168.943-5.5,168.943-12.277v-41.94Z" transform="translate(-203.842 -1806.293)" fill="#e59f39"></path><g id="Group_4817" data-name="Group 4817" transform="translate(0 12.722)"><path id="Path_7609" data-name="Path 7609" d="M326.1,1872.756v-53.741H203.842v41.94C203.842,1866.559,255.5,1871.284,326.1,1872.756Z" transform="translate(-203.842 -1819.015)" fill="#eab054"></path><path id="Path_7610" data-name="Path 7610" d="M410.04,1872.867c13.124.238,26.854.364,40.991.364,21.064,0,41.229-.281,59.826-.792v-53.424H410.04Z" transform="translate(-282.089 -1819.015)" fill="#eab054"></path><path id="Path_7611" data-name="Path 7611" d="M583.419,1872.241c60.192-1.878,102.348-6.224,102.348-11.286v-41.94H583.419Z" transform="translate(-347.882 -1819.015)" fill="#eab054"></path></g><ellipse id="Ellipse_20" data-name="Ellipse 20" cx="168.943" cy="12.277" rx="168.943" ry="12.277" transform="translate(0 0)" fill="#e59f39"></ellipse><ellipse id="Ellipse_21" data-name="Ellipse 21" cx="139.121" cy="8.512" rx="139.121" ry="8.512" transform="translate(29.822 3.765)" fill="#f7cc7f"></ellipse></g><g id="Group_4820" data-name="Group 4820" transform="translate(237.261 1567.296)"><path id="Path_7612" data-name="Path 7612" d="M157.261,1744.494v41.94c0,6.78,75.638,12.276,168.942,12.276s168.943-5.5,168.943-12.276v-41.94Z" transform="translate(-157.261 -1731.772)" fill="#e59f39"></path><g id="Group_4819" data-name="Group 4819" transform="translate(0 12.722)"><path id="Path_7613" data-name="Path 7613" d="M279.522,1798.236v-53.742H157.261v41.94C157.261,1792.037,208.922,1796.764,279.522,1798.236Z" transform="translate(-157.261 -1744.494)" fill="#eab054"></path><path id="Path_7614" data-name="Path 7614" d="M363.459,1798.346c13.124.238,26.854.364,40.991.364,21.065,0,41.229-.28,59.826-.791v-53.425H363.459Z" transform="translate(-235.508 -1744.494)" fill="#eab054"></path><path id="Path_7615" data-name="Path 7615" d="M536.838,1797.72c60.192-1.878,102.348-6.225,102.348-11.286v-41.94H536.838Z" transform="translate(-301.301 -1744.494)" fill="#eab054"></path></g><ellipse id="Ellipse_22" data-name="Ellipse 22" cx="168.943" cy="12.277" rx="168.943" ry="12.277" transform="translate(0 0)" fill="#e59f39"></ellipse><ellipse id="Ellipse_23" data-name="Ellipse 23" cx="139.121" cy="8.512" rx="139.121" ry="8.512" transform="translate(29.822 3.765)" fill="#f7cc7f"></ellipse></g><g id="Group_4822" data-name="Group 4822" transform="translate(256.519 1521.737)"><path id="Path_7616" data-name="Path 7616" d="M188.3,1671.072v41.94c0,6.78,75.638,12.276,168.943,12.276s168.943-5.5,168.943-12.276v-41.94Z" transform="translate(-188.296 -1658.35)" fill="#e59f39"></path><g id="Group_4821" data-name="Group 4821" transform="translate(0 12.722)"><path id="Path_7617" data-name="Path 7617" d="M310.557,1724.814v-53.742H188.3v41.94C188.3,1718.615,239.957,1723.342,310.557,1724.814Z" transform="translate(-188.296 -1671.072)" fill="#eab054"></path><path id="Path_7618" data-name="Path 7618" d="M394.494,1724.924c13.124.238,26.854.364,40.991.364,21.065,0,41.229-.28,59.826-.792v-53.424H394.494Z" transform="translate(-266.543 -1671.072)" fill="#eab054"></path><path id="Path_7619" data-name="Path 7619" d="M567.873,1724.3c60.192-1.878,102.348-6.225,102.348-11.286v-41.94H567.873Z" transform="translate(-332.336 -1671.072)" fill="#eab054"></path></g><ellipse id="Ellipse_24" data-name="Ellipse 24" cx="168.942" cy="12.277" rx="168.942" ry="12.277" transform="translate(0 0)" fill="#e59f39"></ellipse><ellipse id="Ellipse_25" data-name="Ellipse 25" cx="139.121" cy="8.512" rx="139.121" ry="8.512" transform="translate(29.822 3.765)" fill="#f7cc7f"></ellipse></g><g id="Group_4824" data-name="Group 4824" transform="translate(327.753 1476.801)"><path id="Path_7620" data-name="Path 7620" d="M303.092,1598.656v41.94c0,6.781,75.638,12.276,168.943,12.276s168.943-5.5,168.943-12.276v-41.94Z" transform="translate(-303.092 -1585.935)" fill="#e59f39"></path><g id="Group_4823" data-name="Group 4823" transform="translate(0 12.721)"><path id="Path_7621" data-name="Path 7621" d="M425.353,1652.4v-53.743H303.092v41.94C303.092,1646.2,354.754,1650.927,425.353,1652.4Z" transform="translate(-303.092 -1598.656)" fill="#eab054"></path><path id="Path_7622" data-name="Path 7622" d="M509.29,1652.509c13.124.237,26.855.364,40.992.364,21.064,0,41.228-.28,59.826-.792v-53.425H509.29Z" transform="translate(-381.339 -1598.656)" fill="#eab054"></path><path id="Path_7623" data-name="Path 7623" d="M682.67,1651.882c60.191-1.878,102.348-6.224,102.348-11.286v-41.94H682.67Z" transform="translate(-447.132 -1598.656)" fill="#eab054"></path></g><path id="Path_7624" data-name="Path 7624" d="M640.978,1590.432c0,6.78-75.638,12.276-168.943,12.276s-168.943-5.5-168.943-12.276,75.638-12.276,168.943-12.276S640.978,1583.651,640.978,1590.432Z" transform="translate(-303.092 -1578.156)" fill="#e59f39"></path><path id="Path_7625" data-name="Path 7625" d="M629.393,1592.734c0,4.7-62.287,8.512-139.121,8.512s-139.12-3.811-139.12-8.512,62.286-8.512,139.12-8.512S629.393,1588.033,629.393,1592.734Z" transform="translate(-321.33 -1580.458)" fill="#f7cc7f"></path></g><g id="Group_4826" data-name="Group 4826" transform="translate(523.987 1570.095)"><rect id="Rectangle_2027" data-name="Rectangle 2027" width="295.964" height="107.718" transform="translate(41.105 0)" fill="#50bfa5"></rect><g id="Group_4825" data-name="Group 4825" transform="translate(41.105 0)"><rect id="Rectangle_2028" data-name="Rectangle 2028" width="295.964" height="13.857" transform="translate(0 15.698)" fill="#96d9c9"></rect><rect id="Rectangle_2029" data-name="Rectangle 2029" width="295.964" height="13.858" transform="translate(0 42.766)" fill="#96d9c9"></rect><rect id="Rectangle_2030" data-name="Rectangle 2030" width="295.964" height="13.857" transform="translate(0 69.835)" fill="#96d9c9"></rect><rect id="Rectangle_2031" data-name="Rectangle 2031" width="295.964" height="13.857" transform="translate(0 93.861)" fill="#96d9c9"></rect><rect id="Rectangle_2032" data-name="Rectangle 2032" width="61.554" height="107.718" transform="translate(124.235)" fill="#f7cc7f"></rect></g><rect id="Rectangle_2033" data-name="Rectangle 2033" width="44.696" height="107.718" transform="translate(0 0)" fill="#3c8f7c"></rect></g><g class="g"><g id="Group_4828" data-name="Group 4828" transform="translate(269.385 1086.598)"><ellipse id="Ellipse_26" data-name="Ellipse 26" cx="142.152" cy="143.309" rx="142.152" ry="143.309" transform="matrix(0.828, -0.56, 0.56, 0.828, 0, 159.351)" fill="#e59f39"></ellipse><ellipse id="Ellipse_27" data-name="Ellipse 27" cx="122.872" cy="123.871" rx="122.872" ry="123.871" transform="translate(26.864 164.629) rotate(-34.086)" fill="#f7cc7f"></ellipse><g id="Group_4827" data-name="Group 4827" transform="translate(125.918 105.11)"><path id="Path_7626" data-name="Path 7626" d="M526.12,1296.459,513.153,1277.4a111.949,111.949,0,0,1-26.93,12.06,14.028,14.028,0,0,1-17.092-8.716l-.3-.839a14,14,0,0,1,9.4-18.266,81.7,81.7,0,0,0,24.308-11.055c11.434-7.779,16.255-17.516,10.8-25.54-5.186-7.622-14.882-8.069-33.138-2.983-26.375,7.382-47.843,7.315-61.081-12.142-12.01-17.651-8.991-39.954,9.606-58.77l-12.966-19.056,19.658-13.375,12.01,17.651a103.443,103.443,0,0,1,20.1-9.812,14.005,14.005,0,0,1,17.769,8.5h0a14.016,14.016,0,0,1-8.878,18.106,74.537,74.537,0,0,0-19.322,9.49c-13.039,8.872-13.429,17.354-9.607,22.97,4.5,6.62,14.389,6.056,35.807.873,29.6-7.816,46.737-3.334,59.019,14.718,12.147,17.853,9.882,41.7-10.456,61.4l13.922,20.461Z" transform="translate(-411.951 -1118.719)" fill="#e59f39"></path></g><path id="Path_7627" data-name="Path 7627" d="M387.372,1088.646a122.163,122.163,0,0,0-56.145,88.413,121.834,121.834,0,0,1,53.12-72.716c57.419-36.17,133.55-18.581,170.042,39.285a123.909,123.909,0,0,1,18.256,81.851,123.921,123.921,0,0,0-15.231-97.549C520.921,1070.065,444.791,1052.476,387.372,1088.646Z" transform="translate(-255.401 -995.062)" fill="#f7cc7f" opacity="0.3" style="mix-blend-mode: multiply;isolation: isolate"></path></g></g><g id="Group_4830" data-name="Group 4830" transform="translate(445.234 796.388)"><ellipse id="Ellipse_28" data-name="Ellipse 28" cx="134.669" cy="133.582" rx="134.669" ry="133.582" transform="translate(0 252.925) rotate(-69.895)" fill="#e59f39"></ellipse><ellipse id="Ellipse_29" data-name="Ellipse 29" cx="116.404" cy="115.465" rx="116.404" ry="115.465" transform="translate(23.292 242.002) rotate(-69.895)" fill="#f7cc7f"></ellipse><g id="Group_4829" data-name="Group 4829" transform="translate(108.796 76.399)"><path id="Path_7628" data-name="Path 7628" d="M689.4,779.236l7.4-20.358a105.2,105.2,0,0,1-24-13.9,13.183,13.183,0,0,1-2.754-17.818l.473-.692a13.156,13.156,0,0,1,19.09-2.877A76.787,76.787,0,0,0,711.4,736.045c12.214,4.437,22.285,2.759,25.4-5.812,2.958-8.143-2.032-15.778-15.943-26.9-20.126-16.043-31.877-32.441-24.326-53.227,6.851-18.858,25.508-28.817,50.072-24.987l7.4-20.357,21,7.629-6.851,18.857a97.31,97.31,0,0,1,18.528,9.925,13.161,13.161,0,0,1,3.287,18.217h0a13.171,13.171,0,0,1-18.68,3.188,70.032,70.032,0,0,0-17.856-9.509c-13.929-5.06-20.608-.694-22.787,5.306-2.569,7.071,3.3,14.3,19.02,27.77,22.23,18.264,28.234,33.787,21.228,53.072-6.929,19.073-26.346,30.454-52.545,25.787L710.4,786.865Z" transform="translate(-667.746 -604.765)" fill="#e59f39"></path></g><path id="Path_7629" data-name="Path 7629" d="M779.237,580.35a114.8,114.8,0,0,0-98.248,5.814,114.492,114.492,0,0,1,84.622.51c59.131,23.877,87.579,91.568,63.539,151.192A116.443,116.443,0,0,1,776.8,796.777a116.453,116.453,0,0,0,65.972-65.235C866.816,671.918,838.369,604.227,779.237,580.35Z" transform="translate(-563.976 -515.927)" fill="#f7cc7f" opacity="0.3" style="mix-blend-mode: multiply;isolation: isolate"></path></g><path id="Path_7630" data-name="Path 7630" d="M1862.851,912.169c-1.617-9.677,26.16-3.361,26.16-3.361l.448,2.835a15.644,15.644,0,0,1-3.011,4.764c-6.2,6.4-15.9,10.25-24.288,10.542C1863,921.73,1863.515,916.138,1862.851,912.169Z" transform="translate(-566.965 153.414)" fill="#f47458"></path><g id="Group_4835" data-name="Group 4835" transform="translate(711.759 674.177)"><g id="Group_4831" data-name="Group 4831" transform="translate(88.435 0)"><path id="Path_7631" data-name="Path 7631" d="M1104.99,321.226l3.06,29.166,16.542-19.5,53.88-46.2-46.478,15.8s-22.794,11.716-23.819,13.217S1104.99,321.226,1104.99,321.226Z" transform="translate(-1079.833 -284.699)" fill="#50bfa5"></path><path id="Path_7632" data-name="Path 7632" d="M1064.448,309.231l98.64-24.532-73.482,36.527Z" transform="translate(-1064.448 -284.699)" fill="#96d9c9"></path><path id="Path_7633" data-name="Path 7633" d="M1148.323,342l-30.9-14.558,65.769-42.747Z" transform="translate(-1084.55 -284.699)" fill="#96d9c9"></path></g><g id="Group_4834" data-name="Group 4834" transform="translate(0 52.111)"><g id="Group_4832" data-name="Group 4832" transform="translate(0 12.933)"><path id="Path_7634" data-name="Path 7634" d="M922.281,495.775a64.61,64.61,0,0,1-.347-7.062c.011-2.177.133-4.4.362-6.594l2.381.248c-.221,2.122-.339,4.261-.35,6.36a62.16,62.16,0,0,0,.335,6.8q.1.985.237,1.966l-2.372.323C922.433,497.126,922.35,496.439,922.281,495.775Zm3.3-28.976a90.945,90.945,0,0,1,6.118-14.39l2.117,1.117a88.574,88.574,0,0,0-5.957,14.01Zm72.672-22.424q-.234-.079-.465-.164l.825-2.246c.135.05.271.1.384.136a1.369,1.369,0,0,0,.251.017c1.338.007,4.67-.8,6.27-2.362a10.144,10.144,0,0,0,2.736-5.175l2.336.519a12.662,12.662,0,0,1-3.4,6.368c-2.219,2.169-6.276,3.052-7.955,3.043A3.121,3.121,0,0,1,998.254,444.375Zm-58.271-5.2a124.652,124.652,0,0,1,9.965-12l1.744,1.64a122.186,122.186,0,0,0-9.773,11.766Zm44.6-10.716a29.108,29.108,0,0,1-.8-7.037,34.453,34.453,0,0,1,.264-4.027l2.375.293a32.084,32.084,0,0,0-.246,3.746,26.737,26.737,0,0,0,.732,6.457,22.133,22.133,0,0,0,1.506,4.236l-2.163,1.026A24.512,24.512,0,0,1,984.587,428.46Zm8.322-14.545-.33-.069.482-2.345.357.076a24.08,24.08,0,0,1,13.425,7.979l-1.858,1.509A21.649,21.649,0,0,0,992.909,413.916Zm-30.258,3.955c2.393-1.411,6.773-3.886,9.219-4.6,1.9-.555,3.655-1,5.367-1.356l.49,2.342c-1.651.346-3.347.774-5.186,1.311a49.49,49.49,0,0,0-8.674,4.364Zm26.189-15.52a53.538,53.538,0,0,1,9.128-12.832l1.726,1.658a51.152,51.152,0,0,0-8.721,12.258Z" transform="translate(-921.932 -389.519)" fill="#9bc1f9"></path></g><g id="Group_4833" data-name="Group 4833" transform="translate(88.515)"><path id="Path_7635" data-name="Path 7635" d="M1065.735,374.092a46.174,46.174,0,0,1,7.014-3.156l-.793-2.259a48.573,48.573,0,0,0-7.378,3.319Z" transform="translate(-1064.578 -368.677)" fill="#9bc1f9"></path></g></g></g><path id="Path_7636" data-name="Path 7636" d="M848.663,309.45,854.63,298.5l-5.615-11.139a1.714,1.714,0,0,1,1.842-2.459l12.231,2.306,8.829-8.8a1.709,1.709,0,0,1,2.9,1l1.593,12.379,11.071,5.7a1.717,1.717,0,0,1-.05,3.076l-11.246,5.344L874.2,318.226a1.709,1.709,0,0,1-2.932.9l-8.543-9.076-12.3,1.913A1.714,1.714,0,0,1,848.663,309.45Z" transform="translate(-182.288 392.056)" fill="#f7cc7f"></path><path id="Path_7637" data-name="Path 7637" d="M1543.948,292.692l5.093-8.272-4.089-1.658a1.748,1.748,0,0,1-.964-2.277h0a1.749,1.749,0,0,1,2.277-.964l4.717,1.912,4.553-7.428-4.368-1.772a1.748,1.748,0,0,1-.963-2.277h0a1.748,1.748,0,0,1,2.277-.963l5,2.025,5.288-8.506a1.748,1.748,0,0,1,2.142-.7l.763.309a1.749,1.749,0,0,1,.834,2.534l-4.918,8.027,7.242,2.937,5.287-8.507a1.749,1.749,0,0,1,2.142-.7l.833.338a1.749,1.749,0,0,1,.833,2.534L1573,277.316l4.09,1.658a1.749,1.749,0,0,1,.963,2.278h0a1.748,1.748,0,0,1-2.277.963l-4.716-1.912-4.483,7.456,4.368,1.772a1.748,1.748,0,0,1,.964,2.277h0a1.748,1.748,0,0,1-2.277.963l-5-2.025-5.4,8.772a1.747,1.747,0,0,1-2.146.7l-.892-.362a1.749,1.749,0,0,1-.832-2.537l5.093-8.271-7.242-2.937-5.4,8.772a1.748,1.748,0,0,1-2.146.7l-.892-.361A1.749,1.749,0,0,1,1543.948,292.692Zm18.454-6.627,4.552-7.428-7.241-2.936-4.553,7.428Z" transform="translate(-446.113 398.21)" fill="#07345a"></path><g id="Group_4837" data-name="Group 4837" transform="translate(1716.057 681.068)"><g id="Group_4836" data-name="Group 4836" transform="translate(0 -0.001)"><path id="Path_7638" data-name="Path 7638" d="M2549.777,305.307l6.969,2.992s11.635-2.6,12.936-4.782,2.059-7.709,3.685-7.713a4.97,4.97,0,0,1,5.144,4.671c.319,2.808-4.4,10.406-3.83,11.313.356.568,4.313,2.4,7.225,3.693a5.638,5.638,0,0,1,3.335,4.79v.006a3,3,0,0,1-2.179,3.089l-2.122.6.489,2.164a3,3,0,0,1-2.241,3.59l-1.635.382.407,1.329a3,3,0,0,1-2.3,3.833l-1.423.272.028.374a3,3,0,0,1-2.5,3.19l-1.41.231-18.559-7.973a13.884,13.884,0,0,1-4.608-3.219l-6.065-3.886a1.57,1.57,0,0,1-.586-1.959l7.2-16.182A1.561,1.561,0,0,1,2549.777,305.307Z" transform="translate(-2540.395 -295.804)" fill="#355389"></path></g></g><path id="Path_7639" data-name="Path 7639" d="M2032.757,184.208l30.1,3.632-12.845-23.37Z" transform="translate(-599.672 340.197)" fill="#f7cc7f"></path><g id="Group_4838" data-name="Group 4838" transform="translate(998.821 550.342)"><path id="Path_7640" data-name="Path 7640" d="M1245.29,158.374c-.885,9.563,7.337,18.306,16.457,19.9,9.447,1.652,17.865-4.5,21.115-13.207,6.411-17.169-12.375-30.711-22.562-20.323-9.511,9.7-6.5,24.107,3.763,24.112,3.874,0,10.107-3.246,7.635-7.942a1.568,1.568,0,0,0-2.688,0c-1.245,2.122-1.146,2.2-1.735,2.672a5.277,5.277,0,0,1-3.364.971c-10.453-.179-3.5-24.1,8.821-18.3,6.766,3.182,8.762,10.877,6.414,17.593-2.261,6.467-8.326,11.478-15.342,11.028-8.38-.538-15.41-8.243-15.953-16.5a1.281,1.281,0,0,0-2.561,0Z" transform="translate(-1245.224 -141.121)" fill="#f47458"></path></g><g id="Group_4840" data-name="Group 4840" transform="translate(1560.138 1270.69)"><rect id="Rectangle_2034" data-name="Rectangle 2034" width="52.837" height="408.972" transform="translate(246.717 0)" fill="#bcc2c5"></rect><rect id="Rectangle_2035" data-name="Rectangle 2035" width="52.837" height="284.226" transform="translate(172.928 122.439)" fill="#bcc2c5"></rect><rect id="Rectangle_2036" data-name="Rectangle 2036" width="52.837" height="320.364" transform="translate(321.568 88.608)" fill="#bcc2c5"></rect><rect id="Rectangle_2037" data-name="Rectangle 2037" width="52.837" height="332.963" transform="translate(99.139 73.702)" fill="#bcc2c5"></rect><rect id="Rectangle_2038" data-name="Rectangle 2038" width="52.837" height="234.241" transform="translate(25.349 172.424)" fill="#bcc2c5"></rect><g id="Group_4839" data-name="Group 4839" transform="translate(25.349 91.95)"><rect id="Rectangle_2039" data-name="Rectangle 2039" width="52.837" height="317.022" transform="translate(221.368)" fill="#FFD100"></rect><rect id="Rectangle_2040" data-name="Rectangle 2040" width="52.837" height="218.72" transform="translate(147.579 95.996)" fill="#FFD100"></rect><rect id="Rectangle_2041" data-name="Rectangle 2041" width="52.837" height="248.836" transform="translate(296.219 68.186)" fill="#FFD100"></rect><rect id="Rectangle_2042" data-name="Rectangle 2042" width="52.837" height="256.225" transform="translate(73.789 58.491)" fill="#FFD100"></rect><rect id="Rectangle_2043" data-name="Rectangle 2043" width="52.837" height="180.255" transform="translate(0 134.46)" fill="#FFD100"></rect></g><path id="Path_7641" data-name="Path 7641" d="M2678.03,1353.291l-42.536,29.06,14.03,2.416-79.7,123.905-49.845-79.655L2431.006,1624.4l-49.041-53.216-39.547,75.353-19.5-15.808-33.8,65.223,14.309,2.167,23.859-46.444,19.428,15.752,38.3-72.979,49.847,54.089,86.994-191.036,47.8,76.387,91.3-141.922,8.2,12.068Z" transform="translate(-2289.125 -1286.714)" fill="#e28b1a"></path></g><rect id="Rectangle_2044" data-name="Rectangle 2044" width="2408.954" height="2.989" transform="translate(164.562 1678.11)" fill="#13375b" stroke="#707070" stroke-linecap="round" stroke-width="0.75"></rect><g id="Group_4841" data-name="Group 4841" transform="translate(1893.989 1224.029)"><rect id="Rectangle_2045" data-name="Rectangle 2045" width="134.401" height="17.541" transform="translate(0 0)" fill="#ffe1b9"></rect><rect id="Rectangle_2046" data-name="Rectangle 2046" width="112.368" height="17.542" transform="translate(0 32.162)" fill="#ffe1b9"></rect><rect id="Rectangle_2047" data-name="Rectangle 2047" width="64.201" height="17.541" transform="translate(0 64.325)" fill="#ffe1b9"></rect></g><g class="man"><g id="man" transform="translate(1921.646 228.195)"><g id="Group_4844" data-name="Group 4844" transform="translate(93.783 98.348)"><path id="Path_1241" data-name="Path 1241" d="M969.545,1368.349l-82.8,132.328a5.18,5.18,0,0,1-5.786,2.171c-8.41-2.5-24.394-13-29.77-19.7a5.224,5.224,0,0,1-.258-6.191l71.36-136.5c16.737-24.341,60.907,4.755,47.251,27.89" transform="translate(-487.767 -705.757)" fill="#f9f9f9"></path><path id="Path_1174" data-name="Path 1174" d="M556.691,272.432l-177.1,240.935,31.524,285.127H556.691Z" transform="translate(-280.002 -238.149)" fill="#FFD100"></path><path id="Path_1175" data-name="Path 1175" d="M699.452,272.432l177.1,240.935L845.029,798.494H699.452Z" transform="translate(-421.263 -238.149)" fill="#FFD100"></path><g id="Group_413" data-name="Group 413" transform="translate(84.446 132.455)"><g id="Group_426" data-name="Group 426"><path id="Path_1177" data-name="Path 1177" d="M570.582,2364.762l16.035-154.811-71.483-10.933,7.057,165.744a16.973,16.973,0,0,1-2.95,9.562l-7.966,11.683H581.5l-7.965-11.683a16.973,16.973,0,0,1-2.95-9.562" transform="translate(-422.604 -1221.439)" fill="#fbd3a8"></path><path id="Path_1178" data-name="Path 1178" d="M487.9,2548.919v16.77c3.729,9.733,94.871,10.1,96.327,0v-15.509a30.525,30.525,0,0,0-1.488-9.5c-15.865-48.413-83.4-40.883-93.939.813a30.3,30.3,0,0,0-.9,7.429" transform="translate(-412.281 -1357.55)" fill="#6A2186"></path><path id="Path_1179" data-name="Path 1179" d="M503.334,2564.381c10.764-24.077,69.034-24.133,78.911-.165a2.756,2.756,0,0,1-1.761,3.695c-19.293,5.766-61.049,5.44-75.607.2a2.752,2.752,0,0,1-1.543-3.734" transform="translate(-418.987 -1374.801)" fill="#ffd9a4"></path><path id="Path_1180" data-name="Path 1180" d="M594.357,2584.019l2.915-9.433a1.4,1.4,0,0,1,2.652.02l2.341,8.912Z" transform="translate(-459.295 -1386.887)" fill="#6A2186"></path><path id="Path_1181" data-name="Path 1181" d="M509.685,2562.229c-3.82,4.834-5.093,14.294,0,18.451-9.193-.713-17.445-2.071-21.721-6.158l-.064-16.77c0-15.418,10.506-26.164,16.464-30.53-2.411,6,1.137,13.826,8.05,15.145-7.756,1.8-13.1,6.747-16.555,14.145-.1,4.437,6.152,5.461,13.826,5.717" transform="translate(-412.281 -1366.384)" fill="#6A2186"></path><g id="Group_375" data-name="Group 375" transform="translate(84.408 1180.038)" opacity="0.35"><g id="Group_374" data-name="Group 374"><g id="Group_373" data-name="Group 373" clip-path="url(#clip-path)"><path id="Path_1182" data-name="Path 1182" d="M511.763,2561.606c-3.676,4.883-3.744,12.8-1.186,14.768-3.551-.475-6.376-1.334-6.936-3.4.468-4.1,4.257-8.286,8.121-11.364" transform="translate(-503.641 -2561.606)" fill="#f8a364"></path></g></g></g><g id="Group_378" data-name="Group 378" transform="translate(155.891 1179.492)" opacity="0.35"><g id="Group_377" data-name="Group 377"><g id="Group_376" data-name="Group 376" clip-path="url(#clip-path-2)"><path id="Path_1183" data-name="Path 1183" d="M631.661,2560.629c3.676,4.883,3.744,12.8,1.186,14.768,3.55-.475,6.376-1.334,6.936-3.4-.469-4.105-4.257-8.286-8.122-11.364" transform="translate(-631.661 -2560.629)" fill="#f8a364"></path></g></g></g><g id="Group_381" data-name="Group 381" transform="translate(138.94 1159.142)" opacity="0.2"><g id="Group_380" data-name="Group 380"><g id="Group_379" data-name="Group 379" clip-path="url(#clip-path-3)"><path id="Path_1184" data-name="Path 1184" d="M613.973,2528.395c5.834,3.651,9.7,7.992,8.633,9.7s-6.66.126-12.495-3.525-9.7-7.992-8.633-9.7,6.66-.126,12.495,3.525" transform="translate(-601.301 -2524.183)" fill="#fff"></path></g></g></g><g id="Group_384" data-name="Group 384" transform="translate(156.053 1191.196)" opacity="0.2"><g id="Group_383" data-name="Group 383"><g id="Group_382" data-name="Group 382" clip-path="url(#clip-path-4)"><path id="Path_1185" data-name="Path 1185" d="M643.707,2581.761a.2.2,0,0,1,.389.014l.7,12.292a1.8,1.8,0,0,1-1.639,1.8l-10.967,1.383a.213.213,0,0,1-.092-.414l8.9-2.866a1.8,1.8,0,0,0,1.282-1.39Z" transform="translate(-631.95 -2581.591)" fill="#fff"></path></g></g></g><g id="Group_387" data-name="Group 387" transform="translate(98.379 1114.952)" opacity="0.35"><g id="Group_386" data-name="Group 386"><g id="Group_385" data-name="Group 385" clip-path="url(#clip-path-5)"><path id="Path_1186" data-name="Path 1186" d="M579.508,2461.368c-15.184,5.658-40.007,4.551-50.194-1l-.653-15.327,53.049.713Z" transform="translate(-528.662 -2445.043)" fill="#f8a364"></path></g></g></g><path id="Path_1187" data-name="Path 1187" d="M758.437,2364.762,742.4,2209.951l71.483-10.933-7.057,165.744a16.974,16.974,0,0,0,2.95,9.562l7.966,11.683H747.522l7.965-11.683a16.973,16.973,0,0,0,2.95-9.562" transform="translate(-524.676 -1221.439)" fill="#fbd3a8"></path><path id="Path_1188" data-name="Path 1188" d="M824.521,2548.919v16.77c-3.729,9.733-94.871,10.1-96.327,0v-15.509a30.523,30.523,0,0,1,1.488-9.5c15.864-48.413,83.4-40.883,93.939.813a30.326,30.326,0,0,1,.9,7.429" transform="translate(-518.402 -1357.55)" fill="#6A2186"></path><path id="Path_1189" data-name="Path 1189" d="M822.5,2564.381c-10.764-24.077-69.034-24.133-78.911-.165a2.756,2.756,0,0,0,1.761,3.695c19.293,5.766,61.049,5.44,75.607.2a2.752,2.752,0,0,0,1.543-3.734" transform="translate(-525.108 -1374.801)" fill="#ffd9a4"></path><path id="Path_1190" data-name="Path 1190" d="M788,2584.019l-2.915-9.433a1.4,1.4,0,0,0-2.652.02l-2.341,8.912Z" transform="translate(-541.319 -1386.887)" fill="#6A2186"></path><path id="Path_1191" data-name="Path 1191" d="M859.535,2562.229c3.82,4.834,5.093,14.294,0,18.451,9.193-.713,17.445-2.071,21.72-6.158l.065-16.77c0-15.418-10.506-26.164-16.464-30.53,2.411,6-1.137,13.826-8.05,15.145,7.756,1.8,13.1,6.747,16.555,14.145.1,4.437-6.152,5.461-13.826,5.717" transform="translate(-575.2 -1366.384)" fill="#6A2186"></path><g id="Group_390" data-name="Group 390" transform="translate(289.208 1180.038)" opacity="0.35"><g id="Group_389" data-name="Group 389"><g id="Group_388" data-name="Group 388" clip-path="url(#clip-path)"><path id="Path_1192" data-name="Path 1192" d="M870.422,2561.606c3.676,4.883,3.745,12.8,1.186,14.768,3.551-.475,6.376-1.334,6.935-3.4-.468-4.1-4.257-8.286-8.121-11.364" transform="translate(-870.422 -2561.606)" fill="#f8a364"></path></g></g></g><g id="Group_393" data-name="Group 393" transform="translate(217.726 1179.492)" opacity="0.35"><g id="Group_392" data-name="Group 392"><g id="Group_391" data-name="Group 391" clip-path="url(#clip-path-2)"><path id="Path_1193" data-name="Path 1193" d="M750.524,2560.629c-3.676,4.883-3.744,12.8-1.186,14.768-3.55-.475-6.376-1.334-6.936-3.4.468-4.105,4.257-8.286,8.122-11.364" transform="translate(-742.402 -2560.629)" fill="#f8a364"></path></g></g></g><g id="Group_396" data-name="Group 396" transform="translate(221.318 1159.142)" opacity="0.2"><g id="Group_395" data-name="Group 395"><g id="Group_394" data-name="Group 394" clip-path="url(#clip-path-8)"><path id="Path_1194" data-name="Path 1194" d="M757.645,2528.395c-5.834,3.651-9.7,7.992-8.633,9.7s6.66.126,12.495-3.525,9.7-7.992,8.633-9.7-6.66-.126-12.495,3.525" transform="translate(-748.835 -2524.183)" fill="#fff"></path></g></g></g><g id="Group_399" data-name="Group 399" transform="translate(212.839 1191.196)" opacity="0.2"><g id="Group_398" data-name="Group 398"><g id="Group_397" data-name="Group 397" clip-path="url(#clip-path-4)"><path id="Path_1195" data-name="Path 1195" d="M734.741,2581.761a.2.2,0,0,0-.389.014l-.7,12.292a1.8,1.8,0,0,0,1.639,1.8l10.968,1.383a.213.213,0,0,0,.091-.414l-8.9-2.866a1.8,1.8,0,0,1-1.282-1.39Z" transform="translate(-733.651 -2581.591)" fill="#fff"></path></g></g></g><g id="Group_402" data-name="Group 402" transform="translate(230.31 1114.952)" opacity="0.35"><g id="Group_401" data-name="Group 401"><g id="Group_400" data-name="Group 400" clip-path="url(#clip-path-5)"><path id="Path_1196" data-name="Path 1196" d="M767.143,2461.368c15.184,5.658,40.007,4.551,50.194-1l.653-15.327-53.049.713Z" transform="translate(-764.94 -2445.043)" fill="#f8a364"></path></g></g></g><path id="Path_1197" data-name="Path 1197" d="M732.141,2132.061c-50.52,36.685-268.494,36.685-299.158,0l14.142-359.3L719,1770.8Z" transform="translate(-388.028 -1032.328)" fill="#f3f3f3"></path><path id="Path_1198" data-name="Path 1198" d="M784.752,659.245l105.316-82.385,43.454,8.726c4.038,34.529-1.732,74.727-12.416,117.767-36.992,75.5-70.612,85.754-70.612,85.754l-65.742-.162Z" transform="translate(-543.379 -505.047)" fill="#2d2d2d"></path><path id="Path_1199" data-name="Path 1199" d="M505.971,659.245,400.656,576.859,357.2,585.585c-4.038,34.529,1.732,74.727,12.415,117.767,36.992,75.5,70.612,85.754,70.612,85.754l65.742-.162Z" transform="translate(-353.99 -505.047)" fill="#2d2d2d"></path><path id="Path_1200" data-name="Path 1200" d="M711.11,1023.129c0,11.688-20.149,21.163-45.005,21.163s-45.005-9.475-45.005-21.163,20.15-21.163,45.005-21.163,45.005,9.475,45.005,21.163" transform="translate(-471.105 -692.787)" fill="#aeb5b5"></path><path id="Path_1201" data-name="Path 1201" d="M702.336,989.455H632.82c.58,28.22-3.347,45.994-7.49,57.109a10.875,10.875,0,0,0,3.008,11.884c15.184,13.573,60.544,18.436,79.012-1.47a10.87,10.87,0,0,0,2.223-11.1c-4.048-11.156-7.8-28.775-7.237-56.417" transform="translate(-472.678 -687.261)" fill="#fbd3a8"></path><g id="Group_405" data-name="Group 405" transform="translate(160.188 299.092)" opacity="0.35"><g id="Group_404" data-name="Group 404"><g id="Group_403" data-name="Group 403" clip-path="url(#clip-path-11)"><path id="Path_1202" data-name="Path 1202" d="M641.24,983.9l66.305.443,1.11,19.1c-10.408,15.323-61.548,14.677-69.3-.717Z" transform="translate(-639.357 -983.902)" fill="#f8a364"></path></g></g></g><path id="Path_1203" data-name="Path 1203" d="M583.8,1049.3v755.97H443.663l10.15-495.622-.163-238.231a4.163,4.163,0,0,1,1.469-2.944c16.756-14.8,45.653-21.206,78.975-24.306a4.686,4.686,0,0,0,3.8-2.633l5.86-12.209a1.31,1.31,0,0,1,2.369.024c9.438,19.91,37.683,19.951,37.683,19.951" transform="translate(-392.745 -704.542)" fill="#f3f3f3"></path><path id="Path_1204" data-name="Path 1204" d="M394.593,782.29c-29.954,0-49.052-39.871-39.754-65.6a23.952,23.952,0,0,1,12.774-14.127c10.836-4.648,20.61,1.076,26.98,5.345Z" transform="translate(-352.472 -559.796)" fill="#fbd3a8"></path><path id="Path_1205" data-name="Path 1205" d="M404.382,735.217c-40.612-14.446-33.761,45.574-.38,47.043" transform="translate(-363.036 -573.993)" fill="#fbbd89"></path><path id="Path_1206" data-name="Path 1206" d="M405.2,736.252a44.656,44.656,0,0,0-11.036-2.475,23.579,23.579,0,0,0-5.593.194,15.372,15.372,0,0,0-5.215,1.814,12.342,12.342,0,0,0-4,3.8,15.8,15.8,0,0,0-2.183,5.2,26.265,26.265,0,0,0-.667,5.706,45.932,45.932,0,0,0,.346,5.784,33.286,33.286,0,0,1-.287-11.619,16.579,16.579,0,0,1,2-5.568,13.434,13.434,0,0,1,4.129-4.356,16.773,16.773,0,0,1,5.582-2.287,25.269,25.269,0,0,1,5.973-.53,46.774,46.774,0,0,1,11.7,1.968Z" transform="translate(-362.937 -573.522)" fill="#603813"></path><path id="Path_1207" data-name="Path 1207" d="M973.618,782.29c29.953,0,49.052-39.871,39.754-65.6a23.949,23.949,0,0,0-12.774-14.127c-10.836-4.648-20.61,1.076-26.979,5.345Z" transform="translate(-626.788 -559.796)" fill="#fbd3a8"></path><path id="Path_1208" data-name="Path 1208" d="M975,735.217c40.612-14.446,33.761,45.574.38,47.043" transform="translate(-627.4 -573.993)" fill="#fbbd89"></path><path id="Path_1209" data-name="Path 1209" d="M972.021,733.884a46.8,46.8,0,0,1,11.7-1.969,25.309,25.309,0,0,1,5.974.531,16.778,16.778,0,0,1,5.582,2.287,13.447,13.447,0,0,1,4.129,4.356,16.6,16.6,0,0,1,2,5.568,33.28,33.28,0,0,1-.286,11.619,45.835,45.835,0,0,0,.345-5.784,26.259,26.259,0,0,0-.666-5.707,15.813,15.813,0,0,0-2.183-5.2,12.333,12.333,0,0,0-4-3.8,15.382,15.382,0,0,0-5.215-1.815,23.6,23.6,0,0,0-5.593-.194,44.668,44.668,0,0,0-11.036,2.475Z" transform="translate(-626.083 -573.522)" fill="#603813"></path><path id="Path_1210" data-name="Path 1210" d="M722.835,448.25H417.52c-41.428,188.715-11.663,312.82,150.565,316.709h4.185C734.5,761.07,764.262,636.965,722.835,448.25" transform="translate(-373.78 -448.25)" fill="#fbd3a8"></path><path id="Path_1211" data-name="Path 1211" d="M595.44,710.613c0,11.982-6.085,21.7-13.592,21.7s-13.592-9.714-13.592-21.7,6.085-21.7,13.592-21.7,13.592,9.714,13.592,21.7" transform="translate(-447.768 -554.535)" fill="#2d2d2d"></path><path id="Path_1212" data-name="Path 1212" d="M597.437,704.642c0,4.525-2.963,8.192-6.617,8.192s-6.617-3.667-6.617-8.192,2.962-8.191,6.617-8.191,6.617,3.667,6.617,8.191" transform="translate(-454.811 -557.863)" fill="#fff"></path><path id="Path_1214" data-name="Path 1214" d="M813.9,710.613c0,11.982-6.086,21.7-13.593,21.7s-13.592-9.714-13.592-21.7,6.085-21.7,13.592-21.7,13.593,9.714,13.593,21.7" transform="translate(-544.244 -554.535)" fill="#2d2d2d"></path><path id="Path_1215" data-name="Path 1215" d="M815.893,704.642c0,4.525-2.963,8.192-6.617,8.192s-6.617-3.667-6.617-8.192,2.962-8.191,6.617-8.191,6.617,3.667,6.617,8.191" transform="translate(-551.287 -557.863)" fill="#fff"></path><path id="Path_1217" data-name="Path 1217" d="M687.151,812.157a4.073,4.073,0,0,0,1.943-.211c11.8-3.459,13.51,9.773,4.013,10.974-9.063.83-13.831-2.232-16.752-6.16a3.582,3.582,0,0,1,2.3-5.69c2.381-.308,5.488.489,8.493,1.087" transform="translate(-495.194 -608.452)" fill="#f8a364"></path><path id="Path_1218" data-name="Path 1218" d="M796.058,642.615c-13.06.245-18.016-12.293-8.908-19.926,3.8-3.182,9-3.9,13.923-3.371,13.561,1.454,21.964,6.256,23.46,15.54A10.15,10.15,0,0,1,821.62,644c-4.776,4.371-12.2,2.694-20.283-.505a13.605,13.605,0,0,0-5.278-.883" transform="translate(-542.385 -523.729)" fill="#2d2d2d"></path><path id="Path_1219" data-name="Path 1219" d="M578.691,642.615c13.06.245,18.016-12.293,8.908-19.926-3.8-3.182-9-3.9-13.923-3.371-13.561,1.454-21.964,6.256-23.46,15.54A10.149,10.149,0,0,0,553.13,644c4.776,4.371,12.2,2.694,20.282-.505a13.608,13.608,0,0,1,5.279-.883" transform="translate(-439.737 -523.729)" fill="#2d2d2d"></path><path id="Path_1220" data-name="Path 1220" d="M440.158,579.974c-24.978,28.638-31.067,81.906-28.03,139.066-16.446-50.331-10.069-139.066-10.069-139.066Z" transform="translate(-373.834 -506.423)" fill="#2d2d2d"></path><path id="Path_1221" data-name="Path 1221" d="M938.159,579.974c24.978,28.638,31.067,81.906,28.03,139.066,16.446-50.331,10.069-139.066,10.069-139.066Z" transform="translate(-611.128 -506.423)" fill="#2d2d2d"></path><g id="Group_408" data-name="Group 408" transform="translate(141.434 324.051)" opacity="0.5"><g id="Group_407" data-name="Group 407"><g id="Group_406" data-name="Group 406" clip-path="url(#clip-path-12)"><path id="Path_1222" data-name="Path 1222" d="M605.77,1044.174c1.751,16.989,20.587,29.634,43.672,31.347v335.186H673.52l-3.213-332.288-14.829-3.976v-25.137c-17.194-.994-30.987-6.724-37.77-20.106a1.321,1.321,0,0,0-2.281.131l-6.527,13.229a4.766,4.766,0,0,1-3.129,1.613" transform="translate(-605.77 -1028.602)" fill="#aeb5b5"></path></g></g></g><path id="Path_1223" data-name="Path 1223" d="M697.91,1109.561l-18.7,5.44V1446.46" transform="translate(-496.77 -740.304)" fill="none" stroke="#aeb5b5" stroke-miterlimit="10" stroke-width="15"></path><path id="Path_1224" data-name="Path 1224" d="M696.17,1049.3v25.137l-14.829,3.976v726.858h153.59l-8.773-495.622.163-238.231a4.161,4.161,0,0,0-1.469-2.944c-16.756-14.8-45.653-21.206-78.975-24.306a4.688,4.688,0,0,1-3.8-2.633l-5.86-12.209a1.31,1.31,0,0,0-2.369.024c-9.438,19.91-37.683,19.951-37.683,19.951" transform="translate(-497.71 -704.542)" fill="#f3f3f3"></path><g id="Group_411" data-name="Group 411" transform="translate(180.418 324.051)" opacity="0.5"><g id="Group_410" data-name="Group 410"><g id="Group_409" data-name="Group 409" clip-path="url(#clip-path-12)"><path id="Path_1225" data-name="Path 1225" d="M743.336,1044.174c-1.751,16.989-20.587,29.634-43.672,31.347v335.186H675.586L678.8,1078.42l14.829-3.976v-25.137c17.194-.994,30.987-6.724,37.77-20.106a1.321,1.321,0,0,1,2.281.131l6.527,13.229a4.764,4.764,0,0,0,3.129,1.613" transform="translate(-675.586 -1028.602)" fill="#aeb5b5"></path></g></g></g><path id="Path_1226" data-name="Path 1226" d="M699.058,1152.143a5.468,5.468,0,1,1-5.468-5.468,5.468,5.468,0,0,1,5.468,5.468" transform="translate(-500.705 -756.694)" fill="#aeb5b5"></path><path id="Path_1227" data-name="Path 1227" d="M699.058,1272.311a5.468,5.468,0,1,1-5.468-5.468,5.468,5.468,0,0,1,5.468,5.468" transform="translate(-500.705 -809.764)" fill="#aeb5b5"></path><path id="Path_1228" data-name="Path 1228" d="M699.058,1399.073a5.468,5.468,0,1,1-5.468-5.468,5.468,5.468,0,0,1,5.468,5.468" transform="translate(-500.705 -865.745)" fill="#aeb5b5"></path><path id="Path_1229" data-name="Path 1229" d="M699.058,1519.241a5.468,5.468,0,1,1-5.468-5.468,5.468,5.468,0,0,1,5.468,5.468" transform="translate(-500.705 -918.816)" fill="#aeb5b5"></path><path id="Path_1230" data-name="Path 1230" d="M699.058,1639.409a5.468,5.468,0,1,1-5.468-5.468,5.468,5.468,0,0,1,5.468,5.468" transform="translate(-500.705 -971.885)" fill="#aeb5b5"></path><path id="Path_1231" data-name="Path 1231" d="M652.309,857.836V843.921c-30.881-1.419-49.828,2.738-59.483,12.836a31.8,31.8,0,0,0-8.622,22.017v16.167h14.908c-5.577-13.1-7.191-24.122,0-31.46a17.78,17.78,0,0,1,12.522-5.2Z" transform="translate(-454.811 -622.87)" fill="#2d2d2d"></path><path id="Path_1232" data-name="Path 1232" d="M702.544,857.836V843.921c30.881-1.419,49.827,2.738,59.483,12.836a31.8,31.8,0,0,1,8.622,22.017v16.167H755.742c5.576-13.1,7.191-24.122,0-31.46a17.78,17.78,0,0,0-12.522-5.2Z" transform="translate(-507.074 -622.87)" fill="#2d2d2d"></path></g></g><g id="Group_421" data-name="Group 421" transform="translate(69.078 0)"><g id="Group_420" data-name="Group 420" clip-path="url(#clip-path-14)"><rect id="Rectangle_424" data-name="Rectangle 424" width="822.769" height="786.996" transform="translate(-181.443 -108.606)" fill="#fff"></rect><g id="Group_416" data-name="Group 416" transform="translate(-172.785 -108.605)" opacity="0.6"><g id="Group_415" data-name="Group 415" transform="translate(0 0)"><g id="Group_414" data-name="Group 414" clip-path="url(#clip-path-15)"><rect id="Rectangle_425" data-name="Rectangle 425" width="14.439" height="786.996" transform="translate(121.695 -0.001)" fill="#6A2186"></rect><rect id="Rectangle_426" data-name="Rectangle 426" width="14.44" height="786.996" transform="translate(91.271 -0.001)" fill="#6A2186"></rect><rect id="Rectangle_427" data-name="Rectangle 427" width="14.44" height="786.996" transform="translate(152.118 -0.001)" fill="#6A2186"></rect><rect id="Rectangle_428" data-name="Rectangle 428" width="14.44" height="786.996" transform="translate(182.542 -0.001)" fill="#6A2186"></rect><rect id="Rectangle_429" data-name="Rectangle 429" width="14.439" height="786.996" transform="translate(212.966 -0.001)" fill="#6A2186"></rect><rect id="Rectangle_430" data-name="Rectangle 430" width="14.44" height="786.996" transform="translate(243.389 -0.001)" fill="#6A2186"></rect><rect id="Rectangle_431" data-name="Rectangle 431" width="14.439" height="786.996" transform="translate(273.813 -0.001)" fill="#6A2186"></rect><rect id="Rectangle_432" data-name="Rectangle 432" width="14.44" height="786.996" transform="translate(425.93 -0.001)" fill="#6A2186"></rect><rect id="Rectangle_433" data-name="Rectangle 433" width="14.439" height="786.996" transform="translate(395.507 -0.001)" fill="#6A2186"></rect><rect id="Rectangle_434" data-name="Rectangle 434" width="14.439" height="786.996" transform="translate(365.083 -0.001)" fill="#6A2186"></rect><rect id="Rectangle_435" data-name="Rectangle 435" width="14.44" height="786.996" transform="translate(334.659 -0.001)" fill="#6A2186"></rect><rect id="Rectangle_436" data-name="Rectangle 436" width="14.439" height="786.996" transform="translate(304.237 -0.001)" fill="#6A2186"></rect><rect id="Rectangle_437" data-name="Rectangle 437" width="14.439" height="786.996" transform="translate(456.354 -0.001)" fill="#6A2186"></rect><rect id="Rectangle_438" data-name="Rectangle 438" width="14.44" height="786.996" transform="translate(486.777 -0.001)" fill="#6A2186"></rect><rect id="Rectangle_439" data-name="Rectangle 439" width="14.439" height="786.996" transform="translate(517.202 -0.001)" fill="#6A2186"></rect><rect id="Rectangle_440" data-name="Rectangle 440" width="14.439" height="786.996" transform="translate(547.625 -0.001)" fill="#6A2186"></rect><rect id="Rectangle_441" data-name="Rectangle 441" width="14.439" height="786.996" transform="translate(578.049 -0.001)" fill="#6A2186"></rect><rect id="Rectangle_442" data-name="Rectangle 442" width="14.439" height="786.996" transform="translate(608.473 -0.001)" fill="#6A2186"></rect></g></g></g><g id="Group_419" data-name="Group 419" transform="translate(-163.557 -117.835)" opacity="0.8"><g id="Group_418" data-name="Group 418"><g id="Group_417" data-name="Group 417" clip-path="url(#clip-path-16)"><rect id="Rectangle_444" data-name="Rectangle 444" width="786.996" height="14.44" transform="translate(0 669.319)" fill="#6A2186"></rect><rect id="Rectangle_445" data-name="Rectangle 445" width="786.996" height="14.439" transform="translate(0 699.743)" fill="#6A2186"></rect><rect id="Rectangle_446" data-name="Rectangle 446" width="786.996" height="14.439" transform="translate(0 730.167)" fill="#6A2186"></rect><rect id="Rectangle_447" data-name="Rectangle 447" width="786.996" height="14.439" transform="translate(0 760.59)" fill="#6A2186"></rect><rect id="Rectangle_448" data-name="Rectangle 448" width="786.996" height="14.439" transform="translate(0 791.014)" fill="#6A2186"></rect><rect id="Rectangle_449" data-name="Rectangle 449" width="786.996" height="14.439" transform="translate(0 638.896)" fill="#6A2186"></rect><rect id="Rectangle_450" data-name="Rectangle 450" width="786.996" height="14.439" transform="translate(0 608.473)" fill="#6A2186"></rect><rect id="Rectangle_451" data-name="Rectangle 451" width="786.996" height="14.439" transform="translate(0 578.049)" fill="#6A2186"></rect><rect id="Rectangle_452" data-name="Rectangle 452" width="786.996" height="14.439" transform="translate(0 547.625)" fill="#6A2186"></rect><rect id="Rectangle_453" data-name="Rectangle 453" width="786.996" height="14.439" transform="translate(0 517.202)" fill="#6A2186"></rect><rect id="Rectangle_454" data-name="Rectangle 454" width="786.996" height="14.44" transform="translate(0 365.083)" fill="#6A2186"></rect><rect id="Rectangle_455" data-name="Rectangle 455" width="786.996" height="14.439" transform="translate(0 395.507)" fill="#6A2186"></rect><rect id="Rectangle_456" data-name="Rectangle 456" width="786.996" height="14.439" transform="translate(0 425.931)" fill="#6A2186"></rect><rect id="Rectangle_457" data-name="Rectangle 457" width="786.996" height="14.439" transform="translate(0 456.354)" fill="#6A2186"></rect><rect id="Rectangle_458" data-name="Rectangle 458" width="786.996" height="14.439" transform="translate(0 486.778)" fill="#6A2186"></rect><rect id="Rectangle_459" data-name="Rectangle 459" width="786.996" height="14.44" transform="translate(0 334.66)" fill="#6A2186"></rect><rect id="Rectangle_460" data-name="Rectangle 460" width="786.996" height="14.44" transform="translate(0 304.236)" fill="#6A2186"></rect><rect id="Rectangle_461" data-name="Rectangle 461" width="786.996" height="14.44" transform="translate(0 273.812)" fill="#6A2186"></rect><rect id="Rectangle_462" data-name="Rectangle 462" width="786.996" height="14.44" transform="translate(0 243.389)" fill="#6A2186"></rect><rect id="Rectangle_463" data-name="Rectangle 463" width="786.996" height="14.44" transform="translate(0 212.966)" fill="#6A2186"></rect><rect id="Rectangle_464" data-name="Rectangle 464" width="786.996" height="14.44" transform="translate(0 182.542)" fill="#6A2186"></rect><rect id="Rectangle_465" data-name="Rectangle 465" width="786.996" height="14.44" transform="translate(0 152.118)" fill="#6A2186"></rect><rect id="Rectangle_466" data-name="Rectangle 466" width="786.996" height="14.44" transform="translate(0 121.694)" fill="#6A2186"></rect></g></g></g></g></g><g id="Group_4843" data-name="Group 4843" transform="translate(0 122.856)"><path id="Path_1234" data-name="Path 1234" d="M734.937,471.085H347.065A10.067,10.067,0,0,1,337,461.018v-1.777a28.183,28.183,0,0,1,28.184-28.183H716.821A28.184,28.184,0,0,1,745,459.241v1.777a10.067,10.067,0,0,1-10.067,10.067" transform="translate(-261.192 -431.058)" fill="#2d2d2d"></path><path id="Path_1235" data-name="Path 1235" d="M710.925,876.041a381.682,381.682,0,0,1-38.67,2.709,381.681,381.681,0,0,1-38.669-2.709s-4.121,38.181,38.317,38.072l.353,0,.353,0c42.438.109,38.317-38.072,38.317-38.072" transform="translate(-392.126 -627.575)" fill="#be1717"></path><path id="Path_1236" data-name="Path 1236" d="M710.926,876.041a376.6,376.6,0,0,1-38.67,2.71,376.6,376.6,0,0,1-38.669-2.71,33.792,33.792,0,0,0-.055,4.784c7.693,2.981,19.9,5.4,38.724,5.335,18.827.068,31.031-2.354,38.725-5.335a33.916,33.916,0,0,0-.055-4.784" transform="translate(-392.127 -627.575)" fill="#fff"></path><path id="Path_1237" data-name="Path 1237" d="M708.825,921.054c-6.152-5.079-15.043-8.829-27.893-9.039v-.01c-.107,0-.211,0-.317.005s-.21,0-.317-.005v.01c-12.85.209-21.741,3.959-27.893,9.039,5.712,5.191,14.461,8.976,27.857,8.942l.353,0,.353,0c13.4.034,22.146-3.75,27.858-8.942" transform="translate(-400.485 -643.458)" fill="#ff2929"></path><path id="Path_1238" data-name="Path 1238" d="M672.018,914.3h-.131l-.36,0-.341,0c-.6,0-1.185-.007-1.766-.02l-.389-.01c-.561-.016-1.116-.038-1.661-.068l-.279-.017q-.725-.043-1.426-.1l-.344-.029q-.77-.068-1.513-.155l-.4-.048q-.649-.08-1.28-.174l-.268-.038c-.465-.072-.92-.15-1.37-.232l-.457-.085c-.432-.083-.858-.17-1.276-.262l-.251-.058-.14-.033q-.477-.11-.944-.229l-.041-.01c-.155-.04-.309-.079-.462-.12q-.558-.149-1.1-.31c-.152-.045-.3-.092-.454-.139l-.086-.027q-.341-.107-.676-.217c-.254-.084-.507-.171-.756-.259s-.487-.175-.727-.265c-.211-.08-.42-.162-.628-.245-.148-.059-.295-.119-.442-.18q-.56-.231-1.1-.477l-.3-.137c-.234-.109-.466-.219-.695-.332l-.033-.017c-.447-.22-.93-.473-1.409-.739l-.1-.057c-18.609-10.409-16.548-33-16.451-33.959a.925.925,0,0,1,1.02-.83l.146.018a378.452,378.452,0,0,0,38.417,2.684,378.483,378.483,0,0,0,38.4-2.684l.144-.018a.908.908,0,0,1,1.019.816c.1.97,2.159,23.565-16.453,33.974l-.095.053c-.5.276-.969.523-1.445.757q-.348.171-.7.334l-.3.135q-.543.246-1.106.479c-.145.06-.29.12-.437.178-.209.083-.419.165-.632.246-.235.089-.476.175-.718.261s-.508.177-.766.262q-.333.11-.672.217l-.108.034c-.144.045-.288.09-.434.133q-.541.16-1.1.309c-.161.043-.324.084-.487.126-.327.083-.64.159-.958.232l-.142.033-.254.059c-.417.093-.842.179-1.272.261q-.228.045-.458.086c-.45.082-.9.161-1.369.232l-.269.038c-.419.063-.846.12-1.279.173l-.4.049c-.5.058-1,.11-1.512.155l-.345.029q-.7.058-1.424.1l-.28.017h0q-.817.044-1.661.068l-.387.01c-.539.012-1.082.021-1.635.021m-.491-1.818.365,0c.581,0,1.154-.007,1.719-.02l.377-.009q.82-.023,1.615-.066h0l.273-.017q.7-.042,1.379-.1l.335-.027q.743-.066,1.462-.15l.383-.047q.627-.078,1.236-.168l.26-.037c.447-.069.885-.145,1.319-.224l.441-.083c.413-.079.822-.162,1.223-.251l.38-.088q.456-.106.9-.219c.175-.044.33-.083.484-.124q.534-.142,1.052-.3c.138-.041.274-.084.409-.126l.11-.035q.323-.1.641-.206.369-.122.73-.25c.23-.082.459-.164.684-.249.2-.076.4-.155.6-.233.139-.055.277-.113.415-.17q.535-.221,1.05-.455l.28-.128q.337-.156.662-.315c.451-.222.9-.456,1.365-.715l.093-.052c15.767-8.818,15.822-26.977,15.6-31.289a378.31,378.31,0,0,1-37.827,2.6,378.313,378.313,0,0,1-37.84-2.6c-.224,4.37-.144,22.484,15.6,31.289l.071.04c.48.266.936.5,1.38.724.226.111.445.215.667.318l.286.131q.512.232,1.044.452c.14.057.279.115.419.171.2.079.4.156.6.232.228.087.46.17.693.253s.478.167.72.246q.32.107.645.208l.087.027c.142.045.285.089.429.132q.519.154,1.054.3c.145.039.292.076.439.114l.042.01q.448.114.906.219l.151.036.224.052c.4.089.813.172,1.227.252l.441.083c.433.079.872.155,1.319.224l.257.037q.61.091,1.237.168l.382.047q.722.084,1.465.15l.334.027q.681.056,1.381.1l.271.017q.8.043,1.615.066l.377.009c.566.013,1.135.023,1.72.02Z" transform="translate(-391.407 -626.857)" fill="#f8a364"></path><path id="Path_1239" data-name="Path 1239" d="M735.166,880.833c-19.453,31.288-54.71,41.469-80.255,29.341L640,911.361c-8.905,12.052-36.361,17.964-47.737,14.389-.754-6.241,1.025-4.41,5.461-6.972H577.911c4.436,2.562,6.215.73,5.46,6.972-11.376,3.575-38.831-2.337-47.737-14.389l-14.908-1.188c-25.546,12.129-60.8,1.948-80.256-29.341,19.021,39.023,60.038,72.38,146.334,75.811v.08c.341-.011,1.687-.011,2.028,0v-.08c86.3-3.431,127.313-36.787,146.334-75.811" transform="translate(-306.889 -629.692)" fill="#2d2d2d"></path><path id="Path_1240" data-name="Path 1240" d="M979.971,1226.516l-45.942-106.769c-28.169-55.532-68.711-8.242-48.339,26.054l46.637,105.979c25.485,42.9,67.731,20.206,47.644-25.265" transform="translate(-501.074 -723.92)" fill="#fffcfc" fill-rule="evenodd"></path><path id="Path_1242" data-name="Path 1242" d="M406.449,1255.9l36-115.482c4.953-31.029-3.135-45.462-28.256-38.224-18.4,16.872-43.685,77.066-59.8,153.706,0,16.192,44.722,27.332,52.056,0" transform="translate(-268.875 -726.638)" fill="#f9f9f9"></path><path id="Path_1243" data-name="Path 1243" d="M263.27,1013.093s2.766-20.284,3.974-28.489-12.032-24.785-15.4-25.213a21.3,21.3,0,0,0-7.55.881s-20.53-39.763-24.833-42.733-7.135,1.56-7.135,1.56,4.766,9.89,14.327,32.666c0,0-13.338,5.661-14.773,8.4s-2.87,5.486-6.04,7.424-5.8,4.327-4.025,12.759c4.342,20.593,31.188,44.337,31.188,44.337Z" transform="translate(-201.236 -645.456)" fill="#fbd3a8"></path><path id="Path_1244" data-name="Path 1244" d="M232.387,979.595c4.227-.717,11.072,6.922,13.286,10.545l4.354-2.038s-5.285,5.1-6.682,6.883-5.562,4.643-3.21,8.493,10.155.328,13.905-3.208c0,0-5.877,10.745-4.494,18.61,0,0-9.186,1.258-13.036,3.611s-10.935-1.1-12.406-3c0,0-4.832-.781-5.021-1.6s-4.854-7.921-4.854-7.921,4.679,3.052,5.9,1.995c0,0,2.844,2.618,5.222-1.635s-8.832-11.4-8.832-11.4a10.233,10.233,0,0,1,6.947,3.224,40.147,40.147,0,0,1,4.139,5.246s6.1-3.73,5.632-6.552S226.7,991.158,223,989.686c0,0,5.146.277,8.316,3.939s10.282-.99,9.816-2.263a13.381,13.381,0,0,0-4.379-6.658,18.051,18.051,0,0,1-4.365-5.109" transform="translate(-206.974 -673.287)" fill="#f8a364"></path><path id="Path_1245" data-name="Path 1245" d="M305.138,1251.6l-59.79-156.034a5.545,5.545,0,0,1,1.871-6.345c7.552-5.582,26.83-12.478,36.019-12.76a5.59,5.59,0,0,1,5.459,3.767l70.726,148.945c10.027,29.989-43.3,49.008-54.284,22.428" transform="translate(-220.569 -716.086)" fill="#f9f9f9"></path></g></g></g></g></g></svg> 