<?xml version="1.0" encoding="UTF-8"?> <svg xmlns="http://www.w3.org/2000/svg" xmlns:xlink="http://www.w3.org/1999/xlink" width="2507.913" height="1726.719" viewBox="0 0 2507.913 1726.719"><style> .tre-1 { animation-name: arrow-1 ; animation-fill-mode: both; animation-duration: 3s; transform-origin: left; transform-box:fill-box ; animation-iteration-count: infinite; } @keyframes arrow-1 { 0% { transform:translateY(0px) translatex(0px); } 50% { transform:translateY(-120px) translatex(-90px); } 100% { transform:translateY(0px) translatex(0px); } } .f1 { animation-name:color ; animation-fill-mode: both; animation-duration: 3s; transform-origin: left; transform-box:fill-box ; animation-iteration-count: infinite; } .f2 { animation-name:color ; animation-delay: .2s; animation-fill-mode: both; animation-duration: 3s; transform-origin: left; transform-box:fill-box ; animation-iteration-count: infinite; } .f3 { animation-delay: .4s; animation-name:color ; animation-fill-mode: both; animation-duration: 3s; transform-origin: left; transform-box:fill-box ; animation-iteration-count: infinite; } .f4 { animation-delay: .6s; animation-name:color ; animation-fill-mode: both; animation-duration: 3s; transform-origin: left; transform-box:fill-box ; animation-iteration-count: infinite; } .f01 { animation-name:colorq ; animation-fill-mode: both; animation-duration: 3s; transform-origin: left; transform-box:fill-box ; animation-iteration-count: infinite; } .f02 { animation-name:colorq ; animation-delay: .2s; animation-fill-mode: both; animation-duration: 3s; transform-origin: left; transform-box:fill-box ; animation-iteration-count: infinite; } .f03 { animation-delay: .4s; animation-name:colorq ; animation-fill-mode: both; animation-duration: 3s; transform-origin: left; transform-box:fill-box ; animation-iteration-count: infinite; } @keyframes color { 0% { fill :#263238; } 50% { fill :#F56F5D; } 100% { fill:#263238; } } @keyframes colorq { 0% { fill :#f8f8f8; } 50% { fill :#F56F5D; } 100% { fill :#f8f8f8; ; } } .v-1 { animation-name: tranfX; animation-fill-mode: both; animation-duration: 2.5s; transform-origin: left; transform-box:fill-box ; animation-iteration-count: infinite; } .v-2{ animation-delay: .2s; animation-name: tranfX; animation-fill-mode: both; transform-origin: left; transform-box:fill-box ; animation-duration: 2.5s; animation-iteration-count: infinite; } .v-3{ animation-delay: .4s; animation-name: tranfX; transform-origin: left; transform-box:fill-box ; animation-fill-mode: both; animation-duration: 2.5s; animation-iteration-count: infinite; } @keyframes tranfX { 0% { transform: scaleX(1); } 50% { transform: scaleX(.1); } 100% { transform: scaleX(1); } } .v0-1 { animation-delay: .2s; animation-name: tranfX; transform-origin: left; transform-box:fill-box ; animation-fill-mode: both; animation-duration: 2.5s; animation-iteration-count: infinite; } .v0-2 { animation-delay: .2s; animation-name: tranfX; transform-origin: left; transform-box:fill-box ; animation-fill-mode: both; animation-duration: 2.5s; animation-iteration-count: infinite; } .tre2 { animation-name: tre2 ; animation-fill-mode: both; animation-duration: 3s; transform-origin: left; transform-box:fill-box ; animation-iteration-count: infinite; } @keyframes tre2 { 0% { transform:translateX(0px) ; } 50% { transform:translateX(30px) ; } 100% { transform:translateX(0px) ; } } .rota1 { animation-delay: .0s; animation-name: rota1; transform-origin: center; transform-box:fill-box ; animation-fill-mode: both; animation-duration: 2.5s; animation-iteration-count: infinite; animation-timing-function: linear; } @keyframes rota1 { from { transform: rotate(0deg); } to { transform: rotate(360deg); } } .man { animation-name: man1 ; animation-fill-mode: both; animation-duration: 3s; transform-origin: left; transform-box:fill-box ; animation-iteration-count: infinite; } @keyframes man1 { 0% { transform:translateX(0px) ; } 50% { transform:translateX(-50px) ; } 100% { transform:translateX(0px) ; } } .g1{ animation-name: g1 ; animation-fill-mode: both; animation-duration: 2s; transform-origin: left; transform-box:fill-box ; animation-iteration-count: infinite; } @keyframes g1 { 0% { transform:translateY(0px) ; } 50% { transform:translateY(60px) ; } 100% { transform:translateY(0px) ; } } .g2 { animation-name: g2 ; animation-fill-mode: both; animation-duration: 2s; transform-origin: left; transform-box:fill-box ; animation-iteration-count: infinite; } @keyframes g2 { 0% { transform:translateX(0px) ; } 50% { transform:translateX(-60px) ; } 100% { transform:translateX(0px) ; } } </style><defs><clipPath id="clip-path"><rect id="Rectangle_1192" data-name="Rectangle 1192" width="2497.913" height="1681.718" fill="none"></rect></clipPath><clipPath id="clip-path-5"><rect id="Rectangle_1232" data-name="Rectangle 1232" width="901" height="1138" transform="translate(1727 1038)" fill="#fff" stroke="#707070" stroke-width="1"></rect></clipPath><clipPath id="clip-path-6"><rect id="Rectangle_1140" data-name="Rectangle 1140" width="901.286" height="1653.053" fill="none"></rect></clipPath><clipPath id="clip-path-7"><rect id="Rectangle_1127" data-name="Rectangle 1127" width="8.897" height="16.177" fill="none"></rect></clipPath><clipPath id="clip-path-9"><rect id="Rectangle_1129" data-name="Rectangle 1129" width="23.532" height="15.987" fill="none"></rect></clipPath><clipPath id="clip-path-10"><rect id="Rectangle_1130" data-name="Rectangle 1130" width="14.072" height="17.152" fill="none"></rect></clipPath><clipPath id="clip-path-11"><rect id="Rectangle_1131" data-name="Rectangle 1131" width="58.112" height="21.981" fill="none"></rect></clipPath><clipPath id="clip-path-12"><rect id="Rectangle_1132" data-name="Rectangle 1132" width="8.895" height="16.177" fill="none"></rect></clipPath><clipPath id="clip-path-16"><rect id="Rectangle_1136" data-name="Rectangle 1136" width="58.11" height="21.981" fill="none"></rect></clipPath><clipPath id="clip-path-17"><rect id="Rectangle_1137" data-name="Rectangle 1137" width="75.911" height="33.642" fill="none"></rect></clipPath><clipPath id="clip-path-18"><rect id="Rectangle_1138" data-name="Rectangle 1138" width="74.215" height="418.568" fill="none"></rect></clipPath><clipPath id="clip-path-20"><path id="Path_3238" data-name="Path 3238" d="M628.242,263.248C414.956,284.234,351.872,487.5,451.4,889.611c8.151-24.721,18.52-58.412,35.167-78.917-19.31-147.763-27.839-274.96,20.44-330.775,41.483,15.626,216.259,15.626,257.743,0,48.279,55.815,39.589,184.243,20.279,332.005,14.933,20.211,26.188,52.965,34.34,77.686C918.885,487.5,856.79,284.234,643.5,263.248Z" transform="translate(-405.349 -263.248)" fill="none"></path></clipPath><clipPath id="clip-path-21"><rect id="Rectangle_1166" data-name="Rectangle 1166" width="882.319" height="862.099" fill="none"></rect></clipPath><clipPath id="clip-path-22"><rect id="Rectangle_1190" data-name="Rectangle 1190" width="862.099" height="882.32" fill="none"></rect></clipPath><clipPath id="clip-path-25"><rect id="Rectangle_1231" data-name="Rectangle 1231" width="2497.913" height="1606.718" transform="translate(0 75)" fill="none"></rect></clipPath></defs><g id="design_2" data-name="design – 2" transform="translate(10 45)"><path id="Path_3254" data-name="Path 3254" d="M74.061,349.137V519.555H45.606v18.5H74.061V652.112H605.93V548.326h-39.4V525.72h39.4V491.811h17.513V476.4H602.65V349.137Z" transform="translate(125.937 964.114)" fill="#f5f5f5"></path><path id="Path_3255" data-name="Path 3255" d="M157.022,349.633V650.212H298.264V546.43h-39.4V525.72l39.4.7V492.514l17.852.023-.342-17.525L294.98,474.5V349.136Z" transform="translate(433.605 964.113)" fill="#ebebeb"></path><g id="Group_1186" data-name="Group 1186"><g id="Group_1185" data-name="Group 1185" clip-path="url(#clip-path)"><path id="Path_3256" data-name="Path 3256" d="M475.3,400.1c0,1.042-96.244,1.888-214.939,1.888-118.737,0-214.958-.846-214.958-1.888s96.221-1.888,214.958-1.888c118.7,0,214.939.846,214.939,1.888" transform="translate(125.388 1099.621)" fill="#e0e0e0"></path><path id="Path_3257" data-name="Path 3257" d="M475.3,395.494c0,1.046-96.244,1.888-214.939,1.888-118.737,0-214.958-.843-214.958-1.888s96.221-1.888,214.958-1.888c118.7,0,214.939.846,214.939,1.888" transform="translate(125.388 1086.913)" fill="#e0e0e0"></path><path id="Path_3258" data-name="Path 3258" d="M482.644,383.108c0,1.046-96.244,1.888-214.939,1.888-118.737,0-214.958-.843-214.958-1.888s96.221-1.888,214.958-1.888c118.7,0,214.939.846,214.939,1.888" transform="translate(145.657 1052.71)" fill="#e0e0e0"></path><path id="Path_3259" data-name="Path 3259" d="M483.35,416.86c0,1.046-96.244,1.888-214.939,1.888-118.737,0-214.958-.843-214.958-1.888s96.221-1.888,214.958-1.888c118.7,0,214.939.846,214.939,1.888" transform="translate(147.606 1145.914)" fill="#e0e0e0"></path><g class="rota1"><path class="f01" id="Path_3260" data-name="Path 3260" d="M431.755,78.519a157.824,157.824,0,0,1,38.483-16.727L478.167,23.7l64.358-1.128,9.265,37.787a157.756,157.756,0,0,1,39.051,15.362L623.369,54.4l46.307,44.712-20.161,33.251a157.614,157.614,0,0,1,16.727,38.494l38.088,7.925,1.132,64.362-37.791,9.264a157.7,157.7,0,0,1-15.362,39.047l21.316,32.529-44.7,46.311-33.255-20.165a157.428,157.428,0,0,1-38.491,16.723l-7.929,38.1-64.358,1.128-9.265-37.791a157.789,157.789,0,0,1-39.047-15.362l-32.529,21.32-46.311-44.712L377.9,296.283a157.577,157.577,0,0,1-16.723-38.491l-38.092-7.929-1.129-64.358,37.787-9.264A157.933,157.933,0,0,1,375.1,137.194l-21.316-32.529,44.7-46.311Zm34.308,85.738a69.052,69.052,0,1,0,97.639-1.719,69.054,69.054,0,0,0-97.639,1.719" transform="translate(889.054 62.331)" fill="#ebebeb"></path></g><g class="rota1"><path class="f02" id="Path_3261" data-name="Path 3261" d="M493.156,41.306a92.055,92.055,0,0,1,22.452-9.757l4.623-22.222,37.547-.658,5.405,22.046a91.974,91.974,0,0,1,22.783,8.96l18.976-12.439L631.956,53.32l-11.762,19.4a91.884,91.884,0,0,1,9.757,22.459L652.174,99.8l.658,37.547-22.046,5.405a92,92,0,0,1-8.96,22.779l12.435,18.98-26.082,27.015-19.4-11.762a91.937,91.937,0,0,1-22.456,9.757L561.7,231.743l-37.547.658-5.405-22.046a92.105,92.105,0,0,1-22.779-8.964l-18.976,12.439-27.018-26.085,11.762-19.4a91.994,91.994,0,0,1-9.757-22.456l-22.223-4.623-.658-37.547,22.046-5.409a92.226,92.226,0,0,1,8.963-22.779L447.669,56.558l26.082-27.015Zm20.015,50.019a40.285,40.285,0,1,0,56.963-1,40.288,40.288,0,0,0-56.963,1" transform="translate(1184.924 23.936)" fill="#ebebeb"></path></g><g class="rota1"><path class="f03" id="Path_3262" data-name="Path 3262" d="M658.141,202.485A122.425,122.425,0,0,1,688.029,189.5l6.158-29.587,49.986-.876,7.2,29.347A122.394,122.394,0,0,1,781.7,200.315l25.262-16.562,35.967,34.726L827.266,244.3a122.337,122.337,0,0,1,12.988,29.9l29.583,6.157.876,49.982-29.346,7.2a122.486,122.486,0,0,1-11.931,30.328l16.554,25.265-34.718,35.963-25.83-15.659a122.311,122.311,0,0,1-29.892,12.988l-6.158,29.587-49.986.876-7.2-29.35A122.441,122.441,0,0,1,661.888,415.6l-25.266,16.558-35.963-34.725,15.659-25.826a122.316,122.316,0,0,1-12.992-29.892l-29.583-6.157-.876-49.986,29.347-7.2a122.727,122.727,0,0,1,11.931-30.325l-16.558-25.266,34.726-35.963Zm26.646,66.588a53.63,53.63,0,1,0,75.83-1.331,53.63,53.63,0,0,0-75.83,1.331" transform="translate(1581.926 439.158)" fill="#ebebeb"></path></g></g></g><g id="Group_1188" data-name="Group 1188"><g id="Group_1187" data-name="Group 1187" clip-path="url(#clip-path)"><path id="Path_3263" data-name="Path 3263" d="M2452.641,431.182c0,.542-549.085.978-1226.262.978C548.969,432.16,0,431.724,0,431.182s548.969-.978,1226.379-.978c677.177,0,1226.262.436,1226.262.978" transform="translate(0 1187.976)" fill="#263238"></path></g></g><rect id="Rectangle_1194" data-name="Rectangle 1194" width="1344.412" height="1051.976" transform="translate(12.781)" fill="#fff"></rect><rect id="Rectangle_1195" data-name="Rectangle 1195" width="1349.449" height="87.468" transform="translate(13.045 0.004)" fill="#263238"></rect><rect id="Rectangle_1196" data-name="Rectangle 1196" width="75.071" height="964.508" transform="translate(13.041 87.472)" fill="#455a64"></rect><rect id="Rectangle_1197" data-name="Rectangle 1197" width="1349.445" height="57.971" transform="translate(13.045 87.472)" fill="#455a64"></rect><g id="Group_1190" data-name="Group 1190"><g id="Group_1189" data-name="Group 1189" clip-path="url(#clip-path)"><path id="Path_3264" data-name="Path 3264" d="M12.171,52.35a1.879,1.879,0,0,1-1.343-3.2L53.664,5.6a1.882,1.882,0,0,1,2.682,2.641L13.51,51.79a1.874,1.874,0,0,1-1.339.56" transform="translate(28.418 13.9)" fill="#fff"></path><path id="Path_3265" data-name="Path 3265" d="M55.629,51.725a1.905,1.905,0,0,1-1.324-.538L10.755,8.352A1.88,1.88,0,0,1,13.392,5.67L56.949,48.5a1.885,1.885,0,0,1,.015,2.659,1.865,1.865,0,0,1-1.335.56" transform="translate(28.153 14.164)" fill="#fff"></path><path id="Path_3266" data-name="Path 3266" d="M1332,39.385c0,.542-296.3.978-661.721.978C304.733,40.363,8.5,39.927,8.5,39.385s296.235-.978,661.781-.978c365.422,0,661.721.436,661.721.978" transform="translate(23.467 106.058)" fill="#263238"></path><path id="Path_3267" data-name="Path 3267" d="M24.143,976.524c-.542,0-.978-212.78-.978-475.2,0-262.51.436-475.241.978-475.241s.978,212.731.978,475.241c0,262.416-.436,475.2-.978,475.2" transform="translate(63.968 72.037)" fill="#263238"></path><path id="Path_3268" data-name="Path 3268" d="M44.642,72.434c-.542,0-.978-10.378-.978-23.174s.436-23.174.978-23.174.978,10.374.978,23.174-.436,23.174-.978,23.174" transform="translate(120.575 72.035)" fill="#263238"></path><path id="Path_3269" data-name="Path 3269" d="M65.127,72.434c-.542,0-.978-10.378-.978-23.174s.436-23.174.978-23.174S66.1,36.46,66.1,49.26s-.436,23.174-.978,23.174" transform="translate(177.143 72.035)" fill="#263238"></path><path id="Path_3270" data-name="Path 3270" d="M85.612,72.434c-.542,0-.978-10.378-.978-23.174s.436-23.174.978-23.174.978,10.374.978,23.174-.436,23.174-.978,23.174" transform="translate(233.71 72.035)" fill="#263238"></path><path id="Path_3271" data-name="Path 3271" d="M106.1,72.434c-.542,0-.978-10.378-.978-23.174s.436-23.174.978-23.174.978,10.374.978,23.174-.436,23.174-.978,23.174" transform="translate(290.278 72.035)" fill="#263238"></path><path id="Path_3272" data-name="Path 3272" d="M126.582,72.434c-.542,0-.978-10.378-.978-23.174s.436-23.174.978-23.174.978,10.374.978,23.174-.436,23.174-.978,23.174" transform="translate(346.846 72.035)" fill="#263238"></path><path id="Path_3273" data-name="Path 3273" d="M147.066,72.434c-.542,0-.978-10.378-.978-23.174s.436-23.174.978-23.174.978,10.374.978,23.174-.436,23.174-.978,23.174" transform="translate(403.411 72.035)" fill="#263238"></path><path id="Path_3274" data-name="Path 3274" d="M167.551,72.434c-.542,0-.978-10.378-.978-23.174s.436-23.174.978-23.174.978,10.374.978,23.174-.436,23.174-.978,23.174" transform="translate(459.979 72.035)" fill="#263238"></path><path id="Path_3275" data-name="Path 3275" d="M188.036,72.434c-.542,0-.978-10.378-.978-23.174s.436-23.174.978-23.174.978,10.374.978,23.174-.436,23.174-.978,23.174" transform="translate(516.547 72.035)" fill="#263238"></path><path id="Path_3276" data-name="Path 3276" d="M208.521,72.434c-.542,0-.978-10.378-.978-23.174s.436-23.174.978-23.174.978,10.374.978,23.174-.436,23.174-.978,23.174" transform="translate(573.114 72.035)" fill="#263238"></path><path id="Path_3277" data-name="Path 3277" d="M229.005,72.434c-.542,0-.978-10.378-.978-23.174s.436-23.174.978-23.174.978,10.374.978,23.174-.436,23.174-.978,23.174" transform="translate(629.679 72.035)" fill="#263238"></path><path id="Path_3278" data-name="Path 3278" d="M249.49,72.434c-.542,0-.978-10.378-.978-23.174s.436-23.174.978-23.174.978,10.374.978,23.174-.436,23.174-.978,23.174" transform="translate(686.247 72.035)" fill="#263238"></path><path id="Path_3279" data-name="Path 3279" d="M269.975,72.434c-.542,0-.978-10.378-.978-23.174s.436-23.174.978-23.174.978,10.374.978,23.174-.436,23.174-.978,23.174" transform="translate(742.815 72.035)" fill="#263238"></path><path id="Path_3280" data-name="Path 3280" d="M290.46,72.434c-.542,0-.978-10.378-.978-23.174s.436-23.174.978-23.174.978,10.374.978,23.174S291,72.434,290.46,72.434" transform="translate(799.383 72.035)" fill="#263238"></path><path id="Path_3281" data-name="Path 3281" d="M310.944,72.434c-.542,0-.978-10.378-.978-23.174s.436-23.174.978-23.174.978,10.374.978,23.174-.436,23.174-.978,23.174" transform="translate(855.948 72.035)" fill="#263238"></path><path id="Path_3282" data-name="Path 3282" d="M331.429,72.434c-.542,0-.978-10.378-.978-23.174s.436-23.174.978-23.174.978,10.374.978,23.174-.436,23.174-.978,23.174" transform="translate(912.515 72.035)" fill="#263238"></path><path id="Path_3283" data-name="Path 3283" d="M351.914,72.434c-.542,0-.978-10.378-.978-23.174s.436-23.174.978-23.174.978,10.374.978,23.174-.436,23.174-.978,23.174" transform="translate(969.083 72.035)" fill="#263238"></path><path id="Path_3284" data-name="Path 3284" d="M64.645,56.821c0,.542-12.571.978-28.072.978S8.5,57.363,8.5,56.821s12.567-.978,28.075-.978,28.072.436,28.072.978" transform="translate(23.467 154.206)" fill="#263238"></path><path id="Path_3285" data-name="Path 3285" d="M64.645,75.7c0,.542-12.571.978-28.072.978S8.5,76.24,8.5,75.7s12.567-.978,28.075-.978,28.072.436,28.072.978" transform="translate(23.467 206.334)" fill="#263238"></path><path id="Path_3286" data-name="Path 3286" d="M64.645,94.576c0,.542-12.571.978-28.072.978S8.5,95.118,8.5,94.576,21.065,93.6,36.573,93.6s28.072.436,28.072.978" transform="translate(23.467 258.464)" fill="#263238"></path><path id="Path_3287" data-name="Path 3287" d="M64.645,113.453c0,.542-12.571.978-28.072.978S8.5,113.995,8.5,113.453s12.567-.978,28.075-.978,28.072.436,28.072.978" transform="translate(23.467 310.591)" fill="#263238"></path><path id="Path_3288" data-name="Path 3288" d="M64.645,132.33c0,.542-12.571.978-28.072.978S8.5,132.872,8.5,132.33s12.567-.978,28.075-.978,28.072.436,28.072.978" transform="translate(23.467 362.719)" fill="#263238"></path><path id="Path_3289" data-name="Path 3289" d="M64.645,151.208c0,.542-12.571.978-28.072.978S8.5,151.75,8.5,151.208s12.567-.978,28.075-.978,28.072.436,28.072.978" transform="translate(23.467 414.849)" fill="#263238"></path><path id="Path_3290" data-name="Path 3290" d="M64.645,170.085c0,.542-12.571.978-28.072.978S8.5,170.627,8.5,170.085s12.567-.978,28.075-.978,28.072.436,28.072.978" transform="translate(23.467 466.976)" fill="#263238"></path><path id="Path_3291" data-name="Path 3291" d="M64.645,188.962c0,.542-12.571.978-28.072.978S8.5,189.5,8.5,188.962s12.567-.978,28.075-.978,28.072.436,28.072.978" transform="translate(23.467 519.104)" fill="#263238"></path><path id="Path_3292" data-name="Path 3292" d="M64.645,207.84c0,.542-12.571.978-28.072.978S8.5,208.382,8.5,207.84s12.567-.978,28.075-.978,28.072.436,28.072.978" transform="translate(23.467 571.234)" fill="#263238"></path><path id="Path_3293" data-name="Path 3293" d="M64.645,226.717c0,.542-12.571.978-28.072.978S8.5,227.259,8.5,226.717s12.567-.978,28.075-.978,28.072.436,28.072.978" transform="translate(23.467 623.361)" fill="#263238"></path><path id="Path_3294" data-name="Path 3294" d="M64.645,245.594c0,.542-12.571.978-28.072.978S8.5,246.136,8.5,245.594s12.567-.978,28.075-.978,28.072.436,28.072.978" transform="translate(23.467 675.489)" fill="#263238"></path><path id="Path_3295" data-name="Path 3295" d="M64.645,264.472c0,.542-12.571.978-28.072.978S8.5,265.014,8.5,264.472s12.567-.978,28.075-.978,28.072.436,28.072.978" transform="translate(23.467 727.619)" fill="#263238"></path><g class="tre2"><path class="f3" id="Path_3296" data-name="Path 3296" d="M347.634,63.041c-.075.361-.169.8-.342,1.655-.252,1.113-.579,2.866-1.147,5.1a134.076,134.076,0,0,1-6.609,18.991,136.238,136.238,0,0,1-16.381,27.827,134.5,134.5,0,0,1-31.562,29.869l-.406-1.057c11.111-1.678,23.362-3.524,36.392-5.492l1.012-.154-.275.986c-4.645,16.652-9.366,35.312-19.439,53.2a88.617,88.617,0,0,1-20,24.423c-8.332,6.992-18.63,12.5-30.118,14.3l-.053-1.678c9.283.816,19.465,1.711,29.843,2.625l.9.079-.1.891A566.268,566.268,0,0,1,265.5,343.361c-11.864,37.434-27.47,75.582-45.66,113.738-6.334,13.432-12.969,26.559-19.548,39.442l-2.272,4.45.433-4.98c6.579-75.842,14.685-147.113,9.825-209.327l-.011-.143.034-.139c9.979-39.3,21.8-74.792,35.775-104.763a356.175,356.175,0,0,1,22.038-40.7,272.668,272.668,0,0,1,23.464-31.562,202.154,202.154,0,0,1,41.15-36.569c2.622-1.817,5.063-3.22,7.143-4.476,2.05-1.271,3.886-2.264,5.383-3.024,2.528-1.309,3.7-1.915,4.386-2.268-.677.395-1.847,1.072-4.363,2.535-2.78,1.565-7.015,4.107-12.255,7.673a206.338,206.338,0,0,0-40.68,36.787,274.107,274.107,0,0,0-23.2,31.555,358.166,358.166,0,0,0-21.79,40.638c-13.816,29.918-25.506,65.336-35.391,104.594l.026-.278c5.006,62.466-3.039,133.816-9.588,209.635l-1.839-.534c6.567-12.868,13.191-25.976,19.514-39.39,36.475-76.022,61.954-152.676,69.537-221.838l.794.967c-10.378-.933-20.556-1.851-29.839-2.686l-6.887-.621,6.834-1.057c11.119-1.719,21.162-7.034,29.339-13.861a87.124,87.124,0,0,0,19.706-23.945c9.994-17.615,14.775-36.162,19.484-52.8l.737.831c-13.041,1.907-25.3,3.7-36.418,5.33l-2.543.372,2.137-1.429A134.228,134.228,0,0,0,322.44,116.07a137.642,137.642,0,0,0,16.528-27.53,143.639,143.639,0,0,0,6.868-18.822c1.065-3.953,1.55-5.759,1.8-6.677" transform="translate(546.806 174.083)" fill="#263238"></path><path class="f2" id="Path_3297" data-name="Path 3297" d="M267.643,552.838a18.5,18.5,0,0,0,.809-2.479c.481-1.655,1.019-4.175,1.663-7.489,1.264-6.635,2.731-16.513,4.262-29.305,3.1-25.589,6.451-62.85,9.757-109.224,3.227-46.228,4.408-102.356-7.557-163.37-5.721-30.505-15.757-61.766-29.719-92.76a300.572,300.572,0,0,0-25.39-45.133,401.224,401.224,0,0,0-32.773-42.384l1.685-.549c-2.012,18.205-3.968,37.562-5.616,57.166-1.486,18.867-3.1,37.61-2.761,55.981-.354,9.264,3.517,17.731,9.4,24.5a73.919,73.919,0,0,0,20.91,16.4l6.707,3.637-7.372-1.847q-18.2-4.559-35.94-9l1.177-.9q-.4,18.117-1.181,35.722c-.576,11.736-1.128,23.295-2.565,34.662-.154,1.418-.429,2.84-.681,4.258a10.6,10.6,0,0,0-.181,3.9,20.341,20.341,0,0,0,3.069,7.384,69.62,69.62,0,0,0,10.667,12.428,198.929,198.929,0,0,0,25.213,19.984l2.306,1.565-2.772,0q-20.261-.017-39.314-.041l.809-.8c.233,37.941,9.972,71.843,21.041,100.291C204.538,453.969,217.5,477.4,228.735,496.2c11.341,18.773,21.256,32.837,28.139,42.3,3.434,4.736,6.161,8.3,8,10.69.891,1.162,1.576,2.05,2.073,2.7.448.594.7.944.7.944s-.245-.252-.767-.843c-.527-.636-1.253-1.508-2.2-2.648-1.9-2.347-4.7-5.86-8.2-10.555-7.015-9.381-17.066-23.377-28.542-42.109-11.371-18.762-24.479-42.177-35.869-70.764-11.213-28.5-21.12-62.53-21.444-100.791l-.008-.8h.82q19.076-.023,39.314-.041l-.47,1.561a200.266,200.266,0,0,1-25.495-20.131,71.333,71.333,0,0,1-10.961-12.751,22.035,22.035,0,0,1-3.34-8.076,12.666,12.666,0,0,1,.192-4.517c.241-1.373.5-2.738.658-4.149,1.4-11.22,1.945-22.8,2.505-34.5q.779-17.575,1.14-35.677l.026-1.185,1.151.286,35.948,8.971-.662,1.794a75.649,75.649,0,0,1-21.519-16.862,43.677,43.677,0,0,1-7.387-11.848,36.519,36.519,0,0,1-1.956-6.823c-.192-2.336-.545-4.694-.53-7.011-.252-9.313.158-18.63.707-27.992s1.245-18.773,2.05-28.226c1.648-19.631,3.611-38.991,5.631-57.223l.241-2.17,1.444,1.617a401.481,401.481,0,0,1,32.935,42.632,301.912,301.912,0,0,1,25.51,45.442c13.974,31.1,24.032,62.571,29.715,93.189,11.9,61.266,10.562,117.522,7.158,163.8-3.479,46.378-7.038,83.635-10.355,109.217-1.644,12.793-3.227,22.663-4.612,29.29-.707,3.31-1.305,5.823-1.847,7.474a8.1,8.1,0,0,1-.989,2.422" transform="translate(470.443 159.489)" fill="#263238"></path><path class="f4" id="Path_3298" data-name="Path 3298" d="M210.789,474.315a7.153,7.153,0,0,1-.132-2.17c0-1.441.128-3.581.339-6.383.455-5.6,1.362-13.85,2.761-24.464,2.783-21.237,7.478-51.953,13.789-90.056,6.473-37.964,15.9-83.846,38.453-130.623a389.326,389.326,0,0,1,19.368-34.748q5.422-8.6,10.965-17.4c3.75-5.838,7.064-11.9,10.95-17.942,7.929-11.864,18.055-22.422,29.143-32.062a270.359,270.359,0,0,1,36.162-26.428l1.719-1.049L374.046,93c-1.979,15.32-4.235,31.547-6.8,47.936-2.524,15.523-4.882,30.885-8.851,45.814a56.175,56.175,0,0,1-1.851,5.552l-1.332,2.656c-.493.858-1.087,1.648-1.625,2.471a36.991,36.991,0,0,1-8.347,8.087,63.268,63.268,0,0,1-20.7,9.358l-.222-1.9,30.87-.169,1.181-.008-.252,1.162c-4.224,19.62-8.49,38.81-10.889,57.512-.154,1.17-.211,2.325-.282,3.479a10.776,10.776,0,0,1-.752,3.743,18.49,18.49,0,0,1-4.333,5.928,59.608,59.608,0,0,1-11.42,8.181A166.682,166.682,0,0,1,303.8,304.077l-.083-1.629q16.4,4.017,31.818,7.794l.79.2-.2.779c-7.82,30.885-22.779,56.342-37.716,76.985A380.992,380.992,0,0,1,254.7,437.652c-13.2,12.642-24.269,21.749-31.916,27.786-3.818,3.024-6.819,5.247-8.854,6.722-1,.7-1.768,1.249-2.343,1.651-.549.361-.8.5-.8.5.2-.158.406-.335.76-.621.549-.425,1.283-1,2.23-1.734,1.986-1.535,4.935-3.822,8.7-6.9,7.542-6.154,18.5-15.358,31.573-28.075a386.166,386.166,0,0,0,43.3-49.553c14.786-20.62,29.546-45.995,37.2-76.583l.6.97q-15.454-3.746-31.84-7.715l-2.693-.651,2.61-.978a165.552,165.552,0,0,0,24.325-11.2,57.752,57.752,0,0,0,11.055-7.937,16.79,16.79,0,0,0,3.908-5.319,8.7,8.7,0,0,0,.613-3.145c.075-1.2.139-2.411.286-3.592,2.4-18.931,6.631-38.051,10.848-57.738l.929,1.151-30.87.2-7.609.049L324.106,213a61.534,61.534,0,0,0,20-9.061,35.068,35.068,0,0,0,7.9-7.651c2.279-2.911,3.479-6.432,4.51-10.077,3.9-14.692,6.278-30.106,8.787-45.577,2.569-16.362,4.826-32.585,6.808-47.879l1.456.963a269.465,269.465,0,0,0-35.884,26.195c-11.006,9.554-21.03,20-28.839,31.652-3.773,5.845-7.2,12.07-10.946,17.889l-10.987,17.374a388.842,388.842,0,0,0-19.345,34.552c-22.531,46.476-32.092,92.2-38.724,130.078-6.481,38.066-11.371,68.74-14.376,89.936-1.508,10.592-2.528,18.818-3.1,24.4s-.576,8.52-.576,8.52" transform="translate(581.701 251.256)" fill="#263238"></path><path class="f1" id="Path_3299" data-name="Path 3299" d="M335.826,402.529c-.071-1.091-.2-3.013-.474-7.124q-.429-3.521-1.053-8.587c-.613-3.374-1.159-7.29-2.178-11.63-3.66-17.445-11.311-42.252-23.513-71.96q-4.542-11.154-10.028-23.152a246.32,246.32,0,0,0-12.432-24.355,233.378,233.378,0,0,0-16.6-24.19c-6.109-8.076-12.518-16.306-19.405-24.5-13.744-16.366-29.456-32.721-48.383-46.457-18.833-13.684-41.086-24.844-65.693-28.9l1-1.452a101.707,101.707,0,0,0,59.51,46.1l4.134,1.181-4.235.715-27.5,4.634.643-1.474c8.873,13.5,17.81,26.751,29.67,36.35,11.672,9.486,26.563,15.151,40.556,12.857l7.248-1.189-6.756,2.878q-10.7,4.548-20.891,8.892l.444-1.14c12.8,27.007,28.587,49.715,42.688,69.549,14.218,19.8,27.319,36.591,38.242,50.305,10.946,13.707,19.747,24.325,25.788,31.54q4.474,5.337,6.9,8.238c1.587,1.869,2.268,2.8,2.321,2.87s-.925-.884-2.524-2.693l-7.1-8.068c-6.173-7.109-15.1-17.633-26.168-31.254-11.047-13.635-24.261-30.351-38.6-50.117-14.218-19.808-30.11-42.463-43.1-69.665l-.376-.786.82-.35q10.19-4.373,20.865-8.948l.489,1.685c-14.655,2.426-30.024-3.453-42.011-13.154-12.168-9.825-21.211-23.246-30.106-36.742l-.809-1.23,1.452-.248,27.5-4.657-.1,1.9a103.466,103.466,0,0,1-60.672-47l-1.057-1.79,2.057.339c24.991,4.13,47.5,15.463,66.483,29.3,19.089,13.895,34.868,30.392,48.624,46.856,6.895,8.241,13.3,16.513,19.394,24.619a234.431,234.431,0,0,1,16.622,24.4,245.307,245.307,0,0,1,12.4,24.547q5.433,12.035,9.934,23.249c12.067,29.836,19.544,54.766,22.994,72.313.967,4.367,1.459,8.313,2.016,11.7.414,3.412.658,6.308.88,8.647.056,4.122.083,6.048.1,7.143" transform="translate(370.923 357.361)" fill="#263238"></path><path id="Path_3300" data-name="Path 3300" d="M174.065,213.535V253.3h18.574L213.726,387.05H331.519L351.172,253.3H369V213.535Z" transform="translate(480.668 589.662)" fill="#c642f8"></path><path id="Path_3301" data-name="Path 3301" d="M174.4,214.182a4.907,4.907,0,0,1,.865-.053c.67-.011,1.538-.026,2.656-.049,2.452-.026,5.943-.06,10.442-.105,9.283-.053,22.719-.132,39.724-.233,34.391-.105,83.2-.256,141.249-.436l.876,0v.88c.015,12.6.03,25.984.049,39.762v.925h-.925c-5.567.008-11.664.011-17.829.019l.929-.8c-4.4,30.039-9.155,62.489-14.075,96.052q-2.81,19.127-5.544,37.7l-.124.835h-.839c-42.1-.034-81.867-.068-117.793-.1H213.3l-.113-.741c-8.523-54.947-15.678-101.1-20.752-133.8l.53.451-18.574-.09h-.451l0-.448c.109-12.932.2-22.9.252-29.723.049-3.261.083-5.77.109-7.549.03-1.681.086-2.49.086-2.49s.056.922.086,2.652c.026,1.8.06,4.344.105,7.651.06,6.763.143,16.641.256,29.459l-.448-.444,18.574-.09.455,0,.075.455c5.236,32.679,12.623,78.794,21.421,133.7l-.865-.741c35.925-.03,75.695-.064,117.793-.1l-.963.831q2.719-18.546,5.533-37.7c4.946-33.559,9.727-66.005,14.15-96.04l.12-.8h.812c6.165.008,12.262.011,17.829.019l-.925.922c.015-13.778.034-27.161.049-39.762l.876.876c-57.821-.181-106.43-.331-140.681-.44l-39.924-.229c-4.574-.045-8.121-.083-10.615-.105-1.155-.023-2.057-.038-2.75-.053a7.885,7.885,0,0,1-.967-.049" transform="translate(480.336 589.017)" fill="#263238"></path><path id="Path_3302" data-name="Path 3302" d="M1187.308,260.383c0,.542-256.416.978-572.647.978-316.34,0-572.7-.436-572.7-.978s256.36-.978,572.7-.978c316.23,0,572.647.436,572.647.978" transform="translate(115.875 716.327)" fill="#263238"></path><path class="f3" id="Path_3303" data-name="Path 3303" d="M317.645,123.678a3.32,3.32,0,0,1-.226.9c-.226.688-.5,1.531-.846,2.565q-1.258,3.583-3.43,9.791c-3,8.493-7.527,20.718-13.191,35.8-11.3,30.167-27.568,71.587-44.272,117.781-8.316,23.121-15.764,45.306-22.159,65.6-6.315,20.323-11.566,38.758-15.535,54.353-2.129,7.764-3.671,14.88-5.187,21.09-1.542,6.206-2.693,11.593-3.611,16q-1.4,6.409-2.223,10.13c-.252,1.057-.459,1.918-.628,2.625a3.2,3.2,0,0,1-.278.88,3.256,3.256,0,0,1,.083-.918c.117-.715.26-1.591.436-2.663q.683-3.741,1.862-10.209c.8-4.431,1.851-9.847,3.291-16.084,1.414-6.24,2.866-13.391,4.912-21.188,3.8-15.663,8.922-34.165,15.151-54.548,6.312-20.353,13.718-42.591,22.042-65.731,16.719-46.239,33.195-87.581,44.821-117.616,5.77-14.9,10.457-27.011,13.771-35.568,1.591-4.077,2.855-7.3,3.776-9.659.414-1.008.752-1.828,1.027-2.5a3.337,3.337,0,0,1,.414-.828" transform="translate(568.979 341.527)" fill="#263238"></path><path class="f2" id="Path_3304" data-name="Path 3304" d="M189.837,116.382c.538-.045,7.978,81.544,16.614,182.215,8.64,100.708,15.2,182.358,14.662,182.4s-7.974-81.529-16.614-182.233c-8.636-100.671-15.2-182.339-14.662-182.384" transform="translate(524.134 321.38)" fill="#263238"></path><path class="f1" id="Path_3305" data-name="Path 3305" d="M235.522,322.951c-.132.034-.831-2.114-1.982-6.026-1.132-3.916-2.821-9.569-4.976-16.524-4.3-13.914-10.761-32.984-19.146-53.555-8.411-20.571-17.145-38.713-23.81-51.663-3.325-6.477-6.075-11.7-8-15.286-1.915-3.6-2.919-5.623-2.8-5.691s1.343,1.828,3.464,5.315,5.078,8.606,8.568,15.016a526.29,526.29,0,0,1,24.4,51.569,526.414,526.414,0,0,1,18.66,53.9c1.99,7.023,3.479,12.74,4.386,16.723.925,3.976,1.377,6.188,1.245,6.221" transform="translate(482.676 481.05)" fill="#263238"></path><path id="Path_3306" data-name="Path 3306" d="M369.342,224.6c0,.542-43.79.978-97.8.978s-97.8-.436-97.8-.978,43.783-.978,97.8-.978,97.8.436,97.8.978" transform="translate(479.77 617.521)" fill="#263238"></path></g><g class="tre-1"><path id="Path_3307" data-name="Path 3307" d="M232.254,212.085,271.4,300.851,285.019,261.8l33.48-12.281Z" transform="translate(641.352 585.656)" fill="#263238"></path></g><rect id="Rectangle_1198" data-name="Rectangle 1198" width="49.151" height="49.151" transform="translate(948.304 865.38)" fill="#fff"></rect><path id="Path_3308" data-name="Path 3308" d="M302.143,279.95a30.993,30.993,0,0,1-.2-3.709q-.085-3.882-.222-10.081c-.105-8.828-.252-20.94-.429-35.361l.846.846L253,231.777c-.218.211,1.851-1.851.974-.97v6.68q-.006,3.318-.008,6.571c-.011,4.333-.019,8.576-.026,12.706-.034,8.238-.068,16.02-.1,23.185l-.846-.846c14.425.177,26.533.323,35.361.433l10.081.218a31.988,31.988,0,0,1,3.709.2,20.959,20.959,0,0,1-3.359.192q-3.808.09-9.889.222c-8.963.109-21.259.256-35.9.432l-.846.011v-.858c-.034-7.166-.064-14.948-.1-23.185-.011-4.13-.019-8.373-.026-12.706q-.006-3.25-.008-6.571l0-3.333v-3.348c-.873.873,1.192-1.2.985-.989,17.957.049,34.789.094,49.147.135H303l-.011.846c-.177,14.643-.323,26.939-.433,35.9q-.135,6.088-.222,9.893a20.951,20.951,0,0,1-.192,3.359" transform="translate(695.312 634.58)" fill="#263238"></path><path id="Path_3309" data-name="Path 3309" d="M259.364,271.289c-.542,0-.978-8.956-.978-20s.436-20,.978-20,.978,8.952.978,20-.436,20-.978,20" transform="translate(713.513 638.668)" fill="#263238"></path><path id="Path_3310" data-name="Path 3310" d="M293.334,237.318c0,.542-8.956.978-20,.978s-20-.436-20-.978,8.956-.978,20-.978,20,.436,20,.978" transform="translate(699.546 652.635)" fill="#263238"></path><rect id="Rectangle_1199" data-name="Rectangle 1199" width="54.007" height="906.537" transform="translate(1308.483 145.443)" fill="#455a64"></rect><path id="Path_3311" data-name="Path 3311" d="M374.872,252.716h0a27,27,0,0,1-27-27V94.018a27,27,0,1,1,54.007,0v131.7a27,27,0,0,1-27,27" transform="translate(960.614 185.046)" fill="#263238"></path><path id="Path_3312" data-name="Path 3312" d="M246.869,259.419a8.265,8.265,0,0,1-.049-.929c-.011-.669-.026-1.538-.045-2.656-.023-2.407-.056-5.834-.1-10.261-.053-9.024-.128-22.11-.222-38.728-.105-33.292-.256-80.709-.433-137.567l.846.846-190.121.132c-.237.207,1.836-1.839.959-.944V95.157q-.006,12.836-.008,25.42c-.008,16.772-.019,33.187-.026,49.151-.034,31.923-.068,62.052-.1,89.691l-.846-.846c56.865.177,104.282.327,137.574.433,16.614.094,29.7.169,38.724.218,4.427.045,7.854.079,10.257.1l2.656.045a8.292,8.292,0,0,1,.929.049,4.93,4.93,0,0,1-.835.049l-2.565.045q-3.549.039-10.1.1c-8.975.049-22,.124-38.532.218-33.42.105-81.025.256-138.112.433l-.846,0v-.85c-.03-27.639-.064-57.768-.1-89.691-.011-15.963-.019-32.378-.026-49.151q-.006-12.582-.008-25.42V82.263l0-6.488V69.312c-.873.858,1.189-1.234,1-1.016,69.605.049,134.84.094,190.121.135h.85l0,.846c-.177,57.08-.327,104.684-.433,138.108-.094,16.535-.169,29.557-.218,38.536-.045,4.356-.075,7.73-.1,10.1-.019,1.08-.034,1.922-.045,2.565a4.99,4.99,0,0,1-.049.835" transform="translate(153.343 188.552)" fill="#263238"></path><path id="Path_3313" data-name="Path 3313" d="M62.249,74.946a3.1,3.1,0,0,1,.632-.049l1.967-.045q2.793-.04,7.771-.1c6.966-.049,16.994-.124,29.708-.222,25.841-.1,62.575-.252,106.606-.429l.846,0v.85c.038,42.658.083,92.975.132,146.669.218-.2-1.866,1.869-1,.993H188.968q-9.9-.006-19.612-.008c-12.939-.008-25.6-.019-37.915-.026l-69.191-.1H61.4l0-.846c.177-44.039.327-80.769.429-106.61.1-12.714.173-22.742.222-29.7q.068-4.982.1-7.771c.019-.809.034-1.448.045-1.967a3.145,3.145,0,0,1,.049-.632,5.241,5.241,0,0,1,.049.73c.011.542.026,1.211.045,2.057q.039,2.844.1,7.933c.053,7.008.128,17.1.222,29.9.105,25.706.256,62.255.433,106.068l-.846-.846,69.191-.1c12.315-.011,24.976-.019,37.915-.026q9.71-.006,19.612-.008h9.945l5.006,0h4.988c.888-.873-1.162,1.2-.955.967.049-53.694.094-104.011.132-146.669l.85.846c-43.809-.177-80.355-.327-106.065-.433-12.8-.094-22.888-.169-29.9-.218q-5.089-.068-7.933-.1l-2.061-.045a5.21,5.21,0,0,1-.726-.049" transform="translate(169.549 204.611)" fill="#263238"></path><path id="Path_3314" data-name="Path 3314" d="M55.8,68.537c.38-.387,5.653,4.171,11.777,10.175S78.361,89.9,77.985,90.289,72.331,86.118,66.2,80.111,55.42,68.924,55.8,68.537" transform="translate(154.027 189.196)" fill="#263238"></path><path id="Path_3315" data-name="Path 3315" d="M121.06,68.73c.4.365-3.8,5.578-9.377,11.645s-10.419,10.686-10.818,10.318,3.8-5.578,9.377-11.645S120.662,68.365,121.06,68.73" transform="translate(278.459 189.736)" fill="#263238"></path><path id="Path_3316" data-name="Path 3316" d="M119.427,134.956c-.474.3-4.2-4.781-9.231-10.652-5.01-5.894-9.452-10.366-9.076-10.788.335-.395,5.45,3.5,10.566,9.516,5.134,5.992,8.185,11.653,7.741,11.924" transform="translate(279.175 313.39)" fill="#263238"></path><path id="Path_3317" data-name="Path 3317" d="M76.75,113.276c.387.38-4.021,5.529-9.844,11.514S56.044,135.31,55.656,134.93s4.021-5.529,9.847-11.51S76.363,112.9,76.75,113.276" transform="translate(153.625 312.743)" fill="#263238"></path><path id="Path_3318" data-name="Path 3318" d="M70.768,82.733a7.932,7.932,0,0,1,1.467-.094l4.465-.1,17.156-.222c15.1-.1,36.369-.252,61.823-.429l.846-.008v.854c.041,24.72.087,53.837.135,84.9.214-.2-1.866,1.862-1,.989h-.7l-.73,0H144.123q-5.732-.006-11.352-.008c-7.489-.008-14.82-.015-21.952-.026l-40.052-.1h-.854l.008-.846c.177-25.457.327-46.724.433-61.827.09-7.256.165-13.022.218-17.156.041-1.839.075-3.314.1-4.461a7.939,7.939,0,0,1,.094-1.467,12.33,12.33,0,0,1,.094,1.651c.026,1.192.06,2.72.1,4.627.056,4.183.132,10.009.222,17.348.105,14.967.256,36.049.433,61.285l-.846-.846,40.052-.1c7.132-.008,14.463-.019,21.952-.026q5.614,0,11.352-.008h11.54c.884-.876-1.174,1.192-.963.97.049-31.066.094-60.183.132-84.9l.846.846c-25.232-.177-46.314-.327-61.285-.433-7.335-.09-13.165-.166-17.344-.218l-4.63-.1a11.529,11.529,0,0,1-1.651-.094" transform="translate(193.062 226.103)" fill="#263238"></path><path id="Path_3319" data-name="Path 3319" d="M1349.964,280.6c0,.542-301.207.978-672.682.978-371.6,0-672.746-.436-672.746-.978s301.143-.978,672.746-.978c371.474,0,672.682.436,672.682.978" transform="translate(12.526 772.169)" fill="#263238"></path></g></g><g class="g1"><rect id="Rectangle_1201" data-name="Rectangle 1201" width="494.018" height="290.16" transform="translate(1073.988 499.536)" fill="#455a64"></rect><g id="Group_1192" data-name="Group 1192"><g id="Group_1191" data-name="Group 1191" clip-path="url(#clip-path)"><path id="Path_3320" data-name="Path 3320" d="M780.263,423.686s-.053-1.805-.079-5.243c-.022-3.476-.049-8.561-.086-15.207-.042-13.361-.109-32.954-.192-58.106-.094-50.271-.233-122.716-.4-211.6l.76.756c-132.88.06-305.68.139-493.98.222h-.038l.982-.978c-.026,102.732-.049,200.841-.071,290.16l-.91-.91,355.368.444,102.01.244,27.191.113q4.6.034,7.03.056c1.584.015,2.419.053,2.419.053s-.76.038-2.309.053q-2.4.023-6.929.056l-27.007.113-101.8.245-355.97.444h-.91v-.91c-.019-89.319-.045-187.428-.068-290.16v-.982h1.016c188.3.086,361.1.162,493.98.222h.76v.76c-.169,89.082-.308,161.689-.4,212.073-.083,25.077-.147,44.614-.192,57.933-.038,6.586-.064,11.623-.083,15.065-.03,3.389-.083,5.089-.083,5.089" transform="translate(787.743 366.01)" fill="#263238"></path><path id="Path_3321" data-name="Path 3321" d="M346.718,204.255H298.451V155.988h48.267Zm-44.505-3.761h40.744V159.749H302.212Z" transform="translate(824.15 430.749)" fill="#263238"></path><rect id="Rectangle_1202" data-name="Rectangle 1202" width="328.451" height="63.045" transform="translate(1239.555 499.532)" fill="#263238"></rect><path id="Path_3322" data-name="Path 3322" d="M411.1,141.648c0,.542-26.417.978-58.994.978s-59-.436-59-.978,26.409-.978,59-.978,58.994.436,58.994.978" transform="translate(809.401 388.45)" fill="#263238"></path><rect id="Rectangle_1203" data-name="Rectangle 1203" width="44.505" height="44.505" transform="translate(1104.298 568.434)" fill="#c642f8"></rect><g class="v-1"><rect id="Rectangle_1204" data-name="Rectangle 1204" width="202.553" height="17.175" transform="translate(1219.721 615.38)" fill="#c642f8"></rect></g><g class="v0-2"><path id="Path_3323" data-name="Path 3323" d="M330.326,169.347l-6.545,9.641a1.811,1.811,0,0,0,1.5,2.829h12.905a1.812,1.812,0,0,0,1.512-2.81l-6.364-9.641a1.81,1.81,0,0,0-3.009-.019" transform="translate(893.224 465.446)" fill="#fff"></path></g><g class="v-2"><rect id="Rectangle_1205" data-name="Rectangle 1205" width="202.553" height="17.175" transform="translate(1219.721 666.566)" fill="#ebebeb"></rect></g><g class="v0-2"><path id="Path_3324" data-name="Path 3324" d="M379.283,182.955l-6.545,9.641a1.811,1.811,0,0,0,1.5,2.829h12.909a1.813,1.813,0,0,0,1.512-2.81l-6.364-9.641a1.81,1.81,0,0,0-3.009-.019" transform="translate(1028.415 503.023)" fill="#fff"></path></g><g class="v-3"><rect id="Rectangle_1206" data-name="Rectangle 1206" width="202.553" height="17.175" transform="translate(1219.721 721.866)" fill="#263238"></rect></g><path id="Path_3325" data-name="Path 3325" d="M343.153,197.657,336.6,207.3a1.812,1.812,0,0,0,1.5,2.829h12.909a1.813,1.813,0,0,0,1.512-2.81l-6.364-9.641a1.806,1.806,0,0,0-3.005-.019" transform="translate(928.641 543.622)" fill="#fff"></path><rect id="Rectangle_1207" data-name="Rectangle 1207" width="78.681" height="23.129" transform="translate(1448.209 612.401)" fill="#263238"></rect><rect id="Rectangle_1208" data-name="Rectangle 1208" width="78.681" height="23.129" transform="translate(1448.209 663.587)" fill="#263238"></rect><rect id="Rectangle_1209" data-name="Rectangle 1209" width="78.681" height="23.129" transform="translate(1448.209 718.891)" fill="#263238"></rect></g></g></g><g id="Mask_Group_1" data-name="Mask Group 1" transform="translate(-140 -584)" clip-path="url(#clip-path-5)"><g class="man"><g id="Group_1183" data-name="Group 1183" transform="translate(1727.02 914)"><path id="Path_3179" data-name="Path 3179" d="M667.51,339.839l-194,263.927L508.039,916.1H667.51Z" transform="translate(-241.328 -173.204)" fill="#FFD100"></path><path id="Path_3180" data-name="Path 3180" d="M872.509,339.839l194,263.927L1031.979,916.1H872.509Z" transform="translate(-444.684 -173.204)" fill="#FFD100"></path><g id="Group_1170" data-name="Group 1170" transform="translate(0 0)"><g id="Group_1169" data-name="Group 1169" clip-path="url(#clip-path-6)"><path id="Path_3182" data-name="Path 3182" d="M702.741,2924.659l17.565-169.585L642,2743.1l7.731,181.562a18.6,18.6,0,0,1-3.231,10.475l-8.726,12.8H714.7l-8.726-12.8a18.6,18.6,0,0,1-3.231-10.475" transform="translate(-325.05 -1398.052)" fill="#fbd3a8"></path><path id="Path_3183" data-name="Path 3183" d="M608.615,3173.232v18.37c4.085,10.662,103.925,11.06,105.519,0v-16.988a33.416,33.416,0,0,0-1.63-10.409c-17.378-53.034-91.36-44.786-102.9.89a33.211,33.211,0,0,0-.985,8.137" transform="translate(-310.188 -1593.995)" fill="#6A2186"></path><path id="Path_3184" data-name="Path 3184" d="M627.829,3196.108c11.792-26.375,75.622-26.436,86.441-.181a3.019,3.019,0,0,1-1.93,4.048c-21.133,6.316-66.875,5.959-82.822.223a3.014,3.014,0,0,1-1.69-4.09" transform="translate(-319.842 -1618.829)" fill="#ffd9a4"></path><path id="Path_3185" data-name="Path 3185" d="M741.412,3221.779l3.194-10.333a1.536,1.536,0,0,1,2.905.022l2.565,9.762Z" transform="translate(-377.869 -1636.228)" fill="#6A2186"></path><path id="Path_3186" data-name="Path 3186" d="M632.48,3190.854c-4.185,5.295-5.58,15.657,0,20.211-10.07-.781-19.11-2.269-23.793-6.746l-.071-18.37c0-16.888,11.508-28.66,18.035-33.443-2.641,6.576,1.245,15.145,8.818,16.59-8.5,1.974-14.348,7.391-18.135,15.494-.1,4.861,6.74,5.982,15.146,6.263" transform="translate(-310.188 -1606.712)" fill="#6A2186"></path><g id="Group_1132" data-name="Group 1132" transform="translate(308.055 1566.825)" opacity="0.35"><g id="Group_1131" data-name="Group 1131" transform="translate(0)"><g id="Group_1130" data-name="Group 1130" clip-path="url(#clip-path-7)"><path id="Path_3187" data-name="Path 3187" d="M637.147,3195.4c-4.027,5.348-4.1,14.017-1.3,16.177-3.889-.52-6.985-1.463-7.6-3.729.513-4.5,4.664-9.076,8.9-12.448" transform="translate(-628.25 -3195.397)" fill="#f8a364"></path></g></g></g><g id="Group_1135" data-name="Group 1135" transform="translate(386.36 1566.227)" opacity="0.35"><g id="Group_1134" data-name="Group 1134" transform="translate(0)"><g id="Group_1133" data-name="Group 1133" clip-path="url(#clip-path-7)"><path id="Path_3188" data-name="Path 3188" d="M787.946,3194.178c4.027,5.348,4.1,14.017,1.3,16.177,3.889-.519,6.985-1.462,7.6-3.728-.513-4.5-4.664-9.077-8.9-12.448" transform="translate(-787.946 -3194.178)" fill="#f8a364"></path></g></g></g><g id="Group_1138" data-name="Group 1138" transform="translate(367.79 1543.935)" opacity="0.2"><g id="Group_1137" data-name="Group 1137" transform="translate(0)"><g id="Group_1136" data-name="Group 1136" clip-path="url(#clip-path-9)"><path id="Path_3189" data-name="Path 3189" d="M763.955,3153.328c6.391,4,10.625,8.754,9.457,10.621s-7.3.138-13.687-3.861-10.625-8.754-9.457-10.622,7.3-.138,13.687,3.862" transform="translate(-750.074 -3148.714)" fill="#fff"></path></g></g></g><g id="Group_1141" data-name="Group 1141" transform="translate(386.537 1579.048)" opacity="0.2"><g id="Group_1140" data-name="Group 1140" transform="translate(0)"><g id="Group_1139" data-name="Group 1139" clip-path="url(#clip-path-10)"><path id="Path_3190" data-name="Path 3190" d="M801.184,3220.512a.214.214,0,0,1,.427.016l.767,13.465a1.976,1.976,0,0,1-1.8,1.968l-12.013,1.515a.233.233,0,0,1-.1-.454l9.749-3.14a1.974,1.974,0,0,0,1.4-1.522Z" transform="translate(-788.306 -3220.325)" fill="#fff"></path></g></g></g><g id="Group_1144" data-name="Group 1144" transform="translate(323.36 1495.528)" opacity="0.35"><g id="Group_1143" data-name="Group 1143" transform="translate(0)"><g id="Group_1142" data-name="Group 1142" clip-path="url(#clip-path-11)"><path id="Path_3191" data-name="Path 3191" d="M715.161,3067.877c-16.633,6.2-43.824,4.985-54.984-1.093l-.715-16.791,58.112.782Z" transform="translate(-659.462 -3049.993)" fill="#f8a364"></path></g></g></g><path id="Path_3192" data-name="Path 3192" d="M943.651,2924.659l-17.565-169.585,78.3-11.976-7.731,181.562a18.592,18.592,0,0,0,3.231,10.475l8.726,12.8H931.694l8.726-12.8a18.591,18.591,0,0,0,3.232-10.475" transform="translate(-471.99 -1398.052)" fill="#fbd3a8"></path><path id="Path_3193" data-name="Path 3193" d="M1013.882,3173.232v18.37c-4.085,10.662-103.925,11.06-105.519,0v-16.988a33.415,33.415,0,0,1,1.63-10.409c17.378-53.034,91.36-44.786,102.9.89a33.214,33.214,0,0,1,.985,8.137" transform="translate(-462.958 -1593.995)" fill="#6A2186"></path><path id="Path_3194" data-name="Path 3194" d="M1013.976,3196.108c-11.792-26.375-75.622-26.436-86.441-.181a3.018,3.018,0,0,0,1.93,4.048c21.134,6.316,66.875,5.959,82.822.223a3.014,3.014,0,0,0,1.69-4.09" transform="translate(-472.611 -1618.829)" fill="#ffd9a4"></path><path id="Path_3195" data-name="Path 3195" d="M981.758,3221.779l-3.193-10.333a1.536,1.536,0,0,0-2.905.022l-2.565,9.762Z" transform="translate(-495.948 -1636.228)" fill="#6A2186"></path><path id="Path_3196" data-name="Path 3196" d="M1071.784,3190.854c4.185,5.295,5.58,15.657,0,20.211,10.07-.781,19.111-2.269,23.793-6.746l.071-18.37c0-16.888-11.508-28.66-18.035-33.443,2.641,6.576-1.246,15.145-8.818,16.59,8.5,1.974,14.348,7.391,18.135,15.494.1,4.861-6.74,5.982-15.146,6.263" transform="translate(-544.724 -1606.712)" fill="#6A2186"></path><g id="Group_1147" data-name="Group 1147" transform="translate(532.4 1566.825)" opacity="0.35"><g id="Group_1146" data-name="Group 1146" transform="translate(0)"><g id="Group_1145" data-name="Group 1145" clip-path="url(#clip-path-12)"><path id="Path_3197" data-name="Path 3197" d="M1085.781,3195.4c4.027,5.348,4.1,14.017,1.3,16.177,3.89-.52,6.985-1.463,7.6-3.729-.513-4.5-4.664-9.076-8.9-12.448" transform="translate(-1085.78 -3195.397)" fill="#f8a364"></path></g></g></g><g id="Group_1150" data-name="Group 1150" transform="translate(454.095 1566.227)" opacity="0.35"><g id="Group_1149" data-name="Group 1149" transform="translate(0)"><g id="Group_1148" data-name="Group 1148" clip-path="url(#clip-path-7)"><path id="Path_3198" data-name="Path 3198" d="M934.982,3194.178c-4.027,5.348-4.1,14.017-1.3,16.177-3.889-.519-6.985-1.462-7.6-3.728.513-4.5,4.664-9.077,8.9-12.448" transform="translate(-926.085 -3194.178)" fill="#f8a364"></path></g></g></g><g id="Group_1153" data-name="Group 1153" transform="translate(458.03 1543.935)" opacity="0.2"><g id="Group_1152" data-name="Group 1152"><g id="Group_1151" data-name="Group 1151" clip-path="url(#clip-path-9)"><path id="Path_3199" data-name="Path 3199" d="M943.761,3153.328c-6.391,4-10.625,8.754-9.457,10.621s7.3.138,13.687-3.861,10.625-8.754,9.457-10.622-7.3-.138-13.687,3.862" transform="translate(-934.11 -3148.714)" fill="#fff"></path></g></g></g><g id="Group_1156" data-name="Group 1156" transform="translate(448.743 1579.048)" opacity="0.2"><g id="Group_1155" data-name="Group 1155" transform="translate(0)"><g id="Group_1154" data-name="Group 1154" clip-path="url(#clip-path-10)"><path id="Path_3200" data-name="Path 3200" d="M916.364,3220.512a.214.214,0,0,0-.426.016l-.768,13.465a1.976,1.976,0,0,0,1.8,1.968l12.014,1.515a.233.233,0,0,0,.1-.454l-9.749-3.14a1.975,1.975,0,0,1-1.4-1.522Z" transform="translate(-915.17 -3220.325)" fill="#fff"></path></g></g></g><g id="Group_1159" data-name="Group 1159" transform="translate(467.881 1495.528)" opacity="0.35"><g id="Group_1158" data-name="Group 1158" transform="translate(0)"><g id="Group_1157" data-name="Group 1157" clip-path="url(#clip-path-16)"><path id="Path_3201" data-name="Path 3201" d="M956.613,3067.877c16.633,6.2,43.825,4.985,54.984-1.093l.715-16.791-58.112.782Z" transform="translate(-954.2 -3049.993)" fill="#f8a364"></path></g></g></g><path id="Path_3202" data-name="Path 3202" d="M867.818,2604.668c-55.342,40.186-294.117,40.186-327.707,0L555.6,2211.075l297.824-2.138Z" transform="translate(-275.274 -1125.811)" fill="#fff"></path><path id="Path_3203" data-name="Path 3203" d="M978.914,809.834l115.366-90.247,47.6,9.558c4.424,37.824-1.9,81.859-13.6,129.005-40.522,82.7-77.35,93.938-77.35,93.938l-72.016-.178Z" transform="translate(-498.915 -366.747)" fill="#2d2d2d"></path><path id="Path_3204" data-name="Path 3204" d="M608.351,809.834,492.985,719.587l-47.6,9.558c-4.423,37.824,1.9,81.859,13.6,129.005,40.522,82.7,77.35,93.938,77.35,93.938l72.016-.178Z" transform="translate(-226.273 -366.747)" fill="#2d2d2d"></path><path id="Path_3205" data-name="Path 3205" d="M873.371,1273.056c0,12.8-22.073,23.183-49.3,23.183s-49.3-10.379-49.3-23.183,22.073-23.183,49.3-23.183,49.3,10.38,49.3,23.183" transform="translate(-394.871 -637.013)" fill="#aeb5b5"></path><path id="Path_3206" data-name="Path 3206" d="M864.3,1234.266h-76.15c.635,30.913-3.667,50.383-8.205,62.558a11.914,11.914,0,0,0,3.294,13.018c16.634,14.868,66.323,20.2,86.553-1.611a11.907,11.907,0,0,0,2.435-12.164c-4.434-12.221-8.549-31.522-7.927-61.8" transform="translate(-397.134 -629.059)" fill="#fbd3a8"></path><g id="Group_1162" data-name="Group 1162" transform="translate(391.068 601.811)" opacity="0.35"><g id="Group_1161" data-name="Group 1161" transform="translate(0)"><g id="Group_1160" data-name="Group 1160" clip-path="url(#clip-path-17)"><path id="Path_3207" data-name="Path 3207" d="M799.608,1227.342l72.633.485,1.216,20.926c-11.4,16.785-67.422,16.078-75.912-.786Z" transform="translate(-797.545 -1227.341)" fill="#f8a364"></path></g></g></g><path id="Path_3208" data-name="Path 3208" d="M706.944,1305.768v828.113H553.434l11.117-542.92-.178-260.966a4.559,4.559,0,0,1,1.608-3.225c18.354-16.216,50.01-23.229,86.511-26.625a5.132,5.132,0,0,0,4.158-2.885l6.42-13.373a1.434,1.434,0,0,1,2.594.026c10.339,21.81,41.279,21.855,41.279,21.855" transform="translate(-282.064 -653.936)" fill="#6A2186"></path><path id="Path_3209" data-name="Path 3209" d="M485.82,963.464c-32.812,0-53.733-43.676-43.548-71.865a26.238,26.238,0,0,1,13.994-15.475c11.87-5.091,22.577,1.178,29.554,5.855Z" transform="translate(-224.088 -445.562)" fill="#fbd3a8"></path><path id="Path_3210" data-name="Path 3210" d="M500.179,916.786c-44.488-15.824-36.983,49.923-.416,51.532" transform="translate(-239.295 -466)" fill="#fbbd89"></path><path id="Path_3211" data-name="Path 3211" d="M501.036,917.756a48.935,48.935,0,0,0-12.089-2.711,25.837,25.837,0,0,0-6.126.212,16.843,16.843,0,0,0-5.712,1.987,13.529,13.529,0,0,0-4.381,4.161,17.307,17.307,0,0,0-2.391,5.7,28.734,28.734,0,0,0-.73,6.251,50.245,50.245,0,0,0,.378,6.336,36.451,36.451,0,0,1-.314-12.728,18.169,18.169,0,0,1,2.192-6.1,14.718,14.718,0,0,1,4.523-4.772,18.367,18.367,0,0,1,6.114-2.505,27.675,27.675,0,0,1,6.544-.581,51.269,51.269,0,0,1,12.819,2.156Z" transform="translate(-239.153 -465.322)" fill="#603813"></path><path id="Path_3212" data-name="Path 3212" d="M1214.508,963.464c32.811,0,53.733-43.676,43.548-71.865a26.238,26.238,0,0,0-13.994-15.475c-11.87-5.091-22.577,1.178-29.554,5.855Z" transform="translate(-618.988 -445.562)" fill="#fbd3a8"></path><path id="Path_3213" data-name="Path 3213" d="M1216.239,916.786c44.488-15.824,36.983,49.923.416,51.532" transform="translate(-619.87 -466)" fill="#fbbd89"></path><path id="Path_3214" data-name="Path 3214" d="M1212.517,915.163a51.262,51.262,0,0,1,12.819-2.156,27.674,27.674,0,0,1,6.543.581,18.366,18.366,0,0,1,6.114,2.505,14.713,14.713,0,0,1,4.523,4.771,18.166,18.166,0,0,1,2.193,6.1,36.454,36.454,0,0,1-.314,12.728,50.222,50.222,0,0,0,.379-6.336,28.807,28.807,0,0,0-.73-6.251,17.315,17.315,0,0,0-2.391-5.7,13.517,13.517,0,0,0-4.381-4.161,16.837,16.837,0,0,0-5.713-1.987,25.838,25.838,0,0,0-6.126-.213,48.959,48.959,0,0,0-12.088,2.711Z" transform="translate(-617.973 -465.322)" fill="#603813"></path><path id="Path_3215" data-name="Path 3215" d="M852.719,559.157H518.268C472.887,765.881,505.493,901.829,683.2,906.09h4.584C865.495,901.829,898.1,765.881,852.719,559.157" transform="translate(-254.762 -284.982)" fill="#fbd3a8"></path><path id="Path_3216" data-name="Path 3216" d="M738.63,883.137c0,13.126-6.666,23.766-14.889,23.766s-14.889-10.64-14.889-23.766,6.666-23.766,14.889-23.766,14.889,10.64,14.889,23.766" transform="translate(-361.274 -437.99)" fill="#2d2d2d"></path><path id="Path_3217" data-name="Path 3217" d="M743.243,877.74c0,4.956-3.245,8.973-7.249,8.973s-7.248-4.017-7.248-8.973,3.245-8.973,7.248-8.973,7.249,4.017,7.249,8.973" transform="translate(-371.414 -442.778)" fill="#fff"></path><path id="Path_3219" data-name="Path 3219" d="M1011.136,883.137c0,13.126-6.666,23.766-14.889,23.766s-14.889-10.64-14.889-23.766,6.666-23.766,14.889-23.766,14.889,10.64,14.889,23.766" transform="translate(-500.16 -437.99)" fill="#2d2d2d"></path><path id="Path_3220" data-name="Path 3220" d="M1015.748,877.74c0,4.956-3.245,8.973-7.249,8.973s-7.248-4.017-7.248-8.973,3.245-8.973,7.248-8.973,7.249,4.017,7.249,8.973" transform="translate(-510.299 -442.778)" fill="#fff"></path><path id="Path_3222" data-name="Path 3222" d="M855.415,1012.927a4.464,4.464,0,0,0,2.129-.23c12.929-3.789,14.8,10.705,4.4,12.021-9.929.909-15.151-2.445-18.351-6.748a3.924,3.924,0,0,1,2.523-6.233c2.609-.337,6.011.535,9.3,1.19" transform="translate(-429.548 -515.606)" fill="#f8a364"></path><path id="Path_3223" data-name="Path 3223" d="M990.957,798.046c-14.307.268-19.735-13.466-9.758-21.828,4.158-3.485,9.857-4.271,15.251-3.692,14.855,1.593,24.06,6.853,25.7,17.023a11.119,11.119,0,0,1-3.193,10.019c-5.232,4.788-13.36,2.951-22.218-.554a14.917,14.917,0,0,0-5.783-.967" transform="translate(-497.483 -393.64)" fill="#2d2d2d"></path><path id="Path_3224" data-name="Path 3224" d="M717.519,798.046c14.307.268,19.735-13.466,9.758-21.828-4.158-3.485-9.857-4.271-15.251-3.692-14.855,1.593-24.06,6.853-25.7,17.023a11.12,11.12,0,0,0,3.193,10.019c5.232,4.788,13.36,2.951,22.218-.554a14.917,14.917,0,0,1,5.783-.967" transform="translate(-349.713 -393.64)" fill="#2d2d2d"></path><path id="Path_3225" data-name="Path 3225" d="M543.084,723.473c-27.361,31.37-34.032,89.723-30.7,152.337-18.016-55.134-11.03-152.337-11.03-152.337Z" transform="translate(-254.839 -368.728)" fill="#2d2d2d"></path><path id="Path_3226" data-name="Path 3226" d="M1170.277,723.473c27.361,31.37,34.033,89.723,30.7,152.337,18.016-55.134,11.03-152.337,11.03-152.337Z" transform="translate(-596.445 -368.728)" fill="#2d2d2d"></path><g id="Group_1165" data-name="Group 1165" transform="translate(370.524 629.152)" opacity="0.5"><g id="Group_1164" data-name="Group 1164" transform="translate(0)"><g id="Group_1163" data-name="Group 1163" clip-path="url(#clip-path-18)"><path id="Path_3227" data-name="Path 3227" d="M755.649,1300.157c1.918,18.61,22.551,32.462,47.839,34.338v367.173h26.376l-3.52-364-16.244-4.355v-27.535c-18.835-1.089-33.945-7.367-41.375-22.025a1.446,1.446,0,0,0-2.5.143l-7.15,14.492a5.22,5.22,0,0,1-3.427,1.766" transform="translate(-755.649 -1283.101)" fill="#aeb5b5"></path></g></g></g><path id="Path_3228" data-name="Path 3228" d="M867.744,1384.089l-20.483,5.959v363.091" transform="translate(-431.816 -705.418)" fill="none" stroke="#aeb5b5" stroke-miterlimit="10" stroke-width="15"></path><path id="Path_3229" data-name="Path 3229" d="M866.161,1305.768V1333.3l-16.245,4.354v796.222h168.248l-9.611-542.92.178-260.966a4.558,4.558,0,0,0-1.608-3.225c-18.354-16.216-50.01-23.229-86.511-26.625a5.132,5.132,0,0,1-4.158-2.885l-6.419-13.373a1.434,1.434,0,0,0-2.594.026c-10.339,21.81-41.279,21.855-41.279,21.855" transform="translate(-433.17 -653.936)" fill="#6A2186"></path><g id="Group_1168" data-name="Group 1168" transform="translate(413.227 629.152)" opacity="0.5"><g id="Group_1167" data-name="Group 1167" transform="translate(0)"><g id="Group_1166" data-name="Group 1166" clip-path="url(#clip-path-18)"><path id="Path_3230" data-name="Path 3230" d="M916.953,1300.157c-1.918,18.61-22.551,32.462-47.84,34.338v367.173H842.738l3.52-364,16.244-4.355v-27.535c18.835-1.089,33.945-7.367,41.375-22.025a1.446,1.446,0,0,1,2.5.143l7.15,14.492a5.22,5.22,0,0,0,3.428,1.766" transform="translate(-842.738 -1283.101)" fill="#aeb5b5"></path></g></g></g><path id="Path_3231" data-name="Path 3231" d="M870.356,1436.375a5.99,5.99,0,1,1-5.99-5.99,5.99,5.99,0,0,1,5.99,5.99" transform="translate(-437.481 -729.014)" fill="#aeb5b5"></path><path id="Path_3232" data-name="Path 3232" d="M870.356,1586.275a5.99,5.99,0,1,1-5.99-5.99,5.99,5.99,0,0,1,5.99,5.99" transform="translate(-437.481 -805.412)" fill="#aeb5b5"></path><path id="Path_3233" data-name="Path 3233" d="M870.356,1744.4a5.99,5.99,0,1,1-5.99-5.99,5.99,5.99,0,0,1,5.99,5.99" transform="translate(-437.481 -886.002)" fill="#aeb5b5"></path><path id="Path_3234" data-name="Path 3234" d="M870.356,1894.3a5.99,5.99,0,1,1-5.99-5.989,5.99,5.99,0,0,1,5.99,5.989" transform="translate(-437.481 -962.401)" fill="#aeb5b5"></path><path id="Path_3235" data-name="Path 3235" d="M870.356,2044.2a5.99,5.99,0,1,1-5.99-5.99,5.99,5.99,0,0,1,5.99,5.99" transform="translate(-437.481 -1038.798)" fill="#aeb5b5"></path><path id="Path_3236" data-name="Path 3236" d="M803.35,1067.926v-15.242c-33.828-1.555-54.583,3-65.16,14.061a34.834,34.834,0,0,0-9.445,24.117v17.709h16.331c-6.109-14.348-7.878-26.424,0-34.462a19.479,19.479,0,0,1,13.717-5.7Z" transform="translate(-371.413 -536.363)" fill="#2d2d2d"></path><path id="Path_3237" data-name="Path 3237" d="M876.366,1067.926v-15.242c33.829-1.555,54.583,3,65.16,14.061a34.834,34.834,0,0,1,9.445,24.117v17.709H934.64c6.109-14.348,7.878-26.424,0-34.462a19.479,19.479,0,0,0-13.717-5.7Z" transform="translate(-446.65 -536.363)" fill="#2d2d2d"></path></g></g><g id="Group_1178" data-name="Group 1178" transform="translate(198.758 129.079)"><g id="Group_1177" data-name="Group 1177" clip-path="url(#clip-path-20)"><rect id="Rectangle_1141" data-name="Rectangle 1141" width="901.286" height="862.1" transform="translate(-198.758 -118.97)" fill="#fff"></rect><g id="Group_1173" data-name="Group 1173" transform="translate(-189.274 -118.97)" opacity="0.6"><g id="Group_1172" data-name="Group 1172" transform="translate(0 0)"><g id="Group_1171" data-name="Group 1171" clip-path="url(#clip-path-21)"><rect id="Rectangle_1142" data-name="Rectangle 1142" width="15.818" height="862.1" transform="translate(133.308)" fill="#6A2186"></rect><rect id="Rectangle_1143" data-name="Rectangle 1143" width="15.818" height="862.1" transform="translate(99.981)" fill="#6A2186"></rect><rect id="Rectangle_1144" data-name="Rectangle 1144" width="15.818" height="862.1" transform="translate(66.654)" fill="#6A2186"></rect><rect id="Rectangle_1145" data-name="Rectangle 1145" width="15.818" height="862.1" transform="translate(33.327)" fill="#6A2186"></rect><rect id="Rectangle_1146" data-name="Rectangle 1146" width="15.818" height="862.1" transform="translate(0)" fill="#6A2186"></rect><rect id="Rectangle_1147" data-name="Rectangle 1147" width="15.818" height="862.1" transform="translate(166.634)" fill="#6A2186"></rect><rect id="Rectangle_1148" data-name="Rectangle 1148" width="15.818" height="862.1" transform="translate(199.962)" fill="#6A2186"></rect><rect id="Rectangle_1149" data-name="Rectangle 1149" width="15.818" height="862.1" transform="translate(233.289)" fill="#6A2186"></rect><rect id="Rectangle_1150" data-name="Rectangle 1150" width="15.818" height="862.1" transform="translate(266.615)" fill="#6A2186"></rect><rect id="Rectangle_1151" data-name="Rectangle 1151" width="15.818" height="862.1" transform="translate(299.942)" fill="#6A2186"></rect><rect id="Rectangle_1152" data-name="Rectangle 1152" width="15.818" height="862.1" transform="translate(466.577)" fill="#6A2186"></rect><rect id="Rectangle_1153" data-name="Rectangle 1153" width="15.818" height="862.1" transform="translate(433.25)" fill="#6A2186"></rect><rect id="Rectangle_1154" data-name="Rectangle 1154" width="15.818" height="862.1" transform="translate(399.923)" fill="#6A2186"></rect><rect id="Rectangle_1155" data-name="Rectangle 1155" width="15.818" height="862.1" transform="translate(366.596)" fill="#6A2186"></rect><rect id="Rectangle_1156" data-name="Rectangle 1156" width="15.818" height="862.1" transform="translate(333.269)" fill="#6A2186"></rect><rect id="Rectangle_1157" data-name="Rectangle 1157" width="15.818" height="862.1" transform="translate(499.904)" fill="#6A2186"></rect><rect id="Rectangle_1158" data-name="Rectangle 1158" width="15.818" height="862.1" transform="translate(533.231)" fill="#6A2186"></rect><rect id="Rectangle_1159" data-name="Rectangle 1159" width="15.818" height="862.1" transform="translate(566.557)" fill="#6A2186"></rect><rect id="Rectangle_1160" data-name="Rectangle 1160" width="15.818" height="862.1" transform="translate(599.885)" fill="#6A2186"></rect><rect id="Rectangle_1161" data-name="Rectangle 1161" width="15.818" height="862.1" transform="translate(633.212)" fill="#6A2186"></rect><rect id="Rectangle_1162" data-name="Rectangle 1162" width="15.818" height="862.1" transform="translate(666.538)" fill="#6A2186"></rect><rect id="Rectangle_1163" data-name="Rectangle 1163" width="15.818" height="862.1" transform="translate(699.865)" fill="#6A2186"></rect><rect id="Rectangle_1164" data-name="Rectangle 1164" width="15.818" height="862.1" transform="translate(733.193)" fill="#6A2186"></rect><rect id="Rectangle_1165" data-name="Rectangle 1165" width="15.818" height="862.1" transform="translate(766.519)" fill="#6A2186"></rect></g></g></g><g id="Group_1176" data-name="Group 1176" transform="translate(-179.165 -129.081)" opacity="0.8"><g id="Group_1175" data-name="Group 1175"><g id="Group_1174" data-name="Group 1174" clip-path="url(#clip-path-22)"><rect id="Rectangle_1167" data-name="Rectangle 1167" width="862.1" height="15.818" transform="translate(0 733.194)" fill="#6A2186"></rect><rect id="Rectangle_1168" data-name="Rectangle 1168" width="862.1" height="15.818" transform="translate(0 766.521)" fill="#6A2186"></rect><rect id="Rectangle_1169" data-name="Rectangle 1169" width="862.1" height="15.818" transform="translate(0 799.848)" fill="#6A2186"></rect><rect id="Rectangle_1170" data-name="Rectangle 1170" width="862.1" height="15.818" transform="translate(0 833.174)" fill="#6A2186"></rect><rect id="Rectangle_1171" data-name="Rectangle 1171" width="862.1" height="15.818" transform="translate(0 866.501)" fill="#6A2186"></rect><rect id="Rectangle_1172" data-name="Rectangle 1172" width="862.1" height="15.818" transform="translate(0 699.867)" fill="#6A2186"></rect><rect id="Rectangle_1173" data-name="Rectangle 1173" width="862.1" height="15.818" transform="translate(0 666.54)" fill="#6A2186"></rect><rect id="Rectangle_1174" data-name="Rectangle 1174" width="862.1" height="15.818" transform="translate(0 633.213)" fill="#6A2186"></rect><rect id="Rectangle_1175" data-name="Rectangle 1175" width="862.1" height="15.818" transform="translate(0 599.886)" fill="#6A2186"></rect><rect id="Rectangle_1176" data-name="Rectangle 1176" width="862.1" height="15.818" transform="translate(0 566.559)" fill="#6A2186"></rect><rect id="Rectangle_1177" data-name="Rectangle 1177" width="862.1" height="15.818" transform="translate(0 399.925)" fill="#6A2186"></rect><rect id="Rectangle_1178" data-name="Rectangle 1178" width="862.1" height="15.818" transform="translate(0 433.251)" fill="#6A2186"></rect><rect id="Rectangle_1179" data-name="Rectangle 1179" width="862.1" height="15.818" transform="translate(0 466.578)" fill="#6A2186"></rect><rect id="Rectangle_1180" data-name="Rectangle 1180" width="862.1" height="15.818" transform="translate(0 499.905)" fill="#6A2186"></rect><rect id="Rectangle_1181" data-name="Rectangle 1181" width="862.1" height="15.818" transform="translate(0 533.232)" fill="#6A2186"></rect><rect id="Rectangle_1182" data-name="Rectangle 1182" width="862.1" height="15.818" transform="translate(0 366.598)" fill="#6A2186"></rect><rect id="Rectangle_1183" data-name="Rectangle 1183" width="862.1" height="15.818" transform="translate(0 333.271)" fill="#6A2186"></rect><rect id="Rectangle_1184" data-name="Rectangle 1184" width="862.1" height="15.818" transform="translate(0 299.944)" fill="#6A2186"></rect><rect id="Rectangle_1185" data-name="Rectangle 1185" width="862.1" height="15.818" transform="translate(0 266.617)" fill="#6A2186"></rect><rect id="Rectangle_1186" data-name="Rectangle 1186" width="862.1" height="15.818" transform="translate(0 233.29)" fill="#6A2186"></rect><rect id="Rectangle_1187" data-name="Rectangle 1187" width="862.1" height="15.818" transform="translate(0 199.963)" fill="#6A2186"></rect><rect id="Rectangle_1188" data-name="Rectangle 1188" width="862.1" height="15.818" transform="translate(0 166.636)" fill="#6A2186"></rect><rect id="Rectangle_1189" data-name="Rectangle 1189" width="862.1" height="15.818" transform="translate(0 133.309)" fill="#6A2186"></rect></g></g></g></g></g><g id="Group_1180" data-name="Group 1180" transform="translate(0 0)"><g id="Group_1179" data-name="Group 1179" clip-path="url(#clip-path-6)"><path id="Path_3239" data-name="Path 3239" d="M856.925,581.558H430.772a10.4,10.4,0,0,1-10.4-10.395v-4.352a29.1,29.1,0,0,1,29.1-29.1H838.219a29.1,29.1,0,0,1,29.1,29.1v4.352a10.4,10.4,0,0,1-10.395,10.395" transform="translate(-214.25 -274.052)" fill="#2d2d2d"></path><path id="Path_3240" data-name="Path 3240" d="M875.05,1092.792a418.092,418.092,0,0,1-42.36,2.967,418.112,418.112,0,0,1-42.36-2.967s-4.514,41.825,41.974,41.7l.387,0,.386,0c46.488.12,41.973-41.7,41.973-41.7" transform="translate(-402.74 -556.955)" fill="#be1717"></path><path id="Path_3241" data-name="Path 3241" d="M875.052,1092.792a412.7,412.7,0,0,1-42.36,2.968,412.7,412.7,0,0,1-42.36-2.968,37.111,37.111,0,0,0-.06,5.24c8.427,3.265,21.8,5.918,42.42,5.844,20.624.074,33.993-2.579,42.42-5.844a37.111,37.111,0,0,0-.06-5.24" transform="translate(-402.741 -556.955)" fill="#fff"></path><path id="Path_3242" data-name="Path 3242" d="M875.625,1147.566c-6.74-5.565-16.479-9.672-30.555-9.9v-.011l-.347.005-.347-.005v.011c-14.077.23-23.816,4.337-30.556,9.9,6.257,5.686,15.841,9.833,30.516,9.795.13,0,.258,0,.386,0s.257,0,.387,0c14.675.038,24.259-4.109,30.516-9.795" transform="translate(-414.773 -579.819)" fill="#ff2929"></path><path id="Path_3243" data-name="Path 3243" d="M832.183,1134.458h-.144l-.394,0-.374,0c-.656,0-1.3-.008-1.934-.023l-.426-.01c-.614-.017-1.222-.042-1.819-.075l-.305-.019q-.793-.047-1.561-.111l-.377-.031q-.843-.074-1.657-.17l-.433-.052q-.712-.088-1.4-.19l-.293-.042c-.509-.078-1.008-.165-1.5-.254l-.5-.094c-.473-.091-.94-.185-1.4-.287-.092-.02-.183-.042-.275-.064l-.154-.036q-.523-.121-1.034-.251l-.045-.011c-.169-.043-.339-.086-.506-.131q-.611-.164-1.206-.34c-.168-.05-.332-.1-.5-.152l-.095-.029q-.374-.117-.74-.238c-.279-.092-.556-.187-.828-.283s-.535-.191-.8-.29c-.232-.087-.46-.177-.688-.268-.163-.065-.323-.131-.484-.2q-.613-.254-1.206-.523l-.33-.15c-.256-.119-.51-.24-.761-.363l-.036-.019c-.491-.241-1.019-.518-1.544-.81l-.114-.063c-20.385-11.4-18.127-36.152-18.021-37.2a1.021,1.021,0,0,1,.372-.69,1.006,1.006,0,0,1,.745-.219l.159.02a414.62,414.62,0,0,0,42.083,2.939,414.657,414.657,0,0,0,42.069-2.939l.158-.02a.994.994,0,0,1,1.116.894c.108,1.063,2.365,25.814-18.023,37.217l-.1.058c-.545.3-1.062.573-1.582.829-.254.125-.509.246-.766.366l-.325.148q-.595.27-1.212.525c-.158.066-.317.131-.479.2-.229.091-.459.181-.691.269-.258.1-.521.193-.786.287s-.557.193-.839.287c-.243.081-.489.16-.737.238l-.119.037c-.158.05-.315.1-.476.146q-.593.176-1.205.339c-.176.047-.355.093-.533.138-.358.091-.7.174-1.049.254l-.156.037-.278.065c-.456.1-.922.2-1.394.286q-.249.048-.5.094c-.493.089-.991.176-1.5.254l-.295.042c-.459.068-.927.131-1.4.19l-.434.053q-.816.095-1.656.17l-.379.031q-.769.065-1.559.111l-.307.019h0q-.9.048-1.819.074l-.424.01c-.59.013-1.185.023-1.791.023m-.538-1.991.4,0c.636,0,1.264-.008,1.883-.022l.413-.01c.6-.017,1.189-.04,1.769-.072h0l.3-.019q.764-.045,1.511-.107l.367-.03q.814-.073,1.6-.165l.419-.051q.687-.085,1.354-.183l.284-.041c.489-.075.969-.159,1.445-.245.162-.03.323-.059.482-.091.453-.087.9-.177,1.339-.275l.416-.1q.5-.116.989-.24c.191-.048.361-.091.529-.136q.585-.156,1.153-.324c.151-.045.3-.091.448-.138l.12-.037q.354-.11.7-.226.4-.134.8-.274c.252-.089.5-.179.749-.273.222-.084.44-.17.657-.255.152-.061.3-.124.454-.186q.587-.243,1.151-.5l.307-.14c.246-.115.487-.229.725-.346.494-.243.983-.5,1.495-.783l.1-.057c17.272-9.66,17.332-29.551,17.088-34.276a414.505,414.505,0,0,1-41.437,2.848,414.514,414.514,0,0,1-41.451-2.848c-.246,4.787-.158,24.629,17.085,34.275l.078.043c.526.292,1.025.553,1.512.793.247.122.487.236.731.349l.313.143q.561.254,1.144.5c.153.063.305.126.459.187.216.086.434.172.654.255.25.095.5.186.759.276s.523.182.789.27q.35.116.707.227l.1.03c.155.049.311.1.469.144q.568.169,1.154.325c.159.043.32.084.482.124l.046.012q.491.124.992.24l.165.039.246.057c.441.1.89.188,1.344.276l.483.091c.474.086.954.17,1.445.245l.282.04q.668.1,1.355.184l.419.051q.791.092,1.6.165l.366.03q.747.062,1.513.108l.3.018c.581.032,1.171.055,1.77.072l.413.01c.62.014,1.243.025,1.884.022Z" transform="translate(-401.705 -555.922)" fill="#f8a364"></path><path id="Path_3244" data-name="Path 3244" d="M872.27,1098.769c-21.31,34.274-59.932,45.427-87.914,32.141l-16.331,1.3c-9.755,13.2-39.831,19.679-52.292,15.762-.826-6.837,1.122-4.831,5.982-7.637H700.008c4.859,2.806,6.808.8,5.982,7.637-12.462,3.916-42.537-2.56-52.292-15.762l-16.331-1.3c-27.983,13.286-66.6,2.133-87.914-32.141,20.836,42.748,65.768,79.287,160.3,83.045v.088c.374-.012,1.848-.012,2.222,0v-.088c94.53-3.758,139.462-40.3,160.3-83.045" transform="translate(-280.035 -560.001)" fill="#2d2d2d"></path><path id="Path_3245" data-name="Path 3245" d="M132.023,1391.465s-9.137-9.23-9.161-17.673c-.006-8.418-.673-12.527-10.53-28.553-9.794-15.935-9.1-28.562-9.1-28.562s-17.753,3.978-3.5,29.453c8.735,15.6-36.26-13.1-48.83-23.075,0,0-11.364-.138-3.172,14.7s-4.843,7.667,12.616,35.272c17.46,27.585,43.908,52.509,62.475,39.381,18.574-13.108,9.209-20.947,9.209-20.947" transform="translate(-22.809 -671.061)" fill="#fdd4a9"></path><path id="Path_3246" data-name="Path 3246" d="M355.592,1372.047l7.7,106.063-89.36,62.276c-18.259,7.41-33.489,4.015-46.041-8.933l-89.9-82.032c4.811-24.511,30.7-51.312,46.041-52.644l71.689,69.825,1.844-5.04h8.247c47.579-41,66.686-68.68,89.777-89.514" transform="translate(-70.331 -699.281)" fill="#fcfbfb"></path><path id="Path_3247" data-name="Path 3247" d="M1216,1508.769,1148.16,1388.5c-40.336-62.014-82.21-1-53.785,36.923l68.565,119.252c35.559,47.436,82.574,15.254,53.064-35.9" transform="translate(-553.005 -694.129)" fill="#fcfbfb" fill-rule="evenodd"></path><path id="Path_3248" data-name="Path 3248" d="M1157.069,1644.047q55.487,2.827,111.044,5.616,55.52,2.81,111.115,5.616-23.005,40.426-46.013,80.812-22.989,40.4-46.009,80.792l-67.289-1.279-67.24-1.278q1.091-42.556,2.183-85.129,1.091-42.556,2.208-85.149" transform="translate(-587.475 -837.909)" fill="#c642f8" fill-rule="evenodd"></path><path id="Path_3249" data-name="Path 3249" d="M1307.619,1632.272c7.346.369,14.74.745,22.11,1.118,1.625-6.146,3.219-12.294,4.829-18.458.906-3.469,7.42-6.015,14.46-5.65,6.992.365,11.825,3.516,10.709,6.981-1.963,6.1-3.909,12.22-5.862,18.32,7.346.372,14.739.746,22.132,1.118,3.767.189,6.229,1.957,5.464,3.919-1.093,2.8-2.181,5.611-3.3,8.4q-19.954-.99-39.887-1.958t-39.866-1.94c.526-2.855,1.07-5.69,1.624-8.565.386-2.006,3.792-3.472,7.581-3.283m40.392-19.581c-3.226-.167-6.2,1-6.65,2.6s1.793,3.036,4.96,3.193,6.122-.988,6.6-2.585-1.686-3.043-4.912-3.211" transform="translate(-661.751 -820.173)" fill="#263238" fill-rule="evenodd"></path><path id="Path_3250" data-name="Path 3250" d="M1520.8,1806.714l-23.888-13.372c-11.4-6.384-21.005,12-9.281,17.334l23.889,13.372c11.472,6.19,20.125-10.552,9.281-17.334" transform="translate(-755.462 -913.32)" fill="#fdd4a9" fill-rule="evenodd"></path><path id="Path_3251" data-name="Path 3251" d="M1501.655,1841.161l-27.993-15.515c-12.428-6.888-22.056,11.479-9.325,17.312l27.992,15.516c12.4,6.87,21.166-10.034,9.326-17.313" transform="translate(-743.257 -929.686)" fill="#fdd4a9" fill-rule="evenodd"></path><path id="Path_3252" data-name="Path 3252" d="M1484.012,1875.5l-23.041-12.857c-11.66-6.507-20.726,10.787-8.764,16.268l23.041,12.857c11.629,6.488,19.888-9.428,8.763-16.268" transform="translate(-737.262 -948.585)" fill="#fdd4a9" fill-rule="evenodd"></path><path id="Path_3253" data-name="Path 3253" d="M1473.571,1908.9l-18.164-10.244c-9.778-5.515-17.425,9.069-7.368,13.677l18.164,10.244c9.753,5.5,16.721-7.928,7.368-13.677" transform="translate(-735.598 -967.046)" fill="#fdd4a9" fill-rule="evenodd"></path></g></g></g></g></g><rect id="Rectangle_1211" data-name="Rectangle 1211" width="456.08" height="248.822" transform="translate(150.269 1134.039)" fill="#455a64"></rect><g id="Group_1194" data-name="Group 1194"><g id="Group_1193" data-name="Group 1193" clip-path="url(#clip-path)"><path id="Path_3326" data-name="Path 3326" d="M496.751,551.032s-.053-1.55-.079-4.491c-.019-2.979-.045-7.323-.083-13.007-.041-11.435-.105-28.2-.188-49.734-.09-43.065-.229-105.173-.395-181.59l.745.745c-121.2.06-281.189.143-456.046.233h-.034l.978-.978c-.023,87.931-.041,172.093-.064,248.822l-.914-.918,327.85.444c40.338.109,72.34.192,94.31.252l25.168.113,6.511.053c1.467.019,2.242.057,2.242.057s-.7.038-2.133.056l-6.406.053-24.98.113c-21.925.06-53.856.143-94.1.252-80.769.109-194.876.263-328.459.44l-.918,0v-.918c-.019-76.729-.041-160.891-.064-248.822v-.978H40.7c174.857.087,334.85.169,456.046.233h.745v.745c-.165,76.609-.3,138.875-.4,182.045-.079,21.466-.143,38.175-.184,49.572-.038,5.62-.064,9.919-.083,12.868-.026,2.893-.079,4.337-.079,4.337" transform="translate(109.598 831.829)" fill="#263238"></path><path id="Path_3327" data-name="Path 3327" d="M99.546,367.707H54.695V322.856H99.546Zm-41.09-3.761H95.785V326.617H58.456Z" transform="translate(151.036 891.542)" fill="#263238"></path><path id="Path_3328" data-name="Path 3328" d="M98.825,393.814a30.568,30.568,0,0,1-.2-3.619q-.085-3.8-.218-9.825c-.109-8.614-.256-20.41-.433-34.451l.846.846c-13.992.041-30.392.086-47.89.135-.218.211,1.851-1.85.978-.974v3.265l0,3.246q-.006,3.233-.008,6.4-.011,6.336-.026,12.383c-.034,8.023-.064,15.606-.1,22.591l-.846-.846c14.045.177,25.837.323,34.451.429q6.031.141,9.825.222a29.579,29.579,0,0,1,3.618.2,20.419,20.419,0,0,1-3.269.192q-3.724.09-9.633.222l-34.993.433-.843.011,0-.858c-.03-6.985-.064-14.568-.1-22.591q-.011-6.037-.026-12.383,0-3.165-.008-6.4v-6.511c-.876.873,1.189-1.2.982-.985l47.89.132.858,0-.011.843c-.177,14.263-.323,26.243-.433,34.989q-.135,5.919-.222,9.637a19.817,19.817,0,0,1-.192,3.269" transform="translate(137.34 952.487)" fill="#263238"></path><rect id="Rectangle_1212" data-name="Rectangle 1212" width="303.227" height="58.2" transform="translate(303.122 1134.043)" fill="#263238"></rect><path id="Path_3329" data-name="Path 3329" d="M155.882,309.712c0,.542-24.385.978-54.462.978s-54.469-.436-54.469-.978,24.382-.978,54.469-.978,54.462.436,54.462.978" transform="translate(129.652 852.546)" fill="#263238"></path><rect id="Rectangle_1213" data-name="Rectangle 1213" width="41.09" height="41.09" transform="translate(188.978 1197.649)" fill="#c642f8"></rect><rect id="Rectangle_1214" data-name="Rectangle 1214" width="47.894" height="47.894" transform="translate(188.271 1298.406)" fill="#c642f8"></rect><path id="Path_3330" data-name="Path 3330" d="M75.5,353.37V370.5H58.181Z" transform="translate(160.662 975.803)" fill="#fff"></path><path id="Path_3331" data-name="Path 3331" d="M113.719,393.814a29.588,29.588,0,0,1-.2-3.619q-.085-3.8-.222-9.825c-.105-8.614-.252-20.41-.429-34.451l.846.846c-13.993.041-30.392.086-47.89.135-.218.211,1.851-1.85.978-.974v.809l0,.82v4.882q-.006,3.233-.008,6.4-.011,6.336-.026,12.383c-.034,8.023-.068,15.606-.1,22.591l-.846-.846c14.045.177,25.837.323,34.451.429q6.031.141,9.825.222a29.579,29.579,0,0,1,3.618.2,20.42,20.42,0,0,1-3.269.192q-3.724.09-9.633.222l-34.993.433-.843.011,0-.858c-.03-6.985-.064-14.568-.1-22.591q-.011-6.037-.026-12.383,0-3.165-.008-6.4v-6.511c-.876.873,1.189-1.2.982-.985l47.89.132.858,0-.011.843c-.177,14.263-.323,26.243-.433,34.989q-.135,5.919-.222,9.637a20.4,20.4,0,0,1-.192,3.269" transform="translate(178.468 952.487)" fill="#263238"></path><rect id="Rectangle_1215" data-name="Rectangle 1215" width="47.894" height="47.894" transform="translate(244.293 1298.406)" fill="#eb996e"></rect><path id="Path_3332" data-name="Path 3332" d="M90.4,353.37V370.5H73.075Z" transform="translate(201.791 975.803)" fill="#fff"></path><path id="Path_3333" data-name="Path 3333" d="M128.613,393.814a30.183,30.183,0,0,1-.192-3.619q-.09-3.8-.222-9.825c-.109-8.614-.256-20.41-.433-34.451l.846.846c-13.993.041-30.392.086-47.887.135-.222.211,1.847-1.85.974-.974v3.265l0,3.246q0,3.233-.008,6.4-.011,6.336-.023,12.383c-.038,8.023-.068,15.606-.1,22.591l-.85-.846c14.045.177,25.837.323,34.451.429q6.031.141,9.825.222a29.579,29.579,0,0,1,3.618.2,20.419,20.419,0,0,1-3.269.192q-3.724.09-9.633.222l-34.992.433-.843.011,0-.858c-.03-6.985-.064-14.568-.1-22.591q-.011-6.037-.026-12.383,0-3.165,0-6.4l0-3.246v-3.265c-.876.873,1.192-1.2.986-.985l47.887.132.858,0-.011.843c-.177,14.263-.324,26.243-.433,34.989q-.135,5.919-.218,9.637a19.992,19.992,0,0,1-.2,3.269" transform="translate(219.597 952.487)" fill="#263238"></path><rect id="Rectangle_1216" data-name="Rectangle 1216" width="47.894" height="47.894" transform="translate(300.316 1298.406)" fill="#ffbe9d"></rect><path id="Path_3334" data-name="Path 3334" d="M105.29,353.37V370.5H87.969Z" transform="translate(242.92 975.803)" fill="#fff"></path><path id="Path_3335" data-name="Path 3335" d="M143.507,393.814a29.58,29.58,0,0,1-.2-3.619q-.085-3.8-.218-9.825c-.109-8.614-.256-20.41-.433-34.451l.846.846c-13.993.041-30.392.086-47.89.135-.218.211,1.851-1.85.978-.974v1.629l0,1.636v3.246q-.006,3.233-.008,6.4-.011,6.336-.026,12.383c-.034,8.023-.064,15.606-.1,22.591l-.846-.846c14.045.177,25.837.323,34.451.429q6.031.141,9.825.222a29.58,29.58,0,0,1,3.619.2,20.42,20.42,0,0,1-3.269.192q-3.724.09-9.633.222l-34.993.433-.843.011,0-.858c-.03-6.985-.064-14.568-.1-22.591q-.011-6.037-.026-12.383,0-3.165-.008-6.4v-6.511c-.876.873,1.192-1.2.982-.985l47.89.132.858,0-.011.843c-.177,14.263-.323,26.243-.433,34.989q-.135,5.919-.222,9.637a20.4,20.4,0,0,1-.192,3.269" transform="translate(260.726 952.487)" fill="#263238"></path><rect id="Rectangle_1217" data-name="Rectangle 1217" width="47.894" height="47.894" transform="translate(356.339 1298.406)" fill="#263238"></rect><path id="Path_3336" data-name="Path 3336" d="M120.185,353.37V370.5H102.863Z" transform="translate(284.049 975.803)" fill="#fff"></path><path id="Path_3337" data-name="Path 3337" d="M158.4,393.814a28.675,28.675,0,0,1-.2-3.619q-.085-3.8-.218-9.825c-.113-8.614-.256-20.41-.436-34.451l.85.846c-13.992.041-30.392.086-47.89.135-.218.211,1.847-1.85.978-.974v1.629l0,1.636v3.246c-.008,2.155-.008,4.292-.011,6.4q-.011,6.336-.023,12.383c-.038,8.023-.064,15.606-.1,22.591l-.843-.846c14.045.177,25.833.323,34.447.429q6.031.141,9.825.222a29.766,29.766,0,0,1,3.622.2,20.507,20.507,0,0,1-3.272.192q-3.724.09-9.629.222l-34.993.433-.843.011,0-.858c-.034-6.985-.068-14.568-.1-22.591q-.011-6.037-.03-12.383,0-3.165-.008-6.4v-6.511c-.876.873,1.2-1.2.985-.985l47.89.132.854,0-.008.843c-.181,14.263-.323,26.243-.436,34.989q-.13,5.919-.222,9.637a20.206,20.206,0,0,1-.188,3.269" transform="translate(301.855 952.487)" fill="#263238"></path><rect id="Rectangle_1218" data-name="Rectangle 1218" width="47.894" height="47.894" transform="translate(412.365 1298.406)" fill="#ebebeb"></rect><path id="Path_3338" data-name="Path 3338" d="M135.079,353.37V370.5H117.758Z" transform="translate(325.178 975.803)" fill="#fff"></path><path id="Path_3339" data-name="Path 3339" d="M173.3,393.814a29.588,29.588,0,0,1-.2-3.619q-.085-3.8-.222-9.825c-.105-8.614-.252-20.41-.429-34.451l.846.846c-13.992.041-30.392.086-47.89.135-.218.211,1.851-1.85.978-.974v1.629l0,1.636v3.246q-.006,3.233-.008,6.4-.011,6.336-.026,12.383c-.034,8.023-.068,15.606-.1,22.591l-.846-.846c14.045.177,25.837.323,34.451.429q6.031.141,9.825.222a29.58,29.58,0,0,1,3.619.2,20.419,20.419,0,0,1-3.269.192q-3.724.09-9.633.222l-34.993.433-.843.011,0-.858c-.03-6.985-.064-14.568-.1-22.591q-.011-6.037-.026-12.383,0-3.165-.008-6.4v-6.511c-.876.873,1.189-1.2.982-.985l47.89.132.858,0-.011.843c-.177,14.263-.323,26.243-.433,34.989q-.135,5.919-.222,9.637a20.4,20.4,0,0,1-.192,3.269" transform="translate(342.986 952.487)" fill="#263238"></path><rect id="Rectangle_1219" data-name="Rectangle 1219" width="47.894" height="47.894" transform="translate(468.388 1298.406)" fill="#f5f5f5"></rect><path id="Path_3340" data-name="Path 3340" d="M149.973,353.37V370.5H132.652Z" transform="translate(366.307 975.803)" fill="#fff"></path><path id="Path_3341" data-name="Path 3341" d="M188.19,393.814A29.236,29.236,0,0,1,188,390.2q-.09-3.8-.222-9.825c-.109-8.614-.256-20.41-.433-34.451l.846.846c-13.992.041-30.392.086-47.89.135-.218.211,1.851-1.85.978-.974v1.629l0,1.636v3.246q0,3.233-.008,6.4-.011,6.336-.026,12.383c-.034,8.023-.064,15.606-.1,22.591l-.846-.846c14.045.177,25.837.323,34.451.429q6.031.141,9.825.222a29.579,29.579,0,0,1,3.619.2,20.419,20.419,0,0,1-3.269.192q-3.724.09-9.633.222l-34.992.433-.843.011,0-.858c-.03-6.985-.064-14.568-.1-22.591q-.011-6.037-.026-12.383,0-3.165-.008-6.4v-6.511c-.876.873,1.192-1.2.982-.985l47.89.132.858,0-.011.843c-.177,14.263-.324,26.243-.433,34.989q-.135,5.919-.218,9.637a20.577,20.577,0,0,1-.2,3.269" transform="translate(384.115 952.487)" fill="#263238"></path><rect id="Rectangle_1220" data-name="Rectangle 1220" width="47.894" height="47.894" transform="translate(524.41 1298.406)" fill="#fafafa"></rect><path id="Path_3342" data-name="Path 3342" d="M164.867,353.37V370.5H147.546Z" transform="translate(407.437 975.803)" fill="#fff"></path><rect id="Rectangle_1221" data-name="Rectangle 1221" width="10.536" height="10.536" transform="translate(542.401 1213.755)" fill="#263238"></rect><rect id="Rectangle_1222" data-name="Rectangle 1222" width="10.536" height="10.536" transform="translate(557.026 1213.755)" fill="#263238"></rect><rect id="Rectangle_1223" data-name="Rectangle 1223" width="10.536" height="10.536" transform="translate(542.401 1227.511)" fill="#263238"></rect><rect id="Rectangle_1224" data-name="Rectangle 1224" width="10.536" height="10.536" transform="translate(557.026 1227.511)" fill="#263238"></rect></g></g><g id="Group_1213" data-name="Group 1213"><path id="Path_3343" data-name="Path 3343" d="M574.521,411.526H528.73S425.4,374.19,404.159,377.76c-19.134,3.212-89.187,49.752-102.916,58.964a8.708,8.708,0,0,0-3.321,4.232,15.02,15.02,0,0,0,8.354,19.089l1.452.6-.628,2.088a24.883,24.883,0,0,0-1.053,8.358c.516,9.84,13.737,12.834,18.77,4.363l-2.644,4.691a11.533,11.533,0,0,0-1.459,6.274l.237,4.262a11.491,11.491,0,0,0,19.939,7.135c8.888-9.772,29.132-24.054,42.113-26.217,11.548-1.926,29.738-7.47,41.357-7.418a14.372,14.372,0,0,1,13.334,9.178c-7.707.549-47.447,18.653-66.446,28.67-5.875,3.1-10.28,8.7-11.051,15.294-.692,5.947,2.31,12.176,14.075,9.43C399.513,520.859,431,509.868,431,509.868s23.434-6.7,38.615,4.017c21.35,15.064,31.133,20.59,49.474,14.508a155.146,155.146,0,0,0,31.856-14.8l36.128-3.607s34.158-85.373-12.548-98.459" transform="translate(820.106 1042.49)" fill="#ffbe9d"></path><path id="Path_3344" data-name="Path 3344" d="M491.284,459.336a17.51,17.51,0,0,1-2.43,1.783,19.144,19.144,0,0,1-3.148,1.87,31.258,31.258,0,0,1-4.559,2.069,49.888,49.888,0,0,1-31.476,1.049,48.764,48.764,0,0,1-19.36-10.513l-2.238-2.046-2.035-2.313a41.935,41.935,0,0,1-3.758-5.07c-2.306-3.6-4.006-7.59-6.5-11.1a15.9,15.9,0,0,0-10.318-7.124c-4.356-.884-9.057-.29-13.853.109a81.838,81.838,0,0,1-29.836-2.953,86.128,86.128,0,0,1-25.645-12.244,88.938,88.938,0,0,1-10.442-8.689,6.539,6.539,0,0,1-1.727-6.936,6.611,6.611,0,0,1,5.465-4.4l.049,0,.019,0c27.214-1.128,50.463-2.1,67.134-2.787,8.091-.271,14.575-.485,19.247-.643,2.1-.038,3.8-.068,5.119-.094a7.748,7.748,0,0,1,1.772.071,8.209,8.209,0,0,1-1.757.233c-1.32.1-3.009.226-5.108.384-4.664.282-11.141.673-19.221,1.159l-67.1,3.5.064,0a4.751,4.751,0,0,0-3.931,3.2,4.638,4.638,0,0,0,1.29,4.991,88.457,88.457,0,0,0,10.231,8.456,84.72,84.72,0,0,0,25.081,11.931,80.34,80.34,0,0,0,29.136,2.923c4.755-.372,9.6-1,14.387-.03a16.977,16.977,0,0,1,6.62,2.851,20.9,20.9,0,0,1,4.8,5.07c2.61,3.739,4.284,7.767,6.488,11.239a40.522,40.522,0,0,0,3.57,4.894l1.937,2.242,2.14,1.986a47.7,47.7,0,0,0,18.664,10.393,50.032,50.032,0,0,0,30.825-.436c7-2.52,10.246-5.262,10.4-5" transform="translate(893.571 1074.986)" fill="#eb996e"></path><path id="Path_3387" data-name="Path 3387" d="M1091.792,721.272,855.876,720.14,775.919,341.466a33.689,33.689,0,0,0-32.988-26.853H249.9a33.689,33.689,0,0,0-32.912,40.864l81.228,372.449a27.183,27.183,0,0,0,26.559,21.391h801.27c0-19.153-15.1-28.045-34.255-28.045" transform="translate(597.03 868.78)" fill="#e0e0e0"></path><path id="Path_3388" data-name="Path 3388" d="M453.677,749.317c-.527.117-22.768-97.1-49.67-217.128C377.1,412.124,355.718,314.73,356.245,314.613S379.009,411.7,405.918,531.76C432.82,651.784,454.2,749.2,453.677,749.317" transform="translate(983.717 868.78)" fill="#263238"></path><path id="Path_3389" data-name="Path 3389" d="M347.389,382.188c11.691,15.734,9.855,36.888-4.1,47.255s-34.737,6.015-46.427-9.716-9.855-36.892,4.1-47.255,34.737-6.018,46.427,9.716" transform="translate(798.521 1013)" fill="#fff"></path><path id="Path_3390" data-name="Path 3390" d="M437.136,439.74h-18.51a7.829,7.829,0,0,1,0-15.659h18.51a7.829,7.829,0,0,1,0,15.659" transform="translate(1134.391 1171.068)" fill="#263238"></path><path id="Path_3391" data-name="Path 3391" d="M762.981,425.746a8.073,8.073,0,0,1,1,1.091,9.973,9.973,0,0,1,1.715,3.995c.786,3.69-.459,10.13-6.218,14.914-2.9,2.339-6.906,3.694-11.307,4.247a61.256,61.256,0,0,1-14.354-.4c-5.085-.587-10.517-1.384-16.23-.944a26.377,26.377,0,0,0-8.475,1.975c-2.686,1.181-5.462,2.9-6.68,5.616-1.275,2.731-.263,6.011,1.828,8.429a19.779,19.779,0,0,0,8.114,5.612c3.22,1.317,6.7,2.4,9.975,4.314,3.246,1.854,6.259,5.082,6.88,9.182,1.279,8.166-4.626,16.276-12.447,19.112-7.831,3.118-16.415,2.911-24.893,3.141-17.111.256-35.019-1.328-53.454-3.46-18.438-2.163-37.449-4.905-57.008-6.646s-38.75-2.039-57.177-.132c-18.431,1.711-36.215,4.262-53.352,4.57-8.535.177-17.017-.124-24.972-2.242-7.891-2.042-15.362-6.187-19.924-12.612-4.566-6.233-6.74-14.26-4.642-21.38a15.221,15.221,0,0,1,15.975-11.277,8.677,8.677,0,0,1,7.331,6.244,11.584,11.584,0,0,1-9.133,13.771,14.28,14.28,0,0,1-8.083-1.1,19.091,19.091,0,0,1-9.87-10.344,34.9,34.9,0,0,1-2.5-11.826c-.282-7.26.384-12.83.365-16.622.03-1.892,0-3.336-.03-4.307a8.6,8.6,0,0,1-.011-1.474,7.679,7.679,0,0,1,.211,1.463c.1.967.192,2.419.226,4.322.147,3.8-.4,9.419,0,16.569a34.469,34.469,0,0,0,2.592,11.5,18.142,18.142,0,0,0,9.449,9.712,13.183,13.183,0,0,0,7.448.952,9.939,9.939,0,0,0,6.47-4.292,9.806,9.806,0,0,0,1.595-7.971,7.317,7.317,0,0,0-6.251-5.224,13.79,13.79,0,0,0-14.331,10.325c-1.9,6.549.139,14.105,4.5,20,4.329,6.037,11.393,9.945,19.055,11.912,7.7,2.02,16.024,2.3,24.494,2.1,16.99-.354,34.71-2.93,53.213-4.675,18.51-1.941,37.9-1.644,57.527.09,19.635,1.749,38.656,4.506,57.057,6.692,18.4,2.159,36.219,3.769,53.213,3.562,8.448-.188,16.93-.015,24.265-2.93a18.671,18.671,0,0,0,8.892-6.887,14.674,14.674,0,0,0,2.6-10.355c-.527-3.543-3.069-6.342-6.082-8.106-3.047-1.8-6.466-2.908-9.746-4.266a21.214,21.214,0,0,1-8.662-6.09,11.982,11.982,0,0,1-2.445-4.683,8.185,8.185,0,0,1,.47-5.232c1.531-3.265,4.6-5.021,7.429-6.263a27.519,27.519,0,0,1,8.9-2c5.905-.4,11.4.466,16.456,1.1a60.678,60.678,0,0,0,14.113.557c4.273-.478,8.177-1.749,10.942-3.919,5.589-4.48,6.947-10.675,6.3-14.245a11.441,11.441,0,0,0-2.332-5.153" transform="translate(1146.039 1175.662)" fill="#263238"></path><g id="Group_1216" data-name="Group 1216" transform="translate(-14.167)"><path id="Path_3386" data-name="Path 3386" d="M946.386,454.289h-469.1c0-18.134,13.517-32.837,30.2-32.837H916.193c16.675,0,30.193,14.7,30.193,32.837" transform="translate(1317.983 1163.808)" fill="#263238"></path><path id="Path_3392" data-name="Path 3392" d="M938.17,426.5c0,.542-102.941.978-229.9.978-127,0-229.921-.436-229.921-.978s102.92-.978,229.921-.978c126.956,0,229.9.436,229.9.978" transform="translate(1320.61 1175.058)" fill="#455a64"></path></g></g><g class="g2"><g id="Group_1210" data-name="Group 1210"><g id="Group_1209" data-name="Group 1209" transform="translate(-10 -120)" clip-path="url(#clip-path-25)"><path class="f01" id="Path_3393" data-name="Path 3393" d="M579.564,405.491l65.558-10.017a199.531,199.531,0,0,0,104.056,32.867c110.688,3.359,203.143-83.647,206.506-194.334S872.038,30.868,761.35,27.505s-203.14,83.647-206.5,194.334a199.585,199.585,0,0,0,38.246,123.928l-.087-.071Z" transform="translate(1531.911 75.693)" fill="#fff"></path><path id="Path_3394" data-name="Path 3394" d="M580.048,406.091s.241-1.256.79-3.807q.846-3.91,2.468-11.4c2.23-10.182,5.514-25.179,9.787-44.674a.41.41,0,0,1,.485-.312.418.418,0,0,1,.173.087l.087.071-.591.557a201.894,201.894,0,0,1-22.016-38.348A198.719,198.719,0,0,1,556.4,255.367a196.579,196.579,0,0,1-1.772-31.2c.756-10.773,1.14-22.027,3.664-33.345A199.79,199.79,0,0,1,584.7,122.626,202.687,202.687,0,0,1,720.424,30.193a204.106,204.106,0,0,1,92.452,5.326c15.459,4.156,30.14,11.205,44.475,18.98q5.134,3.34,10.3,6.692l5.168,3.359c1.689,1.17,3.242,2.531,4.875,3.792q4.835,3.854,9.7,7.722c3.171,2.663,6.022,5.7,9.057,8.546,6.154,5.469,11.175,11.95,16.513,18.089l1.982,2.317,1.76,2.486,3.494,4.976c2.261,3.355,4.781,6.534,6.816,10.009q2.979,5.258,5.943,10.491c.974,1.749,2,3.472,2.93,5.24l2.434,5.473q2.432,5.467,4.849,10.9c1.482,3.675,2.561,7.493,3.852,11.217a199.9,199.9,0,0,1-22.174,171.739A201.133,201.133,0,0,1,802.7,424.04l-8.346,1.866-4.126.914-4.164.5c-5.529.643-10.964,1.365-16.317,1.911-10.762.124-21.173.752-31.137-.312a199.741,199.741,0,0,1-93.238-32.495l.3.064-48.981,7.222q-8.2,1.191-12.48,1.809c-2.787.4-4.16.568-4.16.568s1.482-.271,4.314-.73q4.3-.688,12.571-2.016l48.609-7.688a.448.448,0,0,1,.3.064,199.843,199.843,0,0,0,92.881,31.912c9.9,1.023,20.248.361,30.934.211,5.315-.557,10.705-1.294,16.2-1.948l4.13-.508,4.093-.918q4.108-.931,8.283-1.877A199.216,199.216,0,0,0,945.181,166.409c-1.283-3.686-2.351-7.466-3.822-11.1q-2.392-5.383-4.8-10.8l-2.411-5.416c-.918-1.753-1.937-3.457-2.9-5.191q-2.934-5.18-5.886-10.385c-2.016-3.442-4.514-6.59-6.755-9.911l-3.457-4.927-1.745-2.464-1.964-2.294c-5.289-6.075-10.261-12.5-16.354-17.912-3.009-2.814-5.826-5.826-8.967-8.463L876.5,69.9c-1.614-1.249-3.152-2.6-4.826-3.758l-5.119-3.325-10.2-6.628c-14.192-7.7-28.722-14.692-44.035-18.811A199.78,199.78,0,0,0,586.1,123.491a198.427,198.427,0,0,0-26.356,67.6c-2.543,11.228-2.949,22.4-3.735,33.1a195.794,195.794,0,0,0,1.659,31,198.453,198.453,0,0,0,14.542,52.641,202.678,202.678,0,0,0,21.7,38.288.409.409,0,0,1-.591.557l-.086-.071.658-.226c-4.458,19.326-7.888,34.191-10.216,44.287Q581.919,398.2,581,402.149c-.609,2.584-.956,3.942-.956,3.942" transform="translate(1531.428 75.093)" fill="#263238"></path><path id="Path_3395" data-name="Path 3395" d="M742.474,228.61l-49.782,22.621a48.114,48.114,0,0,1-63.708-23.9L580.214,120.01,717.6,57.578,766.371,164.9a48.11,48.11,0,0,1-23.9,63.707" transform="translate(1602.217 158.997)" fill="#e0e0e0"></path><path id="Path_3396" data-name="Path 3396" d="M743.416,229.5c-.154-.248,4.751-1.933,11.773-7.989a49.716,49.716,0,0,0,10.3-13.319,46.933,46.933,0,0,0,5.522-21.764,44.32,44.32,0,0,0-1.715-13.15c-1.128-4.506-3.374-8.869-5.48-13.545-4.262-9.306-8.851-19.326-13.729-29.975-9.738-21.335-20.635-45.194-32.378-70.91l1.215.455-93.543,42.579c-15.012,6.816-29.738,13.5-43.824,19.9l.481-1.279,40.526,89.454c3.111,6.771,5.984,13.5,9.042,19.763a47.29,47.29,0,0,0,46.032,25.871c11.059-.677,19.864-6.1,27.917-9.434l20.462-9.129L738.9,231.36c1.407-.6,2.516-1.072,3.351-1.429a6.571,6.571,0,0,1,1.166-.429,6.611,6.611,0,0,1-1.091.594c-.82.395-1.9.922-3.28,1.587-3,1.407-7.271,3.408-12.744,5.977l-20.334,9.407-12.789,5.849a48.67,48.67,0,0,1-63.011-22.467c-3.148-6.376-6.007-13-9.159-19.789-12.39-27.188-26.127-57.317-40.732-89.36l-.4-.876.884-.4c14.083-6.4,28.8-13.1,43.809-19.921,33.048-15,64.708-29.358,93.6-42.466l.839-.38.38.835c11.649,25.758,22.456,49.658,32.119,71.027,4.815,10.679,9.344,20.725,13.552,30.054,2.05,4.649,4.311,9.121,5.447,13.782a45.292,45.292,0,0,1,1.64,13.5,47.52,47.52,0,0,1-5.875,22.159,49.489,49.489,0,0,1-10.675,13.361,48.727,48.727,0,0,1-8.836,5.984c-1.031.5-1.847.888-2.475,1.192a4.376,4.376,0,0,1-.861.357" transform="translate(1601.276 158.105)" fill="#263238"></path><path id="Path_3397" data-name="Path 3397" d="M580.525,120.092c26.616,5.469,51.569,5.695,76.071-6.052s48.135-32.059,60.54-56.23Z" transform="translate(1603.076 159.638)" fill="#c642f8"></path><path id="Path_3398" data-name="Path 3398" d="M710.244,63.437a13.907,13.907,0,0,1,2.347,2.5c1.647,1.994,3.717,4.487,6.244,7.542,5.586,6.977,13.21,16.494,22.5,28.1,4.739,5.992,9.9,12.518,15.418,19.5,2.746,3.6,5.672,6.94,8.523,11.077a27.8,27.8,0,0,1,4.424,14.6,28.583,28.583,0,0,1-4.187,15.49,29,29,0,0,1-12.593,11.017c-9.934,4.578-20.214,9.317-30.746,14.173l-15.61,7.173c-5.067,2.313-10.239,4.912-15.821,6.082a48.1,48.1,0,0,1-44.035-12.315c-3.468-3.412-6.533-6.771-9.659-10-6.139-6.443-11.875-12.465-17.145-18l-24.664-26.221-6.594-7.237a14.257,14.257,0,0,1-2.144-2.674,14.046,14.046,0,0,1,2.6,2.234c1.854,1.8,4.175,4.062,7.015,6.827,6.3,6.338,14.9,14.982,25.386,25.525,5.353,5.45,11.183,11.382,17.419,17.735,6.365,6.319,12.39,13.831,21.38,17.837a45.184,45.184,0,0,0,29.756,3.28c5.168-1.091,10.032-3.543,15.215-5.924l15.595-7.184c10.532-4.83,20.812-9.55,30.753-14.109A25.379,25.379,0,0,0,766.812,146.8a25.062,25.062,0,0,0-3.867-13.165c-2.505-3.735-5.612-7.425-8.245-10.961-5.413-7.064-10.468-13.665-15.114-19.732-8.971-11.86-16.324-21.583-21.719-28.711-2.34-3.2-4.25-5.815-5.778-7.9a14.107,14.107,0,0,1-1.847-2.889" transform="translate(1619.583 175.165)" fill="#263238"></path><path id="Path_3399" data-name="Path 3399" d="M600.777,82.707a8.338,8.338,0,1,1-11.04-4.141,8.342,8.342,0,0,1,11.04,4.141" transform="translate(1615.014 214.889)" fill="#263238"></path><path id="Path_3400" data-name="Path 3400" d="M670.528,58.117c2.185,2.908-.8,7.948.756,11.235a16.291,16.291,0,0,1-3.148,18.476,5,5,0,0,0-.963,1.3c-1.76,3.43-.726,7.568.346,11.277q2.657,9.191,5.311,18.39c1.1,3.81,2.215,7.726,1.854,11.675s-2.535,7.989-6.24,9.4c-5.349,2.031-11.141-2.125-14.267-6.917-3.919-6-5.808-13.485-12.755-17.077-3.238-1.674-7.312-1.512-9.911,1.046-6.579,6.466,3.923,16.806-2.223,23.08a7.562,7.562,0,0,1-6.729,1.948c-5.116-.922-8.339-4.894-11.356-8.7l-14.237-17.972Z" transform="translate(1648.476 160.486)" fill="#c642f8"></path></g></g></g></g></svg> 