<?xml version="1.0" encoding="UTF-8"?> <svg xmlns="http://www.w3.org/2000/svg" xmlns:xlink="http://www.w3.org/1999/xlink" width="2307.005" height="2452.831" viewBox="0 0 2307.005 2452.831"><style> .v-1{ animation-name: transt-2; transform-box: fill-box; animation-fill-mode: both; animation-duration: 1.5s; transform-origin: center; animation-iteration-count: infinite; } .v-2{ animation-name: transt-2; transform-box: fill-box; animation-fill-mode: both; animation-delay: .2s; animation-duration: 1.5s; transform-origin: center; animation-iteration-count: infinite; } .v-3{ animation-delay: .4s; animation-name: transt-2; transform-box: fill-box; transform-origin: center; animation-fill-mode: both; animation-duration: 1.5s; animation-iteration-count: infinite; } .v-4{ transform-origin: center; animation-delay: .4s; animation-name: transt-2; transform-box: fill-box; animation-fill-mode: both; animation-duration: 1.5s; animation-iteration-count: infinite; } .v-5{ animation-delay: .6s; animation-name: transt-2; transform-box: fill-box; animation-fill-mode: both; transform-origin: center; animation-duration: 1.5s; animation-iteration-count: infinite; } .v-6{ animation-delay: .8s; animation-name: transt-2; transform-box: fill-box; transform-origin: center; animation-fill-mode: both; animation-duration: 1.5s; animation-iteration-count: infinite; } .v-7{ animation-delay: 1s; transform-origin: center; animation-name: transt-2; transform-box: fill-box; animation-fill-mode: both; animation-duration: 1.5s; animation-iteration-count: infinite; } .v-8{ transform-origin: center; animation-delay: 1.2s; animation-name: transt-2; transform-box: fill-box; animation-fill-mode: both; animation-duration: 1.5s; animation-iteration-count: infinite; } .v1{ animation-name: transt-1; transform-box: fill-box; animation-fill-mode: both; animation-duration: 1.5s; transform-origin: center; animation-iteration-count: infinite; } .v2{ animation-name: transt-1; transform-box: fill-box; animation-fill-mode: both; animation-delay: .2s; animation-duration: 1.5s; transform-origin: center; animation-iteration-count: infinite; } .v3{ animation-delay: .4s; animation-name: transt-1; transform-box: fill-box; transform-origin: center; animation-fill-mode: both; animation-duration: 1.5s; animation-iteration-count: infinite; } .v4{ transform-origin: center; animation-delay: .4s; animation-name: transt-1; transform-box: fill-box; animation-fill-mode: both; animation-duration: 1.5s; animation-iteration-count: infinite; } .v5{ animation-delay: .6s; animation-name: transt-1; transform-box: fill-box; animation-fill-mode: both; transform-origin: center; animation-duration: 1.5s; animation-iteration-count: infinite; } .v6{ animation-delay: .8s; animation-name: transt-1; transform-box: fill-box; transform-origin: center; animation-fill-mode: both; animation-duration: 1.5s; animation-iteration-count: infinite; } .v7{ animation-delay: 1s; transform-origin: center; animation-name: transt-1; transform-box: fill-box; animation-fill-mode: both; animation-duration: 1.5s; animation-iteration-count: infinite; } .v8{ transform-origin: center; animation-delay: 1.2s; animation-name: transt-1; transform-box: fill-box; animation-fill-mode: both; animation-duration: 1.5s; animation-iteration-count: infinite; } .v9{ animation-delay: 1.4s; transform-origin: center; animation-name: transt-1; transform-box: fill-box; animation-fill-mode: both; animation-duration: 1.5s; animation-iteration-count: infinite; } .v10{ animation-delay: 1.6s; transform-origin: center; animation-name: transt-1; transform-box: fill-box; animation-fill-mode: both; animation-duration: 1.5s; animation-iteration-count: infinite; animation-timing-function: linear; } .v11{ animation-delay: 1.8s; transform-origin: center; animation-name: transt-1; transform-box: fill-box; animation-fill-mode: both; animation-duration: 1.5s; animation-iteration-count: infinite; animation-timing-function: linear; } .v12{ animation-delay: 2s; transform-origin: center; animation-name: transt-1; transform-box: fill-box; animation-fill-mode: both; animation-duration: 1.5s; animation-iteration-count: infinite; animation-timing-function: linear; } .v13{ animation-delay: 2.2s; transform-origin: center; animation-name: transt-1; transform-box: fill-box; animation-fill-mode: both; animation-duration: 1.5s; animation-iteration-count: infinite; animation-timing-function: linear; } .v14{ animation-delay: 2.4s; transform-origin: center; animation-name: transt-1; transform-box: fill-box; animation-fill-mode: both; animation-duration: 1.5s; animation-iteration-count: infinite; animation-timing-function: linear; } .v15{ animation-delay: 2.6s; transform-origin: center; animation-name: transt-1; transform-box: fill-box; animation-fill-mode: both; animation-duration: 1.5s; animation-iteration-count: infinite; animation-timing-function: linear; } .v16{ animation-delay: 2.8s; transform-origin: center; animation-name: transt-1; transform-box: fill-box; animation-fill-mode: both; animation-duration: 1.5s; animation-iteration-count: infinite; animation-timing-function: linear; } .v17{ animation-delay:3s; transform-origin: center; animation-name: transt-1; transform-box: fill-box; animation-fill-mode: both; animation-duration: 1.5s; animation-iteration-count: infinite; animation-timing-function: linear; } .v18{ animation-delay:3.2s; transform-origin: center; animation-name: transt-1; transform-box: fill-box; animation-fill-mode: both; animation-duration: 1.5s; animation-iteration-count: infinite; animation-timing-function: linear; } @keyframes transt-1 { 0% { transform: scale(.5); } 50% { transform:scale(1); } 100% { transform: scale(.5); } } .v-1{ animation-name: transt-2; transform-box: fill-box; animation-fill-mode: both; animation-duration: 1.5s; transform-origin: center; animation-iteration-count: infinite; } .v-2{ animation-name: transt-2; transform-box: fill-box; animation-fill-mode: both; animation-delay: .2s; animation-duration: 1.5s; transform-origin: center; animation-iteration-count: infinite; } .v-3{ animation-delay: .4s; animation-name: transt-2; transform-box: fill-box; transform-origin: center; animation-fill-mode: both; animation-duration: 1.5s; animation-iteration-count: infinite; } .v-4{ transform-origin: center; animation-delay: .4s; animation-name: transt-2; transform-box: fill-box; animation-fill-mode: both; animation-duration: 1.5s; animation-iteration-count: infinite; } .v-5{ animation-delay: .6s; animation-name: transt-2; transform-box: fill-box; animation-fill-mode: both; transform-origin: center; animation-duration: 1.5s; animation-iteration-count: infinite; } .v-6{ animation-delay: .8s; animation-name: transt-2; transform-box: fill-box; transform-origin: center; animation-fill-mode: both; animation-duration: 1.5s; animation-iteration-count: infinite; } .v-7{ animation-delay: 1s; transform-origin: center; animation-name: transt-2; transform-box: fill-box; animation-fill-mode: both; animation-duration: 1.5s; animation-iteration-count: infinite; } .v-8{ transform-origin: center; animation-delay: 1.2s; animation-name: transt-2; transform-box: fill-box; animation-fill-mode: both; animation-duration: 1.5s; animation-iteration-count: infinite; } @keyframes transt-2 { 0% { transform: translateY(0px); } 50% { transform: translateY(-20px); } 100% { transform: translateY(0px); } } .vr{ animation-name: rotate1; animation-fill-mode: both; animation-duration: 3.5s; transform-origin: center; transform-box: fill-box; animation-iteration-count: infinite; animation-timing-function: linear; } @keyframes rotate1 { from{ transform: rotate(0deg); } to{ transform: rotate(360deg); } } .f1 { animation-name: fill-1; transform-box: fill-box; animation-fill-mode: both; animation-delay: .0s; animation-duration: 2.5s; transform-origin: center; animation-iteration-count: infinite; } .f2 { animation-name: fill-1; transform-box: fill-box; animation-fill-mode: both; animation-delay: .2s; animation-duration: 2.5s; transform-origin: center; animation-iteration-count: infinite; } .f3 { animation-name: fill-1; transform-box: fill-box; animation-fill-mode: both; animation-delay: .4s; animation-duration: 2.5s; transform-origin: center; animation-iteration-count: infinite; } .f4 { animation-name: fill-1; transform-box: fill-box; animation-fill-mode: both; animation-delay: .6s; animation-duration: 2.5s; transform-origin: center; animation-iteration-count: infinite; } .f5 { animation-name: fill-1; transform-box: fill-box; animation-fill-mode: both; animation-delay: .6s; animation-duration: 2.5s; transform-origin: center; animation-iteration-count: infinite; } .f6{ animation-name: fill-1; transform-box: fill-box; animation-fill-mode: both; animation-delay: .6s; animation-duration: 2.5s; transform-origin: center; animation-iteration-count: infinite; } .f7 { animation-name: fill-1; transform-box: fill-box; animation-fill-mode: both; animation-delay: .6s; animation-duration: 2.5s; transform-origin: center; animation-iteration-count: infinite; } @keyframes fill-1{ 0% { fill:#FFD100; } 50% { fill:#FFD100; } 100% { fill:#FFD100; } } .vt2 { animation-name: transt-3; animation-fill-mode: both; animation-duration: 1s; transform-origin: center; animation-iteration-count: infinite; } @keyframes transt-3 { 0% { transform: translateY(0px); } 50% { transform: translateY(-5px); } 100% { transform: translateY(0px); } } </style><defs><clipPath id="clip-path"><rect id="Rectangle_481" data-name="Rectangle 481" width="1047.943" height="640.634" fill="none"></rect></clipPath><clipPath id="clip-path-3"><rect id="Rectangle_479" data-name="Rectangle 479" width="1047.943" height="602.597" fill="none"></rect></clipPath><clipPath id="clip-path-4"><rect id="Rectangle_471" data-name="Rectangle 471" width="2306.818" height="2388.235" fill="none"></rect></clipPath><clipPath id="clip-path-5"><rect id="Rectangle_473" data-name="Rectangle 473" width="2306.818" height="2388.235" fill="#FFD100"></rect></clipPath><clipPath id="clip-path-7"><rect id="Rectangle_9797" data-name="Rectangle 9797" width="11.112" height="20.207" fill="none"></rect></clipPath><clipPath id="clip-path-8"><rect id="Rectangle_9798" data-name="Rectangle 9798" width="11.114" height="20.207" fill="none"></rect></clipPath><clipPath id="clip-path-9"><rect id="Rectangle_9799" data-name="Rectangle 9799" width="29.393" height="19.969" fill="none"></rect></clipPath><clipPath id="clip-path-10"><rect id="Rectangle_9800" data-name="Rectangle 9800" width="17.577" height="21.425" fill="none"></rect></clipPath><clipPath id="clip-path-11"><rect id="Rectangle_9801" data-name="Rectangle 9801" width="72.588" height="27.457" fill="none"></rect></clipPath><clipPath id="clip-path-17"><rect id="Rectangle_9807" data-name="Rectangle 9807" width="94.821" height="42.029" fill="none"></rect></clipPath><clipPath id="clip-path-18"><rect id="Rectangle_9808" data-name="Rectangle 9808" width="92.703" height="522.837" fill="none"></rect></clipPath><clipPath id="clip-path-20"><path id="Path_37539" data-name="Path 37539" d="M603.366,615.673c-266.417,26.213-345.214,280.118-220.893,782.388,10.182-30.88,23.134-72.963,43.928-98.576-24.136-184.566-34.782-343.45,25.523-413.168,51.812,19.518,270.132,19.518,321.948,0,60.306,69.721,49.451,230.14,25.33,414.71,18.654,25.246,32.712,66.16,42.895,97.04,124.307-502.275,46.75-756.18-219.668-782.393Z" transform="translate(-324.952 -615.673)" fill="none"></path></clipPath><clipPath id="clip-path-21"><rect id="Rectangle_9830" data-name="Rectangle 9830" width="1102.108" height="1076.854" fill="none"></rect></clipPath><clipPath id="clip-path-22"><rect id="Rectangle_9858" data-name="Rectangle 9858" width="1076.85" height="1102.105" fill="none"></rect></clipPath><clipPath id="clip-path-23"><rect id="Rectangle_482" data-name="Rectangle 482" width="268.212" height="268.212" fill="none"></rect></clipPath></defs><g id="Group_464" data-name="Group 464" transform="translate(-250 -206)"><g id="Group_458" data-name="Group 458" transform="translate(1126.276 2018.197)"><g id="Group_457" data-name="Group 457" clip-path="url(#clip-path)"><g id="Group_456" data-name="Group 456"><g id="Group_455" data-name="Group 455" clip-path="url(#clip-path)"><g id="Group_454" data-name="Group 454" transform="translate(0 38.037)" opacity="0.3" style="mix-blend-mode: multiply;isolation: isolate"><g id="Group_453" data-name="Group 453"><g id="Group_452" data-name="Group 452" clip-path="url(#clip-path-3)"><path id="Path_1373" data-name="Path 1373" d="M944.94,133.695,829.082,66.806,742.917,97.933a639.043,639.043,0,0,0-119.1-28.544L600.426,12.028l-163.379-.044L414.381,69.389A632.127,632.127,0,0,0,295.523,97.981L209.082,66.806,93.9,133.743,148,183.711c-22.482,21.732-38.882,44.935-48.972,68.94L0,265.966.609,360.6l99.1,13.359c10.36,23.916,26.944,47.163,49.673,68.9L95.922,492.87,211.78,559.762l86.168-31.131a642.151,642.151,0,0,0,119.178,28.592l23.31,57.313,163.379.044,7.081-4.2,15.584-53.2a632.907,632.907,0,0,0,118.937-28.547L831.856,559.8l115.182-66.937-54.1-49.969c22.482-21.733,38.806-44.979,48.9-68.984l99.029-13.315,7.081-4.206-7.691-90.431-99.026-13.315c-10.436-23.961-27.02-47.207-49.746-68.94Z" transform="translate(0 -11.984)" fill="#b3b3b3"></path></g></g></g><path id="Path_1374" data-name="Path 1374" d="M947.171,132.37,831.313,65.481,745.148,96.608a639.043,639.043,0,0,0-119.1-28.544L602.657,10.7l-163.379-.044L416.612,68.064A632.125,632.125,0,0,0,297.754,96.656L211.313,65.481,96.131,132.418l54.1,49.969c-22.482,21.733-38.882,44.935-48.972,68.94L2.231,264.641l.609,94.637,99.1,13.359c10.36,23.916,26.944,47.163,49.673,68.9L98.153,491.545l115.858,66.892,86.168-31.131A642.153,642.153,0,0,0,419.357,555.9l23.31,57.313,163.379.044,22.666-57.405A632.9,632.9,0,0,0,747.649,527.3l86.438,31.175,115.182-66.937-54.1-49.969c22.482-21.732,38.805-44.979,48.9-68.984l99.029-13.315-.609-94.637-99.026-13.315c-10.436-23.961-27.021-47.207-49.746-68.94Z" transform="translate(4.85 23.173)" fill="#ef8181"></path><path id="Path_1375" data-name="Path 1375" d="M336.559,72.178V38.346L283.1,88.359v33.832Z" transform="translate(615.462 83.366)" fill="#d86a6a"></path><path id="Path_1376" data-name="Path 1376" d="M31.815,38.362V72.193l54.1,49.969V88.33Z" transform="translate(69.166 83.399)" fill="#d86a6a"></path><path id="Path_1377" data-name="Path 1377" d="M947.171,121.711,831.313,54.822,745.148,85.949a639.043,639.043,0,0,0-119.1-28.544L602.657.044,439.277,0,416.612,57.405A632.125,632.125,0,0,0,297.754,86L211.313,54.822,96.131,121.759l54.1,49.969c-22.482,21.732-38.882,44.935-48.972,68.94L2.231,253.982l.609,94.637,99.1,13.363c10.36,23.913,26.944,47.16,49.673,68.892L98.153,480.886l115.858,66.892,86.168-31.131a642.148,642.148,0,0,0,119.178,28.592l23.31,57.313,163.379.044,22.666-57.405a632.9,632.9,0,0,0,118.937-28.547l86.438,31.175,115.182-66.937-54.1-49.969c22.482-21.733,38.805-44.979,48.9-68.984l99.029-13.315-.609-94.637-99.026-13.315c-10.436-23.961-27.021-47.207-49.746-68.94Z" transform="translate(4.85)" fill="#6A2186"></path><path id="Path_1378" data-name="Path 1378" d="M68.954,227.737V193.9l86.168-31.131v33.832Z" transform="translate(149.906 353.874)" fill="#d86a6a"></path><path id="Path_1379" data-name="Path 1379" d="M156.96,229.1V262.93l-23.31-57.316V171.781Z" transform="translate(290.557 373.456)" fill="#d86a6a"></path><path id="Path_1380" data-name="Path 1380" d="M192.468,263V229.173l22.666-57.405V205.6Z" transform="translate(418.429 373.426)" fill="#d86a6a"></path><path id="Path_1381" data-name="Path 1381" d="M323.521,227.78V193.948L237.08,162.773V196.6Z" transform="translate(515.416 353.871)" fill="#d86a6a"></path><path id="Path_1382" data-name="Path 1382" d="M298.963,156.984V123.152l99.029-13.318v33.832Z" transform="translate(649.95 238.78)" fill="#d86a6a"></path><path id="Path_1383" data-name="Path 1383" d="M101.525,157.027V123.2l-99.1-13.359v33.832Z" transform="translate(5.267 238.785)" fill="#d86a6a"></path><path id="Path_1384" data-name="Path 1384" d="M32.452,151.507v33.832L148.31,252.232V218.4Z" transform="translate(70.551 329.38)" fill="#ef8181"></path><path id="Path_1385" data-name="Path 1385" d="M379.5,185.338V151.506L264.314,218.443v33.832Z" transform="translate(574.623 329.377)" fill="#ef8181"></path><ellipse id="Ellipse_1" data-name="Ellipse 1" cx="233.502" cy="403.128" rx="233.502" ry="403.128" transform="translate(125.392 529.769) rotate(-89.838)" fill="none" stroke="#fff" stroke-miterlimit="10" stroke-width="2"></ellipse></g></g></g></g><g id="Group_442" data-name="Group 442" transform="translate(250 206)"><g id="Group_444" data-name="Group 444"><g id="Group_428" data-name="Group 428"><g id="Group_427" data-name="Group 427" clip-path="url(#clip-path-4)"><g class="vr"><path class="f1" id="Path_1246" data-name="Path 1246" d="M192.359,36.387A102.49,102.49,0,0,1,217.39,25.511L222.539.733,264.4,0l6.029,24.578A102.655,102.655,0,0,1,295.82,34.57L316.973,20.7l30.121,29.08L333.986,71.4A103.123,103.123,0,0,1,344.862,96.44l24.766,5.155.733,41.86-24.578,6.023a102.807,102.807,0,0,1-9.986,25.4l13.863,21.154L320.586,226.15l-21.628-13.114a102.579,102.579,0,0,1-25.031,10.876l-5.16,24.772-41.849.733-6.029-24.578a102.527,102.527,0,0,1-25.4-9.992l-21.159,13.869-30.11-29.08,13.114-21.623a102.632,102.632,0,0,1-10.881-25.036l-24.772-5.155-.733-41.854,24.572-6.028a102.8,102.8,0,0,1,10-25.392L141.651,53.388l29.08-30.116Zm22.313,55.761a44.905,44.905,0,1,0,63.493-1.116,44.912,44.912,0,0,0-63.493,1.116" transform="translate(531.239)" fill="#e0e0e0"></path></g><g class="vr"><path class="f6" id="Path_1247" data-name="Path 1247" d="M169.581,281.376a59.205,59.205,0,0,1,14.43-6.271l2.977-14.289,24.141-.421,3.473,14.171a59,59,0,0,1,14.645,5.764l12.2-8,17.368,16.77-7.565,12.472a59.049,59.049,0,0,1,6.277,14.435l14.284,2.976.426,24.136L258.062,346.6a59.2,59.2,0,0,1-5.759,14.645l8,12.2-16.77,17.368-12.472-7.56a59.065,59.065,0,0,1-14.44,6.271l-2.971,14.289-24.141.421-3.473-14.171a59,59,0,0,1-14.645-5.764l-12.2,8-17.368-16.77,7.565-12.472a58.961,58.961,0,0,1-6.277-14.435l-14.284-2.971-.426-24.141,14.176-3.472a59.114,59.114,0,0,1,5.759-14.645l-8-12.2,16.77-17.368Zm12.866,32.159a25.9,25.9,0,1,0,36.624-.642,25.9,25.9,0,0,0-36.624.642" transform="translate(576.578 1195.207)" fill="#e0e0e0"></path></g><g class="vr"><path class="f2" id="Path_1248" data-name="Path 1248" d="M61.41,43.1a40.4,40.4,0,0,1,9.852-4.281l2.033-9.749,16.473-.291,2.373,9.674a40.426,40.426,0,0,1,10,3.931l8.331-5.457L122.32,48.373l-5.16,8.514a40.4,40.4,0,0,1,4.281,9.852l9.755,2.033.286,16.473-9.674,2.373a40.509,40.509,0,0,1-3.931,10l5.457,8.331L111.886,117.8l-8.514-5.166a40.314,40.314,0,0,1-9.852,4.281l-2.033,9.755-16.473.286-2.373-9.674a40.592,40.592,0,0,1-10-3.931l-8.326,5.457L42.461,107.364l5.16-8.514A40.225,40.225,0,0,1,43.34,89l-9.749-2.027L33.3,70.492l9.674-2.373a40.4,40.4,0,0,1,3.936-10L41.448,49.8,52.9,37.939Zm8.784,21.952a17.677,17.677,0,1,0,25-.442,17.676,17.676,0,0,0-25,.442" transform="translate(146.261 126.399)" fill="#e0e0e0"></path></g><g class="vr"><path class="f3" id="Path_1249" data-name="Path 1249" d="M233.042,48.1a80,80,0,0,1,19.477-8.466l4.012-19.277,32.569-.566,4.686,19.121a79.947,79.947,0,0,1,19.762,7.77l16.457-10.79L353.44,58.519l-10.2,16.824A79.888,79.888,0,0,1,351.7,94.82l19.272,4.012.571,32.569-19.121,4.691a79.8,79.8,0,0,1-7.776,19.757l10.79,16.462-22.626,23.435-16.824-10.2A79.776,79.776,0,0,1,296.514,194L292.5,213.281l-32.564.572-4.691-19.126a79.909,79.909,0,0,1-19.757-7.77l-16.462,10.79-23.434-22.631,10.2-16.824a79.771,79.771,0,0,1-8.46-19.477L178.053,134.8l-.572-32.569,19.126-4.686a79.739,79.739,0,0,1,7.77-19.762l-10.79-16.457,22.626-23.435Zm17.363,43.386a34.943,34.943,0,1,0,49.409-.868,34.941,34.941,0,0,0-49.409.868" transform="translate(779.535 86.909)" fill="#ebebeb"></path></g><g class="vr"><path class="f7" id="Path_1250" data-name="Path 1250" d="M387.083,194.3a75.871,75.871,0,0,1,18.533-8.053l3.817-18.345,30.994-.544,4.46,18.2a76.077,76.077,0,0,1,18.809,7.4l15.663-10.268,22.3,21.534-9.708,16.011a75.963,75.963,0,0,1,8.053,18.537l18.341,3.817.544,30.995-18.2,4.46a75.824,75.824,0,0,1-7.4,18.8l10.268,15.667-21.53,22.3L466.018,325.1a75.682,75.682,0,0,1-18.537,8.053L443.664,351.5l-30.994.544-4.46-18.2a76.052,76.052,0,0,1-18.8-7.4l-15.663,10.268-22.3-21.53,9.708-16.015a75.966,75.966,0,0,1-8.053-18.537l-18.345-3.817-.544-30.995,18.2-4.46a76.035,76.035,0,0,1,7.394-18.8l-10.264-15.667,21.53-22.3Zm16.522,41.29a33.253,33.253,0,1,0,47.021-.827,33.253,33.253,0,0,0-47.021.827" transform="translate(1386.891 1288.242)" fill="#e0e0e0"></path></g><path class="f4" id="Path_1251" data-name="Path 1251" d="M586.743,115.484c0-69.727-63.019-124.749-135.21-111.2-45.408,8.525-81.595,45.613-89.548,91.123a112.793,112.793,0,0,0,13.88,77.287H375.8l.324.431c4.341,7.312,9.782,12.553,15.282,20.242l65.758,87.1a20.445,20.445,0,0,0,32.644,0L554.47,194.8s12.068-14.386,16.446-21.785l.237-.318h-.049a112.531,112.531,0,0,0,15.637-57.211M473.485,164.791a49.843,49.843,0,1,1,49.84-49.835,49.834,49.834,0,0,1-49.84,49.835" transform="translate(1339.954 58.317)" fill="#e0e0e0"></path><path class="f5" id="Path_1252" data-name="Path 1252" d="M132.87,432.866c22.356-14.953,34.78-43.424,29.161-73.032-7.387-38.781-42.852-64.62-79.222-57.713-36.354,6.907-59.854,43.941-52.466,82.722,5.689,29.878,28.066,51.884,54.672,57.341-98.268,34.963-72.25,144.1-72.25,144.1l239.614-45.51S236.18,428.482,132.87,432.866" transform="translate(42.366 1208.646)" fill="#ebebeb"></path><g class="vr"><path class="f6" id="Path_1253" data-name="Path 1253" d="M240.069,561.3l-49.323-12.154S180.539,590.56,137.321,580.7c-22.448-5.122-30.428-22.62-32.375-35-2.259-14.37,3.052-28.805,13.357-39.083,11.766-11.728,33.184-19.752,64.982-5.705l27.4-111.214-48.773-12.014-16.053,65.143s-72.757.83-91.333,76.214C36.761,591.164,97.316,623.852,125,630.673c21.175,5.22,94.563,17.87,115.07-69.376" transform="translate(452.265 1457.323)" fill="#ebebeb"></path><rect id="Rectangle_470" data-name="Rectangle 470" width="47.61" height="50.979" transform="translate(619.238 1811.947) rotate(-76.158)" fill="#ebebeb"></rect></g></g></g><g id="Group_430" data-name="Group 430"><g id="Group_429" data-name="Group 429" clip-path="url(#clip-path-5)"><path id="Path_1254" data-name="Path 1254" d="M104.95,372.075H217.507l-9.954,50.536H4.644l8.04-40.2L134.812,286.7c30.245-24.119,39.433-38.285,39.433-55.9s-13.4-29.479-39.433-29.479c-21.439,0-42.113,9.959-57.044,27.953l-41.73-30.245c21.439-29.485,61.638-49,107.963-49,56.661,0,93.8,30.245,93.8,71.975,0,31.776-14.548,58.57-61.638,94.941Z" transform="translate(20.397 658.96)" fill="#FFD100"></path><path id="Path_1255" data-name="Path 1255" d="M296.276,362.59H252.248l-11.1,56.279H180.661l11.485-56.279H47.813l8.04-41.73L213.586,150.881H281.35L134.337,312.054h70.439l9.959-50.153h57.8l-9.949,50.153h44.022Z" transform="translate(210.006 662.701)" fill="#FFD100"></path><path id="Path_1256" data-name="Path 1256" d="M286.671,140.8h55.9L145.783,501.435H90.27Z" transform="translate(396.487 618.417)" fill="#FFD100"></path><path id="Path_1257" data-name="Path 1257" d="M364.272,150.88l-8.04,40.194L213.052,418.868H144.14L281.582,201.411H194.67l-8.8,43.65H130.74l18.76-94.18Z" transform="translate(574.24 662.7)" fill="#FFD100"></path><g class="v1"><path id="Path_1258" data-name="Path 1258" d="M0,346.7l15.681-29.754a88.241,88.241,0,0,0,46.831,13.874c15.276,0,24.119-4.826,24.119-12.467,0-18.894-68.341-8.439-68.341-52.66,0-30.353,25.931-50.25,67.538-50.25,19.9,0,37.994,4.217,50.655,12.057l-14.467,29.549c-11.059-7.037-24.729-10.655-38.6-10.655-16.484,0-25.327,6.034-25.327,13.669-.2,19.3,68.341,8.239,68.341,51.663,0,30.148-26.53,50.045-67.737,50.045C34.575,361.77,12.661,355.337,0,346.7" transform="translate(0 946.264)" fill="#FFD100"></path></g><g class="v2"><path id="Path_1259" data-name="Path 1259" d="M86.374,246.719l-4.621,23.715h62.512l-5.829,29.754H75.719L70.694,325.92h73.771l-6.433,30.752H25.27l28.142-140.71H163.558l-6.228,30.757Z" transform="translate(110.99 948.551)" fill="#FFD100"></path></g><g class="v3"><path id="Path_1260" data-name="Path 1260" d="M156.245,314.456l23.92,42.21H138.553l-20.9-37.384h-20.1l-7.436,37.384h-39.8l28.142-140.7h60.1c35.982,0,56.688,16.684,56.688,44.825,0,25.931-14.473,45.23-39,53.669m-23.316-67.133H112.024l-8.439,41.207H127.3c17.487,0,27.743-8.444,27.743-23.925,0-11.857-8.444-17.282-22.113-17.282" transform="translate(220.994 948.552)" fill="#FFD100"></path></g><g class="v4"><path id="Path_1261" data-name="Path 1261" d="M239.381,215.962l-88.244,140.7h-39.2l-31.96-140.7H120.79l20.1,91.457,57.486-91.457Z" transform="translate(351.298 948.552)" fill="#FFD100"></path></g><g class="v5"><path id="Path_1262" data-name="Path 1262" d="M134.026,215.962h39.8l-28.142,140.7h-39.8Z" transform="translate(465.068 948.552)" fill="#FFD100"></path></g><g class="v5"><path id="Path_1263" data-name="Path 1263" d="M119.637,299.86c0-48.843,35.977-84.42,88.244-84.42,25.926,0,47.031,9.447,57.082,26.535l-28.741,22.917c-6.632-10.66-16.888-16.489-30.957-16.489-27.333,0-45.424,21.111-45.424,48.848,0,18.894,12.86,31.555,34.37,31.555,12.661,0,24.319-4.821,34.37-16.279L252.1,335.643c-15.88,19.094-36.586,26.125-61.709,26.125-43.219,0-70.757-25.122-70.757-61.908" transform="translate(525.472 946.26)" fill="#FFD100"></path></g><g class="v6"><path id="Path_1264" data-name="Path 1264" d="M207.133,246.719l-4.621,23.715h62.512L259.2,300.188H196.478l-5.026,25.732h73.771l-6.433,30.752H146.023l28.147-140.71H284.318l-6.228,30.757Z" transform="translate(641.367 948.551)" fill="#FFD100"></path></g><path id="Path_1265" data-name="Path 1265" d="M92.371,499.9H13.812c0-109.37,44.254-221.2,121.417-306.806,81.223-90.109,186.6-139.734,296.728-139.734,224.71,0,381.65,164.031,381.65,398.895H735.048c0-191.6-121.8-320.336-303.091-320.336-177.733,0-339.586,175.393-339.586,367.981" transform="translate(60.665 234.351)" fill="#c642f8"></path><path id="Path_1266" data-name="Path 1266" d="M54.893,132.139c12.553.2,22.723,1.262,22.712,2.362s-10.191,2-22.744,2.017-22.717-1.041-22.707-2.362,10.191-2.222,22.739-2.017" transform="translate(141.227 580.254)" fill="#263238"></path><path id="Path_1267" data-name="Path 1267" d="M64.1,107.593c10.509,6.875,18.064,13.966,16.878,15.842s-10.833-1.925-21.536-8.487S41.182,101.3,42.567,99.111,53.6,100.724,64.1,107.593" transform="translate(186.246 432.599)" fill="#263238"></path><path id="Path_1268" data-name="Path 1268" d="M83.388,93.537c5.085,11.48,7.608,21.531,5.635,22.448s-8.029-7.49-13.529-18.776S67.47,75.877,69.859,74.766s8.45,7.3,13.529,18.77" transform="translate(302.878 327.957)" fill="#263238"></path><path id="Path_1269" data-name="Path 1269" d="M113.637,94.4c-3.128,12.159-7.377,21.612-9.485,21.111s-1.661-10.854,1.008-23.122,6.918-21.714,9.49-21.105,2.114,10.962-1.014,23.116" transform="translate(451.613 312.98)" fill="#263238"></path><path id="Path_1270" data-name="Path 1270" d="M149.291,108.522c-10.461,6.951-19.93,11.151-21.154,9.388s6.034-9.161,16.209-16.522,19.638-11.556,21.148-9.382-5.753,9.571-16.2,16.516" transform="translate(562.218 401.593)" fill="#263238"></path><path id="Path_1271" data-name="Path 1271" d="M159.409,129.595c-12.558-.011-22.739-.927-22.744-2.049s10.164-2.152,22.718-2.319,22.734.755,22.739,2.049-10.164,2.335-22.712,2.319" transform="translate(600.263 549.943)" fill="#263238"></path><path id="Path_1272" data-name="Path 1272" d="M209.138,291.441a17.4,17.4,0,0,1-10.7-3.672L66.411,185.231a17.46,17.46,0,1,1,21.423-27.576L208.13,251.091,374.506,98.335a17.459,17.459,0,0,1,23.774,25.575L221.028,286.772a17.452,17.452,0,0,1-11.89,4.67" transform="translate(262.045 411.391)" fill="#c642f8"></path><path id="Path_1273" data-name="Path 1273" d="M230.776,95.293H79.39a4.273,4.273,0,0,1-4.271-4.271V36.211A4.273,4.273,0,0,1,79.39,31.94H230.776a4.27,4.27,0,0,1,4.271,4.271V91.023a4.27,4.27,0,0,1-4.271,4.271" transform="translate(329.939 140.287)" fill="#c642f8"></path><rect id="Rectangle_472" data-name="Rectangle 472" width="82.668" height="74.941" transform="translate(443.688 203.907)" fill="#c642f8"></rect><path id="Path_1274" data-name="Path 1274" d="M131.79,113.031l-62.1,76.9a6.969,6.969,0,0,1-9.8,1.041L17.458,156.708a6.97,6.97,0,0,1-1.046-9.8l62.1-76.9a6.969,6.969,0,0,1,9.8-1.041l42.442,34.268a6.97,6.97,0,0,1,1.041,9.8" transform="translate(65.301 296.12)" fill="#c642f8"></path><path id="Path_1275" data-name="Path 1275" d="M227.332,45c0,.884-33.9,1.6-75.707,1.6-41.822,0-75.718-.717-75.718-1.6s33.9-1.607,75.718-1.607c41.806,0,75.707.723,75.707,1.607" transform="translate(333.405 190.583)" fill="#263238"></path><path id="Path_1276" data-name="Path 1276" d="M68.269,119.294c-.847.965-12.278-7.759-26.406-18.382C27.752,90.257,16.218,81.673,16.908,80.589c.658-1.035,13.421,5.921,27.689,16.694,14.284,10.741,24.486,21.094,23.672,22.011" transform="translate(74.134 353.517)" fill="#263238"></path><path id="Path_1277" data-name="Path 1277" d="M70.7,115.705c-.847.965-12.278-7.759-26.406-18.382C30.188,86.668,18.654,78.078,19.344,77,20,75.965,32.765,82.921,47.033,93.694c14.284,10.741,24.486,21.094,23.672,22.011" transform="translate(84.834 337.753)" fill="#263238"></path><path id="Path_1278" data-name="Path 1278" d="M73.7,112.7c-.847.965-12.278-7.759-26.406-18.382C33.186,83.66,21.652,75.076,22.342,73.992,23,72.957,35.763,79.913,50.031,90.686,64.315,101.427,74.517,111.781,73.7,112.7" transform="translate(98.002 324.542)" fill="#263238"></path><path id="Path_1279" data-name="Path 1279" d="M76.6,109.109c-.847.965-12.278-7.759-26.406-18.382C36.084,80.072,24.55,71.482,25.24,70.4,25.9,69.369,38.661,76.325,52.929,87.1,67.213,97.839,77.415,108.193,76.6,109.109" transform="translate(110.73 308.782)" fill="#263238"></path><path id="Path_1280" data-name="Path 1280" d="M207,179.873l-66.836-72.817a6.969,6.969,0,0,1,.421-9.841l40.188-36.888a6.971,6.971,0,0,1,9.846.426l66.831,72.822a6.953,6.953,0,0,1-.421,9.835l-40.188,36.883a6.96,6.96,0,0,1-9.841-.421" transform="translate(607.59 256.924)" fill="#c642f8"></path><path id="Path_1281" data-name="Path 1281" d="M140.936,105.957c-.83-.981,9.5-10.995,22.1-23.386,12.634-12.375,22.836-22.507,23.8-21.661.927.8-7.846,12.391-20.614,24.9-12.747,12.532-24.5,21.089-25.284,20.145" transform="translate(618.817 267.314)" fill="#263238"></path><path id="Path_1282" data-name="Path 1282" d="M144.124,108.9c-.83-.981,9.5-10.995,22.1-23.386,12.634-12.375,22.836-22.507,23.8-21.661.927.8-7.846,12.391-20.615,24.9-12.747,12.531-24.5,21.089-25.284,20.145" transform="translate(632.819 280.236)" fill="#263238"></path><path id="Path_1283" data-name="Path 1283" d="M146.653,112.31c-.83-.981,9.5-10.995,22.1-23.386,12.634-12.375,22.836-22.507,23.8-21.661.927.8-7.846,12.391-20.614,24.9-12.747,12.531-24.5,21.089-25.284,20.145" transform="translate(643.927 295.218)" fill="#263238"></path><path id="Path_1284" data-name="Path 1284" d="M149.772,115.708c-.83-.981,9.5-10.995,22.1-23.386,12.634-12.375,22.836-22.507,23.8-21.661.927.8-7.846,12.391-20.614,24.9-12.747,12.532-24.5,21.089-25.284,20.145" transform="translate(657.626 310.143)" fill="#263238"></path><path id="Path_1285" data-name="Path 1285" d="M80.917,94.563c-1.256,0-2.276-13.987-2.276-31.237s1.019-31.237,2.276-31.237,2.276,13.982,2.276,31.237-1.019,31.237-2.276,31.237" transform="translate(345.409 140.942)" fill="#263238"></path><path id="Path_1286" data-name="Path 1286" d="M86.41,94.563c-1.256,0-2.275-13.987-2.275-31.237s1.019-31.237,2.275-31.237,2.276,13.982,2.276,31.237S87.667,94.563,86.41,94.563" transform="translate(369.539 140.942)" fill="#263238"></path><path id="Path_1287" data-name="Path 1287" d="M91.9,94.563c-1.256,0-2.27-13.987-2.27-31.237s1.014-31.237,2.27-31.237,2.27,13.982,2.27,31.237S93.157,94.563,91.9,94.563" transform="translate(393.675 140.942)" fill="#263238"></path><path id="Path_1288" data-name="Path 1288" d="M97.4,94.563c-1.256,0-2.275-13.987-2.275-31.237S96.143,32.089,97.4,32.089s2.27,13.982,2.27,31.237S98.656,94.563,97.4,94.563" transform="translate(417.805 140.942)" fill="#263238"></path><path id="Path_1289" data-name="Path 1289" d="M102.893,94.563c-1.256,0-2.276-13.987-2.276-31.237s1.019-31.237,2.276-31.237,2.27,13.982,2.27,31.237-1.014,31.237-2.27,31.237" transform="translate(441.936 140.942)" fill="#263238"></path><path id="Path_1290" data-name="Path 1290" d="M159.94,158.221a39.573,39.573,0,1,1-39.573-39.573,39.575,39.575,0,0,1,39.573,39.573" transform="translate(354.861 521.128)" fill="#c642f8"></path><path id="Path_1291" data-name="Path 1291" d="M161.593,159.626c-.4.016-.329-3.527-2-9.469a39.519,39.519,0,0,0-14.5-20.846,38.217,38.217,0,0,0-35.918-5.1c-13.346,4.632-24.847,18.835-24.7,35.405-.156,16.576,11.351,30.784,24.7,35.416a38.242,38.242,0,0,0,35.923-5.1A39.5,39.5,0,0,0,159.592,169.1c1.672-5.942,1.6-9.485,2-9.469.14,0,.232.868.28,2.545a29.833,29.833,0,0,1-.755,7.306,39.355,39.355,0,0,1-14.284,22.739,40.867,40.867,0,0,1-38.932,6.33C93.149,193.678,80.241,178,80.418,159.621c-.173-18.382,12.731-34.052,27.484-38.916a40.856,40.856,0,0,1,38.926,6.325,39.368,39.368,0,0,1,14.289,22.739,29.879,29.879,0,0,1,.755,7.306c-.049,1.682-.14,2.55-.28,2.55" transform="translate(353.208 519.723)" fill="#263238"></path></g></g><g id="Group_432" data-name="Group 432"><g id="Group_431" data-name="Group 431" clip-path="url(#clip-path-4)"><path id="Path_1292" data-name="Path 1292" d="M360.538,489.749l67.646-10.693a225.914,225.914,0,0,0,113.84,48.357c124.517,15.745,238.234-72.574,254-197.264S723.629,91.614,599.112,75.874s-238.228,72.579-254,197.269A226.711,226.711,0,0,0,374.86,417.283l-.092-.092Z" transform="translate(1507.833 325.28)" fill="#fff"></path><path id="Path_1293" data-name="Path 1293" d="M361.3,490.807s.232-1.5.8-4.583q.89-4.78,2.572-13.809c2.346-12.386,5.786-30.59,10.272-54.278a.6.6,0,0,1,.7-.48.612.612,0,0,1,.313.167l.092.086-.944.733a227.986,227.986,0,0,1-31.793-107.219,223.035,223.035,0,0,1,1.359-35.287c2.011-12.03,3.607-24.632,7.651-37.066A227.109,227.109,0,0,1,456.755,105.021,229.475,229.475,0,0,1,549.89,74.927,225,225,0,0,1,652.822,88.979c33.345,12.887,65,33.534,89.4,61.865l9.194,10.768c2.852,3.748,5.446,7.679,8.169,11.491,5.721,7.468,9.814,15.907,14.516,23.909,2.373,4,3.909,8.406,5.9,12.569,1.768,4.265,4.006,8.331,5.376,12.72,2.723,8.768,6.309,17.244,7.927,26.217a232.859,232.859,0,0,1,.83,105.272A228.8,228.8,0,0,1,602.955,528.9c-12.99,2.125-25.737,2.1-38,2.232-12.23-1.008-24.092-1.477-35.249-3.8a226.043,226.043,0,0,1-101.126-46.767l.453.124c-22.033,3.322-39,5.883-50.563,7.63-5.619.83-9.906,1.467-12.888,1.9-2.874.421-4.281.582-4.281.582s1.553-.307,4.492-.8l13.006-2.189,50.056-8.277a.6.6,0,0,1,.458.124,226.255,226.255,0,0,0,100.727,45.872c11.076,2.259,22.847,2.669,34.969,3.629,12.159-.183,24.793-.2,37.654-2.351A227.066,227.066,0,0,0,791.51,353.192a230.459,230.459,0,0,0-.906-104.021c-1.6-8.859-5.155-17.228-7.846-25.888-1.348-4.341-3.564-8.353-5.311-12.564-1.968-4.114-3.483-8.466-5.834-12.413-4.648-7.9-8.687-16.241-14.343-23.613-2.691-3.769-5.252-7.652-8.067-11.351L740.117,152.7c-24.1-27.986-55.356-48.379-88.281-61.126A222.584,222.584,0,0,0,550.143,77.6,225.959,225.959,0,0,0,354.368,239.659c-4.05,12.305-5.667,24.793-7.711,36.71a221.536,221.536,0,0,0-1.488,34.985,228.137,228.137,0,0,0,30.978,106.68.6.6,0,0,1-.944.733l-.092-.086,1.014-.313c-4.767,23.445-8.423,41.466-10.914,53.723q-1.876,9.115-2.869,13.923c-.652,3.138-1.041,4.794-1.041,4.794" transform="translate(1507.069 324.221)" fill="#263238"></path><g class="v-1"><path id="Path_1294" data-name="Path 1294" d="M398.385,136.313A23.114,23.114,0,1,1,421.5,159.424a23.114,23.114,0,0,1-23.116-23.111" transform="translate(1749.794 497.186)" fill="#263238"></path></g><g class="v-2"><path id="Path_1295" data-name="Path 1295" d="M381.231,136.313a23.114,23.114,0,1,1,23.111,23.111,23.113,23.113,0,0,1-23.111-23.111" transform="translate(1674.45 497.186)" fill="#263238"></path></g><g class="v-3"><path id="Path_1296" data-name="Path 1296" d="M366.647,147.87a23.114,23.114,0,1,1,31.577,8.46,23.11,23.11,0,0,1-31.577-8.46" transform="translate(1596.773 497.185)" fill="#263238"></path></g></g></g></g></g><g> </g><g id="Group_449" data-name="Group 449" transform="translate(1273.068 598.985)"><g class="vt2"><g id="Group_451" data-name="Group 451" transform="translate(115.548 46.913)"><path id="Path_37480" data-name="Path 37480" d="M621.918,677.072,379.592,1006.744l43.136,390.141h199.2Z" transform="translate(-358.869 -677.072)" fill="#FFD100"></path><path id="Path_37481" data-name="Path 37481" d="M699.452,677.072l242.325,329.672-43.136,390.143H699.452Z" transform="translate(-434.352 -677.072)" fill="#FFD100"></path><path id="Path_37483" data-name="Path 37483" d="M592.427,2830.447l21.94-211.829-97.81-14.964,9.654,226.789a23.222,23.222,0,0,1-4.036,13.084l-10.9,15.983h96.086l-10.9-15.984a23.224,23.224,0,0,1-4.037-13.083" transform="translate(-389.947 -1131.706)" fill="#fbd3a8"></path><path id="Path_37484" data-name="Path 37484" d="M487.9,2968.918v22.945c5.1,13.318,129.813,13.815,131.805,0v-21.22a41.76,41.76,0,0,0-2.036-13c-21.706-66.245-114.118-55.944-128.537,1.11a41.474,41.474,0,0,0-1.231,10.166" transform="translate(-384.431 -1204.431)" fill="#6A2186"></path><path id="Path_37485" data-name="Path 37485" d="M503.435,2975.685c14.729-32.948,94.452-33.021,107.968-.225a3.77,3.77,0,0,1-2.414,5.056c-26.4,7.885-83.535,7.445-103.453.279a3.765,3.765,0,0,1-2.111-5.109" transform="translate(-388.018 -1213.65)" fill="#ffd9a4"></path><path id="Path_37486" data-name="Path 37486" d="M594.357,2992.48l3.989-12.906a1.918,1.918,0,0,1,3.628.027l3.2,12.2Z" transform="translate(-409.551 -1220.108)" fill="#6A2186"></path><path id="Path_37487" data-name="Path 37487" d="M517.708,2979.761c-5.228,6.615-6.969,19.56,0,25.247-12.578-.975-23.87-2.835-29.721-8.427l-.089-22.947c0-21.093,14.375-35.8,22.527-41.773-3.3,8.206,1.556,18.918,11.016,20.721-10.62,2.466-17.923,9.234-22.651,19.354-.13,6.072,8.417,7.472,18.918,7.823" transform="translate(-384.431 -1209.152)" fill="#6A2186"></path><g id="Group_28538" data-name="Group 28538" transform="translate(115.497 1748.982)" opacity="0.35"><g id="Group_28537" data-name="Group 28537"><g id="Group_28536" data-name="Group 28536" clip-path="url(#clip-path-7)"><path id="Path_37488" data-name="Path 37488" d="M514.755,2966.252c-5.03,6.681-5.123,17.51-1.624,20.208-4.858-.643-8.724-1.826-9.493-4.666.644-5.615,5.825-11.336,11.112-15.549" transform="translate(-503.643 -2966.246)" fill="#f8a364"></path></g></g></g><g id="Group_28541" data-name="Group 28541" transform="translate(213.307 1748.235)" opacity="0.35"><g id="Group_28540" data-name="Group 28540"><g id="Group_28539" data-name="Group 28539" clip-path="url(#clip-path-8)"><path id="Path_37489" data-name="Path 37489" d="M631.661,2965.271c5.03,6.681,5.123,17.51,1.622,20.207,4.858-.644,8.724-1.828,9.494-4.658-.644-5.617-5.825-11.337-11.112-15.55" transform="translate(-631.661 -2965.271)" fill="#f8a364"></path></g></g></g><g id="Group_28544" data-name="Group 28544" transform="translate(190.111 1720.39)" opacity="0.2"><g id="Group_28543" data-name="Group 28543"><g id="Group_28542" data-name="Group 28542" clip-path="url(#clip-path-9)"><path id="Path_37490" data-name="Path 37490" d="M618.64,2934.581c7.984,5,13.272,10.942,11.814,13.269s-9.114.172-17.1-4.827-13.272-10.941-11.814-13.267,9.114-.172,17.1,4.827" transform="translate(-601.3 -2928.825)" fill="#fff"></path></g></g></g><g id="Group_28547" data-name="Group 28547" transform="translate(213.528 1764.25)" opacity="0.2"><g id="Group_28546" data-name="Group 28546"><g id="Group_28545" data-name="Group 28545" clip-path="url(#clip-path-10)"><path id="Path_37491" data-name="Path 37491" d="M648.035,2986.471a.267.267,0,0,1,.533.018l.965,16.82a2.465,2.465,0,0,1-2.243,2.457l-15.008,1.894a.291.291,0,0,1-.125-.567l12.177-3.921a2.465,2.465,0,0,0,1.754-1.9Z" transform="translate(-631.948 -2986.229)" fill="#fff"></path></g></g></g><g id="Group_28550" data-name="Group 28550" transform="translate(134.613 1659.925)" opacity="0.35"><g id="Group_28549" data-name="Group 28549"><g id="Group_28548" data-name="Group 28548" clip-path="url(#clip-path-11)"><path id="Path_37492" data-name="Path 37492" d="M598.235,2872.026c-20.776,7.742-54.741,6.227-68.68-1.368l-.893-20.971,72.588.977Z" transform="translate(-528.662 -2849.682)" fill="#f8a364"></path></g></g></g><path id="Path_37493" data-name="Path 37493" d="M764.343,2830.442,742.4,2618.624l97.81-14.965-9.654,226.789a23.229,23.229,0,0,0,4.035,13.082l10.9,15.986H749.409l10.9-15.984a23.222,23.222,0,0,0,4.036-13.084" transform="translate(-444.488 -1131.701)" fill="#fbd3a8"></path><path id="Path_37494" data-name="Path 37494" d="M860,2968.918v22.945c-5.1,13.318-129.813,13.815-131.8,0v-21.22a41.756,41.756,0,0,1,2.036-13c21.708-66.245,114.118-55.944,128.539,1.11A41.518,41.518,0,0,1,860,2968.918" transform="translate(-441.133 -1204.431)" fill="#6A2186"></path><path id="Path_37495" data-name="Path 37495" d="M851.639,2975.685c-14.729-32.948-94.452-33.021-107.968-.225a3.77,3.77,0,0,0,2.414,5.056c26.4,7.885,83.535,7.445,103.453.279a3.765,3.765,0,0,0,2.111-5.109" transform="translate(-444.714 -1213.65)" fill="#ffd9a4"></path><path id="Path_37496" data-name="Path 37496" d="M790.91,2992.48l-3.989-12.906a1.92,1.92,0,0,0-3.63.027l-3.2,12.2Z" transform="translate(-453.381 -1220.108)" fill="#6A2186"></path><path id="Path_37497" data-name="Path 37497" d="M860.54,2979.761c5.228,6.615,6.97,19.56,0,25.247,12.58-.975,23.871-2.835,29.719-8.427l.088-22.947c0-21.093-14.375-35.8-22.527-41.773,3.3,8.206-1.556,18.918-11.016,20.721,10.62,2.466,17.922,9.234,22.652,19.354.13,6.072-8.419,7.472-18.918,7.823" transform="translate(-471.484 -1209.152)" fill="#6A2186"></path><g id="Group_28553" data-name="Group 28553" transform="translate(395.726 1748.982)" opacity="0.35"><g id="Group_28552" data-name="Group 28552"><g id="Group_28551" data-name="Group 28551" clip-path="url(#clip-path-8)"><path id="Path_37498" data-name="Path 37498" d="M870.422,2966.252c5.03,6.681,5.125,17.51,1.622,20.208,4.858-.643,8.724-1.826,9.494-4.666-.644-5.615-5.825-11.336-11.112-15.549" transform="translate(-870.422 -2966.246)" fill="#f8a364"></path></g></g></g><g id="Group_28556" data-name="Group 28556" transform="translate(297.915 1748.235)" opacity="0.35"><g id="Group_28555" data-name="Group 28555"><g id="Group_28554" data-name="Group 28554" clip-path="url(#clip-path-7)"><path id="Path_37499" data-name="Path 37499" d="M753.515,2965.271c-5.03,6.681-5.123,17.51-1.622,20.207-4.858-.644-8.724-1.828-9.493-4.658.644-5.617,5.825-11.337,11.112-15.55" transform="translate(-742.403 -2965.271)" fill="#f8a364"></path></g></g></g><g id="Group_28559" data-name="Group 28559" transform="translate(302.831 1720.39)" opacity="0.2"><g id="Group_28558" data-name="Group 28558"><g id="Group_28557" data-name="Group 28557" clip-path="url(#clip-path-9)"><path id="Path_37500" data-name="Path 37500" d="M760.89,2934.581c-7.983,5-13.272,10.942-11.812,13.269s9.114.172,17.1-4.827,13.271-10.941,11.812-13.267-9.114-.172-17.1,4.827" transform="translate(-748.835 -2928.825)" fill="#fff"></path></g></g></g><g id="Group_28562" data-name="Group 28562" transform="translate(291.23 1764.25)" opacity="0.2"><g id="Group_28561" data-name="Group 28561"><g id="Group_28560" data-name="Group 28560" clip-path="url(#clip-path-10)"><path id="Path_37501" data-name="Path 37501" d="M735.145,2986.471a.267.267,0,0,0-.533.019l-.965,16.819a2.467,2.467,0,0,0,2.243,2.457l15.006,1.894a.291.291,0,0,0,.126-.567l-12.178-3.921a2.464,2.464,0,0,1-1.754-1.9Z" transform="translate(-733.653 -2986.229)" fill="#fff"></path></g></g></g><g id="Group_28565" data-name="Group 28565" transform="translate(315.135 1659.925)" opacity="0.35"><g id="Group_28564" data-name="Group 28564"><g id="Group_28563" data-name="Group 28563" clip-path="url(#clip-path-11)"><path id="Path_37502" data-name="Path 37502" d="M767.954,2872.026c20.776,7.742,54.742,6.227,68.68-1.368l.893-20.971-72.588.977Z" transform="translate(-764.941 -2849.682)" fill="#f8a364"></path></g></g></g><path id="Path_37503" data-name="Path 37503" d="M842.326,2669.761c-69.127,50.2-367.382,50.2-409.347,0l19.357-491.65,372.016-2.669Z" transform="translate(-371.473 -1030.656)" fill="#6A2186"></path><path id="Path_37504" data-name="Path 37504" d="M784.752,1094.232,928.857,981.5l59.458,11.939c5.526,47.247-2.37,102.25-16.988,161.142-50.616,103.3-96.618,117.338-96.618,117.338l-89.955-.222Z" transform="translate(-454.48 -748.909)" fill="#2d2d2d"></path><path id="Path_37505" data-name="Path 37505" d="M561.241,1094.232,417.136,981.5l-59.458,11.939c-5.526,47.247,2.37,102.25,16.989,161.142,50.616,103.3,96.618,117.338,96.618,117.338l89.955-.222Z" transform="translate(-353.284 -748.909)" fill="#2d2d2d"></path><path id="Path_37506" data-name="Path 37506" d="M744.262,1435.563c0,15.992-27.57,28.963-61.581,28.963s-61.582-12.966-61.582-28.963,27.571-28.963,61.582-28.963,61.581,12.964,61.581,28.963" transform="translate(-415.863 -849.231)" fill="#aeb5b5"></path><path id="Path_37507" data-name="Path 37507" d="M730.94,1394.1H635.823c.8,38.618-4.579,62.936-10.25,78.143a14.882,14.882,0,0,0,4.116,16.261c20.778,18.57,82.843,25.225,108.113-2.013a14.873,14.873,0,0,0,3.041-15.195c-5.538-15.265-10.679-39.374-9.9-77.2" transform="translate(-416.697 -846.271)" fill="#fbd3a8"></path><g id="Group_28568" data-name="Group 28568" transform="translate(219.187 543.577)" opacity="0.35"><g id="Group_28567" data-name="Group 28567"><g id="Group_28566" data-name="Group 28566" clip-path="url(#clip-path-17)"><path id="Path_37508" data-name="Path 37508" d="M641.933,1388.54l90.727.607,1.517,26.138c-14.242,20.966-84.217,20.084-94.821-.982Z" transform="translate(-639.357 -1388.543)" fill="#f8a364"></path></g></g></g><path id="Path_37509" data-name="Path 37509" d="M635.414,1461.565v1034.4H443.663l13.888-678.164-.224-325.975a5.693,5.693,0,0,1,2.01-4.023c22.926-20.257,62.467-29.016,108.062-33.258a6.411,6.411,0,0,0,5.192-3.6l8.02-16.705a1.792,1.792,0,0,1,3.241.034c12.914,27.243,51.562,27.3,51.562,27.3" transform="translate(-373.991 -855.503)" fill="#6A2186"></path><path id="Path_37510" data-name="Path 37510" d="M410.107,1216.931c-40.986,0-67.119-54.557-54.4-89.767a32.773,32.773,0,0,1,17.479-19.329c14.826-6.361,28.2,1.472,36.917,7.313Z" transform="translate(-352.472 -778.165)" fill="#fbd3a8"></path><path id="Path_37511" data-name="Path 37511" d="M414.691,1140.681c-55.569-19.766-46.195,62.359-.52,64.363" transform="translate(-358.116 -785.752)" fill="#fbbd89"></path><path id="Path_37512" data-name="Path 37512" d="M415.877,1142.486a61.122,61.122,0,0,0-15.1-3.379,32.239,32.239,0,0,0-7.653.267,21.011,21.011,0,0,0-7.135,2.483,16.882,16.882,0,0,0-5.471,5.2,21.637,21.637,0,0,0-2.986,7.117,35.918,35.918,0,0,0-.912,7.807,62.869,62.869,0,0,0,.473,7.915,45.545,45.545,0,0,1-.393-15.9,22.687,22.687,0,0,1,2.735-7.617,18.386,18.386,0,0,1,5.65-5.953,22.962,22.962,0,0,1,7.637-3.13,34.6,34.6,0,0,1,8.174-.724,63.975,63.975,0,0,1,16.012,2.694Z" transform="translate(-358.055 -785.498)" fill="#603813"></path><path id="Path_37513" data-name="Path 37513" d="M973.618,1216.932c40.985,0,67.119-54.557,54.4-89.767a32.771,32.771,0,0,0-17.479-19.33c-14.828-6.36-28.2,1.473-36.915,7.313Z" transform="translate(-499.048 -778.165)" fill="#fbd3a8"></path><path id="Path_37514" data-name="Path 37514" d="M975,1140.681c55.571-19.766,46.2,62.359.52,64.363" transform="translate(-499.378 -785.752)" fill="#fbbd89"></path><path id="Path_37515" data-name="Path 37515" d="M972.021,1139.256a64.032,64.032,0,0,1,16.013-2.693,34.579,34.579,0,0,1,8.174.726,22.942,22.942,0,0,1,7.637,3.129,18.4,18.4,0,0,1,5.649,5.954,22.713,22.713,0,0,1,2.735,7.619,45.522,45.522,0,0,1-.393,15.9,62.62,62.62,0,0,0,.473-7.913,35.926,35.926,0,0,0-.912-7.807,21.639,21.639,0,0,0-2.988-7.117,16.881,16.881,0,0,0-5.471-5.2,21.022,21.022,0,0,0-7.135-2.483,32.31,32.31,0,0,0-7.653-.266,61.166,61.166,0,0,0-15.1,3.379Z" transform="translate(-498.671 -785.501)" fill="#603813"></path><path id="Path_37516" data-name="Path 37516" d="M841.472,852.889H423.707c-56.686,258.221-15.959,428.034,206.018,433.356h5.725c221.977-5.321,262.7-175.134,206.018-433.356" transform="translate(-363.858 -718.561)" fill="#fbd3a8"></path><path id="Path_37517" data-name="Path 37517" d="M605.451,1123.247c0,16.4-8.327,29.687-18.6,29.687s-18.6-13.291-18.6-29.687,8.327-29.687,18.6-29.687,18.6,13.291,18.6,29.687" transform="translate(-403.393 -775.353)" fill="#2d2d2d"></path><path id="Path_37518" data-name="Path 37518" d="M602.311,1112.3c0,6.19-4.053,11.209-9.056,11.209s-9.053-5.017-9.053-11.209,4.053-11.208,9.053-11.208,9.056,5.018,9.056,11.208" transform="translate(-407.156 -777.129)" fill="#fff"></path><path id="Path_37520" data-name="Path 37520" d="M823.908,1123.247c0,16.4-8.327,29.687-18.6,29.687s-18.6-13.291-18.6-29.687,8.325-29.687,18.6-29.687,18.6,13.291,18.6,29.687" transform="translate(-454.943 -775.353)" fill="#2d2d2d"></path><path id="Path_37521" data-name="Path 37521" d="M820.768,1112.3c0,6.19-4.053,11.209-9.054,11.209s-9.054-5.017-9.054-11.209,4.053-11.208,9.054-11.208,9.054,5.018,9.054,11.208" transform="translate(-458.707 -777.129)" fill="#fff"></path><path id="Path_37523" data-name="Path 37523" d="M691.394,1217.228a5.581,5.581,0,0,0,2.658-.286c16.15-4.732,18.487,13.371,5.49,15.014-12.4,1.136-18.926-3.057-22.923-8.428a4.9,4.9,0,0,1,3.152-7.786c3.258-.42,7.51.67,11.621,1.487" transform="translate(-428.738 -804.16)" fill="#f8a364"></path><path id="Path_37524" data-name="Path 37524" d="M801.052,1055.888c-17.87.336-24.651-16.82-12.189-27.264,5.194-4.354,12.313-5.336,19.051-4.613,18.556,1.989,30.053,8.56,32.1,21.264a13.887,13.887,0,0,1-3.987,12.514c-6.536,5.981-16.689,3.687-27.753-.69a18.642,18.642,0,0,0-7.223-1.21" transform="translate(-453.948 -758.895)" fill="#2d2d2d"></path><path id="Path_37525" data-name="Path 37525" d="M589.246,1055.888c17.87.336,24.651-16.82,12.189-27.264-5.194-4.354-12.313-5.336-19.051-4.613-18.556,1.989-30.053,8.56-32.1,21.264a13.886,13.886,0,0,0,3.987,12.514c6.536,5.981,16.689,3.687,27.752-.69a18.644,18.644,0,0,1,7.223-1.21" transform="translate(-399.115 -758.895)" fill="#2d2d2d"></path><path id="Path_37526" data-name="Path 37526" d="M454.638,984.614c-34.177,39.184-42.51,112.073-38.354,190.285-22.5-68.868-13.777-190.285-13.777-190.285Z" transform="translate(-363.887 -749.645)" fill="#2d2d2d"></path><path id="Path_37527" data-name="Path 37527" d="M938.159,984.614c34.176,39.184,42.51,112.073,38.354,190.285,22.5-68.868,13.778-190.285,13.778-190.285Z" transform="translate(-490.681 -749.645)" fill="#2d2d2d"></path><g id="Group_28571" data-name="Group 28571" transform="translate(193.525 577.729)" opacity="0.5"><g id="Group_28570" data-name="Group 28570"><g id="Group_28569" data-name="Group 28569" clip-path="url(#clip-path-18)"><path id="Path_37528" data-name="Path 37528" d="M605.77,1454.544c2.4,23.246,28.168,40.548,59.758,42.891v458.637h32.946l-4.4-454.671-20.29-5.44v-34.394c-23.528-1.36-42.4-9.2-51.682-27.515a1.807,1.807,0,0,0-3.122.179l-8.932,18.1a6.519,6.519,0,0,1-4.28,2.206" transform="translate(-605.77 -1433.243)" fill="#aeb5b5"></path></g></g></g><path id="Path_37529" data-name="Path 37529" d="M704.8,1514.2l-25.584,7.443v453.538" transform="translate(-429.575 -874.615)" fill="none" stroke="#aeb5b5" stroke-miterlimit="10" stroke-width="15"></path><path id="Path_37530" data-name="Path 37530" d="M701.632,1461.567v34.394l-20.292,5.44v994.564H891.5l-12-678.164.222-325.975a5.692,5.692,0,0,0-2.01-4.023c-22.926-20.256-62.467-29.016-108.062-33.258a6.413,6.413,0,0,1-5.194-3.6l-8.018-16.7a1.793,1.793,0,0,0-3.24.034c-12.914,27.243-51.561,27.3-51.561,27.3" transform="translate(-430.078 -855.506)" fill="#6A2186"></path><g id="Group_28574" data-name="Group 28574" transform="translate(246.866 577.729)" opacity="0.5"><g id="Group_28573" data-name="Group 28573"><g id="Group_28572" data-name="Group 28572" clip-path="url(#clip-path-18)"><path id="Path_37531" data-name="Path 37531" d="M768.291,1454.544c-2.4,23.246-28.168,40.548-59.758,42.891v458.637H675.586l4.4-454.671,20.29-5.44v-34.394c23.526-1.36,42.4-9.2,51.682-27.515a1.807,1.807,0,0,1,3.122.179l8.932,18.1a6.519,6.519,0,0,0,4.282,2.206" transform="translate(-675.586 -1433.243)" fill="#aeb5b5"></path></g></g></g><path id="Path_37532" data-name="Path 37532" d="M703.086,1558.792a7.482,7.482,0,1,1-7.482-7.483,7.482,7.482,0,0,1,7.482,7.483" transform="translate(-431.677 -883.377)" fill="#aeb5b5"></path><path id="Path_37533" data-name="Path 37533" d="M703.086,1678.963a7.482,7.482,0,1,1-7.483-7.484,7.482,7.482,0,0,1,7.483,7.484" transform="translate(-431.677 -911.732)" fill="#aeb5b5"></path><path id="Path_37534" data-name="Path 37534" d="M703.086,1805.732a7.482,7.482,0,1,1-7.482-7.482,7.482,7.482,0,0,1,7.482,7.482" transform="translate(-431.677 -941.641)" fill="#aeb5b5"></path><path id="Path_37535" data-name="Path 37535" d="M703.086,1925.892a7.482,7.482,0,1,1-7.482-7.482,7.482,7.482,0,0,1,7.482,7.482" transform="translate(-431.677 -970.003)" fill="#aeb5b5"></path><path id="Path_37536" data-name="Path 37536" d="M703.086,2046.062a7.482,7.482,0,1,1-7.482-7.482,7.482,7.482,0,0,1,7.482,7.482" transform="translate(-431.677 -998.357)" fill="#aeb5b5"></path><path id="Path_37537" data-name="Path 37537" d="M677.393,1267.7v-19.04c-42.256-1.942-68.179,3.748-81.392,17.565a43.512,43.512,0,0,0-11.8,30.125v22.121h20.4c-7.63-17.923-9.839-33.007,0-43.047a24.336,24.336,0,0,1,17.133-7.117Z" transform="translate(-407.157 -811.869)" fill="#2d2d2d"></path><path id="Path_37538" data-name="Path 37538" d="M702.544,1267.7v-19.04c42.254-1.942,68.178,3.748,81.391,17.565a43.509,43.509,0,0,1,11.8,30.125v22.122h-20.4c7.63-17.923,9.839-33.007,0-43.047A24.336,24.336,0,0,0,758.2,1268.3Z" transform="translate(-435.08 -811.869)" fill="#2d2d2d"></path></g></g><g id="Group_28584" data-name="Group 28584" transform="translate(94.521 0)"><g id="Group_28583" data-name="Group 28583" transform="translate(0)" clip-path="url(#clip-path-20)"><rect id="Rectangle_9811" data-name="Rectangle 9811" width="1125.8" height="1076.852" transform="translate(-248.27 -148.607)" fill="#fff"></rect><g id="Group_28579" data-name="Group 28579" transform="translate(-236.425 -148.605)" opacity="0.6"><g id="Group_28578" data-name="Group 28578"><g id="Group_28577" data-name="Group 28577" clip-path="url(#clip-path-21)"><rect id="Rectangle_9812" data-name="Rectangle 9812" width="19.758" height="1076.852" transform="translate(166.516 -0.002)" fill="#6A2186"></rect><rect id="Rectangle_9813" data-name="Rectangle 9813" width="19.758" height="1076.852" transform="translate(124.886 -0.002)" fill="#6A2186"></rect><rect id="Rectangle_9814" data-name="Rectangle 9814" width="19.758" height="1076.852" transform="translate(208.144 -0.002)" fill="#6A2186"></rect><rect id="Rectangle_9815" data-name="Rectangle 9815" width="19.758" height="1076.852" transform="translate(249.772 -0.002)" fill="#6A2186"></rect><rect id="Rectangle_9816" data-name="Rectangle 9816" width="19.758" height="1076.852" transform="translate(291.402 -0.002)" fill="#6A2186"></rect><rect id="Rectangle_9817" data-name="Rectangle 9817" width="19.758" height="1076.852" transform="translate(333.03 -0.002)" fill="#6A2186"></rect><rect id="Rectangle_9818" data-name="Rectangle 9818" width="19.758" height="1076.852" transform="translate(374.658 -0.002)" fill="#6A2186"></rect><rect id="Rectangle_9819" data-name="Rectangle 9819" width="19.758" height="1076.852" transform="translate(582.803 -0.002)" fill="#6A2186"></rect><rect id="Rectangle_9820" data-name="Rectangle 9820" width="19.758" height="1076.852" transform="translate(541.174 -0.002)" fill="#6A2186"></rect><rect id="Rectangle_9821" data-name="Rectangle 9821" width="19.758" height="1076.852" transform="translate(499.546 -0.002)" fill="#6A2186"></rect><rect id="Rectangle_9822" data-name="Rectangle 9822" width="19.758" height="1076.852" transform="translate(457.916 -0.002)" fill="#6A2186"></rect><rect id="Rectangle_9823" data-name="Rectangle 9823" width="19.758" height="1076.852" transform="translate(416.288 -0.002)" fill="#6A2186"></rect><rect id="Rectangle_9824" data-name="Rectangle 9824" width="19.758" height="1076.852" transform="translate(624.432 -0.002)" fill="#6A2186"></rect><rect id="Rectangle_9825" data-name="Rectangle 9825" width="19.758" height="1076.852" transform="translate(666.06 -0.002)" fill="#6A2186"></rect><rect id="Rectangle_9826" data-name="Rectangle 9826" width="19.758" height="1076.852" transform="translate(707.69 -0.002)" fill="#6A2186"></rect><rect id="Rectangle_9827" data-name="Rectangle 9827" width="19.758" height="1076.852" transform="translate(749.318 -0.002)" fill="#6A2186"></rect><rect id="Rectangle_9828" data-name="Rectangle 9828" width="19.758" height="1076.852" transform="translate(790.947 -0.002)" fill="#6A2186"></rect><rect id="Rectangle_9829" data-name="Rectangle 9829" width="19.758" height="1076.852" transform="translate(832.576 -0.002)" fill="#6A2186"></rect></g></g></g><g id="Group_28582" data-name="Group 28582" transform="translate(-223.797 -161.235)" opacity="0.8"><g id="Group_28581" data-name="Group 28581"><g id="Group_28580" data-name="Group 28580" clip-path="url(#clip-path-22)"><rect id="Rectangle_9831" data-name="Rectangle 9831" width="1076.852" height="19.758" transform="translate(0 915.833)" fill="#6A2186"></rect><rect id="Rectangle_9832" data-name="Rectangle 9832" width="1076.852" height="19.758" transform="translate(0 957.462)" fill="#6A2186"></rect><rect id="Rectangle_9833" data-name="Rectangle 9833" width="1076.852" height="19.758" transform="translate(0 999.092)" fill="#6A2186"></rect><rect id="Rectangle_9834" data-name="Rectangle 9834" width="1076.852" height="19.758" transform="translate(0 1040.72)" fill="#6A2186"></rect><rect id="Rectangle_9835" data-name="Rectangle 9835" width="1076.852" height="19.758" transform="translate(0 1082.349)" fill="#6A2186"></rect><rect id="Rectangle_9836" data-name="Rectangle 9836" width="1076.852" height="19.758" transform="translate(0 874.206)" fill="#6A2186"></rect><rect id="Rectangle_9837" data-name="Rectangle 9837" width="1076.852" height="19.758" transform="translate(0 832.576)" fill="#6A2186"></rect><rect id="Rectangle_9838" data-name="Rectangle 9838" width="1076.852" height="19.758" transform="translate(0 790.948)" fill="#6A2186"></rect><rect id="Rectangle_9839" data-name="Rectangle 9839" width="1076.852" height="19.758" transform="translate(0 749.32)" fill="#6A2186"></rect><rect id="Rectangle_9840" data-name="Rectangle 9840" width="1076.852" height="19.758" transform="translate(0 707.69)" fill="#6A2186"></rect><rect id="Rectangle_9841" data-name="Rectangle 9841" width="1076.852" height="19.758" transform="translate(0 499.546)" fill="#6A2186"></rect><rect id="Rectangle_9842" data-name="Rectangle 9842" width="1076.852" height="19.758" transform="translate(0 541.176)" fill="#6A2186"></rect><rect id="Rectangle_9843" data-name="Rectangle 9843" width="1076.852" height="19.758" transform="translate(0 582.804)" fill="#6A2186"></rect><rect id="Rectangle_9844" data-name="Rectangle 9844" width="1076.852" height="19.758" transform="translate(0 624.432)" fill="#6A2186"></rect><rect id="Rectangle_9845" data-name="Rectangle 9845" width="1076.852" height="19.758" transform="translate(0 666.062)" fill="#6A2186"></rect><rect id="Rectangle_9846" data-name="Rectangle 9846" width="1076.852" height="19.758" transform="translate(0 457.918)" fill="#6A2186"></rect><rect id="Rectangle_9847" data-name="Rectangle 9847" width="1076.852" height="19.758" transform="translate(0 416.288)" fill="#6A2186"></rect><rect id="Rectangle_9848" data-name="Rectangle 9848" width="1076.852" height="19.758" transform="translate(0 374.658)" fill="#6A2186"></rect><rect id="Rectangle_9849" data-name="Rectangle 9849" width="1076.852" height="19.758" transform="translate(0 333.03)" fill="#6A2186"></rect><rect id="Rectangle_9850" data-name="Rectangle 9850" width="1076.852" height="19.758" transform="translate(0 291.402)" fill="#6A2186"></rect><rect id="Rectangle_9851" data-name="Rectangle 9851" width="1076.852" height="19.758" transform="translate(0 249.772)" fill="#6A2186"></rect><rect id="Rectangle_9852" data-name="Rectangle 9852" width="1076.852" height="19.758" transform="translate(0 208.144)" fill="#6A2186"></rect><rect id="Rectangle_9853" data-name="Rectangle 9853" width="1076.852" height="19.758" transform="translate(0 166.516)" fill="#6A2186"></rect><rect id="Rectangle_9854" data-name="Rectangle 9854" width="1076.852" height="19.758" transform="translate(0 124.888)" fill="#6A2186"></rect><rect id="Rectangle_9855" data-name="Rectangle 9855" width="1076.852" height="19.758" transform="translate(0 83.258)" fill="#6A2186"></rect><rect id="Rectangle_9856" data-name="Rectangle 9856" width="1076.852" height="19.758" transform="translate(0 41.63)" fill="#6A2186"></rect><rect id="Rectangle_9857" data-name="Rectangle 9857" width="1076.852" height="19.758" fill="#6A2186"></rect></g></g></g></g></g><g id="Group_450" data-name="Group 450" transform="translate(0 168.109)"><path id="Path_37540" data-name="Path 37540" d="M881.5,890.466H350.772A13.775,13.775,0,0,1,337,876.694V874.26a38.562,38.562,0,0,1,38.558-38.56H856.711a38.563,38.563,0,0,1,38.564,38.564v2.43A13.775,13.775,0,0,1,881.5,890.469" transform="translate(-233.271 -835.7)" fill="#2d2d2d"></path><path id="Path_37541" data-name="Path 37541" d="M739.45,1280.68a522.182,522.182,0,0,1-52.912,3.7,522.186,522.186,0,0,1-52.911-3.7s-5.632,52.243,52.428,52.094h.965c58.068.15,52.43-52.094,52.43-52.094" transform="translate(-303.235 -940.706)" fill="#be1717"></path><path id="Path_37542" data-name="Path 37542" d="M739.454,1280.68a515.312,515.312,0,0,1-52.912,3.7,515.216,515.216,0,0,1-52.911-3.7,46.3,46.3,0,0,0-.076,6.546c10.525,4.079,27.225,7.392,52.987,7.3,25.761.093,42.46-3.218,52.987-7.3a46.363,46.363,0,0,0-.074-6.545" transform="translate(-303.239 -940.706)" fill="#fff"></path><path id="Path_37543" data-name="Path 37543" d="M729.606,1329.027c-8.419-6.949-20.583-12.081-38.167-12.367v-.015h-.869v.015c-17.582.286-29.749,5.418-38.167,12.367,7.815,7.1,19.791,12.282,38.117,12.229h.965c18.331.047,30.3-5.131,38.117-12.229" transform="translate(-307.702 -949.194)" fill="#ff2929"></path><path id="Path_37544" data-name="Path 37544" d="M686.81,1333.63h-1.133c-.819,0-1.622,0-2.414-.027l-.533-.013c-.768-.024-1.527-.052-2.272-.093l-.381-.024q-.992-.058-1.95-.138l-.472-.04c-.7-.061-1.392-.134-2.071-.213l-.541-.066c-.592-.074-1.178-.153-1.752-.238l-.367-.052c-.644-.1-1.258-.206-1.873-.322l-.626-.116c-.591-.115-1.173-.232-1.746-.359l-.344-.081-.192-.045q-.653-.15-1.287-.314l-.056-.013c-.211-.057-.423-.108-.632-.161q-.763-.2-1.506-.423c-.208-.061-.415-.126-.621-.19l-.117-.039q-.467-.145-.925-.3c-.348-.116-.694-.233-1.035-.356s-.666-.238-.994-.362c-.288-.108-.574-.222-.859-.335-.2-.081-.4-.161-.605-.246q-.767-.322-1.506-.653l-.412-.188c-.322-.148-.644-.3-.951-.454l-.045-.022c-.611-.3-1.273-.644-1.931-1.012l-.142-.079c-25.462-14.243-22.643-45.157-22.511-46.465a1.268,1.268,0,0,1,1.4-1.136l.2.026a517.561,517.561,0,0,0,52.567,3.672,517.5,517.5,0,0,0,52.547-3.672l.2-.026a1.242,1.242,0,0,1,1.393,1.117c.135,1.328,2.954,32.244-22.512,46.486l-.129.072c-.681.378-1.326.714-1.976,1.036q-.483.235-.965.457l-.406.185q-.743.336-1.514.656c-.2.082-.4.161-.6.243-.286.113-.573.227-.864.336-.322.121-.644.24-.982.359s-.7.241-1.047.359q-.455.151-.92.3l-.148.047-.594.183q-.74.217-1.5.423c-.22.059-.444.116-.668.172-.447.114-.877.217-1.311.322l-.195.045-.348.081c-.57.127-1.152.245-1.741.357-.208.042-.417.079-.628.118-.616.113-1.237.22-1.873.322l-.368.052c-.574.085-1.159.161-1.751.237l-.542.068c-.681.077-1.369.15-2.069.211l-.473.04c-.644.053-1.287.1-1.949.138l-.385.024h0c-.745.042-1.5.069-2.272.093l-.529.013c-.737.016-1.48.029-2.238.029m-.673-2.488h.5q1.192,0,2.352-.027l.515-.013q1.126-.032,2.209-.089h0l.373-.024c.644-.037,1.265-.084,1.887-.134l.459-.039q1.017-.089,2-.206l.525-.065q.858-.106,1.691-.23l.356-.05c.611-.093,1.212-.2,1.805-.306l.6-.115c.566-.109,1.126-.222,1.673-.344l.52-.119q.624-.145,1.234-.3c.238-.06.452-.114.661-.169q.729-.195,1.44-.4l.56-.172.151-.048c.294-.09.587-.185.877-.28q.505-.161,1-.343c.322-.111.628-.224.936-.341.278-.1.55-.211.821-.322.19-.076.378-.161.568-.232q.732-.3,1.437-.623l.383-.176q.46-.214.906-.433c.618-.3,1.228-.623,1.866-.978l.127-.071c21.574-12.068,21.65-36.912,21.344-42.813a518.124,518.124,0,0,1-51.759,3.556,518.083,518.083,0,0,1-51.777-3.556c-.307,5.979-.2,30.765,21.341,42.812l.1.055c.658.364,1.287.69,1.889.99.309.161.608.3.912.436l.393.179q.7.322,1.429.62c.191.079.381.161.574.233.269.109.541.214.817.322q.468.175.948.346c.322.114.655.227.986.336q.438.146.882.285l.119.037c.195.061.389.122.587.18q.71.211,1.448.405c.2.053.4.1.6.161l.058.015q.613.161,1.239.3l.206.05.306.071c.552.122,1.112.235,1.678.344l.6.113c.592.108,1.194.212,1.805.305l.352.05q.835.124,1.693.23l.523.064c.658.076,1.326.146,2,.206l.457.039c.621.05,1.25.1,1.889.134l.37.024q1.089.058,2.211.089l.516.013c.774.018,1.553.031,2.352.027Z" transform="translate(-302.848 -940.327)" fill="#f8a364"></path><path id="Path_37545" data-name="Path 37545" d="M843.7,1285.47c-26.617,42.813-74.86,56.744-109.814,40.148l-20.4,1.624c-12.186,16.491-49.752,24.58-65.318,19.688-1.031-8.539,1.4-6.034,7.472-9.538H628.531c6.069,3.5,8.5,1,7.473,9.538-15.566,4.892-53.133-3.2-65.318-19.688l-20.4-1.624c-34.954,16.594-83.189,2.665-109.814-40.148,26.027,53.4,82.151,99.038,200.229,103.732v.111c.467-.015,2.309-.015,2.774,0v-.111c118.078-4.694,174.2-50.336,200.229-103.732" transform="translate(-257.689 -941.839)" fill="#2d2d2d"></path><path id="Path_37546" data-name="Path 37546" d="M1016.728,1679.891,953.865,1533.8c-38.543-75.985-94.018-11.278-66.142,35.651l63.814,145.012c34.872,58.705,92.682,27.647,65.191-34.571" transform="translate(-361.45 -992.185)" fill="#6A2186" fill-rule="evenodd"></path><path id="Path_37547" data-name="Path 37547" d="M1013.559,1786.651,900.268,1967.714a7.08,7.08,0,0,1-7.917,2.97c-11.508-3.416-33.378-17.788-40.735-26.952a7.147,7.147,0,0,1-.354-8.471l97.643-186.774c22.9-33.307,83.34,6.505,64.652,38.162" transform="translate(-354.34 -1048.128)" fill="#6A2186"></path><path id="Path_37548" data-name="Path 37548" d="M425.622,1717.818l49.263-158.01c6.777-42.457-4.29-62.207-38.663-52.295-25.184,23.085-59.775,105.449-81.829,210.318,0,22.156,61.194,37.4,71.229,0" transform="translate(-237.378 -993.636)" fill="#6A2186"></path><path id="Path_37549" data-name="Path 37549" d="M286.117,1453.294s3.785-27.755,5.437-38.981-16.464-33.913-21.079-34.5a29.143,29.143,0,0,0-10.33,1.205s-28.091-54.409-33.979-58.474-9.762,2.134-9.762,2.134,6.522,13.532,19.6,44.7c0,0-18.252,7.746-20.213,11.5s-3.926,7.506-8.266,10.156-7.939,5.922-5.508,17.458c5.941,28.178,42.674,60.662,42.674,60.662Z" transform="translate(-201.237 -950.264)" fill="#fbd3a8"></path><path id="Path_37550" data-name="Path 37550" d="M239.075,1384.254c5.785-.981,15.149,9.471,18.182,14.43l5.954-2.789s-7.231,6.972-9.143,9.416-7.611,6.353-4.391,11.622,13.9.449,19.027-4.389c0,0-8.045,14.7-6.15,25.465,0,0-12.568,1.72-17.838,4.94s-14.964-1.5-16.976-4.1c0,0-6.612-1.067-6.871-2.187s-6.642-10.838-6.642-10.838,6.4,4.183,8.071,2.735c0,0,3.891,3.582,7.146-2.238s-12.086-15.608-12.086-15.608a14,14,0,0,1,9.506,4.41,54.926,54.926,0,0,1,5.662,7.177s8.351-5.1,7.706-8.964-8.945-13.264-14-15.278a17.841,17.841,0,0,1,11.379,5.39c4.344,5.011,14.07-1.355,13.431-3.1a18.31,18.31,0,0,0-5.992-9.111,24.7,24.7,0,0,1-5.973-6.991" transform="translate(-204.303 -965.131)" fill="#f8a364"></path><path id="Path_37551" data-name="Path 37551" d="M327.286,1720.756,245.477,1507.25a7.587,7.587,0,0,1,2.56-8.689c10.333-7.638,36.711-17.076,49.286-17.46a7.65,7.65,0,0,1,7.469,5.149l96.764,203.822c13.721,41.031-59.251,67.058-74.278,30.688" transform="translate(-211.569 -988.005)" fill="#6A2186"></path></g></g><g id="Group_460" data-name="Group 460" transform="translate(2095.919 1154.313) rotate(14)"><g id="Group_459" data-name="Group 459" transform="translate(0 0)" clip-path="url(#clip-path-23)"><path id="Path_1386" data-name="Path 1386" d="M267.807,158.7V267.807H0V0H267.807V127.9a10.289,10.289,0,0,1-.469-1.467,36.213,36.213,0,0,0-29.326-30.119c-2.942-.573-5.981-.648-8.95-.951-2.5-44.328-40.514-84.438-89.4-86.981-22.027-1.145-42.287,4.39-60.236,17.24C55.517,42.736,42.386,66.27,39.279,95.635c-1.087,0-2.032-.023-2.977,0A36.5,36.5,0,0,0,.529,132.114q-.062,11.222.006,22.444A35.121,35.121,0,0,0,8.149,176.57c10.133,12.86,24.018,15.748,39.308,14.165,6.405-.663,8.364-3.452,8.365-10.021,0-25.4-.174-50.806.116-76.2a88.436,88.436,0,0,1,2.509-20.878c9.833-38.184,45.7-62.571,84.87-58.129a78.434,78.434,0,0,1,67.543,61.473c1.979,9.377,1.635,18.857,1.641,28.33q.019,33.275.013,66.55c0,5.528,3.23,8.8,8.7,8.852,4,.038,8.008.11,12-.066a36.022,36.022,0,0,0,32.553-24.461c.829-2.443,1.368-4.984,2.042-7.48M134.254,260.055c3.477,0,6.957.067,10.432-.013a16.676,16.676,0,0,0,.338-33.341q-10.812-.354-21.644-.006a16.681,16.681,0,0,0,.441,33.355c3.476.069,6.955.011,10.432.006m-36.318-21.3c-27.39.8-45.221-11.712-52.983-38.2H35.976c3.7,27.569,30.834,50.892,61.96,47.139Z" transform="translate(0 0.404)" fill="#fff"></path><path class="f1" id="Path_1387" data-name="Path 1387" d="M267.311,150.463c-.673,2.5-1.214,5.036-2.041,7.479A36.024,36.024,0,0,1,232.717,182.4c-3.994.175-8,.1-12,.066-5.466-.052-8.691-3.324-8.7-8.852q-.029-33.275-.013-66.55c-.006-9.473.338-18.953-1.64-28.33a78.437,78.437,0,0,0-67.544-61.474c-39.17-4.441-75.037,19.945-84.87,58.13a88.471,88.471,0,0,0-2.509,20.878c-.289,25.4-.114,50.8-.116,76.205,0,6.569-1.96,9.357-8.365,10.02-15.29,1.583-29.175-1.3-39.308-14.164A35.121,35.121,0,0,1,.04,146.321Q-.046,135.1.034,123.877A36.5,36.5,0,0,1,35.806,87.4c.945-.026,1.891,0,2.978,0C41.89,58.033,55.022,34.5,78.926,17.386,96.876,4.536,117.136-1,139.163.147c48.892,2.543,86.909,42.653,89.4,86.981,2.969.3,6.008.378,8.95.95A36.213,36.213,0,0,1,266.843,118.2a10.281,10.281,0,0,0,.469,1.466Z" transform="translate(0.496 8.642)"></path><path class="f1" id="Path_1388" data-name="Path 1388" d="M27.08,33.532c-3.478,0-6.957.061-10.433-.008A16.681,16.681,0,0,1,16.206.168c7.208-.22,14.436-.229,21.644.006a16.676,16.676,0,0,1-.338,33.341c-3.475.081-6.955.013-10.431.016" transform="translate(107.174 226.931)"></path><path class="f1" id="Path_1389" data-name="Path 1389" d="M61.96,38.2v8.941C30.834,50.892,3.7,27.569,0,0H8.976C16.739,26.486,34.569,39,61.96,38.2" transform="translate(35.976 200.963)"></path></g></g><g class="vr"><g id="Group_462" data-name="Group 462" transform="translate(2238.907 1968) rotate(-20)"><g id="Group_463" data-name="Group 463" transform="translate(0 0)"><path class="f5" id="Path_1391" data-name="Path 1391" d="M0,82.966c.395-1.625.764-3.257,1.19-4.874a37.974,37.974,0,0,1,10.4-17.441q22.324-22.2,44.546-44.506c.624-.624,1.356-1.139,2.177-1.821-.885-.971-1.535-1.641-2.135-2.352a7.259,7.259,0,0,1,.313-9.888A7.38,7.38,0,0,1,66.4,1.749c.369.312.7.667,1.044,1.009q26.717,26.715,53.375,53.487a10.612,10.612,0,0,1,2.72,5.405c.511,3.049-1.058,5.468-3.882,6.867a6.931,6.931,0,0,1-7.905-.982c-.69-.551-1.3-1.209-2.116-1.985-.7.666-1.39,1.3-2.056,1.967-14.731,14.725-29.508,29.4-44.163,44.2-6.23,6.291-13.444,10.458-22.292,11.615a4.076,4.076,0,0,0-.9.341h-8.24a9.6,9.6,0,0,0-1.321-.455c-15.325-2.952-25.125-11.976-29.55-26.892C.666,94.808.369,93.239,0,91.69V82.966M75.273,56.739C75.09,52.582,73.734,50.3,70.96,49.1A7.012,7.012,0,0,0,62.714,50.7Q44.353,68.991,26.062,87.357A7.257,7.257,0,1,0,36.269,97.666Q54.663,79.4,72.893,60.978c1.316-1.334,1.912-3.377,2.38-4.24" transform="translate(0 124.553)"></path><path class="f5" id="Path_1392" data-name="Path 1392" d="M0,37.879c.183-.766.4-1.526.541-2.3C1.61,29.5,7.905,27.055,12.669,30.96,17.227,34.7,21.663,38.579,26.155,42.4c.728.618,1.468,1.221,2.058,1.711L44.037,28.259c-4.215-4.963-8.6-10.1-12.956-15.27-2.376-2.821-2.712-5.847-1.092-8.728A7.31,7.31,0,0,1,35.435.635C58.976-3.562,81.91,13.55,84.3,37.412c.482,4.815-.262,9.783-.758,14.648a3.788,3.788,0,0,0,1.138,3.585q14.527,14.424,28.966,28.938c.564.565,1.1,1.153,1.487,1.554l-29.072,29.05c-.363-.346-1.009-.936-1.627-1.553Q70.124,99.334,55.845,85a3.914,3.914,0,0,0-4.2-1.266A42.167,42.167,0,0,1,.414,48.177,5.246,5.246,0,0,0,0,47.088v-9.21"></path><path class="f5" id="Path_1393" data-name="Path 1393" d="M68.718,115.031c-4.031-1.077-8.234-1.737-12.066-3.3A41.933,41.933,0,0,1,31.587,63.357a3.893,3.893,0,0,0-1.294-4.193C20.945,49.9,11.662,40.571,2.339,31.279,1.543,30.485.618,29.819,0,29.3L29.3,0c.219.21.853.793,1.462,1.4Q45.24,15.871,59.689,30.369a3.33,3.33,0,0,0,3.591,1.062,42.3,42.3,0,0,1,51.438,47.931c-.973,6.218-7.356,8.739-12.2,4.732C97.3,79.773,92.174,75.331,87.2,71.1L71.381,87.036c3.873,4.564,8,9.518,12.233,14.373,2.175,2.492,3.357,5.131,2.111,8.4s-3.89,4.542-7.189,4.811a4.264,4.264,0,0,0-1.093.408Z" transform="translate(132.911 133.201)"></path><path class="f5" id="Path_1395" data-name="Path 1395" d="M26.4,156.434,0,130.042a8.834,8.834,0,0,0,2.287-1.284q42.452-42.366,84.8-84.838a10.248,10.248,0,0,0,2.419-4.492c.959-3.661,1.6-7.407,2.3-11.133a8.347,8.347,0,0,1,3.88-5.85c10.912-6.906,21.793-13.859,32.7-20.771C132.4-.866,135.462-.534,138.827,2.8q7.659,7.591,15.248,15.252c3.213,3.252,3.562,6.4,1.116,10.26-6.908,10.911-13.874,21.785-20.78,32.7a8.412,8.412,0,0,1-5.8,3.959c-3.881.746-7.777,1.445-11.61,2.394a8.649,8.649,0,0,0-3.874,2.1Q70.56,111.887,28.105,154.42c-.626.626-1.151,1.353-1.707,2.014" transform="translate(91.391 0.048)"></path></g></g></g><g class="vr"><path class="f7" id="Path_1396" data-name="Path 1396" d="M61.41,43.1a40.4,40.4,0,0,1,9.852-4.281l2.033-9.749,16.473-.291,2.373,9.674a40.426,40.426,0,0,1,10,3.931l8.331-5.457L122.32,48.373l-5.16,8.514a40.4,40.4,0,0,1,4.281,9.852l9.755,2.033.286,16.473-9.674,2.373a40.509,40.509,0,0,1-3.931,10l5.457,8.331L111.886,117.8l-8.514-5.166a40.314,40.314,0,0,1-9.852,4.281l-2.033,9.755-16.473.286-2.373-9.674a40.592,40.592,0,0,1-10-3.931l-8.326,5.457L42.461,107.364l5.16-8.514A40.225,40.225,0,0,1,43.34,89l-9.749-2.027L33.3,70.492l9.674-2.373a40.4,40.4,0,0,1,3.936-10L41.448,49.8,52.9,37.939Zm8.784,21.952a17.677,17.677,0,1,0,25-.442,17.676,17.676,0,0,0-25,.442" transform="translate(2364.665 1492.467)" fill="#e0e0e0"></path></g></g></svg> 