<?xml version="1.0" encoding="UTF-8"?> <svg xmlns="http://www.w3.org/2000/svg" xmlns:xlink="http://www.w3.org/1999/xlink" width="2389.437" height="1430.218" viewBox="0 0 2389.437 1430.218"><style> .g1{ animation-delay: .4s; animation-name: tranfX; transform-origin: left; transform-box:fill-box ; animation-fill-mode: both; animation-duration: 2.5s; animation-iteration-count: infinite; } @keyframes tranfX { 0% { transform:translateX(0px) ; } 50% { transform:translateX(-50px) ; } 100% { transform:translateX(0px) ; } } .g2{ animation-delay: .4s; animation-name: tranfX2; transform-origin: left; transform-box:fill-box ; animation-fill-mode: both; animation-duration: 2.5s; animation-iteration-count: infinite; } @keyframes tranfX2 { 0% { transform:translateX(0px) ; } 50% { transform:translateX(50px) ; } 100% { transform:translateX(0px) ; } } .tre-1 { animation-name: arrow-1 ; animation-fill-mode: both; animation-duration: 3s; transform-origin: left; transform-box:fill-box ; animation-iteration-count: infinite; } @keyframes arrow-1 { 0% { transform:translateY(0px) translatex(0px); } 50% { transform:translateY(-120px) translatex(-90px); } 100% { transform:translateY(0px) translatex(0px); } } .gtrant{ animation-delay: .4s; animation-name: gtrant; transform-origin: left; transform-box:fill-box ; animation-fill-mode: both; animation-duration: 2.5s; animation-iteration-count: infinite; } @keyframes gtrant { 0% { transform:translateY(0px) ; } 50% { transform:translateY(-50px) ; } 100% { transform:translateY(0px) ; } } .tr1{ animation-delay: .4s; animation-name: tr1; transform-origin: bottom; transform-box:fill-box ; animation-fill-mode: both; animation-duration: 1.5s; animation-delay: .9s; animation-iteration-count: infinite; } .tr2{ animation-delay: .4s; animation-name: tr1; transform-origin: bottom; transform-box:fill-box ; animation-fill-mode: both; animation-duration: 1.5s; animation-delay: .86s; animation-iteration-count: infinite; } .tr3{ animation-delay: .3s; animation-name: tr1; animation-delay: .4s; transform-origin: bottom; transform-box:fill-box ; animation-fill-mode: both; animation-duration: 1.5s; animation-iteration-count: infinite; } @keyframes tr1 { 0% { transform: scaleY(1); } 50% { transform: scaleY(.1); } 100% { transform: scaleY(1); } } </style><defs><clipPath id="clip-path"><path id="Path_2336" data-name="Path 2336" d="M587.876,238.125c143.1,14.337,204.917,114.094,180.171,312.17-9.565,76.559-60.7,185.838-86.667,292.667-.1-.318-3.333-16.667-3.333-16.667s8.827,34.21,3.333,16.667c-3.881-12.393,50.978-409.937,12.3-395.775s-206.58,3.507-233.011-3.477S423.78,618.523,441.779,758.718c-13.916,19.177-24.4,50.25-32,73.711C317.042,450.9,374.906,258.035,573.655,238.12Z" transform="translate(-366.663 -238.12)" fill="none"></path></clipPath><clipPath id="clip-path-2"><rect id="Rectangle_1346" data-name="Rectangle 1346" width="822.181" height="817.981" fill="none"></rect></clipPath><clipPath id="clip-path-3"><rect id="Rectangle_1370" data-name="Rectangle 1370" width="803.344" height="837.163" fill="none"></rect></clipPath><clipPath id="clip-path-4"><path id="Path_2336-2" data-name="Path 2336" d="M567,238.125c-191.7,19.206-177.4,134.168-198.315,281.1S474.515,838.795,483.319,825.845s2.334-45.519-25.289-95.241-43.4-243.108,0-294.189c37.283,14.3,194.369,14.3,231.656,0C733.08,487.5,726.664,647.688,709.3,782.91c13.422,18.5,10.625,11.687,19.124,32.936,111.556-435.6,43.983-558.516-147.715-577.725Z" transform="translate(-366.664 -238.12)" fill="none"></path></clipPath><clipPath id="clip-path-5"><rect id="Rectangle_1346-2" data-name="Rectangle 1346" width="793.009" height="788.957" fill="none"></rect></clipPath><clipPath id="clip-path-6"><rect id="Rectangle_1370-2" data-name="Rectangle 1370" width="774.841" height="807.46" fill="none"></rect></clipPath></defs><g id="works" transform="translate(-25.375 -39.374)"><g id="Background_Complete" data-name="Background Complete" transform="translate(25.375 39.374)"><path id="Path_7290" data-name="Path 7290" d="M563.576,142.2a52.771,52.771,0,0,0-19.8,9.56,27.807,27.807,0,0,1-6.487,3.771l-25.8-105.157a14.432,14.432,0,0,0-17.455-10.58L384.621,66.638l3.046,12.418a23.005,23.005,0,0,0,3.7,7.961A47.786,47.786,0,0,1,362,161.8a48.231,48.231,0,0,1-55.05-32.256,47.444,47.444,0,0,1-1.349-23.921,23.78,23.78,0,0,0-.125-10.337l-2.137-8.707L192.4,113.425a17.725,17.725,0,0,0-12.991,21.437l23.82,97.55-7.555,1.856c-.857.208-1.734.4-2.619.548A58.315,58.315,0,1,0,211.1,331.03a22.376,22.376,0,0,1,4.464-1.627l9.7-2.38L251.974,435.87a17.72,17.72,0,0,0,21.434,12.987l302.767-74.281a14.437,14.437,0,0,0,10.58-17.458L559.563,246.294a28.7,28.7,0,0,1,5.918.659,52.913,52.913,0,0,0,32.475-3.288A53.8,53.8,0,0,0,563.576,142.2Z" transform="translate(189.998 -39.374)" fill="#ebebeb"></path><path id="Path_7291" data-name="Path 7291" d="M645.124,322.117a33.3,33.3,0,0,0,13.5,3.1,17.423,17.423,0,0,1,4.679.7l-28.753,61.894a9.1,9.1,0,0,0,4.419,12.082l64.4,29.915,3.4-7.305a14.484,14.484,0,0,0,1.318-5.377,29.806,29.806,0,0,1,2.744-11.107,30.162,30.162,0,0,1,55.535,23.456,29.844,29.844,0,0,1-8.762,12.3,14.965,14.965,0,0,0-4.01,5.137l-2.38,5.123,65.151,30.515a11.17,11.17,0,0,0,14.836-5.425l26.727-57.374,4.447,2.067c.507.232,1.013.486,1.506.76a36.756,36.756,0,1,0,29.041-54.439,14.022,14.022,0,0,1-2.837-.957l-5.71-2.654,29.762-64.065a11.17,11.17,0,0,0-5.425-14.836L730.505,202.846a9.1,9.1,0,0,0-12.082,4.416l-30.3,65.231a18.1,18.1,0,0,1-2.654-2.654,33.331,33.331,0,0,0-17.271-11.18,33.907,33.907,0,0,0-23.074,63.458Z" transform="translate(1456.647 362.105)" fill="#ebebeb"></path><path id="Path_7292" data-name="Path 7292" d="M705.991,580.675a26.049,26.049,0,0,0,6.507-8.7,13.751,13.751,0,0,1,1.988-3.129L749.723,609.1a7.132,7.132,0,0,0,10.063.669l41.882-36.665-4.159-4.752a11.389,11.389,0,0,0-3.434-2.65,23.611,23.611,0,0,1-4.132-39.478,23.826,23.826,0,0,1,31.479,1.623,23.439,23.439,0,0,1,6.036,10.184,11.7,11.7,0,0,0,2.407,4.506l2.917,3.333,42.552-37.012a8.753,8.753,0,0,0,.819-12.356l-32.638-37.366,2.893-2.532c.33-.288.67-.572,1.023-.836a28.814,28.814,0,1,0-29.8-38.1,11.189,11.189,0,0,1-1.589,1.731l-3.711,3.25-36.475-41.667a8.754,8.754,0,0,0-12.356-.819L647.6,481.62a7.135,7.135,0,0,0-.669,10.063l37.137,42.423a14.427,14.427,0,0,1-2.744,1.058,26.117,26.117,0,0,0-13.5,8.828,26.58,26.58,0,0,0,38.16,36.683Z" transform="translate(1504.776 796.62)" fill="#f5f5f5"></path><path id="Path_7293" data-name="Path 7293" d="M808.692,206.989a41.6,41.6,0,0,0-17.3-1.061,21.8,21.8,0,0,1-5.914.087l22.825-82.252a11.374,11.374,0,0,0-7.919-14L714.8,86.008l-2.7,9.709a18.165,18.165,0,0,0-.527,6.9,37.673,37.673,0,0,1-49.035,40.089A38.021,38.021,0,0,1,637.139,99.3a37.38,37.38,0,0,1,8.3-16.969,18.686,18.686,0,0,0,3.9-7.156l1.891-6.809L564.6,44.025a13.97,13.97,0,0,0-17.2,9.727l-21.253,76.258-5.911-1.641c-.673-.184-1.346-.392-2.012-.631a45.976,45.976,0,1,0-24.712,73.112,17.616,17.616,0,0,1,3.7.6l7.586,2.106L481.168,288.7a13.967,13.967,0,0,0,9.726,17.2l236.822,65.723a11.374,11.374,0,0,0,14-7.919l24.06-86.685a22.587,22.587,0,0,1,3.812,2.733,41.714,41.714,0,0,0,23.6,10.268,42.412,42.412,0,0,0,15.5-83.026Z" transform="translate(988.914 -29.159)" fill="#f5f5f5"></path><path id="Path_7294" data-name="Path 7294" d="M51.085,451.508a39.114,39.114,0,0,0,16.1,2.386,20.6,20.6,0,0,1,5.543.392L44.747,529.42a10.685,10.685,0,0,0,6.285,13.743l78.173,29.114,3.306-8.87a16.985,16.985,0,0,0,1.048-6.414,35.388,35.388,0,0,1,49.115-33.568,35.71,35.71,0,0,1,20.279,42.67,35.123,35.123,0,0,1-9.133,15.211,17.576,17.576,0,0,0-4.225,6.379l-2.317,6.223,79.109,29.748a13.121,13.121,0,0,0,16.876-7.718l26.03-69.65,5.4,2.012c.614.229,1.231.475,1.835.753a43.177,43.177,0,1,0,29.006-66.427,16.883,16.883,0,0,1-3.41-.86l-6.931-2.581,28.964-77.771a13.121,13.121,0,0,0-7.718-16.876l-216.318-80.57a10.688,10.688,0,0,0-13.743,6.286L96.883,389.437a21.058,21.058,0,0,1-3.351-2.865,39.176,39.176,0,0,0-21.253-11.51,39.836,39.836,0,0,0-21.194,76.445Z" transform="translate(-25.375 612.194)" fill="#f5f5f5"></path></g><g id="Puzzle" transform="translate(275.574 466.24)"><g id="Group_3392" data-name="Group 3392"><g class="g1"><g id="Group_3389" data-name="Group 3389"><path id="Path_7295" data-name="Path 7295" d="M1003.284,630.693c19.311-1.339,36.016,3.892,52.157,11.419,7.208,3.361,15.7,5.793,23.661,5.793l21.129-.482.25-234.869a40.288,40.288,0,0,0-40.408-40.165l-223.266.829V368.4a62.055,62.055,0,0,1,6.553-27.14,123.482,123.482,0,0,0,10.608-75.439c-9.258-54.176-54.512-96.446-109.472-102.427-75.634-8.228-139.619,50.426-139.619,123.926a123.111,123.111,0,0,0,10.656,50.183,61.942,61.942,0,0,1,5.581,25.152l1.318,10.559H353.359a40.288,40.288,0,0,0-40.411,40.162V643.031H293.758a58.783,58.783,0,0,1-25.68-6.2,121.031,121.031,0,0,0-72.7-10.039c-51.262,8.759-91.264,51.581-96.918,103.585C90.671,801.947,146.171,862.5,215.721,862.5a116.528,116.528,0,0,0,47.488-10.084,58.6,58.6,0,0,1,23.8-5.283h24.625l.493,280.907a32.806,32.806,0,0,0,32.905,32.708H1065.2c18.173,0,32.416-22.818,32.416-40.88V864.549h-29.152a52.643,52.643,0,0,0-19.64,3.84,108.651,108.651,0,0,1-40.63,7.874c-61.738,0-111.5-50.967-109.021-112.875C901.363,708.834,948.487,634.495,1003.284,630.693Z" transform="translate(-96.951 -161.958)" fill="#e0e0e0"></path><g id="Group_3388" data-name="Group 3388"><path id="Path_7296" data-name="Path 7296" d="M1003.836,631.168s-.638.1-1.9.246a52.656,52.656,0,0,0-5.644.853,76.928,76.928,0,0,0-21.125,7.51c-17.573,8.967-40.63,29.45-57.991,63.646-8.436,17.018-16.057,37.508-17.066,60.954a111.934,111.934,0,0,0,4.967,36.1,107.014,107.014,0,0,0,18.485,34.875A108.248,108.248,0,0,0,999.41,875.76a106.652,106.652,0,0,0,47.651-6.563,56.823,56.823,0,0,1,24.975-4.714q12.888-.01,26.134-.014l.555,0v.559q.031,60.565.066,128.609.016,33.977.031,69.705.011,17.857.017,36.141,0,9.142.007,18.388a51.928,51.928,0,0,1-.631,9.352,49.916,49.916,0,0,1-2.581,9.081,47.688,47.688,0,0,1-10.035,16.061,29.451,29.451,0,0,1-16.674,9.307,94.432,94.432,0,0,1-9.664.25q-4.8,0-9.626,0-9.652.005-19.4.007-39,.01-79.539.024-81.066.026-167.945.048c-115.716.021-238.695.045-367.453.073q-24.143,0-48.553.007c-8.172-.076-16.213.17-24.556-.167a33.769,33.769,0,0,1-30.387-34.528q-.026-12.4-.049-24.854-.047-24.918-.09-50.076-.187-100.63-.378-204.85l.9.895h-15.36c-5.137.083-10.32-.232-15.343.357a59.062,59.062,0,0,0-14.8,3.777,151.735,151.735,0,0,1-14.642,5.668,117.767,117.767,0,0,1-63.07,2.307c-20.82-5.151-40.72-15.637-56.021-31.247-7.964-7.486-14.288-16.55-19.939-25.908-2.439-4.9-5.262-9.643-7.024-14.871-.944-2.577-2.106-5.082-2.872-7.722l-2.171-7.964c-6.306-26.176-3.951-54.394,7.312-78.683a119.014,119.014,0,0,1,91.6-68.446,123.62,123.62,0,0,1,39.121.919,120.145,120.145,0,0,1,18.863,5.113c3.06,1.11,6.084,2.317,9.029,3.7a92.5,92.5,0,0,0,8.807,3.788c11.971,4.724,25.059,3,37.831,3.323l-.891.892q.005-74.5.01-147.094.005-36.282.01-72.033c.118-5.935-.382-11.919.711-17.958a39.753,39.753,0,0,1,7.115-16.532,41.156,41.156,0,0,1,30.567-16.914c93.876-.031,184.72-.066,271.961-.1l-.812.919c-.451-3.621-.885-7.094-1.318-10.559l0-.052v-.049a59.227,59.227,0,0,0-3.219-18.967c-1.009-3.06-2.345-5.956-3.628-8.984-1.242-3.021-2.355-6.088-3.365-9.178a124.178,124.178,0,0,1-6.008-38.171l.52-9.605c.118-1.592.1-3.2.333-4.78l.777-4.728c.59-3.129.867-6.324,1.714-9.39l2.543-9.175a28.885,28.885,0,0,1,1.53-4.489l1.745-4.405a61.716,61.716,0,0,1,3.83-8.63L622,224.288l5.179-7.829c7.264-10.118,15.6-19.515,25.461-26.921l3.587-2.9,3.843-2.536c2.584-1.651,5.1-3.4,7.728-4.957,5.47-2.713,10.722-5.859,16.494-7.794,11.194-4.735,23.144-7.069,34.976-8.384,5.966-.257,11.9-.885,17.819-.277,2.955.2,5.918.25,8.845.569q4.376.661,8.734,1.322a127.109,127.109,0,0,1,61.266,30.63c16.758,15.318,29.3,34.768,35.555,55.813a124.319,124.319,0,0,1,2.553,63.784,131.485,131.485,0,0,1-10.549,29.4,64.118,64.118,0,0,0-4.541,14.465,73.668,73.668,0,0,0-.947,15.02l-.645-.645c60.551-.194,117.277-.375,169.846-.545q19.71-.062,38.635-.121l9.414-.031c3.115-.031,6.219-.038,9.359.187a41.072,41.072,0,0,1,17.431,5.876,40.527,40.527,0,0,1,19.047,28.992c.725,5.828.312,11.506.409,17.136q-.01,8.445-.028,16.675c-.18,87.8-.323,157.591-.423,206.681l0,.264-.257,0c-8.512.115-16.428.51-23.838.357a59.756,59.756,0,0,1-19.769-5.175c-11.326-5.373-21.153-8.707-29.19-10.351a89.729,89.729,0,0,0-18.156-1.953c-2.012-.021-3.51.038-4.51.087s-1.491.038-1.491.038a57.617,57.617,0,0,1,6-.264,87.642,87.642,0,0,1,18.211,1.825c8.061,1.606,17.951,4.915,29.3,10.25a59.434,59.434,0,0,0,19.637,5.075c7.337.132,15.3-.284,23.792-.42l-.257.264c0-49.09.007-118.886.014-206.681q.005-8.231.007-16.675c-.1-5.609.292-11.378-.427-17A39.5,39.5,0,0,0,1081.5,379.3a40.038,40.038,0,0,0-16.99-5.706c-3.028-.212-6.129-.2-9.258-.17l-9.411.042q-18.924.078-38.639.163c-52.566.222-109.292.458-169.843.711l-.638,0-.007-.645a74.869,74.869,0,0,1,.957-15.252,65.3,65.3,0,0,1,4.617-14.767,129.984,129.984,0,0,0,10.441-29.159,122.989,122.989,0,0,0-2.57-63.084c-6.2-20.8-18.614-40.023-35.194-55.161a125.685,125.685,0,0,0-60.572-30.238l-8.634-1.3c-2.9-.312-5.824-.361-8.745-.555-5.848-.6-11.718.031-17.611.284-11.693,1.311-23.5,3.618-34.556,8.3-5.7,1.915-10.885,5.03-16.289,7.708-2.591,1.544-5.078,3.275-7.631,4.9l-3.795,2.5-3.542,2.869c-9.74,7.319-17.965,16.609-25.135,26.6l-5.113,7.732-4.315,8.242a60.755,60.755,0,0,0-3.778,8.523l-1.72,4.353a28.127,28.127,0,0,0-1.509,4.43l-2.5,9.06c-.836,3.025-1.107,6.181-1.689,9.272l-.763,4.666c-.232,1.561-.212,3.146-.329,4.721l-.51,9.484a122.676,122.676,0,0,0,5.945,37.675c1,3.049,2.1,6.077,3.33,9.057,1.245,2.942,2.633,5.956,3.667,9.081a60.917,60.917,0,0,1,3.313,19.488l-.007-.1c.434,3.465.867,6.934,1.322,10.556l.114.919-.926,0L351.14,374.7a39.4,39.4,0,0,0-29.277,16.21,37.976,37.976,0,0,0-6.809,15.828c-1.044,5.682-.569,11.683-.68,17.642q.005,35.751.007,72.033.005,72.553.014,147.094v.895H294.269a57.556,57.556,0,0,1-19.2-3.424,94.27,94.27,0,0,1-8.956-3.847c-2.9-1.356-5.876-2.546-8.887-3.639a118.459,118.459,0,0,0-18.582-5.033,121.789,121.789,0,0,0-38.552-.9,117.2,117.2,0,0,0-90.206,67.416c-11.086,23.91-13.407,51.716-7.194,77.5l2.137,7.843c.756,2.6,1.9,5.068,2.831,7.607,1.731,5.148,4.516,9.813,6.917,14.645,5.567,9.217,11.79,18.145,19.64,25.516,15.068,15.381,34.667,25.7,55.161,30.779a115.991,115.991,0,0,0,62.109-2.269,150.693,150.693,0,0,0,14.531-5.623,60.9,60.9,0,0,1,15.256-3.9c5.266-.607,10.424-.277,15.551-.364h16.255v.895q.177,104.132.343,204.85.042,25.157.083,50.076.021,12.457.042,24.854a32.028,32.028,0,0,0,28.812,32.8c8,.326,16.289.094,24.386.167q24.408.005,48.553.007c128.758.024,251.738.049,367.453.073q86.789.026,167.945.045,40.533.016,79.539.028,9.751.005,19.4.007,4.823,0,9.626,0a94.632,94.632,0,0,0,9.466-.229,28.1,28.1,0,0,0,15.877-8.884,46.317,46.317,0,0,0,9.758-15.6,48.508,48.508,0,0,0,2.515-8.821,50.5,50.5,0,0,0,.617-9.116q0-9.246.007-18.388.005-18.279.014-36.141.016-35.72.031-69.705.036-67.954.066-128.609l.559.558q-13.242-.005-26.134-.014a55.64,55.64,0,0,0-24.6,4.62,107.671,107.671,0,0,1-48.109,6.563,109.126,109.126,0,0,1-76.445-40.859,107.805,107.805,0,0,1-18.572-35.177,112.614,112.614,0,0,1-4.94-36.363c1.068-23.609,8.766-44.147,17.271-61.2,17.5-34.261,40.7-54.738,58.383-63.649a75.788,75.788,0,0,1,21.24-7.389,48.173,48.173,0,0,1,5.665-.777C1003.194,631.21,1003.836,631.168,1003.836,631.168Z" transform="translate(-97.504 -162.433)" fill="#263238"></path></g></g></g><g class="g2"><g id="Group_3391" data-name="Group 3391" transform="translate(766.838 212.11)"><path id="Path_7297" data-name="Path 7297" d="M1400.885,489.209a120.279,120.279,0,0,0-49.031,10.413,63.176,63.176,0,0,1-16.414,4.825V257.563a32.9,32.9,0,0,0-32.905-32.905H1045.649v29.148a52.393,52.393,0,0,0,3.864,19.64A108.966,108.966,0,0,1,943.865,423.1c-54.887-2.189-100.557-46.537-104.38-101.337a108.1,108.1,0,0,1,10.007-53.707,54.078,54.078,0,0,0,5.335-22.956V224.658l-260.257-.829a40.412,40.412,0,0,0-40.411,40.412l-.25,228.961H536.166c-2.012,0-4.059-.056-6.095-.2a132.966,132.966,0,1,0-12.318,222.87,50.95,50.95,0,0,1,10.774-1.179H551.3V970.235a40.406,40.406,0,0,0,40.408,40.408h710.83a32.9,32.9,0,0,0,32.905-32.9V717.546a65.432,65.432,0,0,1,12.748,4.669,120.62,120.62,0,0,0,73.705,10.361c52.93-9.043,94.23-53.256,100.071-106.953C1530,551.727,1472.7,489.209,1400.885,489.209Z" transform="translate(-317.969 -222.969)" fill="#f5f5f5"></path><g id="Group_3390" data-name="Group 3390"><path id="Path_7298" data-name="Path 7298" d="M1401.488,489.821s2.605.09,7.725.34a60.484,60.484,0,0,1,9.5.909q2.82.458,6.1.982a43.523,43.523,0,0,1,6.906,1.571q3.642,1,7.718,2.116c2.667.9,5.4,2.078,8.308,3.184,1.447.583,2.948,1.124,4.444,1.779l4.443,2.31c2.994,1.634,6.292,3.035,9.3,5.221a120.966,120.966,0,0,1,36.631,35.427c10.684,16.033,19.45,36.707,20.695,60.551.125,2.966.392,5.966.406,9q-.244,4.548-.5,9.2c-.118,1.547-.09,3.118-.329,4.669s-.468,3.112-.7,4.679-.486,3.143-.729,4.724c-.371,1.561-.739,3.125-1.114,4.7a122.4,122.4,0,0,1-15.592,37.057,121.713,121.713,0,0,1-70.358,52.74c-3.823,1.172-7.822,1.786-11.773,2.713-4.006.631-8.058,1.2-12.172,1.464a120.692,120.692,0,0,1-50.024-6.851c-8.3-2.8-15.825-7.649-24.465-9.605l.7-.545q.031,59.946.066,127.093.016,33.534.031,68.755.005,17.608.014,35.625,0,9.007.007,18.114,0,4.553,0,9.133c.035,1.512-.09,3.087-.159,4.641a35.368,35.368,0,0,1-.784,4.624,33.684,33.684,0,0,1-25.8,25.111,46.667,46.667,0,0,1-9.522.7q-4.725,0-9.477,0-9.5,0-19.092.007-38.379.01-78.249.024-79.723.021-165.07.045c-113.683.024-234.4.048-360.745.073q-23.69.005-47.641.007-11.978,0-24.015,0a60.735,60.735,0,0,1-12.175-.836,45.385,45.385,0,0,1-11.544-4.256A41.7,41.7,0,0,1,555.5,989.464a39.49,39.49,0,0,1-3.861-11.77c-.784-4.107-.572-8.283-.614-12.314q-.005-24.445-.007-49.125-.005-98.72-.014-200.954l.895.895H535.478c-2.806.021-5.72-.049-8.509.052a51.015,51.015,0,0,0-8.426,1.11l.257-.1a133.363,133.363,0,0,1-54.092,17.087A133.621,133.621,0,0,1,325.89,644.578a137.19,137.19,0,0,1-7.319-42.361,142.953,142.953,0,0,1,6.448-42.3,133.518,133.518,0,0,1,19.446-37.841c4.055-5.852,8.949-11.013,13.8-16.172l7.86-7.142c2.65-2.338,5.613-4.294,8.4-6.459A138.54,138.54,0,0,1,412.1,473.386a147.04,147.04,0,0,1,41.383-6.168A133.247,133.247,0,0,1,531.2,492.891l-.462-.17c7.857.4,15.887.118,23.775.2l-.888.888q.088-73.375.17-144.822.047-35.7.087-70.885l.01-8.786c-.031-2.907.007-5.855.246-8.849a41.361,41.361,0,0,1,34.008-36.245c5.873-1,11.659-.517,17.382-.607q8.617.031,17.2.059l34.178.115q34.029.109,67.451.225,66.83.224,131.075.441l.808,0v.808q0,9.194,0,18.329a54.3,54.3,0,0,1-2.581,18.2,70.437,70.437,0,0,1-3.413,8.492c-1.259,2.719-2.348,5.508-3.372,8.308a106.808,106.808,0,0,0,5.9,85.409,108.645,108.645,0,0,0,20.317,27.6,112.588,112.588,0,0,0,27.442,19.717c19.956,10.479,42.916,13.553,64.436,10.469a108.238,108.238,0,0,0,57.18-27.3c7.624-7.239,14.632-15.183,19.755-24.23a103.191,103.191,0,0,0,11.856-28.344,106.469,106.469,0,0,0-1.28-59.264c-1.339-4.731-3.538-9.13-4.884-13.945a52.761,52.761,0,0,1-1.991-14.621q0-14.553.014-28.815v-.645h.645c67.548.031,130.357.062,188,.09q21.615.01,42.253.024,10.318.005,20.386.014c3.354.017,6.681-.087,10.053.239a34.591,34.591,0,0,1,9.646,2.615,33.493,33.493,0,0,1,19.928,30.786q-.016,18.612-.028,36.19c-.1,93.713-.18,165.018-.229,210.476l-.253-.219c11.568-1.5,20.279-7.135,28.514-9.39a119.376,119.376,0,0,1,20.566-4.624,115.276,115.276,0,0,1,12.349-.985c2.72-.059,4.048-.021,4.048-.021s-1.328.035-4.044.132a123.043,123.043,0,0,0-12.325,1.1,120.654,120.654,0,0,0-20.494,4.718c-8.176,2.269-16.875,7.947-28.548,9.508l-.253.035v-.25c-.048-45.459-.128-116.763-.232-210.476q-.011-17.571-.024-36.19a32.531,32.531,0,0,0-19.38-29.866,33.651,33.651,0,0,0-9.355-2.522c-3.23-.309-6.584-.208-9.938-.222q-10.068.005-20.386.014-20.636.01-42.253.024c-57.641.028-120.45.059-188,.09l.642-.642q.005,14.262.014,28.815a51.446,51.446,0,0,0,1.953,14.26c1.29,4.631,3.517,9.109,4.887,13.906a107.855,107.855,0,0,1,1.342,60.01A104.6,104.6,0,0,1,1043.1,370.98c-5.186,9.168-12.273,17.223-19.994,24.563a109.68,109.68,0,0,1-57.929,27.705c-21.8,3.139-45.1.035-65.338-10.576A114.073,114.073,0,0,1,872.007,392.7a110.232,110.232,0,0,1-20.619-27.976,108.393,108.393,0,0,1-6.022-86.661c1.037-2.844,2.14-5.675,3.417-8.433a68.661,68.661,0,0,0,3.344-8.322,52.733,52.733,0,0,0,2.5-17.708l-.007-18.329.808.808q-64.208-.192-131.076-.392-33.415-.1-67.451-.2l-34.178-.1-17.2-.052c-5.741.083-11.555-.368-17.087.586a39.635,39.635,0,0,0-32.579,34.737c-.222,2.831-.267,5.727-.232,8.669l-.01,8.786q-.031,35.174-.069,70.885-.068,71.414-.142,144.822v.9l-.892-.007c-7.943-.087-15.793.2-23.9-.2l-.246-.014-.215-.156a131.457,131.457,0,0,0-76.678-25.319,145.39,145.39,0,0,0-40.828,6.088,136.658,136.658,0,0,0-37.071,18.672c-2.751,2.133-5.675,4.065-8.287,6.372l-7.756,7.049c-4.776,5.089-9.609,10.177-13.608,15.953a131.783,131.783,0,0,0-19.182,37.331,141.085,141.085,0,0,0-6.358,41.726,132.783,132.783,0,0,0,38.264,91.84,133.055,133.055,0,0,0,105.9,38.507A131.661,131.661,0,0,0,517.909,715.7l.121-.069.135-.031a53.267,53.267,0,0,1,8.721-1.148c2.952-.1,5.751-.028,8.592-.052h17.316v.9q-.01,102.149-.017,200.954,0,24.679,0,49.125c.038,4.1-.163,8.128.586,12.03a37.912,37.912,0,0,0,3.694,11.267,39.984,39.984,0,0,0,16.231,16.834,43.684,43.684,0,0,0,11.055,4.076,58.973,58.973,0,0,0,11.829.8l24.015,0q23.95.005,47.641.007c126.344.024,247.062.049,360.745.069q85.259.026,165.07.049,39.862.01,78.249.024,9.595.005,19.092.007,4.75,0,9.477,0a45.048,45.048,0,0,0,9.241-.669,32.3,32.3,0,0,0,24.753-24.06,35.433,35.433,0,0,0,.912-8.946q0-4.584,0-9.133.005-9.111.007-18.114.011-18.019.014-35.625.016-35.21.031-68.755.037-67.064.066-127.093v-.7l.7.16c8.859,2.033,16.407,6.924,24.566,9.668a119.7,119.7,0,0,0,49.576,6.847c4.079-.257,8.1-.819,12.075-1.44,3.916-.916,7.885-1.516,11.676-2.671A122.243,122.243,0,0,0,1519.5,641q.557-2.347,1.114-4.669.364-2.357.732-4.69t.708-4.648c.239-1.54.215-3.1.333-4.638q.26-4.62.513-9.147c-.01-3.014-.271-6-.389-8.946-1.193-23.706-9.865-44.279-20.455-60.263a120.62,120.62,0,0,0-36.37-35.371c-2.99-2.192-6.272-3.6-9.248-5.238q-2.258-1.181-4.419-2.317c-1.485-.659-2.983-1.2-4.419-1.79-2.9-1.117-5.616-2.3-8.273-3.212l-7.683-2.147a44.2,44.2,0,0,0-6.882-1.6q-3.268-.546-6.077-1.016a61.472,61.472,0,0,0-9.484-.982C1404.093,490.016,1401.488,489.821,1401.488,489.821Z" transform="translate(-318.571 -223.581)" fill="#263238"></path></g></g></g></g></g><g id="Characters" transform="translate(633.985 244.375)"><g id="Group_3399" data-name="Group 3399" transform="translate(528.817 741.5)"><path id="Path_7299" data-name="Path 7299" d="M381.045,316.5s11.665-6.015,21.968-3.757,47.71,26.647,47.71,26.647l30.141-5.63,17.764,85.1L381.045,467.729Z" transform="translate(-282.725 -312.236)" fill="#ae7461"></path><path id="Path_7300" data-name="Path 7300" d="M364.04,345.812s26.935-3.4,36.693-8.284,33.023-25.516,37.9-25.142,22.516,3.753,22.516,3.753l-7.132,21.389S489.3,358.921,499.8,366.8s43.53,43.155,45.032,51.789-1.124,18.763-5.252,22.138-19.141-3.375-19.141-3.375a18.76,18.76,0,0,1-3.375,15.384c-5.63,7.506-18.763,4.881-18.763,4.881S497.176,470,491.172,472.25s-19.512-4.5-19.512-4.5-4.079,10.507-8.981,11.631-18.79-7.128-18.79-7.128-60.042-43.155-73.552-49.534-17.635-6.757-17.635-6.757Z" transform="translate(-352.701 -311.876)" fill="#ffbe9d"></path><g id="Group_3393" data-name="Group 3393" transform="translate(110.171 138.67)"><path id="Path_7301" data-name="Path 7301" d="M393.25,369.414c-.271-.01-.441-1.061-1.075-2.636a47.347,47.347,0,0,0-3.018-5.994c-2.674-4.572-5.075-8.238-4.645-8.554.368-.281,3.434,2.914,6.209,7.652a22.293,22.293,0,0,1,2.681,6.542C393.766,368.252,393.475,369.431,393.25,369.414Z" transform="translate(-384.461 -352.212)" fill="#eb996e"></path></g><g id="Group_3394" data-name="Group 3394" transform="translate(128.132 126.397)"><path id="Path_7302" data-name="Path 7302" d="M405.414,370.85c-.493.25-3.424-5.137-7.573-11.336-4.1-6.251-8.5-10.42-8.186-10.809.284-.416,5.449,3.351,9.681,9.8C403.6,364.873,405.813,370.659,405.414,370.85Z" transform="translate(-389.639 -348.674)" fill="#eb996e"></path></g><g id="Group_3395" data-name="Group 3395" transform="translate(153.075 101.447)"><path id="Path_7303" data-name="Path 7303" d="M411.753,366.948c-.531.132-2.2-6.362-6.351-13.365-4.083-7.045-8.929-11.679-8.551-12.078.257-.371,5.848,3.83,10.108,11.166C411.274,359.972,412.2,366.9,411.753,366.948Z" transform="translate(-396.83 -341.481)" fill="#eb996e"></path></g><g id="Group_3396" data-name="Group 3396" transform="translate(150.188 80.076)"><path id="Path_7304" data-name="Path 7304" d="M396.223,335.322c.472-.1,1.762,4.367,2.005,10.059.26,5.692-.628,10.257-1.107,10.2-.513-.052-.44-4.579-.7-10.122C396.189,339.922,395.717,335.419,396.223,335.322Z" transform="translate(-395.998 -335.321)" fill="#eb996e"></path></g><path id="Path_7305" data-name="Path 7305" d="M370.875,358.167s9.383-30.019,12.762-33.772,34.757-12.013,34.757-12.013l9.726,25.145-6.962,7.364-15.006-.985S396.77,368.674,370.875,358.167Z" transform="translate(-307.833 -311.875)" fill="#ae7461"></path><path id="Path_7306" data-name="Path 7306" d="M355.633,342.7s-4.291,3.306,0,11.187,15.925,2.251,19.678,0c0,0-5.63,13.133,1.5,17.261s15.759,3,15.759,3-.375,7.881,9.758,13.136,12.758,0,12.758,0,1.127,13.133,12.762,14.26,15.728-2.872,15.728-2.872l-5.221-7.756s6.754-13.768,1.5-19.769-13.882-5.255-13.882-5.255,2.3-12.193-4.4-15.589c-12.432-6.31-17.743,5.46-17.743,5.46s-.749-13.362-10.507-13.063A21.713,21.713,0,0,0,378.316,349Z" transform="translate(-350.17 -237.041)" fill="#ae7461"></path><g id="Group_3397" data-name="Group 3397" transform="translate(42.564 118.711)"><path id="Path_7307" data-name="Path 7307" d="M376.07,346.467c.441.215-1.4,4.79-4.475,10s-6.171,9.053-6.577,8.776,1.988-4.523,5.019-9.692S375.616,346.238,376.07,346.467Z" transform="translate(-364.971 -346.458)" fill="#6f4439"></path></g><g id="Group_3398" data-name="Group 3398" transform="translate(63.073 130.533)"><path id="Path_7308" data-name="Path 7308" d="M383.854,349.875c.434.2-1.478,5.082-5.116,10.382-3.621,5.311-7.475,8.863-7.822,8.533-.382-.35,2.8-4.364,6.331-9.553C380.8,354.062,383.389,349.643,383.854,349.875Z" transform="translate(-370.884 -349.866)" fill="#6f4439"></path></g></g><g id="Group_3567" data-name="Group 3567" transform="translate(0 37.604)"><g id="Group_3566" data-name="Group 3566" transform="translate(0 332.448)"><g id="man" transform="translate(7.34 -461.228)"><path id="Path_2279" data-name="Path 2279" d="M428.315,307.4,591.373,557.822l-66,311.455-97.058-15.1Z" transform="translate(-211.322 -271.768)" fill="#FFD100"></path><path id="Path_2280" data-name="Path 2280" d="M970.027,307.4,789.241,557.822,821.42,854.173H970.027Z" transform="translate(-754.571 -271.768)" fill="#FFD100"></path><g id="Group_1804" data-name="Group 1804" transform="translate(13.652 137.675)"><path id="Path_2303" data-name="Path 2303" d="M1038.675,736.538l-107.5-85.629-44.355,9.069c-4.129,35.888,1.769,77.671,12.682,122.4,37.75,78.467,72.078,89.13,72.078,89.13l67.106-.168Z" transform="translate(-885.493 -576.268)" fill="#2d2d2d"></path><path id="Path_2304" data-name="Path 2304" d="M401.6,736.538l66.414-85.629,27.4,9.069c2.551,35.888-1.093,77.671-7.835,122.4-23.321,78.467-44.529,89.13-44.529,89.13l-41.457-.168Z" transform="translate(-157.168 -576.268)" fill="#2d2d2d"></path><path id="Path_2306" data-name="Path 2306" d="M720.1,1116.47H854.276c-1.116,29.329,29.253,90.23,22.768,93.345-29.306,14.115-130.977-2.477-166.631-23.167-5.341-3.135-6.989-7.569-4.289-11.54,7.808-11.595,15.057-29.909,13.943-58.638" transform="translate(-593.463 -802.377)" fill="#ffbe9d"></path><path id="Path_2309" data-name="Path 2309" d="M397.721,875.462c30.574,0,50.071-41.441,40.581-68.188a24.74,24.74,0,0,0-13.038-14.686c-11.063-4.836-21.044,1.118-27.539,5.552Z" transform="translate(-65.849 -644.206)" fill="#fbd3a8"></path><path id="Path_2310" data-name="Path 2310" d="M424.711,829.4c41.461-15.015,34.461,47.371.387,48.893" transform="translate(-100.072 -663.442)" fill="#fbbd89"></path><path id="Path_2311" data-name="Path 2311" d="M425.235,830.386a44.878,44.878,0,0,1,11.266-2.571,23.639,23.639,0,0,1,5.71.2,15.523,15.523,0,0,1,5.324,1.886,12.7,12.7,0,0,1,4.082,3.949,16.6,16.6,0,0,1,2.23,5.4,27.78,27.78,0,0,1,.681,5.931,48.434,48.434,0,0,1-.358,6.006,35.206,35.206,0,0,0,.295-12.077,17.451,17.451,0,0,0-2.043-5.786A13.865,13.865,0,0,0,448.2,828.8a16.929,16.929,0,0,0-5.7-2.378,25.325,25.325,0,0,0-6.1-.549,46.926,46.926,0,0,0-11.947,2.045Z" transform="translate(-101.508 -662.87)" fill="#603813"></path><path id="Path_2312" data-name="Path 2312" d="M1141.6,875.462c-30.574,0-50.072-41.441-40.581-68.188a24.74,24.74,0,0,1,13.039-14.686c11.059-4.836,21.044,1.117,27.539,5.552Z" transform="translate(-1096.053 -644.206)" fill="#fbd3a8"></path><path id="Path_2313" data-name="Path 2313" d="M1128.743,829.4c-41.461-15.015-34.462,47.371-.386,48.893" transform="translate(-1084.003 -661.82)" fill="#fbbd89"></path><path id="Path_2314" data-name="Path 2314" d="M1127.184,827.919a46.957,46.957,0,0,0-11.947-2.045,25.28,25.28,0,0,0-6.1.55,16.956,16.956,0,0,0-5.7,2.378,13.861,13.861,0,0,0-4.214,4.528,17.435,17.435,0,0,0-2.043,5.786,35.239,35.239,0,0,0,.295,12.078,48.393,48.393,0,0,1-.351-6.006,27.765,27.765,0,0,1,.679-5.931,16.6,16.6,0,0,1,2.229-5.405,12.712,12.712,0,0,1,4.082-3.949,15.521,15.521,0,0,1,5.309-1.886,23.61,23.61,0,0,1,5.71-.2,44.92,44.92,0,0,1,11.262,2.57Z" transform="translate(-1080.735 -661.244)" fill="#603813"></path><path id="Path_2315" data-name="Path 2315" d="M469.309,505.79H780.963c42.289,196.146,11.91,325.135-153.691,329.177H623c-165.6-4.042-195.98-133.03-153.691-329.177" transform="translate(-426.039 -505.79)" fill="#ffbe9d"></path><path id="Path_2320" data-name="Path 2320" d="M774.706,916.261a4.084,4.084,0,0,1-1.984-.219c-12.048-3.6-13.79,10.156-4.1,11.411,9.252.862,14.117-2.321,17.1-6.4a3.78,3.78,0,0,0,.462-3.636,3.672,3.672,0,0,0-2.822-2.277,29.97,29.97,0,0,0-8.671,1.129" transform="translate(-574.585 -711.551)" fill="#f8a364"></path><path id="Path_2321" data-name="Path 2321" d="M912.194,723.083c13.333.255,18.391-12.778,9.092-20.72a18.522,18.522,0,0,0-14.212-3.5c-13.844,1.5-22.414,6.5-23.948,16.152a10.67,10.67,0,0,0,2.976,9.508c4.875,4.543,12.447,2.8,20.7-.526a13.665,13.665,0,0,1,5.388-.919" transform="translate(-771.564 -599.516)" fill="#2d2d2d"></path><path id="Path_2322" data-name="Path 2322" d="M634.513,723.083c-13.334.255-18.391-12.777-9.093-20.721a18.524,18.524,0,0,1,14.212-3.5c13.843,1.5,22.414,6.5,23.948,16.153a10.671,10.671,0,0,1-2.976,9.507c-4.875,4.543-12.447,2.8-20.7-.526a13.668,13.668,0,0,0-5.388-.919" transform="translate(-376.781 -599.516)" fill="#2d2d2d"></path><path id="Path_2324" data-name="Path 2324" d="M1098.717,654.424c-25.5,29.766-31.712,85.13-28.607,144.54-16.786-52.315-10.278-144.54-10.278-144.54Z" transform="translate(-1032.966 -577.975)" fill="#2d2d2d"></path><path id="Path_2334" data-name="Path 2334" d="M659.2,966.693V952.231c31.521-1.478,50.863,2.847,60.718,13.343a33.385,33.385,0,0,1,8.8,22.883v16.819H713.5c5.692-13.611,7.343-25.073,0-32.7a17.991,17.991,0,0,0-12.782-5.405Z" transform="translate(-461.226 -722.475)" fill="#2d2d2d"></path><path id="Path_2335" data-name="Path 2335" d="M862.249,966.693V952.231c-31.521-1.478-50.863,2.847-60.718,13.343a33.385,33.385,0,0,0-8.8,22.883v16.819h15.218c-5.692-13.611-7.343-25.073,0-32.7a17.992,17.992,0,0,1,12.782-5.405Z" transform="translate(-662.206 -722.475)" fill="#2d2d2d"></path><path id="Path_2325" data-name="Path 2325" d="M782.652,996.967c-6.33,1.252-12.474,2.543-18.634,3.447a140.474,140.474,0,0,1-18.444,1.477,132.972,132.972,0,0,1-18.445-1.14c-6.16-.822-12.3-2.078-18.625-3.368a63.8,63.8,0,0,0,17.751,7.678,70.388,70.388,0,0,0,19.377,2.465,72.7,72.7,0,0,0,19.309-2.83,68.517,68.517,0,0,0,17.711-7.729" transform="translate(-546.482 -740.83)" fill="#f8a364"></path><path id="Path_2326" data-name="Path 2326" d="M786.975,1034.187c-3.142.1-6.152.352-9.145.547s-5.955.324-8.919.406-5.93.1-8.927.065-6.018-.128-9.162-.052a32.668,32.668,0,0,0,8.859,2.969,42.759,42.759,0,0,0,18.605-.5,32.869,32.869,0,0,0,8.688-3.432" transform="translate(-570.479 -760.746)" fill="#f8a364"></path><path id="Path_6309" data-name="Path 6309" d="M263.994,334.009c1.394,1.462,8.515-6.473,19.454-7.8,10.911-1.523,19.515,4.36,20.56,2.573.526-.8-1-3.568-4.758-6.236a23.81,23.81,0,0,0-16.626-4.076,24.978,24.978,0,0,0-15.315,8.233c-3.1,3.582-3.995,6.656-3.314,7.306" transform="translate(-148.158 -166.03)" fill="#2d2d2d"></path><path id="Path_6310" data-name="Path 6310" d="M40.119.174c-1.4-1.424-8.526,6.3-19.454,7.594C9.749,9.252,1.151,3.523.1,5.264c-.52.778,1,3.474,4.764,6.078A24.334,24.334,0,0,0,21.49,15.3,25.218,25.218,0,0,0,36.8,7.281C39.9,3.8,40.794.807,40.119.174" transform="translate(271.198 170.628) rotate(-173)" fill="#2d2d2d"></path></g><g id="Group_2306" data-name="Group 2306" transform="translate(0 0)"><path id="Path_2342" data-name="Path 2342" d="M497.015,993.9c19.857,32.519,55.846,43.1,81.922,30.5l15.218,1.234c9.089,12.529,37.116,18.672,48.73,14.954.77-6.489-1.047-4.582-5.574-7.246h20.225c-4.527,2.661-6.344.757-5.574,7.246,11.614,3.714,39.64-2.429,48.73-14.954l15.217-1.234c26.076,12.613,62.066,2.024,81.923-30.5-19.415,40.565-61.284,75.23-149.374,78.794v.084h-2.065v-.084c-88.087-3.564-129.957-38.237-149.374-78.794" transform="translate(-434.761 -605.184)" fill="#2d2d2d"></path><g id="Group_2305" data-name="Group 2305" transform="translate(0 0)" clip-path="url(#clip-path)"><rect id="Rectangle_1329" data-name="Rectangle 1329" width="839.858" height="817.981" transform="translate(-223.735 -112.876)" fill="#fff"></rect><g id="Group_2301" data-name="Group 2301" transform="translate(-216.893 -112.876)" opacity="0.6"><g id="Group_2300" data-name="Group 2300"><g id="Group_2299" data-name="Group 2299" transform="translate(-4)" clip-path="url(#clip-path-2)"><rect id="Rectangle_1330" data-name="Rectangle 1330" width="14.74" height="817.981" transform="translate(652.162)" fill="#6A2186"></rect><rect id="Rectangle_1331" data-name="Rectangle 1331" width="14.74" height="817.981" transform="translate(621.107)" fill="#6A2186"></rect><rect id="Rectangle_1332" data-name="Rectangle 1332" width="14.74" height="817.981" transform="translate(590.052)" fill="#6A2186"></rect><rect id="Rectangle_1333" data-name="Rectangle 1333" width="14.74" height="817.981" transform="translate(558.997)" fill="#6A2186"></rect><rect id="Rectangle_1334" data-name="Rectangle 1334" width="14.74" height="817.981" transform="translate(527.942)" fill="#6A2186"></rect><rect id="Rectangle_1335" data-name="Rectangle 1335" width="14.74" height="817.981" transform="translate(372.663)" fill="#6A2186"></rect><rect id="Rectangle_1336" data-name="Rectangle 1336" width="14.74" height="817.981" transform="translate(403.719)" fill="#6A2186"></rect><rect id="Rectangle_1337" data-name="Rectangle 1337" width="14.74" height="817.981" transform="translate(434.773)" fill="#6A2186"></rect><rect id="Rectangle_1338" data-name="Rectangle 1338" width="14.74" height="817.981" transform="translate(465.828)" fill="#6A2186"></rect><rect id="Rectangle_1339" data-name="Rectangle 1339" width="14.74" height="817.981" transform="translate(496.887)" fill="#6A2186"></rect><rect id="Rectangle_1340" data-name="Rectangle 1340" width="14.74" height="817.981" transform="translate(341.609)" fill="#6A2186"></rect><rect id="Rectangle_1341" data-name="Rectangle 1341" width="14.74" height="817.981" transform="translate(310.553)" fill="#6A2186"></rect><rect id="Rectangle_1342" data-name="Rectangle 1342" width="14.74" height="817.981" transform="translate(279.497)" fill="#6A2186"></rect><rect id="Rectangle_1343" data-name="Rectangle 1343" width="14.74" height="817.981" transform="translate(248.443)" fill="#6A2186"></rect><rect id="Rectangle_1344" data-name="Rectangle 1344" width="14.74" height="817.981" transform="translate(217.385)" fill="#6A2186"></rect><rect id="Rectangle_1345" data-name="Rectangle 1345" width="14.74" height="817.981" transform="translate(186.33)" fill="#6A2186"></rect></g></g></g><g id="Group_2304" data-name="Group 2304" transform="translate(-207.476 -122.467)" opacity="0.8"><g id="Group_2303" data-name="Group 2303"><g id="Group_2302" data-name="Group 2302" clip-path="url(#clip-path-3)"><rect id="Rectangle_1347" data-name="Rectangle 1347" width="803.342" height="15.009" transform="translate(0.003 695.671)" fill="#6A2186"></rect><rect id="Rectangle_1348" data-name="Rectangle 1348" width="803.342" height="15.009" transform="translate(0.003 727.291)" fill="#6A2186"></rect><rect id="Rectangle_1349" data-name="Rectangle 1349" width="803.342" height="15.009" transform="translate(0.003 758.912)" fill="#6A2186"></rect><rect id="Rectangle_1350" data-name="Rectangle 1350" width="803.342" height="15.009" transform="translate(0.003 790.533)" fill="#6A2186"></rect><rect id="Rectangle_1351" data-name="Rectangle 1351" width="803.342" height="15.009" transform="translate(0.003 822.154)" fill="#6A2186"></rect><rect id="Rectangle_1352" data-name="Rectangle 1352" width="803.342" height="15.009" transform="translate(0.003 664.05)" fill="#6A2186"></rect><rect id="Rectangle_1353" data-name="Rectangle 1353" width="803.342" height="15.009" transform="translate(0.003 632.425)" fill="#6A2186"></rect><rect id="Rectangle_1354" data-name="Rectangle 1354" width="803.342" height="15.009" transform="translate(0.003 600.804)" fill="#6A2186"></rect><rect id="Rectangle_1355" data-name="Rectangle 1355" width="803.342" height="15.009" transform="translate(0.003 569.184)" fill="#6A2186"></rect><rect id="Rectangle_1356" data-name="Rectangle 1356" width="803.342" height="15.009" transform="translate(0.003 537.563)" fill="#6A2186"></rect><rect id="Rectangle_1357" data-name="Rectangle 1357" width="803.342" height="15.009" transform="translate(0.003 379.455)" fill="#6A2186"></rect><rect id="Rectangle_1358" data-name="Rectangle 1358" width="803.342" height="15.009" transform="translate(0.003 411.079)" fill="#6A2186"></rect><rect id="Rectangle_1359" data-name="Rectangle 1359" width="803.342" height="15.009" transform="translate(0.003 442.7)" fill="#6A2186"></rect><rect id="Rectangle_1360" data-name="Rectangle 1360" width="803.342" height="15.009" transform="translate(0.003 474.321)" fill="#6A2186"></rect><rect id="Rectangle_1361" data-name="Rectangle 1361" width="803.342" height="15.009" transform="translate(0.003 505.942)" fill="#6A2186"></rect><rect id="Rectangle_1362" data-name="Rectangle 1362" width="803.342" height="15.009" transform="translate(0.003 347.834)" fill="#6A2186"></rect><rect id="Rectangle_1363" data-name="Rectangle 1363" width="803.342" height="15.009" transform="translate(0.003 316.213)" fill="#6A2186"></rect><rect id="Rectangle_1364" data-name="Rectangle 1364" width="803.342" height="15.009" transform="translate(0.003 284.592)" fill="#6A2186"></rect><rect id="Rectangle_1365" data-name="Rectangle 1365" width="803.342" height="15.009" transform="translate(0.003 252.971)" fill="#6A2186"></rect><rect id="Rectangle_1366" data-name="Rectangle 1366" width="803.342" height="15.009" transform="translate(0.003 221.35)" fill="#6A2186"></rect><rect id="Rectangle_1367" data-name="Rectangle 1367" width="803.342" height="15.009" transform="translate(0.003 189.729)" fill="#6A2186"></rect><rect id="Rectangle_1368" data-name="Rectangle 1368" width="803.342" height="15.009" transform="translate(0.003 158.105)" fill="#6A2186"></rect><rect id="Rectangle_1369" data-name="Rectangle 1369" width="803.342" height="15.009" transform="translate(0.003 126.484)" fill="#6A2186"></rect></g></g></g></g></g><g id="Group_1611" data-name="Group 1611" transform="translate(5.564 127.699)"><path id="Path_2337" data-name="Path 2337" d="M390.574,527.994H771.1a10.623,10.623,0,0,0,10.314-10.9v-.174c0-16.858-12.928-30.525-28.876-30.525h-343.4c-15.947,0-28.876,13.667-28.876,30.525v.175a10.623,10.623,0,0,0,10.314,10.9" transform="translate(-380.258 -486.391)" fill="#2d2d2d"></path><path id="Path_2344" data-name="Path 2344" d="M424.516,1465.392c.487,32.369,2.007,55.115,3.627,50.089s2.538-35.335,2.051-67.705-2.2-54.535-3.814-49.513-2.351,34.759-1.865,67.129" transform="translate(-114.201 -928.924)" fill="#fff"></path></g></g><path id="Path_7329" data-name="Path 7329" d="M518.842,321.774c0,5.838,29.256,134.333,40.453,165.9s41.99,370.624,41.99,370.624v194.6s-360.89-2.7-391.683,0,6.532-439.6,0-483.79-6.587-65.605-9.113-131.252c-2.189-56.9,10.757-102.534,37.817-135.47s86.959-66.24,86.959-66.24l21.25-30.987L496.87,284.675l3.434-18.1,9.123,28.177Z" transform="translate(-200.251 -205.153)" fill="#fbfbfb"></path><g id="Group_3557" data-name="Group 3557" transform="translate(33.694 233.977)" opacity="0.3"><path id="Path_7330" data-name="Path 7330" d="M559.488,546.89c-2.5-6.383-10.625-7.992-17.441-8.745-63.7-7.066-130.017-22.97-176.544-67.055-18.2-17.243-32.558-38.084-46.392-59-30.237-45.719-58.664-92.61-87.081-139.484l-22.065,8.346c13.535,66.185,26.852,114.1,48.893,168.351,22.062,54.311,39.152,106.884,95.017,124.651,36.11,11.485,104.688,2.682,142.467-.277,15.773-1.235,31.653-2.761,46.8-7.333,4.579-1.381,9.217-3.125,12.665-6.438S561.233,551.34,559.488,546.89Z" transform="translate(-209.965 -272.605)" opacity="0.35"></path></g><g id="Group_3562" data-name="Group 3562" transform="translate(22.569 80.13)"><path id="Path_7331" data-name="Path 7331" d="M210.113,370.186c1.651,2.931,129.136,275.225,186.056,286.422s233.818,13.813,268.343,7.281,68.3-12.613,68.3-12.613,25-59.379,2.178-109.968l-47.516,1.5S555.359,535.682,536.7,530.58s-34.789-22.606-51.585-21.673L384.6,275.009s-65.318-60.652-111.973-41.99S196.443,345.866,210.113,370.186Z" transform="translate(-206.758 -225.292)" fill="#fbfbfb"></path><g id="Group_3558" data-name="Group 3558" transform="translate(479.524 319.152)"><path id="Path_7332" data-name="Path 7332" d="M349.85,436.531a23.623,23.623,0,0,1,.943-4.575c.756-2.9,1.693-7.135,2.685-12.387,1.016-5.248,1.891-11.562,2.522-18.593a199.469,199.469,0,0,0,.5-22.953,187.711,187.711,0,0,0-6.466-41.157c-1.422-5.151-2.709-9.3-3.7-12.12-.957-2.841-1.433-4.437-1.315-4.485a23.368,23.368,0,0,1,1.974,4.239,123.214,123.214,0,0,1,4.266,12.012A167.624,167.624,0,0,1,358.3,377.95a181.254,181.254,0,0,1-.642,23.175,162.257,162.257,0,0,1-2.928,18.7,123.292,123.292,0,0,1-3.261,12.325C350.54,435.008,349.968,436.569,349.85,436.531Z" transform="translate(-344.997 -320.26)" fill="#263238"></path></g><g id="Group_3559" data-name="Group 3559" transform="translate(3.356 49.717)"><path id="Path_7333" data-name="Path 7333" d="M382.216,242.586s.676,1.391,1.9,4.145c1.228,2.8,3.021,6.886,5.363,12.221l20.334,46.829c17.535,40.62,42.753,99.038,73.566,170.422l-.694-.43c7.937-.371,15.391,3.08,22.284,6.823,6.934,3.823,13.646,8.266,21.017,11.634,7.278,3.694,15.537,4.551,23.911,5.56,8.367.992,16.914,1.724,25.575,2.48,34.671,2.865,71.409,5.123,109.663,7.253h-.073L732.578,508l.6-.021.236.541c7.326,16.775,10.4,35.642,9.511,54.529A178.484,178.484,0,0,1,731.26,619.2l-.17.448-.5.094c-9.57,1.766-19.862,3.667-30.21,5.578q-16.64,3.075-33.072,6.105a220.671,220.671,0,0,1-33.106,3.41c-21.982,1-43.648,1.086-64.929.978s-42.181-.614-62.64-1.37q-30.694-1.082-59.986-3.271c-9.754-.7-19.373-1.637-28.853-2.674-9.484-1.249-18.787-2.1-27.941-4.641a48.545,48.545,0,0,1-12.1-6.979,102.526,102.526,0,0,1-10.278-9.015,221.894,221.894,0,0,1-17.642-19.894c-21.555-27.4-38.448-55.157-53.555-80.563-29.884-51.061-51.453-93.824-66.261-123.382-7.361-14.8-12.939-26.37-16.681-34.23s-5.612-12.03-5.612-12.03.565,1,1.557,2.994q1.514,3.06,4.385,8.877c3.9,7.829,9.622,19.3,16.983,34.074,15,29.454,36.731,72.116,66.729,123.049,15.159,25.333,32.107,53.031,53.628,80.275a219.567,219.567,0,0,0,17.552,19.727,100.642,100.642,0,0,0,10.139,8.866,47.109,47.109,0,0,0,11.7,6.74c8.669,2.4,18.215,3.306,27.58,4.516,9.456,1.02,19.054,1.946,28.8,2.629q29.211,2.2,59.92,3.209c20.442.739,41.327,1.218,62.591,1.322s42.909.007,64.828-1a218.906,218.906,0,0,0,32.857-3.389q16.437-3.033,33.078-6.109c10.351-1.911,20.646-3.812,30.22-5.578l-.673.538a177,177,0,0,0,11.541-55.518c.885-18.679-2.151-37.255-9.334-53.739l.833.52c-16.4.51-32.572,1.016-47.516,1.481l-.038,0-.038,0c-38.268-2.165-75.006-4.464-109.7-7.382-8.676-.767-17.223-1.516-25.624-2.522-4.2-.479-8.363-1.02-12.5-1.8a46.786,46.786,0,0,1-11.863-3.93c-7.51-3.448-14.232-7.926-21.1-11.725-6.813-3.729-14.049-7.031-21.489-6.688l-.5.024-.194-.454c-30.577-71.488-55.6-129.99-73-170.668-8.637-20.31-15.377-36.162-19.98-46.981-2.258-5.373-3.989-9.487-5.172-12.3C382.76,244.036,382.216,242.586,382.216,242.586Z" transform="translate(-207.725 -242.586)" fill="#263238"></path></g><g id="Group_3560" data-name="Group 3560" transform="translate(17.703)"><path id="Path_7334" data-name="Path 7334" d="M358.688,259.607c-.121.111-1.776-1.637-4.95-4.579a95.515,95.515,0,0,0-39.333-21.711,88.5,88.5,0,0,0-64.336,6.435,95.5,95.5,0,0,0-34.258,29.069c-2.529,3.507-3.805,5.55-3.944,5.467a6.393,6.393,0,0,1,.77-1.571c.59-.982,1.339-2.515,2.595-4.3a84.14,84.14,0,0,1,11.815-14.187,90.84,90.84,0,0,1,112.788-11.277,83.937,83.937,0,0,1,14.392,11.568c1.582,1.5,2.619,2.855,3.392,3.7A6.482,6.482,0,0,1,358.688,259.607Z" transform="translate(-211.861 -228.253)" fill="#263238"></path></g><g id="Group_3561" data-name="Group 3561" transform="translate(263.366 283.817)"><path id="Path_7335" data-name="Path 7335" d="M297.286,310.076c.468.177-2.411,9.022-6.431,19.755s-7.656,19.293-8.124,19.12,2.414-9.019,6.435-19.755S296.818,309.9,297.286,310.076Z" transform="translate(-282.682 -310.073)" fill="#263238"></path></g></g><g id="Group_3563" data-name="Group 3563" transform="translate(524.554 408.444)"><path id="Path_7336" data-name="Path 7336" d="M358.4,323.258c0-.1.486-.239,1.308.052a4.965,4.965,0,0,1,2.557,2.5,5.464,5.464,0,0,1-.128,5.4A6.241,6.241,0,0,1,356.1,334a5.851,5.851,0,0,1-4.544-4.849,5.593,5.593,0,0,1,1.734-5.124,4.566,4.566,0,0,1,3.413-1.113c.836.08,1.245.3,1.228.409.059.344-2.022-.128-3.757,1.627a4.431,4.431,0,0,0-.985,3.885,4.313,4.313,0,0,0,3.212,3.382,4.76,4.76,0,0,0,4.346-1.929,4.276,4.276,0,0,0,.34-3.972C360.2,323.838,358.326,323.491,358.4,323.258Z" transform="translate(-351.472 -322.901)" fill="#263238"></path></g><g id="Group_3564" data-name="Group 3564" transform="translate(134.458 35.112)"><path id="Path_7337" data-name="Path 7337" d="M404.764,268.739a23.974,23.974,0,0,1-3.427-1.773q-3.543-2.029-9.487-5.422l.666-.295c-1.873,9.484-3.687,23.435-6.872,40.155l-.208,1.107-.968-.607c-13.962-8.8-30.709-18.853-48.574-29.651-13.324-7.975-25.777-16.026-37.248-22.981-11.53-6.9-22.062-12.876-30.931-17.847-8.745-4.863-15.887-8.839-21.052-11.711-2.348-1.322-4.242-2.386-5.713-3.212a10.907,10.907,0,0,1-1.936-1.221,10.722,10.722,0,0,1,2.106.9c1.512.749,3.458,1.717,5.873,2.914,5.075,2.577,12.38,6.379,21.337,11.211s19.564,10.7,31.171,17.538l37.331,22.863c17.857,10.795,34.577,20.941,48.469,29.884l-1.179.5c3.323-16.588,5.373-30.557,7.52-40.016l.142-.621.527.33q5.8,3.616,9.269,5.782A23.971,23.971,0,0,1,404.764,268.739Z" transform="translate(-239.014 -215.275)" fill="#263238"></path></g><g id="Group_3565" data-name="Group 3565" transform="translate(155.591 46.35)" opacity="0.3"><path id="Path_7338" data-name="Path 7338" d="M245.106,218.515l78.464,58.463c17.261,12.862,34.938,25.943,55.438,32.52q-.567-27.26-1.134-54.526l-8.03,38.275Z" transform="translate(-245.106 -218.515)" opacity="0.68"></path></g></g></g><g id="Group_3676" data-name="Group 3676" transform="translate(712.698)"><g id="Group_3675" data-name="Group 3675" transform="translate(0 344.036)"><g id="man-2" data-name="man" transform="translate(29.237 -553.686)"><path id="Path_2279-2" data-name="Path 2279" d="M602.683,307.4,428.315,537.308s23.875,175.852,43.8,253.01,57.276,85.9,104.969,42.816Z" transform="translate(-237.206 -166.524)" fill="#FFD100"></path><path id="Path_2280-2" data-name="Path 2280" d="M789.241,307.4,963.612,548.936,932.575,834.773H789.241Z" transform="translate(-422.281 -166.524)" fill="#FFD100"></path><g id="Group_1804-2" data-name="Group 1804" transform="translate(176.214 239.299)"><path id="Path_2303-2" data-name="Path 2303" d="M885.5,733.5l103.69-82.591,42.782,8.748c3.983,34.615-1.707,74.915-12.232,118.06-36.41,75.683-69.521,85.968-69.521,85.968l-64.725-.162Z" transform="translate(-647.858 -578.917)" fill="#2d2d2d"></path><path id="Path_2304-2" data-name="Path 2304" d="M549.344,733.5l-103.69-82.591-42.782,8.748c-3.982,34.615,1.707,74.915,12.232,118.06,36.41,75.683,69.521,85.968,69.521,85.968l64.725-.162Z" transform="translate(-399.716 -578.917)" fill="#2d2d2d"></path><path id="Path_2306-2" data-name="Path 2306" d="M849.44,1116.47H720.021c1.076,28.289-21.2,106-14.942,109.007,28.266,13.614,119.312-21.362,153.7-41.319,5.151-3.023,6.741-7.3,4.137-11.13-7.531-11.183-9.114-28.847-8.039-56.558" transform="translate(-586.192 -813.522)" fill="#ae7461"></path><path id="Path_2309-2" data-name="Path 2309" d="M439.192,872.458c-29.489,0-48.295-39.971-39.141-65.768a23.862,23.862,0,0,1,12.575-14.165c10.67-4.664,20.3,1.078,26.562,5.355Z" transform="translate(-397.721 -649.408)" fill="#fbd3a8"></path><path id="Path_2310-2" data-name="Path 2310" d="M452.27,829.314c-39.989-14.483-33.239,45.69-.373,47.158" transform="translate(-411.561 -667.683)" fill="#fbbd89"></path><path id="Path_2311-2" data-name="Path 2311" d="M453.025,830.225a43.282,43.282,0,0,0-10.866-2.48,22.8,22.8,0,0,0-5.507.194,14.973,14.973,0,0,0-5.135,1.819,12.252,12.252,0,0,0-3.937,3.809,16.008,16.008,0,0,0-2.151,5.213,26.8,26.8,0,0,0-.656,5.72,46.706,46.706,0,0,0,.346,5.793,33.956,33.956,0,0,1-.284-11.649,16.83,16.83,0,0,1,1.971-5.581,13.374,13.374,0,0,1,4.065-4.368,16.33,16.33,0,0,1,5.5-2.294,24.428,24.428,0,0,1,5.88-.529,45.262,45.262,0,0,1,11.524,1.973Z" transform="translate(-411.436 -667.089)" fill="#603813"></path><path id="Path_2312-2" data-name="Path 2312" d="M1098.6,872.458c29.489,0,48.295-39.971,39.141-65.768a23.862,23.862,0,0,0-12.577-14.164c-10.667-4.664-20.3,1.078-26.562,5.355Z" transform="translate(-757.138 -649.407)" fill="#fbd3a8"></path><path id="Path_2313-2" data-name="Path 2313" d="M1100.17,829.314c39.99-14.483,33.239,45.69.373,47.158" transform="translate(-757.934 -667.683)" fill="#fbbd89"></path><path id="Path_2314-2" data-name="Path 2314" d="M1096.8,827.846a45.3,45.3,0,0,1,11.524-1.973,24.4,24.4,0,0,1,5.88.53,16.358,16.358,0,0,1,5.5,2.294,13.374,13.374,0,0,1,4.065,4.368,16.815,16.815,0,0,1,1.97,5.581,33.988,33.988,0,0,1-.284,11.649,46.688,46.688,0,0,0,.339-5.793,26.78,26.78,0,0,0-.655-5.72,16.005,16.005,0,0,0-2.15-5.213,12.267,12.267,0,0,0-3.937-3.809,14.975,14.975,0,0,0-5.121-1.819,22.772,22.772,0,0,0-5.507-.194,43.332,43.332,0,0,0-10.863,2.479Z" transform="translate(-756.212 -667.085)" fill="#603813"></path><path id="Path_2315-2" data-name="Path 2315" d="M769.3,505.79H468.7c-40.788,189.186-11.487,313.6,148.238,317.5h4.119c159.722-3.9,189.027-128.31,148.238-317.5" transform="translate(-425.643 -505.79)" fill="#ae7461"></path><path id="Path_2320-2" data-name="Path 2320" d="M773.711,916.221a3.938,3.938,0,0,0,1.914-.212c11.62-3.475,13.3,9.8,3.951,11.006-8.924.832-13.616-2.239-16.5-6.175a3.646,3.646,0,0,1-.446-3.507,3.541,3.541,0,0,1,2.722-2.2,28.9,28.9,0,0,1,8.363,1.089" transform="translate(-581.342 -718.775)" fill="#8e4a3e"></path><path id="Path_2321-2" data-name="Path 2321" d="M896.3,722.215c-12.86.246-17.739-12.324-8.77-19.985a17.865,17.865,0,0,1,13.708-3.38c13.353,1.448,21.618,6.27,23.1,15.579a10.292,10.292,0,0,1-2.87,9.17c-4.7,4.382-12.005,2.7-19.969-.507a13.177,13.177,0,0,0-5.2-.886" transform="translate(-646.55 -603.032)" fill="#2d2d2d"></path><path id="Path_2322-2" data-name="Path 2322" d="M648.879,722.215c12.861.246,17.739-12.324,8.77-19.985a17.866,17.866,0,0,0-13.708-3.38c-13.352,1.449-21.619,6.271-23.1,15.579a10.292,10.292,0,0,0,2.87,9.17c4.7,4.382,12.006,2.7,19.969-.507a13.182,13.182,0,0,1,5.2-.886" transform="translate(-512.077 -603.031)" fill="#2d2d2d"></path><path id="Path_2323" data-name="Path 2323" d="M491,654.424c-24.591,28.709-30.587,82.11-27.592,139.412-16.191-50.458-9.914-139.412-9.914-139.412Z" transform="translate(-425.711 -580.688)" fill="#2d2d2d"></path><path id="Path_2324-2" data-name="Path 2324" d="M1058.59,654.424c24.591,28.709,30.587,82.11,27.592,139.412,16.191-50.458,9.914-139.412,9.914-139.412Z" transform="translate(-736.619 -580.688)" fill="#2d2d2d"></path><path id="Path_2334-2" data-name="Path 2334" d="M726.252,966.17V952.221c-30.4-1.425-49.058,2.746-58.563,12.869a32.2,32.2,0,0,0-8.489,22.071v16.222h14.678c-5.49-13.128-7.082-24.184,0-31.539a17.352,17.352,0,0,1,12.328-5.213Z" transform="translate(-531.811 -730.617)" fill="#2d2d2d"></path><path id="Path_2335-2" data-name="Path 2335" d="M792.729,966.17V952.221c30.4-1.425,49.058,2.746,58.563,12.869a32.2,32.2,0,0,1,8.488,22.071v16.222H845.1c5.49-13.128,7.082-24.184,0-31.539a17.353,17.353,0,0,0-12.329-5.213Z" transform="translate(-600.285 -730.617)" fill="#2d2d2d"></path><g id="Group_1817" data-name="Group 1817" transform="translate(165.891 245.163)"><path id="Path_6303" data-name="Path 6303" d="M633.552,876.041a264.148,264.148,0,0,0,26.762,1.875,264.15,264.15,0,0,0,26.761-1.875s2.852,26.423-26.517,26.347l-.244,0-.244,0c-29.37.076-26.518-26.347-26.518-26.347" transform="translate(-632.848 -875.413)" fill="#be1717"></path><path id="Path_6304" data-name="Path 6304" d="M633.553,876.041a260.589,260.589,0,0,0,26.761,1.875,260.592,260.592,0,0,0,26.761-1.875,23.4,23.4,0,0,1,.038,3.311c-5.324,2.063-13.77,3.739-26.8,3.692-13.029.047-21.475-1.629-26.8-3.692a23.449,23.449,0,0,1,.038-3.311" transform="translate(-632.849 -875.413)" fill="#fff"></path><path id="Path_6305" data-name="Path 6305" d="M652.4,918.267c4.258-3.515,10.411-6.11,19.3-6.255v-.007l.22,0,.219,0v.007c8.893.145,15.046,2.74,19.3,6.255-3.953,3.593-10.008,6.212-19.279,6.188l-.244,0-.244,0c-9.271.023-15.326-2.6-19.279-6.188" transform="translate(-644.462 -897.479)" fill="#ff2929"></path><path id="Path_6306" data-name="Path 6306" d="M658.981,902.019h.091l.249,0,.236,0c.414,0,.82,0,1.222-.014l.269-.007c.388-.011.772-.026,1.149-.047l.193-.012q.5-.03.987-.071l.238-.02q.533-.047,1.047-.107l.274-.033q.449-.056.886-.12l.186-.027c.321-.05.636-.1.948-.161l.317-.059c.3-.058.594-.117.883-.182l.174-.04.1-.023q.331-.076.653-.158l.029-.007.32-.083q.386-.1.762-.214l.314-.1.06-.019q.236-.073.468-.15c.176-.058.351-.118.523-.179s.337-.121.5-.183c.146-.055.29-.112.434-.169.1-.041.2-.083.306-.125q.388-.16.761-.33l.208-.095c.162-.075.323-.152.481-.23l.023-.012c.31-.152.643-.327.975-.512l.072-.04c12.879-7.2,11.452-22.839,11.385-23.5a.645.645,0,0,0-.235-.436.639.639,0,0,0-.471-.139l-.1.013a262.041,262.041,0,0,1-26.586,1.857,262.049,262.049,0,0,1-26.577-1.857l-.1-.013a.628.628,0,0,0-.705.565c-.068.672-1.494,16.308,11.386,23.512l.066.037c.344.191.67.361,1,.524q.24.118.484.231l.205.094q.376.17.766.332l.3.123c.145.058.29.114.437.17.163.062.329.121.5.181s.351.123.53.182q.23.076.465.15l.075.023.3.092q.375.111.761.214c.111.03.224.058.337.087.226.058.443.11.663.161l.1.023.176.041c.288.064.583.124.88.181l.317.059c.311.057.626.111.947.161l.186.027q.435.065.885.12l.274.034q.516.06,1.046.107l.239.02q.486.04.985.07l.194.012h0c.377.021.76.036,1.149.047l.268.007c.373.008.749.014,1.132.014m.34-1.258-.252,0c-.4,0-.8,0-1.19-.014l-.261-.006q-.568-.016-1.118-.046h0l-.189-.012q-.483-.029-.954-.068l-.232-.019q-.514-.046-1.012-.1l-.265-.032q-.434-.054-.856-.116l-.18-.026c-.309-.048-.612-.1-.913-.155l-.3-.058c-.286-.055-.569-.112-.846-.173l-.263-.061q-.316-.073-.624-.152c-.121-.03-.229-.058-.335-.086q-.369-.1-.728-.2l-.283-.087-.076-.024c-.149-.047-.3-.094-.444-.143-.17-.056-.338-.114-.5-.173s-.318-.114-.473-.172c-.141-.053-.278-.107-.415-.161l-.287-.117q-.371-.153-.727-.315l-.194-.088q-.233-.108-.458-.218c-.312-.154-.621-.315-.945-.5l-.064-.036c-10.911-6.1-10.95-18.669-10.8-21.654a261.865,261.865,0,0,0,26.178,1.8,261.869,261.869,0,0,0,26.187-1.8c.155,3.024.1,15.56-10.794,21.653l-.049.027c-.332.184-.648.349-.956.5-.156.077-.308.149-.461.221l-.2.09q-.354.16-.723.313l-.29.119c-.136.055-.273.108-.413.161-.158.06-.318.118-.479.175s-.331.115-.5.17q-.221.073-.446.144l-.06.019-.3.091q-.359.107-.729.205l-.3.079-.029.008q-.31.079-.627.152l-.1.025-.155.036c-.279.062-.562.119-.849.174l-.305.057c-.3.055-.6.107-.913.155l-.178.026q-.422.063-.856.116l-.264.032q-.5.058-1.014.1l-.231.019q-.471.039-.956.068l-.188.012q-.551.03-1.118.046l-.261.006c-.392.01-.785.016-1.19.014Z" transform="translate(-631.849 -874.415)" fill="#b2786e"></path></g><g id="Group_2377" data-name="Group 2377" transform="translate(241.326 131.545)"><path id="Path_2316" data-name="Path 2316" d="M641.212,803.284c0,14.32,7.142,25.93,15.94,25.93s15.939-11.609,15.939-25.93-7.142-25.934-15.939-25.934-15.94,11.609-15.94,25.934" transform="translate(-641.212 -777.35)" fill="#2d2d2d"></path><path id="Path_2317" data-name="Path 2317" d="M659.194,795.643a7.959,7.959,0,0,0,8.887,6.311,8.1,8.1,0,0,0-1.12-16.1,8.964,8.964,0,0,0-7.766,9.791" transform="translate(-655.01 -772.712)" fill="#fff"></path></g><g id="Group_1819" data-name="Group 1819" transform="translate(118.453 131.542)"><path id="Path_2318" data-name="Path 2318" d="M887.712,803.284c0,14.32,7.142,25.93,15.94,25.93s15.939-11.609,15.939-25.93-7.142-25.934-15.939-25.934-15.94,11.609-15.94,25.934" transform="translate(-887.712 -777.35)" fill="#2d2d2d"></path><path id="Path_2319" data-name="Path 2319" d="M905.689,795.643a7.958,7.958,0,0,0,8.887,6.311,8.1,8.1,0,0,0-1.121-16.1,8.964,8.964,0,0,0-7.766,9.791" transform="translate(-900.745 -774.619)" fill="#fff"></path></g></g><g id="Group_2306-2" data-name="Group 2306" transform="translate(161.074 106.509)"><g id="Group_2305-2" data-name="Group 2305" transform="translate(0 0)" clip-path="url(#clip-path-4)"><rect id="Rectangle_1329-2" data-name="Rectangle 1329" width="810.059" height="788.957" transform="translate(-178.637 -108.871)" fill="#fff"></rect><g id="Group_2301-2" data-name="Group 2301" transform="translate(-170.115 -108.871)" opacity="0.6"><g id="Group_2300-2" data-name="Group 2300"><g id="Group_2299-2" data-name="Group 2299" clip-path="url(#clip-path-5)"><rect id="Rectangle_1330-2" data-name="Rectangle 1330" width="14.217" height="788.957" transform="translate(149.769)" fill="#6A2186"></rect><rect id="Rectangle_1331-2" data-name="Rectangle 1331" width="14.217" height="788.957" transform="translate(179.722)" fill="#6A2186"></rect><rect id="Rectangle_1332-2" data-name="Rectangle 1332" width="14.217" height="788.957" transform="translate(209.675)" fill="#6A2186"></rect><rect id="Rectangle_1333-2" data-name="Rectangle 1333" width="14.217" height="788.957" transform="translate(239.628)" fill="#6A2186"></rect><rect id="Rectangle_1334-2" data-name="Rectangle 1334" width="14.217" height="788.957" transform="translate(269.582)" fill="#6A2186"></rect><rect id="Rectangle_1335-2" data-name="Rectangle 1335" width="14.217" height="788.957" transform="translate(419.351)" fill="#6A2186"></rect><rect id="Rectangle_1336-2" data-name="Rectangle 1336" width="14.217" height="788.957" transform="translate(389.397)" fill="#6A2186"></rect><rect id="Rectangle_1337-2" data-name="Rectangle 1337" width="14.217" height="788.957" transform="translate(359.445)" fill="#6A2186"></rect><rect id="Rectangle_1338-2" data-name="Rectangle 1338" width="14.217" height="788.957" transform="translate(329.492)" fill="#6A2186"></rect><rect id="Rectangle_1339-2" data-name="Rectangle 1339" width="14.217" height="788.957" transform="translate(299.535)" fill="#6A2186"></rect><rect id="Rectangle_1340-2" data-name="Rectangle 1340" width="14.217" height="788.957" transform="translate(449.304)" fill="#6A2186"></rect><rect id="Rectangle_1341-2" data-name="Rectangle 1341" width="14.217" height="788.957" transform="translate(479.258)" fill="#6A2186"></rect><rect id="Rectangle_1342-2" data-name="Rectangle 1342" width="14.217" height="788.957" transform="translate(509.211)" fill="#6A2186"></rect><rect id="Rectangle_1343-2" data-name="Rectangle 1343" width="14.217" height="788.957" transform="translate(539.164)" fill="#6A2186"></rect><rect id="Rectangle_1344-2" data-name="Rectangle 1344" width="14.217" height="788.957" transform="translate(569.12)" fill="#6A2186"></rect><rect id="Rectangle_1345-2" data-name="Rectangle 1345" width="14.217" height="788.957" transform="translate(599.073)" fill="#6A2186"></rect></g></g></g><g id="Group_2304-2" data-name="Group 2304" transform="translate(-161.029 -118.122)" opacity="0.8"><g id="Group_2303-2" data-name="Group 2303"><g id="Group_2302-2" data-name="Group 2302" clip-path="url(#clip-path-6)"><rect id="Rectangle_1347-2" data-name="Rectangle 1347" width="774.838" height="14.477" transform="translate(0 670.988)" fill="#6A2186"></rect><rect id="Rectangle_1348-2" data-name="Rectangle 1348" width="774.838" height="14.477" transform="translate(0 701.486)" fill="#6A2186"></rect><rect id="Rectangle_1349-2" data-name="Rectangle 1349" width="774.838" height="14.477" transform="translate(0 731.985)" fill="#6A2186"></rect><rect id="Rectangle_1350-2" data-name="Rectangle 1350" width="774.838" height="14.477" transform="translate(0 762.484)" fill="#6A2186"></rect><rect id="Rectangle_1351-2" data-name="Rectangle 1351" width="774.838" height="14.477" transform="translate(0 792.983)" fill="#6A2186"></rect><rect id="Rectangle_1352-2" data-name="Rectangle 1352" width="774.838" height="14.477" transform="translate(0 640.489)" fill="#6A2186"></rect><rect id="Rectangle_1353-2" data-name="Rectangle 1353" width="774.838" height="14.477" transform="translate(0 609.986)" fill="#6A2186"></rect><rect id="Rectangle_1354-2" data-name="Rectangle 1354" width="774.838" height="14.477" transform="translate(0 579.487)" fill="#6A2186"></rect><rect id="Rectangle_1355-2" data-name="Rectangle 1355" width="774.838" height="14.477" transform="translate(0 548.989)" fill="#6A2186"></rect><rect id="Rectangle_1356-2" data-name="Rectangle 1356" width="774.838" height="14.477" transform="translate(0 518.49)" fill="#6A2186"></rect><rect id="Rectangle_1357-2" data-name="Rectangle 1357" width="774.838" height="14.477" transform="translate(0 365.992)" fill="#6A2186"></rect><rect id="Rectangle_1358-2" data-name="Rectangle 1358" width="774.838" height="14.477" transform="translate(0 396.493)" fill="#6A2186"></rect><rect id="Rectangle_1359-2" data-name="Rectangle 1359" width="774.838" height="14.477" transform="translate(0 426.992)" fill="#6A2186"></rect><rect id="Rectangle_1360-2" data-name="Rectangle 1360" width="774.838" height="14.477" transform="translate(0 457.491)" fill="#6A2186"></rect><rect id="Rectangle_1361-2" data-name="Rectangle 1361" width="774.838" height="14.477" transform="translate(0 487.991)" fill="#6A2186"></rect><rect id="Rectangle_1362-2" data-name="Rectangle 1362" width="774.838" height="14.477" transform="translate(0 335.493)" fill="#6A2186"></rect><rect id="Rectangle_1363-2" data-name="Rectangle 1363" width="774.838" height="14.477" transform="translate(0 304.993)" fill="#6A2186"></rect><rect id="Rectangle_1364-2" data-name="Rectangle 1364" width="774.838" height="14.477" transform="translate(0 274.494)" fill="#6A2186"></rect><rect id="Rectangle_1365-2" data-name="Rectangle 1365" width="774.838" height="14.477" transform="translate(0 243.995)" fill="#6A2186"></rect><rect id="Rectangle_1366-2" data-name="Rectangle 1366" width="774.838" height="14.477" transform="translate(0 213.496)" fill="#6A2186"></rect><rect id="Rectangle_1367-2" data-name="Rectangle 1367" width="774.838" height="14.477" transform="translate(0 182.997)" fill="#6A2186"></rect><rect id="Rectangle_1368-2" data-name="Rectangle 1368" width="774.838" height="14.477" transform="translate(0 152.495)" fill="#6A2186"></rect><rect id="Rectangle_1369-2" data-name="Rectangle 1369" width="774.838" height="14.477" transform="translate(0 121.996)" fill="#6A2186"></rect></g></g></g></g></g><g id="Group_1611-2" data-name="Group 1611" transform="translate(167.701 229.677)"><path id="Path_2337-2" data-name="Path 2337" d="M771.632,526.518H390.587A10.424,10.424,0,0,1,380.259,516v-.168c0-16.26,12.946-29.442,28.915-29.442H753.046c15.969,0,28.915,13.182,28.915,29.442V516a10.424,10.424,0,0,1-10.328,10.517" transform="translate(-380.258 -486.391)" fill="#2d2d2d"></path><path id="Path_2342-2" data-name="Path 2342" d="M787.159,993.9c-19.153,31.365-53.865,41.572-79.016,29.414l-14.678,1.19c-8.766,12.084-35.8,18.01-47,14.424-.743-6.259,1.01-4.42,5.377-6.989H632.333c4.366,2.566,6.118.73,5.377,6.989-11.2,3.582-38.234-2.343-47-14.424l-14.677-1.19c-25.151,12.165-59.864,1.952-79.016-29.414,18.726,39.126,59.11,72.561,144.074,76v.081h1.992v-.081c84.962-3.437,125.346-36.88,144.074-76" transform="translate(-440.134 -742.145)" fill="#2d2d2d"></path></g></g><g class="g"><g id="Group_3661" data-name="Group 3661" transform="translate(0 322.185)"><path id="Path_7355" data-name="Path 7355" d="M405.711,377.753c5.55-2.22,188.873-24.247,188.873-24.247l74.381-62.973-6.983,182.3L427.908,495.4Z" transform="translate(-405.711 -290.534)" fill="#455a64"></path><path id="Path_7356" data-name="Path 7356" d="M486.784,298.561c-2.23,1.11-20.6,17.438-20.6,17.438l5.6,140.375Z" transform="translate(-256.418 -270.717)" opacity="0.28"></path></g></g><g id="Group_3670" data-name="Group 3670" transform="translate(197.111)"><path id="Path_7359" data-name="Path 7359" d="M483.426,400.172,516.8,327.1l4.145-45.133s63.985-40.217,94.344-55.4,71.252-28.916,71.252-28.916v42.586Z" transform="translate(-407.916 -201.653)" fill="#455a64"></path><path id="Path_7360" data-name="Path 7360" d="M846.183,764.547S832.042,518.974,833.27,500.871c0,0,10.7-130.142-12.4-179.7s-74.818-93.113-74.818-93.113l-4.759-26.016-101,63.659L593.6,306.313s-26.5,27.979-44.054,54.814c-13.254,18.333-27.99,41.927-34.546,71.593-2.4,10.844-30.186,140.5-31.015,230.887,0,0-4.27,78.846-8.824,123.51-5.637,55.279-14.024,206.216-12.157,280.878H853.927S846.94,976.138,846.183,764.547Z" transform="translate(-462.535 -186.812)" fill="#455a64"></path><g id="Group_3664" data-name="Group 3664" transform="translate(119.091 147.493)"><path id="Path_7362" data-name="Path 7362" d="M542.734,327.732l3.927,325.012L497.168,969.294H627.647s59.3-240.346,73.108-290.855c13.407-49.042,33.5-295.913,35.281-308.036.7-4.752,14.846-90.008-26.8-130.229" transform="translate(-496.124 -240.173)" fill="#455a64"></path><g id="Group_3663" data-name="Group 3663"><path id="Path_7363" data-name="Path 7363" d="M709.983,240.173s.944.895,2.73,2.713a72.189,72.189,0,0,1,7.125,8.759c5.71,8.107,12.425,21.5,16.3,40.051,3.9,18.492,5.276,41.851,2.477,68.578-1.957,13.313-2.938,27.546-4.385,42.715q-2.06,22.728-4.357,47.987c-3.115,33.64-6.625,70.493-10.871,110.037-2.179,19.765-4.44,40.214-7.229,61.231-2.848,20.983-5.616,42.736-11.492,64.429-21.8,86.82-45.792,182.372-71.013,282.835l-.173.687H614.313l-116.4-.01h-1.044l.163-1.03c18.312-116.749,35.212-224.515,49.642-316.521l-.007.121c-1.058-98.417-1.929-179.659-2.539-236.34-.253-28.3-.454-50.457-.59-65.581-.042-7.52-.076-13.282-.1-17.212-.007-3.885.042-5.89.042-5.89s.1,2,.187,5.89c.069,3.927.177,9.688.316,17.205.229,15.127.565,37.283.992,65.578.76,56.68,1.852,137.916,3.17,236.333v.062l-.007.059c-14.344,92.024-31.143,199.8-49.34,316.573l-.885-1.03c37.917,0,76.806-.007,116.4-.014H628.39l-.878.687c25.281-100.463,49.323-196.015,71.173-282.835,5.866-21.562,8.648-43.221,11.523-64.2,2.817-20.993,5.106-41.431,7.316-61.183,4.308-39.523,7.9-76.369,11.086-110q2.362-25.225,4.489-47.974c1.478-15.1,2.529-29.5,4.523-42.722,2.879-26.613,1.616-49.9-2.168-68.325-3.753-18.485-10.327-31.851-15.911-39.988a77.53,77.53,0,0,0-6.965-8.842C710.84,241.158,709.983,240.173,709.983,240.173Z" transform="translate(-496.867 -240.173)" fill="#263238"></path></g></g><g id="Group_3665" data-name="Group 3665" transform="translate(169.441 563.06)"><path id="Path_7364" data-name="Path 7364" d="M576.647,388.965c-.076.225-3.948-.826-10.084-2.921s-14.51-5.283-23.553-9.293-17.032-8.093-22.7-11.235-9.047-5.314-8.929-5.522c.125-.229,3.719,1.544,9.518,4.388S534.74,371.1,543.742,375.1s17.264,7.357,23.265,9.747S576.734,388.719,576.647,388.965Z" transform="translate(-511.382 -359.974)" fill="#263238"></path></g><g id="Group_3666" data-name="Group 3666" transform="translate(11.301 286.571)"><path id="Path_7365" data-name="Path 7365" d="M465.828,607.291a2.942,2.942,0,0,1-.031-.85c.024-.669.052-1.488.087-2.491q.187-3.5.513-9.56c.538-8.454,1.3-20.417,2.237-35.135,2-29.658,4.86-70.632,8.859-115.82,4-45.205,8.62-86.033,12.38-115.525,1.891-14.746,3.493-26.668,4.7-34.893q.9-5.994,1.415-9.466c.167-.992.3-1.8.413-2.456a3.038,3.038,0,0,1,.2-.829,3.011,3.011,0,0,1-.017.853c-.062.663-.142,1.478-.236,2.48q-.4,3.481-1.079,9.508c-.992,8.412-2.4,20.313-4.128,34.959-3.438,29.52-7.846,70.344-11.853,115.528-4,45.167-7.056,86.116-9.383,115.754-1.176,14.7-2.133,26.647-2.81,35.09-.357,4.024-.642,7.208-.85,9.536-.108,1-.194,1.814-.267,2.477A2.937,2.937,0,0,1,465.828,607.291Z" transform="translate(-465.793 -280.267)" fill="#263238"></path></g><g id="Group_3667" data-name="Group 3667" transform="translate(245.28 58.297)"><path id="Path_7366" data-name="Path 7366" d="M563.544,262.651c-.565.191-3.764-12.488-12.276-25.891-8.391-13.487-18.43-21.864-18.01-22.29.135-.163,2.81,1.707,6.615,5.349a86.6,86.6,0,0,1,21.718,34.553C563.228,259.376,563.752,262.6,563.544,262.651Z" transform="translate(-533.245 -214.459)" fill="#263238"></path></g></g><g id="Group_3671" data-name="Group 3671" transform="translate(428.508 115.62)"><path id="Path_7369" data-name="Path 7369" d="M615.363,243.624c-.184.309-4.492-2.449-12.1-5.366a84.236,84.236,0,0,0-13.73-3.909,84.764,84.764,0,0,0-34.719.479,84.19,84.19,0,0,0-13.615,4.287c-7.531,3.125-11.759,6-11.95,5.7a13.771,13.771,0,0,1,2.865-2.158,30.483,30.483,0,0,1,3.6-2.185,51.158,51.158,0,0,1,4.978-2.525,75.93,75.93,0,0,1,13.75-4.738,80.535,80.535,0,0,1,35.423-.489,75.675,75.675,0,0,1,13.872,4.357,50.681,50.681,0,0,1,5.051,2.387,30.37,30.37,0,0,1,3.653,2.085C614.388,242.784,615.428,243.516,615.363,243.624Z" transform="translate(-529.243 -230.984)" fill="#263238"></path></g><g id="Group_3673" data-name="Group 3673" transform="translate(455.904 314.058)" opacity="0.28"><path id="Path_7371" data-name="Path 7371" d="M537.141,811.539c77.507-146.706,101.6-339.6,96.984-523.348,0,0-22.245,223.335-29.745,261.676C596.933,587.933,537.141,811.539,537.141,811.539Z" transform="translate(-537.141 -288.191)"></path></g><g id="Group_3674" data-name="Group 3674" transform="translate(306.558 18.969)"><path id="Path_7372" data-name="Path 7372" d="M655.265,203.127a9.781,9.781,0,0,1-1.734,1.325c-1.343.909-3.053,2.071-5.168,3.507-4.721,3.1-11.225,7.378-19.176,12.606-16.459,10.6-38.868,25.045-63.628,41-9.584,6.109-18.815,12-27.452,17.5l.059-.042q-4.5,3.481-8.769,6.785a70.852,70.852,0,0,0-7.833,6.688c-4.8,4.641-9.081,9.154-12.928,13.251l-.694.739-.4-.916c-4.156-9.605-7.555-17.458-10.011-23.137-1.082-2.605-1.96-4.7-2.636-6.338a11.492,11.492,0,0,1-.8-2.262,11.532,11.532,0,0,1,1.148,2.109c.763,1.592,1.745,3.646,2.959,6.188,2.591,5.62,6.171,13.393,10.552,22.9l-1.093-.177c3.791-4.169,8.02-8.745,12.817-13.473a71.341,71.341,0,0,1,7.937-6.9q4.225-3.314,8.693-6.82l.031-.024.031-.017c8.627-5.533,17.847-11.444,27.417-17.583,24.875-15.786,47.387-30.071,63.923-40.564,8.079-5.026,14.687-9.133,19.481-12.117,2.189-1.318,3.961-2.383,5.345-3.219A10.058,10.058,0,0,1,655.265,203.127Z" transform="translate(-494.087 -203.122)" fill="#263238"></path></g></g></g></g><g class="gtrant"><g id="Light_Bulb" data-name="Light Bulb" transform="translate(71.969 341.486)"><g id="Group_3707" data-name="Group 3707"><g id="Group_3680" data-name="Group 3680"><g id="Group_3677" data-name="Group 3677" transform="translate(44.962)"><path id="Path_7373" data-name="Path 7373" d="M116.138,241.565c-.413.232-15.159-25.346-32.929-57.124S51.362,126.7,51.778,126.47,66.934,151.81,84.711,183.6,116.551,241.336,116.138,241.565Z" transform="translate(-51.769 -126.469)" fill="#263238"></path></g><g id="Group_3678" data-name="Group 3678" transform="translate(154.172 4.778)"><path id="Path_7374" data-name="Path 7374" d="M88.238,127.846c.475.024-.225,19.616-1.561,43.748s-2.8,43.683-3.275,43.658.222-19.613,1.557-43.755S87.763,127.818,88.238,127.846Z" transform="translate(-83.253 -127.846)" fill="#263238"></path></g><g id="Group_3679" data-name="Group 3679" transform="translate(0 117.279)"><path id="Path_7375" data-name="Path 7375" d="M112.514,185.218c-.153.451-16.775-4.763-37.127-11.641s-36.731-12.821-36.578-13.272,16.772,4.763,37.13,11.641S112.666,184.771,112.514,185.218Z" transform="translate(-38.808 -160.278)" fill="#263238"></path></g></g><g id="Group_3685" data-name="Group 3685" transform="translate(57.89 108.563)"><g id="Group_3684" data-name="Group 3684"><g id="Group_3683" data-name="Group 3683"><g id="Group_3682" data-name="Group 3682"><g id="Group_3681" data-name="Group 3681"><path id="Path_7376" data-name="Path 7376" d="M320.58,240.63A138.336,138.336,0,1,0,190.1,434.431c6.577,15.016,14,31.968,14,31.968l111.057-48.653s-7.187-18.235-13.955-34.358A138.3,138.3,0,0,0,320.58,240.63Z" transform="translate(-55.496 -157.766)" fill="#c642f8"></path></g></g></g></g></g><g id="Group_3686" data-name="Group 3686" transform="translate(162.674 227.989)"><path id="Path_7377" data-name="Path 7377" d="M223.943,340.006s-.319-.493-.895-1.478q-.879-1.514-2.539-4.385c-2.217-3.864-5.436-9.588-9.473-17.021-8.044-14.881-19.363-36.617-31.774-64.214q-4.667-10.339-9.487-21.767-2.373-5.724-4.839-11.672c-1.6-3.954-3.389-8.068-3.76-12.626a14.647,14.647,0,0,1,.989-6.785A8.922,8.922,0,0,1,166.982,195a8.372,8.372,0,0,1,7.042.784,13.081,13.081,0,0,1,5.023,5.165c2.362,4.4,1.856,9.841-.239,14.3a24.332,24.332,0,0,1-10.223,10.764A26.293,26.293,0,0,1,153.7,229.24a27.714,27.714,0,0,1-14.479-5.765,33.118,33.118,0,0,1-9.98-12.422,24.227,24.227,0,0,1-2.272-7.85,11.411,11.411,0,0,1,1.814-8.089,7.34,7.34,0,0,1,3.521-2.494,9.4,9.4,0,0,1,4.284-.309,13.229,13.229,0,0,1,7.444,3.944,28.654,28.654,0,0,1,4.895,6.886,84.359,84.359,0,0,1,3.552,7.663,57.171,57.171,0,0,1,4.183,16.539,31.442,31.442,0,0,1-2.865,17,25.063,25.063,0,0,1-5.175,7.069,19.557,19.557,0,0,1-7.524,4.426,18.117,18.117,0,0,1-8.668.3,23.277,23.277,0,0,1-7.919-3.333,52.23,52.23,0,0,1-12.2-11.579c-1.745-2.164-3.379-4.4-4.943-6.664a47.563,47.563,0,0,1-4.322-7.052,13.549,13.549,0,0,1-1.349-8.176,8.785,8.785,0,0,1,1.655-3.892,5.96,5.96,0,0,1,3.642-2.22,7.12,7.12,0,0,1,4.176.548,14.111,14.111,0,0,1,3.472,2.182,27.589,27.589,0,0,1,5.217,6.067c5.848,8.717,9.414,19.061,8.537,29.228a29.6,29.6,0,0,1-5.005,14.01,22.175,22.175,0,0,1-11.44,8.8,19.147,19.147,0,0,1-13.934-1.155,21.8,21.8,0,0,1-10.049-9.158,17.977,17.977,0,0,1-2.168-6.369,10.044,10.044,0,0,1,1.176-6.542,5.126,5.126,0,0,1,6.032-2.092,12.1,12.1,0,0,1,5.12,3.816c2.806,3.184,4.329,7.042,6.157,10.517q2.659,5.307,5.2,10.382c13.494,27.074,24.014,49.181,31,64.586,3.5,7.7,6.112,13.729,7.857,17.826q1.27,3.06,1.939,4.679c.43,1.055.628,1.61.628,1.61s-.26-.527-.722-1.571q-.7-1.6-2.029-4.638c-1.807-4.069-4.471-10.07-8.027-17.743-7.1-15.349-17.712-37.4-31.282-64.433q-2.555-5.063-5.224-10.365c-1.852-3.5-3.372-7.3-6.081-10.344a11.334,11.334,0,0,0-4.777-3.569,4.355,4.355,0,0,0-5.123,1.779,9.282,9.282,0,0,0-1.034,6,17.068,17.068,0,0,0,2.085,6.063,20.954,20.954,0,0,0,9.678,8.783,18.272,18.272,0,0,0,13.313,1.093,21.275,21.275,0,0,0,10.958-8.474,28.709,28.709,0,0,0,4.832-13.584c.846-9.886-2.647-20.039-8.412-28.611a26.57,26.57,0,0,0-5.037-5.859c-1.943-1.6-4.405-3-6.854-2.522-2.5.382-4.124,2.827-4.52,5.332a12.613,12.613,0,0,0,1.28,7.593,46.912,46.912,0,0,0,4.242,6.9c1.557,2.248,3.181,4.464,4.9,6.608a51.524,51.524,0,0,0,11.96,11.357,22.335,22.335,0,0,0,7.59,3.195,17.059,17.059,0,0,0,8.183-.284c5.342-1.61,9.605-5.928,12.089-10.979a30.46,30.46,0,0,0,2.765-16.477,56.235,56.235,0,0,0-4.111-16.248c-2.175-5.1-4.412-10.358-8.218-14.219a12.268,12.268,0,0,0-6.893-3.673,7.089,7.089,0,0,0-6.889,2.425c-1.557,2.043-1.87,4.818-1.616,7.4a23.2,23.2,0,0,0,2.182,7.538,32.175,32.175,0,0,0,9.678,12.068,26.788,26.788,0,0,0,13.979,5.588,25.355,25.355,0,0,0,14.354-3.1,23.445,23.445,0,0,0,9.858-10.341c2.015-4.263,2.466-9.435.278-13.5a12.251,12.251,0,0,0-4.669-4.825,7.525,7.525,0,0,0-6.313-.742,8.1,8.1,0,0,0-4.346,4.586,13.859,13.859,0,0,0-.94,6.4c.343,4.364,2.085,8.426,3.677,12.391l4.808,11.669q4.777,11.421,9.421,21.781c12.321,27.615,23.536,49.385,31.472,64.318,3.986,7.458,7.149,13.213,9.3,17.108q1.608,2.9,2.452,4.433C223.683,339.479,223.943,340.006,223.943,340.006Z" transform="translate(-85.704 -192.194)" fill="#fff"></path></g><g id="Group_3687" data-name="Group 3687" transform="translate(73.706 288.595)"><path id="Path_7378" data-name="Path 7378" d="M189.8,296.587a10.578,10.578,0,0,1-1.7.16c-1.117.045-2.761.208-4.881.2a121.157,121.157,0,0,1-17.937-1.061,128.512,128.512,0,0,1-25.922-6.167A127.094,127.094,0,0,1,85.6,253.7a128.619,128.619,0,0,1-15.564-21.631,121,121,0,0,1-7.8-16.182c-.815-1.956-1.29-3.542-1.672-4.589a10.762,10.762,0,0,1-.5-1.627,11.1,11.1,0,0,1,.69,1.557c.444,1.023.971,2.581,1.842,4.513a134.538,134.538,0,0,0,8.055,15.974,131.136,131.136,0,0,0,94.736,63.472,134.114,134.114,0,0,0,17.837,1.374c2.116.069,3.76-.031,4.874-.01A11.337,11.337,0,0,1,189.8,296.587Z" transform="translate(-60.056 -209.666)" fill="#263238"></path></g><g id="Group_3688" data-name="Group 3688" transform="translate(68.409 262.076)"><path id="Path_7379" data-name="Path 7379" d="M58.626,202.021c.271-.045,1.037,3.073,1.71,6.969s1,7.09.725,7.139-1.041-3.073-1.71-6.969S58.352,202.07,58.626,202.021Z" transform="translate(-58.529 -202.021)" fill="#263238"></path></g><g id="Group_3689" data-name="Group 3689" transform="translate(230.842 124.402)"><path id="Path_7380" data-name="Path 7380" d="M196.363,264.936a8.5,8.5,0,0,1-.378-1.426q-.343-1.545-.9-4.11c-.191-.9-.4-1.894-.624-2.969-.264-1.079-.631-2.23-.978-3.479-.746-2.484-1.415-5.363-2.629-8.394q-.838-2.3-1.752-4.808c-.621-1.665-1.453-3.327-2.21-5.085-1.453-3.552-3.472-7.118-5.488-10.927a145.654,145.654,0,0,0-16.258-22.766,145.64,145.64,0,0,0-20.671-18.863c-3.538-2.456-6.84-4.884-10.195-6.75-1.655-.964-3.2-1.988-4.783-2.8l-4.565-2.314c-2.865-1.568-5.644-2.577-8.02-3.611-1.2-.5-2.3-1-3.337-1.387-1.041-.354-2-.676-2.876-.975l-3.972-1.381a7.947,7.947,0,0,1-1.37-.552,8.217,8.217,0,0,1,1.426.357c1.016.3,2.359.7,4.041,1.207.885.271,1.856.572,2.914.895,1.055.364,2.168.843,3.382,1.315a86.681,86.681,0,0,1,8.12,3.493q2.211,1.087,4.62,2.272c1.6.8,3.167,1.814,4.846,2.768,3.392,1.849,6.736,4.27,10.316,6.723a141.96,141.96,0,0,1,20.868,18.943A142.145,142.145,0,0,1,182.2,223.287c2.008,3.847,4.013,7.451,5.443,11.041.746,1.78,1.568,3.455,2.175,5.141l1.7,4.86a85.1,85.1,0,0,1,2.5,8.481c.323,1.259.666,2.421.9,3.51q.3,1.634.541,3l.718,4.156A7.846,7.846,0,0,1,196.363,264.936Z" transform="translate(-105.356 -162.332)" fill="#263238"></path></g><g id="Group_3690" data-name="Group 3690" transform="translate(77.193 153.087)" opacity="0.2"><path id="Path_7381" data-name="Path 7381" d="M135.327,175.593c-4.537-4.367-12.12-5.658-20.029-4.686a43.542,43.542,0,0,0-28.517,16.5C65.931,213.652,58.1,237.7,62.049,272.549c1.342,11.8,7.271,29.672,16.834,37.626a22.493,22.493,0,0,0,17.174,5.37c16.123-2.119,21.389-21,20-36.221-1.3-14.187-5.935-28.815-1.367-42.309,3.76-11.114,13.109-19.273,19.588-29.055S143.781,183.73,135.327,175.593Z" transform="translate(-61.061 -170.601)" fill="#fff"></path></g><g id="Group_3691" data-name="Group 3691" transform="translate(167.747 127.119)" opacity="0.2"><path id="Path_7382" data-name="Path 7382" d="M119.515,166.865c-8.218-6.063-21.423-4.277-26.911,1.807a22.537,22.537,0,0,0-4.971,19.047,20.645,20.645,0,0,0,16.872,15.741A19.512,19.512,0,0,0,124.5,192.312C127.746,184.792,126.109,171.725,119.515,166.865Z" transform="translate(-87.167 -163.115)" fill="#fff"></path></g><g id="Group_3706" data-name="Group 3706" transform="translate(187.52 337.737)"><g id="_2gGvdE.tif" data-name="2gGvdE.tif" transform="translate(78.163 108.629)"><path id="Path_7383" data-name="Path 7383" d="M115.4,276.826a37.722,37.722,0,0,1,10.07,3.25,8.127,8.127,0,0,0,7.128.222l22.343-9.806a8.231,8.231,0,0,0,4.808-6.05c.565-3.153,2.241-7.319,5.03-9.293Z" transform="translate(-115.4 -255.149)" fill="#263238"></path></g><path id="Path_7384" data-name="Path 7384" d="M100.555,276.549c.2.451,20.7,33.072,28.538,45.545a17.962,17.962,0,0,0,14.787,8.589,16.658,16.658,0,0,0,6.969-1.4l48.868-21.451s12.769-5.606,11.218-17.008c-1.637-12-14.274-56.465-14.274-56.465Z" transform="translate(-73.886 -197.839)" fill="#e0e0e0"></path><g id="Group_3693" data-name="Group 3693" transform="translate(48.433 80.773)"><path id="Rectangle_2006" data-name="Rectangle 2006" d="M.763,0H97.5a.763.763,0,0,1,.763.763V4.816a.762.762,0,0,1-.762.762H.762A.762.762,0,0,1,0,4.816V.763A.763.763,0,0,1,.763,0Z" transform="translate(0 39.814) rotate(-23.903)" fill="#e0e0e0"></path><g id="Group_3692" data-name="Group 3692" transform="translate(0.397 0.675)"><path id="Path_7385" data-name="Path 7385" d="M196.221,252.811a2.99,2.99,0,0,0,1.3-1.488,2.686,2.686,0,0,0-.253-2.317,2.5,2.5,0,0,0-2.7-1.3c-4.648,1.97-11.447,5.144-19.828,8.87-16.838,7.5-40.006,17.819-65.6,29.218a2.2,2.2,0,0,0-1.19,2.719,3.36,3.36,0,0,0,.531.989,2.222,2.222,0,0,0,1.925.746,13.382,13.382,0,0,0,2.258-.895q4.688-2.076,9.224-4.083c6.05-2.668,11.884-5.245,17.445-7.7L168.9,264.57c8.381-3.649,15.186-6.611,19.956-8.686l5.443-2.321,1.426-.583a2.154,2.154,0,0,1,.5-.17,2.2,2.2,0,0,1-.461.253c-.357.17-.815.392-1.388.666-1.287.59-3.087,1.419-5.377,2.473-4.742,2.14-11.506,5.189-19.842,8.949l-29.474,13.171c-5.554,2.47-11.381,5.061-17.42,7.749q-4.537,2.014-9.22,4.093l-1.172.52a4.589,4.589,0,0,1-1.342.448,3.115,3.115,0,0,1-2.713-1.048,4.146,4.146,0,0,1-.7-1.287,3.087,3.087,0,0,1,1.675-3.833c25.634-11.3,48.841-21.538,65.706-28.978,8.447-3.66,15.173-6.712,20.022-8.63a2.8,2.8,0,0,1,3,1.526,2.9,2.9,0,0,1,.18,2.5A2.33,2.33,0,0,1,196.221,252.811Z" transform="translate(-106.944 -247.313)" fill="#263238"></path></g></g><g id="Group_3695" data-name="Group 3695" transform="translate(41.809 68.985)"><path id="Rectangle_2007" data-name="Rectangle 2007" d="M.763,0H101.435a.762.762,0,0,1,.762.762V4.816a.763.763,0,0,1-.763.763H.762A.762.762,0,0,1,0,4.816V.763A.763.763,0,0,1,.763,0Z" transform="matrix(0.914, -0.405, 0.405, 0.914, 0, 41.41)" fill="#e0e0e0"></path><g id="Group_3694" data-name="Group 3694" transform="translate(0.394 0.676)"><path id="Path_7386" data-name="Path 7386" d="M197.913,249.409a2.906,2.906,0,0,0,1.332-1.557,2.785,2.785,0,0,0-.357-2.393,2.5,2.5,0,0,0-2.9-1.086c-4.922,2.213-11.947,5.373-20.6,9.269l-68.145,30.345a2.2,2.2,0,0,0-1.29,1.734,2.14,2.14,0,0,0,.146,1.1,2.647,2.647,0,0,0,.6.992,2.189,2.189,0,0,0,2.054.576c.7-.222,1.6-.683,2.383-1.009q4.865-2.154,9.581-4.239c6.282-2.775,12.342-5.453,18.118-8,11.544-5.078,21.944-9.65,30.7-13.5l20.73-9.029,5.654-2.414,1.478-.607a2.621,2.621,0,0,1,.517-.18,2.21,2.21,0,0,1-.479.264l-1.443.69c-1.332.61-3.2,1.471-5.585,2.567l-20.612,9.293c-8.734,3.9-19.11,8.533-30.623,13.677-5.769,2.567-11.822,5.259-18.1,8.048L111.5,288.2c-.853.35-1.533.739-2.536,1.065a3.086,3.086,0,0,1-2.9-.812,3.614,3.614,0,0,1-.8-1.29,3.053,3.053,0,0,1-.2-1.554,3.1,3.1,0,0,1,1.818-2.445c26.63-11.745,50.738-22.381,68.252-30.106,8.755-3.826,15.8-6.927,20.757-9.022a2.8,2.8,0,0,1,3.233,1.287,2.979,2.979,0,0,1,.295,2.588A2.32,2.32,0,0,1,197.913,249.409Z" transform="translate(-105.033 -243.915)" fill="#263238"></path></g></g><g id="Group_3697" data-name="Group 3697" transform="translate(35.837 57.487)"><path id="Rectangle_2008" data-name="Rectangle 2008" d="M.762,0H103.946a.762.762,0,0,1,.762.762V4.816a.763.763,0,0,1-.763.763H.763A.763.763,0,0,1,0,4.815V.762A.762.762,0,0,1,.762,0Z" transform="translate(0 42.427) rotate(-23.903)" fill="#e0e0e0"></path><g id="Group_3696" data-name="Group 3696" transform="translate(0.396 0.68)"><path id="Path_7387" data-name="Path 7387" d="M198.485,246.094a2.93,2.93,0,0,0,1.349-1.606,2.838,2.838,0,0,0-.43-2.439,2.492,2.492,0,0,0-3.014-.93l-21.1,9.5-69.768,31.067a2.2,2.2,0,0,0-1.113,2.914,2.484,2.484,0,0,0,.649.989,2.2,2.2,0,0,0,2.13.461c.76-.305,1.648-.721,2.463-1.075q4.979-2.2,9.81-4.339l18.548-8.193c11.818-5.2,22.467-9.879,31.427-13.823,8.922-3.885,16.158-7.038,21.222-9.248,2.47-1.055,4.409-1.884,5.786-2.473.631-.257,1.131-.461,1.516-.621a2.718,2.718,0,0,1,.527-.184,2.587,2.587,0,0,1-.489.267c-.378.18-.864.413-1.478.7-1.363.624-3.278,1.505-5.72,2.626-5.037,2.272-12.234,5.515-21.1,9.511-8.943,3.993-19.561,8.738-31.351,14-5.907,2.629-12.1,5.384-18.527,8.242q-4.823,2.138-9.806,4.353c-.85.368-1.609.735-2.55,1.11a3.113,3.113,0,0,1-3.007-.649,3.444,3.444,0,0,1-.871-1.294,3.106,3.106,0,0,1,1.575-4.1c27.261-12.026,51.942-22.915,69.875-30.824l21.229-9.244a2.793,2.793,0,0,1,3.368,1.11,3.01,3.01,0,0,1,.375,2.64A2.338,2.338,0,0,1,198.485,246.094Z" transform="translate(-103.312 -240.602)" fill="#263238"></path></g></g><g id="Group_3699" data-name="Group 3699" transform="translate(29.169 45.681)"><path id="Rectangle_2009" data-name="Rectangle 2009" d="M.763,0H107.978a.762.762,0,0,1,.762.762V4.816a.763.763,0,0,1-.763.763H.762A.762.762,0,0,1,0,4.816V.763A.763.763,0,0,1,.763,0Z" transform="translate(0 44.061) rotate(-23.903)" fill="#e0e0e0"></path><g id="Group_3698" data-name="Group 3698" transform="translate(0.395 0.682)"><path id="Path_7388" data-name="Path 7388" d="M200.252,242.687a2.852,2.852,0,0,0,1.37-1.682,2.9,2.9,0,0,0-.552-2.5,2.518,2.518,0,0,0-3.2-.669c-5.224,2.352-12.689,5.717-21.9,9.862L103.6,279.914a2.217,2.217,0,0,0-1.3,1.877,2.731,2.731,0,0,0,.968,2.137,2.218,2.218,0,0,0,2.248.26l2.591-1.148q5.167-2.289,10.177-4.5c6.671-2.948,13.105-5.789,19.238-8.5,12.262-5.4,23.307-10.254,32.6-14.343,9.251-4.038,16.758-7.309,22.01-9.6,2.563-1.1,4.575-1.96,6-2.57l1.571-.645a2.84,2.84,0,0,1,.548-.194,2.811,2.811,0,0,1-.51.277c-.389.184-.895.427-1.533.729-1.412.649-3.4,1.561-5.935,2.723-5.224,2.352-12.689,5.713-21.9,9.862l-32.523,14.517c-6.126,2.727-12.554,5.585-19.217,8.547l-10.171,4.516-2.591,1.148a3.114,3.114,0,0,1-3.16-.364,3.673,3.673,0,0,1-1.318-2.91,3.111,3.111,0,0,1,1.838-2.64c28.281-12.477,53.884-23.775,72.481-31.979,9.251-4.038,16.761-7.309,22.01-9.6a2.827,2.827,0,0,1,3.559.829,3.1,3.1,0,0,1,.513,2.719,2.67,2.67,0,0,1-1.02,1.374A1.687,1.687,0,0,1,200.252,242.687Z" transform="translate(-101.39 -237.199)" fill="#263238"></path></g></g><path id="Path_7389" data-name="Path 7389" d="M93.192,277.582c.4.905,11.79,21.4,17.646,31.909a14.436,14.436,0,0,0,10.309,7.226l6.4,1.034,94.48-41.476,3.521-5.335a14.459,14.459,0,0,0,1.609-12.623L215.408,223.93Z" transform="translate(-92.064 -223.593)" fill="#c642f8"></path><g id="Group_3700" data-name="Group 3700" transform="translate(56.181 88.16)" opacity="0.3"><path id="Path_7390" data-name="Path 7390" d="M109.063,284.1c10-1.936,19.151-5.744,29.121-10.174,8.048-3.576,16.057-6.827,24.733-10.85,6.355-2.948,12.12-5.866,18.4-8.95,3.174-1.561,6.362-3.937,6.726-4.874Z" transform="translate(-109.063 -249.248)"></path></g><g id="Group_3701" data-name="Group 3701" transform="translate(47.967 75.898)" opacity="0.3"><path id="Path_7391" data-name="Path 7391" d="M106.695,283.27c10.715-2.248,20.57-6.369,31.32-11.138,8.679-3.854,17.3-7.375,26.661-11.7,6.858-3.167,13.081-6.285,19.855-9.588,3.431-1.672,6.892-4.169,7.309-5.13Z" transform="translate(-106.695 -245.713)"></path></g><g id="Group_3702" data-name="Group 3702" transform="translate(43.177 64.988)" opacity="0.3"><path id="Path_7392" data-name="Path 7392" d="M105.314,280.125c10.715-2.248,20.57-6.369,31.32-11.142,8.679-3.85,17.3-7.371,26.661-11.7,6.858-3.167,13.081-6.286,19.855-9.588,3.431-1.672,6.893-4.173,7.309-5.13Z" transform="translate(-105.314 -242.568)"></path></g><g id="Group_3703" data-name="Group 3703" transform="translate(38.386 54.079)" opacity="0.3"><path id="Path_7393" data-name="Path 7393" d="M103.933,276.976c10.715-2.248,20.573-6.365,31.32-11.138,8.679-3.854,17.3-7.371,26.665-11.7,6.854-3.17,13.077-6.285,19.852-9.591,3.431-1.672,6.892-4.169,7.309-5.127Z" transform="translate(-103.933 -239.423)"></path></g><path id="Path_7394" data-name="Path 7394" d="M93.192,277.582c.4.905,11.79,21.4,17.646,31.909a14.436,14.436,0,0,0,10.309,7.226l6.4,1.034,94.48-41.476,3.521-5.335a14.459,14.459,0,0,0,1.609-12.623L215.408,223.93Z" transform="translate(-92.064 -223.593)" opacity="0.3"></path><g id="Group_3704" data-name="Group 3704" transform="translate(21.895 40.283)"><path id="Path_7395" data-name="Path 7395" d="M212.061,235.45c.1.229-25.09,11.506-56.257,25.19S99.276,285.234,99.179,285s25.083-11.5,56.26-25.19S211.96,235.221,212.061,235.45Z" transform="translate(-99.179 -235.446)" fill="#263238"></path></g><g id="Group_3705" data-name="Group 3705"><path id="Path_7396" data-name="Path 7396" d="M215.267,223.837c.118.25-27.185,12.609-60.981,27.6s-61.3,26.956-61.419,26.706,27.178-12.606,60.985-27.6S215.146,223.59,215.267,223.837Z" transform="translate(-92.867 -223.833)" fill="#263238"></path></g></g></g></g></g><g id="Speech_Bubble" data-name="Speech Bubble" transform="translate(1100.871 204.528)"><g id="Group_3724" data-name="Group 3724"><g id="Group_3717" data-name="Group 3717" transform="translate(109.347)"><g id="Group_3716" data-name="Group 3716"><g id="Group_3715" data-name="Group 3715"><g id="Group_3714" data-name="Group 3714"><g id="Group_3713" data-name="Group 3713"><g id="Group_3709" data-name="Group 3709" transform="translate(0.794 0.834)"><g id="Group_3708" data-name="Group 3708"><path id="Path_7397" data-name="Path 7397" d="M648.652,329.095l-43.336-5.057A139.318,139.318,0,1,1,633.4,282.772l.049-.062Z" transform="translate(-367.176 -87.226)" fill="#fff"></path></g></g><g id="Group_3712" data-name="Group 3712"><g id="Group_3711" data-name="Group 3711"><g id="Group_3710" data-name="Group 3710"><path id="Path_7398" data-name="Path 7398" d="M649.217,329.689s-.392-1.058-1.075-3.066c-.7-2.06-1.7-5.016-3.014-8.887-2.633-7.833-6.5-19.335-11.523-34.3l.749.135-.049.062a.435.435,0,0,1-.611.069.442.442,0,0,1-.125-.517,139.083,139.083,0,0,0,11.26-67.6,136.485,136.485,0,0,0-3.462-21.167c-2.12-7.1-4.059-14.531-7.392-21.711a138.529,138.529,0,0,0-130.1-83.823c-40.751.465-83.74,21.4-109.541,58.179-13.05,18.7-21.76,40.117-24.32,61.932a140.738,140.738,0,0,0,6.393,63.257A136.128,136.128,0,0,0,407.868,323.2a138.654,138.654,0,0,0,95.073,41.924c1.991.024,3.972.049,5.932.076a37.5,37.5,0,0,0,5.831-.187q5.77-.5,11.35-1c7.316-1.46,14.472-2.494,21.08-4.627a138.619,138.619,0,0,0,58.453-35.049.421.421,0,0,1,.344-.118l32.065,4c3.625.465,6.393.819,8.336,1.065,1.884.243,2.886.4,2.886.4s-.888-.066-2.727-.253c-1.918-.2-4.652-.493-8.238-.871-7.416-.8-18.294-1.988-32.416-3.524l.34-.121a138.544,138.544,0,0,1-58.671,35.7c-6.657,2.182-13.872,3.264-21.257,4.766q-5.635.52-11.461,1.061a38.256,38.256,0,0,1-5.89.208l-6-.052a140,140,0,0,1-96.3-42.163,137.655,137.655,0,0,1-31.962-51.571,142.4,142.4,0,0,1-6.542-64.117c2.588-22.127,11.409-43.853,24.646-62.816a62.207,62.207,0,0,1,5.134-6.74l5.377-6.507,5.935-5.952a57.467,57.467,0,0,1,6.133-5.675q3.221-2.654,6.424-5.3c2.088-1.825,4.53-3.16,6.768-4.759,2.31-1.5,4.513-3.153,6.892-4.506q3.621-1.946,7.219-3.875a137.969,137.969,0,0,1,61.21-15.613A140.448,140.448,0,0,1,607.7,130.094a139.068,139.068,0,0,1,27.657,42.038c3.34,7.267,5.276,14.788,7.385,21.964a136.965,136.965,0,0,1,3.4,21.389,139.062,139.062,0,0,1-11.77,68.054l-.735-.447.049-.059a.431.431,0,0,1,.607-.073.476.476,0,0,1,.146.208l11.107,34.761c1.214,3.847,2.144,6.781,2.792,8.828C648.946,328.728,649.217,329.689,649.217,329.689Z" transform="translate(-366.947 -86.985)" fill="#263238"></path></g></g></g></g></g></g></g></g><g id="Group_3721" data-name="Group 3721" transform="translate(185.197 92.879)"><g id="Group_3720" data-name="Group 3720"><g id="Group_3719" data-name="Group 3719"><g id="Group_3718" data-name="Group 3718"><path id="Path_7399" data-name="Path 7399" d="M388.813,164.062l16.644-18.409L440.771,174l52.45-60.236,17.157,16.707L439.97,207.923Z" transform="translate(-388.813 -113.761)" fill="#263238"></path></g></g></g></g><g id="Group_3723" data-name="Group 3723" transform="translate(0 48.633)"><path id="Path_7400" data-name="Path 7400" d="M345.131,306.488c6.292-.784,15.516-1.936,27.494-3.431a.36.36,0,0,1,.291.1,118.868,118.868,0,0,0,50.121,30.05c5.668,1.828,11.8,2.716,18.076,3.968l9.73.857a31.978,31.978,0,0,0,5,.16c1.682-.021,3.382-.045,5.089-.066a118.653,118.653,0,0,0,42.2-9.168,117,117,0,0,0,10.726-5.148c-1.079-.42-2.165-.812-3.24-1.259a137.9,137.9,0,0,1-45.573-30.886,134.911,134.911,0,0,1-31.327-50.547,139.567,139.567,0,0,1-6.41-62.848c2.532-21.687,11.18-42.982,24.153-61.571a61.249,61.249,0,0,1,5.033-6.6l5.269-6.383,2.265-2.272c-1.3-.062-2.6-.149-3.9-.166a118.482,118.482,0,0,0-111.55,71.873c-2.858,6.157-4.523,12.529-6.341,18.617a116.952,116.952,0,0,0-2.966,18.149,119.242,119.242,0,0,0,9.654,57.957.381.381,0,0,1-.1.437c-4.274,12.717-7.562,22.509-9.806,29.183q-1.691,4.979-2.584,7.621c-.586,1.721-.923,2.629-.923,2.629s.86-.135,2.477-.347C339.647,307.189,342.023,306.887,345.131,306.488Z" transform="translate(-335.214 -100.388)" fill="#f5f5f5"></path><g id="Group_3722" data-name="Group 3722"><path id="Path_7401" data-name="Path 7401" d="M345.341,307.106s-.8.173-2.411.413c-1.675.246-4.062.593-7.18,1.048l-.326.045.1-.319c2.685-8.114,7.139-21.579,13.07-39.506l.142-.2c-.069-.031.021.222-.076-.021l-.239-.565-.486-1.134q-.474-1.15-.951-2.324c-.642-1.564-1.224-3.191-1.818-4.846q-1.753-4.979-3.143-10.5a117.617,117.617,0,0,1-3.479-23.966,113.478,113.478,0,0,1,5.647-41.182,101.41,101.41,0,0,1,5.557-14.2A118.607,118.607,0,0,1,393.141,120.1a119.822,119.822,0,0,1,71.138-18.919l1.974.108-1.391,1.4c-.7.708-1.485,1.488-2.265,2.272l.055-.059c-15.911,17.927-28.08,40.64-32.933,65.63-6.494,34.254.4,69.515,17.112,96.655a137.2,137.2,0,0,0,67.51,56.524l1.689.642-1.6.76c-6.306,3-12.384,6.164-18.752,8.159a121.322,121.322,0,0,1-18.867,4.662,125.936,125.936,0,0,1-35.545.493l-.049-.007-.021,0c-4-.808-7.94-1.471-11.759-2.324a100.543,100.543,0,0,1-10.961-3.212,121.043,121.043,0,0,1-19.013-8.561,118.659,118.659,0,0,1-26.432-20.15c-.052-.33-.781,0-1.3-.014l-1.623.191c-1.065.125-2.1.246-3.1.368q-3,.349-5.616.659l-8.793,1.009c-2.324.253-4.121.448-5.408.586-1.218.121-1.849.139-1.849.139s.614-.139,1.825-.319l5.387-.76c2.394-.323,5.325-.718,8.776-1.179q2.607-.349,5.605-.742l3.1-.406,1.62-.215.829-.108a1.943,1.943,0,0,1,.524-.035.7.7,0,0,1,.364.191l.156.153a119.379,119.379,0,0,0,67.923,33.495l-.069-.01a149.68,149.68,0,0,0,17.1.944,116.61,116.61,0,0,0,18.1-1.578,120.581,120.581,0,0,0,18.62-4.669c6.282-1.991,12.269-5.137,18.489-8.114l.09,1.4a138.5,138.5,0,0,1-68.436-57.062c-16.976-27.494-23.98-63.191-17.4-97.9,4.94-25.378,17.261-48.313,33.346-66.417l.045-.052.01-.01c.781-.784,1.561-1.564,2.265-2.272l.583,1.505a117.974,117.974,0,0,0-113.114,67.513,100.015,100.015,0,0,0-5.54,14,112.385,112.385,0,0,0-5.776,40.717,117.087,117.087,0,0,0,3.3,23.758c.9,3.646,1.908,7.132,3.042,10.434.579,1.644,1.145,3.261,1.766,4.822l.926,2.31.472,1.134.236.558c.114.1.225.853-.18,1.089l.139-.2c-6.129,17.955-10.691,31.42-13.556,39.357l-.222-.271c3.136-.371,5.533-.652,7.215-.85C344.519,307.14,345.341,307.106,345.341,307.106Z" transform="translate(-335.424 -101.006)" fill="#263238"></path></g></g></g></g><g id="Chart_" data-name="Chart " transform="translate(1970.094 121.518)"><g id="Group_3732" data-name="Group 3732"><g class="tr1"><rect id="Rectangle_2010" data-name="Rectangle 2010" width="74.029" height="266.798" rx="4.45" transform="translate(247.775 91.888)" fill="#455a64"></rect></g><g id="Group_3731" data-name="Group 3731"><g id="Group_3725" data-name="Group 3725" transform="translate(15.845 248.894)"><g class="tr3"><rect id="Rectangle_2011" data-name="Rectangle 2011" width="74.029" height="121.12" rx="4.603" fill="#455a64"></rect></g></g><g id="Group_3726" data-name="Group 3726" transform="translate(130.243 183.034)"><g class="tr2"><path id="Rectangle_2012" data-name="Rectangle 2012" d="M4.919,0H69.11a4.918,4.918,0,0,1,4.918,4.918V182.06a4.918,4.918,0,0,1-4.918,4.918H4.919A4.919,4.919,0,0,1,0,182.06V4.919A4.919,4.919,0,0,1,4.919,0Z" fill="#455a64"></path></g></g><g id="Group_3728" data-name="Group 3728" transform="translate(0 3.722)"><g id="Group_3727" data-name="Group 3727"><path id="Path_7402" data-name="Path 7402" d="M880.438,64.131a13.172,13.172,0,0,1-1.776,2.355c-1.419,1.675-3.236,3.819-5.495,6.487-5.082,5.828-12.134,13.91-20.889,23.945-18.2,20.518-43.45,48.979-72.6,81.839l-.808.912L777.841,179c-14.267-9.321-29.592-19.328-45.424-29.672l1.932-.277c-.548.642-1.141,1.342-1.734,2.043-37.425,43.9-71.294,83.633-96.065,112.694l-.638.742-.773-.576c-15.058-11.18-27.334-20.3-36.121-26.821q-6.067-4.62-9.733-7.413a22.781,22.781,0,0,1-3.275-2.747,23.348,23.348,0,0,1,3.625,2.265q3.8,2.633,10.056,6.965c8.922,6.341,21.385,15.2,36.676,26.065l-1.408.17c24.6-29.2,58.241-69.133,95.409-113.253.593-.7,1.186-1.4,1.731-2.043l.843-1,1.089.715c15.811,10.375,31.115,20.414,45.365,29.766l-1.832.239c29.464-32.579,54.981-60.8,73.379-81.142,9.016-9.8,16.276-17.7,21.507-23.394,2.4-2.536,4.336-4.579,5.845-6.171A13.416,13.416,0,0,1,880.438,64.131Z" transform="translate(-586.007 -64.128)" fill="#263238"></path></g></g><g id="Group_3730" data-name="Group 3730" transform="translate(236.297)"><g id="Group_3729" data-name="Group 3729"><path id="Path_7403" data-name="Path 7403" d="M714.614,123.107c-.4,0-.767-6.49-1.03-17.025s-.434-25.111-.444-41.289l1.713,1.453c-.465.08-.968.163-1.47.246-16.3,2.688-31.081,4.96-41.8,6.459s-17.385,2.227-17.451,1.825,6.476-1.856,17.112-3.882,25.36-4.624,41.66-7.312l1.471-.243,1.717-.284v1.738c-.01,16.178-.18,30.758-.444,41.289S715.013,123.107,714.614,123.107Z" transform="translate(-654.128 -63.055)" fill="#263238"></path></g></g></g></g></g></g></svg> 