<?xml version="1.0" encoding="UTF-8"?> <svg xmlns="http://www.w3.org/2000/svg" xmlns:xlink="http://www.w3.org/1999/xlink" width="931.42" height="533.698" viewBox="0 0 931.42 533.698"><style> .hend { animation-name: hend ; animation-fill-mode: both; animation-duration: 3s; transform-origin: left; transform-box:fill-box ; animation-iteration-count: infinite; } @keyframes hend{ 0% { transform: rotate(0deg); } 50% { transform :rotate(-10deg) translateX(25px) } 100% { transform:rotate(0deg);; } } .hend2 { animation-name: hend2 ; animation-fill-mode: both; animation-duration: 3s; transform-origin: left; transform-box:fill-box ; animation-iteration-count: infinite; } @keyframes hend2{ 0% { transform: rotate(0deg); } 50% { transform:rotate(-10deg);; } 100% { transform:rotate(0deg);; } } .man { animation-name: man1 ; animation-fill-mode: both; animation-duration: 4s; transform-origin: left; transform-box:fill-box ; animation-iteration-count: infinite; } @keyframes man1 { 0% { transform:translateX(0px) ; } 50% { transform:translateX(50px) ; } 100% { transform:translateX(0px) ; } } .hendman { animation-name: hendman ; animation-fill-mode: both; animation-duration: 4s; transform-origin: left; transform-box:fill-box ; animation-iteration-count: infinite; } @keyframes hendman { 0% { transform:translateX(0px) ; } 50% { transform:translateX(13px)rotate(-5deg) ; } 100% { transform:translateX(0px) ; } } .hendman2 { animation-name: hendman2 ; animation-fill-mode: both; animation-duration: 4s; transform-origin: left; transform-box:fill-box ; animation-iteration-count: infinite; } @keyframes hendman2 { 0% { transform:translateX(0px) ; } 50% { transform:translateX(15px)rotate(-5deg) ; } 100% { transform:translateX(0px) ; } } .g-1 { animation-name: tranfX; animation-fill-mode: both; animation-duration: 2.5s; transform-origin: center; transform-box:fill-box ; animation-iteration-count: infinite; } .g-2{ animation-delay: .2s; animation-name: tranfX; animation-fill-mode: both; transform-origin: center; transform-box:fill-box ; animation-duration: 2.5s; animation-iteration-count: infinite; } .g-3{ animation-delay: .4s; animation-name: tranfX; transform-origin: center; transform-box:fill-box ; animation-fill-mode: both; animation-duration: 2.5s; animation-iteration-count: infinite; } .g-4{ animation-delay: .6s; animation-name: tranfX; transform-origin: center; transform-box:fill-box ; animation-fill-mode: both; animation-duration: 2.5s; animation-iteration-count: infinite; } .g-5{ animation-delay: .8s; animation-name: tranfX; transform-origin: center; transform-box:fill-box ; animation-fill-mode: both; animation-duration: 2.5s; animation-iteration-count: infinite; } .g-6{ animation-delay: 1s; animation-name: tranfX; transform-origin: center; transform-box:fill-box ; animation-fill-mode: both; animation-duration: 2.5s; animation-iteration-count: infinite; } @keyframes tranfX { 0% { transform: scaleX(1); } 50% { transform: scaleX(.1); } 100% { transform: scaleX(1); } } </style><defs><clipPath id="clip-path"><path id="Path_38291" data-name="Path 38291" d="M1273.471,594.1c-52.194,48-117.13,47.908-183.183,21.292h0c-38.658-15.567-79.547-42.584-101.772-77.4-30.059-46.451-19.575-86.41,3.607-136.385,30.767-66.376,80.561-105.724,153.859-97.606,94.047,10.412,153.419,78.814,169.665,169.665C1323.831,519.43,1306.567,563.673,1273.471,594.1Z" transform="translate(-970.008 -302.947)" fill="none"></path></clipPath><linearGradient id="linear-gradient" x1="0.5" x2="0.5" y2="1" gradientUnits="objectBoundingBox"><stop offset="0" stop-color="#6A2186"></stop><stop offset="1" stop-color="#b52d35" stop-opacity="0.922"></stop></linearGradient><clipPath id="clip-path-2"><rect id="Rectangle_9860" data-name="Rectangle 9860" width="276.75" height="533.698" transform="translate(0 0)" fill="none"></rect></clipPath><clipPath id="clip-path-3"><rect id="Rectangle_9810" data-name="Rectangle 9810" width="311.182" height="656.194" fill="none"></rect></clipPath><clipPath id="clip-path-4"><rect id="Rectangle_9797" data-name="Rectangle 9797" width="3.072" height="5.585" fill="none"></rect></clipPath><clipPath id="clip-path-6"><rect id="Rectangle_9799" data-name="Rectangle 9799" width="8.124" height="5.52" fill="none"></rect></clipPath><clipPath id="clip-path-7"><rect id="Rectangle_9800" data-name="Rectangle 9800" width="4.859" height="5.922" fill="none"></rect></clipPath><clipPath id="clip-path-8"><rect id="Rectangle_9801" data-name="Rectangle 9801" width="20.064" height="7.589" fill="none"></rect></clipPath><clipPath id="clip-path-11"><rect id="Rectangle_9804" data-name="Rectangle 9804" width="8.125" height="5.52" fill="none"></rect></clipPath><clipPath id="clip-path-14"><rect id="Rectangle_9807" data-name="Rectangle 9807" width="26.21" height="11.617" fill="none"></rect></clipPath><clipPath id="clip-path-15"><rect id="Rectangle_9808" data-name="Rectangle 9808" width="25.624" height="144.517" fill="none"></rect></clipPath><clipPath id="clip-path-17"><path id="Path_37539" data-name="Path 37539" d="M406.914,615.673c73.64,7.246,95.421,77.427,61.059,216.261-2.814-8.535-6.394-20.168-12.142-27.247,6.667-51.017,9.612-94.934-7.057-114.205-14.323,5.4-74.667,5.4-88.99,0-16.669,19.271-13.669,63.613-7,114.63-5.156,6.978-9.042,18.287-11.856,26.823C306.565,693.1,328,622.919,401.645,615.673Z" transform="translate(-324.951 -615.673)" fill="none"></path></clipPath><clipPath id="clip-path-18"><rect id="Rectangle_9830" data-name="Rectangle 9830" width="304.633" height="297.653" fill="none"></rect></clipPath><clipPath id="clip-path-19"><rect id="Rectangle_9858" data-name="Rectangle 9858" width="297.652" height="304.633" fill="none"></rect></clipPath></defs><g id="من_نحن_-_آلية_التعاقد_واتمام_العمل" data-name="من نحن - آلية التعاقد واتمام العمل" transform="translate(-249.991 -1362)"><g id="Group_28863" data-name="Group 28863" transform="translate(263.321 1448.342)"><path id="Path_38182" data-name="Path 38182" d="M1273.471,594.1c-52.194,48-117.13,47.908-183.183,21.292h0c-38.658-15.567-79.547-42.584-101.772-77.4-30.059-46.451-19.575-86.41,3.607-136.385,30.767-66.376,80.561-105.724,153.859-97.606,94.047,10.412,153.419,78.814,169.665,169.665C1323.831,519.43,1306.567,563.673,1273.471,594.1Z" transform="translate(-704.845 -302.947)" fill="#FFD100"></path><path id="Path_38183" data-name="Path 38183" d="M277.918,999.31s-55.443-194.091,46.3-252.882S487.3,781.435,523.078,830.4,713.4,976.281,807.109,885.126c98.728-96.033,147.709-123.288,218.148-125.608s41.369,76.127,100.627,106.468,30.5,127.6-24.441,134.622Z" transform="translate(-240.632 -571.984)" fill="#FFD100"></path><path id="Rectangle_10177" data-name="Rectangle 10177" d="M1.277,0H916.813a1.277,1.277,0,0,1,1.277,1.277v0a1.277,1.277,0,0,1-1.277,1.277H1.277A1.277,1.277,0,0,1,0,1.278v0A1.277,1.277,0,0,1,1.277,0Z" transform="translate(0 427.039)" fill="#2e3552"></path><g id="Group_28824" data-name="Group 28824" transform="translate(625.011 250.218)"><g id="Group_28819" data-name="Group 28819" transform="translate(94.942 70.909)"><path id="Path_38200" data-name="Path 38200" d="M1021.291,1246.893s-12.426-14.5-.767-23.7c0,0,8.517-5.156,15.461-4.737,0,0-9.839,16.5-6.656,18.141s9.639-19.176,9.639-19.176,19.38-1.879,25.615,1.118c0,0-16.568,13.558-13.078,14.365s21.384-12.5,21.384-12.5,18.038,3.069,17.076,14.073-7.177,14.4-9.909,14.108-18.711-6.392-19.059-4.154,9.271,9.553,16.006,9.9c0,0-12.717,14.025-21.169,9.978s-9.172-10.464-14.441-12.87-9.766-2.4-7.591.054,11.71,4.84,14.723,10.169,5.715,8.923-3.029,7.608-22.958-7.714-23.582-15.041Z" transform="translate(-1000.29 -1216.835)" fill="#ffad9c"></path><g id="Group_28818" data-name="Group 28818" transform="translate(0 17.849)"><path id="Path_38201" data-name="Path 38201" d="M1074.68,1257.039s-48.991-1.889-59.81,12.123a35.433,35.433,0,0,1-9.756,13.691l-1.148,3.128s8.489-8.951,11.527-9.493C1015.494,1276.488,1010.743,1259.13,1074.68,1257.039Z" transform="translate(-993.869 -1256.954)" fill="#e19586"></path><path id="Path_38202" data-name="Path 38202" d="M992.516,1313.626S982,1321.4,981.271,1335.3l1.908.171s3.358-14.368,9.428-19.986S992.516,1313.626,992.516,1313.626Z" transform="translate(-981.271 -1287.727)" fill="#e19586"></path></g></g><g id="Group_28821" data-name="Group 28821" transform="translate(0 31.551)"><path id="Path_38203" data-name="Path 38203" d="M840.38,1179.561s19.766-11.069,10.542-26.091c0,0-7.379-9.224-15.285-11.6,0,0,4.217,22.4,0,22.928s-2.9-25.3-2.9-25.3-20.819-10.015-28.989-9.225c0,0,12.913,21.874,8.7,21.347s-18.711-22.665-18.711-22.665-21.346-3.952-24.772,8.7,2.108,18.975,5.271,19.765,23.455.527,22.929,3.163-14.232,6.852-21.875,4.48c0,0,8.434,20.82,19.5,19.765s14.494-7.906,21.347-8.433,11.859,1.318,8.433,3.162-15.022.6-20.556,5.31-10.015,7.6.264,9.712,28.726.791,32.415-7.116Z" transform="translate(-767.88 -1128.376)" fill="#dc80ff"></path><g id="Group_28820" data-name="Group 28820" transform="translate(10.832 13.235)"><path id="Path_38204" data-name="Path 38204" d="M792.226,1158.123s55.343,17.92,61.668,37.95a42.043,42.043,0,0,0,5.271,19.238v3.953s-5.8-13.441-8.961-15.285C850.2,1203.979,862.591,1186.585,792.226,1158.123Z" transform="translate(-792.226 -1158.123)" fill="#6A2186"></path><path id="Path_38205" data-name="Path 38205" d="M939.378,1283.588s8.535,12.961,3.669,28.738l-2.2-.59s2.132-17.377-2.334-26.116S939.378,1283.588,939.378,1283.588Z" transform="translate(-872.439 -1226.4)" fill="#6A2186"></path></g></g><g id="Group_28823" data-name="Group 28823" transform="translate(86.817)"><path id="Path_38206" data-name="Path 38206" d="M980.137,1124.933s-26.055-14.59-13.9-34.392c0,0,9.727-12.159,20.149-15.285,0,0-5.558,29.528,0,30.223s3.822-33.35,3.822-33.35,27.445-13.2,38.213-12.158c0,0-17.022,28.833-11.464,28.139s24.665-29.876,24.665-29.876,28.139-5.211,32.655,11.464-2.779,25.013-6.948,26.055-30.918.695-30.223,4.169,18.759,9.032,28.834,5.906c0,0-11.116,27.445-25.707,26.055s-19.106-10.422-28.139-11.117-15.633,1.737-11.116,4.169,19.8.8,27.1,7,13.2,10.024-.347,12.8-37.866,1.042-42.729-9.38Z" transform="translate(-963.008 -1057.462)" fill="#dc80ff"></path><g id="Group_28822" data-name="Group 28822" transform="translate(3.368 17.446)"><path id="Path_38207" data-name="Path 38207" d="M1074.129,1096.674s-72.953,23.623-81.29,50.024c0,0,.348,11.811-6.947,25.36v5.211s7.642-17.717,11.811-20.149C997.7,1157.12,981.375,1134.193,1074.129,1096.674Z" transform="translate(-979.078 -1096.674)" fill="#6A2186"></path><path id="Path_38208" data-name="Path 38208" d="M977.391,1262.06s-11.251,17.085-4.837,37.881l2.894-.777s-2.809-22.906,3.077-34.427S977.391,1262.06,977.391,1262.06Z" transform="translate(-970.578 -1186.676)" fill="#6A2186"></path></g></g><path id="Path_38209" data-name="Path 38209" d="M935.86,1388.937A51.037,51.037,0,0,0,986.9,1337.9H884.823A51.037,51.037,0,0,0,935.86,1388.937Z" transform="translate(-832.793 -1213.127)" fill="#f1a34f"></path><path id="Path_38210" data-name="Path 38210" d="M956.179,1388.546A51.069,51.069,0,0,1,898.8,1337.9h12.679A51.045,51.045,0,0,0,956.179,1388.546Z" transform="translate(-840.553 -1213.126)" fill="#ffb973"></path><path id="Path_38211" data-name="Path 38211" d="M986.723,1450.591H883.24a6.3,6.3,0,0,1,6.3-6.3h90.89a6.3,6.3,0,0,1,6.3,6.3Z" transform="translate(-831.914 -1272.184)" fill="#f1a34f"></path><rect id="Rectangle_10178" data-name="Rectangle 10178" width="104.913" height="1.566" transform="translate(50.353 124.773)" fill="#d86713"></rect></g><g id="Group_28862" data-name="Group 28862" transform="translate(265.163 0)"><g id="Group_28861" data-name="Group 28861" transform="translate(0 0)" clip-path="url(#clip-path)"><g id="Group_28860" data-name="Group 28860" transform="translate(-0.768 26.389)"><g id="Group_28836" data-name="Group 28836" transform="translate(0 47.156)"><g id="Group_28832" data-name="Group 28832" transform="translate(150.383 5.931)"><g class="hend"><path id="Path_38233" data-name="Path 38233" d="M1430.562,832.624s-24.4-4.912-28.48-4.524-18.2,6.735-18.361,7.9.542,2.087,3.014,2.189,10.568-1.155,10.079-.157-23.765,6.21-23.9,10.925,12.912,13.131,23.759,13.435,31.811-12.838,33.632-13.045C1445.75,847.586,1430.562,832.624,1430.562,832.624Z" transform="translate(-1372.911 -712.55)" fill="#ed975d"></path><g id="Group_28830" data-name="Group 28830" transform="translate(44.822)"><path id="Path_38234" data-name="Path 38234" d="M1639.742,582.808c-9.533,11.871-17.48,21.076-21.669,24.421a94.361,94.361,0,0,1-12.37,8.106c-34.793,19.636-101.712,39.56-101.712,39.56s-.048-.032-.133-.1a29.266,29.266,0,0,1-8.355-10.043c-2.547-5.155-2.023-8.352-1.266-10.028a4.418,4.418,0,0,1,1.007-1.48s80.192-51.251,86.606-56.588c3.636-3.027,16.808-33.692,27.537-59.688q2.249,3.262,4.359,6.626A226.719,226.719,0,0,1,1639.742,582.808Z" transform="translate(-1493.614 -516.971)" fill="#ed7d2b"></path></g></g><g id="Group_28831" data-name="Group 28831" transform="translate(154.43 153.671)"><path id="Path_38235" data-name="Path 38235" d="M1825.847,933.714q-.758,2.15-1.591,4.274a133.383,133.383,0,0,1-9.368,19.2v0q-3.229,5.483-6.975,10.662a142.574,142.574,0,0,1-19.135,21.517c.038-.536.079-1.073.117-1.607.056-.826.117-1.647.173-2.462q.195-2.708.379-5.318.076-1.013.146-2.007c.306-4.305.6-8.387.868-12.216q.118-1.652.23-3.241c.022-.316.044-.628.066-.941.048-.621.089-1.24.133-1.849.042-.552.079-1.1.117-1.635,0-.057.007-.111.013-.164q.056-.824.113-1.629c.066-.906.13-1.79.189-2.658.038-.54.076-1.07.114-1.594q.085-1.226.168-2.389c.016-.186.028-.376.041-.562.029-.369.054-.738.079-1.1q.019-.275.038-.54a.511.511,0,0,0,0-.067c.051-.694.1-1.373.146-2.029,0-.035.006-.07.006-.1.034-.479.069-.95.1-1.407.009-.155.022-.306.031-.454.019-.262.039-.521.054-.776.016-.208.032-.417.044-.622.1-1.433.2-2.743.278-3.917.013-.167.025-.335.035-.5s.025-.331.034-.492c.022-.31.044-.61.063-.9.148-2.074.253-3.586.316-4.473q.009-.138.019-.256c0-.025,0-.05.006-.076.007-.082.01-.155.012-.217.019-.25.028-.379.028-.379Z" transform="translate(-1788.778 -930.794)" fill="#6bb7bf"></path><path id="Path_38236" data-name="Path 38236" d="M1825.847,933.714q-.758,2.15-1.591,4.274a133.383,133.383,0,0,1-9.368,19.2v0q-3.229,5.483-6.975,10.662a142.574,142.574,0,0,1-19.135,21.517c.038-.536.079-1.073.117-1.607.056-.826.117-1.647.173-2.462q.195-2.708.379-5.318.076-1.013.146-2.007c.306-4.305.6-8.387.868-12.216q.118-1.652.23-3.241c.022-.316.044-.628.066-.941.048-.621.089-1.24.133-1.849.042-.552.079-1.1.117-1.635,0-.057.007-.111.013-.164q.056-.824.113-1.629c.066-.906.13-1.79.189-2.658.038-.54.076-1.07.114-1.594q.085-1.226.168-2.389c.016-.186.028-.376.041-.562.029-.369.054-.738.079-1.1q.019-.275.038-.54a.511.511,0,0,0,0-.067c.051-.694.1-1.373.146-2.029,0-.035.006-.07.006-.1.034-.479.069-.95.1-1.407.009-.155.022-.306.031-.454.019-.262.039-.521.054-.776.016-.208.032-.417.044-.622.1-1.433.2-2.743.278-3.917.013-.167.025-.335.035-.5s.025-.331.034-.492c.022-.31.044-.61.063-.9.148-2.074.253-3.586.316-4.473q.009-.138.019-.256c0-.025,0-.05.006-.076.007-.082.01-.155.012-.217.019-.25.028-.379.028-.379Z" transform="translate(-1788.778 -930.794)" fill="#599dad"></path></g><path id="Path_38237" data-name="Path 38237" d="M1829.933,619.456a127.724,127.724,0,0,1-5.293,65.322q-.758,2.15-1.591,4.274a133.385,133.385,0,0,1-9.368,19.2v0q-3.229,5.483-6.975,10.662c-7.15-1.032-12.967-1.878-16.553-1.97a4.586,4.586,0,0,1-.9-.123,4.7,4.7,0,0,1-2.125-1.152c-.71-.615-.038-33.648,2.14-75.252.063-1.6.126-3.368.334-4.962l.016-.587q.2-4.119.432-8.317.137-2.419.281-4.861c.672-11.1,1.505-22.445,2.411-33.764q.133-1.629.259-3.251c1.43-17.421,3.109-34.544,5.091-49.862a226.719,226.719,0,0,1,26,59.211Q1827.609,606.434,1829.933,619.456Z" transform="translate(-1633.141 -528.188)" fill="#f99746"></path></g><g id="Group_28835" data-name="Group 28835"><path id="Path_38238" data-name="Path 38238" d="M1015.683,659.664c-.4-11.648-.991-25.52-1.774-40.5-.063-1.6-.133-3.368-.335-4.962l-.025-.587c-.063-1.329-.126-2.664-.2-4.005q-.056-1.137-.12-2.276-.179-3.423-.394-6.9c-.673-11.1-1.509-22.445-2.405-33.764-.095-1.086-.18-2.172-.269-3.251-1.319-16.139-2.857-32.022-4.656-46.45v-.007c-.013-.082-.022-.161-.032-.243-.224-1.812-.461-3.611-.695-5.375-.47-3.557-.959-7.014-1.468-10.344q-1.042,1.7-2.051,3.441-5.966,10.2-11.127,21.375a341.429,341.429,0,0,0-17.976,48.808c-.031.11-.063.218-.095.328a105.854,105.854,0,0,0-3.406,16.692v0c-.1.779-.183,1.562-.259,2.342v0c-2.4,24.828,4.678,48.063,18.112,68.823.458.717.931,1.43,1.411,2.141q1.421,2.116,2.939,4.2,1.065,1.473,2.181,2.926c.152.2.31.407.471.612a170.023,170.023,0,0,0,17.224,19.024q1.535,1.463,3.109,2.9c.259.237.524.477.786.713a5.05,5.05,0,0,0,1.414-.918C1016.5,694.015,1016.393,680.351,1015.683,659.664Z" transform="translate(-967.941 -501)" fill="#455A64"></path><path id="Path_38239" data-name="Path 38239" d="M1016.9,701.675c-18.708-19.6-34.3-43.666-47.021-68.018v0a105.863,105.863,0,0,1,3.406-16.691c.032-.11.063-.218.095-.328a341.429,341.429,0,0,1,17.976-48.808c11.483,16.413,19.532,31.52,20.027,37.6.088,1.079.174,2.165.268,3.251.9,11.319,1.733,22.669,2.405,33.764q.213,3.47.394,6.9.062,1.141.12,2.276c.07,1.341.133,2.676.2,4l.025.587c.2,1.594.272,3.358.335,4.962C1015.91,676.155,1016.5,690.027,1016.9,701.675Z" transform="translate(-969.16 -543.011)" fill="#455A64"></path><g id="Group_28834" data-name="Group 28834" transform="translate(4.221 3.441)"><g class="hend2"><path id="Path_38240" data-name="Path 38240" d="M1310.165,844.264s24.893.024,28.812,1.213,16.5,10.211,16.43,11.381-.945,1.938-3.388,1.547-10.13-3.227-9.847-2.152,22.062,10.8,21.26,15.447-15.26,10.31-25.951,8.457-28.634-18.89-30.378-19.455C1292.312,855.917,1310.165,844.264,1310.165,844.264Z" transform="translate(-1181.692 -720.235)" fill="#ffb27d"></path><g id="Group_28833" data-name="Group 28833"><path id="Path_38241" data-name="Path 38241" d="M1112.29,642.791a29.269,29.269,0,0,1-7.2,8.14,20.678,20.678,0,0,1-1.969,1.389s-47.9-17.935-82.626-36.889c-11.476-6.266-21.514-12.642-27.906-18.516-2.888-2.654-7.573-8.579-13.285-16.467a341.423,341.423,0,0,1,17.976-48.808q5.17-11.154,11.127-21.375c1.385,4.126,2.812,8.342,4.245,12.521v.007c7.607,22.19,15.4,43.461,18.181,46.115,6.029,5.77,82.5,62.418,82.5,62.418a5.329,5.329,0,0,1,1.26,3.018C1114.847,636.213,1114.5,638.993,1112.29,642.791Z" transform="translate(-979.307 -510.265)" fill="#455A64"></path></g></g></g></g></g><rect id="Rectangle_10180" data-name="Rectangle 10180" width="130.608" height="118.465" transform="translate(100.796 7.106)" fill="#dc80ff"></rect><rect id="Rectangle_10181" data-name="Rectangle 10181" width="130.608" height="7.106" transform="translate(100.796)" fill="url(#linear-gradient)"></rect><g id="Group_28837" data-name="Group 28837" transform="translate(103.756 2.131)"><path id="Path_38242" data-name="Path 38242" d="M1248.77,379.75a1.422,1.422,0,1,0,1.422,1.422A1.422,1.422,0,0,0,1248.77,379.75Z" transform="translate(-1247.348 -379.75)" fill="#ddebfd"></path><path id="Path_38243" data-name="Path 38243" d="M1263.758,379.75a1.422,1.422,0,1,0,1.422,1.422A1.422,1.422,0,0,0,1263.758,379.75Z" transform="translate(-1256.771 -379.75)" fill="#ddebfd"></path><path id="Path_38244" data-name="Path 38244" d="M1278.854,379.75a1.422,1.422,0,1,0,1.422,1.422A1.422,1.422,0,0,0,1278.854,379.75Z" transform="translate(-1266.261 -379.75)" fill="#ddebfd"></path></g><g id="Group_28838" data-name="Group 28838" transform="translate(120.772 17.802)"><g class="g-1"><path id="Path_38245" data-name="Path 38245" d="M1340.993,426.687h49.9a2.376,2.376,0,0,0,2.369-2.369h0a2.375,2.375,0,0,0-2.369-2.368h-49.9a2.375,2.375,0,0,0-2.368,2.368h0A2.375,2.375,0,0,0,1340.993,426.687Z" transform="translate(-1321.746 -421.95)" fill="#FFD100"></path></g><g class="g-2"><path id="Path_38246" data-name="Path 38246" d="M1310.376,448.583h72.637a2.368,2.368,0,0,0,0-4.737h-72.637a2.368,2.368,0,0,0,0,4.737Z" transform="translate(-1302.498 -435.715)" fill="#FFD100"></path></g><g class="g-3"><path id="Path_38247" data-name="Path 38247" d="M1294.908,508.341h87.545a1.737,1.737,0,1,0,0-3.474h-87.545a1.737,1.737,0,1,0,0,3.474Z" transform="translate(-1293.171 -474.076)" fill="#FFD100"></path></g><g class="g-4"><path id="Rectangle_10182" data-name="Rectangle 10182" d="M1.737,0H89.282a1.737,1.737,0,0,1,1.737,1.737v0a1.737,1.737,0,0,1-1.737,1.737H1.736A1.736,1.736,0,0,1,0,1.737v0A1.737,1.737,0,0,1,1.737,0Z" transform="translate(0 38.804)" fill="#FFD100"></path></g><g class="g-5"><path id="Path_38248" data-name="Path 38248" d="M1382.453,548.027h-87.545a1.737,1.737,0,1,0,0,3.474h87.545a1.737,1.737,0,0,0,0-3.474Z" transform="translate(-1293.171 -501.209)" fill="#FFD100"></path></g></g><g id="Group_28839" data-name="Group 28839" transform="translate(120.772 93.753)"><path id="Path_38249" data-name="Path 38249" d="M1303.7,626.481h-8.79a1.737,1.737,0,0,0,0,3.474h8.79a1.737,1.737,0,0,0,0-3.474Z" transform="translate(-1293.171 -626.481)" fill="#FFD100"></path><path id="Path_38250" data-name="Path 38250" d="M1343.244,626.481h-8.79a1.737,1.737,0,0,0,0,3.474h8.79a1.737,1.737,0,0,0,0-3.474Z" transform="translate(-1318.032 -626.481)" fill="#FFD100"></path></g><g id="Group_28840" data-name="Group 28840" transform="translate(184.842 93.753)"><path id="Path_38251" data-name="Path 38251" d="M1476.234,626.481h-8.79a1.737,1.737,0,1,0,0,3.474h8.79a1.737,1.737,0,0,0,0-3.474Z" transform="translate(-1465.707 -626.481)" fill="#FFD100"></path><path id="Path_38252" data-name="Path 38252" d="M1515.779,626.481h-8.789a1.737,1.737,0,1,0,0,3.474h8.789a1.737,1.737,0,0,0,0-3.474Z" transform="translate(-1490.567 -626.481)" fill="#FFD100"></path></g><g id="Group_28841" data-name="Group 28841" transform="translate(124.474 99.34)"><path id="Path_38253" data-name="Path 38253" d="M1312.4,641.525a9.259,9.259,0,1,0,9.259,9.259A9.27,9.27,0,0,0,1312.4,641.525Zm0,18.051a8.792,8.792,0,1,1,8.792-8.792A8.8,8.8,0,0,1,1312.4,659.576Z" transform="translate(-1303.141 -641.525)" fill="#FFD100"></path><path id="Path_38254" data-name="Path 38254" d="M1315.445,646.368a7.461,7.461,0,1,0,7.461,7.461A7.469,7.469,0,0,0,1315.445,646.368Zm0,14.455a6.994,6.994,0,1,1,6.994-6.994A7,7,0,0,1,1315.445,660.823Z" transform="translate(-1306.186 -644.57)" fill="#FFD100"></path><path id="Path_38255" data-name="Path 38255" d="M1318.163,663.83c-.994-.083-1.508-.55-1.53-1.389a2.182,2.182,0,0,1,.7-1.671,2.538,2.538,0,0,0,1.267,1.961.783.783,0,0,0,.869-.308,5.4,5.4,0,0,0,.667-1.1.562.562,0,0,0,.372.164c.344.017.687-.258.991-.793a4.092,4.092,0,0,0,.222-.459.32.32,0,0,0,.073.058.286.286,0,0,0,.339-.049,3.035,3.035,0,0,0,.574-.854.42.42,0,0,0,.156.178.344.344,0,0,0,.426-.091.217.217,0,0,0,.059-.273c-.052-.094-.215-.16-.457-.2v0a2.726,2.726,0,0,0,.34-1.438.222.222,0,0,0-.231-.143c-.169.016-.29.187-.364.524a3.321,3.321,0,0,0-.045,1.014l-.005.011c-.174-.013-.369-.016-.581-.012a.7.7,0,0,0-.089-.354.219.219,0,0,0-.235-.123c-.133.032-.18.19-.2.325-.007.05-.013.111-.017.18a10.8,10.8,0,0,0-1.9.324,6.181,6.181,0,0,0-2.015.9c-.018-.293.007-.653.216-.783.242-.153.68.036.827.121l.148-.251c-.028-.016-.686-.394-1.128-.118-.274.171-.391.536-.349,1.087,0,.053.009.107.015.159a2.526,2.526,0,0,0-.939,2.019c.025.984.663,1.577,1.8,1.672a7.2,7.2,0,0,0,2.658-.416c2.154-.7,4.156-2.188,4.556-3.539C1324.777,661.859,1320.587,664.032,1318.163,663.83Zm4.8-6.005a2.289,2.289,0,0,1-.069.3A1.812,1.812,0,0,1,1322.967,657.824Zm-.974,1.429c.17,0,.325,0,.464,0a2.727,2.727,0,0,1-.518.788s-.041-.027-.086-.164A3.558,3.558,0,0,0,1321.993,659.253Zm-1.562.163c.362-.065.714-.109,1.037-.135a2.86,2.86,0,0,0,.081.591,3.846,3.846,0,0,1-.3.678c-.24.42-.505.656-.726.646a.334.334,0,0,1-.256-.175A2.192,2.192,0,0,0,1320.43,659.416Zm-.286.088a1.431,1.431,0,0,1-.038,1.088A2.229,2.229,0,0,1,1320.144,659.5Zm-1.691.519a7.3,7.3,0,0,1,1.373-.478,2.734,2.734,0,0,0,0,1.115,1.773,1.773,0,0,0,.121.38,5.019,5.019,0,0,1-.7,1.2.5.5,0,0,1-.556.214,2.388,2.388,0,0,1-1.1-1.907A4.465,4.465,0,0,1,1318.453,660.023Z" transform="translate(-1311.44 -651.518)" fill="#FFD100"></path><path id="Path_38256" data-name="Path 38256" d="M1340.609,664.518a1.3,1.3,0,0,0,.047-.173C1340.645,664.4,1340.626,664.46,1340.609,664.518Z" transform="translate(-1326.696 -655.871)" fill="#FFD100"></path></g><g id="Group_28842" data-name="Group 28842" transform="translate(188.582 99.586)"><path id="Path_38257" data-name="Path 38257" d="M1485.26,642.19a9.484,9.484,0,1,0,9.483,9.484A9.494,9.494,0,0,0,1485.26,642.19Zm0,18.489a9.005,9.005,0,1,1,9.005-9.005A9.015,9.015,0,0,1,1485.26,660.679Z" transform="translate(-1475.776 -642.19)" fill="#FFD100"></path><path id="Path_38258" data-name="Path 38258" d="M1488.378,647.15a7.642,7.642,0,1,0,7.641,7.642A7.65,7.65,0,0,0,1488.378,647.15Zm0,14.805a7.163,7.163,0,1,1,7.163-7.164A7.172,7.172,0,0,1,1488.378,661.956Z" transform="translate(-1478.894 -645.308)" fill="#FFD100"></path><path id="Path_38259" data-name="Path 38259" d="M1514.152,665.74a1.287,1.287,0,0,0,.048-.176C1514.189,665.622,1514.169,665.681,1514.152,665.74Z" transform="translate(-1499.901 -656.884)" fill="#FFD100"></path><path id="Path_38260" data-name="Path 38260" d="M1491.162,665.035c-1.017-.085-1.544-.563-1.567-1.423a2.235,2.235,0,0,1,.718-1.712,2.6,2.6,0,0,0,1.3,2.008.8.8,0,0,0,.891-.315,5.5,5.5,0,0,0,.684-1.125.573.573,0,0,0,.38.169c.353.017.7-.265,1.016-.812a4.076,4.076,0,0,0,.227-.47.318.318,0,0,0,.075.061.293.293,0,0,0,.347-.05,3.122,3.122,0,0,0,.587-.875.425.425,0,0,0,.16.183.352.352,0,0,0,.436-.094.222.222,0,0,0,.06-.279c-.053-.1-.221-.164-.468-.206v0a2.794,2.794,0,0,0,.349-1.473.229.229,0,0,0-.237-.146c-.174.017-.3.192-.372.537a3.4,3.4,0,0,0-.046,1.038l-.005.011c-.177-.013-.379-.017-.594-.012a.729.729,0,0,0-.092-.362.225.225,0,0,0-.241-.125c-.136.033-.184.195-.2.333a1.718,1.718,0,0,0-.017.184,11.089,11.089,0,0,0-1.944.332,6.334,6.334,0,0,0-2.064.924c-.019-.3.007-.669.22-.8.248-.156.7.037.848.125l.15-.257c-.028-.017-.7-.4-1.155-.121-.28.175-.4.55-.358,1.113,0,.055.009.109.016.164a2.584,2.584,0,0,0-.962,2.068c.026,1.008.679,1.616,1.84,1.712a7.372,7.372,0,0,0,2.723-.426c2.206-.715,4.257-2.241,4.666-3.625C1497.937,663.017,1493.645,665.242,1491.162,665.035Zm4.92-6.151a2.168,2.168,0,0,1-.07.312A1.865,1.865,0,0,1,1496.082,658.884Zm-1,1.462c.174,0,.333,0,.475,0a2.779,2.779,0,0,1-.53.806s-.042-.027-.088-.167A3.639,3.639,0,0,0,1495.084,660.347Zm-1.6.168c.371-.067.731-.112,1.062-.139a2.942,2.942,0,0,0,.084.606,3.887,3.887,0,0,1-.308.695c-.246.431-.518.671-.743.662a.342.342,0,0,1-.262-.179A2.242,2.242,0,0,0,1493.484,660.514Zm-.293.09a1.467,1.467,0,0,1-.038,1.115A2.289,2.289,0,0,1,1493.191,660.6Zm-1.732.531a7.555,7.555,0,0,1,1.406-.489,2.805,2.805,0,0,0,0,1.143,1.843,1.843,0,0,0,.124.389,5.116,5.116,0,0,1-.718,1.227.508.508,0,0,1-.57.219,2.445,2.445,0,0,1-1.124-1.953A4.636,4.636,0,0,1,1491.459,661.136Z" transform="translate(-1484.276 -652.425)" fill="#FFD100"></path></g><g id="Group_28845" data-name="Group 28845" transform="translate(179.885 218.118)"><g id="Group_28844" data-name="Group 28844"><path id="Path_38261" data-name="Path 38261" d="M1515.359,961.386l-11.366,15.337-1.117,1.508-.546.732-1.4,1.891-.761,1.026-1.4,1.891-1.474,1.988-1.379,1.859-.022.026v.006L1494.6,989.4l-.016.022-.192.259-.022.028s0,0,0,.006l-.243.325v0l-1.4,1.736v.149l-1.307,1.768h0l-1.689,2.282h0l-1.275,1.72v0l-1.4,1.884v0l-2.339,3.154v0h0l-.231.313-.8,1.073v0l-1.84,2.481-2.44,3.141v.151l-1.266,1.708-.132.176v0l-1.758,2.374h0l-1.638,2.213-.016.022h0l-4.059,5.48v0l-6.044,8.153-10.123,13.658-1.259,1.7-.742,1c.388.057.773.111,1.159.161,0,0,.009,0,.013,0q2.017.269,4.027.486c.376.044.755.085,1.13.123.237.025.474.048.707.069.568.057,1.136.107,1.7.155.24.022.477.045.717.063l.335.029c.376.031.754.06,1.13.085.072.006.142.009.215.016.827.064,1.657.114,2.481.161.375.022.754.041,1.13.057.294.019.587.032.881.044.057,0,.11.006.167.006.489.022.978.044,1.464.057.379.012.754.025,1.13.032q.639.023,1.278.031c.376.01.755.013,1.13.019.4,0,.8.006,1.193.006.379,0,.755,0,1.13,0,.208,0,.414,0,.619,0,.23,0,.458,0,.685-.006.149,0,.3,0,.445-.007s.293,0,.442-.007c.208,0,.417-.006.625-.012.054,0,.1,0,.155,0,.107,0,.212,0,.319-.006.151,0,.3-.007.451-.013q4.389-.119,8.708-.48h.006q4.976-.408,9.848-1.133,5.27-.781,10.41-1.916l.174-.038a.253.253,0,0,1-.012.044l3.222-.792c.448-.107.9-.218,1.342-.331q6.349-1.61,12.455-3.737,1.023-.355,2.036-.723c.167-.06.338-.123.505-.186q1.9-.691,3.765-1.439c.338-.132.675-.268,1.013-.4v0c.069-.025.139-.053.2-.079v0c.4-.161.792-.325,1.184-.489.3-.124.591-.246.884-.372.346-.146.691-.293,1.035-.446q.332-.142.663-.29l0,0c.385-.171.77-.341,1.155-.514l0,0q5.667-2.548,11.057-5.54.569-.312,1.133-.635l0,0,19.781-26.694Z" transform="translate(-1452.357 -961.386)" fill="#a8d29f"></path><g id="Group_28843" data-name="Group 28843" transform="translate(8.737 11.906)"><path id="Path_38262" data-name="Path 38262" d="M1500.237,1036.538v1.578l1.152-1.553.016-.022v0Zm-2.166,2.084a8.622,8.622,0,0,0-1.174.578l-2.525,3.406-1.935,2.608,0,3.427,2.291-3.086,5.5-7.43A6.52,6.52,0,0,0,1498.071,1038.622Zm-9.327,11.575-.287.388-1.1,1.487-4.975,6.71,0,3.427,3.516-4.744,2.816-3.8,1.474-1.989,1.1-1.481h0v0Zm42.059-56.75-11.837,15.972-.1.142-.717.966-.921,1.241-.48.638v.009l-2.194,2.964-.912,1.08v.148l-.6.807-.8,1.08-3.267,4.406v0l-.069.091-.164.221v0l-1.039,1.4v.148l-3.106,4.04-1.2,1.622-.2.268-3.333,4.5-.994,1.341-.016.022-1.954,2.639-2.525,3.406-1.935,2.608-1.4,1.891-2.294,3.093-.287.388-1.1,1.487-4.975,6.71-1.4,1.885-2.364,3.188-2.737,3.693c.24.022.477.045.717.063l.335.029c.376.032.754.06,1.13.085.072.006.142.009.215.016l2.875-3.882h0l1.218-1.648,3.516-4.744,2.816-3.8,1.474-1.989,1.1-1.481h0v0l1.152-1.557,2.291-3.086,5.5-7.43.007-.007,1.152-1.553.016-.022v0l1.79-2.263v-.149l1.4-1.887,1.115-1.506,1.992-2.686,1.4-1.888,1.578-2.127.6-.814.234-.313v0l.726-.982,1.4-1.888,1.477-1.995,1.481-2,.148-.193v-.006l1.4-1.888,1.073-1.449.5-.666,0-.013,1.287-1.739.111-.149.281-.379,5.394-7.279a7.445,7.445,0,0,1,10.416-1.55l27.559,20.425a8.2,8.2,0,0,1,1.7,11.471l-16.628,22.436-.979,1.323c.3-.124.59-.247.884-.373q.519-.218,1.035-.446c.221-.095.442-.192.663-.29l0,0q.577-.255,1.155-.514l0,0,21.6-29.141Zm-42.059,56.75-.287.388-1.1,1.487-4.975,6.71,0,3.427,3.516-4.744,2.816-3.8,1.474-1.989,1.1-1.481h0v0Zm9.327-11.575a8.622,8.622,0,0,0-1.174.578l-2.525,3.406-1.935,2.608,0,3.427,2.291-3.086,5.5-7.43A6.52,6.52,0,0,0,1498.071,1038.622Zm2.166-2.084v1.578l1.152-1.553.016-.022v0Z" transform="translate(-1475.885 -993.447)" fill="#82b378"></path></g><path id="Path_38263" data-name="Path 38263" d="M1552.195,1160.727a.234.234,0,0,0,.012-.044l-.173.038q-5.137,1.131-10.41,1.916-4.872.72-9.848,1.133h-.006q-4.318.364-8.708.48c-.152.006-.3.009-.451.013-.107,0-.212.006-.319.006-.05,0-.1,0-.154,0-.028-.423-.038-.846-.032-1.269a16.393,16.393,0,0,1,.3-2.983,16.724,16.724,0,0,1,3-6.817l.035-.045a16.912,16.912,0,0,1,2.484-2.674,16.4,16.4,0,0,1,1.4-1.082,16.655,16.655,0,0,1,4.277-2.14q.692-.232,1.4-.4a16.414,16.414,0,0,1,3.33-.454c.468-.019.935-.016,1.4.006a16.8,16.8,0,0,1,3.106.439c.47.111.934.243,1.4.4a16.468,16.468,0,0,1,1.578.615c.474.212.937.449,1.395.708a16.17,16.17,0,0,1,1.471.941q.133.09.266.189.558.412,1.07.862v0a.493.493,0,0,1,.063.053c.265.234.517.471.764.716a18.835,18.835,0,0,1,1.4,1.572v.019q.284.36.539.739v.022a16.129,16.129,0,0,1,1.4,2.4v.02c.183.391.348.789.5,1.19v0a16.65,16.65,0,0,1,.751,2.635Z" transform="translate(-1496.203 -1077.694)" fill="#82b378"></path></g><path id="Path_38264" data-name="Path 38264" d="M1494.123,1037.989v0l-1.4,1.755v.13l-1.31,1.768-1.689,2.282h0l-1.275,1.72v0l-1.4,1.884v0l-2.339,3.154v0h0l-.231.313-.8,1.073v0l-1.84,2.481-2.44,3.163v.13l-1.266,1.708-.132.177v0l-1.761,2.374-1.638,2.213-.016.022h0l-4.059,5.48v0l-6.044,8.153-10.123,13.658-1.259,1.7-.742,1c.388.057.773.111,1.159.161,0,0,.009,0,.013,0q2.017.269,4.027.486c.376.044.755.085,1.13.123.237.025.474.048.707.069.568.057,1.136.107,1.7.155.24.022.477.045.717.063l.335.029c.376.031.754.06,1.13.085.072.006.142.009.215.015.827.064,1.657.114,2.481.161.375.022.754.041,1.13.057.294.019.587.032.881.045.057,0,.11.006.167.006q.436-2.055,1-4.15c.568-2.115,1.225-4.252,1.953-6.392.559-1.648,1.162-3.3,1.8-4.937q.374-.974.767-1.944c.051-.13.1-.259.155-.388h0c.774-1.913,1.588-3.81,2.424-5.682v-.126c.461-1.026.928-1.919,1.4-2.93q1.169-2.5,2.367-4.9c0-.007.006-.016.009-.023,1.08-2.171,2.165-4.274,3.229-6.287.142-.265.281-.432.422-.666v-.126c.471-.888.938-1.758,1.4-2.6q1.028-1.894,2-3.639c.06-.1.117-.212.177-.316.407-.732.805-1.319,1.193-2v-.126c.941-1.673,1.809-3.2,2.579-4.567q.7-1.236,1.275-2.276c.149-.265.29-.521.423-.767.615-1.124,1.092-2.036,1.4-2.705.1-.221.183-.417.243-.584Z" transform="translate(-1452.357 -1009.339)" fill="#82b378" opacity="0.5"></path></g><g id="Group_28856" data-name="Group 28856" transform="translate(103.419 232.407)"><g id="Group_28847" data-name="Group 28847" transform="translate(17.387 54.313)"><path id="Path_38265" data-name="Path 38265" d="M1410.821,1149.177l-.007,7.718c0,.079,0,.154-.009.23v0a2.911,2.911,0,0,1-.5,1.427,2.969,2.969,0,0,1-1.4,1.111,2.6,2.6,0,0,1-.41.127l-.133.028c-.089.016-.174.028-.262.035a2.5,2.5,0,0,1-.265.012l-.872,0h-3.636l-2.973,0h-1.4l-3.106,0h-1.4l-3.33,0h-1.4l-4.274,0h-1.4l-5.514,0-1.784,0h-1.395l-6.234-.006h-2.958l-2.36,0-9.473-.006h-2.257l-1.632,0h-.663l-3.848,0-5.656,0h-2.746v0h0q-2.367-.511-4.741-1.076c-.376-.091-.751-.18-1.13-.275q-1.576-.378-3.159-.786c-.464-.117-.931-.237-1.4-.36q-1.2-.307-2.4-.634-1.3-.35-2.594-.713l-1.13-.322q-3.215-.918-6.426-1.922h0c-.085-.025-.164-.051-.249-.079-.647-.2-1.291-.4-1.935-.616-.378-.117-.754-.24-1.13-.363-6.038-1.966-12.048-4.154-17.985-6.546h1.714l32.142.022h1.4l8.649.006h1.938v0h4.16v0h5.271l0,0h4.526l0,0h.423l7.017,0h1.632l1.4,0h.928l7.007,0,2.333,0h2.67l1.152,0,6.443,0h1.35l1.4,0,2.92,0h5.773l4.273,0h.158l1.237,0h3.333l1.4,0h1.935a.012.012,0,0,1,.007,0h.127a2.748,2.748,0,0,1,.394.047,2.687,2.687,0,0,1,.543.151,3,3,0,0,1,1.4,1.115A2.947,2.947,0,0,1,1410.821,1149.177Z" transform="translate(-1293.263 -1146.125)" fill="#ffb93e"></path><path id="Path_38266" data-name="Path 38266" d="M1350.454,1159.827h-.663l-3.848,0-5.656,0h-1.4l-1.351,0h0q-2.367-.511-4.741-1.076c-.376-.091-.751-.18-1.13-.275q-1.576-.378-3.159-.786c-.464-.117-.931-.237-1.4-.36q-1.2-.307-2.4-.634-1.3-.35-2.594-.713l-1.13-.322q-3.215-.918-6.426-1.922h0c-.085-.025-.164-.051-.249-.079-.647-.2-1.291-.4-1.935-.616-.378-.117-.754-.24-1.13-.363-6.038-1.966-12.048-4.154-17.985-6.546h1.714l32.142.022h1.4l8.649.006h1.9l.038,0h3.273a27.886,27.886,0,0,0,2.364,6.547,22.422,22.422,0,0,0,4.826,6.36c.129.12.265.237.4.354.025.025.053.047.082.073C1350.182,1159.6,1350.318,1159.717,1350.454,1159.827Z" transform="translate(-1293.263 -1146.125)" fill="#ffa412"></path><g id="Group_28846" data-name="Group 28846" transform="translate(33.849 0.022)"><rect id="Rectangle_10183" data-name="Rectangle 10183" width="1.397" height="13.665" transform="translate(67.352 0.047)" fill="#ffa412"></rect><rect id="Rectangle_10184" data-name="Rectangle 10184" width="1.397" height="13.665" transform="translate(62.623 0.044)" fill="#ffa412"></rect><rect id="Rectangle_10185" data-name="Rectangle 10185" width="1.397" height="13.665" transform="matrix(1, 0.001, -0.001, 1, 56.959, 0.039)" fill="#ffa412"></rect><rect id="Rectangle_10186" data-name="Rectangle 10186" width="1.397" height="13.665" transform="translate(48.26 0.034)" fill="#ffa412"></rect><rect id="Rectangle_10187" data-name="Rectangle 10187" width="1.397" height="13.665" transform="translate(39.068 0.027)" fill="#ffa412"></rect><rect id="Rectangle_10188" data-name="Rectangle 10188" width="1.397" height="13.664" transform="translate(24.977 0.018)" fill="#ffa412"></rect><rect id="Rectangle_10189" data-name="Rectangle 10189" width="1.397" height="13.665" transform="translate(11.783 0.009)" fill="#ffa412"></rect><path id="Path_38267" data-name="Path 38267" d="M1385.821,1146.184l-.009,11.534c-.464-.117-.931-.237-1.4-.36l.007-11.173Z" transform="translate(-1384.416 -1146.184)" fill="#ffa412"></path><rect id="Rectangle_10190" data-name="Rectangle 10190" width="1.397" height="13.665" transform="translate(71.853 0.05)" fill="#ffa412"></rect><rect id="Rectangle_10191" data-name="Rectangle 10191" width="1.397" height="13.665" transform="translate(74.827 0.052)" fill="#ffa412"></rect><rect id="Rectangle_10192" data-name="Rectangle 10192" width="1.397" height="13.665" transform="translate(77.706 0.053) rotate(0.059)" fill="#ffa412"></rect><path id="Path_38268" data-name="Path 38268" d="M1600.864,1146.379l-.009,13.569a2.877,2.877,0,0,1-.525.047h-.873l.009-13.665h.873A2.88,2.88,0,0,1,1600.864,1146.379Z" transform="translate(-1519.603 -1146.276)" fill="#ffa412"></path><path id="Path_38269" data-name="Path 38269" d="M1606.09,1147.988l-.008,11.038a3,3,0,0,1-1.4,1.112l.01-13.264A3,3,0,0,1,1606.09,1147.988Z" transform="translate(-1522.889 -1146.618)" fill="#ffa412"></path></g></g><g id="Group_28849" data-name="Group 28849" transform="translate(16.128 40.647)"><path id="Path_38270" data-name="Path 38270" d="M1418.743,1112.384l-.005,7.717a2.945,2.945,0,0,1-.511,1.66,2.993,2.993,0,0,1-1.4,1.112,2.746,2.746,0,0,1-.544.153,2.907,2.907,0,0,1-.524.047l-122.918-.085a2.985,2.985,0,0,1-2.969-2.823c0-.052,0-.1,0-.154l.005-7.717c0-.051,0-.1,0-.153a2.986,2.986,0,0,1,2.621-2.8,2.757,2.757,0,0,1,.352-.022l122.918.085a2.918,2.918,0,0,1,.524.048,2.779,2.779,0,0,1,.544.153,2.992,2.992,0,0,1,1.395,1.114A2.943,2.943,0,0,1,1418.743,1112.384Z" transform="translate(-1289.872 -1109.324)" fill="#ffb93e"></path><path id="Path_38271" data-name="Path 38271" d="M1358.377,1123.034l-65.852-.045a2.82,2.82,0,0,1-2.65-2.823c0-.052,0-.1,0-.154l.005-7.717c0-.051,0-.1,0-.153a2.868,2.868,0,0,1,2.339-2.8,2.237,2.237,0,0,1,.314-.021l57.765.04c0,.006,0,.015,0,.021A24.479,24.479,0,0,0,1358.377,1123.034Z" transform="translate(-1289.872 -1109.324)" fill="#ffa412"></path><g id="Group_28848" data-name="Group 28848" transform="translate(45.165 0.03)"><rect id="Rectangle_10193" data-name="Rectangle 10193" width="1.397" height="13.665" transform="translate(67.35 0.046)" fill="#ffa412"></rect><rect id="Rectangle_10194" data-name="Rectangle 10194" width="1.397" height="13.665" transform="translate(62.621 0.043)" fill="#ffa412"></rect><rect id="Rectangle_10195" data-name="Rectangle 10195" width="1.397" height="13.665" transform="translate(56.95 0.039)" fill="#ffa412"></rect><rect id="Rectangle_10196" data-name="Rectangle 10196" width="1.397" height="13.665" transform="translate(48.258 0.033)" fill="#ffa412"></rect><rect id="Rectangle_10197" data-name="Rectangle 10197" width="1.397" height="13.665" transform="translate(39.066 0.027)" fill="#ffa412"></rect><rect id="Rectangle_10198" data-name="Rectangle 10198" width="1.397" height="13.665" transform="translate(24.975 0.017)" fill="#ffa412"></rect><rect id="Rectangle_10199" data-name="Rectangle 10199" width="1.397" height="13.665" transform="translate(11.781 0.008)" fill="#ffa412"></rect><rect id="Rectangle_10200" data-name="Rectangle 10200" width="1.397" height="13.665" fill="#ffa412"></rect><rect id="Rectangle_10201" data-name="Rectangle 10201" width="1.397" height="13.665" transform="translate(71.851 0.049)" fill="#ffa412"></rect><rect id="Rectangle_10202" data-name="Rectangle 10202" width="1.397" height="13.665" transform="translate(74.825 0.051)" fill="#ffa412"></rect><rect id="Rectangle_10203" data-name="Rectangle 10203" width="1.397" height="13.665" transform="translate(77.697 0.053)" fill="#ffa412"></rect><path id="Path_38272" data-name="Path 38272" d="M1627.94,1109.6l-.009,13.57a2.878,2.878,0,0,1-.525.047h-.873l.01-13.665h.873A2.87,2.87,0,0,1,1627.94,1109.6Z" transform="translate(-1546.681 -1109.496)" fill="#ffa412"></path><path id="Path_38273" data-name="Path 38273" d="M1633.166,1111.208l-.007,11.037a2.994,2.994,0,0,1-1.4,1.112l.009-13.263A2.994,2.994,0,0,1,1633.166,1111.208Z" transform="translate(-1549.968 -1109.838)" fill="#ffa412"></path></g></g><g id="Group_28851" data-name="Group 28851" transform="translate(0 26.993)"><path id="Path_38274" data-name="Path 38274" d="M1375.311,1075.614l-.005,7.717a2.948,2.948,0,0,1-.511,1.66,2.993,2.993,0,0,1-1.4,1.112,2.8,2.8,0,0,1-.544.153c-.057.01-.115.02-.173.026s-.092.01-.138.013l-.069,0c-.047,0-.1,0-.145,0l-122.918-.084a2.985,2.985,0,0,1-2.969-2.823q0-.076,0-.153l0-7.717c0-.051,0-.1,0-.153a2.984,2.984,0,0,1,2.973-2.819l122.917.084c.053,0,.105,0,.157.005a2.992,2.992,0,0,1,.367.043,2.8,2.8,0,0,1,.544.153,2.7,2.7,0,0,1,.258.115c.052.026.1.052.152.082a.041.041,0,0,1,.017.01c.051.03.1.061.149.094a.093.093,0,0,1,.025.017,1.467,1.467,0,0,1,.133.1,2.568,2.568,0,0,1,.3.259c.029.028.057.057.084.087l.015.017c.018.018.034.036.05.056l.01.011c.03.035.059.071.087.109s.081.1.118.161A2.944,2.944,0,0,1,1375.311,1075.614Z" transform="translate(-1246.44 -1072.554)" fill="#ffb93e"></path><path id="Path_38275" data-name="Path 38275" d="M1314.944,1086.264l-65.852-.045a2.82,2.82,0,0,1-2.65-2.823q0-.076,0-.153l0-7.717c0-.051,0-.1,0-.153a2.819,2.819,0,0,1,2.653-2.819l57.765.039c.023.1.047.209.075.316a24.364,24.364,0,0,0,7.976,13.333Z" transform="translate(-1246.44 -1072.554)" fill="#ffa412"></path><g id="Group_28850" data-name="Group 28850" transform="translate(45.158 0.029)"><rect id="Rectangle_10204" data-name="Rectangle 10204" width="1.397" height="13.665" transform="translate(67.357 0.047)" fill="#ffa412"></rect><rect id="Rectangle_10205" data-name="Rectangle 10205" width="1.397" height="13.665" transform="translate(62.628 0.044)" fill="#ffa412"></rect><rect id="Rectangle_10206" data-name="Rectangle 10206" width="1.397" height="13.665" transform="translate(56.957 0.04)" fill="#ffa412"></rect><rect id="Rectangle_10207" data-name="Rectangle 10207" width="1.397" height="13.665" transform="translate(48.265 0.034)" fill="#ffa412"></rect><rect id="Rectangle_10208" data-name="Rectangle 10208" width="1.397" height="13.665" transform="translate(39.073 0.027)" fill="#ffa412"></rect><rect id="Rectangle_10209" data-name="Rectangle 10209" width="1.397" height="13.665" transform="translate(24.982 0.018)" fill="#ffa412"></rect><rect id="Rectangle_10210" data-name="Rectangle 10210" width="1.397" height="13.665" transform="translate(11.788 0.009)" fill="#ffa412"></rect><rect id="Rectangle_10211" data-name="Rectangle 10211" width="1.397" height="13.665" transform="translate(0.014 0) rotate(0.059)" fill="#ffa412"></rect><rect id="Rectangle_10212" data-name="Rectangle 10212" width="1.397" height="13.665" transform="translate(71.858 0.05)" fill="#ffa412"></rect><rect id="Rectangle_10213" data-name="Rectangle 10213" width="1.397" height="13.665" transform="translate(74.832 0.052)" fill="#ffa412"></rect><rect id="Rectangle_10214" data-name="Rectangle 10214" width="1.397" height="13.665" transform="translate(77.704 0.054)" fill="#ffa412"></rect><path id="Path_38276" data-name="Path 38276" d="M1584.507,1072.828l-.01,13.569a2.938,2.938,0,0,1-.524.048h-.873l.01-13.665h.873A2.887,2.887,0,0,1,1584.507,1072.828Z" transform="translate(-1503.241 -1072.725)" fill="#ffa412"></path><path id="Path_38277" data-name="Path 38277" d="M1589.733,1074.437l-.007,11.038a2.991,2.991,0,0,1-1.4,1.112l.009-13.264A2.994,2.994,0,0,1,1589.733,1074.437Z" transform="translate(-1506.528 -1073.067)" fill="#ffa412"></path></g></g><g id="Group_28853" data-name="Group 28853" transform="translate(9.046 13.649)"><path id="Path_38278" data-name="Path 38278" d="M1399.672,1039.683l-.005,7.717a2.947,2.947,0,0,1-.511,1.66,3,3,0,0,1-1.4,1.112,2.825,2.825,0,0,1-.544.153,2.974,2.974,0,0,1-.525.047l-122.918-.084a2.932,2.932,0,0,1-1.328-.317,2.985,2.985,0,0,1-1.633-2.385c0-.04-.006-.081-.008-.122s0-.1,0-.153l.005-7.717c0-.051,0-.1,0-.153a2.984,2.984,0,0,1,2.621-2.8,2.642,2.642,0,0,1,.352-.021l122.918.084a2.945,2.945,0,0,1,.524.048,2.789,2.789,0,0,1,.544.154,2.993,2.993,0,0,1,1.4,1.114A2.944,2.944,0,0,1,1399.672,1039.683Z" transform="translate(-1270.801 -1036.623)" fill="#ffb93e"></path><path id="Path_38279" data-name="Path 38279" d="M1339.305,1050.332l-65.852-.045a2.392,2.392,0,0,1-1.185-.317,3,3,0,0,1-1.457-2.385c0-.04-.006-.08-.008-.122s0-.1,0-.153l.005-7.717c0-.051,0-.1,0-.153a2.868,2.868,0,0,1,2.34-2.8,2.189,2.189,0,0,1,.314-.021l57.765.04c0,.007,0,.015.005.021a24.62,24.62,0,0,0,7.7,13.333Q1339.113,1050.176,1339.305,1050.332Z" transform="translate(-1270.801 -1036.622)" fill="#ffa412"></path><g id="Group_28852" data-name="Group 28852" transform="translate(45.164 0.03)"><rect id="Rectangle_10215" data-name="Rectangle 10215" width="1.397" height="13.665" transform="translate(67.35 0.046)" fill="#ffa412"></rect><rect id="Rectangle_10216" data-name="Rectangle 10216" width="1.397" height="13.665" transform="translate(62.621 0.043)" fill="#ffa412"></rect><rect id="Rectangle_10217" data-name="Rectangle 10217" width="1.397" height="13.665" transform="translate(56.95 0.039)" fill="#ffa412"></rect><rect id="Rectangle_10218" data-name="Rectangle 10218" width="1.397" height="13.664" transform="translate(48.258 0.033)" fill="#ffa412"></rect><rect id="Rectangle_10219" data-name="Rectangle 10219" width="1.397" height="13.665" transform="translate(39.066 0.027)" fill="#ffa412"></rect><rect id="Rectangle_10220" data-name="Rectangle 10220" width="1.397" height="13.665" transform="translate(24.975 0.017)" fill="#ffa412"></rect><rect id="Rectangle_10221" data-name="Rectangle 10221" width="1.397" height="13.665" transform="translate(11.781 0.008)" fill="#ffa412"></rect><rect id="Rectangle_10222" data-name="Rectangle 10222" width="1.397" height="13.664" fill="#ffa412"></rect><rect id="Rectangle_10223" data-name="Rectangle 10223" width="1.397" height="13.665" transform="translate(71.851 0.049)" fill="#ffa412"></rect><rect id="Rectangle_10224" data-name="Rectangle 10224" width="1.397" height="13.665" transform="translate(74.825 0.051)" fill="#ffa412"></rect><rect id="Rectangle_10225" data-name="Rectangle 10225" width="1.397" height="13.665" transform="translate(77.697 0.053)" fill="#ffa412"></rect><path id="Path_38280" data-name="Path 38280" d="M1608.868,1036.9l-.009,13.57a2.953,2.953,0,0,1-.525.047h-.873l.009-13.665h.873A2.929,2.929,0,0,1,1608.868,1036.9Z" transform="translate(-1527.609 -1036.793)" fill="#ffa412"></path><path id="Path_38281" data-name="Path 38281" d="M1614.094,1038.5l-.008,11.038a2.988,2.988,0,0,1-1.4,1.112l.009-13.263A2.992,2.992,0,0,1,1614.094,1038.5Z" transform="translate(-1530.896 -1037.135)" fill="#ffa412"></path></g></g><g id="Group_28855" data-name="Group 28855" transform="translate(0.019)"><path id="Path_38282" data-name="Path 38282" d="M1375.361,1002.925l0,7.717a2.952,2.952,0,0,1-.511,1.66,3,3,0,0,1-1.4,1.113,2.79,2.79,0,0,1-.545.152c-.057.01-.115.019-.173.026l-.1.01c-.031,0-.064.005-.1.007-.053,0-.105.005-.158.005l-122.918-.084a2.985,2.985,0,0,1-2.969-2.823c0-.051,0-.1,0-.153l.005-7.717c0-.051,0-.1,0-.153a2.984,2.984,0,0,1,2.973-2.819l122.917.084a2.882,2.882,0,0,1,.525.048,2.749,2.749,0,0,1,.544.153,2.99,2.99,0,0,1,1.4,1.114A2.944,2.944,0,0,1,1375.361,1002.925Z" transform="translate(-1246.49 -999.865)" fill="#ffb93e"></path><path id="Path_38283" data-name="Path 38283" d="M1314.994,1013.575l-65.852-.045a2.82,2.82,0,0,1-2.65-2.823c0-.051,0-.1,0-.153l.005-7.717c0-.051,0-.1,0-.153a2.819,2.819,0,0,1,2.653-2.819l57.765.039a24.492,24.492,0,0,0,8.051,13.649Z" transform="translate(-1246.49 -999.865)" fill="#ffa412"></path><g id="Group_28854" data-name="Group 28854" transform="translate(45.164 0.029)"><rect id="Rectangle_10226" data-name="Rectangle 10226" width="1.397" height="13.665" transform="matrix(1, 0.001, -0.001, 1, 67.357, 0.046)" fill="#ffa412"></rect><rect id="Rectangle_10227" data-name="Rectangle 10227" width="1.397" height="13.665" transform="translate(62.621 0.043)" fill="#ffa412"></rect><rect id="Rectangle_10228" data-name="Rectangle 10228" width="1.397" height="13.664" transform="translate(56.95 0.039)" fill="#ffa412"></rect><rect id="Rectangle_10229" data-name="Rectangle 10229" width="1.397" height="13.665" transform="translate(48.258 0.033)" fill="#ffa412"></rect><rect id="Rectangle_10230" data-name="Rectangle 10230" width="1.397" height="13.665" transform="translate(39.066 0.027)" fill="#ffa412"></rect><rect id="Rectangle_10231" data-name="Rectangle 10231" width="1.397" height="13.665" transform="translate(24.975 0.017)" fill="#ffa412"></rect><rect id="Rectangle_10232" data-name="Rectangle 10232" width="1.397" height="13.665" transform="translate(11.781 0.008)" fill="#ffa412"></rect><rect id="Rectangle_10233" data-name="Rectangle 10233" width="1.398" height="13.665" fill="#ffa412"></rect><rect id="Rectangle_10234" data-name="Rectangle 10234" width="1.397" height="13.665" transform="translate(71.851 0.05)" fill="#ffa412"></rect><rect id="Rectangle_10235" data-name="Rectangle 10235" width="1.397" height="13.665" transform="translate(74.825 0.051)" fill="#ffa412"></rect><rect id="Rectangle_10236" data-name="Rectangle 10236" width="1.397" height="13.665" transform="translate(77.697 0.053)" fill="#ffa412"></rect><path id="Path_38284" data-name="Path 38284" d="M1584.557,1000.139l-.009,13.57a2.964,2.964,0,0,1-.525.047h-.873l.01-13.665h.873A2.922,2.922,0,0,1,1584.557,1000.139Z" transform="translate(-1503.298 -1000.036)" fill="#ffa412"></path><path id="Path_38285" data-name="Path 38285" d="M1589.783,1001.748l-.007,11.037a3,3,0,0,1-1.4,1.113l.009-13.264A2.989,2.989,0,0,1,1589.783,1001.748Z" transform="translate(-1506.585 -1000.378)" fill="#ffa412"></path></g></g></g><path id="Path_38286" data-name="Path 38286" d="M1485.206,1094.333q-4.185,1.331-8.481,2.418-.668.17-1.342.331-1.6.393-3.21.748l-.173.038q-5.137,1.131-10.41,1.916-4.872.72-9.848,1.133h-.006q-4.318.364-8.708.48c-.152.006-.3.009-.452.013-.107,0-.212.006-.319.006-.05,0-.1,0-.155,0-.208.006-.417.009-.625.012-.149,0-.293.007-.442.007s-.3.007-.445.007c-.227.006-.455.006-.685.006-.2,0-.41.006-.619,0-.375,0-.751,0-1.13,0-.4,0-.8,0-1.193-.006-.375-.007-.754-.009-1.13-.019-.426-.006-.852-.016-1.278-.031-.376-.006-.751-.019-1.13-.032-.486-.013-.975-.035-1.464-.057-.057,0-.111,0-.168-.006-.293-.013-.587-.026-.881-.045-.375-.016-.754-.035-1.13-.057-.823-.047-1.654-.1-2.481-.161-.073-.007-.143-.01-.215-.016-.376-.026-.754-.054-1.13-.086l-.335-.029c-.24-.018-.477-.041-.717-.063-.565-.047-1.133-.1-1.7-.155-.234-.022-.471-.044-.708-.069-.375-.038-.754-.079-1.13-.123-1.338-.142-2.683-.307-4.027-.486,0,0-.01,0-.013,0q-.578-.075-1.159-.161l-.388-.057c-.1-.009-.212-.025-.316-.044-.266-.035-.534-.076-.8-.117-.076-.01-.148-.022-.221-.035-.016,0-.028,0-.044-.006l0,0a.223.223,0,0,1-.066-.01c-1-.148-2.008-.312-3.014-.486-.35-.06-.7-.12-1.055-.183s-.7-.126-1.054-.192c-.394-.073-.789-.149-1.184-.224-.376-.069-.755-.142-1.13-.215q-2.76-.54-5.524-1.139h0v0h0q-2.368-.511-4.741-1.076c-.376-.091-.751-.18-1.13-.275l-.543-.132a43.644,43.644,0,0,1,22.436-41.977c.558-.306,1.123-.6,1.688-.881q.81-.492,1.648-.956a43.643,43.643,0,0,1,64.483,42.495Z" transform="translate(-1236.284 -796.724)" fill="#e2810e"></path><g id="Group_28859" data-name="Group 28859" transform="translate(172.129 244.131)"><path id="Path_38287" data-name="Path 38287" d="M1522.327,1054.035a43.409,43.409,0,0,0-16-16.514c-.17-.1-.341-.2-.511-.3-.461-.265-.925-.521-1.4-.764-.18-.1-.363-.193-.546-.281-.461-.236-.925-.464-1.4-.678-.252-.117-.505-.233-.76-.344-.464-.205-.928-.4-1.4-.587-.489-.2-.979-.382-1.474-.562l-.111-.037q-.638-.227-1.288-.436c-.1-.031-.2-.063-.3-.091h-.126a1.851,1.851,0,0,0-.332-.142c-.287-.088-.578-.17-.868-.253-.146-.041-.294-.082-.439-.12-.183-.051-.363-.1-.546-.142-.464-.12-.931-.231-1.4-.331-.252-.057-.5-.111-.761-.158-.464-.094-.931-.183-1.4-.259-.489-.082-.982-.158-1.474-.224-.458-.06-.915-.114-1.376-.158a.065.065,0,0,0-.022,0c-.523-.054-1.048-.095-1.575-.13q-.7-.042-1.4-.066-1.548-.047-3.1.013c-.464.019-.931.045-1.4.079q-1.667.118-3.333.373c-.464.066-.931.145-1.4.23a42.341,42.341,0,0,0-4.274,1.013c-.284.082-.568.167-.852.259h0c-.026.006-.048.016-.07.022-.044.013-.088.029-.129.041a43.767,43.767,0,0,0-7.8,3.352l-.031.019c-.461.256-.919.518-1.367.786-.082.048-.164.1-.243.149a43.388,43.388,0,0,0-10.552,8.967c-.091.1-.18.212-.265.316a43.612,43.612,0,0,0-7.62,13.323.056.056,0,0,0-.006.022l-.114.322a43.233,43.233,0,0,0-1.4,4.95v.126a42.175,42.175,0,0,0-1.017,8.242v0a43.217,43.217,0,0,0,1.632,12.9c.069.255.145.508.224.764q.374,1.23.827,2.452c.073.013.145.025.221.035.265.041.533.082.8.117.1.019.211.035.316.044l.388.057c.388.057.773.111,1.159.161,0,0,.009,0,.012,0q2.016.269,4.027.486c.376.044.755.085,1.13.123.237.025.474.047.707.069.568.057,1.136.107,1.7.155.24.022.477.045.717.063l.334.029c.376.031.754.06,1.13.085.072.006.142.009.215.016.827.063,1.657.114,2.481.161.375.022.755.042,1.13.057.294.019.587.032.881.044.057,0,.11.006.168.006.489.022.978.044,1.464.057.379.012.754.025,1.13.032q.64.023,1.278.031c.376.01.755.013,1.13.019.4,0,.8.006,1.193.006.379,0,.755,0,1.13,0,.208,0,.414,0,.619,0,.23,0,.458,0,.685-.006.148,0,.3,0,.445-.007s.293,0,.442-.007c.208,0,.417-.006.625-.012.054,0,.1,0,.154,0,.107,0,.212,0,.319-.006.151,0,.3-.007.451-.013q4.389-.119,8.708-.48h.006q4.976-.408,9.848-1.133,5.27-.781,10.41-1.916l.173-.038a.236.236,0,0,1-.012.044l3.222-.792q.673-.161,1.342-.331,6.349-1.61,12.455-3.737,1.023-.355,2.036-.723c.167-.06.338-.123.505-.186q1.9-.691,3.765-1.439c.338-.132.675-.268,1.013-.4v0c.069-.025.139-.053.205-.079v0c.4-.161.792-.325,1.184-.489.3-.123.59-.246.884-.372.035-.316.069-.632.094-.95A43.426,43.426,0,0,0,1522.327,1054.035Z" transform="translate(-1437.118 -1031.436)" fill="#e2810e"></path><path id="Path_38288" data-name="Path 38288" d="M1513.345,1058.98a43.409,43.409,0,0,0-12.67-14.333c-.167-.123-.337-.243-.511-.363q-.686-.483-1.392-.937l-.546-.347c-.461-.284-.928-.562-1.4-.83-.253-.145-.505-.287-.761-.423-.461-.255-.928-.5-1.4-.735-.486-.243-.979-.477-1.474-.7-.464-.211-.928-.414-1.4-.606-.167-.069-.334-.139-.5-.2-.357-.142-.713-.278-1.073-.41-.306-.114-.612-.221-.918-.329-.158-.053-.319-.107-.477-.158q-1.534-.511-3.1-.9c-.464-.117-.931-.224-1.4-.325q-1.52-.332-3.065-.549c-.088-.016-.18-.028-.268-.038-.464-.066-.928-.12-1.4-.167-.183-.022-.366-.038-.552-.054h-.136a.52.52,0,0,0-.1-.022h-.271c-.594-.063-1.276-.1-1.847-.13-.466-.019-.931-.029-1.4-.029q-1.662-.014-3.333.111c-.174.012-.347.025-.524.041h-.18c-.022.006-.038.013-.073.022h-.171a40.015,40.015,0,0,0-4.378.653c-.467.091-.931.193-1.4.3a43.184,43.184,0,0,0-7.8,2.617c-.467.205-.935.423-1.4.651-.082.038-.161.079-.243.12q-.871.426-1.727.9a43.618,43.618,0,0,0-10.5,8.065c-.076.079-.151.158-.224.237-.025.025-.05.054-.076.079v0a43.464,43.464,0,0,0-8.535,13.32.234.234,0,0,0-.009.022,43.837,43.837,0,0,0-3.15,13.643,43.439,43.439,0,0,0,1.259,13.664c.148.594.313,1.18.492,1.768.354.063.7.123,1.055.183,1.007.173,2.01.338,3.014.486a.231.231,0,0,0,.066.01l0,0c.016,0,.029,0,.044.006.073.013.145.025.221.035.265.041.533.082.8.117.1.019.211.035.316.044l.388.057c.388.057.773.111,1.159.161,0,0,.009,0,.013,0q2.016.269,4.027.486c.376.044.755.085,1.13.123.237.025.473.047.707.069.568.057,1.136.107,1.7.155.24.022.477.045.717.063l.334.029c.376.031.754.06,1.13.085.072.006.142.009.215.016.827.063,1.657.114,2.481.161.375.022.755.041,1.13.057.294.019.588.032.881.044.057,0,.11.006.167.006.489.022.979.044,1.464.057.379.012.754.025,1.13.032q.64.023,1.278.031c.376.01.755.013,1.13.019.4,0,.8.006,1.193.006.379,0,.755,0,1.13,0,.208,0,.414,0,.619,0,.23,0,.458,0,.685-.006.149,0,.3,0,.445-.007s.293,0,.442-.007c.208,0,.417-.006.625-.012.054,0,.1,0,.154,0,.107,0,.212,0,.319-.006.151,0,.3-.007.451-.013q4.389-.119,8.708-.48h.006q4.976-.408,9.848-1.133,5.27-.781,10.41-1.916l.173-.038a.238.238,0,0,1-.012.044l3.222-.792c.448-.107.9-.218,1.342-.331q6.349-1.61,12.455-3.737,1.023-.355,2.036-.723c.167-.06.338-.123.505-.186q1.9-.691,3.765-1.439A43.412,43.412,0,0,0,1513.345,1058.98Z" transform="translate(-1431.471 -1034.547)" fill="#ffb93e"></path><g id="Group_28857" data-name="Group 28857" transform="translate(4.117 6.179)"><path id="Path_38289" data-name="Path 38289" d="M1517.165,1068.653a39.5,39.5,0,0,0-10.271-12.089q-.573-.45-1.158-.875c-.18-.132-.363-.262-.546-.385-.458-.325-.925-.638-1.4-.937-.252-.161-.5-.319-.76-.474q-.691-.422-1.4-.811-.729-.408-1.474-.776c-.464-.234-.928-.454-1.4-.666q-.781-.355-1.575-.669c-.46-.189-.928-.366-1.395-.533-.051-.019-.1-.038-.148-.054q-1.014-.36-2.046-.663c-.3-.092-.606-.177-.91-.259-.463-.126-.927-.244-1.4-.351q-1.653-.383-3.333-.628c-.464-.066-.928-.123-1.395-.173-.139-.016-.281-.032-.423-.044-.293-.028-.59-.054-.883-.076h0q-1.477-.114-2.964-.114c-.467,0-.935.01-1.4.026a39.261,39.261,0,0,0-7.294.938c-.467.1-.935.218-1.4.344a39.707,39.707,0,0,0-7.8,2.964c-.416.212-.83.429-1.244.657-.051.028-.1.056-.155.088a39.668,39.668,0,0,0-6.054,4.132c-.129.1-.255.205-.382.316-.41.344-.811.7-1.206,1.064-.479.438-.944.887-1.4,1.351a39.194,39.194,0,0,0-7.591,10.905.034.034,0,0,0-.009.022.687.687,0,0,0-.047.1,39.553,39.553,0,0,0-2.111,5.6v.082a.475.475,0,0,0-.057.1,36.835,36.835,0,0,0-1.348,6.471v.3c-.038.328-.069.66-.1.991q-.146,1.685-.145,3.368a39.139,39.139,0,0,0,1.266,9.886c.035.139.072.274.111.41.224.836.48,1.663.76,2.487.265.041.533.082.8.117.1.019.211.034.316.044l.388.057q.582.086,1.159.161c-.145-.385-.287-.773-.417-1.161-.2-.561-.376-1.13-.543-1.7s-.316-1-.455-1.575v-.148a36.96,36.96,0,0,1-.856-11.944,37.791,37.791,0,0,1,1.342-7.1q.426-1.468.96-2.879v0a36.429,36.429,0,0,1,1.615-3.661.033.033,0,0,1,.01-.022,36.72,36.72,0,0,1,4.949-7.4c.448-.524.912-1.035,1.4-1.534a36.466,36.466,0,0,1,5.05-4.385h0c.148-.107.294-.215.445-.315h.031c.695-.49,1.38-.954,2.112-1.392.426-.262.862-.511,1.3-.754.035-.019.067-.038.1-.054a36.968,36.968,0,0,1,7.793-3.185c.464-.133.931-.252,1.4-.366a36.96,36.96,0,0,1,7.3-1q.691-.028,1.383-.028h.016c.423,0,.849.006,1.272.022h0c.432.016.868.038,1.3.07.568.038,1.137.091,1.7.155q.7.08,1.391.189c1.121.17,2.235.391,3.333.663q.4.1.8.208c.2.054.4.111.6.168.5.142.988.3,1.477.458q.819.275,1.626.584c.47.18.934.372,1.4.568q.8.346,1.575.726.706.346,1.4.72.748.4,1.471.84c.47.281.937.577,1.4.884.256.167.508.341.76.518.164.114.332.23.493.35h0a37.384,37.384,0,0,1,14.921,36.485q1.023-.355,2.036-.723c.167-.06.338-.123.505-.186A39.477,39.477,0,0,0,1517.165,1068.653Z" transform="translate(-1442.557 -1048.076)" fill="#ffa412"></path></g><g id="Group_28858" data-name="Group 28858" transform="translate(25.575 17.237)"><path id="Path_38290" data-name="Path 38290" d="M1517.525,1120.165a9.5,9.5,0,0,1-1.941-3.156l-7.16,2.9c-.006.423,0,.846.032,1.269.054,0,.1,0,.155,0,.107,0,.212,0,.319-.006.151,0,.3-.007.452-.013q4.389-.119,8.708-.48C1517.9,1120.522,1517.711,1120.351,1517.525,1120.165Zm0,0a9.5,9.5,0,0,1-1.941-3.156l-7.16,2.9c-.006.423,0,.846.032,1.269.054,0,.1,0,.155,0,.107,0,.212,0,.319-.006.151,0,.3-.007.452-.013q4.389-.119,8.708-.48C1517.9,1120.522,1517.711,1120.351,1517.525,1120.165Zm0,0a9.5,9.5,0,0,1-1.941-3.156l-7.16,2.9c-.006.423,0,.846.032,1.269.054,0,.1,0,.155,0,.107,0,.212,0,.319-.006.151,0,.3-.007.452-.013q4.389-.119,8.708-.48C1517.9,1120.522,1517.711,1120.351,1517.525,1120.165Zm0,0a9.5,9.5,0,0,1-1.941-3.156l-7.16,2.9c-.006.423,0,.846.032,1.269.054,0,.1,0,.155,0,.107,0,.212,0,.319-.006.151,0,.3-.007.452-.013q4.389-.119,8.708-.48C1517.9,1120.522,1517.711,1120.351,1517.525,1120.165Zm0,0a9.5,9.5,0,0,1-1.941-3.156l-7.16,2.9c-.006.423,0,.846.032,1.269.054,0,.1,0,.155,0,.107,0,.212,0,.319-.006.151,0,.3-.007.452-.013q4.389-.119,8.708-.48C1517.9,1120.522,1517.711,1120.351,1517.525,1120.165Zm0,0a9.5,9.5,0,0,1-1.941-3.156l-7.16,2.9c-.006.423,0,.846.032,1.269.054,0,.1,0,.155,0,.107,0,.212,0,.319-.006.151,0,.3-.007.452-.013q4.389-.119,8.708-.48C1517.9,1120.522,1517.711,1120.351,1517.525,1120.165Zm21.025-7.752a13.575,13.575,0,0,0-.656-2.055,15.851,15.851,0,0,0-.739-1.569,12.821,12.821,0,0,0-.764-1.225.82.82,0,0,0-.063-.085v0a9.659,9.659,0,0,0-1.335-1.508l-.016-.016a11.936,11.936,0,0,0-1.455-1.137,12.637,12.637,0,0,0-1.395-.782,12.111,12.111,0,0,0-1.316-.537c-.086-.028-.174-.06-.262-.085-.139-.047-.277-.091-.42-.133l0,0h0c-.051-.015-.1-.028-.155-.041a20.308,20.308,0,0,0-4.273-.723c-.057-.006-.117-.01-.177-.012-.4-.026-.805-.044-1.222-.063q-2.406-.094-5.135-.022-1.175.038-2.159.01c-.5-.013-.969-.041-1.4-.079-.025,0-.05,0-.076-.006a9.082,9.082,0,0,1-2.553-.559,4.525,4.525,0,0,1-1.7-1.155,6.1,6.1,0,0,1-1.086-1.789c-.029-.073-.057-.145-.083-.218a6.673,6.673,0,0,1-.41-1.882,4.544,4.544,0,0,1,.312-1.973,4.834,4.834,0,0,1,1.216-1.723,5.875,5.875,0,0,1,1.054-.776,8.651,8.651,0,0,1,1.174-.578,6.519,6.519,0,0,1,2.159-.5h.007a5.169,5.169,0,0,1,1.4.123,5.327,5.327,0,0,1,1.2.423q2.211,1.084,3.6,4.514l2.484-1.007,1.4-.568,4.274-1.733.732-.3c-.227-.559-.47-1.1-.729-1.6v-.149c-.252-.474-.521-.814-.8-1.256a.054.054,0,0,0-.016-.022c-.079-.126-.161-.249-.243-.369a14.081,14.081,0,0,0-1.111-1.43c-.12-.133-.234-.258-.364-.385v-.007a13.548,13.548,0,0,0-1.395-1.272,11.759,11.759,0,0,0-1.575-1.057c-.2-.117-.4-.224-.609-.325-.259-.127-.524-.243-.789-.351a12.78,12.78,0,0,0-1.989-.619c-.366-.082-.735-.145-1.115-.2-.29-.041-.584-.069-.88-.092-.107-.006-.211-.012-.318-.016-.067-.006-.133-.009-.2-.013a16.056,16.056,0,0,0-3.33.24q-.691.119-1.4.3c-.041.006-.079.019-.12.028l-.3-.742-1.414-3.482-.8-1.976-1.635.663-1.4.565-1.891.767,1.888,4.656.132.325.461,1.136c-.2.1-.4.212-.593.322a18.357,18.357,0,0,0-1.758,1.1h0a16.717,16.717,0,0,0-2.162,1.8c-.139.139-.274.277-.4.417a.072.072,0,0,0-.022.022,13.491,13.491,0,0,0-2.427,3.529,11.155,11.155,0,0,0-.7,1.951v0a11.082,11.082,0,0,0-.347,2.531,12.01,12.01,0,0,0,.937,4.779c.12.29.243.574.373.846v0a13.036,13.036,0,0,0,1.076,1.875c.108.158.218.312.335.458a9.324,9.324,0,0,0,1.019,1.14l.123.114a11.081,11.081,0,0,0,1.348,1.057,11.216,11.216,0,0,0,1.4.805,11.627,11.627,0,0,0,1.417.577,17.984,17.984,0,0,0,3.4.783q.919.128,1.9.18l.577.028c.455.019.922.035,1.4.041q2.027.038,4.274-.067c.041,0,.085,0,.127-.006.442-.025.868-.041,1.272-.047a20.771,20.771,0,0,1,2.2.073,9.931,9.931,0,0,1,1.133.161,7.674,7.674,0,0,1,1.4.4l.009,0a4.762,4.762,0,0,1,1.777,1.209,6.551,6.551,0,0,1,1.2,1.975,1.332,1.332,0,0,0,.123.177v.149a5.373,5.373,0,0,1,.3,1.783,4.383,4.383,0,0,1-.076.814,4.491,4.491,0,0,1-.4,1.193,5.392,5.392,0,0,1-1.029,1.411q5.27-.781,10.41-1.916l.173-.038q.09-.355.152-.719a11.327,11.327,0,0,0,.167-1.645A10.964,10.964,0,0,0,1538.55,1112.412Zm-21.025,7.752a9.5,9.5,0,0,1-1.941-3.156l-7.16,2.9c-.006.423,0,.846.032,1.269.054,0,.1,0,.155,0,.107,0,.212,0,.319-.006.151,0,.3-.007.452-.013q4.389-.119,8.708-.48C1517.9,1120.522,1517.711,1120.351,1517.525,1120.165Zm0,0a9.5,9.5,0,0,1-1.941-3.156l-7.16,2.9c-.006.423,0,.846.032,1.269.054,0,.1,0,.155,0,.107,0,.212,0,.319-.006.151,0,.3-.007.452-.013q4.389-.119,8.708-.48C1517.9,1120.522,1517.711,1120.351,1517.525,1120.165Zm0,0a9.5,9.5,0,0,1-1.941-3.156l-7.16,2.9c-.006.423,0,.846.032,1.269.054,0,.1,0,.155,0,.107,0,.212,0,.319-.006.151,0,.3-.007.452-.013q4.389-.119,8.708-.48C1517.9,1120.522,1517.711,1120.351,1517.525,1120.165Zm0,0a9.5,9.5,0,0,1-1.941-3.156l-7.16,2.9c-.006.423,0,.846.032,1.269.054,0,.1,0,.155,0,.107,0,.212,0,.319-.006.151,0,.3-.007.452-.013q4.389-.119,8.708-.48C1517.9,1120.522,1517.711,1120.351,1517.525,1120.165Zm0,0a9.5,9.5,0,0,1-1.941-3.156l-7.16,2.9c-.006.423,0,.846.032,1.269.054,0,.1,0,.155,0,.107,0,.212,0,.319-.006.151,0,.3-.007.452-.013q4.389-.119,8.708-.48C1517.9,1120.522,1517.711,1120.351,1517.525,1120.165Zm0,0a9.5,9.5,0,0,1-1.941-3.156l-7.16,2.9c-.006.423,0,.846.032,1.269.054,0,.1,0,.155,0,.107,0,.212,0,.319-.006.151,0,.3-.007.452-.013q4.389-.119,8.708-.48C1517.9,1120.522,1517.711,1120.351,1517.525,1120.165Zm0,0a9.5,9.5,0,0,1-1.941-3.156l-7.16,2.9-1.733.7c.082.2.165.4.253.594.149,0,.3,0,.445-.007s.293,0,.442-.007c.208,0,.417-.006.625-.012.054,0,.1,0,.155,0,.107,0,.212,0,.319-.006.151,0,.3-.007.452-.013q4.389-.119,8.708-.48C1517.9,1120.522,1517.711,1120.351,1517.525,1120.165Z" transform="translate(-1500.342 -1077.853)" fill="#ffa412"></path></g></g></g></g></g></g><g class="man"><g id="Group_28587" data-name="Group 28587" transform="translate(249.991 1362)" clip-path="url(#clip-path-2)"><g id="Group_28576" data-name="Group 28576" transform="translate(-17.637 -122.496)"><g id="Group_28575" data-name="Group 28575" clip-path="url(#clip-path-3)"><path id="Path_37480" data-name="Path 37480" d="M379.589,677.072,446.572,768.2,434.649,876.036h-55.06Z" transform="translate(-215.552 -534.086)" fill="#FFD100"></path><path id="Path_37481" data-name="Path 37481" d="M766.435,677.072,699.452,768.2l11.923,107.839h55.059Z" transform="translate(-602.965 -534.086)" fill="#FFD100"></path><path id="Path_37482" data-name="Path 37482" d="M279.176,2928.544c0,11.65,39.886,21.094,89.088,21.094s89.088-9.444,89.088-21.094-39.886-21.094-89.088-21.094-89.088,9.445-89.088,21.094" transform="translate(-205.127 -2293.444)" fill="#ffe8d9" opacity="0.19"></path><path id="Path_37483" data-name="Path 37483" d="M517.341,2666.345l-6.065-58.552,27.036-4.135-2.669,62.687a6.418,6.418,0,0,0,1.116,3.616l3.013,4.419H513.213l3.013-4.419a6.419,6.419,0,0,0,1.116-3.616" transform="translate(-336.562 -2053.809)" fill="#fbd3a8"></path><path id="Path_37484" data-name="Path 37484" d="M524.332,2927.632v6.343c-1.411,3.681-35.882,3.818-36.432,0v-5.866a11.539,11.539,0,0,1,.563-3.593c6-18.311,31.543-15.464,35.529.307a11.464,11.464,0,0,1,.34,2.81" transform="translate(-316.186 -2296.924)" fill="#6A2186"></path><path id="Path_37485" data-name="Path 37485" d="M533.01,2957.768c-4.071-9.107-26.11-9.128-29.845-.062a1.042,1.042,0,0,0,.666,1.4c7.3,2.181,23.09,2.058,28.6.077a1.041,1.041,0,0,0,.584-1.412" transform="translate(-328.165 -2327.737)" fill="#ffd9a4"></path><path id="Path_37486" data-name="Path 37486" d="M597.348,2982.213l-1.1-3.567a.53.53,0,0,0-1,.008l-.886,3.371Z" transform="translate(-411.684 -2349.326)" fill="#6A2186"></path><path id="Path_37487" data-name="Path 37487" d="M488.932,2945.1c1.445,1.828,1.926,5.406,0,6.979,3.477-.27,6.6-.784,8.215-2.329l.024-6.343c0-5.831-3.973-9.9-6.227-11.546a4.3,4.3,0,0,1-3.045,5.728,8.982,8.982,0,0,1,6.261,5.349c.036,1.678-2.327,2.066-5.229,2.162" transform="translate(-289.026 -2312.703)" fill="#6A2186"></path><g id="Group_28538" data-name="Group 28538" transform="translate(201.75 626.422)" opacity="0.35"><g id="Group_28537" data-name="Group 28537" transform="translate(0)"><g id="Group_28536" data-name="Group 28536" clip-path="url(#clip-path-4)"><path id="Path_37488" data-name="Path 37488" d="M503.641,2966.246c1.39,1.847,1.416,4.84.449,5.585,1.343-.179,2.411-.5,2.623-1.288-.177-1.552-1.61-3.133-3.072-4.3" transform="translate(-503.641 -2966.246)" fill="#f8a364"></path></g></g></g><g id="Group_28541" data-name="Group 28541" transform="translate(174.714 626.216)" opacity="0.35"><g id="Group_28540" data-name="Group 28540" transform="translate(0)"><g id="Group_28539" data-name="Group 28539" clip-path="url(#clip-path-4)"><path id="Path_37489" data-name="Path 37489" d="M634.733,2965.27c-1.39,1.847-1.416,4.84-.448,5.585-1.343-.179-2.412-.505-2.623-1.287.177-1.552,1.61-3.134,3.072-4.3" transform="translate(-631.661 -2965.27)" fill="#f8a364"></path></g></g></g><g id="Group_28544" data-name="Group 28544" transform="translate(176.073 618.519)" opacity="0.2"><g id="Group_28543" data-name="Group 28543"><g id="Group_28542" data-name="Group 28542" clip-path="url(#clip-path-6)"><path id="Path_37490" data-name="Path 37490" d="M604.633,2930.416c-2.207,1.381-3.668,3.023-3.265,3.667s2.519.048,4.726-1.333,3.669-3.022,3.265-3.667-2.519-.047-4.726,1.333" transform="translate(-601.301 -2928.823)" fill="#fff"></path></g></g></g><g id="Group_28547" data-name="Group 28547" transform="translate(172.866 630.643)" opacity="0.2"><g id="Group_28546" data-name="Group 28546" transform="translate(0)"><g id="Group_28545" data-name="Group 28545" clip-path="url(#clip-path-7)"><path id="Path_37491" data-name="Path 37491" d="M632.362,2986.3a.074.074,0,0,0-.147.005l-.265,4.65a.682.682,0,0,0,.62.679l4.148.523a.081.081,0,0,0,.035-.157l-3.366-1.084a.681.681,0,0,1-.485-.525Z" transform="translate(-631.95 -2986.231)" fill="#fff"></path></g></g></g><g id="Group_28550" data-name="Group 28550" transform="translate(179.474 601.806)" opacity="0.35"><g id="Group_28549" data-name="Group 28549" transform="translate(0)"><g id="Group_28548" data-name="Group 28548" clip-path="url(#clip-path-8)"><path id="Path_37492" data-name="Path 37492" d="M529.5,2855.859c5.743,2.14,15.131,1.721,18.984-.378l.247-5.8-20.064.27Z" transform="translate(-528.662 -2849.684)" fill="#f8a364"></path></g></g></g><path id="Path_37493" data-name="Path 37493" d="M764.833,2666.345l6.064-58.552-27.036-4.135,2.669,62.687a6.419,6.419,0,0,1-1.116,3.616l-3.013,4.419h26.559l-3.013-4.419a6.418,6.418,0,0,1-1.116-3.616" transform="translate(-616.498 -2053.809)" fill="#fbd3a8"></path><path id="Path_37494" data-name="Path 37494" d="M728.194,2927.632v6.343c1.41,3.681,35.882,3.818,36.432,0v-5.866a11.541,11.541,0,0,0-.563-3.593c-6-18.311-31.544-15.464-35.529.307a11.475,11.475,0,0,0-.34,2.81" transform="translate(-607.227 -2296.924)" fill="#6A2186"></path><path id="Path_37495" data-name="Path 37495" d="M743.473,2957.768c4.071-9.107,26.109-9.128,29.845-.062a1.042,1.042,0,0,1-.666,1.4c-7.3,2.181-23.09,2.058-28.6.077a1.041,1.041,0,0,1-.584-1.412" transform="translate(-619.205 -2327.737)" fill="#ffd9a4"></path><path id="Path_37496" data-name="Path 37496" d="M780.087,2982.213l1.1-3.567a.53.53,0,0,1,1,.008l.886,3.371Z" transform="translate(-636.638 -2349.326)" fill="#6A2186"></path><path id="Path_37497" data-name="Path 37497" d="M865.046,2945.1c-1.445,1.828-1.927,5.406,0,6.979-3.477-.27-6.6-.784-8.215-2.329l-.025-6.343c0-5.831,3.974-9.9,6.227-11.546a4.3,4.3,0,0,0,3.045,5.728,8.982,8.982,0,0,0-6.261,5.349c-.036,1.678,2.327,2.066,5.229,2.162" transform="translate(-735.839 -2312.703)" fill="#6A2186"></path><g id="Group_28553" data-name="Group 28553" transform="translate(124.292 626.422)" opacity="0.35"><g id="Group_28552" data-name="Group 28552" transform="translate(0)"><g id="Group_28551" data-name="Group 28551" clip-path="url(#clip-path-4)"><path id="Path_37498" data-name="Path 37498" d="M873.494,2966.246c-1.39,1.847-1.416,4.84-.449,5.585-1.343-.179-2.411-.5-2.623-1.288.177-1.552,1.61-3.133,3.072-4.3" transform="translate(-870.422 -2966.246)" fill="#f8a364"></path></g></g></g><g id="Group_28556" data-name="Group 28556" transform="translate(151.327 626.216)" opacity="0.35"><g id="Group_28555" data-name="Group 28555" transform="translate(0)"><g id="Group_28554" data-name="Group 28554" clip-path="url(#clip-path-4)"><path id="Path_37499" data-name="Path 37499" d="M742.4,2965.27c1.39,1.847,1.416,4.84.449,5.585,1.343-.179,2.411-.505,2.623-1.287-.177-1.552-1.61-3.134-3.072-4.3" transform="translate(-742.402 -2965.27)" fill="#f8a364"></path></g></g></g><g id="Group_28559" data-name="Group 28559" transform="translate(144.916 618.519)" opacity="0.2"><g id="Group_28558" data-name="Group 28558" transform="translate(0)"><g id="Group_28557" data-name="Group 28557" clip-path="url(#clip-path-11)"><path id="Path_37500" data-name="Path 37500" d="M753.628,2930.416c2.206,1.381,3.668,3.023,3.265,3.667s-2.519.048-4.726-1.333-3.668-3.022-3.265-3.667,2.519-.047,4.726,1.333" transform="translate(-748.835 -2928.823)" fill="#fff"></path></g></g></g><g id="Group_28562" data-name="Group 28562" transform="translate(151.389 630.643)" opacity="0.2"><g id="Group_28561" data-name="Group 28561" transform="translate(0)"><g id="Group_28560" data-name="Group 28560" clip-path="url(#clip-path-7)"><path id="Path_37501" data-name="Path 37501" d="M738.1,2986.3a.074.074,0,0,1,.147.005l.265,4.65a.682.682,0,0,1-.62.679l-4.148.523a.081.081,0,0,1-.034-.157l3.366-1.084a.681.681,0,0,0,.485-.525Z" transform="translate(-733.651 -2986.231)" fill="#fff"></path></g></g></g><g id="Group_28565" data-name="Group 28565" transform="translate(129.576 601.806)" opacity="0.35"><g id="Group_28564" data-name="Group 28564" transform="translate(0)"><g id="Group_28563" data-name="Group 28563" clip-path="url(#clip-path-8)"><path id="Path_37502" data-name="Path 37502" d="M784.171,2855.859c-5.743,2.14-15.131,1.721-18.984-.378l-.247-5.8,20.064.27Z" transform="translate(-764.94 -2849.684)" fill="#f8a364"></path></g></g></g><path id="Path_37503" data-name="Path 37503" d="M432.983,2312.077c19.107,13.875,101.548,13.875,113.146,0l-5.349-135.894-102.828-.738Z" transform="translate(-326.385 -1716.027)" fill="#6A2186"></path><path id="Path_37504" data-name="Path 37504" d="M841.508,1012.658,801.676,981.5l-16.435,3.3c-1.527,13.059.655,28.263,4.7,44.541,13.991,28.553,26.706,32.433,26.706,32.433l24.865-.062Z" transform="translate(-696.053 -774.223)" fill="#2d2d2d"></path><path id="Path_37505" data-name="Path 37505" d="M355.909,1012.658,395.741,981.5l16.435,3.3c1.527,13.059-.655,28.263-4.7,44.541-13.991,28.553-26.706,32.433-26.706,32.433l-24.865-.062Z" transform="translate(-176.644 -774.223)" fill="#2d2d2d"></path><path id="Path_37506" data-name="Path 37506" d="M621.1,1414.611c0,4.421,7.621,8,17.021,8s17.022-3.584,17.022-8-7.621-8-17.022-8-17.021,3.583-17.021,8" transform="translate(-475.126 -1109.555)" fill="#aeb5b5"></path><path id="Path_37507" data-name="Path 37507" d="M627.645,1394.1h26.292c-.22,10.673,1.266,17.4,2.833,21.6a4.114,4.114,0,0,1-1.138,4.495c-5.743,5.133-22.9,6.973-29.883-.556a4.111,4.111,0,0,1-.841-4.2c1.531-4.219,2.952-10.883,2.737-21.338" transform="translate(-477.759 -1099.686)" fill="#fbd3a8"></path><g id="Group_28568" data-name="Group 28568" transform="translate(149.951 293.236)" opacity="0.35"><g id="Group_28567" data-name="Group 28567" transform="translate(0)"><g id="Group_28566" data-name="Group 28566" clip-path="url(#clip-path-14)"><path id="Path_37508" data-name="Path 37508" d="M664.855,1388.544l-25.078.168-.42,7.225c3.937,5.8,23.278,5.552,26.209-.271Z" transform="translate(-639.357 -1388.543)" fill="#f8a364"></path></g></g></g><path id="Path_37509" data-name="Path 37509" d="M443.663,1441.059v285.918h53l-3.839-187.451.062-90.1a1.573,1.573,0,0,0-.555-1.113c-6.337-5.6-17.267-8.021-29.869-9.193a1.772,1.772,0,0,1-1.435-1l-2.217-4.618a.5.5,0,0,0-.9.009c-3.57,7.53-14.252,7.546-14.252,7.546" transform="translate(-279.177 -1130.552)" fill="#6A2186"></path><path id="Path_37510" data-name="Path 37510" d="M352.472,1136.279c11.329,0,18.552-15.08,15.036-24.813a9.059,9.059,0,0,0-4.831-5.343c-4.1-1.758-7.795.407-10.2,2.021Z" transform="translate(-131.657 -872.012)" fill="#fbd3a8"></path><path id="Path_37511" data-name="Path 37511" d="M376.392,1138.463c15.36-5.463,12.769,17.237.144,17.792" transform="translate(-155.283 -897.37)" fill="#fbbd89"></path><path id="Path_37512" data-name="Path 37512" d="M376.454,1138.193a16.9,16.9,0,0,1,4.174-.936,8.921,8.921,0,0,1,2.115.073,5.812,5.812,0,0,1,1.972.686,4.667,4.667,0,0,1,1.513,1.437,5.977,5.977,0,0,1,.826,1.967,9.928,9.928,0,0,1,.252,2.158,17.376,17.376,0,0,1-.131,2.188,12.588,12.588,0,0,0,.109-4.395,6.272,6.272,0,0,0-.757-2.106,5.083,5.083,0,0,0-1.562-1.647,6.343,6.343,0,0,0-2.111-.865,9.557,9.557,0,0,0-2.259-.2,17.686,17.686,0,0,0-4.426.745Z" transform="translate(-155.69 -896.53)" fill="#603813"></path><path id="Path_37513" data-name="Path 37513" d="M989.549,1136.279c-11.329,0-18.552-15.08-15.035-24.813a9.058,9.058,0,0,1,4.832-5.343c4.1-1.758,7.795.407,10.2,2.021Z" transform="translate(-883.979 -872.012)" fill="#fbd3a8"></path><path id="Path_37514" data-name="Path 37514" d="M985.591,1138.463c-15.36-5.463-12.769,17.237-.144,17.792" transform="translate(-880.314 -897.37)" fill="#fbbd89"></path><path id="Path_37515" data-name="Path 37515" d="M983.285,1137.3a17.7,17.7,0,0,0-4.426-.745,9.565,9.565,0,0,0-2.259.2,6.34,6.34,0,0,0-2.111.865,5.088,5.088,0,0,0-1.562,1.647,6.279,6.279,0,0,0-.757,2.106,12.584,12.584,0,0,0,.108,4.394,17.336,17.336,0,0,1-.131-2.187,9.937,9.937,0,0,1,.252-2.158,5.981,5.981,0,0,1,.826-1.967,4.665,4.665,0,0,1,1.513-1.437,5.811,5.811,0,0,1,1.972-.686,8.934,8.934,0,0,1,2.115-.073,16.9,16.9,0,0,1,4.174.936Z" transform="translate(-877.378 -896.529)" fill="#603813"></path><path id="Path_37516" data-name="Path 37516" d="M407.074,852.889H522.549C538.217,924.264,526.96,971.2,465.6,972.673H464.02c-61.357-1.471-72.614-48.409-56.946-119.784" transform="translate(-302.345 -672.773)" fill="#fbd3a8"></path><path id="Path_37517" data-name="Path 37517" d="M568.256,1101.763c0,4.532,2.3,8.206,5.141,8.206s5.141-3.674,5.141-8.206-2.3-8.206-5.141-8.206-5.141,3.674-5.141,8.206" transform="translate(-387.362 -862.616)" fill="#2d2d2d"></path><path id="Path_37518" data-name="Path 37518" d="M584.2,1104.188a2.56,2.56,0,1,0,2.5-3.1,2.848,2.848,0,0,0-2.5,3.1" transform="translate(-401.4 -868.559)" fill="#fff"></path><path id="Path_37520" data-name="Path 37520" d="M786.711,1101.763c0,4.532,2.3,8.206,5.141,8.206s5.141-3.674,5.141-8.206-2.3-8.206-5.141-8.206-5.141,3.674-5.141,8.206" transform="translate(-651.951 -862.616)" fill="#2d2d2d"></path><path id="Path_37521" data-name="Path 37521" d="M802.659,1104.188a2.56,2.56,0,1,0,2.5-3.1,2.848,2.848,0,0,0-2.5,3.1" transform="translate(-665.991 -868.559)" fill="#fff"></path><path id="Path_37523" data-name="Path 37523" d="M680.212,1216.079a1.544,1.544,0,0,1-.735-.079c-4.464-1.308-5.11,3.7-1.518,4.15,3.428.314,5.231-.844,6.336-2.33a1.355,1.355,0,0,0-.871-2.152,11.3,11.3,0,0,0-3.212.411" transform="translate(-516.067 -958.919)" fill="#f8a364"></path><path id="Path_37524" data-name="Path 37524" d="M793.325,1032.671c4.94.093,6.814-4.649,3.369-7.536a6.957,6.957,0,0,0-5.266-1.275c-5.129.55-8.307,2.366-8.873,5.877a3.839,3.839,0,0,0,1.1,3.459c1.807,1.653,4.613,1.019,7.671-.191a5.15,5.15,0,0,1,2-.334" transform="translate(-652.522 -807.591)" fill="#2d2d2d"></path><path id="Path_37525" data-name="Path 37525" d="M555.2,1032.671c-4.94.093-6.814-4.649-3.369-7.536a6.957,6.957,0,0,1,5.266-1.275c5.129.55,8.307,2.366,8.873,5.877a3.839,3.839,0,0,1-1.1,3.459c-1.806,1.653-4.613,1.019-7.671-.191a5.152,5.152,0,0,0-2-.334" transform="translate(-371.006 -807.591)" fill="#2d2d2d"></path><path id="Path_37526" data-name="Path 37526" d="M400.842,984.615c9.447,10.831,11.75,30.978,10.6,52.6,6.22-19.036,3.808-52.6,3.808-52.6Z" transform="translate(-189.181 -776.681)" fill="#2d2d2d"></path><path id="Path_37527" data-name="Path 37527" d="M953.029,984.615c-9.447,10.831-11.75,30.978-10.6,52.6-6.22-19.036-3.808-52.6-3.808-52.6Z" transform="translate(-839.97 -776.681)" fill="#2d2d2d"></path><g id="Group_28571" data-name="Group 28571" transform="translate(157.63 302.676)" opacity="0.5"><g id="Group_28570" data-name="Group 28570" transform="translate(0)"><g id="Group_28569" data-name="Group 28569" clip-path="url(#clip-path-15)"><path id="Path_37528" data-name="Path 37528" d="M631.394,1439.133c-.662,6.426-7.786,11.208-16.517,11.856v126.772H605.77l1.215-125.676,5.609-1.5v-9.507c6.5-.376,11.72-2.543,14.285-7.6a.5.5,0,0,1,.863.049l2.469,5a1.8,1.8,0,0,0,1.183.61" transform="translate(-605.77 -1433.243)" fill="#aeb5b5"></path></g></g></g><path id="Path_37529" data-name="Path 37529" d="M679.212,1514.2l7.072,2.057v125.362" transform="translate(-518.54 -1194.427)" fill="none" stroke="#aeb5b5" stroke-miterlimit="10" stroke-width="15"></path><path id="Path_37530" data-name="Path 37530" d="M733.822,1441.059v9.507l5.609,1.5v274.908h-58.09l3.318-187.451-.062-90.1a1.574,1.574,0,0,1,.555-1.113c6.337-5.6,17.267-8.021,29.869-9.193a1.773,1.773,0,0,0,1.436-1l2.216-4.618a.5.5,0,0,1,.9.009c3.57,7.53,14.252,7.546,14.252,7.546" transform="translate(-572.137 -1130.552)" fill="#6A2186"></path><g id="Group_28574" data-name="Group 28574" transform="translate(142.886 302.676)" opacity="0.5"><g id="Group_28573" data-name="Group 28573" transform="translate(0)"><g id="Group_28572" data-name="Group 28572" clip-path="url(#clip-path-15)"><path id="Path_37531" data-name="Path 37531" d="M675.586,1439.133c.662,6.426,7.786,11.208,16.517,11.856v126.772h9.107l-1.215-125.676-5.609-1.5v-9.507c-6.5-.376-11.72-2.543-14.285-7.6a.5.5,0,0,0-.863.049l-2.469,5a1.8,1.8,0,0,1-1.183.61" transform="translate(-675.586 -1433.243)" fill="#aeb5b5"></path></g></g></g><path id="Path_37532" data-name="Path 37532" d="M688.122,1553.383a2.068,2.068,0,1,0,2.068-2.068,2.068,2.068,0,0,0-2.068,2.068" transform="translate(-526.396 -1223.703)" fill="#aeb5b5"></path><path id="Path_37533" data-name="Path 37533" d="M688.122,1673.552a2.068,2.068,0,1,0,2.068-2.068,2.068,2.068,0,0,0-2.068,2.068" transform="translate(-526.396 -1318.494)" fill="#aeb5b5"></path><path id="Path_37534" data-name="Path 37534" d="M688.122,1800.313a2.068,2.068,0,1,0,2.068-2.068,2.068,2.068,0,0,0-2.068,2.068" transform="translate(-526.396 -1418.486)" fill="#aeb5b5"></path><path id="Path_37535" data-name="Path 37535" d="M688.122,1920.482a2.068,2.068,0,1,0,2.068-2.068,2.068,2.068,0,0,0-2.068,2.068" transform="translate(-526.396 -1513.277)" fill="#aeb5b5"></path><path id="Path_37536" data-name="Path 37536" d="M688.122,2040.649a2.068,2.068,0,1,0,2.068-2.068,2.068,2.068,0,0,0-2.068,2.068" transform="translate(-526.396 -1608.067)" fill="#aeb5b5"></path><path id="Path_37537" data-name="Path 37537" d="M584.2,1253.656v-5.263c11.68-.537,18.845,1.036,22.5,4.855a12.028,12.028,0,0,1,3.261,8.327v6.114h-5.638c2.109-4.954,2.72-9.123,0-11.9a6.727,6.727,0,0,0-4.736-1.967Z" transform="translate(-422.154 -984.673)" fill="#2d2d2d"></path><path id="Path_37538" data-name="Path 37538" d="M728.3,1253.656v-5.263c-11.68-.537-18.845,1.036-22.5,4.855a12.026,12.026,0,0,0-3.261,8.327v6.114h5.638c-2.109-4.954-2.72-9.123,0-11.9a6.727,6.727,0,0,1,4.736-1.967Z" transform="translate(-565.486 -984.673)" fill="#2d2d2d"></path></g></g><g id="Group_28584" data-name="Group 28584" transform="translate(66.001 7.524)"><g id="Group_28583" data-name="Group 28583" clip-path="url(#clip-path-17)"><rect id="Rectangle_9811" data-name="Rectangle 9811" width="311.182" height="297.653" transform="translate(-83.637 -41.076)" fill="#fff"></rect><g id="Group_28579" data-name="Group 28579" transform="translate(-80.363 -41.076)" opacity="0.6"><g id="Group_28578" data-name="Group 28578"><g id="Group_28577" data-name="Group 28577" clip-path="url(#clip-path-18)"><rect id="Rectangle_9812" data-name="Rectangle 9812" width="5.461" height="297.653" transform="translate(253.146 0)" fill="#6A2186"></rect><rect id="Rectangle_9813" data-name="Rectangle 9813" width="5.461" height="297.653" transform="translate(264.652 0)" fill="#6A2186"></rect><rect id="Rectangle_9814" data-name="Rectangle 9814" width="5.461" height="297.653" transform="translate(241.639 0)" fill="#6A2186"></rect><rect id="Rectangle_9815" data-name="Rectangle 9815" width="5.461" height="297.653" transform="translate(230.132 0)" fill="#6A2186"></rect><rect id="Rectangle_9816" data-name="Rectangle 9816" width="5.461" height="297.653" transform="translate(218.626 0)" fill="#6A2186"></rect><rect id="Rectangle_9817" data-name="Rectangle 9817" width="5.461" height="297.653" transform="translate(207.119 0)" fill="#6A2186"></rect><rect id="Rectangle_9818" data-name="Rectangle 9818" width="5.461" height="297.653" transform="translate(195.613 0)" fill="#6A2186"></rect><rect id="Rectangle_9819" data-name="Rectangle 9819" width="5.461" height="297.653" transform="translate(138.079 0)" fill="#6A2186"></rect><rect id="Rectangle_9820" data-name="Rectangle 9820" width="5.461" height="297.653" transform="translate(149.586 0)" fill="#6A2186"></rect><rect id="Rectangle_9821" data-name="Rectangle 9821" width="5.461" height="297.653" transform="translate(161.093 0)" fill="#6A2186"></rect><rect id="Rectangle_9822" data-name="Rectangle 9822" width="5.461" height="297.653" transform="translate(172.599 0)" fill="#6A2186"></rect><rect id="Rectangle_9823" data-name="Rectangle 9823" width="5.461" height="297.653" transform="translate(184.106 0)" fill="#6A2186"></rect><rect id="Rectangle_9824" data-name="Rectangle 9824" width="5.461" height="297.653" transform="translate(126.573 0)" fill="#6A2186"></rect><rect id="Rectangle_9825" data-name="Rectangle 9825" width="5.461" height="297.653" transform="translate(115.066 0)" fill="#6A2186"></rect><rect id="Rectangle_9826" data-name="Rectangle 9826" width="5.461" height="297.653" transform="translate(103.56 0)" fill="#6A2186"></rect><rect id="Rectangle_9827" data-name="Rectangle 9827" width="5.461" height="297.653" transform="translate(92.053 0)" fill="#6A2186"></rect><rect id="Rectangle_9828" data-name="Rectangle 9828" width="5.461" height="297.653" transform="translate(80.547 0)" fill="#6A2186"></rect><rect id="Rectangle_9829" data-name="Rectangle 9829" width="5.461" height="297.653" transform="translate(69.04 0)" fill="#6A2186"></rect></g></g></g><g id="Group_28582" data-name="Group 28582" transform="translate(-76.872 -44.567)" opacity="0.8"><g id="Group_28581" data-name="Group 28581"><g id="Group_28580" data-name="Group 28580" clip-path="url(#clip-path-19)"><rect id="Rectangle_9831" data-name="Rectangle 9831" width="297.653" height="5.461" transform="translate(0 253.146)" fill="#6A2186"></rect><rect id="Rectangle_9832" data-name="Rectangle 9832" width="297.653" height="5.461" transform="translate(0 264.652)" fill="#6A2186"></rect><rect id="Rectangle_9833" data-name="Rectangle 9833" width="297.653" height="5.461" transform="translate(0 276.159)" fill="#6A2186"></rect><rect id="Rectangle_9834" data-name="Rectangle 9834" width="297.653" height="5.461" transform="translate(0 287.666)" fill="#6A2186"></rect><rect id="Rectangle_9835" data-name="Rectangle 9835" width="297.653" height="5.461" transform="translate(0 299.172)" fill="#6A2186"></rect><rect id="Rectangle_9836" data-name="Rectangle 9836" width="297.653" height="5.461" transform="translate(0 241.639)" fill="#6A2186"></rect><rect id="Rectangle_9837" data-name="Rectangle 9837" width="297.653" height="5.461" transform="translate(0 230.133)" fill="#6A2186"></rect><rect id="Rectangle_9838" data-name="Rectangle 9838" width="297.653" height="5.461" transform="translate(0 218.626)" fill="#6A2186"></rect><rect id="Rectangle_9839" data-name="Rectangle 9839" width="297.653" height="5.461" transform="translate(0 207.119)" fill="#6A2186"></rect><rect id="Rectangle_9840" data-name="Rectangle 9840" width="297.653" height="5.461" transform="translate(0 195.613)" fill="#6A2186"></rect><rect id="Rectangle_9841" data-name="Rectangle 9841" width="297.653" height="5.461" transform="translate(0 138.079)" fill="#6A2186"></rect><rect id="Rectangle_9842" data-name="Rectangle 9842" width="297.653" height="5.461" transform="translate(0 149.586)" fill="#6A2186"></rect><rect id="Rectangle_9843" data-name="Rectangle 9843" width="297.653" height="5.461" transform="translate(0 161.093)" fill="#6A2186"></rect><rect id="Rectangle_9844" data-name="Rectangle 9844" width="297.653" height="5.461" transform="translate(0 172.599)" fill="#6A2186"></rect><rect id="Rectangle_9845" data-name="Rectangle 9845" width="297.653" height="5.461" transform="translate(0 184.106)" fill="#6A2186"></rect><rect id="Rectangle_9846" data-name="Rectangle 9846" width="297.653" height="5.461" transform="translate(0 126.573)" fill="#6A2186"></rect><rect id="Rectangle_9847" data-name="Rectangle 9847" width="297.653" height="5.461" transform="translate(0 115.066)" fill="#6A2186"></rect><rect id="Rectangle_9848" data-name="Rectangle 9848" width="297.653" height="5.461" transform="translate(0 103.559)" fill="#6A2186"></rect><rect id="Rectangle_9849" data-name="Rectangle 9849" width="297.653" height="5.461" transform="translate(0 92.053)" fill="#6A2186"></rect><rect id="Rectangle_9850" data-name="Rectangle 9850" width="297.653" height="5.461" transform="translate(0 80.547)" fill="#6A2186"></rect><rect id="Rectangle_9851" data-name="Rectangle 9851" width="297.653" height="5.461" transform="translate(0 69.04)" fill="#6A2186"></rect><rect id="Rectangle_9852" data-name="Rectangle 9852" width="297.653" height="5.461" transform="translate(0 57.533)" fill="#6A2186"></rect><rect id="Rectangle_9853" data-name="Rectangle 9853" width="297.653" height="5.461" transform="translate(0 46.026)" fill="#6A2186"></rect><rect id="Rectangle_9854" data-name="Rectangle 9854" width="297.653" height="5.461" transform="translate(0 34.52)" fill="#6A2186"></rect><rect id="Rectangle_9855" data-name="Rectangle 9855" width="297.653" height="5.461" transform="translate(0 23.013)" fill="#6A2186"></rect><rect id="Rectangle_9856" data-name="Rectangle 9856" width="297.653" height="5.461" transform="translate(0 11.507)" fill="#6A2186"></rect><rect id="Rectangle_9857" data-name="Rectangle 9857" width="297.653" height="5.461" transform="translate(0 0)" fill="#6A2186"></rect></g></g></g></g></g><g id="Group_28586" data-name="Group 28586" transform="translate(-17.637 -122.496)"><g id="Group_28585" data-name="Group 28585" clip-path="url(#clip-path-3)"><g class="hendman"><g id="Group_28864" data-name="Group 28864" transform="translate(26.486 437.888)"><path id="Path_38228" data-name="Path 38228" d="M425.474,882.649l-61.039-8.7a14.632,14.632,0,0,0-16.5,12.386l-3.77,26.452a14.633,14.633,0,0,0,12.386,16.5l61.039,8.7a14.632,14.632,0,0,0,16.5-12.386l3.769-26.452A14.632,14.632,0,0,0,425.474,882.649Z" transform="translate(-335.93 -865.873)" fill="#455A64"></path><path id="Path_38229" data-name="Path 38229" d="M417.85,879.676v0a14.7,14.7,0,0,0-10.112-8.833h0a.013.013,0,0,1-.01,0c-.46-.112-.927-.2-1.41-.273l-12.154-1.729.813-5.709a4.835,4.835,0,0,0-4.1-5.464l-3.171-.453-12.762-1.819-2.3-.327a4.837,4.837,0,0,0-5.464,4.1l-.812,5.709-20.98-2.991a14.691,14.691,0,0,0-16.565,12.431l-3.81,26.76a14.685,14.685,0,0,0,12.431,16.561l60.929,8.686a14.325,14.325,0,0,0,3.177.1h.011a14.407,14.407,0,0,0,4.756-1.2,14.672,14.672,0,0,0,8.621-11.335l3.814-26.756A14.521,14.521,0,0,0,417.85,879.676Zm-47.678-20.085a1.807,1.807,0,0,1,1.5-1.524,1.833,1.833,0,0,1,.542-.007l2.711.385,10.044,1.435,5.475.78a1.805,1.805,0,0,1,1.531,2.038l-.812,5.708-21.8-3.109Z" transform="translate(-324.859 -855.013)" fill="#455A64"></path></g></g><g class="hendman2"><path id="Path_38292" data-name="Path 38292" d="M453.117,818.615q.02-.431.054-.886c.112-1.5,2.94-5.272,2.94-5.272l-7.09-3.68-2.807,4.64c-4.24,3.374-4.317,3.434-3.545,9.893.67,5.6-2.994,5.666-2.905,9.665S445,835.009,445,835.009c7.985-3.749,8.646-5.636,8.4-9.438.757,1.075,1.6,1.7,2.325,1.233.635-.412-.632-2.049-1.183-5.841A6.8,6.8,0,0,0,453.117,818.615Z" transform="translate(-366.725 -386.976)" fill="#fbd3a8"></path></g><path id="Path_37540" data-name="Path 37540" d="M340.806,850.837H487.5a3.807,3.807,0,0,0,3.808-3.807v-.672A10.659,10.659,0,0,0,480.652,835.7H347.658A10.659,10.659,0,0,0,337,846.357v.672a3.807,3.807,0,0,0,3.808,3.807" transform="translate(-251.298 -659.213)" fill="#2d2d2d"></path><path id="Path_37541" data-name="Path 37541" d="M633.518,1280.681a104.866,104.866,0,0,0,29.251,0s1.559,14.441-14.492,14.4h-.267c-16.051.042-14.492-14.4-14.492-14.4" transform="translate(-485.408 -1010.222)" fill="#be1717"></path><path id="Path_37542" data-name="Path 37542" d="M633.52,1280.681a104.841,104.841,0,0,0,29.251,0,12.8,12.8,0,0,1,.021,1.81c-2.909,1.127-7.525,2.043-14.646,2.018-7.121.026-11.737-.89-14.646-2.018a12.823,12.823,0,0,1,.021-1.81" transform="translate(-485.409 -1010.222)" fill="#fff"></path><path id="Path_37543" data-name="Path 37543" d="M652.4,1320.068c2.327-1.921,5.69-3.339,10.55-3.418v0l.12,0,.12,0v0c4.86.079,8.223,1.5,10.549,3.418-2.16,1.964-5.469,3.395-10.536,3.382h-.267c-5.067.013-8.376-1.418-10.536-3.382" transform="translate(-500.338 -1038.592)" fill="#ff2929"></path><path id="Path_37544" data-name="Path 37544" d="M646.677,1294.141h.315c.227,0,.449,0,.668-.008l.147,0c.212-.006.422-.014.628-.026l.105-.007c.183-.01.362-.024.539-.038l.13-.011c.194-.017.385-.037.572-.059l.149-.018c.164-.02.325-.042.484-.066l.1-.014c.176-.027.348-.057.518-.088l.173-.032c.163-.032.324-.064.483-.1l.1-.022.053-.012q.181-.042.357-.087l.016,0,.175-.045q.211-.056.417-.117l.172-.052.033-.01q.129-.04.256-.083c.1-.032.192-.064.286-.1s.184-.066.275-.1.159-.061.237-.092l.167-.068q.212-.088.416-.18l.114-.052c.088-.041.176-.083.263-.125l.013-.006c.169-.083.352-.179.533-.28l.039-.022c7.038-3.937,6.259-12.482,6.222-12.844a.35.35,0,0,0-.386-.314l-.055.007a104.505,104.505,0,0,1-29.055,0l-.054-.007a.343.343,0,0,0-.385.308c-.037.367-.817,8.913,6.223,12.85l.036.02c.188.1.367.2.546.286q.131.065.265.126l.112.051q.205.093.418.182l.165.067c.079.031.158.063.239.093s.18.066.271.1.192.067.29.1l.254.082.041.013.164.05c.136.04.275.079.416.117l.184.048c.124.031.242.06.362.088l.054.012.1.022c.157.035.318.068.481.1l.173.032c.17.031.342.061.518.088l.1.014c.159.024.32.045.484.066l.15.019q.282.032.572.058l.131.011c.177.015.357.028.539.038l.106.007h0c.206.011.415.02.628.026l.146,0c.2,0,.409.008.618.008m.186-.688h-.138c-.22,0-.436,0-.65-.008l-.142,0q-.31-.009-.611-.025h0l-.1-.006c-.176-.01-.35-.023-.521-.037l-.127-.01q-.281-.025-.553-.057l-.145-.018q-.237-.03-.468-.063l-.1-.014c-.169-.026-.335-.055-.5-.085l-.167-.031c-.156-.031-.311-.061-.462-.1l-.144-.033q-.173-.04-.341-.083l-.183-.047c-.134-.036-.267-.073-.4-.112l-.155-.048-.042-.013q-.122-.038-.242-.077c-.093-.031-.185-.062-.276-.095s-.174-.062-.259-.094l-.227-.088-.157-.064q-.2-.083-.4-.172l-.106-.048q-.127-.059-.25-.119c-.171-.084-.339-.172-.516-.271l-.035-.02c-5.963-3.335-5.984-10.2-5.9-11.834a104.646,104.646,0,0,0,28.618,0c.085,1.653.054,8.5-5.9,11.833l-.027.015c-.182.1-.354.191-.522.274-.085.042-.168.082-.252.12l-.108.05q-.194.088-.4.171l-.159.065c-.074.03-.149.059-.226.088l-.262.1c-.09.032-.181.063-.272.093l-.244.078-.033.01-.162.05q-.2.058-.4.112l-.166.043-.016,0q-.17.043-.342.083l-.057.013-.085.02c-.152.034-.307.065-.464.1l-.167.031c-.164.03-.33.059-.5.085l-.1.014q-.231.034-.468.063l-.144.018c-.182.021-.366.04-.554.057l-.126.01c-.172.014-.346.027-.522.037l-.1.006q-.3.016-.611.025l-.143,0c-.214.005-.429.009-.65.008Z" transform="translate(-484.123 -1008.941)" fill="#f8a364"></path><path id="Path_37545" data-name="Path 37545" d="M440.471,1285.473c7.357,11.834,20.692,15.684,30.354,11.1l5.639.449c3.368,4.558,13.752,6.794,18.055,5.442.285-2.36-.388-1.668-2.065-2.637h7.494c-1.678.969-2.351.276-2.065,2.637,4.3,1.352,14.687-.884,18.055-5.442l5.638-.449c9.662,4.587,23,.736,30.354-11.1-7.194,14.759-22.707,27.375-55.345,28.672v.031c-.129,0-.638,0-.767,0v-.031c-32.638-1.3-48.151-13.913-55.345-28.672" transform="translate(-333.767 -1014.003)" fill="#2d2d2d"></path><g class="hendman"><path id="Path_37546" data-name="Path 37546" d="M882.159,1548.883l17.376-40.381c10.654-21,25.987-3.117,18.282,9.854l-17.639,40.083c-9.639,16.226-25.617,7.642-18.019-9.556" transform="translate(-794.599 -1182.31)" fill="#6A2186" fill-rule="evenodd"></path><path id="Path_37547" data-name="Path 37547" d="M45.2,50.948,13.883.9A1.959,1.959,0,0,0,11.695.079C8.514,1.023,2.469,5,.435,7.529a1.976,1.976,0,0,0-.1,2.341L27.327,61.5C33.657,70.7,50.363,59.7,45.2,50.948" transform="matrix(-0.719, -0.695, 0.695, -0.719, 83.425, 437.888)" fill="#6A2186"></path></g><path id="Path_37548" data-name="Path 37548" d="M368.534,1563.821l-13.617-43.677c-1.873-11.736,1.186-17.194,10.687-14.457,6.961,6.381,16.522,29.147,22.619,58.134,0,6.124-16.915,10.337-19.688,0" transform="translate(-151.882 -1187.163)" fill="#6A2186"></path><path id="Path_37549" data-name="Path 37549" d="M202.769,1357.691s-1.046-7.672-1.5-10.775,4.551-9.374,5.826-9.536a8.053,8.053,0,0,1,2.855.333s7.765-15.039,9.392-16.163a1.865,1.865,0,0,1,2.7.59s-1.8,3.74-5.419,12.355c0,0,5.045,2.141,5.587,3.179a6.35,6.35,0,0,0,2.285,2.807c1.2.733,2.195,1.637,1.522,4.826-1.642,7.788-11.8,16.769-11.8,16.769Z" transform="translate(42.454 -1042.161)" fill="#fbd3a8"></path><path id="Path_37550" data-name="Path 37550" d="M222.419,1384.206c-1.6-.271-4.188,2.618-5.025,3.989l-1.647-.771s2,1.927,2.527,2.6,2.1,1.756,1.214,3.212-3.841.124-5.259-1.213c0,0,2.223,4.064,1.7,7.039a17.631,17.631,0,0,1,4.931,1.365c1.456.89,4.136-.414,4.692-1.133,0,0,1.827-.3,1.9-.6s1.836-3,1.836-3-1.77,1.154-2.231.755c0,0-1.076.99-1.975-.619s3.341-4.312,3.341-4.312a3.87,3.87,0,0,0-2.628,1.219,15.181,15.181,0,0,0-1.565,1.984s-2.308-1.411-2.13-2.478,2.472-3.666,3.871-4.223a4.931,4.931,0,0,0-3.145,1.49c-1.2,1.385-3.889-.374-3.713-.856a5.062,5.062,0,0,1,1.656-2.518,6.824,6.824,0,0,0,1.651-1.932" transform="translate(36.654 -1091.871)" fill="#f8a364"></path><path id="Path_37551" data-name="Path 37551" d="M266.016,1547.343l22.613-59.014a2.1,2.1,0,0,0-.708-2.4c-2.856-2.111-10.147-4.72-13.623-4.826a2.114,2.114,0,0,0-2.065,1.425l-26.749,56.333c-3.792,11.343,16.378,18.535,20.531,8.483" transform="translate(-29.316 -1168.318)" fill="#6A2186"></path></g></g></g></g></g></svg> 