<?xml version="1.0" encoding="UTF-8"?> <svg xmlns="http://www.w3.org/2000/svg" xmlns:xlink="http://www.w3.org/1999/xlink" width="970.127" height="826.597" viewBox="0 0 970.127 826.597"><style> .man { animation-name: man1 ; animation-fill-mode: both; animation-duration: 3s; transform-origin: left; transform-box:fill-box ; animation-iteration-count: infinite; } @keyframes man1 { 0% { transform:translateX(0px) ; } 50% { transform:translateX(-50px) ; } 100% { transform:translateX(0px) ; } } .g-1{ animation-delay: .2s; animation-name: tranfX; animation-fill-mode: both; transform-origin: center; transform-box:fill-box ; animation-duration: 2.5s; animation-iteration-count: infinite; } .g-2{ animation-delay: .2s; animation-name: tranfX; animation-fill-mode: both; transform-origin: center; transform-box:fill-box ; animation-duration: 2.5s; animation-iteration-count: infinite; } .g-3{ animation-delay: .4s; animation-name: tranfX; transform-origin: center; transform-box:fill-box ; animation-fill-mode: both; animation-duration: 2.5s; animation-iteration-count: infinite; } .g-4{ animation-delay: .6s; animation-name: tranfX; transform-origin: center; transform-box:fill-box ; animation-fill-mode: both; animation-duration: 2.5s; animation-iteration-count: infinite; } .g-5{ animation-delay: .8s; animation-name: tranfX; transform-origin: center; transform-box:fill-box ; animation-fill-mode: both; animation-duration: 2.5s; animation-iteration-count: infinite; } .g-6{ animation-delay: 1s; animation-name: tranfX; transform-origin: center; transform-box:fill-box ; animation-fill-mode: both; animation-duration: 2.5s; animation-iteration-count: infinite; } .g-7{ animation-delay: 1.2s; animation-name: tranfX; transform-origin: center; transform-box:fill-box ; animation-fill-mode: both; animation-duration: 2.5s; animation-iteration-count: infinite; } .g-8{ animation-delay: 1.4s; animation-name: tranfX; transform-origin: center; transform-box:fill-box ; animation-fill-mode: both; animation-duration: 2.5s; animation-iteration-count: infinite; } .g-9{ animation-delay: 1.6s; animation-name: tranfX; transform-origin: center; transform-box:fill-box ; animation-fill-mode: both; animation-duration: 2.5s; animation-iteration-count: infinite; } .g-10{ animation-delay: 1.8s; animation-name: tranfX; transform-origin: center; transform-box:fill-box ; animation-fill-mode: both; animation-duration: 2.5s; animation-iteration-count: infinite; } .g-11{ animation-delay: 2s; animation-name: tranfX; transform-origin: center; transform-box:fill-box ; animation-fill-mode: both; animation-duration: 2.5s; animation-iteration-count: infinite; } .g-12{ animation-delay: 2.2s; animation-name: tranfX; transform-origin: center; transform-box:fill-box ; animation-fill-mode: both; animation-duration: 2.5s; animation-iteration-count: infinite; } @keyframes tranfX { 0% { opacity:1; } 50% { opacity:.4; } 100% { opacity:1; } } .rota1 { animation-delay: .0s; animation-name: rota1; transform-origin: center; transform-box:fill-box ; animation-fill-mode: both; animation-duration: 2.5s; animation-iteration-count: infinite; animation-timing-function: linear; } @keyframes rota1 { from { transform: rotate(0deg); } to { transform: rotate(360deg); } } </style><defs><linearGradient id="linear-gradient" x1="0.5" x2="0.5" y2="1" gradientUnits="objectBoundingBox"><stop offset="0" stop-color="#6A2186" stop-opacity="0.878"></stop><stop offset="1" stop-color="#d13c44" stop-opacity="0.922"></stop></linearGradient><clipPath id="clip-path"><rect id="Rectangle_10314" data-name="Rectangle 10314" width="368.202" height="814.172" transform="translate(0 0)" fill="#6A2186"></rect></clipPath><clipPath id="clip-path-2"><rect id="Rectangle_10264" data-name="Rectangle 10264" width="474.718" height="1001.043" fill="none"></rect></clipPath><clipPath id="clip-path-3"><rect id="Rectangle_10251" data-name="Rectangle 10251" width="4.686" height="8.521" fill="none"></rect></clipPath><clipPath id="clip-path-4"><rect id="Rectangle_10252" data-name="Rectangle 10252" width="4.686" height="8.52" fill="none"></rect></clipPath><clipPath id="clip-path-5"><rect id="Rectangle_10253" data-name="Rectangle 10253" width="12.394" height="8.42" fill="none"></rect></clipPath><clipPath id="clip-path-6"><rect id="Rectangle_10254" data-name="Rectangle 10254" width="7.412" height="9.034" fill="none"></rect></clipPath><clipPath id="clip-path-7"><rect id="Rectangle_10255" data-name="Rectangle 10255" width="30.608" height="11.578" fill="none"></rect></clipPath><clipPath id="clip-path-13"><rect id="Rectangle_10261" data-name="Rectangle 10261" width="39.983" height="17.722" fill="none"></rect></clipPath><clipPath id="clip-path-14"><rect id="Rectangle_10262" data-name="Rectangle 10262" width="39.09" height="220.466" fill="none"></rect></clipPath><clipPath id="clip-path-16"><path id="Path_38566" data-name="Path 38566" d="M442.351,615.673C330.01,626.726,296.784,733.791,349.2,945.586c4.293-13.021,9.755-30.766,18.523-41.567-10.171-77.828-14.664-144.824,10.766-174.223,21.85,8.23,113.907,8.23,135.756,0,25.429,29.4,20.852,97.043,10.681,174.871,7.866,10.645,13.794,27.9,18.087,40.918,52.42-211.8,19.713-318.859-92.627-329.913Z" transform="translate(-324.951 -615.673)" fill="none"></path></clipPath><clipPath id="clip-path-17"><rect id="Rectangle_10284" data-name="Rectangle 10284" width="464.727" height="454.078" fill="none"></rect></clipPath><clipPath id="clip-path-18"><rect id="Rectangle_10312" data-name="Rectangle 10312" width="454.077" height="464.726" fill="none"></rect></clipPath></defs><g id="من_نحن_-_وسائل_الدفع" data-name="من نحن - وسائل الدفع" transform="translate(-20.908 -49.948)"><g id="Group_28866" data-name="Group 28866" transform="translate(44.521 58.867)"><g class="man"><path id="Path_38381" data-name="Path 38381" d="M405.01,121.548a10.841,10.841,0,0,1-10.781,10.8H163.468a10.778,10.778,0,0,1-7.607-18.416,10.667,10.667,0,0,1,7.607-3.174h10.907a28.13,28.13,0,0,1,45.782-8.716,39.074,39.074,0,0,1,45.021-17.594,44.664,44.664,0,0,1,82.5,9.015,28.133,28.133,0,0,1,39.6,17.295h6.949A10.821,10.821,0,0,1,405.01,121.548Z" transform="translate(99.787 -60.715)" fill="#FFD100"></path></g><path id="Path_38382" data-name="Path 38382" d="M500.4,135.036a7.969,7.969,0,0,1-7.928,7.938h-169.7a7.924,7.924,0,0,1-5.6-13.541,7.843,7.843,0,0,1,5.6-2.336h8.02a20.686,20.686,0,0,1,33.668-6.409,28.744,28.744,0,0,1,33.109-12.939,32.846,32.846,0,0,1,60.669,6.631A20.688,20.688,0,0,1,487.359,127.1h5.11A7.958,7.958,0,0,1,500.4,135.036Z" transform="translate(277.354 -28.317)" fill="#ffeeea"></path><g class="rota1"><path id="Path_38383" data-name="Path 38383" d="M479.741,273.619a32.194,32.194,0,0,0-8.286,2.877l-8.808-9.776-10.712,9.652,8.433,9.359a32,32,0,0,0-4.572,8.294l-14.716-.765-.752,14.4,13.576.7a32.25,32.25,0,0,0,3.375,11.714l-9.778,8.812,9.654,10.712,9.357-8.435a32.131,32.131,0,0,0,9.97,5.129l-.637,12.21,14.4.748.614-11.8a32.316,32.316,0,0,0,12.166-4.391l8.431,9.357,10.712-9.652-8.812-9.778a32.031,32.031,0,0,0,3.721-7.94l13.907.723.752-14.4-13.494-.7a32.281,32.281,0,0,0-4.393-12.168l9.359-8.431-9.654-10.712-9.776,8.81a32.3,32.3,0,0,0-9.619-4.222l.7-13.492-14.4-.75Zm16.237,22.91a13.217,13.217,0,1,1-18.665-.97A13.232,13.232,0,0,1,495.978,296.529Z" transform="translate(414.777 157.203)" fill="#FFD100"></path></g><g class="rota1"><path id="Path_38384" data-name="Path 38384" d="M89.182,159.919a32.265,32.265,0,0,0-8.288,2.879l-8.808-9.776-10.712,9.652,8.435,9.357a32.019,32.019,0,0,0-4.574,8.3l-14.716-.765-.75,14.4,13.574.7a32.316,32.316,0,0,0,3.375,11.714l-9.776,8.81L66.595,225.9l9.359-8.433a32.143,32.143,0,0,0,9.968,5.129l-.635,12.21,14.4.748.612-11.8a32.3,32.3,0,0,0,12.166-4.391l8.433,9.357,10.712-9.652L122.8,209.3a32.117,32.117,0,0,0,3.721-7.942l13.907.725.75-14.4-13.494-.7a32.315,32.315,0,0,0-4.391-12.166l9.357-8.431-9.652-10.712-9.776,8.808a32.409,32.409,0,0,0-9.619-4.222l.7-13.49-14.4-.752Zm16.235,22.912a13.215,13.215,0,1,1-18.665-.972A13.23,13.23,0,0,1,105.416,182.831Z" transform="translate(-12.917 32.692)" fill="#FFD100"></path></g><g class="rota1"><path id="Path_38386" data-name="Path 38386" d="M53.719,201.832a17.638,17.638,0,0,0-4.527,1.573l-4.814-5.342-5.854,5.275,4.609,5.112a17.525,17.525,0,0,0-2.5,4.534l-8.043-.417-.411,7.869,7.421.385a17.616,17.616,0,0,0,1.844,6.4L36.1,232.039l5.273,5.854,5.114-4.609a17.638,17.638,0,0,0,5.449,2.8l-.348,6.673,7.869.406.335-6.444a17.66,17.66,0,0,0,6.65-2.4l4.607,5.114,5.854-5.275-4.814-5.342a17.54,17.54,0,0,0,2.032-4.341l7.6.4L82.134,217l-7.375-.383a17.687,17.687,0,0,0-2.4-6.65l5.114-4.607L72.2,199.508l-5.342,4.814a17.656,17.656,0,0,0-5.257-2.307l.385-7.373-7.871-.411Zm8.873,12.522a7.222,7.222,0,1,1-10.2-.532A7.228,7.228,0,0,1,62.591,214.354Z" transform="translate(-32.179 85.498)" fill="#FFD100"></path></g></g><ellipse id="Ellipse_489" data-name="Ellipse 489" cx="459.622" cy="34.07" rx="459.622" ry="34.07" transform="translate(20.908 808.406)" fill="#FFD100" opacity="0.57"></ellipse><g id="Group_28907" data-name="Group 28907" transform="translate(147.26 133.198)"><g id="Group_28885" data-name="Group 28885" transform="translate(704.787 110.17)"><g id="Group_28867" data-name="Group 28867" transform="translate(84.698 120.628)"><path id="Path_38387" data-name="Path 38387" d="M459.47,189.65a12.4,12.4,0,1,1-12.4,12.4A12.416,12.416,0,0,1,459.47,189.65Zm0,20.915a8.512,8.512,0,1,0-8.512-8.512A8.521,8.521,0,0,0,459.47,210.565Z" transform="translate(-447.067 -189.65)" fill="url(#linear-gradient)"></path></g><g id="Group_28869" data-name="Group 28869" transform="translate(7.063 49.412)"><g id="Group_28868" data-name="Group 28868"><path id="Path_38388" data-name="Path 38388" d="M433.392,172.364a12.4,12.4,0,1,1-12.4,12.4A12.416,12.416,0,0,1,433.392,172.364Zm0,20.913a8.511,8.511,0,1,0-8.512-8.51A8.519,8.519,0,0,0,433.392,193.277Z" transform="translate(-420.989 -172.364)" fill="#6A2186"></path></g></g><g id="Group_28876" data-name="Group 28876"><g id="Group_28872" data-name="Group 28872" transform="translate(12.042)"><g id="Group_28870" data-name="Group 28870" transform="translate(0 15.013)"><path id="Path_38389" data-name="Path 38389" d="M425.312,155.945a1.945,1.945,0,0,1,1.944,1.946v8.579a1.945,1.945,0,0,1-3.891,0v-8.579A1.947,1.947,0,0,1,425.312,155.945Z" transform="translate(-423.366 -155.945)" fill="#61b3ff"></path></g><g id="Group_28871" data-name="Group 28871"><path id="Path_38390" data-name="Path 38390" d="M425.312,148.779a1.944,1.944,0,0,1,1.944,1.944V159.3a1.945,1.945,0,1,1-3.891,0v-8.579A1.946,1.946,0,0,1,425.312,148.779Z" transform="translate(-423.366 -148.779)" fill="#61b3ff"></path></g></g><g id="Group_28875" data-name="Group 28875" transform="translate(0 11.795)"><g id="Group_28873" data-name="Group 28873"><path id="Path_38391" data-name="Path 38391" d="M419.564,154.409h7.706a1.946,1.946,0,0,1,0,3.893h-7.706a1.946,1.946,0,1,1,0-3.893Z" transform="translate(-417.618 -154.409)" fill="#61b3ff"></path></g><g id="Group_28874" data-name="Group 28874" transform="translate(16.379)"><path id="Path_38392" data-name="Path 38392" d="M427.38,154.409h7.708a1.946,1.946,0,0,1,0,3.893H427.38a1.946,1.946,0,0,1,0-3.893Z" transform="translate(-425.436 -154.409)" fill="#61b3ff"></path></g></g></g><g id="Group_28884" data-name="Group 28884" transform="translate(90.183 67.386)"><g id="Group_28883" data-name="Group 28883"><g id="Group_28879" data-name="Group 28879" transform="translate(12.043)"><g id="Group_28877" data-name="Group 28877" transform="translate(0 15.013)"><path id="Path_38393" data-name="Path 38393" d="M457.379,171.4a1.947,1.947,0,0,1,1.946,1.946v8.579a1.946,1.946,0,0,1-3.893,0v-8.579A1.946,1.946,0,0,1,457.379,171.4Z" transform="translate(-455.433 -171.403)" fill="url(#linear-gradient)"></path></g><g id="Group_28878" data-name="Group 28878"><path id="Path_38394" data-name="Path 38394" d="M457.379,164.237a1.947,1.947,0,0,1,1.946,1.946v8.577a1.946,1.946,0,1,1-3.893,0v-8.577A1.946,1.946,0,0,1,457.379,164.237Z" transform="translate(-455.433 -164.237)" fill="url(#linear-gradient)"></path></g></g><g id="Group_28882" data-name="Group 28882" transform="translate(0 11.797)"><g id="Group_28880" data-name="Group 28880"><path id="Path_38395" data-name="Path 38395" d="M451.631,169.868h7.708a1.945,1.945,0,0,1,0,3.891h-7.708a1.945,1.945,0,1,1,0-3.891Z" transform="translate(-449.685 -169.868)" fill="url(#linear-gradient)"></path></g><g id="Group_28881" data-name="Group 28881" transform="translate(16.379)"><path id="Path_38396" data-name="Path 38396" d="M459.447,169.868h7.708a1.945,1.945,0,0,1,0,3.891h-7.708a1.945,1.945,0,0,1,0-3.891Z" transform="translate(-457.503 -169.868)" fill="url(#linear-gradient)"></path></g></g></g></g></g><g id="Group_28906" data-name="Group 28906"><g id="Group_28887" data-name="Group 28887" transform="translate(28.944 0.415)"><g id="Group_28886" data-name="Group 28886"><path id="Path_38397" data-name="Path 38397" d="M107.435,121.2a12.4,12.4,0,1,1,12.4-12.4A12.415,12.415,0,0,1,107.435,121.2Zm0-3.891a8.511,8.511,0,1,0-8.512-8.51A8.519,8.519,0,0,0,107.435,117.305Z" transform="translate(-95.032 -96.392)" fill="#FFD100"></path></g></g><g id="Group_28889" data-name="Group 28889" transform="translate(67.208 37.085)"><g id="Group_28888" data-name="Group 28888"><path id="Path_38398" data-name="Path 38398" d="M125.7,138.7a12.4,12.4,0,1,1,12.4-12.4A12.418,12.418,0,0,1,125.7,138.7Zm0-3.891a8.511,8.511,0,1,0-8.512-8.512A8.521,8.521,0,0,0,125.7,134.808Z" transform="translate(-113.296 -113.895)" fill="url(#linear-gradient)"></path></g></g><g id="Group_28896" data-name="Group 28896" transform="translate(106.143)"><g id="Group_28892" data-name="Group 28892" transform="translate(0 12.043)"><g id="Group_28890" data-name="Group 28890"><path id="Path_38399" data-name="Path 38399" d="M144.352,103.888a1.946,1.946,0,0,0-1.946-1.946h-8.579a1.946,1.946,0,1,0,0,3.893h8.579A1.947,1.947,0,0,0,144.352,103.888Z" transform="translate(-131.88 -101.942)" fill="#FFD100"></path></g><g id="Group_28891" data-name="Group 28891" transform="translate(15.015)"><path id="Path_38400" data-name="Path 38400" d="M151.517,103.888a1.947,1.947,0,0,0-1.946-1.946h-8.579a1.946,1.946,0,0,0,0,3.893h8.579A1.947,1.947,0,0,0,151.517,103.888Z" transform="translate(-139.047 -101.942)" fill="#FFD100"></path></g></g><g id="Group_28895" data-name="Group 28895" transform="translate(11.797)"><g id="Group_28893" data-name="Group 28893" transform="translate(0 16.379)"><path id="Path_38401" data-name="Path 38401" d="M141.4,113.664v-7.708a1.945,1.945,0,0,0-3.891,0v7.708a1.945,1.945,0,0,0,3.891,0Z" transform="translate(-137.511 -104.012)" fill="#FFD100"></path></g><g id="Group_28894" data-name="Group 28894"><path id="Path_38402" data-name="Path 38402" d="M141.4,105.846V98.14a1.945,1.945,0,1,0-3.891,0v7.706a1.945,1.945,0,1,0,3.891,0Z" transform="translate(-137.511 -96.194)" fill="#FFD100"></path></g></g></g><g id="Group_28905" data-name="Group 28905" transform="translate(0 45.067)"><g id="Group_28904" data-name="Group 28904"><g id="Group_28900" data-name="Group 28900" transform="translate(0 12.043)"><g id="Group_28897" data-name="Group 28897"><path id="Path_38403" data-name="Path 38403" d="M93.689,125.4a1.947,1.947,0,0,0-1.946-1.946H83.163a1.945,1.945,0,1,0,0,3.891h8.579A1.945,1.945,0,0,0,93.689,125.4Z" transform="translate(-81.217 -123.453)" fill="url(#linear-gradient)"></path></g><g id="Group_28899" data-name="Group 28899" transform="translate(15.015)"><g id="Group_28898" data-name="Group 28898"><path id="Path_38404" data-name="Path 38404" d="M100.854,125.4a1.947,1.947,0,0,0-1.946-1.946H90.328a1.945,1.945,0,0,0,0,3.891h8.579A1.945,1.945,0,0,0,100.854,125.4Z" transform="translate(-88.384 -123.453)" fill="url(#linear-gradient)"></path></g></g></g><g id="Group_28903" data-name="Group 28903" transform="translate(11.797)"><g id="Group_28901" data-name="Group 28901" transform="translate(0 16.379)"><path id="Path_38405" data-name="Path 38405" d="M90.739,135.175v-7.708a1.945,1.945,0,0,0-3.891,0v7.708a1.945,1.945,0,0,0,3.891,0Z" transform="translate(-86.848 -125.523)" fill="url(#linear-gradient)"></path></g><g id="Group_28902" data-name="Group 28902"><path id="Path_38406" data-name="Path 38406" d="M90.739,127.357v-7.706a1.945,1.945,0,1,0-3.891,0v7.706a1.945,1.945,0,1,0,3.891,0Z" transform="translate(-86.848 -117.705)" fill="url(#linear-gradient)"></path></g></g></g></g></g></g><g id="Group_28929" data-name="Group 28929" transform="translate(59.922 128.657)"><g id="Group_28910" data-name="Group 28910" transform="translate(487.811 484.394)"><g id="Group_28909" data-name="Group 28909" transform="translate(0 23.78)"><g id="Group_28908" data-name="Group 28908"><path id="Path_38407" data-name="Path 38407" d="M277.815,497.9c35.365-27.372,70.692-58.055,91.7-81.126,27.439-30.142,42.031-56.207,43.37-77.47a2.557,2.557,0,1,0-5.1-.321c-2.342,37.169-49.14,91.306-135.411,156.691Z" transform="translate(-272.366 -336.583)" fill="#6A2186"></path></g></g><path id="Path_38408" data-name="Path 38408" d="M329.341,369.372s14.211,15.969,41.309-10.115C370.65,359.257,341.964,340.982,329.341,369.372Z" transform="translate(-209.974 -294.312)" fill="#FFD100"></path><path id="Path_38409" data-name="Path 38409" d="M330.684,389.675s16.736-13.3-7.8-41.809C322.884,347.866,303.042,375.492,330.684,389.675Z" transform="translate(-224.594 -300.446)" fill="#FFD100"></path><path id="Path_38410" data-name="Path 38410" d="M340.847,367.249s20.211-6.96,6.585-42.017C347.431,325.232,319.514,344.662,340.847,367.249Z" transform="translate(-206.168 -325.232)" fill="#FFD100"></path><path id="Path_38411" data-name="Path 38411" d="M310.676,386.494s7.974,19.834,42.3,4.454C352.974,390.948,332.159,364.049,310.676,386.494Z" transform="translate(-230.413 -267.933)" fill="#FFD100"></path><path id="Path_38412" data-name="Path 38412" d="M308.995,409.964s18.782-10.207-.453-42.528C308.542,367.436,284.223,391.213,308.995,409.964Z" transform="translate(-244.441 -279.015)" fill="#FFD100"></path><path id="Path_38413" data-name="Path 38413" d="M293.715,401.343s7.6,19.981,42.205,5.256C335.92,406.6,315.621,379.309,293.715,401.343Z" transform="translate(-248.987 -251.295)" fill="#FFD100"></path></g><g id="Group_28912" data-name="Group 28912" transform="translate(34.555 218.038)"><g id="Group_28911" data-name="Group 28911" transform="translate(29.055 23.546)"><path id="Path_38414" data-name="Path 38414" d="M152.508,403.268c-25.443-36.777-49.848-76.7-62.9-105.039-17.05-37.022-23.086-66.278-17.936-86.952a2.557,2.557,0,1,1,4.963,1.236c-9,36.14,19.256,101.886,81.74,190.279Z" transform="translate(-69.891 -209.337)" fill="#6A2186"></path></g><path id="Path_38415" data-name="Path 38415" d="M92.345,247.57S73.974,258.5,56.023,225.448C56.023,225.448,88.889,216.695,92.345,247.57Z" transform="translate(-56.023 -169.402)" fill="#FFD100"></path><path id="Path_38416" data-name="Path 38416" d="M78.5,263.37s-11.934-17.735,20.069-37.5C98.564,225.872,109.132,258.2,78.5,263.37Z" transform="translate(-33.799 -167.683)" fill="#FFD100"></path><path id="Path_38417" data-name="Path 38417" d="M74.312,240.142S57.147,227.4,80.729,198.1C80.729,198.1,101.47,225.053,74.312,240.142Z" transform="translate(-42.601 -198.098)" fill="#FFD100"></path><path id="Path_38418" data-name="Path 38418" d="M106.657,268.717s-13.593,16.5-41.665-8.531C64.992,260.186,92.959,240.832,106.657,268.717Z" transform="translate(-46.201 -137.268)" fill="#FFD100"></path><path id="Path_38419" data-name="Path 38419" d="M92.283,289.863s-14.823-15.405,13.281-40.406C105.563,249.457,121.562,279.471,92.283,289.863Z" transform="translate(-20.593 -141.856)" fill="#FFD100"></path><path id="Path_38420" data-name="Path 38420" d="M118.367,287.955s-13.279,16.754-41.822-7.741C76.545,280.214,104.144,260.334,118.367,287.955Z" transform="translate(-33.55 -115.754)" fill="#FFD100"></path></g><g id="Group_28917" data-name="Group 28917" transform="translate(419.292)"><g id="Group_28914" data-name="Group 28914" transform="translate(26.923 66.477)"><path id="Path_38421" data-name="Path 38421" d="M436.016,125.77c-32.643-.75-41.315,29.3-65.291,20.861s-47.229.836-49.538,23.149-2.755,38.872-29.882,40.64-48.952,28.265-33.842,46.414c3.757,4.523,7.836,9.409,11.839,14.194l3.256,3.893c.247.3.495.6.744.893,16.1,19.252,44.248,23.691,65.077,9.688,8.433-5.669,14.728-13.675,15.018-24.961.924-35.342,29.637-13.233,49.576-28.032,22.973-17.044,11.192-41.822,29.57-52.649C458.1,164.8,468.659,126.522,436.016,125.77Z" transform="translate(-252.512 -125.756)" fill="#ffeeea"></path><g id="Group_28913" data-name="Group 28913" transform="translate(16.789 33.83)" opacity="0.43"><path id="Path_38422" data-name="Path 38422" d="M401.938,142.445l-141.412,110.9,3.256,3.893,141.284-110.8a2.536,2.536,0,1,0-3.128-3.993Z" transform="translate(-260.526 -141.904)" fill="#dc80ff"></path></g></g><g id="Group_28916" data-name="Group 28916"><path id="Path_38423" data-name="Path 38423" d="M342.345,97.7c-28.606,15.74-21.018,46.079-45.989,50.822s-40.425,24.437-31.219,44.893,17.136,35-5.437,50.148-28.141,49.023-5.96,57.133c5.521,2.024,11.5,4.2,17.366,6.331,1.6.58,3.2,1.161,4.77,1.731.362.134.727.27,1.09.4,23.595,8.565,50.163-1.728,61.145-24.3,4.446-9.137,5.87-19.22.455-29.128-16.947-31.026,18.986-26.325,28.8-49.136,11.309-26.272-11.32-41.786-.861-60.378C381.041,120.354,370.953,81.956,342.345,97.7Z" transform="translate(-239.662 -94.026)" fill="#FFD100"></path><g id="Group_28915" data-name="Group 28915" transform="translate(31.444 44.491)"><path id="Path_38424" data-name="Path 38424" d="M321.279,116.858,254.67,283.771c1.6.58,3.2,1.161,4.77,1.731l66.548-166.76a2.536,2.536,0,1,0-4.71-1.883Z" transform="translate(-254.67 -115.262)" fill="#6A2186"></path></g></g></g><g id="Group_28922" data-name="Group 28922" transform="translate(0 436.931)"><g id="Group_28919" data-name="Group 28919" transform="translate(67.156)"><path id="Path_38425" data-name="Path 38425" d="M100.1,305.072c30.05,12.774,25.562,43.722,50.885,45.922s42.685,20.232,35.589,41.512-13.515,36.551,10.471,49.345,32.945,45.93,11.7,56.238c-5.288,2.571-11.018,5.342-16.637,8.051l-4.571,2.2c-.35.17-.7.341-1.045.5-22.608,10.9-50.079,3.344-63.286-18-5.345-8.64-7.779-18.529-3.392-28.931,13.729-32.581-21.544-24.276-33.609-45.979-13.9-25,7.046-42.717-5.236-60.158C63.887,331.52,70.047,292.3,100.1,305.072Z" transform="translate(-71.584 -302.577)" fill="#ffeeea"></path><g id="Group_28918" data-name="Group 28918" transform="translate(32.618 42.864)"><path id="Path_38426" data-name="Path 38426" d="M91.937,324.4l83.118,159.337-4.571,2.2L87.441,326.748a2.536,2.536,0,1,1,4.5-2.349Z" transform="translate(-87.152 -323.036)" fill="#6A2186"></path></g></g><g id="Group_28921" data-name="Group 28921" transform="translate(0 75.612)"><path id="Path_38427" data-name="Path 38427" d="M60.986,338.694c32.631,1.184,39.509,31.69,63.942,24.688s47.1,3.631,48.082,26.042.448,38.966,27.423,42.337,47.194,31.112,31.037,48.336c-4.02,4.293-8.38,8.929-12.661,13.469-1.169,1.238-2.334,2.476-3.48,3.694-.264.283-.528.566-.794.844-17.215,18.267-45.574,21.032-65.538,5.82-8.081-6.16-13.892-14.523-13.513-25.807,1.169-35.334-28.8-14.963-47.831-30.917-21.923-18.372-8.695-42.411-26.4-54.307C36.626,376.342,28.355,337.512,60.986,338.694Z" transform="translate(-39.53 -338.667)" fill="#FFD100"></path><g id="Group_28920" data-name="Group 28920" transform="translate(40.464 35.184)"><path id="Path_38428" data-name="Path 38428" d="M63.06,356.1l134.6,119.078c-1.169,1.238-2.334,2.476-3.48,3.694L59.7,359.9a2.536,2.536,0,1,1,3.358-3.8Z" transform="translate(-58.844 -355.461)" fill="#fdc6bc"></path></g></g></g><g id="Group_28928" data-name="Group 28928" transform="translate(701.35 583.208)"><g id="Group_28925" data-name="Group 28925" transform="translate(0 0)"><path id="Path_38429" data-name="Path 38429" d="M476.073,498.968c5.127-23.44,30.532-6.354,48.675-19.819,22.97-17.043,11.19-41.822,29.57-52.649,25.56-15.064,36.117-53.337,3.472-54.089s-41.313,29.3-65.291,20.861-47.229.836-49.538,23.149-2.755,38.872-29.882,40.64c-24.95,1.622-45.417,24.175-36.775,41.908Z" transform="translate(-374.29 -372.396)" fill="#dc80ff"></path><g id="Group_28924" data-name="Group 28924" transform="translate(40.632 33.83)"><g id="Group_28923" data-name="Group 28923"><path id="Path_38430" data-name="Path 38430" d="M401.905,481.285,514.38,393.078a2.537,2.537,0,1,0-3.13-3.993l-117.566,92.2Z" transform="translate(-393.684 -388.544)" fill="#6A2186"></path></g></g></g></g></g><g id="Group_28939" data-name="Group 28939" transform="translate(197.069 226.251)"><rect id="Rectangle_10237" data-name="Rectangle 10237" width="391.848" height="559.391" rx="6.484" transform="translate(0 56.345)" fill="#18184b"></rect><g id="Group_28930" data-name="Group 28930" transform="translate(28.035 8.28)"><rect id="Rectangle_10238" data-name="Rectangle 10238" width="335.777" height="575.022" rx="6.484" fill="#304e7e"></rect></g><path id="Path_38433" data-name="Path 38433" d="M139.074,148.889H388.108a8.28,8.28,0,0,0-8.28-8.28H147.354A8.281,8.281,0,0,0,139.074,148.889Z" transform="translate(-67.668 -140.609)" fill="#18184b"></path><rect id="Rectangle_10239" data-name="Rectangle 10239" width="230.562" height="8.063" rx="1.219" transform="translate(80.642 552.277)" fill="#18184b"></rect><g id="Group_28938" data-name="Group 28938" transform="translate(59.305 56.092)"><g id="Group_28931" data-name="Group 28931" transform="translate(2.998)"><path id="Path_38434" data-name="Path 38434" d="M401.971,178.685V321.2a11.31,11.31,0,0,1-11.311,11.309H146.038A11.291,11.291,0,0,1,134.729,321.2V178.685a11.309,11.309,0,0,1,11.309-11.3H390.66A11.309,11.309,0,0,1,401.971,178.685Z" transform="translate(-134.729 -167.382)" fill="#cae6fe"></path><path id="Path_38435" data-name="Path 38435" d="M374.866,167.382,209.742,332.514H141.974a11.25,11.25,0,0,1-3.534-.561L303,167.382Z" transform="translate(-130.665 -167.382)" fill="#fff" opacity="0.4"></path><path id="Path_38436" data-name="Path 38436" d="M238.388,167.382,134.729,271.034v-23.64l80.012-80.011Z" transform="translate(-134.729 -167.382)" fill="#fff" opacity="0.4"></path><path id="Path_38437" data-name="Path 38437" d="M316.362,196.82v23.64l-79.816,79.817H212.9Z" transform="translate(-49.12 -135.145)" fill="#fff" opacity="0.4"></path></g><g id="Group_28932" data-name="Group 28932" transform="translate(2.466 183.655)"><path id="Path_38438" data-name="Path 38438" d="M198.765,275.7H144.8a10.326,10.326,0,0,1-10.327-10.327h0A10.327,10.327,0,0,1,144.8,255.042h53.963a10.327,10.327,0,0,1,10.327,10.327h0A10.326,10.326,0,0,1,198.765,275.7Z" transform="translate(-134.475 -255.042)" fill="#cae6fe"></path><path id="Path_38439" data-name="Path 38439" d="M244.99,275.7H191.027A10.326,10.326,0,0,1,180.7,265.369h0a10.327,10.327,0,0,1,10.327-10.327H244.99a10.327,10.327,0,0,1,10.327,10.327h0A10.326,10.326,0,0,1,244.99,275.7Z" transform="translate(-83.855 -255.042)" fill="#cae6fe"></path><path id="Path_38440" data-name="Path 38440" d="M291.215,275.7H237.252a10.325,10.325,0,0,1-10.327-10.327h0a10.326,10.326,0,0,1,10.327-10.327h53.963a10.327,10.327,0,0,1,10.327,10.327h0A10.326,10.326,0,0,1,291.215,275.7Z" transform="translate(-33.235 -255.042)" fill="#cae6fe"></path></g><g id="Group_28937" data-name="Group 28937" transform="translate(0 225.789)"><g id="Group_28933" data-name="Group 28933"><g class="g-1"><path id="Path_38441" data-name="Path 38441" d="M203.938,319.129H139.089c-3.2,0-5.791-2.866-5.791-6.4V281.556c0-3.537,2.592-6.4,5.791-6.4h64.849c3.2,0,5.793,2.866,5.793,6.4v31.171C209.731,316.263,207.137,319.129,203.938,319.129Z" transform="translate(-133.298 -275.153)" fill="#cae6fe"></path></g><g class="g-2"><path id="Path_38442" data-name="Path 38442" d="M250.908,319.129H186.059c-3.2,0-5.793-2.866-5.793-6.4V281.556c0-3.537,2.594-6.4,5.793-6.4h64.849c3.2,0,5.791,2.866,5.791,6.4v31.171C256.7,316.263,254.107,319.129,250.908,319.129Z" transform="translate(-81.864 -275.153)" fill="#cae6fe"></path></g><g class="g-3"><path id="Path_38443" data-name="Path 38443" d="M297.875,319.129H233.026c-3.2,0-5.791-2.866-5.791-6.4V281.556c0-3.537,2.592-6.4,5.791-6.4h64.849c3.2,0,5.793,2.866,5.793,6.4v31.171C303.668,316.263,301.074,319.129,297.875,319.129Z" transform="translate(-30.429 -275.153)" fill="#cae6fe"></path></g></g><g id="Group_28934" data-name="Group 28934" transform="translate(0 69.123)"><g class="g-4"><path id="Path_38444" data-name="Path 38444" d="M203.938,352.122H139.089c-3.2,0-5.791-2.866-5.791-6.4V314.549c0-3.536,2.592-6.4,5.791-6.4h64.849c3.2,0,5.793,2.866,5.793,6.4v31.171C209.731,349.256,207.137,352.122,203.938,352.122Z" transform="translate(-133.298 -308.146)" fill="#cae6fe"></path></g><g class="g-5"><path id="Path_38445" data-name="Path 38445" d="M250.908,352.122H186.059c-3.2,0-5.793-2.866-5.793-6.4V314.549c0-3.536,2.594-6.4,5.793-6.4h64.849c3.2,0,5.791,2.866,5.791,6.4v31.171C256.7,349.256,254.107,352.122,250.908,352.122Z" transform="translate(-81.864 -308.146)" fill="#cae6fe"></path></g><g class="g-6"><path id="Path_38446" data-name="Path 38446" d="M297.875,352.122H233.026c-3.2,0-5.791-2.866-5.791-6.4V314.549c0-3.536,2.592-6.4,5.791-6.4h64.849c3.2,0,5.793,2.866,5.793,6.4v31.171C303.668,349.256,301.074,352.122,297.875,352.122Z" transform="translate(-30.429 -308.146)" fill="#cae6fe"></path></g></g><g id="Group_28935" data-name="Group 28935" transform="translate(0 138.246)"><g class="g-7"><path id="Path_38447" data-name="Path 38447" d="M203.938,385.115H139.089c-3.2,0-5.791-2.866-5.791-6.4V347.542c0-3.537,2.592-6.4,5.791-6.4h64.849c3.2,0,5.793,2.866,5.793,6.4v31.173C209.731,382.249,207.137,385.115,203.938,385.115Z" transform="translate(-133.298 -341.139)" fill="#cae6fe"></path></g><g class="g-8"><path id="Path_38448" data-name="Path 38448" d="M250.908,385.115H186.059c-3.2,0-5.793-2.866-5.793-6.4V347.542c0-3.537,2.594-6.4,5.793-6.4h64.849c3.2,0,5.791,2.866,5.791,6.4v31.173C256.7,382.249,254.107,385.115,250.908,385.115Z" transform="translate(-81.864 -341.139)" fill="#cae6fe"></path></g><g class="g-9"><path id="Path_38449" data-name="Path 38449" d="M297.875,385.115H233.026c-3.2,0-5.791-2.866-5.791-6.4V347.542c0-3.537,2.592-6.4,5.791-6.4h64.849c3.2,0,5.793,2.866,5.793,6.4v31.173C303.668,382.249,301.074,385.115,297.875,385.115Z" transform="translate(-30.429 -341.139)" fill="#cae6fe"></path></g></g><g id="Group_28936" data-name="Group 28936" transform="translate(0 206.013)"><g class="g-10"><path id="Path_38450" data-name="Path 38450" d="M203.938,417.461H139.089c-3.2,0-5.791-2.866-5.791-6.4V379.888c0-3.536,2.592-6.4,5.791-6.4h64.849c3.2,0,5.793,2.866,5.793,6.4V411.06C209.731,414.595,207.137,417.461,203.938,417.461Z" transform="translate(-133.298 -373.485)" fill="#6A2186"></path></g><g class="g-11"><path id="Path_38451" data-name="Path 38451" d="M250.908,417.461H186.059c-3.2,0-5.793-2.866-5.793-6.4V379.888c0-3.536,2.594-6.4,5.793-6.4h64.849c3.2,0,5.791,2.866,5.791,6.4V411.06C256.7,414.595,254.107,417.461,250.908,417.461Z" transform="translate(-81.864 -373.485)" fill="#61b3ff"></path></g><g class="g-12"><path id="Path_38452" data-name="Path 38452" d="M297.875,417.461H233.026c-3.2,0-5.791-2.866-5.791-6.4V379.888c0-3.536,2.592-6.4,5.791-6.4h64.849c3.2,0,5.793,2.866,5.793,6.4V411.06C303.668,414.595,301.074,417.461,297.875,417.461Z" transform="translate(-30.429 -373.485)" fill="#009ef3"></path></g></g></g></g></g><g class="man"><g id="Group_28993" data-name="Group 28993" transform="translate(560.431 49.948)"><g id="Group_28992" data-name="Group 28992" transform="translate(0)"><g id="Group_28987" data-name="Group 28987"><g id="Group_29046" data-name="Group 29046" transform="translate(28.486 0)" clip-path="url(#clip-path)"><g id="Group_29035" data-name="Group 29035" transform="translate(0 -186.871)"><g id="Group_29034" data-name="Group 29034" clip-path="url(#clip-path-2)"><path id="Path_38507" data-name="Path 38507" d="M481.773,677.072,379.589,816.085,397.778,980.6h84Z" transform="translate(-257.298 -458.943)" fill="#FFD100"></path><path id="Path_38508" data-name="Path 38508" d="M699.452,677.072,801.636,816.085,783.447,980.6H699.452Z" transform="translate(-474.112 -458.943)" fill="#FFD100"></path><path id="Path_38509" data-name="Path 38509" d="M550.989,2939.628c0,17.773-60.847,32.18-135.906,32.18s-135.906-14.407-135.906-32.18,60.847-32.179,135.906-32.179,135.906,14.407,135.906,32.179" transform="translate(-189.235 -1970.766)" fill="#ffe8d9" opacity="0.19"></path><path id="Path_38510" data-name="Path 38510" d="M545.494,2699.288l9.252-89.322-41.244-6.307,4.072,95.629a9.794,9.794,0,0,1-1.7,5.518l-4.6,6.739h40.516l-4.6-6.739a9.8,9.8,0,0,1-1.7-5.518" transform="translate(-346.56 -1764.848)" fill="#fbd3a8"></path><path id="Path_38511" data-name="Path 38511" d="M487.9,2935.919v9.676c2.152,5.616,54.739,5.825,55.578,0v-8.948a17.611,17.611,0,0,0-.859-5.483c-9.153-27.934-48.12-23.59-54.2.469a17.484,17.484,0,0,0-.519,4.286" transform="translate(-330.715 -1973.756)" fill="#6A2186"></path><path id="Path_38512" data-name="Path 38512" d="M503.229,2961.365c6.211-13.892,39.831-13.924,45.53-.1a1.59,1.59,0,0,1-1.016,2.132c-11.132,3.327-35.224,3.139-43.623.117a1.587,1.587,0,0,1-.89-2.154" transform="translate(-341.008 -2000.234)" fill="#ffd9a4"></path><path id="Path_38513" data-name="Path 38513" d="M594.357,2984.273l1.682-5.442a.809.809,0,0,1,1.53.011l1.351,5.142Z" transform="translate(-402.875 -2018.785)" fill="#6A2186"></path><path id="Path_38514" data-name="Path 38514" d="M500.469,2952.061c-2.2,2.789-2.939,8.247,0,10.646-5.3-.411-10.065-1.2-12.532-3.553l-.037-9.676c0-8.9,6.062-15.1,9.5-17.614a6.551,6.551,0,0,0,4.645,8.738c-4.475,1.04-7.557,3.893-9.551,8.161-.055,2.561,3.55,3.151,7.977,3.3" transform="translate(-330.715 -1987.315)" fill="#6A2186"></path><g id="Group_28997" data-name="Group 28997" transform="translate(162.256 955.625)" opacity="0.35"><g id="Group_28996" data-name="Group 28996" transform="translate(0)"><g id="Group_28995" data-name="Group 28995" clip-path="url(#clip-path-3)"><path id="Path_38515" data-name="Path 38515" d="M508.327,2966.246c-2.121,2.818-2.16,7.384-.684,8.52-2.049-.274-3.679-.77-4-1.964.27-2.369,2.456-4.78,4.686-6.556" transform="translate(-503.641 -2966.246)" fill="#f8a364"></path></g></g></g><g id="Group_29000" data-name="Group 29000" transform="translate(203.5 955.31)" opacity="0.35"><g id="Group_28999" data-name="Group 28999" transform="translate(0)"><g id="Group_28998" data-name="Group 28998" clip-path="url(#clip-path-4)"><path id="Path_38516" data-name="Path 38516" d="M631.661,2965.27c2.121,2.817,2.16,7.383.684,8.52,2.049-.273,3.679-.771,4-1.964-.27-2.368-2.456-4.781-4.686-6.556" transform="translate(-631.661 -2965.27)" fill="#f8a364"></path></g></g></g><g id="Group_29003" data-name="Group 29003" transform="translate(193.72 943.569)" opacity="0.2"><g id="Group_29002" data-name="Group 29002"><g id="Group_29001" data-name="Group 29001" clip-path="url(#clip-path-5)"><path id="Path_38517" data-name="Path 38517" d="M608.612,2931.252c3.367,2.107,5.6,4.612,4.981,5.6s-3.843.072-7.209-2.035-5.6-4.611-4.981-5.594,3.843-.073,7.209,2.033" transform="translate(-601.301 -2928.823)" fill="#fff"></path></g></g></g><g id="Group_29006" data-name="Group 29006" transform="translate(203.593 962.063)" opacity="0.2"><g id="Group_29005" data-name="Group 29005" transform="translate(0)"><g id="Group_29004" data-name="Group 29004" clip-path="url(#clip-path-6)"><path id="Path_38518" data-name="Path 38518" d="M638.733,2986.328a.113.113,0,0,1,.224.009l.4,7.092a1.04,1.04,0,0,1-.946,1.036l-6.328.8a.123.123,0,0,1-.053-.239l5.135-1.654a1.04,1.04,0,0,0,.74-.8Z" transform="translate(-631.95 -2986.23)" fill="#fff"></path></g></g></g><g id="Group_29009" data-name="Group 29009" transform="translate(170.317 918.073)" opacity="0.35"><g id="Group_29008" data-name="Group 29008" transform="translate(0)"><g id="Group_29007" data-name="Group 29007" clip-path="url(#clip-path-7)"><path id="Path_38519" data-name="Path 38519" d="M558,2859.1c-8.761,3.265-23.083,2.626-28.961-.576l-.377-8.843,30.608.412Z" transform="translate(-528.662 -2849.683)" fill="#f8a364"></path></g></g></g><path id="Path_38520" data-name="Path 38520" d="M751.654,2699.288l-9.252-89.322,41.244-6.307-4.072,95.629a9.8,9.8,0,0,0,1.7,5.518l4.6,6.739H745.356l4.6-6.739a9.8,9.8,0,0,0,1.7-5.518" transform="translate(-503.225 -1764.848)" fill="#fbd3a8"></path><path id="Path_38521" data-name="Path 38521" d="M783.772,2935.919v9.676c-2.152,5.616-54.738,5.825-55.578,0v-8.948a17.616,17.616,0,0,1,.858-5.483c9.153-27.934,48.121-23.59,54.2.469a17.5,17.5,0,0,1,.519,4.286" transform="translate(-493.594 -1973.756)" fill="#6A2186"></path><path id="Path_38522" data-name="Path 38522" d="M789.031,2961.365c-6.211-13.892-39.831-13.924-45.53-.1a1.59,1.59,0,0,0,1.016,2.132c11.131,3.327,35.224,3.139,43.623.117a1.587,1.587,0,0,0,.89-2.154" transform="translate(-503.888 -2000.234)" fill="#ffd9a4"></path><path id="Path_38523" data-name="Path 38523" d="M784.65,2984.273l-1.682-5.442a.809.809,0,0,0-1.53.011l-1.351,5.142Z" transform="translate(-528.769 -2018.785)" fill="#6A2186"></path><path id="Path_38524" data-name="Path 38524" d="M858.381,2952.061c2.2,2.789,2.939,8.247,0,10.646,5.3-.411,10.065-1.2,12.532-3.553l.038-9.676c0-8.9-6.062-15.1-9.5-17.614a6.551,6.551,0,0,1-4.645,8.738c4.475,1.04,7.557,3.893,9.552,8.161.055,2.561-3.55,3.151-7.977,3.3" transform="translate(-580.772 -1987.315)" fill="#6A2186"></path><g id="Group_29012" data-name="Group 29012" transform="translate(280.421 955.625)" opacity="0.35"><g id="Group_29011" data-name="Group 29011" transform="translate(0)"><g id="Group_29010" data-name="Group 29010" clip-path="url(#clip-path-3)"><path id="Path_38525" data-name="Path 38525" d="M870.422,2966.246c2.121,2.818,2.161,7.384.684,8.52,2.049-.274,3.679-.77,4-1.964-.27-2.369-2.456-4.78-4.686-6.556" transform="translate(-870.422 -2966.246)" fill="#f8a364"></path></g></g></g><g id="Group_29015" data-name="Group 29015" transform="translate(239.177 955.31)" opacity="0.35"><g id="Group_29014" data-name="Group 29014" transform="translate(0)"><g id="Group_29013" data-name="Group 29013" clip-path="url(#clip-path-4)"><path id="Path_38526" data-name="Path 38526" d="M747.088,2965.27c-2.121,2.817-2.16,7.383-.684,8.52-2.048-.273-3.679-.771-4-1.964.27-2.368,2.456-4.781,4.686-6.556" transform="translate(-742.402 -2965.27)" fill="#f8a364"></path></g></g></g><g id="Group_29018" data-name="Group 29018" transform="translate(241.25 943.569)" opacity="0.2"><g id="Group_29017" data-name="Group 29017" transform="translate(0)"><g id="Group_29016" data-name="Group 29016" clip-path="url(#clip-path-5)"><path id="Path_38527" data-name="Path 38527" d="M753.918,2931.252c-3.366,2.107-5.6,4.612-4.981,5.6s3.843.072,7.209-2.035,5.6-4.611,4.981-5.594-3.843-.073-7.209,2.033" transform="translate(-748.835 -2928.823)" fill="#fff"></path></g></g></g><g id="Group_29021" data-name="Group 29021" transform="translate(236.358 962.063)" opacity="0.2"><g id="Group_29020" data-name="Group 29020" transform="translate(0)"><g id="Group_29019" data-name="Group 29019" clip-path="url(#clip-path-6)"><path id="Path_38528" data-name="Path 38528" d="M734.28,2986.328a.113.113,0,0,0-.224.009l-.4,7.092a1.04,1.04,0,0,0,.945,1.036l6.328.8a.123.123,0,0,0,.053-.239l-5.135-1.654a1.039,1.039,0,0,1-.74-.8Z" transform="translate(-733.651 -2986.23)" fill="#fff"></path></g></g></g><g id="Group_29024" data-name="Group 29024" transform="translate(246.438 918.073)" opacity="0.35"><g id="Group_29023" data-name="Group 29023" transform="translate(0)"><g id="Group_29022" data-name="Group 29022" clip-path="url(#clip-path-7)"><path id="Path_38529" data-name="Path 38529" d="M766.211,2859.1c8.761,3.265,23.083,2.626,28.961-.576l.377-8.843-30.608.412Z" transform="translate(-764.94 -2849.683)" fill="#f8a364"></path></g></g></g><path id="Path_38530" data-name="Path 38530" d="M605.59,2383.882c-29.149,21.166-154.915,21.166-172.607,0l8.159-207.311,156.868-1.126Z" transform="translate(-293.49 -1474.589)" fill="#6A2186"></path><path id="Path_38531" data-name="Path 38531" d="M784.752,1029.033,845.517,981.5l25.072,5.035c2.33,19.922-1,43.116-7.164,67.949-21.344,43.559-40.741,49.478-40.741,49.478l-37.932-.094Z" transform="translate(-531.931 -665.293)" fill="#2d2d2d"></path><path id="Path_38532" data-name="Path 38532" d="M442.491,1029.033,381.727,981.5l-25.072,5.035c-2.33,19.922,1,43.116,7.163,67.949,21.344,43.559,40.741,49.478,40.741,49.478l37.932-.094Z" transform="translate(-241.247 -665.293)" fill="#2d2d2d"></path><path id="Path_38533" data-name="Path 38533" d="M673.033,1418.817c0,6.744-11.625,12.211-25.967,12.211s-25.967-5.467-25.967-12.211,11.626-12.21,25.967-12.21,25.967,5.467,25.967,12.21" transform="translate(-421.002 -953.446)" fill="#aeb5b5"></path><path id="Path_38534" data-name="Path 38534" d="M669.477,1394.1H629.368c.335,16.282-1.931,26.538-4.322,32.951a6.276,6.276,0,0,0,1.735,6.857c8.761,7.831,34.933,10.637,45.588-.849a6.271,6.271,0,0,0,1.283-6.407c-2.336-6.437-4.5-16.6-4.175-32.552" transform="translate(-423.415 -944.965)" fill="#fbd3a8"></path><g id="Group_29027" data-name="Group 29027" transform="translate(205.98 447.341)" opacity="0.35"><g id="Group_29026" data-name="Group 29026" transform="translate(0)"><g id="Group_29025" data-name="Group 29025" clip-path="url(#clip-path-13)"><path id="Path_38535" data-name="Path 38535" d="M640.443,1388.544l38.257.255.64,11.022c-6.005,8.841-35.512,8.469-39.983-.414Z" transform="translate(-639.357 -1388.542)" fill="#f8a364"></path></g></g></g><path id="Path_38536" data-name="Path 38536" d="M524.519,1445.177v436.177H443.663l5.856-285.962-.094-137.454a2.4,2.4,0,0,1,.847-1.7c9.668-8.542,26.341-12.235,45.567-14.024a2.7,2.7,0,0,0,2.19-1.52l3.381-7.044a.756.756,0,0,1,1.367.014c5.446,11.488,21.742,11.512,21.742,11.512" transform="translate(-300.73 -971.488)" fill="#6A2186"></path><path id="Path_38537" data-name="Path 38537" d="M376.775,1152.47c-17.283,0-28.3-23.005-22.937-37.852a13.821,13.821,0,0,1,7.371-8.151c6.252-2.682,11.891.621,15.567,3.084Z" transform="translate(-238.917 -749.324)" fill="#fbd3a8"></path><path id="Path_38538" data-name="Path 38538" d="M392.541,1138.909c-23.432-8.335-19.479,26.295-.219,27.143" transform="translate(-255.131 -771.114)" fill="#fbbd89"></path><path id="Path_38539" data-name="Path 38539" d="M392.916,1139.056a25.781,25.781,0,0,0-6.367-1.428,13.6,13.6,0,0,0-3.227.113,8.857,8.857,0,0,0-3.009,1.047,7.118,7.118,0,0,0-2.307,2.191,9.125,9.125,0,0,0-1.259,3,15.142,15.142,0,0,0-.385,3.292,26.5,26.5,0,0,0,.2,3.338,19.2,19.2,0,0,1-.166-6.7,9.566,9.566,0,0,1,1.155-3.212,7.753,7.753,0,0,1,2.382-2.513,9.687,9.687,0,0,1,3.22-1.32,14.589,14.589,0,0,1,3.447-.306,27,27,0,0,1,6.752,1.136Z" transform="translate(-254.98 -770.392)" fill="#603813"></path><path id="Path_38540" data-name="Path 38540" d="M973.618,1152.47c17.282,0,28.3-23.005,22.937-37.852a13.819,13.819,0,0,0-7.371-8.151c-6.252-2.682-11.891.621-15.566,3.084Z" transform="translate(-659.951 -749.324)" fill="#fbd3a8"></path><path id="Path_38541" data-name="Path 38541" d="M975,1138.909c23.432-8.335,19.479,26.295.219,27.143" transform="translate(-660.891 -771.114)" fill="#fbbd89"></path><path id="Path_38542" data-name="Path 38542" d="M972.021,1137.689a27.032,27.032,0,0,1,6.752-1.136,14.607,14.607,0,0,1,3.447.306,9.676,9.676,0,0,1,3.22,1.32,7.755,7.755,0,0,1,2.382,2.513,9.572,9.572,0,0,1,1.155,3.213,19.2,19.2,0,0,1-.165,6.7,26.42,26.42,0,0,0,.2-3.337,15.152,15.152,0,0,0-.384-3.292,9.121,9.121,0,0,0-1.26-3,7.118,7.118,0,0,0-2.307-2.192,8.876,8.876,0,0,0-3.009-1.047,13.62,13.62,0,0,0-3.227-.112,25.776,25.776,0,0,0-6.367,1.428Z" transform="translate(-658.868 -770.391)" fill="#603813"></path><path id="Path_38543" data-name="Path 38543" d="M586.572,852.889H410.413c-23.9,108.884-6.729,180.49,86.872,182.734H499.7c93.6-2.244,110.775-73.849,86.872-182.734" transform="translate(-271.622 -578.117)" fill="#fbd3a8"></path><path id="Path_38544" data-name="Path 38544" d="M583.94,1106.075c0,6.914-3.511,12.519-7.842,12.519s-7.842-5.6-7.842-12.519,3.511-12.518,7.842-12.518,7.842,5.6,7.842,12.518" transform="translate(-385.183 -741.25)" fill="#2d2d2d"></path><path id="Path_38545" data-name="Path 38545" d="M591.839,1105.816c0,2.61-1.709,4.726-3.818,4.726s-3.817-2.116-3.817-4.726,1.709-4.726,3.817-4.726,3.818,2.116,3.818,4.726" transform="translate(-395.992 -746.357)" fill="#fff"></path><path id="Path_38547" data-name="Path 38547" d="M802.4,1106.075c0,6.914-3.511,12.519-7.843,12.519s-7.842-5.6-7.842-12.519,3.511-12.518,7.842-12.518,7.843,5.6,7.843,12.518" transform="translate(-533.259 -741.25)" fill="#2d2d2d"></path><path id="Path_38548" data-name="Path 38548" d="M810.295,1105.816c0,2.61-1.71,4.726-3.818,4.726s-3.818-2.116-3.818-4.726,1.709-4.726,3.818-4.726,3.818,2.116,3.818,4.726" transform="translate(-544.069 -746.357)" fill="#fff"></path><path id="Path_38550" data-name="Path 38550" d="M682.283,1216.309a2.353,2.353,0,0,0,1.121-.121c6.81-2,7.8,5.638,2.315,6.331-5.229.479-7.98-1.288-9.666-3.554a2.067,2.067,0,0,1,1.329-3.284,17.244,17.244,0,0,1,4.9.627" transform="translate(-457.973 -824.003)" fill="#f8a364"></path><path id="Path_38551" data-name="Path 38551" d="M790.323,1037.332c-7.535.142-10.395-7.092-5.139-11.5,2.19-1.836,5.192-2.25,8.033-1.945,7.824.839,12.672,3.61,13.536,8.967a5.856,5.856,0,0,1-1.681,5.277c-2.756,2.522-7.037,1.554-11.7-.292a7.861,7.861,0,0,0-3.046-.51" transform="translate(-530.404 -693.966)" fill="#2d2d2d"></path><path id="Path_38552" data-name="Path 38552" d="M566.583,1037.332c7.536.142,10.395-7.092,5.14-11.5-2.19-1.836-5.192-2.25-8.033-1.945-7.824.839-12.672,3.61-13.536,8.967a5.856,5.856,0,0,0,1.682,5.277c2.756,2.522,7.037,1.554,11.7-.292a7.862,7.862,0,0,1,3.046-.51" transform="translate(-372.855 -693.966)" fill="#2d2d2d"></path><path id="Path_38553" data-name="Path 38553" d="M423.526,984.614c-14.412,16.523-17.925,47.258-16.173,80.238-9.489-29.04-5.81-80.238-5.81-80.238Z" transform="translate(-271.704 -667.405)" fill="#2d2d2d"></path><path id="Path_38554" data-name="Path 38554" d="M938.159,984.614c14.412,16.523,17.925,47.258,16.173,80.238,9.489-29.04,5.809-80.238,5.809-80.238Z" transform="translate(-635.915 -667.405)" fill="#2d2d2d"></path><g id="Group_29030" data-name="Group 29030" transform="translate(195.159 461.742)" opacity="0.5"><g id="Group_29029" data-name="Group 29029" transform="translate(0)"><g id="Group_29028" data-name="Group 29028" clip-path="url(#clip-path-14)"><path id="Path_38555" data-name="Path 38555" d="M605.77,1442.228c1.01,9.8,11.878,17.1,25.2,18.086v193.395H644.86l-1.854-191.722-8.556-2.294v-14.5c-9.921-.573-17.879-3.88-21.792-11.6a.762.762,0,0,0-1.316.076l-3.766,7.633a2.749,2.749,0,0,1-1.805.931" transform="translate(-605.77 -1433.242)" fill="#aeb5b5"></path></g></g></g><path id="Path_38556" data-name="Path 38556" d="M690,1514.2l-10.789,3.139v191.244" transform="translate(-460.392 -1026.376)" fill="none" stroke="#aeb5b5" stroke-miterlimit="10" stroke-width="15"></path><path id="Path_38557" data-name="Path 38557" d="M689.9,1445.177v14.5l-8.556,2.294v419.38h88.618L764.9,1595.391l.094-137.454a2.4,2.4,0,0,0-.847-1.7c-9.668-8.542-26.341-12.235-45.567-14.024a2.7,2.7,0,0,1-2.19-1.52l-3.381-7.044a.755.755,0,0,0-1.367.014c-5.446,11.488-21.742,11.512-21.742,11.512" transform="translate(-461.835 -971.488)" fill="#6A2186"></path><g id="Group_29033" data-name="Group 29033" transform="translate(217.651 461.742)" opacity="0.5"><g id="Group_29032" data-name="Group 29032" transform="translate(0)"><g id="Group_29031" data-name="Group 29031" clip-path="url(#clip-path-14)"><path id="Path_38558" data-name="Path 38558" d="M714.676,1442.228c-1.01,9.8-11.878,17.1-25.2,18.086v193.395H675.586l1.854-191.722,8.556-2.294v-14.5c9.921-.573,17.879-3.88,21.792-11.6a.762.762,0,0,1,1.316.076l3.766,7.633a2.749,2.749,0,0,0,1.805.931" transform="translate(-675.586 -1433.242)" fill="#aeb5b5"></path></g></g></g><path id="Path_38559" data-name="Path 38559" d="M694.432,1554.47a3.155,3.155,0,1,1-3.155-3.155,3.155,3.155,0,0,1,3.155,3.155" transform="translate(-466.432 -1051.534)" fill="#aeb5b5"></path><path id="Path_38560" data-name="Path 38560" d="M694.432,1674.638a3.155,3.155,0,1,1-3.155-3.155,3.155,3.155,0,0,1,3.155,3.155" transform="translate(-466.432 -1132.988)" fill="#aeb5b5"></path><path id="Path_38561" data-name="Path 38561" d="M694.432,1801.4a3.155,3.155,0,1,1-3.155-3.155,3.155,3.155,0,0,1,3.155,3.155" transform="translate(-466.432 -1218.911)" fill="#aeb5b5"></path><path id="Path_38562" data-name="Path 38562" d="M694.432,1921.569a3.155,3.155,0,1,1-3.155-3.155,3.155,3.155,0,0,1,3.155,3.155" transform="translate(-466.432 -1300.365)" fill="#aeb5b5"></path><path id="Path_38563" data-name="Path 38563" d="M694.432,2041.736a3.155,3.155,0,1,1-3.155-3.155,3.154,3.154,0,0,1,3.155,3.155" transform="translate(-466.432 -1381.818)" fill="#aeb5b5"></path><path id="Path_38564" data-name="Path 38564" d="M623.5,1256.475v-8.028c-17.818-.819-28.749,1.58-34.32,7.406a18.348,18.348,0,0,0-4.975,12.7v9.328h8.6c-3.217-7.557-4.149-13.918,0-18.151a10.264,10.264,0,0,1,7.225-3Z" transform="translate(-395.992 -846.134)" fill="#2d2d2d"></path><path id="Path_38565" data-name="Path 38565" d="M702.544,1256.475v-8.028c17.817-.819,28.749,1.58,34.32,7.406a18.346,18.346,0,0,1,4.975,12.7v9.328h-8.6c3.218-7.557,4.149-13.918,0-18.151a10.263,10.263,0,0,0-7.225-3Z" transform="translate(-476.207 -846.134)" fill="#2d2d2d"></path></g></g><g id="Group_29043" data-name="Group 29043" transform="translate(104.688 11.478)"><g id="Group_29042" data-name="Group 29042" clip-path="url(#clip-path-16)"><rect id="Rectangle_10265" data-name="Rectangle 10265" width="474.718" height="454.078" transform="translate(-104.688 -62.663)" fill="#fff"></rect><g id="Group_29038" data-name="Group 29038" transform="translate(-99.693 -62.662)" opacity="0.6"><g id="Group_29037" data-name="Group 29037"><g id="Group_29036" data-name="Group 29036" clip-path="url(#clip-path-17)"><rect id="Rectangle_10266" data-name="Rectangle 10266" width="8.331" height="454.078" transform="translate(70.215 -0.001)" fill="#6A2186"></rect><rect id="Rectangle_10267" data-name="Rectangle 10267" width="8.332" height="454.078" transform="translate(52.661 -0.001)" fill="#6A2186"></rect><rect id="Rectangle_10268" data-name="Rectangle 10268" width="8.332" height="454.078" transform="translate(87.768 -0.001)" fill="#6A2186"></rect><rect id="Rectangle_10269" data-name="Rectangle 10269" width="8.332" height="454.078" transform="translate(105.322 -0.001)" fill="#6A2186"></rect><rect id="Rectangle_10270" data-name="Rectangle 10270" width="8.331" height="454.078" transform="translate(122.876 -0.001)" fill="#6A2186"></rect><rect id="Rectangle_10271" data-name="Rectangle 10271" width="8.332" height="454.078" transform="translate(140.429 -0.001)" fill="#6A2186"></rect><rect id="Rectangle_10272" data-name="Rectangle 10272" width="8.331" height="454.078" transform="translate(157.983 -0.001)" fill="#6A2186"></rect><rect id="Rectangle_10273" data-name="Rectangle 10273" width="8.332" height="454.078" transform="translate(245.751 -0.001)" fill="#6A2186"></rect><rect id="Rectangle_10274" data-name="Rectangle 10274" width="8.331" height="454.078" transform="translate(228.198 -0.001)" fill="#6A2186"></rect><rect id="Rectangle_10275" data-name="Rectangle 10275" width="8.331" height="454.078" transform="translate(210.644 -0.001)" fill="#6A2186"></rect><rect id="Rectangle_10276" data-name="Rectangle 10276" width="8.332" height="454.078" transform="translate(193.09 -0.001)" fill="#6A2186"></rect><rect id="Rectangle_10277" data-name="Rectangle 10277" width="8.331" height="454.078" transform="translate(175.537 -0.001)" fill="#6A2186"></rect><rect id="Rectangle_10278" data-name="Rectangle 10278" width="8.331" height="454.078" transform="translate(263.305 -0.001)" fill="#6A2186"></rect><rect id="Rectangle_10279" data-name="Rectangle 10279" width="8.332" height="454.078" transform="translate(280.859 -0.001)" fill="#6A2186"></rect><rect id="Rectangle_10280" data-name="Rectangle 10280" width="8.331" height="454.078" transform="translate(298.413 -0.001)" fill="#6A2186"></rect><rect id="Rectangle_10281" data-name="Rectangle 10281" width="8.331" height="454.078" transform="translate(315.966 -0.001)" fill="#6A2186"></rect><rect id="Rectangle_10282" data-name="Rectangle 10282" width="8.331" height="454.078" transform="translate(333.52 -0.001)" fill="#6A2186"></rect><rect id="Rectangle_10283" data-name="Rectangle 10283" width="8.331" height="454.078" transform="translate(351.074 -0.001)" fill="#6A2186"></rect></g></g></g><g id="Group_29041" data-name="Group 29041" transform="translate(-94.368 -67.988)" opacity="0.8"><g id="Group_29040" data-name="Group 29040"><g id="Group_29039" data-name="Group 29039" clip-path="url(#clip-path-18)"><rect id="Rectangle_10285" data-name="Rectangle 10285" width="454.078" height="8.332" transform="translate(0 386.181)" fill="#6A2186"></rect><rect id="Rectangle_10286" data-name="Rectangle 10286" width="454.078" height="8.331" transform="translate(0 403.735)" fill="#6A2186"></rect><rect id="Rectangle_10287" data-name="Rectangle 10287" width="454.078" height="8.331" transform="translate(0 421.289)" fill="#6A2186"></rect><rect id="Rectangle_10288" data-name="Rectangle 10288" width="454.078" height="8.331" transform="translate(0 438.842)" fill="#6A2186"></rect><rect id="Rectangle_10289" data-name="Rectangle 10289" width="454.078" height="8.331" transform="translate(0 456.396)" fill="#6A2186"></rect><rect id="Rectangle_10290" data-name="Rectangle 10290" width="454.078" height="8.331" transform="translate(0 368.628)" fill="#6A2186"></rect><rect id="Rectangle_10291" data-name="Rectangle 10291" width="454.078" height="8.331" transform="translate(0 351.074)" fill="#6A2186"></rect><rect id="Rectangle_10292" data-name="Rectangle 10292" width="454.078" height="8.331" transform="translate(0 333.52)" fill="#6A2186"></rect><rect id="Rectangle_10293" data-name="Rectangle 10293" width="454.078" height="8.331" transform="translate(0 315.967)" fill="#6A2186"></rect><rect id="Rectangle_10294" data-name="Rectangle 10294" width="454.078" height="8.331" transform="translate(0 298.413)" fill="#6A2186"></rect><rect id="Rectangle_10295" data-name="Rectangle 10295" width="454.078" height="8.331" transform="translate(0 210.644)" fill="#6A2186"></rect><rect id="Rectangle_10296" data-name="Rectangle 10296" width="454.078" height="8.331" transform="translate(0 228.198)" fill="#6A2186"></rect><rect id="Rectangle_10297" data-name="Rectangle 10297" width="454.078" height="8.331" transform="translate(0 245.752)" fill="#6A2186"></rect><rect id="Rectangle_10298" data-name="Rectangle 10298" width="454.078" height="8.331" transform="translate(0 263.305)" fill="#6A2186"></rect><rect id="Rectangle_10299" data-name="Rectangle 10299" width="454.078" height="8.331" transform="translate(0 280.859)" fill="#6A2186"></rect><rect id="Rectangle_10300" data-name="Rectangle 10300" width="454.078" height="8.331" transform="translate(0 193.091)" fill="#6A2186"></rect><rect id="Rectangle_10301" data-name="Rectangle 10301" width="454.078" height="8.332" transform="translate(0 175.537)" fill="#6A2186"></rect><rect id="Rectangle_10302" data-name="Rectangle 10302" width="454.078" height="8.332" transform="translate(0 157.983)" fill="#6A2186"></rect><rect id="Rectangle_10303" data-name="Rectangle 10303" width="454.078" height="8.332" transform="translate(0 140.429)" fill="#6A2186"></rect><rect id="Rectangle_10304" data-name="Rectangle 10304" width="454.078" height="8.331" transform="translate(0 122.876)" fill="#6A2186"></rect><rect id="Rectangle_10305" data-name="Rectangle 10305" width="454.078" height="8.331" transform="translate(0 105.322)" fill="#6A2186"></rect><rect id="Rectangle_10306" data-name="Rectangle 10306" width="454.078" height="8.331" transform="translate(0 87.769)" fill="#6A2186"></rect><rect id="Rectangle_10307" data-name="Rectangle 10307" width="454.078" height="8.332" transform="translate(0 70.215)" fill="#6A2186"></rect><rect id="Rectangle_10308" data-name="Rectangle 10308" width="454.078" height="8.331" transform="translate(0 52.661)" fill="#6A2186"></rect><rect id="Rectangle_10309" data-name="Rectangle 10309" width="454.078" height="8.331" transform="translate(0 35.107)" fill="#6A2186"></rect><rect id="Rectangle_10310" data-name="Rectangle 10310" width="454.078" height="8.331" transform="translate(0 17.554)" fill="#6A2186"></rect><rect id="Rectangle_10311" data-name="Rectangle 10311" width="454.078" height="8.331" transform="translate(0 0)" fill="#6A2186"></rect></g></g></g></g></g><g id="Group_29045" data-name="Group 29045" transform="translate(0 -186.871)"><g id="Group_29044" data-name="Group 29044" clip-path="url(#clip-path-2)"><path id="Path_38567" data-name="Path 38567" d="M566.6,858.793H342.807A5.808,5.808,0,0,1,337,852.984v-1.025A16.261,16.261,0,0,1,353.259,835.7H556.146a16.261,16.261,0,0,1,16.262,16.261v1.025a5.808,5.808,0,0,1-5.809,5.808" transform="translate(-228.428 -566.465)" fill="#2d2d2d"></path><path id="Path_38568" data-name="Path 38568" d="M678.163,1280.681a220.227,220.227,0,0,1-22.312,1.563,220.218,220.218,0,0,1-22.311-1.563s-2.378,22.03,22.108,21.966h.407c24.486.063,22.108-21.966,22.108-21.966" transform="translate(-429.392 -868.089)" fill="#be1717"></path><path id="Path_38569" data-name="Path 38569" d="M678.164,1280.681a217.332,217.332,0,0,1-22.312,1.564,217.335,217.335,0,0,1-22.311-1.564,19.528,19.528,0,0,0-.032,2.76c4.438,1.72,11.48,3.117,22.343,3.078,10.863.039,17.9-1.358,22.343-3.078a19.574,19.574,0,0,0-.032-2.76" transform="translate(-429.393 -868.089)" fill="#fff"></path><path id="Path_38570" data-name="Path 38570" d="M684.957,1321.866c-3.55-2.93-8.68-5.094-16.094-5.215v-.006l-.183,0-.183,0v.006c-7.414.121-12.544,2.285-16.094,5.215,3.3,3,8.344,5.179,16.073,5.159l.2,0,.2,0c7.73.02,12.778-2.164,16.073-5.159" transform="translate(-442.221 -892.466)" fill="#ff2929"></path><path id="Path_38571" data-name="Path 38571" d="M655.026,1302.069h-.48c-.345,0-.684,0-1.019-.011l-.225-.005c-.324-.01-.644-.022-.958-.039l-.161-.01c-.279-.016-.553-.036-.823-.058l-.2-.017q-.444-.038-.873-.089l-.228-.028c-.25-.031-.5-.064-.739-.1l-.154-.022c-.268-.042-.531-.087-.79-.135l-.264-.049c-.249-.049-.495-.1-.736-.152l-.145-.034-.08-.019q-.276-.063-.545-.132l-.024-.006-.266-.069q-.322-.086-.635-.179l-.262-.08-.05-.016q-.2-.061-.39-.125c-.146-.049-.292-.1-.436-.15s-.281-.1-.419-.153c-.122-.045-.242-.093-.362-.141l-.255-.1q-.323-.133-.635-.275l-.174-.079c-.135-.062-.269-.127-.4-.191l-.019-.01c-.258-.127-.536-.272-.813-.427l-.06-.033c-10.737-6.006-9.548-19.041-9.492-19.593a.534.534,0,0,1,.588-.479l.084.01a218.3,218.3,0,0,0,22.166,1.548,218.307,218.307,0,0,0,22.158-1.548l.083-.01a.523.523,0,0,1,.588.471c.057.56,1.246,13.6-9.493,19.6l-.055.031c-.287.159-.559.3-.833.437q-.2.1-.4.193l-.171.078q-.313.141-.638.277l-.252.1c-.121.048-.242.1-.364.142s-.274.1-.414.151-.293.1-.442.151c-.128.042-.258.084-.388.125l-.062.02-.25.077c-.208.061-.42.121-.635.178l-.281.073c-.188.048-.369.092-.553.134l-.082.019-.147.034c-.24.054-.486.1-.734.151l-.264.049c-.26.047-.522.093-.79.135l-.155.022c-.242.036-.488.069-.738.1l-.229.029c-.287.033-.577.063-.872.089l-.2.017c-.27.022-.544.042-.821.058l-.162.011h0c-.314.017-.634.03-.958.039l-.223.005c-.311.007-.624.012-.943.012m-.283-1.049.211,0c.335,0,.665,0,.992-.012l.217-.006q.473-.013.932-.037h0l.157-.01q.4-.024.8-.057l.193-.016q.429-.038.844-.087l.221-.027q.362-.045.713-.1l.15-.021c.258-.04.511-.083.761-.129l.254-.048c.238-.046.475-.094.706-.145l.219-.051q.263-.061.521-.127l.279-.072c.205-.055.408-.112.607-.17l.236-.073.063-.021q.186-.057.37-.118.213-.071.421-.145c.133-.047.265-.094.395-.144s.232-.089.346-.135l.239-.1q.309-.128.606-.263l.162-.074q.194-.09.382-.182c.26-.128.517-.263.787-.413l.054-.03c9.1-5.088,9.129-15.564,9-18.053a218.45,218.45,0,0,1-21.825,1.5,218.458,218.458,0,0,1-21.833-1.5c-.129,2.521-.083,12.973,9,18.053l.041.023c.277.153.54.291.8.418.13.064.257.124.385.183l.165.076q.3.134.6.261l.242.1c.114.046.228.09.344.134q.2.074.4.146t.416.142q.184.061.372.12l.05.016c.082.026.164.052.247.076q.3.089.608.171l.253.065.024.006q.259.066.522.127l.087.021.129.03c.232.052.469.1.708.145l.254.048c.25.046.5.09.761.129l.148.021q.352.052.714.1l.22.027c.278.032.559.061.845.087l.193.016q.393.032.8.057l.156.01q.459.025.932.037l.218.006c.327.008.655.013.992.012Z" transform="translate(-428.288 -866.987)" fill="#f8a364"></path><path id="Path_38572" data-name="Path 38572" d="M610.5,1285.473c-11.224,18.053-31.567,23.927-46.305,16.93l-8.6.685c-5.138,6.954-20.979,10.365-27.543,8.3-.435-3.6.591-2.545,3.151-4.022H519.771c2.559,1.478,3.586.422,3.15,4.022-6.564,2.063-22.4-1.348-27.543-8.3l-8.6-.685c-14.739,7-35.081,1.123-46.306-16.93,10.975,22.516,34.641,41.762,84.431,43.741v.047c.2-.006.973-.006,1.17,0v-.047c49.79-1.98,73.456-21.226,84.431-43.741" transform="translate(-298.566 -871.337)" fill="#2d2d2d"></path><path id="Path_38573" data-name="Path 38573" d="M937.754,1575.183l-26.507-61.6c-16.253-32.041-39.645-4.755-27.891,15.033l26.909,61.147c14.7,24.754,39.079,11.658,27.489-14.578" transform="translate(-596.61 -1015.964)" fill="#6A2186" fill-rule="evenodd"></path><path id="Path_38575" data-name="Path 38575" d="M384.428,1594.737l20.773-66.63c2.858-17.9-1.809-26.231-16.3-22.055-10.619,9.735-25.205,44.465-34.505,88.685,0,9.343,25.8,15.77,30.035,0" transform="translate(-240.219 -1020.134)" fill="#6A2186"></path></g></g></g><g id="Group_28986" data-name="Group 28986" transform="translate(0 315.918)"><path id="Path_38501" data-name="Path 38501" d="M555.164,223.644,544.043,375.69a12.418,12.418,0,0,1-13.291,11.473L272.539,368.273a12.409,12.409,0,0,1-11.475-13.285l11.123-152.046a12.416,12.416,0,0,1,13.287-11.475l258.21,18.889A12.419,12.419,0,0,1,555.164,223.644Z" transform="translate(-261.031 -191.434)" fill="#6A2186"></path><rect id="Rectangle_10240" data-name="Rectangle 10240" width="33.79" height="283.731" transform="translate(7.311 64.091) rotate(-85.816)" fill="#1d3062"></rect><path id="Path_38502" data-name="Path 38502" d="M421.512,288.406l-66.56-4.869,1.706-23.317,66.56,4.869h0Z" transform="translate(-158.18 -116.109)" fill="#61b3ff"></path><g id="Group_28985" data-name="Group 28985" transform="translate(20.808 92.549)"><rect id="Rectangle_10241" data-name="Rectangle 10241" width="12.753" height="21.68" rx="0.71" transform="translate(0 12.719) rotate(-85.816)" fill="#61b3ff"></rect><rect id="Rectangle_10242" data-name="Rectangle 10242" width="12.753" height="21.679" rx="0.71" transform="translate(38.085 15.505) rotate(-85.816)" fill="#61b3ff"></rect><rect id="Rectangle_10243" data-name="Rectangle 10243" width="12.753" height="21.679" rx="0.71" transform="translate(76.17 18.291) rotate(-85.815)" fill="#61b3ff"></rect><rect id="Rectangle_10244" data-name="Rectangle 10244" width="12.753" height="21.679" rx="0.71" transform="translate(114.255 21.077) rotate(-85.816)" fill="#61b3ff"></rect><rect id="Rectangle_10245" data-name="Rectangle 10245" width="12.753" height="21.679" rx="0.71" transform="translate(152.34 23.863) rotate(-85.816)" fill="#61b3ff"></rect><rect id="Rectangle_10246" data-name="Rectangle 10246" width="12.752" height="21.679" rx="0.71" transform="translate(190.425 26.649) rotate(-85.816)" fill="#61b3ff"></rect><rect id="Rectangle_10247" data-name="Rectangle 10247" width="12.753" height="21.679" rx="0.71" transform="translate(228.51 29.435) rotate(-85.816)" fill="#61b3ff"></rect></g><rect id="Rectangle_10248" data-name="Rectangle 10248" width="6.478" height="283.731" transform="translate(10.609 19.005) rotate(-85.82)" fill="#61b3ff"></rect><rect id="Rectangle_10249" data-name="Rectangle 10249" width="38.187" height="38.187" rx="2.312" transform="matrix(0.997, 0.073, -0.073, 0.997, 19.765, 119.529)" fill="#61b3ff"></rect><path id="Rectangle_10250" data-name="Rectangle 10250" d="M1.643,0H121.98a1.642,1.642,0,0,1,1.642,1.642V8.878a1.643,1.643,0,0,1-1.643,1.643H1.642A1.642,1.642,0,0,1,0,8.878V1.643A1.643,1.643,0,0,1,1.643,0Z" transform="translate(65.629 140.839) rotate(4.184)" fill="#61b3ff"></path><path id="Path_38503" data-name="Path 38503" d="M451.225,199.8,264.691,360.9a12.394,12.394,0,0,1-3.627-9.709l3.9-53.341L384.178,194.9Z" transform="translate(-261.031 -187.642)" fill="#fff" opacity="0.2"></path><path id="Path_38504" data-name="Path 38504" d="M512.015,201.7,322.274,365.574l-32.8-2.4L479.21,199.3Z" transform="translate(-229.888 -182.818)" fill="#fff" opacity="0.2"></path></g><g id="Group_29047" data-name="Group 29047" transform="translate(255.914 419.741) rotate(-45)"><path id="Path_37248" data-name="Path 37248" d="M17.376,32.063l-5.86-2.219C9.492,18.09,6.848,7.773,2.937.39L2.779.283A1.623,1.623,0,0,0,.244,1.613L0,31.959a6.8,6.8,0,0,0,.927,3.5c3,5.1,10.117,8.423,16.97,11.008Z" fill="#fbd3a8"></path><g id="Group_26831" data-name="Group 26831" transform="translate(0.028 14.43)"><path id="Path_37249" data-name="Path 37249" d="M4.773,9.967l.359-.135A29.3,29.3,0,0,1,3.758,4.053C3.423,1.986,3.183.492,2.279.1,1.729-.142,1.005.057,0,.725l.213.319c.873-.581,1.5-.776,1.914-.6C2.839.76,3.076,2.24,3.38,4.114A29.69,29.69,0,0,0,4.773,9.967Z" fill="#f8a364"></path></g><g id="Group_26832" data-name="Group 26832" transform="translate(0.096 6.113)"><path id="Path_37250" data-name="Path 37250" d="M6.219,12.965l.355-.144A42.414,42.414,0,0,1,4.737,6.355C4.015,3.173,3.442.66,2.063.109A2.2,2.2,0,0,0,0,.551L.212.869a1.864,1.864,0,0,1,1.71-.4c1.192.475,1.77,3.024,2.44,5.974A43.015,43.015,0,0,0,6.219,12.965Z" fill="#f8a364"></path></g></g><path id="Path_38576" data-name="Path 38576" d="M68.95,21.4,21.178,97.75A2.988,2.988,0,0,1,17.84,99C12.988,97.562,3.766,91.5.664,87.637a3.014,3.014,0,0,1-.149-3.572L41.688,5.308C51.345-8.736,76.83,8.052,68.95,21.4" transform="translate(312.573 348.468) rotate(20)" fill="#6A2186"></path></g><g id="Group_28988" data-name="Group 28988" transform="translate(94.17 472.531)"><path id="Path_38505" data-name="Path 38505" d="M319.56,278.683l-3.35,3.893s-9.6-.7-10.509-4.722a3.376,3.376,0,0,1,1.207-3.752Z" transform="translate(-305.584 -267.46)" fill="#fbd3a8"></path><path id="Path_38506" data-name="Path 38506" d="M320.535,303.746a11.307,11.307,0,0,1-11.567-5.948,11.428,11.428,0,0,1-.547-8.737c3.243-10.777,9.271-18.357,13.432-16.115,1.565.842,1.255,7.211-.876,11.814a44.367,44.367,0,0,0,4.551-10.739c1.483-5.764,8.615-2.969,6.8,4.291s-2.608,8.317-2.608,8.317,3.321-5.508,3.782-9.1,6.1-2.6,4.865,4.406c-.574,3.245-1.255,6.964-1.255,6.964s1.632-4.618,2.5-7.012,4.169-3.884,4.647,1.362c.375,4.129.622,15.357-4.934,17.2C335.544,301.712,326.15,303.032,320.535,303.746Z" transform="translate(-303.137 -270.931)" fill="#fbd3a8"></path></g></g></g></g></g></svg> 