<svg class="animated" id="freepik_stories-3d-modeling" xmlns="http://www.w3.org/2000/svg" xmlns:xlink="http://www.w3.org/1999/xlink" viewBox="0 0 500 500" version="1.1" xmlns:svgjs="http://svgjs.com/svgjs"><style>svg#freepik_stories-3d-modeling:not(.animated) .animable {opacity: 0;}svg#freepik_stories-3d-modeling.animated #freepik--background-simple--inject-213 {animation: 1.5s Infinite  linear floating;animation-delay: 0s;}svg#freepik_stories-3d-modeling.animated #freepik--book-shelf--inject-213 {animation: 1.5s Infinite  linear floating;animation-delay: 0s;}svg#freepik_stories-3d-modeling.animated #freepik--Device--inject-213 {animation: 1.5s Infinite  linear shake;animation-delay: 0s;}svg#freepik_stories-3d-modeling.animated #freepik--Character--inject-213 {animation: 1.5s Infinite  linear heartbeat;animation-delay: 0s;}            @keyframes floating {                0% {                    opacity: 1;                    transform: translateY(0px);                }                50% {                    transform: translateY(-10px);                }                100% {                    opacity: 1;                    transform: translateY(0px);                }            }                    @keyframes shake {                10%, 90% {                    transform: translate3d(-1px, 0, 0);                  }                  20%, 80% {                    transform: translate3d(2px, 0, 0);                  }                  30%, 50%, 70% {                    transform: translate3d(-4px, 0, 0);                  }                  40%, 60% {                    transform: translate3d(4px, 0, 0);                  }            }                    @keyframes heartbeat {                0% {                    transform: scale(1);                }                10% {                    transform: scale(1.1);                }                30% {                    transform: scale(1);                }                40% {                    transform: scale(1);                }                50% {                    transform: scale(1.1);                }                60% {                    transform: scale(1);                }                100% {                    transform: scale(1);                }            }        </style><g id="freepik--background-simple--inject-213" class="animable animator-active" style="transform-origin: 248.123px 250.609px;"><g id="elx5r4iefocu"><path d="M67.93,167.09s-27.88,72,11.3,144.5S199.11,422.39,263.7,455.14s131.66,16.8,163.53-36.84-11.84-91.93-11.9-168.42,11.45-96.74-30-161.36-143.06-78.93-219.9-31S67.93,167.09,67.93,167.09Z" style="fill: rgb(255, 255, 255); opacity: 0.7; transform-origin: 248.588px 250.609px;" class="animable"></path></g><path d="M95.86,87.74l.56-.51C148,40.8,216.48,38.7,266.38,88.69c26,26.05,72.19,21.07,105.23,30.49C485.53,151.67,465.83,306.23,409.56,381c-50.78,67.42-160.81,82.66-234.73,49.48-65-29.15-110.7-94.27-127-162.37q-2.45-10.24-4-20.67C35.29,189.42,51.74,127.86,95.86,87.74Z" style="fill: rgb(255, 193, 0); transform-origin: 248.123px 249.593px;" id="elbt1ahcz24l4" class="animable"></path><g id="elowv36epmghi"><path d="M95.86,87.74l.56-.51C148,40.8,216.48,38.7,266.38,88.69c26,26.05,72.19,21.07,105.23,30.49C485.53,151.67,465.83,306.23,409.56,381c-50.78,67.42-160.81,82.66-234.73,49.48-65-29.15-110.7-94.27-127-162.37q-2.45-10.24-4-20.67C35.29,189.42,51.74,127.86,95.86,87.74Z" style="fill: rgb(255, 255, 255); opacity: 0.7; transform-origin: 248.123px 249.593px;" class="animable"></path></g></g><g id="freepik--book-shelf--inject-213" class="animable" style="transform-origin: 392.48px 158.865px;"><polyline points="445.85 182.41 339.11 182.41 339.11 170.29 430.85 170.29" style="fill: none; stroke: rgb(38, 50, 56); stroke-linecap: round; stroke-linejoin: round; transform-origin: 392.48px 176.35px;" id="elz2hwg6w3rn" class="animable"></polyline><line x1="384.98" y1="188.6" x2="384.98" y2="182.41" style="fill: none; stroke: rgb(38, 50, 56); stroke-linecap: round; stroke-linejoin: round; transform-origin: 384.98px 185.505px;" id="elo4s9pf3coyi" class="animable"></line><polyline points="376.39 183.04 379.83 205.79 384.98 205.79" style="fill: none; stroke: rgb(38, 50, 56); stroke-linecap: round; stroke-linejoin: round; transform-origin: 380.685px 194.415px;" id="elh52dm77hmf" class="animable"></polyline><polyline points="361.64 125.28 361.64 170.29 352.06 170.29 352.06 111.94 361.64 111.94 361.64 114.47" style="fill: none; stroke: rgb(38, 50, 56); stroke-linecap: round; stroke-linejoin: round; transform-origin: 356.85px 141.115px;" id="elr3ltaa3eveb" class="animable"></polyline><line x1="361.64" y1="118.77" x2="361.64" y2="120.61" style="fill: none; stroke: rgb(38, 50, 56); stroke-linecap: round; stroke-linejoin: round; transform-origin: 361.64px 119.69px;" id="elccse5a0qm9l" class="animable"></line><polyline points="384.98 127.48 384.98 111.94 361.64 111.94" style="fill: none; stroke: rgb(38, 50, 56); stroke-linecap: round; stroke-linejoin: round; transform-origin: 373.31px 119.71px;" id="el3me2b24xgq3" class="animable"></polyline><polyline points="380.56 170.29 370.98 170.29 370.98 127.48 380.56 127.48" style="fill: none; stroke: rgb(38, 50, 56); stroke-linecap: round; stroke-linejoin: round; transform-origin: 375.77px 148.885px;" id="elvc1qtafmmo" class="animable"></polyline><polyline points="403.9 159.29 403.9 127.48 380.56 127.48" style="fill: none; stroke: rgb(38, 50, 56); stroke-linecap: round; stroke-linejoin: round; transform-origin: 392.23px 143.385px;" id="el4sxir9n78n" class="animable"></polyline><line x1="380.56" y1="144.45" x2="380.56" y2="170.29" style="fill: none; stroke: rgb(38, 50, 56); stroke-linecap: round; stroke-linejoin: round; transform-origin: 380.56px 157.37px;" id="el17a89dtibj1" class="animable"></line><line x1="380.56" y1="137.05" x2="380.56" y2="142.04" style="fill: none; stroke: rgb(38, 50, 56); stroke-linecap: round; stroke-linejoin: round; transform-origin: 380.56px 139.545px;" id="elrng1uv9mnmf" class="animable"></line><line x1="380.56" y1="129.99" x2="380.56" y2="132.41" style="fill: none; stroke: rgb(38, 50, 56); stroke-linecap: round; stroke-linejoin: round; transform-origin: 380.56px 131.2px;" id="elztop7ky5ss" class="animable"></line><line x1="352.06" y1="126.66" x2="361.64" y2="126.66" style="fill: none; stroke: rgb(38, 50, 56); stroke-linecap: round; stroke-linejoin: round; transform-origin: 356.85px 126.66px;" id="elbwvhs9ibq9p" class="animable"></line><line x1="353.92" y1="137.05" x2="361.64" y2="137.05" style="fill: none; stroke: rgb(38, 50, 56); stroke-linecap: round; stroke-linejoin: round; transform-origin: 357.78px 137.05px;" id="elg7zl7a9buow" class="animable"></line><line x1="370.98" y1="159.62" x2="377.77" y2="159.62" style="fill: none; stroke: rgb(38, 50, 56); stroke-linecap: round; stroke-linejoin: round; transform-origin: 374.375px 159.62px;" id="elujf9ghx9ase" class="animable"></line><line x1="370.98" y1="163.61" x2="380.56" y2="163.61" style="fill: none; stroke: rgb(38, 50, 56); stroke-linecap: round; stroke-linejoin: round; transform-origin: 375.77px 163.61px;" id="ele4ehpgvpafe" class="animable"></line><polyline points="384.98 138.92 400.5 138.92 400.5 145.16" style="fill: none; stroke: rgb(38, 50, 56); stroke-linecap: round; stroke-linejoin: round; transform-origin: 392.74px 142.04px;" id="elzt8us3jpci" class="animable"></polyline><polyline points="397.39 145.16 384.98 145.16 384.98 142.73" style="fill: none; stroke: rgb(38, 50, 56); stroke-linecap: round; stroke-linejoin: round; transform-origin: 391.185px 143.945px;" id="elgoa111eq8o" class="animable"></polyline><path d="M383.93,198.11l1.05,7.68" style="fill: none; stroke: rgb(38, 50, 56); stroke-linecap: round; stroke-linejoin: round; transform-origin: 384.455px 201.95px;" id="el6ogz19dvkjj" class="animable"></path><path d="M383,191.07c.21,1.5.41,3,.61,4.48" style="fill: none; stroke: rgb(38, 50, 56); stroke-linecap: round; stroke-linejoin: round; transform-origin: 383.305px 193.31px;" id="el1hi7ocktajk" class="animable"></path><path d="M381.79,182.41c.14,1,.29,2.08.43,3.12" style="fill: none; stroke: rgb(38, 50, 56); stroke-linecap: round; stroke-linejoin: round; transform-origin: 382.005px 183.97px;" id="elf7xjl1n2ffl" class="animable"></path><path d="M431.49,170.29H394.37A5.34,5.34,0,0,1,389,165h0a5.34,5.34,0,0,1,5.34-5.33h37.12" style="fill: none; stroke: rgb(38, 50, 56); stroke-linecap: round; stroke-linejoin: round; transform-origin: 410.245px 164.98px;" id="el8mk50wvuwj8" class="animable"></path><path d="M445.49,170.29H418.37A5.34,5.34,0,0,1,413,165h0a5.34,5.34,0,0,1,5.34-5.33h19.12" style="fill: none; stroke: rgb(38, 50, 56); stroke-linecap: round; stroke-linejoin: round; transform-origin: 429.245px 164.98px;" id="el23mdeuv6t0e" class="animable"></path><line x1="418.29" y1="162.53" x2="435.43" y2="162.53" style="fill: none; stroke: rgb(38, 50, 56); stroke-linecap: round; stroke-linejoin: round; transform-origin: 426.86px 162.53px;" id="elj8zaamgjqk" class="animable"></line><line x1="440.18" y1="164.95" x2="425.03" y2="164.95" style="fill: none; stroke: rgb(38, 50, 56); stroke-linecap: round; stroke-linejoin: round; transform-origin: 432.605px 164.95px;" id="el8apwe759p8f" class="animable"></line><line x1="420.92" y1="167.78" x2="435.43" y2="167.78" style="fill: none; stroke: rgb(38, 50, 56); stroke-linecap: round; stroke-linejoin: round; transform-origin: 428.175px 167.78px;" id="elhzbuz9bjkc" class="animable"></line></g><g id="freepik--Device--inject-213" class="animable" style="transform-origin: 196.645px 281.37px;"><g id="elrb1g1jwkmm9"><path d="M322,400.49,186.19,435q-5.81-2.12-11.36-4.61a199.53,199.53,0,0,1-47.14-29.92l0,0Z" style="fill-opacity: 0.7; opacity: 0.3; transform-origin: 224.845px 417.735px;" class="animable"></path></g><path d="M201.37,359.4v3.11a1.54,1.54,0,0,1-1.54,1.54H139.37a4.64,4.64,0,0,1-4.48-5.84L142,331.7l9.83-36.92h30.74l1.06,16.56,1.39,21.5,1.15,17.93a7.56,7.56,0,0,0,7.55,7.09h6.16A1.54,1.54,0,0,1,201.37,359.4Z" style="fill: rgb(255, 193, 0); transform-origin: 168.051px 329.415px;" id="el5ypfravinyu" class="animable"></path><g style="clip-path: url(&quot;#freepik--clip-path--inject-213&quot;); transform-origin: 167.17px 326.32px;" id="elcpn8gkxqy8k" class="animable"><g id="elblnmxe0lp5i"><path d="M193.67,357.86h-53l6.19-25.56,4.88-20.16,31.8-.8,1.39,21.5,1.15,17.93A7.56,7.56,0,0,0,193.67,357.86Z" style="fill-opacity: 0.7; opacity: 0.3; transform-origin: 167.17px 334.6px;" class="animable"></path></g><g id="elzbu4o57a9m"><path d="M185,332.84a188,188,0,0,1-38.07-.54c-1.75-.18-3.4-.39-5-.6l9.83-36.92h30.74l1.06,16.56Z" style="fill-opacity: 0.7; opacity: 0.3; transform-origin: 163.465px 314.168px;" class="animable"></path></g></g><path d="M201.37,359.4v3.11a1.54,1.54,0,0,1-1.54,1.54H139.37a4.64,4.64,0,0,1-4.48-5.84L142,331.7l9.83-36.92h30.74l1.06,16.56,1.39,21.5,1.15,17.93a7.56,7.56,0,0,0,7.55,7.09h6.16A1.54,1.54,0,0,1,201.37,359.4Z" style="fill: none; stroke: rgb(38, 50, 56); stroke-linecap: round; stroke-linejoin: round; transform-origin: 168.051px 329.415px;" id="eliad7l5u7sqd" class="animable"></path><path d="M305.25,307.67a7.07,7.07,0,0,1-6.67,7.06c-22.13,1.26-93.16,5.16-119.75,5.16S81.21,316,59.09,314.73a7.07,7.07,0,0,1-6.68-7.06V134.82a7.08,7.08,0,0,1,7.08-7.08H298.17a7.08,7.08,0,0,1,7.08,7.08Z" style="fill: rgb(255, 193, 0); stroke: rgb(38, 50, 56); stroke-linecap: round; stroke-linejoin: round; transform-origin: 178.83px 223.815px;" id="elp1u1718jwhe" class="animable"></path><path d="M308.94,307.67a7.06,7.06,0,0,1-6.67,7.06c-22.13,1.26-93.16,5.16-119.75,5.16S84.9,316,62.78,314.73a7.07,7.07,0,0,1-6.68-7.06V134.82a7.08,7.08,0,0,1,7.08-7.08H301.86a7.08,7.08,0,0,1,7.08,7.08Z" style="fill: rgb(255, 193, 0); stroke: rgb(38, 50, 56); stroke-linecap: round; stroke-linejoin: round; transform-origin: 182.52px 223.815px;" id="ellbbdc6kyq1b" class="animable"></path><rect x="62.78" y="134.06" width="239.5" height="171.43" style="fill: rgb(38, 50, 56); stroke: rgb(38, 50, 56); stroke-linecap: round; stroke-linejoin: round; transform-origin: 182.53px 219.775px;" id="el9tg2pupz3dg" class="animable"></rect><g id="elqrh8tui5v5"><rect x="62.78" y="134.06" width="239.5" height="171.43" style="fill: rgb(255, 255, 255); opacity: 0.2; transform-origin: 182.53px 219.775px;" class="animable"></rect></g><rect x="62.78" y="134.06" width="239.5" height="18.89" style="fill: rgb(255, 255, 255); stroke: rgb(38, 50, 56); stroke-linecap: round; stroke-linejoin: round; transform-origin: 182.53px 143.505px;" id="ele60af19flea" class="animable"></rect><rect x="62.78" y="152.95" width="26.25" height="152.54" style="fill: rgb(191, 191, 191); stroke: rgb(38, 50, 56); stroke-miterlimit: 10; transform-origin: 75.905px 229.22px;" id="el9fvvjgb8ym9" class="animable"></rect><line x1="186.57" y1="152.95" x2="186.57" y2="305.49" style="fill: none; stroke: rgb(255, 255, 255); stroke-linecap: round; stroke-linejoin: round; transform-origin: 186.57px 229.22px;" id="elpf4fkr9opk" class="animable"></line><line x1="89.02" y1="219.84" x2="302.27" y2="219.84" style="fill: none; stroke: rgb(255, 255, 255); stroke-linecap: round; stroke-linejoin: round; transform-origin: 195.645px 219.84px;" id="el1h6rqsu3kpp" class="animable"></line><path d="M299.34,140a2.63,2.63,0,1,1-2.63-2.62A2.62,2.62,0,0,1,299.34,140Z" style="fill: rgb(191, 191, 191); stroke: rgb(38, 50, 56); stroke-miterlimit: 10; transform-origin: 296.71px 140.01px;" id="elelctp4pnj8" class="animable"></path><path d="M289.23,140a2.62,2.62,0,1,1-2.62-2.62A2.62,2.62,0,0,1,289.23,140Z" style="fill: rgb(191, 191, 191); stroke: rgb(38, 50, 56); stroke-miterlimit: 10; transform-origin: 286.61px 140px;" id="elt6yu5mxx7hs" class="animable"></path><path d="M279.13,140a2.62,2.62,0,1,1-2.62-2.62A2.62,2.62,0,0,1,279.13,140Z" style="fill: rgb(191, 191, 191); stroke: rgb(38, 50, 56); stroke-miterlimit: 10; transform-origin: 276.51px 140px;" id="elsfq2a75kt5n" class="animable"></path><rect x="67.06" y="159.57" width="17.67" height="7.13" style="fill: rgb(255, 255, 255); stroke: rgb(38, 50, 56); stroke-linecap: round; stroke-linejoin: round; transform-origin: 75.895px 163.135px;" id="elr5llc7fco3n" class="animable"></rect><rect x="67.06" y="168.84" width="17.67" height="7.13" style="fill: rgb(255, 255, 255); stroke: rgb(38, 50, 56); stroke-linecap: round; stroke-linejoin: round; transform-origin: 75.895px 172.405px;" id="eltsfsdswu3rg" class="animable"></rect><rect x="67.06" y="178.1" width="17.67" height="7.13" style="fill: rgb(255, 255, 255); stroke: rgb(38, 50, 56); stroke-linecap: round; stroke-linejoin: round; transform-origin: 75.895px 181.665px;" id="elc9tav6q9mq9" class="animable"></rect><rect x="67.06" y="187.37" width="17.67" height="7.13" style="fill: rgb(255, 255, 255); stroke: rgb(38, 50, 56); stroke-linecap: round; stroke-linejoin: round; transform-origin: 75.895px 190.935px;" id="el37edlhk83f1" class="animable"></rect><rect x="67.06" y="204.66" width="17.67" height="7.13" style="fill: rgb(255, 255, 255); stroke: rgb(38, 50, 56); stroke-linecap: round; stroke-linejoin: round; transform-origin: 75.895px 208.225px;" id="elkzx1wvnu99a" class="animable"></rect><rect x="67.06" y="213.63" width="17.67" height="7.13" style="fill: rgb(255, 255, 255); stroke: rgb(38, 50, 56); stroke-linecap: round; stroke-linejoin: round; transform-origin: 75.895px 217.195px;" id="elssdr65kls39" class="animable"></rect><rect x="67.06" y="222.6" width="17.67" height="7.13" style="fill: rgb(255, 255, 255); stroke: rgb(38, 50, 56); stroke-linecap: round; stroke-linejoin: round; transform-origin: 75.895px 226.165px;" id="eleerlcfm4ygw" class="animable"></rect><rect x="67.06" y="231.56" width="17.67" height="7.13" style="fill: rgb(255, 255, 255); stroke: rgb(38, 50, 56); stroke-linecap: round; stroke-linejoin: round; transform-origin: 75.895px 235.125px;" id="elc0jt9r5c3za" class="animable"></rect><rect x="67.06" y="240.53" width="17.67" height="7.13" style="fill: rgb(255, 255, 255); stroke: rgb(38, 50, 56); stroke-linecap: round; stroke-linejoin: round; transform-origin: 75.895px 244.095px;" id="elfhmzser2zq" class="animable"></rect><rect x="67.06" y="257.86" width="7.13" height="7.13" style="fill: rgb(255, 255, 255); stroke: rgb(38, 50, 56); stroke-linecap: round; stroke-linejoin: round; transform-origin: 70.625px 261.425px;" id="eldjqtf6l092b" class="animable"></rect><rect x="77.61" y="257.86" width="7.13" height="7.13" style="fill: rgb(255, 255, 255); stroke: rgb(38, 50, 56); stroke-linecap: round; stroke-linejoin: round; transform-origin: 81.175px 261.425px;" id="el9m3dr48hwua" class="animable"></rect><rect x="67.06" y="268.49" width="7.13" height="7.13" style="fill: rgb(255, 255, 255); stroke: rgb(38, 50, 56); stroke-linecap: round; stroke-linejoin: round; transform-origin: 70.625px 272.055px;" id="el2pzi9tcr2ho" class="animable"></rect><rect x="77.61" y="268.49" width="7.13" height="7.13" style="fill: rgb(255, 255, 255); stroke: rgb(38, 50, 56); stroke-linecap: round; stroke-linejoin: round; transform-origin: 81.175px 272.055px;" id="elropmfqwh2r" class="animable"></rect><line x1="62.78" y1="199.92" x2="89.02" y2="199.92" style="fill: none; stroke: rgb(38, 50, 56); stroke-linecap: round; stroke-linejoin: round; transform-origin: 75.9px 199.92px;" id="elst02fpq54t" class="animable"></line><line x1="62.78" y1="253.2" x2="89.02" y2="253.2" style="fill: none; stroke: rgb(38, 50, 56); stroke-linecap: round; stroke-linejoin: round; transform-origin: 75.9px 253.2px;" id="elzu6jvzmk32" class="animable"></line><rect x="235.4" y="138" width="28.22" height="4.02" style="fill: rgb(191, 191, 191); stroke: rgb(38, 50, 56); stroke-miterlimit: 10; transform-origin: 249.51px 140.01px;" id="elnc9y6a7ox4" class="animable"></rect><rect x="67.06" y="137.21" width="5.61" height="5.61" style="fill: rgb(191, 191, 191); stroke: rgb(38, 50, 56); stroke-miterlimit: 10; transform-origin: 69.865px 140.015px;" id="el4geepqtymx8" class="animable"></rect><circle cx="136.51" cy="185.84" r="23.6" style="fill: rgb(255, 193, 0); transform-origin: 136.51px 185.84px;" id="el6qkt3lsqzin" class="animable"></circle><g id="el5lhjxscq1mk"><circle cx="130.23" cy="180.12" r="13.89" style="fill: rgb(255, 255, 255); opacity: 0.5; transform-origin: 130.23px 180.12px;" class="animable"></circle></g><rect x="62.78" y="299.48" width="239.5" height="6.01" style="fill: rgb(255, 255, 255); stroke: rgb(38, 50, 56); stroke-linecap: round; stroke-linejoin: round; transform-origin: 182.53px 302.485px;" id="elp2b6ofg5kob" class="animable"></rect><rect x="291.57" y="152.95" width="10.7" height="146.53" style="fill: rgb(191, 191, 191); stroke: rgb(38, 50, 56); stroke-miterlimit: 10; transform-origin: 296.92px 226.215px;" id="eldir53dxqc4t" class="animable"></rect><line x1="291.57" y1="168.84" x2="302.27" y2="168.84" style="fill: none; stroke: rgb(38, 50, 56); stroke-linecap: round; stroke-linejoin: round; transform-origin: 296.92px 168.84px;" id="elrno20igcfkn" class="animable"></line><line x1="291.57" y1="201.77" x2="302.27" y2="201.77" style="fill: none; stroke: rgb(38, 50, 56); stroke-linecap: round; stroke-linejoin: round; transform-origin: 296.92px 201.77px;" id="elf0z0bdjapbe" class="animable"></line><line x1="291.57" y1="234.7" x2="302.27" y2="234.7" style="fill: none; stroke: rgb(38, 50, 56); stroke-linecap: round; stroke-linejoin: round; transform-origin: 296.92px 234.7px;" id="el98qkk5u2lde" class="animable"></line><circle cx="237.89" cy="185.84" r="23.6" style="fill: none; stroke: rgb(255, 255, 255); stroke-miterlimit: 10; transform-origin: 237.89px 185.84px;" id="elzk0hsu0x4jt" class="animable"></circle><line x1="214.28" y1="185.84" x2="261.49" y2="185.84" style="fill: none; stroke: rgb(255, 255, 255); stroke-miterlimit: 10; transform-origin: 237.885px 185.84px;" id="elvy8jlwdhx6" class="animable"></line><line x1="237.89" y1="162.23" x2="237.89" y2="209.44" style="fill: none; stroke: rgb(255, 255, 255); stroke-miterlimit: 10; transform-origin: 237.89px 185.835px;" id="elcazb69ss6ur" class="animable"></line><line x1="221.19" y1="169.15" x2="254.58" y2="202.53" style="fill: none; stroke: rgb(255, 255, 255); stroke-miterlimit: 10; transform-origin: 237.885px 185.84px;" id="el53a1tf6x2ev" class="animable"></line><line x1="254.58" y1="169.15" x2="221.19" y2="202.53" style="fill: none; stroke: rgb(255, 255, 255); stroke-miterlimit: 10; transform-origin: 237.885px 185.84px;" id="el5iai44s60n6" class="animable"></line><line x1="216.09" y1="176.78" x2="259.68" y2="194.9" style="fill: none; stroke: rgb(255, 255, 255); stroke-miterlimit: 10; transform-origin: 237.885px 185.84px;" id="el5i0agmyhtkv" class="animable"></line><line x1="246.94" y1="164.04" x2="228.83" y2="207.63" style="fill: none; stroke: rgb(255, 255, 255); stroke-miterlimit: 10; transform-origin: 237.885px 185.835px;" id="elz8v1bsjhd0j" class="animable"></line><line x1="228.88" y1="164.02" x2="246.89" y2="207.66" style="fill: none; stroke: rgb(255, 255, 255); stroke-miterlimit: 10; transform-origin: 237.885px 185.84px;" id="elaqxxiodd34f" class="animable"></line><line x1="259.7" y1="176.83" x2="216.07" y2="194.84" style="fill: none; stroke: rgb(255, 255, 255); stroke-miterlimit: 10; transform-origin: 237.885px 185.835px;" id="ela9hyazp16aj" class="animable"></line><g id="ell9d29ndzgze"><circle cx="237.89" cy="185.84" r="15.85" style="fill: none; stroke: rgb(255, 255, 255); stroke-miterlimit: 10; transform-origin: 237.89px 185.84px; transform: rotate(-76.63deg);" class="animable"></circle></g><g id="elw2gwyuqrxu"><circle cx="237.89" cy="185.84" r="7.24" style="fill: none; stroke: rgb(255, 255, 255); stroke-miterlimit: 10; transform-origin: 237.89px 185.84px; transform: rotate(-76.68deg);" class="animable"></circle></g><circle cx="136.51" cy="260.49" r="23.6" style="fill: none; stroke: rgb(255, 255, 255); stroke-linecap: round; stroke-linejoin: round; transform-origin: 136.51px 260.49px;" id="elxq35l7coat" class="animable"></circle><line x1="112.91" y1="260.49" x2="160.12" y2="260.49" style="fill: none; stroke: rgb(255, 255, 255); stroke-linecap: round; stroke-linejoin: round; transform-origin: 136.515px 260.49px;" id="elv1y5wlxloh" class="animable"></line><line x1="136.51" y1="236.88" x2="136.51" y2="284.09" style="fill: none; stroke: rgb(255, 255, 255); stroke-linecap: round; stroke-linejoin: round; transform-origin: 136.51px 260.485px;" id="elrk5xnwbnd38" class="animable"></line><ellipse cx="136.51" cy="260.49" rx="8.01" ry="23.6" style="fill: none; stroke: rgb(255, 255, 255); stroke-linecap: round; stroke-linejoin: round; transform-origin: 136.51px 260.49px;" id="el2m5attmk1r" class="animable"></ellipse><ellipse cx="136.51" cy="260.49" rx="15.27" ry="23.6" style="fill: none; stroke: rgb(255, 255, 255); stroke-linecap: round; stroke-linejoin: round; transform-origin: 136.51px 260.49px;" id="elckhk4c3ijwg" class="animable"></ellipse><ellipse cx="136.51" cy="260.49" rx="21.26" ry="23.6" style="fill: none; stroke: rgb(255, 255, 255); stroke-linecap: round; stroke-linejoin: round; transform-origin: 136.51px 260.49px;" id="eldmp4i0y9ok" class="animable"></ellipse><line x1="115.53" y1="249.66" x2="157.49" y2="249.66" style="fill: none; stroke: rgb(255, 255, 255); stroke-linecap: round; stroke-linejoin: round; transform-origin: 136.51px 249.66px;" id="eljln06xcz97" class="animable"></line><line x1="123.91" y1="240.53" x2="149.12" y2="240.53" style="fill: none; stroke: rgb(255, 255, 255); stroke-linecap: round; stroke-linejoin: round; transform-origin: 136.515px 240.53px;" id="elicu58vvghha" class="animable"></line><line x1="115.53" y1="271.31" x2="157.49" y2="271.31" style="fill: none; stroke: rgb(255, 255, 255); stroke-linecap: round; stroke-linejoin: round; transform-origin: 136.51px 271.31px;" id="el4fcixvlv604" class="animable"></line><line x1="123.91" y1="280.44" x2="149.12" y2="280.44" style="fill: none; stroke: rgb(255, 255, 255); stroke-linecap: round; stroke-linejoin: round; transform-origin: 136.515px 280.44px;" id="elf7cp9q5ukxo" class="animable"></line><circle cx="237.89" cy="260.49" r="23.6" style="fill: none; stroke: rgb(255, 255, 255); stroke-miterlimit: 10; transform-origin: 237.89px 260.49px;" id="elfecojbf9sdl" class="animable"></circle><ellipse cx="237.89" cy="260.49" rx="8.37" ry="23.6" style="fill: none; stroke: rgb(255, 255, 255); stroke-miterlimit: 10; transform-origin: 237.89px 260.49px;" id="elybzn2nic2j9" class="animable"></ellipse><ellipse cx="237.89" cy="260.49" rx="23.6" ry="8.37" style="fill: none; stroke: rgb(255, 255, 255); stroke-miterlimit: 10; transform-origin: 237.89px 260.49px;" id="elrmon8cqffdd" class="animable"></ellipse><line x1="230.06" y1="268.85" x2="246.25" y2="252.66" style="fill: none; stroke: rgb(255, 255, 255); stroke-miterlimit: 10; transform-origin: 238.155px 260.755px;" id="el32cmqmzmaqy" class="animable"></line><line x1="214.28" y1="260.49" x2="261.49" y2="260.49" style="fill: none; stroke: rgb(255, 255, 255); stroke-miterlimit: 10; transform-origin: 237.885px 260.49px;" id="el4bcqnax3473" class="animable"></line><line x1="237.89" y1="236.88" x2="237.89" y2="284.09" style="fill: none; stroke: rgb(255, 255, 255); stroke-miterlimit: 10; transform-origin: 237.89px 260.485px;" id="el7ccf90a4273" class="animable"></line><path d="M104.8,364.05H340.88Q222.8,364,104.8,364Z" style="fill: rgb(255, 255, 255); stroke: rgb(38, 50, 56); stroke-linecap: round; stroke-linejoin: round; transform-origin: 222.84px 364.025px;" id="el8is41pmcrvm" class="animable"></path><path d="M101.64,364h0Z" style="fill: rgb(255, 255, 255); stroke: rgb(38, 50, 56); stroke-linecap: round; stroke-linejoin: round; transform-origin: 101.64px 364px;" id="eldabj8q3a1jj" class="animable"></path><path d="M60,364.05h7.2" style="fill: rgb(255, 255, 255); stroke: rgb(38, 50, 56); stroke-linecap: round; stroke-linejoin: round; transform-origin: 63.6px 364.05px;" id="elw9h7o68ur0j" class="animable"></path><polygon points="127.4 379.08 188.45 379.08 188.45 366.6 127.54 367.4 127.4 379.08" style="fill: rgb(38, 50, 56); stroke: rgb(38, 50, 56); stroke-linecap: round; stroke-linejoin: round; transform-origin: 157.925px 372.84px;" id="elqsnxokf7ugi" class="animable"></polygon><polygon points="305.02 379.08 171.32 379.08 130.82 369.24 127.54 362.1 242.53 362.1 305.02 374.65 305.02 379.08" style="fill: rgb(255, 193, 0); stroke: rgb(38, 50, 56); stroke-linecap: round; stroke-linejoin: round; transform-origin: 216.28px 370.59px;" id="elgjhdvc319ai" class="animable"></polygon><polyline points="192.8 374.65 305.02 374.65 242.53 362.1 127.54 362.1 171.32 374.65 187.53 374.65" style="fill: rgb(255, 193, 0); transform-origin: 216.28px 368.375px;" id="els0tgmm45no" class="animable"></polyline><g style="clip-path: url(&quot;#freepik--clip-path-2--inject-213&quot;); transform-origin: 216.28px 368.375px;" id="el8k8l9soax2a" class="animable"><g id="elr293c7v90so"><polygon points="127.54 362.1 171.32 374.65 305.02 374.65 242.53 362.1 127.54 362.1" style="fill-opacity: 0.7; opacity: 0.3; transform-origin: 216.28px 368.375px;" class="animable"></polygon></g></g><polyline points="192.8 374.65 305.02 374.65 242.53 362.1 127.54 362.1 171.32 374.65 187.53 374.65" style="fill: none; stroke: rgb(38, 50, 56); stroke-linecap: round; stroke-linejoin: round; transform-origin: 216.28px 368.375px;" id="elwuij4quooh" class="animable"></polyline><line x1="171.32" y1="377.42" x2="171.32" y2="379.08" style="fill: none; stroke: rgb(38, 50, 56); stroke-linecap: round; stroke-linejoin: round; transform-origin: 171.32px 378.25px;" id="elq3ny8xujzgi" class="animable"></line><path d="M132.38,367.28a12.93,12.93,0,0,1,.42,3.31c0,4.69-2.42,8.49-5.4,8.49s-5.41-3.8-5.41-8.49,2.42-8.49,5.41-8.49c1.65,0,3.12,1.16,4.12,3" style="fill: rgb(255, 193, 0); stroke: rgb(38, 50, 56); stroke-linecap: round; stroke-linejoin: round; transform-origin: 127.395px 370.59px;" id="elzykhuggx4oi" class="animable"></path><path d="M104.44,388.53c76.56.47,154.56.47,232,0" style="fill: rgb(255, 255, 255); stroke: rgb(38, 50, 56); stroke-linecap: round; stroke-linejoin: round; transform-origin: 220.44px 388.706px;" id="elruh71t2e56" class="animable"></path><path d="M85.88,388.53a45.78,45.78,0,0,0,11.34,0" style="fill: rgb(255, 255, 255); stroke: rgb(38, 50, 56); stroke-linecap: round; stroke-linejoin: round; transform-origin: 91.55px 388.706px;" id="ellviv9tzdxzp" class="animable"></path><path d="M197.19,400.49c45.81-.49,90.81-.49,136.58,0" style="fill: rgb(255, 255, 255); stroke: rgb(38, 50, 56); stroke-linecap: round; stroke-linejoin: round; transform-origin: 265.48px 400.306px;" id="el7rtl3umpb7" class="animable"></path><path d="M109.59,400.49c24.41-.49,48.41-.49,72.13,0" style="fill: rgb(255, 255, 255); stroke: rgb(38, 50, 56); stroke-linecap: round; stroke-linejoin: round; transform-origin: 145.655px 400.306px;" id="elj9w7ijmcako" class="animable"></path></g><g id="freepik--Character--inject-213" class="animable" style="transform-origin: 298.35px 315.35px;"><path d="M306.11,270.05a36.73,36.73,0,0,1-12.36.8l-1.43-.19c-5.25-.79-5.38-6.29-9.29-27.36-1.12-6,2.91-13.85.58-22.88-.49-1.91,2.63-16.22,6.91-20.85,13.93-15.06,45.94-12.23,51.34,8C349.78,237.14,329.66,264.53,306.11,270.05Z" style="fill: rgb(255, 255, 255); stroke: rgb(38, 50, 56); stroke-linecap: round; stroke-linejoin: round; transform-origin: 313.222px 230.538px;" id="elpgvh8ab45e" class="animable"></path><path d="M298.37,259.26c-.31,3.21-8.6,9.27-6.05,11.4" style="fill: none; stroke: rgb(38, 50, 56); stroke-linecap: round; stroke-linejoin: round; transform-origin: 295.102px 264.96px;" id="elgy94a0ftgtq" class="animable"></path><path d="M306.11,270.05a36.73,36.73,0,0,1-12.36.8,24.17,24.17,0,0,0,8.73-6Z" style="fill: rgb(38, 50, 56); transform-origin: 299.93px 267.951px;" id="elqbqtfs4iso" class="animable"></path><path d="M153.77,359.75a11,11,0,0,0,0,4.3,1.36,1.36,0,0,0,2.64,0,22.62,22.62,0,0,1,2.11-4.3" style="fill: rgb(255, 255, 255); stroke: rgb(38, 50, 56); stroke-linecap: round; stroke-linejoin: round; transform-origin: 156.039px 362.416px;" id="el3ko694u8tqo" class="animable"></path><path d="M237.89,363.46s-46.17-10.63-49.73-10.28-19.71-12.86-21.87-12.71S156,346.83,156,346.83L146.72,358l-2.6,6.51s1.33,3.33,5.34-1.4l6.57-3.39s11.62,10.68,23.43,8.9c0,0,49.36,28.34,58.7,27.36s40.91-32.87,40.91-32.87Z" style="fill: rgb(255, 255, 255); stroke: rgb(38, 50, 56); stroke-linecap: round; stroke-linejoin: round; transform-origin: 211.595px 368.237px;" id="elo7q3fpew64" class="animable"></path><path d="M301.55,266.9c2.86,2,6.29,10.28,3.3,19.46l37.54-2.87s-9.65-15.39-11.95-29.24-19.63-3.69-19.63-3.69" style="fill: rgb(255, 255, 255); stroke: rgb(38, 50, 56); stroke-linecap: round; stroke-linejoin: round; transform-origin: 321.97px 266.664px;" id="el6zcuip4n2sm" class="animable"></path><path d="M350.43,215.1c-3.57-21.38-18-28.88-32.5-28.32l-5.68-.75c-22-2.91-32.61,6.49-34.37,15.36-1.28,6.4,1.48,15.3,14,19.48a11.5,11.5,0,0,1-2-8.8,29.62,29.62,0,0,0,2.4,5c4.19,7.08,4.93,10.53,5.38,13.11l1.13,1.11c.55-3,2-7,5.68-4.07,6.66,5.35,3.62,18.76.77,22.89,0,0,6.06,14.42,25.43,11.39C330.66,261.53,354,236.48,350.43,215.1Z" style="fill: rgb(38, 50, 56); transform-origin: 314.198px 223.705px;" id="elfwpt53fa0g" class="animable"></path><path d="M300.88,233.09s-1.69-9.21,1.2-8.69,4.71,10.17,3.62,15.76-3.61,10.84-5.63,9,1-4.49,1-4.49" style="fill: rgb(255, 255, 255); stroke: rgb(38, 50, 56); stroke-linecap: round; stroke-linejoin: round; transform-origin: 302.697px 236.957px;" id="eljx3mkejshm" class="animable"></path><path d="M404,387.86c-20.28,23.59-48.23,40.06-79,49.59q-9.54,3-19.4,5-2.64.55-5.3,1-5.49,1-11,1.76c-1.84-22.11-6.67-45-10.54-66.3-.81-4.49-1.58-8.92-2.28-13.25-.13-.86-.27-1.72-.4-2.57-1.25-8.16-2.19-16-2.58-23.32-1.1-21.33,2.53-38.61,17-48.29a43.58,43.58,0,0,1,11-5.19h0c.18-.16,1.65-1.36,4-3,6.27-4.22,18.93-11.26,31.56-9.54.57.08,1.14.17,1.71.29a26.23,26.23,0,0,1,6.8,2.37,77.38,77.38,0,0,1,19.4,6.23c6.78,3.26,13.78,8.07,18.22,15C390.18,308.51,398.64,354.85,404,387.86Z" style="fill: rgb(153, 153, 153); transform-origin: 338.658px 359.347px;" id="eldpxbwozvxh" class="animable"></path><g style="clip-path: url(&quot;#freepik--clip-path-3--inject-213&quot;); transform-origin: 339.83px 358.995px;" id="elegpyv0rz2ih" class="animable"><g id="elfrwlm7lpwn"><path d="M312.34,344.19s-5.87,31.86-17,41.49c0,0-4.55,10-12.92,13.14-1.24-6.71-2.51-13.35-3.69-19.84-.81-4.49-1.58-8.92-2.28-13.25-.13-.86-.27-1.72-.4-2.57s-.27-1.75-.39-2.62Z" style="fill-opacity: 0.7; opacity: 0.3; transform-origin: 294px 371.505px;" class="animable"></path></g><g id="el2df8o51p03o"><path d="M404,387.86c-20.28,23.59-48.23,40.06-79,49.59q-9.54,3-19.4,5-2.64.55-5.3,1c-1.59.3-3.18.57-4.78.83,1.62-18.25,4.84-44.86,10.08-48.31,0,0,4.1-29,8.44-43.73,8.55-29.06-4.33-57.55,21.22-69.66a81.24,81.24,0,0,1-22.76-.48c4.49-3.45,14.36-6.43,24.23-8.39h0l.43.05c.57.08,1.14.17,1.71.29a26.23,26.23,0,0,1,6.8,2.37,77.38,77.38,0,0,1,19.4,6.23c6.78,3.26,13.78,8.07,18.22,15C390.18,308.51,398.64,354.85,404,387.86Z" style="fill-opacity: 0.7; opacity: 0.3; transform-origin: 349.76px 358.995px;" class="animable"></path></g></g><path d="M404,387.86c-20.28,23.59-48.23,40.06-79,49.59q-9.54,3-19.4,5-2.64.55-5.3,1-5.49,1-11,1.76c-1.84-22.11-6.67-45-10.54-66.3-.81-4.49-1.58-8.92-2.28-13.25-.13-.86-.27-1.72-.4-2.57-1.25-8.16-2.19-16-2.58-23.32-1.1-21.33,2.53-38.61,17-48.29a43.58,43.58,0,0,1,11-5.19h0c.18-.16,1.65-1.36,4-3,6.27-4.22,18.93-11.26,31.56-9.54.57.08,1.14.17,1.71.29a26.23,26.23,0,0,1,6.8,2.37,77.38,77.38,0,0,1,19.4,6.23c6.78,3.26,13.78,8.07,18.22,15C390.18,308.51,398.64,354.85,404,387.86Z" style="fill: none; stroke: rgb(38, 50, 56); stroke-linecap: round; stroke-linejoin: round; transform-origin: 338.658px 359.347px;" id="elsaqwnxfnwma" class="animable"></path><path d="M290.28,291.26c-24.22,5.75-31.52,35.47-43.21,44.35a75.53,75.53,0,0,0-18.09,20s-10.4,1.74-10.4,5.52-3.46,24.46,17.37,30.35,26.89-2.64,26.89-2.64,35.5-21.07,42-29.81a43.82,43.82,0,0,0,5.72-43.78" style="fill: rgb(153, 153, 153); transform-origin: 266.175px 342.407px;" id="elzsclukaogeg" class="animable"></path><g style="clip-path: url(&quot;#freepik--clip-path-4--inject-213&quot;); transform-origin: 239.646px 369.314px;" id="elubvq0c88uia" class="animable"><g id="eln63mc6y9z5j"><path d="M256.31,383.77c-32.33,4.93-34.15-16.06-33.13-26.57a34.76,34.76,0,0,1,5.8-1.56s.32-.56,1-1.52C226.49,371.07,256.31,383.77,256.31,383.77Z" style="fill-opacity: 0.7; opacity: 0.3; transform-origin: 239.646px 369.314px;" class="animable"></path></g></g><path d="M290.28,291.26c-24.22,5.75-31.52,35.47-43.21,44.35a75.53,75.53,0,0,0-18.09,20s-10.4,1.74-10.4,5.52-3.46,24.46,17.37,30.35,26.89-2.64,26.89-2.64,35.5-21.07,42-29.81a43.82,43.82,0,0,0,5.72-43.78" style="fill: none; stroke: rgb(38, 50, 56); stroke-linecap: round; stroke-linejoin: round; transform-origin: 266.175px 342.407px;" id="elpnydxcbhc4" class="animable"></path><path d="M155.35,356.58s-.53-3.69,0-5.14,3-1.06,3.3-2.64,1.58-4.61,3.3-4.61,3.16-1.77,3.16-1.77" style="fill: none; stroke: rgb(38, 50, 56); stroke-linecap: round; stroke-linejoin: round; transform-origin: 160.112px 349.5px;" id="eli35ycatnd1a" class="animable"></path><path d="M146.72,358s5.65-4,7.05-4.88" style="fill: none; stroke: rgb(38, 50, 56); stroke-linecap: round; stroke-linejoin: round; transform-origin: 150.245px 355.56px;" id="el6wm27k8ggho" class="animable"></path><path d="M307,336.27s-43.35,10.39-56.48-4" style="fill: none; stroke: rgb(38, 50, 56); stroke-linecap: round; stroke-linejoin: round; transform-origin: 278.76px 336.084px;" id="elveslsudjhyd" class="animable"></path><path d="M229,355.64s-3.87,13,6,21,22.55,7.15,22.55,7.15" style="fill: none; stroke: rgb(38, 50, 56); stroke-linecap: round; stroke-linejoin: round; transform-origin: 242.901px 369.728px;" id="el75jun4rr3oo" class="animable"></path><path d="M301.55,286.36s27.91-12.25,44.13-9.87" style="fill: none; stroke: rgb(38, 50, 56); stroke-linecap: round; stroke-linejoin: round; transform-origin: 323.615px 281.272px;" id="elw1ke7myxoct" class="animable"></path><path d="M318.47,344.19s-7.72,19.29-24.23,24.18" style="fill: none; stroke: rgb(38, 50, 56); stroke-linecap: round; stroke-linejoin: round; transform-origin: 306.355px 356.28px;" id="el7y2wr6ccpj9" class="animable"></path><path d="M286.76,373.66s11.93,25.12,39.43,29.47" style="fill: none; stroke: rgb(38, 50, 56); stroke-linecap: round; stroke-linejoin: round; transform-origin: 306.475px 388.395px;" id="elivb88qavkni" class="animable"></path><path d="M305.6,442.47c-.43-4.93-1-11-1.7-16.82h0c-1.06-9-2.33-17.46-3.63-20.13-3.16-6.53-2.51-17.11-2.51-17.11-4.49-6-3.52-17.81-3.52-17.81" style="fill: none; stroke: rgb(38, 50, 56); stroke-linecap: round; stroke-linejoin: round; transform-origin: 299.876px 406.535px;" id="eldo7417tta07" class="animable"></path><g id="ellqaoeimplcs"><g style="opacity: 0.4; transform-origin: 312.637px 206.645px;" class="animable"><path d="M321.09,221a31.07,31.07,0,0,0,6.23,1.49" style="fill: none; stroke: rgb(255, 255, 255); stroke-linecap: round; stroke-linejoin: round; transform-origin: 324.205px 221.745px;" id="elh38c7bgryjn" class="animable"></path><path d="M299.63,188.41c-6.06,2.6-8.81,10.37-5.31,15.73,5.3,7.54,14,11.39,22.36,15.25" style="fill: none; stroke: rgb(255, 255, 255); stroke-linecap: round; stroke-linejoin: round; transform-origin: 304.729px 203.9px;" id="ell7fstyqxfda" class="animable"></path><path d="M290.43,190.78c-8.84,4.17-11.53,12.69-4.86,20.35" style="fill: none; stroke: rgb(255, 255, 255); stroke-linecap: round; stroke-linejoin: round; transform-origin: 286.137px 200.955px;" id="elpdgrpkfiwcl" class="animable"></path><path d="M341,220.82a18.36,18.36,0,0,1,2.43,4.06" style="fill: none; stroke: rgb(255, 255, 255); stroke-linecap: round; stroke-linejoin: round; transform-origin: 342.215px 222.85px;" id="elkcll00u1up8" class="animable"></path><path d="M319.62,192.19c-3.85,12.91,12.48,18.74,19.34,26.17" style="fill: none; stroke: rgb(255, 255, 255); stroke-linecap: round; stroke-linejoin: round; transform-origin: 329px 205.275px;" id="elcmiqhe4ogna" class="animable"></path></g></g><path d="M452.58,272c-.18,1.29-.36,2.57-.56,3.86C446.08,315,430.31,353.4,409.56,381q-2.67,3.56-5.57,6.91c-20.28,23.59-48.23,40.06-79,49.59q-9.54,3-19.4,5-2.64.55-5.3,1c1.05-5.18,2.26-11.22,3.6-17.87h0c1.73-8.62,3.66-18.25,5.67-28.29,8.82-44.11,19.16-96.22,20.77-106.09a43.28,43.28,0,0,1,1.67-7,22.39,22.39,0,0,1,4.43-7.86c.42-.46.86-.91,1.33-1.35s.73-.64,1.11-.95c7-5.58,19.4-8,41.86-7.67,38.72.61,60.63-6.93,71.59,5.24A3.92,3.92,0,0,1,452.58,272Z" style="fill: rgb(255, 193, 0); transform-origin: 376.435px 354.083px;" id="ele5s73m69pmv" class="animable"></path><g style="clip-path: url(&quot;#freepik--clip-path-5--inject-213&quot;); transform-origin: 388.495px 356.62px;" id="el7uhqxplon0g" class="animable"><g id="elana89ymd6y"><path d="M452,275.87C446.08,315,430.31,353.4,409.56,381q-2.67,3.56-5.57,6.91c-20.28,23.59-48.23,40.06-79,49.59,7.83-33.56,28.37-121.93,30.92-137.34,1.67-10,4.64-15,9.16-17.39,4.08-2.18,9.41-2.31,16.16-2.28C391.63,280.48,427.86,274.82,452,275.87Z" style="fill-opacity: 0.7; opacity: 0.3; transform-origin: 388.495px 356.62px;" class="animable"></path></g></g><path d="M452.58,272c-.18,1.29-.36,2.57-.56,3.86C446.08,315,430.31,353.4,409.56,381q-2.67,3.56-5.57,6.91c-20.28,23.59-48.23,40.06-79,49.59q-9.54,3-19.4,5-2.64.55-5.3,1c1.05-5.18,2.26-11.22,3.6-17.87h0c1.73-8.62,3.66-18.25,5.67-28.29,8.82-44.11,19.16-96.22,20.77-106.09a43.28,43.28,0,0,1,1.67-7,22.39,22.39,0,0,1,4.43-7.86c.42-.46.86-.91,1.33-1.35s.73-.64,1.11-.95c7-5.58,19.4-8,41.86-7.67,38.72.61,60.63-6.93,71.59,5.24A3.92,3.92,0,0,1,452.58,272Z" style="fill: none; stroke: rgb(38, 50, 56); stroke-linecap: round; stroke-linejoin: round; transform-origin: 376.435px 354.083px;" id="elurg3imb03p" class="animable"></path><path d="M434.88,275.92c3.65-.15,7.31-.23,11-.2" style="fill: none; stroke: rgb(38, 50, 56); stroke-linecap: round; stroke-linejoin: round; transform-origin: 440.38px 275.817px;" id="elv0p96b0suvk" class="animable"></path><path d="M428,276.3l3.42-.21" style="fill: none; stroke: rgb(38, 50, 56); stroke-linecap: round; stroke-linejoin: round; transform-origin: 429.71px 276.195px;" id="el22lonlbpvts" class="animable"></path><path d="M338.13,381c5.35-22.49,10.82-45,15-67.71,1.53-8.28,1.92-18.1,6.72-25.33,5.71-8.61,16-7.3,25-7.7,13-.58,26-2.64,39-3.66" style="fill: none; stroke: rgb(38, 50, 56); stroke-linecap: round; stroke-linejoin: round; transform-origin: 380.99px 328.8px;" id="elnknqefx1amm" class="animable"></path><path d="M336.09,389.67c.36-1.56.72-3.11,1.09-4.67" style="fill: none; stroke: rgb(38, 50, 56); stroke-linecap: round; stroke-linejoin: round; transform-origin: 336.635px 387.335px;" id="elgnfxsozo5j" class="animable"></path><path d="M325,437.45q4.42-18.94,8.8-37.89" style="fill: none; stroke: rgb(38, 50, 56); stroke-linecap: round; stroke-linejoin: round; transform-origin: 329.4px 418.505px;" id="el3oci0jhaxsq" class="animable"></path></g><defs>     <filter id="active" height="200%">         <feMorphology in="SourceAlpha" result="DILATED" operator="dilate" radius="2"></feMorphology>                <feFlood flood-color="#32DFEC" flood-opacity="1" result="PINK"></feFlood>        <feComposite in="PINK" in2="DILATED" operator="in" result="OUTLINE"></feComposite>        <feMerge>            <feMergeNode in="OUTLINE"></feMergeNode>            <feMergeNode in="SourceGraphic"></feMergeNode>        </feMerge>    </filter>    <filter id="hover" height="200%">        <feMorphology in="SourceAlpha" result="DILATED" operator="dilate" radius="2"></feMorphology>                <feFlood flood-color="#ff0000" flood-opacity="0.5" result="PINK"></feFlood>        <feComposite in="PINK" in2="DILATED" operator="in" result="OUTLINE"></feComposite>        <feMerge>            <feMergeNode in="OUTLINE"></feMergeNode>            <feMergeNode in="SourceGraphic"></feMergeNode>        </feMerge>            <feColorMatrix type="matrix" values="0   0   0   0   0                0   1   0   0   0                0   0   0   0   0                0   0   0   1   0 "></feColorMatrix>    </filter></defs><defs><clipPath id="freepik--clip-path--inject-213"><path d="M201.37,359.4v3.11a1.54,1.54,0,0,1-1.54,1.54H139.37a4.64,4.64,0,0,1-4.48-5.84L142,331.7l9.83-36.92h30.74l1.06,16.56,1.39,21.5,1.15,17.93a7.56,7.56,0,0,0,7.55,7.09h6.16A1.54,1.54,0,0,1,201.37,359.4Z" style="fill:#FFC100;stroke:#263238;stroke-linecap:round;stroke-linejoin:round"></path></clipPath><clipPath id="freepik--clip-path-2--inject-213"><polyline points="192.8 374.65 305.02 374.65 242.53 362.1 127.54 362.1 171.32 374.65 187.53 374.65" style="fill:#FFC100;stroke:#263238;stroke-linecap:round;stroke-linejoin:round"></polyline></clipPath><clipPath id="freepik--clip-path-3--inject-213"><path d="M404,387.86c-20.28,23.59-48.23,40.06-79,49.59q-9.54,3-19.4,5-2.64.55-5.3,1-5.49,1-11,1.76c-1.84-22.11-6.67-45-10.54-66.3-.81-4.49-1.58-8.92-2.28-13.25-.13-.86-.27-1.72-.4-2.57-1.25-8.16-2.19-16-2.58-23.32-1.1-21.33,2.53-38.61,17-48.29a43.58,43.58,0,0,1,11-5.19h0c.18-.16,1.65-1.36,4-3,6.27-4.22,18.93-11.26,31.56-9.54.57.08,1.14.17,1.71.29a26.23,26.23,0,0,1,6.8,2.37,77.38,77.38,0,0,1,19.4,6.23c6.78,3.26,13.78,8.07,18.22,15C390.18,308.51,398.64,354.85,404,387.86Z" style="fill:#999;stroke:#263238;stroke-linecap:round;stroke-linejoin:round"></path></clipPath><clipPath id="freepik--clip-path-4--inject-213"><path d="M290.28,291.26c-24.22,5.75-31.52,35.47-43.21,44.35a75.53,75.53,0,0,0-18.09,20s-10.4,1.74-10.4,5.52-3.46,24.46,17.37,30.35,26.89-2.64,26.89-2.64,35.5-21.07,42-29.81a43.82,43.82,0,0,0,5.72-43.78" style="fill:#999;stroke:#263238;stroke-linecap:round;stroke-linejoin:round"></path></clipPath><clipPath id="freepik--clip-path-5--inject-213"><path d="M452.58,272c-.18,1.29-.36,2.57-.56,3.86C446.08,315,430.31,353.4,409.56,381q-2.67,3.56-5.57,6.91c-20.28,23.59-48.23,40.06-79,49.59q-9.54,3-19.4,5-2.64.55-5.3,1c1.05-5.18,2.26-11.22,3.6-17.87h0c1.73-8.62,3.66-18.25,5.67-28.29,8.82-44.11,19.16-96.22,20.77-106.09a43.28,43.28,0,0,1,1.67-7,22.39,22.39,0,0,1,4.43-7.86c.42-.46.86-.91,1.33-1.35s.73-.64,1.11-.95c7-5.58,19.4-8,41.86-7.67,38.72.61,60.63-6.93,71.59,5.24A3.92,3.92,0,0,1,452.58,272Z" style="fill:#FFC100;stroke:#263238;stroke-linecap:round;stroke-linejoin:round"></path></clipPath></defs></svg>