<svg class="animated" id="freepik_stories-business-challenge" xmlns="http://www.w3.org/2000/svg" viewBox="0 0 750 500" version="1.1" xmlns:xlink="http://www.w3.org/1999/xlink" xmlns:svgjs="http://svgjs.com/svgjs"><style>svg#freepik_stories-business-challenge:not(.animated) .animable {opacity: 0;}svg#freepik_stories-business-challenge.animated #freepik--background-simple--inject-130 {animation: 1.5s Infinite  linear wind;animation-delay: 0s;}svg#freepik_stories-business-challenge.animated #freepik--Bars--inject-130 {animation: 1.5s Infinite  linear floating;animation-delay: 0s;}svg#freepik_stories-business-challenge.animated #freepik--Clouds--inject-130 {animation: 1.5s Infinite  linear heartbeat;animation-delay: 0s;}svg#freepik_stories-business-challenge.animated #freepik--Character--inject-130 {animation: 1.5s Infinite  linear shake;animation-delay: 0s;}svg#freepik_stories-business-challenge.animated #freepik--Trophy--inject-130 {animation: 1.5s Infinite  linear heartbeat;animation-delay: 0s;}            @keyframes wind {                0% {                    transform: rotate( 0deg );                }                25% {                    transform: rotate( 1deg );                }                75% {                    transform: rotate( -1deg );                }            }                    @keyframes floating {                0% {                    opacity: 1;                    transform: translateY(0px);                }                50% {                    transform: translateY(-10px);                }                100% {                    opacity: 1;                    transform: translateY(0px);                }            }                    @keyframes heartbeat {                0% {                    transform: scale(1);                }                10% {                    transform: scale(1.1);                }                30% {                    transform: scale(1);                }                40% {                    transform: scale(1);                }                50% {                    transform: scale(1.1);                }                60% {                    transform: scale(1);                }                100% {                    transform: scale(1);                }            }                    @keyframes shake {                10%, 90% {                    transform: translate3d(-1px, 0, 0);                  }                  20%, 80% {                    transform: translate3d(2px, 0, 0);                  }                  30%, 50%, 70% {                    transform: translate3d(-4px, 0, 0);                  }                  40%, 60% {                    transform: translate3d(4px, 0, 0);                  }            }        </style><g id="freepik--background-simple--inject-130" class="animable" style="transform-origin: 380.561px 249.864px;"><path d="M710.83,310.16c-9.14-43.26-27.66-85.6-49.94-123.67C624.71,124.68,570.65,70.31,498.72,54.13,335.73,17.46,300.69,178,264,199.19S136.06,209,86.35,276.62s-44,174.4-44,174.4H718C719.49,403.82,720.58,356.23,710.83,310.16Z" style="fill: rgb(255, 193, 0); transform-origin: 380.561px 249.864px;" id="el7yzlun3sugo" class="animable"></path><g id="eladfobw9jx0m"><path d="M710.83,310.16c-9.14-43.26-27.66-85.6-49.94-123.67C624.71,124.68,570.65,70.31,498.72,54.13,335.73,17.46,300.69,178,264,199.19S136.06,209,86.35,276.62s-44,174.4-44,174.4H718C719.49,403.82,720.58,356.23,710.83,310.16Z" style="fill: rgb(255, 255, 255); opacity: 0.7; transform-origin: 380.561px 249.864px;" class="animable"></path></g></g><g id="freepik--Floor--inject-130" class="animable" style="transform-origin: 373.095px 450.8px;"><line x1="705.72" y1="450.8" x2="726.67" y2="450.8" style="fill: rgb(255, 255, 255); stroke: rgb(38, 50, 56); stroke-miterlimit: 10; transform-origin: 716.195px 450.8px;" id="el2u1pg0fw2t9" class="animable"></line><line x1="86.35" y1="450.8" x2="697.57" y2="450.8" style="fill: rgb(255, 255, 255); stroke: rgb(38, 50, 56); stroke-miterlimit: 10; transform-origin: 391.96px 450.8px;" id="elmmom1ky418" class="animable"></line><line x1="19.52" y1="450.8" x2="77.38" y2="450.8" style="fill: rgb(255, 255, 255); stroke: rgb(38, 50, 56); stroke-miterlimit: 10; transform-origin: 48.45px 450.8px;" id="el870nqxekrpe" class="animable"></line></g><g id="freepik--Plants--inject-130" class="animable" style="transform-origin: 376.595px 257.905px;"><g id="el0jl1chly3c"><g style="opacity: 0.15; transform-origin: 319.42px 257.905px;" class="animable"><path d="M326.22,450.39c-.06-.32-6.05-33.14-8.53-78.36-2.29-41.7-2.72-101,11.74-155.17l-1.41-2.4c-8,30.08-16.72,81.86-12.55,157.73C318,417.55,324,450.47,324,450.8Z" id="el6nqfuedte6s" class="animable" style="transform-origin: 321.911px 332.63px;"></path><path d="M350.89,251.78c-16.78,6.17-26.81,12.08-32.15,15.82.63-6.61,5.07-22.28,30.72-40.62C390.1,197.92,469,222.71,487.4,229.1,447,230.79,393.28,236.2,350.89,251.78Z" id="ellwtqsjmvi6" class="animable" style="transform-origin: 403.07px 240.379px;"></path><path d="M351.57,253.11c43.5-16,99-21.17,139.57-22.67l.18.07s-45.07,41.07-99.85,50.15S318.74,271,318.74,271a10.8,10.8,0,0,1-.09-1.43C323.64,265.91,333.89,259.6,351.57,253.11Z" id="elt1ifr07dwf" class="animable" style="transform-origin: 404.985px 256.792px;"></path><path d="M293.52,276.55c12.26,8.18,19.17,14.86,22.72,18.88.78-5.42.25-18.84-16.78-38.5-27-31.15-95-26.51-111-24.94C220.47,241.14,262.54,255.86,293.52,276.55Z" id="elxanauauflvp" class="animable" style="transform-origin: 252.456px 263.113px;"></path><path d="M292.71,277.48c-31.79-21.19-75.31-36.1-107.53-45.14l-.16,0S213.23,274,255.4,291.87s60.2,6.25,60.2,6.25a8.09,8.09,0,0,0,.34-1.13C312.64,293.13,305.64,286.1,292.71,277.48Z" id="el1umj0xi5ecs" class="animable" style="transform-origin: 250.48px 267.087px;"></path><path d="M341.21,376.36c-12.26,8.18-19.16,14.86-22.72,18.89-.77-5.43-.24-18.85,16.79-38.51,27-31.15,95-26.5,111-24.94C414.27,341,372.2,355.67,341.21,376.36Z" id="el9be2ktecjm9" class="animable" style="transform-origin: 382.281px 362.931px;"></path><path d="M342,377.29c31.8-21.19,75.31-36.1,107.54-45.13l.15,0s-28.2,41.64-70.37,59.5-60.2,6.26-60.2,6.26a7.57,7.57,0,0,1-.35-1.14C322.1,393,329.09,385.91,342,377.29Z" id="elpx0p0i00vkk" class="animable" style="transform-origin: 384.23px 366.892px;"></path><path d="M285.22,345.93c16.09,7.77,25.5,14.63,30.45,18.86,0-6.64-2.87-22.67-26.62-43.41-37.62-32.88-118.56-15.88-137.49-11.31C191.56,315.67,244.54,326.29,285.22,345.93Z" id="els7ciloaw3df" class="animable" style="transform-origin: 233.615px 333.197px;"></path><path d="M284.4,347.18c-41.73-20.1-96.48-30.7-136.69-36.14l-.19,0s40.86,45.26,94.49,59.63,73.34-2.59,73.34-2.59a9.84,9.84,0,0,0,.22-1.42C311,362.63,301.38,355.36,284.4,347.18Z" id="el4vcn6hohwky" class="animable" style="transform-origin: 231.545px 343.744px;"></path><path d="M338.85,181.3c-7.11,16.39-9.76,27.73-10.74,34.17-4.35-5-12.63-19-8.19-50.26,7-49.47,79.43-89.44,96.75-98.34C390,97.23,356.84,139.87,338.85,181.3Z" id="el3t7w5yr0mqo" class="animable" style="transform-origin: 367.66px 141.17px;"></path><path d="M340.29,181.72c18.48-42.48,53-86.26,79.93-116.63l.17-.08S419,126,387.76,171.87s-57.23,45.92-57.23,45.92a10.65,10.65,0,0,1-1.1-.93C330.27,210.76,332.77,199,340.29,181.72Z" id="elz3akqqcho5g" class="animable" style="transform-origin: 374.91px 141.4px;"></path></g></g><g id="el5abt5vso1vt"><g style="opacity: 0.15; transform-origin: 526.12px 335.715px;" class="animable"><path d="M530.17,450.56a417.25,417.25,0,0,1-5.09-46.77c-1.36-24.88-1.62-60.25,7-92.59l-.84-1.43c-4.79,17.94-10,48.84-7.49,94.12a411.3,411.3,0,0,0,5.11,46.91Z" id="elic5mfxyb93" class="animable" style="transform-origin: 527.589px 380.285px;"></path><path d="M544.89,332c-10,3.68-16,7.21-19.18,9.43.38-3.94,3-13.29,18.33-24.24,24.26-17.34,71.34-2.54,82.32,1.27C602.27,319.51,570.19,322.74,544.89,332Z" id="el1lwu6py8ked" class="animable" style="transform-origin: 576.035px 325.187px;"></path><path d="M545.3,332.83c26-9.52,59.09-12.63,83.29-13.53l.11,0s-26.9,24.51-59.59,29.93-43.4-5.8-43.4-5.8a5.58,5.58,0,0,1-.05-.85C528.64,340.46,534.75,336.7,545.3,332.83Z" id="elrkoi385fog" class="animable" style="transform-origin: 577.18px 335.005px;"></path><path d="M510.66,346.81a69.69,69.69,0,0,1,13.56,11.27c.46-3.23.15-11.24-10-23-16.1-18.59-56.71-15.82-66.25-14.88C467.07,325.68,492.17,334.47,510.66,346.81Z" id="elq41mdsv006d" class="animable" style="transform-origin: 486.157px 338.783px;"></path><path d="M510.18,347.37c-19-12.64-44.94-21.54-64.17-26.93h-.1s16.84,24.85,42,35.51,35.93,3.73,35.93,3.73a5.94,5.94,0,0,0,.2-.68C522.07,356.71,517.9,352.51,510.18,347.37Z" id="eld55413tqwx" class="animable" style="transform-origin: 484.975px 341.167px;"></path><path d="M539.12,406.38a70,70,0,0,0-13.56,11.27c-.46-3.24-.14-11.25,10-23,16.1-18.59,56.71-15.82,66.25-14.88C582.72,385.25,557.61,394,539.12,406.38Z" id="elb5vccyccxf" class="animable" style="transform-origin: 563.623px 398.353px;"></path><path d="M539.6,406.93c19-12.64,44.95-21.54,64.18-26.93h.09s-16.83,24.85-42,35.51S526,419.25,526,419.25a4.74,4.74,0,0,1-.21-.67C527.71,416.27,531.89,412.08,539.6,406.93Z" id="el9n0mwvlmbic" class="animable" style="transform-origin: 564.83px 400.729px;"></path><path d="M505.71,388.22c9.6,4.63,15.22,8.73,18.17,11.25,0-4-1.71-13.52-15.89-25.9-22.45-19.62-70.74-9.48-82-6.75C449.82,370.16,481.43,376.5,505.71,388.22Z" id="el2hy7wj7uu3c" class="animable" style="transform-origin: 474.935px 380.619px;"></path><path d="M505.22,389c-24.9-12-57.58-18.33-81.57-21.57l-.11,0s24.38,27,56.38,35.58,43.77-1.54,43.77-1.54a7.94,7.94,0,0,0,.13-.85C521.07,398.19,515.35,393.85,505.22,389Z" id="ellitoxy45j9" class="animable" style="transform-origin: 473.68px 386.946px;"></path><path d="M537.71,290c-4.24,9.78-5.82,16.55-6.41,20.39-2.6-3-7.54-11.37-4.89-30,4.2-29.51,47.4-53.37,57.74-58.68C568.26,239.81,548.45,265.25,537.71,290Z" id="ela75uubph5zk" class="animable" style="transform-origin: 554.901px 266.05px;"></path><path d="M538.57,290.23c11-25.35,31.65-51.48,47.7-69.6l.1,0s-.83,36.38-19.47,63.77-34.15,27.4-34.15,27.4a6.38,6.38,0,0,1-.66-.55C532.59,307.56,534.08,300.54,538.57,290.23Z" id="elyte8r4wffe" class="animable" style="transform-origin: 559.23px 266.215px;"></path></g></g><g id="elk47tna08o3m"><g style="opacity: 0.15; transform-origin: 650.86px 363.73px;" class="animable"><path d="M653.93,450.62a314.66,314.66,0,0,1-3.85-35.38c-1-18.83-1.23-45.59,5.3-70.06l-.63-1.08c-3.63,13.57-7.55,36.95-5.67,71.21a315.1,315.1,0,0,0,3.86,35.49Z" id="el73lvhjq6vop" class="animable" style="transform-origin: 651.987px 397.45px;"></path><path d="M665.07,361a64.08,64.08,0,0,0-14.51,7.13c.28-3,2.28-10.05,13.87-18.33,18.35-13.12,54-1.93,62.28.95C708.48,351.47,684.21,353.91,665.07,361Z" id="el9a3ccm12ojo" class="animable" style="transform-origin: 688.635px 355.844px;"></path><path d="M665.38,361.55c19.64-7.21,44.71-9.56,63-10.24l.08,0S708.12,369.88,683.4,374s-32.84-4.38-32.84-4.38a4.21,4.21,0,0,1,0-.65C652.77,367.32,657.4,364.47,665.38,361.55Z" id="elt0e25w20svh" class="animable" style="transform-origin: 689.504px 363.219px;"></path><path d="M639.17,372.13a52.78,52.78,0,0,1,10.26,8.52c.35-2.44.11-8.5-7.58-17.38-12.18-14.06-42.9-12-50.12-11.26C606.19,356.14,625.18,362.79,639.17,372.13Z" id="el8a217w7s7dh" class="animable" style="transform-origin: 620.627px 366.054px;"></path><path d="M638.81,372.55c-14.36-9.57-34-16.3-48.55-20.38h-.08S602.92,371,622,379s27.18,2.83,27.18,2.83.07-.18.16-.51A50.93,50.93,0,0,0,638.81,372.55Z" id="elgy0kzkgtb18" class="animable" style="transform-origin: 619.76px 367.822px;"></path><path d="M660.7,417.19a52.55,52.55,0,0,0-10.25,8.53c-.35-2.45-.11-8.51,7.57-17.39,12.19-14.06,42.91-12,50.13-11.26C693.69,401.2,674.69,407.85,660.7,417.19Z" id="elyvknnj5x2r" class="animable" style="transform-origin: 679.253px 411.119px;"></path><path d="M661.07,417.61c14.35-9.57,34-16.3,48.55-20.38h.07S697,416,677.92,424.11s-27.18,2.82-27.18,2.82a2.86,2.86,0,0,1-.16-.51A51,51,0,0,1,661.07,417.61Z" id="el431dgax7lkz" class="animable" style="transform-origin: 680.135px 412.928px;"></path><path d="M635.42,403.45A63.84,63.84,0,0,1,649.17,412c0-3-1.29-10.24-12-19.6-17-14.85-53.52-7.17-62.07-5.11C593.14,389.79,617.06,394.58,635.42,403.45Z" id="el17atvnzip8k" class="animable" style="transform-origin: 612.135px 397.734px;"></path><path d="M635.05,404c-18.84-9.08-43.56-13.87-61.71-16.32l-.08,0s18.44,20.44,42.66,26.92,33.1-1.17,33.1-1.17a4.91,4.91,0,0,0,.11-.64C647,411,642.72,407.71,635.05,404Z" id="eleip9ol0aspn" class="animable" style="transform-origin: 611.195px 402.443px;"></path><path d="M659.64,329.12a63.77,63.77,0,0,0-4.85,15.43c-2-2.26-5.7-8.6-3.7-22.69,3.17-22.33,35.86-40.38,43.68-44.4C682.75,291.17,667.76,310.42,659.64,329.12Z" id="el0ao6ryg1m3d" class="animable" style="transform-origin: 672.642px 311.005px;"></path><path d="M660.29,329.31c8.34-19.18,23.94-38.94,36.09-52.65l.07,0s-.63,27.52-14.73,48.25-25.65,20.47-25.65,20.47a.72.72,0,0,1-.69-.16C655.76,342.42,656.89,337.11,660.29,329.31Z" id="elb6x26uyu529" class="animable" style="transform-origin: 675.915px 311.035px;"></path></g></g><g id="el6udlfnqozd"><g style="opacity: 0.15; transform-origin: 102.33px 363.73px;" class="animable"><path d="M99.26,450.62a317.52,317.52,0,0,0,3.85-35.38c1-18.83,1.23-45.59-5.31-70.06l.64-1.08c3.63,13.57,7.55,36.95,5.67,71.21a313.52,313.52,0,0,1-3.87,35.49Z" id="elyxyrpk7d88n" class="animable" style="transform-origin: 101.198px 397.45px;"></path><path d="M88.12,361a64.08,64.08,0,0,1,14.51,7.13c-.28-3-2.29-10.05-13.87-18.33-18.35-13.12-54-1.93-62.28.95C44.7,351.47,69,353.91,88.12,361Z" id="elyhy9uemtpb" class="animable" style="transform-origin: 64.555px 355.844px;"></path><path d="M87.81,361.55c-19.64-7.21-44.71-9.56-63-10.24l-.08,0S45.06,369.88,69.79,374s32.84-4.38,32.84-4.38a4.21,4.21,0,0,0,0-.65C100.42,367.32,95.79,364.47,87.81,361.55Z" id="elfpkddpfmnjm" class="animable" style="transform-origin: 63.6863px 363.219px;"></path><path d="M114,372.13a52.46,52.46,0,0,0-10.26,8.52c-.35-2.44-.11-8.5,7.58-17.38,12.18-14.06,42.9-12,50.12-11.26C147,356.14,128,362.79,114,372.13Z" id="elco02p9q4g0m" class="animable" style="transform-origin: 132.543px 366.054px;"></path><path d="M114.38,372.55c14.36-9.57,34-16.3,48.55-20.38H163S150.27,371,131.23,379s-27.18,2.83-27.18,2.83-.07-.18-.16-.51A50.93,50.93,0,0,1,114.38,372.55Z" id="ela4ev5u2dhbv" class="animable" style="transform-origin: 133.445px 367.822px;"></path><path d="M92.48,417.19a52.39,52.39,0,0,1,10.26,8.53c.35-2.45.11-8.51-7.58-17.39C83,394.27,52.26,396.37,45,397.07,59.5,401.2,78.5,407.85,92.48,417.19Z" id="elu9nuqz0zhri" class="animable" style="transform-origin: 73.9173px 411.128px;"></path><path d="M92.12,417.61c-14.36-9.57-34-16.3-48.55-20.38H43.5S56.23,416,75.27,424.11s27.18,2.82,27.18,2.82a2.86,2.86,0,0,0,.16-.51A51,51,0,0,0,92.12,417.61Z" id="elhes5625f9oj" class="animable" style="transform-origin: 73.055px 412.928px;"></path><path d="M117.77,403.45A63.84,63.84,0,0,0,104,412c0-3,1.29-10.24,12-19.6,17-14.85,53.52-7.17,62.07-5.11C160.05,389.79,136.13,394.58,117.77,403.45Z" id="eltlmmrb32iej" class="animable" style="transform-origin: 141.035px 397.734px;"></path><path d="M118.13,404c18.85-9.08,43.57-13.87,61.72-16.32l.08,0s-18.44,20.44-42.66,26.92-33.11-1.17-33.11-1.17a4.22,4.22,0,0,1-.1-.64A62.08,62.08,0,0,1,118.13,404Z" id="el4fd4ag8n138" class="animable" style="transform-origin: 141.995px 402.443px;"></path><path d="M93.55,329.12a63.77,63.77,0,0,1,4.85,15.43c2-2.26,5.7-8.6,3.7-22.69-3.18-22.33-35.86-40.38-43.68-44.4C70.44,291.17,85.43,310.42,93.55,329.12Z" id="el9y69v22aylk" class="animable" style="transform-origin: 80.5476px 311.005px;"></path><path d="M92.9,329.31C84.56,310.13,69,290.37,56.81,276.66l-.07,0s.62,27.52,14.73,48.25S97.31,345.6,97.31,345.6a4.27,4.27,0,0,0,.49-.42C97.43,342.42,96.3,337.11,92.9,329.31Z" id="elh9wga14u2j5" class="animable" style="transform-origin: 77.27px 311.13px;"></path></g></g></g><g id="freepik--Bars--inject-130" class="animable" style="transform-origin: 431.715px 300.74px;"><rect x="546.75" y="150.68" width="70.05" height="300.12" style="fill: rgb(38, 50, 56); stroke: rgb(38, 50, 56); stroke-miterlimit: 10; transform-origin: 581.775px 300.74px;" id="ellv8yvig9id" class="animable"></rect><rect x="568.13" y="150.68" width="70.05" height="300.12" style="fill: rgb(255, 255, 255); stroke: rgb(38, 50, 56); stroke-miterlimit: 10; transform-origin: 603.155px 300.74px;" id="elp8kh57v4dv" class="animable"></rect><rect x="388.95" y="254.65" width="70.05" height="196.15" style="fill: rgb(38, 50, 56); stroke: rgb(38, 50, 56); stroke-miterlimit: 10; transform-origin: 423.975px 352.725px;" id="elmii71nabnh" class="animable"></rect><rect x="410.33" y="254.65" width="70.05" height="196.15" style="fill: rgb(255, 255, 255); stroke: rgb(38, 50, 56); stroke-miterlimit: 10; transform-origin: 445.355px 352.725px;" id="ellynx1qx7atn" class="animable"></rect><rect x="225.25" y="313.64" width="70.05" height="137.15" style="fill: rgb(38, 50, 56); stroke: rgb(38, 50, 56); stroke-miterlimit: 10; transform-origin: 260.275px 382.215px;" id="ela9gwr7an9ki" class="animable"></rect><rect x="246.63" y="313.64" width="70.05" height="137.15" style="fill: rgb(255, 255, 255); stroke: rgb(38, 50, 56); stroke-miterlimit: 10; transform-origin: 281.655px 382.215px;" id="elzzffzyvdp8c" class="animable"></rect></g><g id="freepik--Spikes--inject-130" class="animable" style="transform-origin: 443.445px 365.585px;"><line x1="330.27" y1="450.8" x2="330.27" y2="350.3" style="fill: none; stroke: rgb(38, 50, 56); stroke-miterlimit: 10; stroke-width: 4px; transform-origin: 330.27px 400.55px;" id="el7skb0be6one" class="animable"></line><path d="M330.27,354.46l-8.36,5.08-.19-.28,5.41-13.63q1.58-7.12,3.14-14.25,1.56,7.13,3.13,14.25l5.42,13.63-.15.28Z" style="fill: rgb(38, 50, 56); transform-origin: 330.27px 345.46px;" id="eluup6k1bdooc" class="animable"></path><line x1="352.87" y1="450.8" x2="352.87" y2="350.3" style="fill: none; stroke: rgb(38, 50, 56); stroke-miterlimit: 10; stroke-width: 4px; transform-origin: 352.87px 400.55px;" id="els2aflpzsuf" class="animable"></line><path d="M352.87,354.46l-8.36,5.08-.19-.28,5.41-13.63q1.57-7.12,3.14-14.25,1.56,7.13,3.13,14.25l5.41,13.63-.14.28Z" style="fill: rgb(38, 50, 56); transform-origin: 352.865px 345.46px;" id="eli271xk52uid" class="animable"></path><line x1="375.46" y1="450.8" x2="375.46" y2="350.3" style="fill: none; stroke: rgb(38, 50, 56); stroke-miterlimit: 10; stroke-width: 4px; transform-origin: 375.46px 400.55px;" id="elqqoyshy75y" class="animable"></line><path d="M375.46,354.46l-8.35,5.08-.19-.28,5.41-13.63q1.56-7.12,3.13-14.25,1.57,7.13,3.14,14.25L384,359.26l-.14.28Z" style="fill: rgb(38, 50, 56); transform-origin: 375.46px 345.46px;" id="el0zgj9yizzw0k" class="animable"></path><line x1="398.06" y1="450.8" x2="398.06" y2="350.3" style="fill: none; stroke: rgb(255, 255, 255); stroke-miterlimit: 10; stroke-width: 4px; transform-origin: 398.06px 400.55px;" id="elfwzfax2nhup" class="animable"></line><path d="M398.06,354.46l-8.36,5.08-.19-.28,5.42-13.63q1.56-7.12,3.13-14.25,1.57,7.13,3.14,14.25l5.41,13.63-.14.28Z" style="fill: rgb(255, 255, 255); transform-origin: 398.06px 345.46px;" id="el4n722a0tuyr" class="animable"></path><line x1="488.83" y1="450.8" x2="488.83" y2="299.29" style="fill: none; stroke: rgb(38, 50, 56); stroke-miterlimit: 10; stroke-width: 4px; transform-origin: 488.83px 375.045px;" id="elxl4b5jditzi" class="animable"></line><path d="M488.83,303.45l-8.36,5.09-.19-.29,5.41-13.63q1.57-7.12,3.14-14.25,1.56,7.13,3.13,14.25l5.42,13.63-.15.29Z" style="fill: rgb(38, 50, 56); transform-origin: 488.83px 294.455px;" id="ell9g1jjt46lm" class="animable"></path><line x1="511.43" y1="450.8" x2="511.43" y2="299.29" style="fill: none; stroke: rgb(38, 50, 56); stroke-miterlimit: 10; stroke-width: 4px; transform-origin: 511.43px 375.045px;" id="elbcl3h2dmicc" class="animable"></line><path d="M511.43,303.45l-8.36,5.09-.19-.29,5.41-13.63q1.57-7.12,3.14-14.25,1.56,7.13,3.13,14.25L520,308.25l-.15.29Z" style="fill: rgb(38, 50, 56); transform-origin: 511.44px 294.455px;" id="elbebsaz1i7gv" class="animable"></path><line x1="534.03" y1="450.8" x2="534.03" y2="299.29" style="fill: none; stroke: rgb(38, 50, 56); stroke-miterlimit: 10; stroke-width: 4px; transform-origin: 534.03px 375.045px;" id="elv48a1ltkcv" class="animable"></line><path d="M534,303.45l-8.36,5.09-.19-.29,5.41-13.63q1.58-7.12,3.14-14.25,1.56,7.13,3.13,14.25l5.41,13.63-.14.29Z" style="fill: rgb(38, 50, 56); transform-origin: 533.995px 294.455px;" id="elr4k1py6yuwt" class="animable"></path><line x1="556.62" y1="450.8" x2="556.62" y2="299.29" style="fill: none; stroke: rgb(255, 255, 255); stroke-miterlimit: 10; stroke-width: 4px; transform-origin: 556.62px 375.045px;" id="el2soqzlmcn3i" class="animable"></line><path d="M556.62,303.45l-8.36,5.09-.18-.29,5.41-13.63q1.56-7.12,3.13-14.25,1.57,7.13,3.14,14.25l5.41,13.63-.14.29Z" style="fill: rgb(255, 255, 255); transform-origin: 556.625px 294.455px;" id="el6kgyus5wmt7" class="animable"></path></g><g id="freepik--Clouds--inject-130" class="animable animator-active" style="transform-origin: 350.98px 138.484px;"><path d="M345.59,99S341.71,81,328.16,76.43,311.38,81,307.51,86.12s-9.68-2.59-18.07,0-5.17,9.68-10.33,12.26-14.2-3.23-20,1.29-7.1,8.39-7.1,8.39H374.63S355.27,90,345.59,99Z" style="fill: rgb(255, 255, 255); stroke: rgb(38, 50, 56); stroke-miterlimit: 10; transform-origin: 313.32px 91.6241px;" id="eldcr4eppv9jw" class="animable"></path><path d="M565.63,192.74s-3.87-18.07-17.43-22.58-16.78,4.51-20.65,9.68-9.68-2.58-18.07,0-5.16,9.68-10.33,12.26-14.2-3.23-20,1.29-7.1,8.39-7.1,8.39H594.67S575.31,183.71,565.63,192.74Z" style="fill: rgb(255, 255, 255); stroke: rgb(38, 50, 56); stroke-miterlimit: 10; transform-origin: 533.36px 185.358px;" id="el0jec8u1qhu6" class="animable"></path><path d="M168.06,171.19s-2.51-11.73-11.31-14.66-10.9,2.93-13.41,6.28-6.29-1.67-11.73,0-3.36,6.29-6.71,8-9.22-2.1-13,.83-4.61,5.45-4.61,5.45h79.62S174.35,165.33,168.06,171.19Z" style="fill: rgb(255, 255, 255); stroke: rgb(38, 50, 56); stroke-miterlimit: 10; transform-origin: 147.1px 166.412px;" id="elwtllion9pd" class="animable"></path></g><g id="freepik--Character--inject-130" class="animable" style="transform-origin: 138.401px 347.578px;"><path d="M114.47,405.39s-4.46,1.36-7.37,1-5.43-.39-6,2.13,0,5-.58,6.6-2.52,3.68-2.14,6.59,1.36,9.69,3.11,8.72,4.07-9.3,5-11,3.58-5.75,5.52-6.6a11.77,11.77,0,0,1,3.89-.68Z" style="fill: rgb(255, 255, 255); stroke: rgb(38, 50, 56); stroke-miterlimit: 10; transform-origin: 107.116px 417.957px;" id="elgnwhf04lm88" class="animable"></path><path d="M102.63,420a37,37,0,0,0,2-8,17.93,17.93,0,0,1,1.74-5.7c-2.61-.29-4.79-.11-5.32,2.21-.58,2.52,0,5-.58,6.6s-2.52,3.68-2.14,6.59,1.36,9.69,3.11,8.72c1.31-.73,3-5.64,4.1-8.77Z" style="fill: rgb(38, 50, 56); stroke: rgb(38, 50, 56); stroke-miterlimit: 10; transform-origin: 102.326px 418.354px;" id="elp7pbumk75w" class="animable"></path><path d="M163.72,340.82c-.19-15.51-5.82-19.78-5.82-19.78-27.14,3.49-32.38-4.65-32.38-4.65l-3.29,2.52c-5.63,6-8.34,14.54-9.31,24.24s10.86,42.07,10.86,42.07-5,9.7-8.92,17.26-1.94,24.43-3.3,28.89-4.85,7.18-4.07,11.06.58,7.37,3.49,7.75,7.17,1.17,8.34,0-1.17-2.91-1.94-6.2-1.36-8.34-1.36-8.34l15.12-29.09s29.87-15.31,30.64-16.87S163.92,356.33,163.72,340.82Zm-21.52,44-2.72-37.62,2.33-.2,4.65,35.68Z" style="fill: rgb(38, 50, 56); stroke: rgb(38, 50, 56); stroke-miterlimit: 10; transform-origin: 135.559px 383.593px;" id="el4jfigya70ua" class="animable"></path><path d="M112.48,413.65c-.52,7.21-.07,14.92-.92,17.72-1.36,4.46-4.85,7.18-4.07,11.06s.58,7.37,3.49,7.75,7.17,1.17,8.34,0-1.17-2.91-1.94-6.2-1.36-8.34-1.36-8.34l9.35-18C118.4,419.45,114.36,416,112.48,413.65Z" style="fill: rgb(255, 255, 255); stroke: rgb(38, 50, 56); stroke-miterlimit: 10; transform-origin: 116.374px 432.223px;" id="elvw0kz5u3k7" class="animable"></path><path d="M119.32,450.18c1.16-1.16-1.17-2.91-1.94-6.2l-6.21.39s-1.28-4-2.15-7.77c-1.09,1.91-2,3.69-1.53,5.83.77,3.88.58,7.37,3.49,7.75S118.15,451.35,119.32,450.18Z" style="fill: rgb(38, 50, 56); stroke: rgb(38, 50, 56); stroke-miterlimit: 10; transform-origin: 113.501px 443.698px;" id="el4wkjvgq0o3x" class="animable"></path><line x1="141.62" y1="386.78" x2="133.28" y2="403.45" style="fill: none; stroke: rgb(255, 255, 255); stroke-miterlimit: 10; transform-origin: 137.45px 395.115px;" id="elsyti4o60j7" class="animable"></line><path d="M167.6,299.52s0,4.07-1.94,6.59-6.4,4.65-6.4,4.65L157.9,321s-3.1,2.29-10.47,2.71-14.54-3.1-14.54-3.1L137.74,279s9.31-3.29,15.12-4.85,13.58.39,13.58.39S167.6,290.4,167.6,299.52Z" style="fill: rgb(255, 255, 255); stroke: rgb(38, 50, 56); stroke-miterlimit: 10; transform-origin: 150.245px 298.645px;" id="elhjej97y6x6" class="animable"></path><path d="M166.44,274.5s-7.76-1.94-13.58-.39S137.74,279,137.74,279l-.79,6.79a30.93,30.93,0,0,0,18.82,5,24.06,24.06,0,0,0,11.44-3.62C166.87,280.46,166.44,274.5,166.44,274.5Z" style="fill: none; stroke: rgb(38, 50, 56); stroke-miterlimit: 10; transform-origin: 152.08px 282.178px;" id="elbjj3kj76pbf" class="animable"></path><path d="M164.19,274.24s22.54-2.39,27.05-3,10.43-1.69,10.43-1.69l9.68,4.54a7.41,7.41,0,0,1-.94,5.47C208.72,282,172.08,293,172.08,293S171,333.28,171,336s.14,3.1-1.55,4.51-11,5.49-11,5.49,4.65-18,5.92-26.06,2.11-34.67,1.55-39.32S164.19,274.24,164.19,274.24Z" style="fill: rgb(255, 193, 0); stroke: rgb(38, 50, 56); stroke-miterlimit: 10; transform-origin: 184.984px 307.775px;" id="el17n2f5boiye" class="animable"></path><polyline points="173.63 278.61 172.08 292.98 177.57 279.31" style="fill: none; stroke: rgb(38, 50, 56); stroke-miterlimit: 10; transform-origin: 174.825px 285.795px;" id="elgqtfla7bfs" class="animable"></polyline><path d="M165.88,280.58c.56,4.65-.28,31.28-1.55,39.32-.17,1.05-.39,2.28-.66,3.62l.1,0a84.83,84.83,0,0,0,5.77-27.05,118.88,118.88,0,0,0-1-22.73l-4.37.46S165.32,275.93,165.88,280.58Z" style="fill: rgb(255, 193, 0); stroke: rgb(38, 50, 56); stroke-miterlimit: 10; transform-origin: 166.685px 298.63px;" id="el6q2d3hr8y5j" class="animable"></path><path d="M148.83,280.19l2.09-8.75s-1.7-.92-3.79-2.09-6.4-5.75-4.31-13.72,7.19-9.14,7.19-9.14,7.18-3.52,14-1.3,7.58,6.13,7.84,7.18-.79,3.4-.26,3.79,5.61,2.48,5.22,3.65a15.54,15.54,0,0,1-2.09,3.27s-.52,7.84-1.57,8.88-6.66,1.31-6.66,1.31l-4.7,9.79" style="fill: rgb(255, 255, 255); stroke: rgb(38, 50, 56); stroke-miterlimit: 10; transform-origin: 159.547px 263.758px;" id="elu2f4wxq95n" class="animable"></path><path d="M161.24,246.88a14.22,14.22,0,0,1,5.61-.48,16.63,16.63,0,0,0-2.87-1.21c-6.79-2.22-14,1.3-14,1.3s-5.1,1.18-7.19,9.14,2.22,12.54,4.31,13.72c1.24.7,2.33,1.3,3,1.67.94-2,2.19-4.83,3.12-7.42.69-1.92,3.24.53,4.31-1.57.24-.47-.16-3.21.07-3.67,1.24-2.5,2.22-4.75,2-6.12C159.28,249.5,156.41,248.32,161.24,246.88Z" style="fill: rgb(38, 50, 56); stroke: rgb(38, 50, 56); stroke-miterlimit: 10; transform-origin: 154.541px 257.738px;" id="elg3jh1d86kml" class="animable"></path><path d="M156,264.25s-2.87-4.17-5.22-2.08-.26,6.66,4.18,6.13" style="fill: rgb(255, 255, 255); stroke: rgb(38, 50, 56); stroke-miterlimit: 10; transform-origin: 152.902px 264.963px;" id="eleqszusnduvr" class="animable"></path><path d="M145.3,249.89s-4.18-4.31-7.31-5.1-7.05-1-9.4,4.05S127,258,130,260.08s5.62,2.35,8.1.78a13.8,13.8,0,0,0,4.7-5.23C143.48,254.33,145.3,249.89,145.3,249.89Z" style="fill: rgb(38, 50, 56); stroke: rgb(38, 50, 56); stroke-miterlimit: 10; transform-origin: 136.254px 253.114px;" id="elv499gunl60k" class="animable"></path><path d="M169.07,256.22c0,.9-.38,1.64-.84,1.64s-.85-.74-.85-1.64.38-1.63.85-1.63S169.07,255.32,169.07,256.22Z" style="fill: rgb(38, 50, 56); transform-origin: 168.225px 256.225px;" id="ely8qgktr041m" class="animable"></path><path d="M166.07,253.15s2.61-.91,3.79,0" style="fill: none; stroke: rgb(38, 50, 56); stroke-miterlimit: 10; transform-origin: 167.965px 252.948px;" id="el99i6s429ov" class="animable"></path><path d="M170.64,265.17a4.49,4.49,0,0,1,2.35.39" style="fill: none; stroke: rgb(38, 50, 56); stroke-miterlimit: 10; transform-origin: 171.815px 265.353px;" id="elpmhp8hgqlus" class="animable"></path><polygon points="166.46 273.27 161.89 272.35 164.37 277.19 166.46 273.27" style="fill: rgb(38, 50, 56); stroke: rgb(38, 50, 56); stroke-miterlimit: 10; transform-origin: 164.175px 274.77px;" id="elw4ls9aaynu" class="animable"></polygon><path d="M150.4,274.12s-25.74,7.72-26.34,9.11-5,30.88-5.14,32.67S112,327.18,113,330.35s8.31,11.88,12.47,14.45a57.31,57.31,0,0,0,6.93,3.76s6.73-21,10.69-34.25S150.4,274.12,150.4,274.12Z" style="fill: rgb(255, 193, 0); stroke: rgb(38, 50, 56); stroke-miterlimit: 10; transform-origin: 131.65px 311.34px;" id="ela0774q266bf" class="animable"></path><path d="M150.4,274.12s-4,1.2-8.88,2.74c-.48,8.34-1.78,32-1.62,37.85.09,3,.13,6.47.16,9.47,1.07-3.46,2.11-6.86,3-9.87C147,301.05,150.4,274.12,150.4,274.12Z" style="fill: rgb(255, 193, 0); stroke: rgb(38, 50, 56); stroke-miterlimit: 10; transform-origin: 145.143px 299.15px;" id="el3qee01d5qce" class="animable"></path><path d="M201,278.33c-3.39-4.79-4.08-14.82-6.77-19.31s-6-5.4-6-5.4l-1.42-.39a6.69,6.69,0,0,1-2.94,0c-1.29-.38-4.62-1.54-4.62-1.54s-2.43.39-3.33-.25,1.67-.77.38-1.16-6.41-.64-7.43-1.66,4.36-1.29,4.36-1.29a17,17,0,0,1,5.64-.77c2.43.26,9.36,1.29,10.64,1.41s5.25,3.72,5.25,3.72,10.39,10.77,12.95,14.74,3.59,6.67,3.72,7.7a14.55,14.55,0,0,1,.13,1.66" style="fill: rgb(255, 255, 255); stroke: rgb(38, 50, 56); stroke-miterlimit: 10; transform-origin: 190.151px 262.44px;" id="elu3knedmdxad" class="animable"></path><path d="M201.9,280.54c-2-.74-4.65-7.35-5.88-10.53s-5.87-12-5.87-12l6.61-5.39,12.48,15.42a9.17,9.17,0,0,1,1.17,11.55" style="fill: rgb(255, 193, 0); stroke: rgb(38, 50, 56); stroke-miterlimit: 10; transform-origin: 201.041px 266.58px;" id="el2wcmi1kamti" class="animable"></path><path d="M175.33,247.21s-1.41,1.15,2,1.53a22.39,22.39,0,0,0,4.36.26,9.05,9.05,0,0,0,5.12,2.95" style="fill: none; stroke: rgb(38, 50, 56); stroke-miterlimit: 10; transform-origin: 180.926px 249.58px;" id="el74wipktq1e" class="animable"></path><g id="elnhhe1bjlzcd"><rect x="94.83" y="353.99" width="7.33" height="2.09" style="fill: rgb(38, 50, 56); stroke: rgb(38, 50, 56); stroke-miterlimit: 10; transform-origin: 98.495px 355.035px; transform: rotate(-75.72deg);" class="animable"></rect></g><g id="elmts46oakyj"><rect x="84.54" y="349.04" width="6.77" height="2.09" style="fill: rgb(38, 50, 56); stroke: rgb(38, 50, 56); stroke-miterlimit: 10; transform-origin: 87.925px 350.085px; transform: rotate(-71.83deg);" class="animable"></rect></g><path d="M99.75,352.08a1.51,1.51,0,0,1-.58-.12l-10.6-4.7a1.42,1.42,0,0,1,1.15-2.6l10.6,4.71a1.41,1.41,0,0,1-.57,2.71Z" style="fill: rgb(38, 50, 56); stroke: rgb(38, 50, 56); stroke-miterlimit: 10; transform-origin: 94.4546px 348.31px;" id="elkqijpwud4m" class="animable"></path><polygon points="76.83 345.62 108.43 361.49 104.26 398.81 99.23 399.68 64.87 380.94 76.83 345.62" style="fill: rgb(178, 178, 178); stroke: rgb(38, 50, 56); stroke-miterlimit: 10; transform-origin: 86.65px 372.65px;" id="elipg7xxjn3r" class="animable"></polygon><polygon points="108.43 361.49 99.23 399.68 104.26 398.81 108.43 361.49" style="fill: rgb(178, 178, 178); stroke: rgb(38, 50, 56); stroke-miterlimit: 10; transform-origin: 103.83px 380.585px;" id="elwa42vuju9vm" class="animable"></polygon><path d="M76.83,345.62s4.91,26.79,11.1,26.47c4.79-.25,20.5-10.6,20.5-10.6" style="fill: none; stroke: rgb(38, 50, 56); stroke-miterlimit: 10; transform-origin: 92.63px 358.856px;" id="elm0l3xxzuvbq" class="animable"></path><polygon points="85.15 368.35 83.44 374.33 86 375.93 88.03 369.74 85.15 368.35" style="fill: rgb(255, 255, 255); stroke: rgb(38, 50, 56); stroke-miterlimit: 10; transform-origin: 85.735px 372.14px;" id="el3br1j32d6qg" class="animable"></polygon><path d="M100.31,342.81l-2.09,11.43s-1.34,1.05-2.29.76-1.33-1.9-1.33-1.9-5.24-1.34-5.62-3.81,4.5-9.64,4.5-9.64Z" style="fill: rgb(255, 255, 255); stroke: rgb(38, 50, 56); stroke-miterlimit: 10; transform-origin: 94.6344px 347.35px;" id="elyjot8g5o5lk" class="animable"></path><path d="M124.06,283.23l-22,26.73L93,339.65l7.92,3.5,12.47-25.47,18.22-15.84a8.49,8.49,0,0,0,.39-6.73" style="fill: rgb(255, 193, 0); stroke: rgb(38, 50, 56); stroke-miterlimit: 10; transform-origin: 112.758px 313.19px;" id="el009jkb0udjjmj" class="animable"></path></g><g id="freepik--Trophy--inject-130" class="animable" style="transform-origin: 590.89px 88.655px;"><rect x="587.51" y="99.85" width="8.11" height="50.16" style="fill: rgb(255, 193, 0); stroke: rgb(38, 50, 56); stroke-miterlimit: 10; transform-origin: 591.565px 124.93px;" id="elezd8xmbc3z4" class="animable"></rect><path d="M574.81,99.17c-9.84,0-17.57-3.06-23-9.08-9.78-10.9-8.11-27.47-8-28.17h0a3,3,0,0,1,3-2.67h26.54v6H552.77a3,3,0,0,0-3,3.2c.37,5.06,1.79,12.36,6.55,17.66,4.22,4.68,10.44,7.06,18.49,7.06Z" style="fill: rgb(255, 193, 0); stroke: rgb(38, 50, 56); stroke-miterlimit: 10; transform-origin: 559.223px 79.21px;" id="eljor5l3z7fn8" class="animable"></path><path d="M608.33,99.17c9.84,0,17.57-3.06,23-9.08,9.78-10.9,8.11-27.47,8-28.17h0a3,3,0,0,0-3-2.67H609.8v6h20.57a3,3,0,0,1,3,3.2c-.36,5.06-1.78,12.36-6.55,17.66-4.21,4.68-10.43,7.06-18.48,7.06Z" style="fill: rgb(255, 193, 0); stroke: rgb(38, 50, 56); stroke-miterlimit: 10; transform-origin: 623.917px 79.21px;" id="elnn658pg3mhc" class="animable"></path><path d="M568.91,53.4h45a0,0,0,0,1,0,0V87.79a22.39,22.39,0,0,1-22.39,22.39h-.21a22.39,22.39,0,0,1-22.39-22.39V53.4A0,0,0,0,1,568.91,53.4Z" style="fill: rgb(255, 193, 0); stroke: rgb(38, 50, 56); stroke-miterlimit: 10; transform-origin: 591.41px 81.79px;" id="elv4m4tuy35v8" class="animable"></path><path d="M609.54,53.4V86.7c0,11.55-9.33,21-21.09,21.64q.64,0,1.29,0h0c12.37,0,22.39-9.7,22.39-21.67V53.4Z" style="fill: rgb(38, 50, 56); transform-origin: 600.29px 80.87px;" id="elr5hg5ovz2f" class="animable"></path><path d="M573.39,53.4V86.51c0,11.48,8.27,20.86,18.69,21.51-.38,0-.76,0-1.15,0h0c-10.95,0-19.83-9.65-19.83-21.55V53.4Z" style="fill: rgb(255, 255, 255); transform-origin: 581.59px 80.71px;" id="elf8e2opcmd1d" class="animable"></path><rect x="568.91" y="53.4" width="44.98" height="9.85" style="fill: rgb(255, 193, 0); stroke: rgb(38, 50, 56); stroke-miterlimit: 10; transform-origin: 591.4px 58.325px;" id="elwy8vtqo8mv" class="animable"></rect><rect x="585.26" y="121.06" width="12.93" height="13.31" rx="2.13" style="fill: rgb(255, 193, 0); stroke: rgb(38, 50, 56); stroke-miterlimit: 10; transform-origin: 591.725px 127.715px;" id="elgn0tzvz93o" class="animable"></rect><path d="M617.47,150.6a7.93,7.93,0,0,0-7.44-5.2H573.41a7.93,7.93,0,0,0-7.44,5.2Z" style="fill: rgb(255, 193, 0); stroke: rgb(38, 50, 56); stroke-miterlimit: 10; transform-origin: 591.72px 148px;" id="elo84g8ub0tat" class="animable"></path><path d="M576.89,58.3a1.91,1.91,0,1,0-1.9,1.9A1.9,1.9,0,0,0,576.89,58.3Z" style="fill: rgb(255, 193, 0); stroke: rgb(38, 50, 56); stroke-miterlimit: 10; transform-origin: 574.98px 58.29px;" id="el8izlwxsylno" class="animable"></path><path d="M585.26,58.3a1.91,1.91,0,1,0-1.91,1.9A1.91,1.91,0,0,0,585.26,58.3Z" style="fill: rgb(255, 193, 0); stroke: rgb(38, 50, 56); stroke-miterlimit: 10; transform-origin: 583.35px 58.29px;" id="elsyd1iu2xlr" class="animable"></path><path d="M593.62,58.3a1.9,1.9,0,1,0-1.9,1.9A1.9,1.9,0,0,0,593.62,58.3Z" style="fill: rgb(255, 193, 0); stroke: rgb(38, 50, 56); stroke-miterlimit: 10; transform-origin: 591.72px 58.3px;" id="ely41b9bd61vm" class="animable"></path><path d="M602,58.3a1.9,1.9,0,1,0-1.9,1.9A1.9,1.9,0,0,0,602,58.3Z" style="fill: rgb(255, 193, 0); stroke: rgb(38, 50, 56); stroke-miterlimit: 10; transform-origin: 600.1px 58.3px;" id="el7knyrrxj3x" class="animable"></path><path d="M610.36,58.3a1.91,1.91,0,1,0-1.9,1.9A1.9,1.9,0,0,0,610.36,58.3Z" style="fill: rgb(255, 193, 0); stroke: rgb(38, 50, 56); stroke-miterlimit: 10; transform-origin: 608.45px 58.29px;" id="elcuv5azixbb8" class="animable"></path><g id="el4vxt8go6e2k"><circle cx="591.31" cy="82.91" r="14.49" style="fill: rgb(38, 50, 56); stroke: rgb(38, 50, 56); stroke-miterlimit: 10; transform-origin: 591.31px 82.91px; transform: rotate(-75.61deg);" class="animable"></circle></g><path d="M594.2,90.63h-3V79.52a10.1,10.1,0,0,1-3.81,2.23V79.07A8.51,8.51,0,0,0,590,77.64a5.39,5.39,0,0,0,1.86-2.46h2.39Z" style="fill: rgb(255, 255, 255); transform-origin: 590.82px 82.905px;" id="el3zs6unagqp6" class="animable"></path><line x1="591.98" y1="26.71" x2="591.98" y2="44.14" style="fill: none; stroke: rgb(38, 50, 56); stroke-miterlimit: 10; transform-origin: 591.98px 35.425px;" id="el3fbjahphma5" class="animable"></line><line x1="517.18" y1="79.72" x2="534.61" y2="79.72" style="fill: none; stroke: rgb(38, 50, 56); stroke-miterlimit: 10; transform-origin: 525.895px 79.72px;" id="elg6pogmbs3vm" class="animable"></line><line x1="555.53" y1="114.73" x2="558.2" y2="112.05" style="fill: none; stroke: rgb(38, 50, 56); stroke-miterlimit: 10; transform-origin: 556.865px 113.39px;" id="elks3xxdgvtpf" class="animable"></line><line x1="545.87" y1="124.38" x2="552.93" y2="117.32" style="fill: none; stroke: rgb(38, 50, 56); stroke-miterlimit: 10; transform-origin: 549.4px 120.85px;" id="elj0zzrixe6y" class="animable"></line><line x1="637.98" y1="119.91" x2="630.12" y2="112.05" style="fill: none; stroke: rgb(38, 50, 56); stroke-miterlimit: 10; transform-origin: 634.05px 115.98px;" id="ele7vn47a9cxh" class="animable"></line><line x1="642.44" y1="124.38" x2="640.19" y2="122.13" style="fill: none; stroke: rgb(38, 50, 56); stroke-miterlimit: 10; transform-origin: 641.315px 123.255px;" id="elnivejuj2h7" class="animable"></line><line x1="555.91" y1="48.74" x2="558.2" y2="51.03" style="fill: none; stroke: rgb(38, 50, 56); stroke-miterlimit: 10; transform-origin: 557.055px 49.885px;" id="elu1pml5o63ld" class="animable"></line><line x1="545.87" y1="38.7" x2="553.54" y2="46.37" style="fill: none; stroke: rgb(38, 50, 56); stroke-miterlimit: 10; transform-origin: 549.705px 42.535px;" id="elnn89fqoqqrm" class="animable"></line><line x1="642.44" y1="38.7" x2="630.12" y2="51.03" style="fill: none; stroke: rgb(38, 50, 56); stroke-miterlimit: 10; transform-origin: 636.28px 44.865px;" id="eljbzkc4bqdr" class="animable"></line><line x1="661.21" y1="79.72" x2="664.6" y2="79.72" style="fill: none; stroke: rgb(38, 50, 56); stroke-miterlimit: 10; transform-origin: 662.905px 79.72px;" id="elba8khxqhuqs" class="animable"></line><line x1="647.17" y1="79.72" x2="657.82" y2="79.72" style="fill: none; stroke: rgb(38, 50, 56); stroke-miterlimit: 10; transform-origin: 652.495px 79.72px;" id="eldaxhddw4njt" class="animable"></line></g><defs>     <filter id="active" height="200%">         <feMorphology in="SourceAlpha" result="DILATED" operator="dilate" radius="2"></feMorphology>                <feFlood flood-color="#32DFEC" flood-opacity="1" result="PINK"></feFlood>        <feComposite in="PINK" in2="DILATED" operator="in" result="OUTLINE"></feComposite>        <feMerge>            <feMergeNode in="OUTLINE"></feMergeNode>            <feMergeNode in="SourceGraphic"></feMergeNode>        </feMerge>    </filter>    <filter id="hover" height="200%">        <feMorphology in="SourceAlpha" result="DILATED" operator="dilate" radius="2"></feMorphology>                <feFlood flood-color="#ff0000" flood-opacity="0.5" result="PINK"></feFlood>        <feComposite in="PINK" in2="DILATED" operator="in" result="OUTLINE"></feComposite>        <feMerge>            <feMergeNode in="OUTLINE"></feMergeNode>            <feMergeNode in="SourceGraphic"></feMergeNode>        </feMerge>            <feColorMatrix type="matrix" values="0   0   0   0   0                0   1   0   0   0                0   0   0   0   0                0   0   0   1   0 "></feColorMatrix>    </filter></defs></svg>