<svg class="animated" id="freepik_stories-challenge" xmlns="http://www.w3.org/2000/svg" viewBox="0 0 500 500" version="1.1" xmlns:xlink="http://www.w3.org/1999/xlink" xmlns:svgjs="http://svgjs.com/svgjs"><style>svg#freepik_stories-challenge:not(.animated) .animable {opacity: 0;}svg#freepik_stories-challenge.animated #freepik--background-complete--inject-501 {animation: 1.5s Infinite  linear shake;animation-delay: 0s;}svg#freepik_stories-challenge.animated #freepik--Shadow--inject-501 {animation: 1.5s Infinite  linear wind;animation-delay: 0s;}svg#freepik_stories-challenge.animated #freepik--Plant--inject-501 {animation: 1.5s Infinite  linear wind;animation-delay: 0s;}svg#freepik_stories-challenge.animated #freepik--Device--inject-501 {animation: 1.5s Infinite  linear floating;animation-delay: 0s;}svg#freepik_stories-challenge.animated #freepik--Character--inject-501 {animation: 1.5s Infinite  linear heartbeat;animation-delay: 0s;}svg#freepik_stories-challenge.animated #freepik--Emojis--inject-501 {animation: 1.5s Infinite  linear floating;animation-delay: 0s;}            @keyframes shake {                10%, 90% {                    transform: translate3d(-1px, 0, 0);                  }                  20%, 80% {                    transform: translate3d(2px, 0, 0);                  }                  30%, 50%, 70% {                    transform: translate3d(-4px, 0, 0);                  }                  40%, 60% {                    transform: translate3d(4px, 0, 0);                  }            }                    @keyframes wind {                0% {                    transform: rotate( 0deg );                }                25% {                    transform: rotate( 1deg );                }                75% {                    transform: rotate( -1deg );                }            }                    @keyframes floating {                0% {                    opacity: 1;                    transform: translateY(0px);                }                50% {                    transform: translateY(-10px);                }                100% {                    opacity: 1;                    transform: translateY(0px);                }            }                    @keyframes heartbeat {                0% {                    transform: scale(1);                }                10% {                    transform: scale(1.1);                }                30% {                    transform: scale(1);                }                40% {                    transform: scale(1);                }                50% {                    transform: scale(1.1);                }                60% {                    transform: scale(1);                }                100% {                    transform: scale(1);                }            }        </style><g id="freepik--background-complete--inject-501" class="animable" style="transform-origin: 250.077px 202.394px;"><path d="M389.75,121.43a31.16,31.16,0,0,0,32.77,0,31.16,31.16,0,1,0-32.77,0Z" style="fill: rgb(235, 235, 235); transform-origin: 406.135px 94.9257px;" id="elgf75x3zjqd" class="animable"></path><path d="M396.65,91.36a9.49,9.49,0,1,0,9.49-9.49A9.48,9.48,0,0,0,396.65,91.36Z" style="fill: rgb(255, 255, 255); transform-origin: 406.14px 91.36px;" id="el6lfhlzvbjy8" class="animable"></path><path d="M389.75,117.52v3.91a31.16,31.16,0,0,0,32.77,0v-3.9a16.39,16.39,0,1,0-32.77,0Z" style="fill: rgb(255, 255, 255); transform-origin: 406.135px 113.41px;" id="elcdfx4jsh3ds" class="animable"></path><g id="elcqs4uav24zn"><circle cx="109.32" cy="115.49" r="19.64" style="fill: rgb(235, 235, 235); transform-origin: 109.32px 115.49px; transform: rotate(-68.31deg);" class="animable"></circle></g><path d="M119.34,117.94c-3,6-10,9.54-10,9.54s-7.06-3.55-10-9.54c-2.47-5-.91-10.38,3-11.56,5.59-1.69,7,8.05,7,8.05s1.43-9.74,7-8.05C120.25,107.56,121.81,113,119.34,117.94Z" style="fill: rgb(255, 255, 255); transform-origin: 109.34px 116.832px;" id="elmid62iyyjgj" class="animable"></path><g id="freepik--xsrjP0--inject-501" class="animable" style="transform-origin: 79.6281px 204.994px;"><path d="M73.36,228.7c-1.24-.77-2.31-1.89-4-1.72-.63.06-.49-.46-.5-.81q0-9.3-.07-18.58c0-.46,0-.83.51-1.07,4.73-2.41,6.76-7.11,9.65-11.13a18.54,18.54,0,0,0,3.39-14.07c-.21-1.4.44-2,1.7-2.31,1.51-.35,3,.06,3.54,1.1a25,25,0,0,1,2.73,8.11c.28,2.35-.56,4.64-.84,7-.21,1.71-.6,3.39-.92,5.11.42.3.9.15,1.34.15l15.71-.05c2.2,0,3.29.63,3.6,2.09A4.21,4.21,0,0,1,107,207c-.39.19-1.1,0-1.14.63s.68.56,1,.81c1.9,1.29,1.56,4-.63,5.53-.52.38-1.55.21-1.57,1s1,.61,1.38,1c1.54,1.51.79,4.33-1.5,5.48a6.63,6.63,0,0,0-.91.36c-.26.17-.52.37,0,.73,2.27,1.61,2.23,3.86,0,5.51l-.68.5a4.45,4.45,0,0,1-2.75.61l-24.63.09A2.9,2.9,0,0,1,73.36,228.7Z" style="fill: rgb(235, 235, 235); fill-rule: evenodd; transform-origin: 89.0283px 204.087px;" id="el4z6vwde7fj" class="animable"></path><path d="M50,217.85c0-3.93,0-7.87,0-11.81,0-.8.07-1.19,1-1.19,4.81.05,9.6,0,14.4,0,1,0,1.09.31,1.09,1.15q0,11.88.09,23.77c0,1-.27,1.29-1.28,1.28-4.66,0-9.32,0-14,.05-1.16,0-1.32-.38-1.31-1.4C50,225.73,50,221.79,50,217.85Z" style="fill: rgb(235, 235, 235); fill-rule: evenodd; transform-origin: 58.2848px 217.975px;" id="elfhwnakl6u3f" class="animable"></path></g><g id="freepik--xsrjp0--inject-501" class="animable" style="transform-origin: 432.688px 231.064px;"><path d="M429,245c-.72-.45-1.35-1.11-2.32-1-.37,0-.29-.27-.3-.48,0-3.64,0-7.27,0-10.91,0-.27,0-.48.3-.63,2.78-1.41,4-4.17,5.67-6.54a10.88,10.88,0,0,0,2-8.26c-.12-.82.26-1.19,1-1.36a1.83,1.83,0,0,1,2.08.65,14.71,14.71,0,0,1,1.6,4.76,17.73,17.73,0,0,1-.49,4.09c-.13,1-.36,2-.54,3,.24.18.53.09.79.09l9.22,0c1.3,0,1.93.37,2.11,1.23a2.45,2.45,0,0,1-1.33,2.67c-.23.12-.64,0-.67.37s.4.33.62.48c1.11.76.91,2.33-.37,3.25-.31.22-.91.12-.93.57s.56.36.81.61a2.08,2.08,0,0,1-.88,3.22,5,5,0,0,0-.54.21c-.15.1-.3.22,0,.43,1.33.94,1.31,2.27,0,3.24l-.4.29a2.61,2.61,0,0,1-1.61.36l-14.47,0A1.71,1.71,0,0,1,429,245Z" style="fill: rgb(235, 235, 235); fill-rule: evenodd; transform-origin: 438.272px 230.542px;" id="el2onxrrxwbcq" class="animable"></path><path d="M415.22,238.63c0-2.31,0-4.63,0-6.94,0-.47,0-.7.62-.7q4.23,0,8.46,0c.55,0,.64.18.64.67q0,7,0,14c0,.59-.16.76-.75.75-2.74,0-5.47,0-8.21,0-.68,0-.77-.23-.77-.82C415.26,243.25,415.23,240.94,415.22,238.63Z" style="fill: rgb(235, 235, 235); fill-rule: evenodd; transform-origin: 420.075px 238.7px;" id="el5ftowwpqgwh" class="animable"></path></g><path d="M96.38,328H92.77a4,4,0,0,1-4.08-4.08,4.09,4.09,0,0,1,4.08-4.08h5l2.35-13.65H95.59a4.09,4.09,0,0,1,0-8.17h6l1.56-9.33a4,4,0,0,1,4.08-3.37,4.18,4.18,0,0,1,4.08,4.79l-1.4,7.91H122.2l1.57-9.33a4,4,0,0,1,4.16-3.37,4.14,4.14,0,0,1,4,4.79L130.59,298h3.63a4.1,4.1,0,0,1,4.06,4.09,4.15,4.15,0,0,1-4.06,4.08h-5l-2.35,13.65h4.46a4.05,4.05,0,0,1,4.09,4.08A4.11,4.11,0,0,1,131.3,328h-5.88l-1.65,9.64a4,4,0,0,1-4.08,3.38,4.15,4.15,0,0,1-4.09-4.78l1.5-8.24H104.77l-1.64,9.64A4.1,4.1,0,0,1,99,341a4,4,0,0,1-4-4.78Zm22.06-8.16,2.36-13.65H108.55l-2.36,13.65Z" style="fill: rgb(235, 235, 235); transform-origin: 113.485px 313.168px;" id="elrinjuy44aua" class="animable"></path><path d="M374.45,193.65h-2.87a3.23,3.23,0,0,1-3.26-3.25,3.27,3.27,0,0,1,3.26-3.26h4l1.88-10.87h-3.64a3.26,3.26,0,0,1,0-6.51h4.77l1.24-7.44a3.18,3.18,0,0,1,3.25-2.69,3.35,3.35,0,0,1,3.26,3.82l-1.12,6.31H395l1.25-7.44a3.21,3.21,0,0,1,3.32-2.69,3.3,3.3,0,0,1,3.19,3.82l-1.07,6.31h2.89a3.26,3.26,0,0,1,3.24,3.25,3.31,3.31,0,0,1-3.24,3.26h-4l-1.88,10.87h3.56a3.26,3.26,0,0,1,0,6.51H397.6l-1.32,7.69A3.22,3.22,0,0,1,393,204a3.32,3.32,0,0,1-3.26-3.81l1.2-6.57h-9.83l-1.31,7.69a3.27,3.27,0,0,1-3.3,2.69,3.2,3.2,0,0,1-3.2-3.81ZM392,187.14l1.88-10.87h-9.76l-1.88,10.87Z" style="fill: rgb(235, 235, 235); transform-origin: 388.07px 181.814px;" id="ellq006648u7" class="animable"></path></g><g id="freepik--Shadow--inject-501" class="animable animator-active" style="transform-origin: 250px 439.56px;"><ellipse cx="250" cy="439.56" rx="205.47" ry="26.47" style="fill: rgb(235, 235, 235); transform-origin: 250px 439.56px;" id="elyl2w3qh1bcl" class="animable"></ellipse></g><g id="freepik--Plant--inject-501" class="animable" style="transform-origin: 397.805px 311.243px;"><path d="M434.39,267.7c-3.32-3.25-7.62-7.18-12.7-5.78-4.77,1.32-6.6,6.54-7.46,10.88-1.1,5.6-2,11.26-2.85,16.89s-1.74,11.4-2.56,17.11q-.69,4.83-1.37,9.66c-.22,1.61-.45,3.22-.67,4.83s-.48,3.16-.57,4.75c0,.51.77.58.88.1.61-2.69.87-5.48,1.26-8.21l1.2-8.22c.79-5.45,1.62-10.89,2.44-16.34s1.67-10.88,2.54-16.32c.74-4.61,1.08-10.35,5.17-13.39a7.9,7.9,0,0,1,7.65-.71c2.69,1,4.84,2.95,6.94,4.85C434.36,267.87,434.45,267.77,434.39,267.7Z" style="fill: rgb(38, 50, 56); transform-origin: 420.31px 294.046px;" id="elytz5hpji7g" class="animable"></path><path d="M429.84,264.38s-6.79-2.45-10.14,2.51.66,17.56,31.57,24.67a87.32,87.32,0,0,0-7.44-27.95C437.21,249.16,425.4,254.63,429.84,264.38Z" style="fill: rgb(255, 199, 39); transform-origin: 434.995px 273.167px;" id="elltvi20asjp" class="animable"></path><path d="M449.5,289.5a25,25,0,0,0-1.56-2.51c-.52-.8-1-1.59-1.57-2.38-.39-.59-.8-1.18-1.21-1.77,0-.14,0-.29.06-.44s.07-.54.11-.8c.07-.58.16-1.16.24-1.74s.18-1.15.29-1.73a9.41,9.41,0,0,1,.41-1.82c0-.09-.12-.13-.14,0a6,6,0,0,1-.27,1l-.21.78c-.15.59-.29,1.17-.42,1.76s-.23,1.1-.32,1.65c-.05.26-.09.52-.12.79-.55-.79-1.12-1.57-1.7-2.33-1.64-2.16-3.37-4.24-5.17-6.27,0,0,0,0,0-.06a55.81,55.81,0,0,1,.8-9.66c0-.09-.11-.13-.13-.05a33.25,33.25,0,0,0-1.16,9.25c-.64-.72-1.29-1.44-1.95-2.15-1.51-1.62-3-3.21-4.61-4.77-.06-.06-.16,0-.1.09,2.61,2.81,5.08,5.73,7.49,8.7a53.15,53.15,0,0,0-5.65.21c-2.1.16-4.18.43-6.26.71a.07.07,0,0,0,0,.14,59.41,59.41,0,0,1,6.26-.56c2-.08,4,0,6,0,1.31,1.62,2.59,3.24,3.86,4.88h-.28c-.48,0-.95,0-1.43,0-.93,0-1.88.08-2.81.16a42.3,42.3,0,0,0-5.71.86c-.09,0-.06.14,0,.13,1.9-.21,3.8-.39,5.71-.46.91,0,1.82,0,2.74,0h1.42A1.68,1.68,0,0,0,443,281l2.49,3.25c.65.86,1.3,1.73,1.93,2.61s1.24,1.88,2,2.72A.07.07,0,0,0,449.5,289.5Z" style="fill: rgb(38, 50, 56); transform-origin: 437.89px 276.729px;" id="elhttodxt2hut" class="animable"></path><path d="M432.8,271.4a20.29,20.29,0,0,0-3.31-.16c-1.1,0-2.2,0-3.31.07a.07.07,0,1,0,0,.14c1.12-.08,2.24-.1,3.36-.08s2.16.11,3.25.09C432.83,271.45,432.84,271.41,432.8,271.4Z" style="fill: rgb(38, 50, 56); transform-origin: 429.468px 271.346px;" id="elz66i8jhudcr" class="animable"></path><path d="M442.5,273.89c.13-1.05.26-2.11.49-3.15a.07.07,0,1,0-.14,0c-.16,1-.36,2.07-.51,3.11q-.12.78-.21,1.56a7.4,7.4,0,0,0-.13,1.48.09.09,0,0,0,.18,0,8.07,8.07,0,0,0,.16-1.47C442.39,274.9,442.44,274.39,442.5,273.89Z" style="fill: rgb(38, 50, 56); transform-origin: 442.495px 273.825px;" id="elr3qyqelqt9" class="animable"></path><path d="M440.47,262.19c-.27,1-.54,2.07-.73,3.12-.09.53-.18,1.06-.25,1.59a6.35,6.35,0,0,0-.1,1.57s.07,0,.08,0a8.13,8.13,0,0,0,.24-1.49q.1-.76.24-1.53c.19-1.08.38-2.15.65-3.21C440.62,262.15,440.49,262.11,440.47,262.19Z" style="fill: rgb(38, 50, 56); transform-origin: 439.99px 265.308px;" id="elvmqbhi04lh" class="animable"></path><path d="M395.09,330.38c-.17-1.95-.36-3.89-.57-5.84q-.6-5.78-1.39-11.53c-.51-3.83-1-7.66-1.62-11.47a28.08,28.08,0,0,0-1.18-5.21,4.94,4.94,0,0,0-2.89-3.26c-3.63-1.26-6.09,2.52-7.56,5.19,0,.08.08.13.13.06.87-1.26,3.31-4.81,6.06-4.64,1.86.11,3.35,1.42,4.24,6.05,2.22,11.54,4.22,34.95,4.45,36.48.13.81.7.78.71-.09C395.48,334.2,395.26,332.29,395.09,330.38Z" style="fill: rgb(38, 50, 56); transform-origin: 387.675px 314.808px;" id="ellqiss3ydojc" class="animable"></path><path d="M380.86,296.82s3.18-11.23-3.85-5.61c-11.7,9.34-12.11,29.67-12.11,29.67s20.8-12.08,23.38-20.05C392.14,289,380.86,296.82,380.86,296.82Z" style="fill: rgb(255, 199, 39); transform-origin: 376.992px 305.258px;" id="elp7t9j6vox5" class="animable"></path><path d="M384.8,302.33c-1.63.33-3.29.55-4.93.79l-2.35.33c-.52.07-1.06.12-1.59.18,1.55-2.13,3.11-4.26,4.6-6.43.06-.09-.07-.18-.14-.11a49.13,49.13,0,0,0-3.47,4l-.93-2.6c-.35-1-.73-2-1-3,0-.09-.15,0-.13,0,.28,1,.49,2.08.76,3.11s.57,2,.92,2.95c-.76,1-1.49,2-2.2,3-.36-1-.8-2-1.12-3a.07.07,0,1,0-.13,0c.37,1.14.57,2.32.92,3.47-.47.69-.95,1.39-1.41,2.1-.84,1.29-1.63,2.62-2.4,3.95a.32.32,0,0,0-.19.31c-1.31,2.27-2.56,4.58-3.79,6.91a.07.07,0,0,0,.12.07c1.23-2.3,2.61-4.54,4-6.74h0a3.42,3.42,0,0,1,.68-.13l.72-.16c.54-.12,1.07-.25,1.6-.39,1.06-.26,2.1-.51,3.17-.69.09,0,.05-.15,0-.14-1.25.24-2.52.39-3.79.53-.6.07-1.2.15-1.8.25h-.08c.74-1.14,1.5-2.27,2.27-3.38s1.53-2.18,2.31-3.26c.72-.1,1.44-.29,2.15-.43l2.42-.47c1.61-.32,3.21-.68,4.83-.94C384.93,302.45,384.89,302.31,384.8,302.33Z" style="fill: rgb(38, 50, 56); transform-origin: 375.55px 306.919px;" id="ela2xo764hz5g" class="animable"></path><path d="M372.3,303.44c-.1-.3-.19-.6-.28-.89a18,18,0,0,1-.48-1.89c0-.09-.15-.05-.13,0,.14.64.28,1.27.43,1.9a12.12,12.12,0,0,0,.54,1.87c.06.14.29.08.24-.08C372.53,304.07,372.41,303.76,372.3,303.44Z" style="fill: rgb(38, 50, 56); transform-origin: 372.018px 302.557px;" id="elxuc5ok478b" class="animable"></path><path d="M386.93,299.73c-.95.14-1.91.21-2.86.29s-1.91.22-2.86.36c0,0,0,.09,0,.09,1-.07,1.91-.14,2.86-.27s1.9-.26,2.86-.33C387,299.87,387,299.72,386.93,299.73Z" style="fill: rgb(38, 50, 56); transform-origin: 384.096px 300.1px;" id="elvr5huh4dyy" class="animable"></path><path d="M401.9,316.17c-.37-8.27-.89-16.52-1.73-24.76-.41-4.1-.87-8.19-1.45-12.27a87.46,87.46,0,0,0-2.37-11.89,23,23,0,0,0-4-8.38,9,9,0,0,0-8-3.49c-3.61.45-6.53,2.73-9,5.21-2.82,2.77-5.41,5.81-8,8.78-.66.75-1.32,1.51-2,2.27-.06.07,0,.16.1.1q3.84-4.42,8-8.53c2.57-2.53,5.22-5.29,8.79-6.33a9,9,0,0,1,5.1-.12,8,8,0,0,1,3.48,2.21,18.19,18.19,0,0,1,3.94,7.64c2.22,7.6,3,15.57,3.84,23.41s1.41,16,1.81,24,.71,16.11,1.49,24.13c.09,1,.22,2,.35,3,.08.66,1.11.66,1.06,0C402.65,332.77,402.27,324.47,401.9,316.17Z" style="fill: rgb(38, 50, 56); transform-origin: 384.319px 298.492px;" id="ely78ubn9ahe" class="animable"></path><path d="M374.9,261.48s4.72-8.73-.86-11.54-24.24,18-29.7,48.51c0,0,30.15-13.34,40.39-26.63S383.36,255.6,374.9,261.48Z" style="fill: rgb(255, 199, 39); transform-origin: 366.541px 274.068px;" id="el0vcm8ptsp5pp" class="animable"></path><path d="M379.33,268.59c-3.39,0-6.77-.26-10.16-.24.64-.72,1.27-1.45,1.91-2.18a32,32,0,0,0,2.65-3.07c0-.07-.05-.17-.12-.12a23.89,23.89,0,0,0-2.56,2.57c-.85.9-1.7,1.81-2.54,2.72-1.29,1.4-2.56,2.82-3.83,4.25v-2.19c0-1.15,0-2.3,0-3.45,0-2.33,0-4.67.17-7,0-.08-.13-.08-.14,0-.16,2.34-.4,4.66-.51,7-.06,1.15-.09,2.3-.1,3.45,0,.6,0,1.19,0,1.78,0,.33,0,.67,0,1l-.6.67c-2.7,3.09-5.27,6.28-7.78,9.53,0-.17,0-.36,0-.54l-.12-1.07c-.09-.78-.19-1.55-.31-2.33s-.22-1.45-.35-2.17-.33-1.64-.4-2.47c0-.1-.15-.08-.13,0a22.66,22.66,0,0,1,.28,2.48l.21,2.23c.06.75.13,1.5.21,2.24,0,.36.07.72.11,1.08l.06.53a.94.94,0,0,0,.15.43l-1.29,1.68c-1.71,2.27-3.39,4.56-5.07,6.84-.05.07.05.17.1.1,1.59-2.08,3.23-4.11,4.89-6.13,1.24.05,2.5,0,3.74-.06l3.93,0c.09,0,.08-.14,0-.14l-3.92.05c-1.19,0-2.41-.06-3.6,0q2.19-2.65,4.41-5.29l1.62-1.92a7.61,7.61,0,0,0,1.51.05h1.78l3.34-.05c2.31,0,4.61-.11,6.91-.12a.07.07,0,0,0,0-.14c-2.31,0-4.61-.12-6.92-.18-1.11,0-2.23-.07-3.34-.08l-1.78,0c-.34,0-.69,0-1,0l3.79-4.5a.14.14,0,0,0,.07-.08q1.86-2.19,3.73-4.36l.51-.59c3.52.11,7-.12,10.53,0A.07.07,0,0,0,379.33,268.59Z" style="fill: rgb(38, 50, 56); transform-origin: 364.256px 276.092px;" id="el5p0s24gpql" class="animable"></path><path d="M377.6,274.58h-.82c-.08,0-.08.13,0,.13h.82A.07.07,0,0,0,377.6,274.58Z" style="fill: rgb(38, 50, 56); transform-origin: 377.182px 274.645px;" id="elw0czzzsms7" class="animable"></path><path d="M375.77,274.59l-3.25-.07-1.63,0a5.94,5.94,0,0,0-1.52,0c-.05,0,0,.08,0,.1a5.88,5.88,0,0,0,1.51.1l1.63,0h3.26C375.87,274.73,375.86,274.59,375.77,274.59Z" style="fill: rgb(38, 50, 56); transform-origin: 372.595px 274.601px;" id="elos0adbu20r" class="animable"></path><path d="M366.29,284.76a45,45,0,0,0-6.66-.6s0,0,0,0c2.21.21,4.43.33,6.63.69A.07.07,0,0,0,366.29,284.76Z" style="fill: rgb(38, 50, 56); transform-origin: 362.963px 284.505px;" id="elmpnjdkj2ia" class="animable"></path><path d="M357.23,275.06c0-.19,0-.39-.07-.58-.05-.43-.12-.87-.19-1.3-.13-.83-.28-1.66-.43-2.48,0-.08-.15-.06-.14,0,.1.85.2,1.71.27,2.56,0,.42.07.84.11,1.26a3.61,3.61,0,0,0,.17,1.19.16.16,0,0,0,.29,0A1.49,1.49,0,0,0,357.23,275.06Z" style="fill: rgb(38, 50, 56); transform-origin: 356.835px 273.225px;" id="el55hokun1ize" class="animable"></path><path d="M408,250.26c-1.08-2-2.45-4.66-5.14-4.49-2.23.14-3.23,2.41-3.7,4.28-1.47,5.8-1.58,11.93-1.86,17.87-.61,12.57-1.15,25.15-1.23,37.73q0,5.24,0,10.47c0,3.55,0,7.13.25,10.68a.26.26,0,0,0,.52,0c0-3-.08-6.09-.1-9.13s0-5.94.06-8.91q.15-9,.48-18c.23-6,.49-11.94.74-17.92.13-3,.25-6,.39-9s.25-5.79.59-8.66a48.61,48.61,0,0,1,.76-4.81,6.66,6.66,0,0,1,1.39-3.23,3,3,0,0,1,3.93-.28,8.33,8.33,0,0,1,2.78,3.48C407.93,250.42,408.05,250.34,408,250.26Z" style="fill: rgb(38, 50, 56); transform-origin: 402.041px 286.411px;" id="elygc94mcd29p" class="animable"></path><path d="M407.27,249.3s-2.21-7.82,2.69-3.91c8.15,6.51,8.44,20.67,8.44,20.67s-14.49-8.41-16.29-14C399.42,243.83,407.27,249.3,407.27,249.3Z" style="fill: rgb(255, 199, 39); transform-origin: 409.974px 255.178px;" id="elljej33ndq8m" class="animable"></path><path d="M415.35,260.26l-.41-.64a3.74,3.74,0,0,0,0-.67c0-.34,0-.67,0-1,0-.66,0-1.32.07-2,0-.09-.13-.09-.14,0,0,.65-.06,1.3-.08,2l0,1q0,.19,0,.42c-.57-.89-1.15-1.76-1.76-2.62-.17-.25-.35-.49-.53-.74a14.47,14.47,0,0,1-.05-2.55q0-1.37.06-2.73c0-.09-.14-.08-.14,0,0,1-.07,1.89-.12,2.84a17,17,0,0,0-.06,2c-1.4-1.9-2.88-3.73-4.38-5.56-.05-.06-.16,0-.11.09.93,1.18,1.82,2.38,2.69,3.61-1.7-.4-3.43-.63-5.17-.88-.08,0-.12.12,0,.13,1.83.28,3.63.74,5.44,1.14h0l2.06,3c.28.4.55.81.82,1.21h-.07l-.57-.08-1.2-.11c-.84-.06-1.67-.11-2.51-.15-.09,0-.09.13,0,.14.83,0,1.64.08,2.46.17.44,0,.87.1,1.3.15l.57.07.16,0,1.39,2.06c.82,1.21,1.55,2.5,2.43,3.67.05.07.14,0,.11-.07A36.86,36.86,0,0,0,415.35,260.26Z" style="fill: rgb(38, 50, 56); transform-origin: 411.38px 257.122px;" id="el3odwekl21wg" class="animable"></path><path d="M411.74,251.42c0-.3,0-.61,0-.91a15.41,15.41,0,0,1,.08-1.92c0-.1-.14-.11-.14,0,0,.63-.07,1.27-.1,1.9,0,.31,0,.63,0,1v.44a1.37,1.37,0,0,0,0,.45c0,.06.1.06.12,0a1.18,1.18,0,0,0,0-.42Z" style="fill: rgb(38, 50, 56); transform-origin: 411.691px 250.468px;" id="el56vy3ycgnma" class="animable"></path><path d="M410,254.66c-.54-.09-1.09-.12-1.64-.16l-1.79-.18a.07.07,0,1,0,0,.13c1.14.08,2.28.28,3.43.32A.06.06,0,0,0,410,254.66Z" style="fill: rgb(38, 50, 56); transform-origin: 408.255px 254.543px;" id="elth7w01g7gp" class="animable"></path><path d="M414.5,254.71c0,.06,0,.23,0,.3v1.35a1.29,1.29,0,0,0,0,.48s.05,0,.06,0a.41.41,0,0,0,0-.22v-.8c0-.18,0-.37,0-.55V255a.74.74,0,0,1,0-.3C414.71,254.58,414.41,254.58,414.5,254.71Z" style="fill: rgb(38, 50, 56); transform-origin: 414.54px 255.726px;" id="el4lnf3pnxuh6" class="animable"></path><path d="M415.55,290.18c-3-2.29-5.78-5.58-9.88-5.74-3.38-.13-5.75,2.42-7.11,5.25a29.77,29.77,0,0,0-1.65,4.67c-.62,2.14-1.19,4.3-1.73,6.45-1.06,4.25-2,8.54-2.71,12.86-.42,2.41-.8,4.82-1.1,7.24a61.5,61.5,0,0,0-.72,7.42.39.39,0,0,0,.76.08c.41-2,.59-4.12.88-6.16s.62-4.12,1-6.17q1-6.15,2.42-12.25c.88-3.84,1.73-7.73,3-11.46.89-2.68,2.31-5.8,5.2-6.76,4.4-1.47,8.39,2.25,11.61,4.67C415.53,290.33,415.63,290.23,415.55,290.18Z" style="fill: rgb(38, 50, 56); transform-origin: 403.115px 306.559px;" id="ellp5qiyn9mjb" class="animable"></path><path d="M412.4,288s-2.81-8,1.26-9.59c6.08-2.36,22,15.59,18.9,43.09,0,0-12.31-6.78-21.4-14.41s-11.42-17.6-7.42-20.18S412.4,288,412.4,288Z" style="fill: rgb(255, 199, 39); transform-origin: 417.407px 299.851px;" id="el6om7flguzti" class="animable"></path><path d="M430.72,315.59a21.69,21.69,0,0,0-1.48-2.77c-.52-.94-1.05-1.88-1.59-2.81-1.06-1.81-2.11-3.62-3.19-5.42l-.54-.86c0-.11,0-.22.07-.33l.18-.79c.14-.6.24-1.2.35-1.8.22-1.18.43-2.37.74-3.53,0-.08-.11-.11-.13,0-.26,1.18-.63,2.33-1,3.48-.18.57-.36,1.13-.51,1.71l-.15.59c-1.31-2.15-2.64-4.28-4.08-6.35a2.8,2.8,0,0,0,.14-.88c.05-.4.1-.8.14-1.21.11-.9.22-1.8.35-2.71a51.75,51.75,0,0,1,1-5.26.07.07,0,1,0-.13,0c-.44,1.73-.92,3.46-1.25,5.22-.16.86-.31,1.73-.43,2.59-.06.44-.1.87-.15,1.31,0,.13,0,.26-.05.39-.44-.62-.88-1.24-1.34-1.85-1.41-1.85-2.87-3.66-4.34-5.46-.05-.07-.17,0-.11.08A97.18,97.18,0,0,1,420.13,299c.41.64.8,1.29,1.2,1.94l-.4-.05c-.51-.07-1-.1-1.55-.15l-3.11-.27c-2.07-.16-4.15-.29-6.22-.51-.09,0-.11.13,0,.14,2.09.24,4.18.57,6.27.87,1,.15,2.05.28,3.08.42a12.23,12.23,0,0,0,2.38.24l2.44,4a5.06,5.06,0,0,0-.55,0h-3l-4,0c-.09,0-.08.14,0,.14,1.36,0,2.71.09,4.06.16l1.92.11,1,.07a2,2,0,0,0,.85,0l2.08,3.38c.63,1,1.28,2.07,1.94,3.1a24.64,24.64,0,0,0,2.08,3.13A.08.08,0,0,0,430.72,315.59Z" style="fill: rgb(38, 50, 56); transform-origin: 420.362px 301.149px;" id="el5gh4ibmnygo" class="animable"></path><path d="M424.85,293.37a19.21,19.21,0,0,1-.55,2.61c-.22.89-.48,1.77-.77,2.65a.08.08,0,1,0,.16.05c.28-.87.52-1.74.73-2.62s.36-1.79.57-2.67C425,293.3,424.86,293.28,424.85,293.37Z" style="fill: rgb(38, 50, 56); transform-origin: 424.258px 296.025px;" id="el8oqb62ijaak" class="animable"></path><path d="M415.81,298.74a1,1,0,0,0-.67-.25l-1.17-.16c-.72-.1-1.44-.18-2.16-.26-1.5-.18-3-.32-4.5-.51-.09,0-.12.12,0,.13,1.42.18,2.83.39,4.24.58l2.08.27,1,.11a3.63,3.63,0,0,1,1.14.19C415.81,298.88,415.86,298.79,415.81,298.74Z" style="fill: rgb(38, 50, 56); transform-origin: 411.531px 298.205px;" id="eluo3w21szq6h" class="animable"></path><path d="M424.83,310.83c-.71-.06-1.42-.08-2.13-.1l-1.08,0h-.51a3.71,3.71,0,0,1-.67,0c-.1,0-.11.15,0,.14a2.66,2.66,0,0,1,.63,0l.56,0,1.07.06c.71.05,1.43.09,2.13.09A.08.08,0,0,0,424.83,310.83Z" style="fill: rgb(38, 50, 56); transform-origin: 422.643px 310.875px;" id="elpi6meeeqxfl" class="animable"></path><path d="M429.17,307.76c.08-.41.16-.81.23-1.21.15-.8.29-1.59.44-2.38,0-.09-.12-.11-.14,0-.17.78-.35,1.55-.52,2.32-.09.39-.17.77-.25,1.16,0,.18-.08.36-.11.54a1.51,1.51,0,0,0-.07.56c0,.07.11.12.16,0A2.9,2.9,0,0,0,429.17,307.76Z" style="fill: rgb(38, 50, 56); transform-origin: 429.294px 306.459px;" id="elue4z9y5as6q" class="animable"></path><polygon points="418.32 333.27 417.77 344.63 416.14 378.19 382.75 378.19 381.12 344.63 380.57 333.27 418.32 333.27" style="fill: rgb(55, 71, 79); transform-origin: 399.445px 355.73px;" id="ela0xstslusf" class="animable"></polygon><polygon points="418.32 333.27 417.77 344.63 381.12 344.63 380.57 333.27 418.32 333.27" style="fill: rgb(38, 50, 56); transform-origin: 399.445px 338.95px;" id="elocb7yvz07pa" class="animable"></polygon><rect x="378.01" y="325.23" width="42.86" height="11.37" style="fill: rgb(55, 71, 79); transform-origin: 399.44px 330.915px;" id="el6sa18mfhx3m" class="animable"></rect></g><g id="freepik--Floor--inject-501" class="animable" style="transform-origin: 250px 378.19px;"><polygon points="44.45 378.19 95.84 377.95 147.23 377.86 250 377.69 352.77 377.86 404.16 377.94 455.55 378.19 404.16 378.44 352.77 378.52 250 378.69 147.23 378.52 95.84 378.43 44.45 378.19" style="fill: rgb(38, 50, 56); transform-origin: 250px 378.19px;" id="elj3h64ig4qth" class="animable"></polygon></g><g id="freepik--Device--inject-501" class="animable" style="transform-origin: 250px 253.86px;"><path d="M337.28,56.16H162.7a17.83,17.83,0,0,0-17.66,18V433.56a17.84,17.84,0,0,0,17.66,18H337.28a17.85,17.85,0,0,0,17.68-18V74.15A17.84,17.84,0,0,0,337.28,56.16Zm6.64,366.29c0,9.46-7.08,17.11-15.82,17.11H171.91c-8.76,0-15.84-7.65-15.84-17.11V87.77c0-19.27,7.08-20.21,15.84-20.21h31.28c1.82,0,3.31,2.07,3.31,4.63V73.3c0,6,3.28,6,7.32,6h72.35c4.07,0,7.32,0,7.32-6V72.19c0-2.56,1.47-4.63,3.32-4.63H328.1c8.74,0,15.82,2.57,15.82,20.21Z" style="fill: rgb(38, 50, 56); transform-origin: 250px 253.86px;" id="ely4sclviwu39" class="animable"></path><path d="M259.86,71.82H240.13a1.21,1.21,0,0,1-1.22-1.22h0a1.22,1.22,0,0,1,1.22-1.22h19.73a1.22,1.22,0,0,1,1.22,1.22h0A1.21,1.21,0,0,1,259.86,71.82Z" style="fill: rgb(255, 255, 255); transform-origin: 249.995px 70.6px;" id="elgx7pxm8jh75" class="animable"></path><path d="M343.93,87.77V422.45c0,9.46-7.09,17.11-15.83,17.11H171.91c-8.76,0-15.84-7.65-15.84-17.11V87.77c0-19.27,7.08-20.21,15.84-20.21h31.28c1.82,0,3.31,2.07,3.31,4.63V73.3c0,6,3.28,6,7.32,6h72.35c4.07,0,7.33,0,7.33-6V72.19c0-2.56,1.46-4.63,3.31-4.63H328.1C336.84,67.56,343.93,70.13,343.93,87.77Z" style="fill: rgb(255, 255, 255); transform-origin: 250px 253.56px;" id="elj5v6rmaxzi9" class="animable"></path><path d="M343.92,87.77v7.15H156.06V87.77c0-19.27,7.09-20.21,15.85-20.21H203.2c1.82,0,3.3,2.07,3.3,4.63V73.3c0,6,3.29,6,7.32,6h72.35c4.07,0,7.33,0,7.33-6V72.19c0-2.56,1.47-4.63,3.32-4.63H328.1C336.84,67.56,343.92,70.13,343.92,87.77Z" style="fill: rgb(255, 199, 39); transform-origin: 249.99px 81.24px;" id="elqp77oaco8qd" class="animable"></path><g id="freepik--u5Zjqx--inject-501" class="animable" style="transform-origin: 194.415px 76.015px;"><path d="M197.8,75.08l-.31.3a1.37,1.37,0,0,1-.17.17,4.13,4.13,0,0,0-2.91-1.21,4.05,4.05,0,0,0-2.92,1.22,1.29,1.29,0,0,0-.16-.17l-.3-.3h0c.12-.12.25-.23.38-.34a4.57,4.57,0,0,1,.88-.57,4.36,4.36,0,0,1,1.17-.39c.2,0,.39-.05.59-.08h.51l.4,0a4.48,4.48,0,0,1,1.08.26,4.74,4.74,0,0,1,.72.34,4.19,4.19,0,0,1,.7.49l.32.28Z" style="fill: rgb(255, 255, 255); transform-origin: 194.415px 74.635px;" id="ele5x7145l5nh" class="animable"></path><path d="M192.45,76.5,192,76a3.43,3.43,0,0,1,4.86,0l-.48.48a2.74,2.74,0,0,0-2-.81A2.78,2.78,0,0,0,192.45,76.5Z" style="fill: rgb(255, 255, 255); transform-origin: 194.43px 75.7454px;" id="eltef3j0np1d" class="animable"></path><path d="M195.89,77l-.48.47a1.43,1.43,0,0,0-1-.41,1.38,1.38,0,0,0-1,.42l-.48-.48A2.09,2.09,0,0,1,195.89,77Z" style="fill: rgb(255, 255, 255); transform-origin: 194.41px 76.9328px;" id="elsohtxcnd2j" class="animable"></path><path d="M194.84,77.89a.43.43,0,0,1-.86,0,.43.43,0,0,1,.86,0Z" style="fill: rgb(255, 255, 255); transform-origin: 194.41px 77.89px;" id="elxx6dm389fns" class="animable"></path></g><circle cx="169.56" cy="75.99" r="1.24" style="fill: rgb(255, 255, 255); transform-origin: 169.56px 75.99px;" id="elwuf352blo3" class="animable"></circle><path d="M172.24,76a1.25,1.25,0,1,1,1.24,1.25A1.25,1.25,0,0,1,172.24,76Z" style="fill: rgb(255, 255, 255); transform-origin: 173.49px 76px;" id="el31lft4ldhbf" class="animable"></path><circle cx="177.41" cy="75.99" r="1.24" style="fill: rgb(255, 255, 255); transform-origin: 177.41px 75.99px;" id="elv0af4y9qob" class="animable"></circle><path d="M180.08,76a1.25,1.25,0,1,1,1.25,1.25A1.25,1.25,0,0,1,180.08,76Z" style="fill: rgb(255, 255, 255); transform-origin: 181.33px 76px;" id="el1l1v59d62zg" class="animable"></path><path d="M184,76a1.25,1.25,0,1,1,1.25,1.25A1.25,1.25,0,0,1,184,76Z" style="fill: rgb(255, 255, 255); transform-origin: 185.25px 76px;" id="ely0bb1lj8t9" class="animable"></path><path d="M329.82,78.7H319.7V74h10.12Zm-9.62-.5h9.12V74.53H320.2Z" style="fill: rgb(255, 255, 255); transform-origin: 324.76px 76.35px;" id="elhji8zvevomp" class="animable"></path><rect x="320.54" y="74.81" width="6.53" height="3.1" style="fill: rgb(255, 255, 255); transform-origin: 323.805px 76.36px;" id="elh5xpuk02vvo" class="animable"></rect><rect x="329.84" y="75.11" width="0.9" height="2.51" style="fill: rgb(255, 255, 255); transform-origin: 330.29px 76.365px;" id="elowm4y8hgps" class="animable"></rect><path d="M182.62,110.15h0v-1.91a.27.27,0,0,1,.53,0v.91a1.11,1.11,0,0,1,.65-.2,1.21,1.21,0,0,1,0,2.41,1.15,1.15,0,0,1-.66-.21.25.25,0,0,1-.26.21.26.26,0,0,1-.26-.26Zm.53,0a.69.69,0,0,0,.19.48.64.64,0,0,0,.91,0,.7.7,0,0,0,.2-.48.69.69,0,0,0-.2-.49.62.62,0,0,0-.91,0A.68.68,0,0,0,183.15,110.15Z" style="fill: rgb(199, 199, 199); transform-origin: 183.76px 109.691px;" id="el7ltn1wpreak" class="animable"></path><path d="M187.3,109.19a.26.26,0,0,1-.25.26.48.48,0,0,0-.29.09.84.84,0,0,0-.23.23,1.5,1.5,0,0,0-.19.41v.92a.26.26,0,0,1-.27.25.26.26,0,0,1-.26-.25v-1.91a.26.26,0,0,1,.26-.25.26.26,0,0,1,.27.25v0a.32.32,0,0,1,.1-.1,1.08,1.08,0,0,1,.61-.19A.25.25,0,0,1,187.3,109.19Z" style="fill: rgb(199, 199, 199); transform-origin: 186.557px 110.125px;" id="elgn98c6xcg15" class="animable"></path><path d="M187.53,110.14a1.19,1.19,0,0,1,1.18-1.2,1.15,1.15,0,0,1,1.16,1.12v.06a.24.24,0,0,1-.26.2h-1.53a.61.61,0,0,0,.16.32.8.8,0,0,0,1,.09.27.27,0,0,1,.36,0,.22.22,0,0,1,0,.31,1.21,1.21,0,0,1-.86.32A1.19,1.19,0,0,1,187.53,110.14Zm.52-.23h1.37a.79.79,0,0,0-.71-.52A.68.68,0,0,0,188.05,109.91Z" style="fill: rgb(199, 199, 199); transform-origin: 188.7px 110.15px;" id="el9byj2z5pyop" class="animable"></path><path d="M192.65,109.94v1.16a.25.25,0,0,1-.25.25.25.25,0,0,1-.25-.25v-1.16a.5.5,0,0,0-.5-.49.48.48,0,0,0-.49.49v1.16a.08.08,0,0,1,0,0,.26.26,0,0,1-.25.21.25.25,0,0,1-.26-.25v-1.91a.25.25,0,0,1,.26-.25.24.24,0,0,1,.23.15.93.93,0,0,1,.52-.15A1,1,0,0,1,192.65,109.94Z" style="fill: rgb(199, 199, 199); transform-origin: 191.65px 110.125px;" id="eldfmft5npxxu" class="animable"></path><path d="M195.7,111.09a.26.26,0,0,1-.26.26.25.25,0,0,1-.26-.21,1.15,1.15,0,0,1-.66.21,1.21,1.21,0,0,1,0-2.41,1.11,1.11,0,0,1,.65.2v-.91a.27.27,0,0,1,.53,0v1.91h0Zm-1.18-1.63a.61.61,0,0,0-.45.2.69.69,0,0,0-.2.49.7.7,0,0,0,.2.48.64.64,0,0,0,.91,0,.69.69,0,0,0,.19-.48.68.68,0,0,0-.19-.49A.61.61,0,0,0,194.52,109.46Z" style="fill: rgb(199, 199, 199); transform-origin: 194.56px 109.681px;" id="elombeozqnbh" class="animable"></path><path d="M198.74,110.15v.95a.25.25,0,0,1-.25.25.27.27,0,0,1-.26-.21,1.09,1.09,0,0,1-.64.21,1.11,1.11,0,0,1-.82-.35,1.22,1.22,0,0,1-.33-.85,1.2,1.2,0,0,1,.33-.85,1.12,1.12,0,0,1,.82-.36,1.09,1.09,0,0,1,.64.21.27.27,0,0,1,.26-.21.25.25,0,0,1,.25.26Zm-.51,0a.7.7,0,0,0-.19-.5.61.61,0,0,0-.9,0,.74.74,0,0,0-.18.5.76.76,0,0,0,.18.5.65.65,0,0,0,.9,0A.72.72,0,0,0,198.23,110.15Z" style="fill: rgb(199, 199, 199); transform-origin: 197.59px 110.145px;" id="elq9a2eefi07e" class="animable"></path><path d="M200.56,108.23v2.86a.27.27,0,0,1-.27.26.26.26,0,0,1-.27-.26v-2.38l-.19.11a.22.22,0,0,1-.13,0,.27.27,0,0,1-.14-.5l.59-.35s0,0,0,0,0,0,0,0h.24s0,0,0,0h0l0,0,0,0,0,0h0s0,0,0,0,0,0,0,0v0a0,0,0,0,0,0,0Z" style="fill: rgb(199, 199, 199); transform-origin: 199.996px 109.66px;" id="el6gxhbrv7y2" class="animable"></path><path d="M203.36,111.09a.26.26,0,0,1-.27.26h-1.72a.23.23,0,0,1-.19-.09.25.25,0,0,1,0-.37l1.43-1.3a.62.62,0,0,0-.42-1.08.66.66,0,0,0-.42.15l-.15.14a.27.27,0,0,1-.38,0,.28.28,0,0,1,0-.38l.15-.13a1.16,1.16,0,0,1,.78-.3,1.18,1.18,0,0,1,.86.38,1.16,1.16,0,0,1,.3.78,1.18,1.18,0,0,1-.38.86l-.92.83h1A.27.27,0,0,1,203.36,111.09Z" style="fill: rgb(199, 199, 199); transform-origin: 202.229px 109.67px;" id="elvrfzp2s9u1g" class="animable"></path><path d="M175.09,114.55a5.55,5.55,0,0,1-1.66.69,5.73,5.73,0,1,1,1.66-.69Z" style="fill: rgb(199, 199, 199); transform-origin: 172.088px 109.669px;" id="ellvukhjiq04b" class="animable"></path><path d="M173.81,109a1.75,1.75,0,1,1-1.75-1.75A1.75,1.75,0,0,1,173.81,109Z" style="fill: rgb(255, 255, 255); transform-origin: 172.06px 109px;" id="elql34r90tfar" class="animable"></path><path d="M175.09,113.83v.72a5.55,5.55,0,0,1-1.66.69,5.75,5.75,0,0,1-4.39-.69v-.72a3,3,0,0,1,6.05,0Z" style="fill: rgb(255, 255, 255); transform-origin: 172.065px 113.105px;" id="eli112194mo" class="animable"></path><path d="M320.66,109a.55.55,0,0,1,.54.54.54.54,0,0,1-.54.54.54.54,0,0,1-.54-.54A.54.54,0,0,1,320.66,109Z" style="fill: rgb(199, 199, 199); transform-origin: 320.66px 109.54px;" id="eltgxwzsdltp" class="animable"></path><path d="M322.32,109a.54.54,0,0,1,.54.54.54.54,0,0,1-.54.54.53.53,0,0,1-.53-.54A.54.54,0,0,1,322.32,109Z" style="fill: rgb(199, 199, 199); transform-origin: 322.325px 109.54px;" id="elpckgb121a2" class="animable"></path><path d="M324,109a.54.54,0,0,1,.54.54A.54.54,0,1,1,324,109Z" style="fill: rgb(199, 199, 199); transform-origin: 324px 109.54px;" id="elqiwz74bthto" class="animable"></path><path d="M333.6,108.24l-1.06,1.3,1.06,1.3a.39.39,0,0,1-.09.57.51.51,0,0,1-.28.09.58.58,0,0,1-.39-.17l-.89-1.09-.89,1.09a.51.51,0,0,1-.36.17.47.47,0,0,1-.28-.09.37.37,0,0,1-.1-.57l1.06-1.3-1.06-1.3a.37.37,0,0,1,.1-.56.49.49,0,0,1,.64.08l.89,1.07.89-1.07a.53.53,0,0,1,.67-.08A.38.38,0,0,1,333.6,108.24Z" style="fill: rgb(199, 199, 199); transform-origin: 331.956px 109.548px;" id="el0pbf7uchzlke" class="animable"></path><rect x="166.31" y="100.58" width="40.19" height="1.48" style="fill: rgb(235, 235, 235); transform-origin: 186.405px 101.32px;" id="el9jia3zl4oj" class="animable"></rect><rect x="166.31" y="100.58" width="30.11" height="1.48" style="fill: rgb(199, 199, 199); transform-origin: 181.365px 101.32px;" id="elgot1gcfzggp" class="animable"></rect><rect x="208.71" y="100.58" width="40.19" height="1.48" style="fill: rgb(235, 235, 235); transform-origin: 228.805px 101.32px;" id="eld47y51co60l" class="animable"></rect><rect x="251.1" y="100.58" width="40.19" height="1.48" style="fill: rgb(235, 235, 235); transform-origin: 271.195px 101.32px;" id="el7q8qqkqj8qk" class="animable"></rect><rect x="293.49" y="100.58" width="40.19" height="1.48" style="fill: rgb(235, 235, 235); transform-origin: 313.585px 101.32px;" id="elv2kueguejee" class="animable"></rect><path d="M324.24,425.33l-.74-.14-1.53-5.7-3.53-3.85.31-.71H331.2l.33.68Zm-4.53-9.55,3,3.22.1.17,1.33,5,6.26-8.35Z" style="fill: rgb(199, 199, 199); transform-origin: 324.985px 420.13px;" id="el0urok64b8ucb" class="animable"></path><g id="elxiz2ic97ke"><rect x="321.51" y="416.9" width="10.52" height="0.85" style="fill: rgb(199, 199, 199); transform-origin: 326.77px 417.325px; transform: rotate(-23.93deg);" class="animable"></rect></g><path d="M303.51,428.43H179.71a8.36,8.36,0,1,1,0-16.72h123.8a8.36,8.36,0,0,1,0,16.72Zm-123.8-16.22a7.86,7.86,0,1,0,0,15.72h123.8a7.86,7.86,0,0,0,0-15.72Z" style="fill: rgb(199, 199, 199); transform-origin: 241.61px 420.07px;" id="elkhaufgh7zl" class="animable"></path><path d="M180.64,420.76a.31.31,0,0,1,.43,0,2,2,0,0,0,1.13.46,1.24,1.24,0,0,0,.73-.22.54.54,0,0,0,.26-.43.28.28,0,0,0-.06-.18.47.47,0,0,0-.17-.18,2.51,2.51,0,0,0-.81-.28h0a2.82,2.82,0,0,1-.76-.23,1.23,1.23,0,0,1-.55-.46.86.86,0,0,1-.13-.48,1.09,1.09,0,0,1,.47-.86,1.71,1.71,0,0,1,1-.31,2.34,2.34,0,0,1,1.28.47.31.31,0,0,1-.34.51,1.69,1.69,0,0,0-.94-.38,1.1,1.1,0,0,0-.66.2.48.48,0,0,0-.23.37.25.25,0,0,0,0,.16.6.6,0,0,0,.16.16,2.24,2.24,0,0,0,.74.26h0a3.51,3.51,0,0,1,.81.24,1.43,1.43,0,0,1,.59.49.94.94,0,0,1,.14.5,1.17,1.17,0,0,1-.5.92,1.85,1.85,0,0,1-1.09.33,2.48,2.48,0,0,1-1.51-.59A.31.31,0,0,1,180.64,420.76Z" style="fill: rgb(199, 199, 199); transform-origin: 182.129px 419.705px;" id="eljta47o70wyg" class="animable"></path><path d="M184.43,420.32a1.46,1.46,0,0,1,1.43-1.48,1.41,1.41,0,0,1,1.42,1.37v.08a.29.29,0,0,1-.31.24H185.1a.77.77,0,0,0,.2.39,1,1,0,0,0,1.18.11.32.32,0,0,1,.44,0,.28.28,0,0,1,0,.38,1.53,1.53,0,0,1-1.06.39A1.46,1.46,0,0,1,184.43,420.32Zm.64-.29h1.67a1,1,0,0,0-.88-.63A.83.83,0,0,0,185.07,420Z" style="fill: rgb(199, 199, 199); transform-origin: 185.855px 420.32px;" id="eldwjdy8m0dq6" class="animable"></path><path d="M190.67,420.07v1.41a.3.3,0,0,1-.3.31.32.32,0,0,1-.32-.31v-1.41a.6.6,0,0,0-.61-.6.59.59,0,0,0-.59.6v1.41a.11.11,0,0,1,0,0,.32.32,0,0,1-.31.26.31.31,0,0,1-.31-.31v-2.32a.31.31,0,0,1,.31-.32.33.33,0,0,1,.29.19,1.08,1.08,0,0,1,.62-.19A1.24,1.24,0,0,1,190.67,420.07Z" style="fill: rgb(199, 199, 199); transform-origin: 189.45px 420.29px;" id="elhbad6zpp7k5" class="animable"></path><path d="M194.37,421.47a.32.32,0,0,1-.63.06,1.37,1.37,0,0,1-.8.26,1.48,1.48,0,0,1,0-3,1.42,1.42,0,0,1,.79.25V418a.32.32,0,0,1,.33-.31.31.31,0,0,1,.31.31v2.34h0Zm-1.43-2a.74.74,0,0,0-.55.24.81.81,0,0,0-.24.59.79.79,0,0,0,.24.58.74.74,0,0,0,1.11,0,.82.82,0,0,0,.23-.58.85.85,0,0,0-.23-.59A.74.74,0,0,0,192.94,419.49Z" style="fill: rgb(199, 199, 199); transform-origin: 192.905px 419.74px;" id="el2bk9r4vcpwg" class="animable"></path><path d="M201,418v3.47a.33.33,0,0,1-.33.33.32.32,0,0,1-.32-.33V419l-.85,1.17a.31.31,0,0,1-.26.14h0a.32.32,0,0,1-.27-.14l-.85-1.17v2.47a.33.33,0,0,1-.33.33.33.33,0,0,1-.32-.33V418a.32.32,0,0,1,.32-.32h0a.3.3,0,0,1,.26.13l1.17,1.63,1.17-1.63a.32.32,0,0,1,.27-.13h0A.32.32,0,0,1,201,418Z" style="fill: rgb(199, 199, 199); transform-origin: 199.235px 419.74px;" id="elppocnrvp9a9" class="animable"></path><path d="M202.12,420.32a1.46,1.46,0,0,1,1.43-1.48,1.41,1.41,0,0,1,1.42,1.37v0s0,0,0,.05a.28.28,0,0,1-.3.24h-1.87a.77.77,0,0,0,.2.39.92.92,0,0,0,.56.26.89.89,0,0,0,.61-.15.34.34,0,0,1,.45,0,.28.28,0,0,1,0,.38,1.53,1.53,0,0,1-1.06.39A1.46,1.46,0,0,1,202.12,420.32Zm.64-.29h1.66a1,1,0,0,0-.87-.63A.82.82,0,0,0,202.76,420Z" style="fill: rgb(199, 199, 199); transform-origin: 203.545px 420.305px;" id="elrd15q7ukyd" class="animable"></path><path d="M205.76,421a.31.31,0,0,1,.45-.05,1.08,1.08,0,0,0,.64.26.86.86,0,0,0,.4-.11.23.23,0,0,0,.11-.18.11.11,0,0,0,0-.06s0,0-.08-.07a1.25,1.25,0,0,0-.47-.16h0a2.54,2.54,0,0,1-.51-.16,1,1,0,0,1-.41-.34.69.69,0,0,1-.1-.37.82.82,0,0,1,.35-.65,1.25,1.25,0,0,1,.72-.22,1.47,1.47,0,0,1,.88.33.31.31,0,0,1,.1.43.32.32,0,0,1-.44.09,1,1,0,0,0-.54-.22.63.63,0,0,0-.35.1c-.08.06-.1.11-.1.14a.06.06,0,0,0,0,.05s0,0,.06.06a1.42,1.42,0,0,0,.43.14h0a2.35,2.35,0,0,1,.55.17,1,1,0,0,1,.42.35.77.77,0,0,1,.11.39.84.84,0,0,1-.37.68,1.33,1.33,0,0,1-.77.24,1.74,1.74,0,0,1-1-.41A.32.32,0,0,1,205.76,421Z" style="fill: rgb(199, 199, 199); transform-origin: 206.845px 420.365px;" id="elmxcm07zfju" class="animable"></path><path d="M208.6,421a.3.3,0,0,1,.44-.05,1.11,1.11,0,0,0,.65.26.9.9,0,0,0,.4-.11.26.26,0,0,0,.11-.18.11.11,0,0,0,0-.06.19.19,0,0,0-.08-.07,1.32,1.32,0,0,0-.47-.16h0a2.76,2.76,0,0,1-.51-.16.87.87,0,0,1-.4-.34.69.69,0,0,1-.1-.37.84.84,0,0,1,.34-.65,1.31,1.31,0,0,1,.73-.22,1.52,1.52,0,0,1,.88.33.32.32,0,0,1,.09.43.31.31,0,0,1-.43.09,1,1,0,0,0-.54-.22.7.7,0,0,0-.36.1.21.21,0,0,0-.09.14.09.09,0,0,0,0,.05l.07.06a1.33,1.33,0,0,0,.43.14h0a2.69,2.69,0,0,1,.55.17,1,1,0,0,1,.41.35.78.78,0,0,1,.12.39.83.83,0,0,1-.38.68,1.3,1.3,0,0,1-.76.24,1.74,1.74,0,0,1-1.05-.41A.3.3,0,0,1,208.6,421Z" style="fill: rgb(199, 199, 199); transform-origin: 209.686px 420.365px;" id="el0o5il1pnp9ci" class="animable"></path><path d="M214.13,420.32v1.16a.31.31,0,0,1-.62,0,1.35,1.35,0,0,1-.78.26,1.38,1.38,0,0,1-1-.43,1.49,1.49,0,0,1-.41-1,1.45,1.45,0,0,1,.41-1,1.32,1.32,0,0,1,1-.45,1.35,1.35,0,0,1,.78.26.31.31,0,0,1,.62.06Zm-.63,0a.84.84,0,0,0-.23-.6.72.72,0,0,0-.54-.25.7.7,0,0,0-.55.25.84.84,0,0,0-.23.6.92.92,0,0,0,.23.61.72.72,0,0,0,.55.23.74.74,0,0,0,.54-.23A.92.92,0,0,0,213.5,420.32Z" style="fill: rgb(199, 199, 199); transform-origin: 212.726px 420.314px;" id="elcv6kuev096h" class="animable"></path><path d="M218.12,420.33v1.1a1.42,1.42,0,0,1-1.42,1.41,1.25,1.25,0,0,1-.61-.15.31.31,0,0,1-.15-.42.33.33,0,0,1,.43-.15.63.63,0,0,0,.33.09.79.79,0,0,0,.77-.63,1.4,1.4,0,0,1-.77.23,1.36,1.36,0,0,1-1-.45,1.48,1.48,0,0,1-.41-1,1.56,1.56,0,0,1,.41-1.05,1.38,1.38,0,0,1,1-.44,1.35,1.35,0,0,1,.79.25.32.32,0,0,1,.63.07v1.17Zm-.63,0a.9.9,0,0,0-.23-.6.71.71,0,0,0-.56-.26.7.7,0,0,0-.54.26.86.86,0,0,0-.23.6.82.82,0,0,0,.23.6.72.72,0,0,0,.54.25.73.73,0,0,0,.56-.25A.86.86,0,0,0,217.49,420.33Z" style="fill: rgb(199, 199, 199); transform-origin: 216.705px 420.855px;" id="elyb5oedzb3zi" class="animable"></path><path d="M219.16,420.32a1.47,1.47,0,0,1,1.44-1.48,1.42,1.42,0,0,1,1.42,1.37v0s0,0,0,.05a.29.29,0,0,1-.31.24h-1.87a.86.86,0,0,0,.2.39.94.94,0,0,0,.57.26.9.9,0,0,0,.61-.15.32.32,0,0,1,.44,0,.26.26,0,0,1,0,.38,1.5,1.5,0,0,1-1.05.39A1.47,1.47,0,0,1,219.16,420.32Zm.64-.29h1.67a1,1,0,0,0-.87-.63A.85.85,0,0,0,219.8,420Z" style="fill: rgb(199, 199, 199); transform-origin: 220.59px 420.305px;" id="el2184yt9zo73" class="animable"></path><path d="M196.43,132.53h-1a1.1,1.1,0,0,1-1.1-1.1,1.11,1.11,0,0,1,1.1-1.1h1.35l.63-3.67h-1.22a1.1,1.1,0,1,1,0-2.19h1.6l.42-2.51a1.08,1.08,0,0,1,1.1-.91,1.14,1.14,0,0,1,1.1,1.29l-.38,2.13h3.31l.42-2.51a1.08,1.08,0,0,1,1.12-.91,1.11,1.11,0,0,1,1.07,1.29l-.36,2.13h1a1.1,1.1,0,1,1,0,2.19h-1.35l-.63,3.67h1.2a1.09,1.09,0,0,1,1.1,1.1,1.1,1.1,0,0,1-1.1,1.1h-1.58l-.44,2.59a1.1,1.1,0,0,1-1.1.91,1.11,1.11,0,0,1-1.09-1.29l.4-2.21h-3.32l-.44,2.59a1.1,1.1,0,0,1-1.12.91,1.08,1.08,0,0,1-1.07-1.29Zm5.92-2.2.64-3.67H199.7l-.64,3.67Z" style="fill: rgb(255, 199, 39); transform-origin: 201.062px 128.54px;" id="elqeadx2h8qzk" class="animable"></path><path d="M209.93,130.55a6.79,6.79,0,0,1,6.45-5.38,4.75,4.75,0,0,1,3.21,1.16,1.14,1.14,0,0,1-.09,1.62,1.21,1.21,0,0,1-1.64.19,2.76,2.76,0,0,0-1.88-.67,3.9,3.9,0,0,0-3.75,3.08,2.57,2.57,0,0,0,2.66,3.1A3.79,3.79,0,0,0,217,133a1.08,1.08,0,0,1,1.56.21,1.24,1.24,0,0,1-.49,1.6,6.31,6.31,0,0,1-3.61,1.16A4.43,4.43,0,0,1,209.93,130.55Z" style="fill: rgb(255, 199, 39); transform-origin: 214.851px 130.572px;" id="elpwl5ef3imie" class="animable"></path><path d="M227.56,134.74l.91-4.78a1.84,1.84,0,0,0-1.86-2.26A2.82,2.82,0,0,0,224,130l-.91,4.78a1.48,1.48,0,0,1-1.37,1.16,1,1,0,0,1-1-1.16l.93-4.78,1.26-7.66a1.45,1.45,0,0,1,1.37-1.16,1,1,0,0,1,1,1.16l-.57,3.65a5.1,5.1,0,0,1,2.37-.59,3.74,3.74,0,0,1,3.77,4.6l-.91,4.78a1.46,1.46,0,0,1-1.37,1.16A1,1,0,0,1,227.56,134.74Z" style="fill: rgb(255, 199, 39); transform-origin: 225.829px 128.56px;" id="elrvjm9iz073h" class="animable"></path><path d="M233.89,134.34a4.7,4.7,0,0,1-.78-3.69,6.52,6.52,0,0,1,2.07-3.71A6,6,0,0,1,239,125.4a4.3,4.3,0,0,1,2.64.88,1.37,1.37,0,0,1,1.24-.88.89.89,0,0,1,.91,1.12l-1.44,8.24a1.39,1.39,0,0,1-1.3,1.14.91.91,0,0,1-1-.9,5.8,5.8,0,0,1-3,.9A4.07,4.07,0,0,1,233.89,134.34Zm1.44-3.69a2.72,2.72,0,0,0,.46,2.15,2.15,2.15,0,0,0,1.79.87,3.08,3.08,0,0,0,2.07-.87,3.68,3.68,0,0,0,1.22-2.15,2.67,2.67,0,0,0-.46-2.17,2.16,2.16,0,0,0-1.77-.87,3.22,3.22,0,0,0-2.09.87A3.78,3.78,0,0,0,235.33,130.65Z" style="fill: rgb(255, 199, 39); transform-origin: 238.416px 130.652px;" id="elq7at02m9vyb" class="animable"></path><path d="M249.8,121.18a1,1,0,0,1,.95,1.16l-2.2,12.42a1.42,1.42,0,0,1-1.37,1.18,1,1,0,0,1-1-1.18l2.2-12.42A1.45,1.45,0,0,1,249.8,121.18Z" style="fill: rgb(255, 199, 39); transform-origin: 248.463px 128.56px;" id="ellaf1a0duen" class="animable"></path><path d="M255.05,121.18a1,1,0,0,1,.95,1.16l-2.19,12.42a1.44,1.44,0,0,1-1.37,1.18,1,1,0,0,1-1-1.18l2.19-12.42A1.46,1.46,0,0,1,255.05,121.18Z" style="fill: rgb(255, 199, 39); transform-origin: 253.718px 128.56px;" id="elcbdx08ik8v9" class="animable"></path><path d="M257.2,130.65a6.51,6.51,0,0,1,6.08-5.27,4.08,4.08,0,0,1,4.2,4.89s0,.09,0,.11a.72.72,0,0,1,0,.19,1.27,1.27,0,0,1-1.24.84h-6.73a2.32,2.32,0,0,0,.46,1.39,2.64,2.64,0,0,0,1.86.95,3.44,3.44,0,0,0,2.51-.8,1,1,0,0,1,1.52,0,1,1,0,0,1-.09,1.39,5.63,5.63,0,0,1-4.34,1.62A4.21,4.21,0,0,1,257.2,130.65Zm2.45-1h6a2.7,2.7,0,0,0-2.7-2.24A3.76,3.76,0,0,0,259.65,129.62Z" style="fill: rgb(255, 199, 39); transform-origin: 262.308px 130.674px;" id="el9os04dqh7sa" class="animable"></path><path d="M276.25,129.79a1.78,1.78,0,0,0-1.79-2.18,2.65,2.65,0,0,0-2.53,2.18l-.91,5a1.37,1.37,0,0,1-1.31,1.14.92.92,0,0,1-.92-1.14l.88-5,.57-3.29a1.43,1.43,0,0,1,1.33-1.12.86.86,0,0,1,.88.65,4.88,4.88,0,0,1,2.39-.65,3.58,3.58,0,0,1,3.63,4.41l-.89,5a1.34,1.34,0,0,1-1.29,1.14.91.91,0,0,1-.92-1.14Z" style="fill: rgb(255, 199, 39); transform-origin: 273.666px 130.654px;" id="elyrz0mekrhx" class="animable"></path><path d="M290.66,134.66a6.32,6.32,0,0,1-6,5.1,4.77,4.77,0,0,1-2.15-.5,1,1,0,0,1-.26-1.52,1.3,1.3,0,0,1,1.61-.53,2.48,2.48,0,0,0,1.2.3,3.5,3.5,0,0,0,3.16-2.28,5.73,5.73,0,0,1-2.91.86,4.19,4.19,0,0,1-3.35-1.6,4.77,4.77,0,0,1-.8-3.76A6.53,6.53,0,0,1,283.3,127a6,6,0,0,1,3.9-1.6,4.21,4.21,0,0,1,2.7.93,1.38,1.38,0,0,1,1.27-.93.91.91,0,0,1,.92,1.14l-.73,4.19v0Zm-2.83-1.75a3.65,3.65,0,0,0,1.25-2.18l0,0a2.73,2.73,0,0,0-.49-2.17,2.18,2.18,0,0,0-1.79-.88,3.28,3.28,0,0,0-2.15.88,3.77,3.77,0,0,0-1.22,2.19,2.76,2.76,0,0,0,.44,2.18,2.23,2.23,0,0,0,1.83.88A3.09,3.09,0,0,0,287.83,132.91Z" style="fill: rgb(255, 199, 39); transform-origin: 286.59px 132.58px;" id="elymm8o5mk2g" class="animable"></path><path d="M295.32,130.65a6.51,6.51,0,0,1,6.08-5.27,4.06,4.06,0,0,1,4.19,4.89s0,.09,0,.11a.72.72,0,0,1,0,.19,1.27,1.27,0,0,1-1.24.84h-6.73a2.32,2.32,0,0,0,.46,1.39,2.64,2.64,0,0,0,1.86.95,3.44,3.44,0,0,0,2.51-.8,1,1,0,0,1,1.52,0,1,1,0,0,1-.09,1.39,5.63,5.63,0,0,1-4.34,1.62A4.21,4.21,0,0,1,295.32,130.65Zm2.45-1h6a2.7,2.7,0,0,0-2.7-2.24A3.75,3.75,0,0,0,297.77,129.62Z" style="fill: rgb(255, 199, 39); transform-origin: 300.425px 130.673px;" id="elll3jfcbonja" class="animable"></path></g><g id="freepik--Character--inject-501" class="animable" style="transform-origin: 250.011px 276.632px;"><path d="M271.2,320.74l0,.15c-.34,1.33-2.85,11.17-6.15,24.17l-.74,2.88c-5.5,21.61-12.83,50.39-16.29,64h-7.47c0,.16,0,.33,0,.49,0-.17,0-.33,0-.49H185.7c5.64-22,20-79.5,22.48-89.67l.14-.55.25-1Z" style="fill: rgb(173, 99, 89); transform-origin: 228.45px 366.575px;" id="el6o8r0qvhmlp" class="animable"></path><path d="M271.2,320.74l0,.15-5.71,25-.68,3L250.35,412h-9.84c0,.16,0,.33,0,.49,0-.17,0-.33,0-.49H185.36l22.82-89.67.14-.55.25-1Z" style="fill: rgb(38, 50, 56); transform-origin: 228.28px 366.615px;" id="elmcexv8dv22" class="animable"></path><path d="M303,412H240.51c0,.16,0,.33,0,.49,0-.17,0-.33,0-.49,0-1-.08-1.92-.11-2.84,0-1.22-.09-2.46-.14-3.68,0-.46,0-.91-.06-1.36q0-.43,0-.87c0-.39,0-.77,0-1.16s0-.92-.06-1.36,0-.92,0-1.37c0-.19,0-.38,0-.57,0-.8-.07-1.55-.1-2.27,0-.34,0-.67,0-1,0-.14,0-.28,0-.42V395c0-.15,0-.3,0-.44a2.09,2.09,0,0,0,0-.25c0-.37,0-.72,0-1.05a2,2,0,0,0,0-.25c0-.13,0-.26,0-.39,0-.43,0-.82-.05-1.18s0-.44,0-.64,0-.59,0-.82a2.09,2.09,0,0,0,0-.26,1.77,1.77,0,0,0,0-.24c0-.24,0-.36,0-.36l-.53-.31h0l-.71-.41-.05,0-.05,0-.66-.4c-1-.57-1.94-1.1-2.85-1.6l-.9-.49-1.71-.9c-1.11-.58-2.15-1.1-3.11-1.57l-1.38-.66-.64-.3-.14-.07-.67-.31h0c-.51-.24-1-.44-1.42-.63L224,381c-.78-.33-1.39-.57-1.81-.73l-.23-.09-.22-.08-.2-.07-.09,0c-.08-.21-.15-.42-.22-.63s-.16-.43-.23-.65c-.23-.66-.45-1.33-.67-2s-.5-1.61-.74-2.43c-.17-.55-.33-1.11-.49-1.67s-.3-1-.44-1.56c-.67-2.39-1.28-4.83-1.84-7.28q-.18-.74-.33-1.47c-.13-.58-.26-1.16-.38-1.74-.24-1.13-.47-2.25-.69-3.37-.09-.42-.18-.83-.26-1.25-.53-2.8-1-5.56-1.44-8.22l-.12-.79-.33-2.16c-.09-.63-.19-1.26-.28-1.89-.2-1.46-.4-2.88-.58-4.26l-.12-1c-.12-1-.24-2-.35-2.9-.06-.47-.11-.94-.16-1.39s-.09-.75-.13-1.12l-.09-.82a1.23,1.23,0,0,0,0-.2c-.05-.46-.1-.91-.14-1.34-.13-1.29-.24-2.47-.34-3.52q-.09-.94-.15-1.74a.15.15,0,0,0,0-.07c-.09-1-.15-1.87-.2-2.5v0c0-.43-.06-.76-.07-1s0-.28,0-.32v0h0l47.68,0h37.65s.23,3,.66,8.27c0,.53.08,1.09.12,1.67.25,3.1.54,6.83.87,11.08.05.58.1,1.18.15,1.78.16,2.15.34,4.43.54,6.82.1,1.41.22,2.85.33,4.31,0,.55.09,1.09.13,1.64.26,3.23.52,6.61.79,10.12.72,9.23,1.5,19.31,2.31,29.73,0,.16,0,.32,0,.48.19,2.67.4,5.36.61,8.06C302.67,407.12,302.85,409.54,303,412Z" style="fill: rgb(173, 99, 89); transform-origin: 256.828px 366.615px;" id="el352e04do373" class="animable"></path><path d="M305.93,412H240.51c0-.93-.08-1.88-.12-2.84,0-1.22-.09-2.46-.14-3.68-.08-2.11-.16-4.19-.24-6.12,0-.19,0-.38,0-.57-.05-1.32-.1-2.56-.15-3.68V395c0-.62-.05-1.2-.07-1.74a2,2,0,0,0,0-.25c0-.86-.06-1.61-.09-2.21,0-.31,0-.59,0-.82a2.09,2.09,0,0,0,0-.26,1.77,1.77,0,0,0,0-.24c0-.24,0-.36,0-.36h0l-.53-.31h0l-.71-.41h0l-.76-.44c-1-.57-1.94-1.1-2.85-1.6s-1.78-1-2.61-1.39c-1.11-.58-2.15-1.1-3.11-1.57l-1.38-.66-.64-.3-.14-.06h0l-.67-.3h0l-1.42-.63L224,381c-.78-.33-1.39-.57-1.81-.73l-.23-.09-.22-.08-.2-.07-.09,0c-.08-.21-.15-.42-.22-.63s-.17-.44-.24-.66c-.23-.66-.45-1.33-.66-2s-.5-1.61-.74-2.43c-.17-.55-.33-1.11-.49-1.67s-.3-1-.44-1.56c-.67-2.39-1.28-4.83-1.84-7.28q-.18-.74-.33-1.47c-.13-.58-.26-1.16-.38-1.74v0c-.23-1.11-.46-2.23-.68-3.34-.7-3.5-1.3-6.95-1.82-10.26l-.33-2.16c-.09-.63-.19-1.26-.28-1.89-.2-1.46-.4-2.88-.58-4.26l-.12-1c-.12-1-.24-2-.35-2.9-.06-.47-.11-.94-.16-1.39s-.09-.75-.13-1.12l-.09-.82a1.23,1.23,0,0,0,0-.2c-.05-.46-.09-.91-.14-1.34-.13-1.29-.24-2.47-.34-3.52-.05-.63-.11-1.21-.15-1.74a.15.15,0,0,0,0-.07c-.08-1-.15-1.87-.2-2.5v0c0-.43-.05-.76-.07-1s0-.28,0-.32v0h85.33s15.09,22.91,7.6,53C303.53,373.77,305,397.67,305.93,412Z" style="fill: rgb(38, 50, 56); transform-origin: 258.296px 366.38px;" id="elxp0arozzs6k" class="animable"></path><path d="M247.51,392.35c-2.87-2-6-3.67-9-5.39s-6.27-3.44-9.52-4.95a154,154,0,0,0-19.67-7.14c-.17-.06-.28.22-.12.29,6.42,2.76,12.64,5.91,19,8.74,3.21,1.43,6.44,2.79,9.66,4.21s6.35,3,9.59,4.37C247.53,392.51,247.59,392.41,247.51,392.35Z" style="fill: rgb(69, 90, 100); transform-origin: 228.335px 383.674px;" id="el1aitlb9eaho" class="animable"></path><path d="M230,361c-.08-3.14-.3-6.29-.46-9.43-.36-7.42-.65-14.88-1.34-22.28a.23.23,0,0,0-.46,0c-.09,5.74.13,11.5.24,17.24.06,2.87.15,5.74.22,8.61a80.71,80.71,0,0,1,.06,8.23c-.15,2.07-.61,6.09-3.31,6.34-2.54.24-3.94-2.51-4.57-4.52-1.62-5.11-2.19-10.63-2.71-15.94-.31-3.15-.62-6.29-.81-9.44a85,85,0,0,1-.31-9.7c0-.2-.31-.2-.32,0-.18,3.24-.62,6.46-.73,9.72s-.12,6.48.09,9.71.46,6.21.93,9.28a33.39,33.39,0,0,0,2,8.21c.94,2.18,2.55,4.18,5,4.66a5.72,5.72,0,0,0,.91.09c0,.66.12,1.33.16,2,.08,1,.21,2.08.35,3.11a22.36,22.36,0,0,0,.63,3,11.25,11.25,0,0,0,1.06,2.87.16.16,0,0,0,.29-.09,13.41,13.41,0,0,0-.25-3c-.13-1-.28-2-.48-3s-.39-2-.59-2.95c-.14-.66-.23-1.34-.35-2a4.81,4.81,0,0,0,3.6-2.83A17.59,17.59,0,0,0,230,361Z" style="fill: rgb(69, 90, 100); transform-origin: 222.742px 355.943px;" id="el60l2r098yya" class="animable"></path><path d="M298.06,359.14c-4.5.31-8.94.89-13.46.35a23.37,23.37,0,0,1-11.72-4.59c-7.43-5.76-10.68-15.18-12.69-24a.16.16,0,0,0-.31.05c.84,7.66,2.49,15.59,7.43,21.76a23.87,23.87,0,0,0,7.9,6.5,23.16,23.16,0,0,0,10.44,2.15,50.71,50.71,0,0,0,12.49-1.68A.26.26,0,0,0,298.06,359.14Z" style="fill: rgb(69, 90, 100); transform-origin: 279.126px 346.083px;" id="el4agw9nb0cjj" class="animable"></path><path d="M240.51,412c0,.16,0,.33,0,.49,0-.17,0-.33,0-.49h-.32c-.32-4.93-1.06-19.83-1.11-23.2v-.51c0-.13.53.06.55.19s0,.29,0,.49c.34,3.22,1.17,14.75,1.37,18.6.07,1.47.14,3,.18,4.43Z" style="fill: rgb(69, 90, 100); transform-origin: 240.13px 400.368px;" id="elo416coqnh1r" class="animable"></path><path d="M225.63,195.38a4.22,4.22,0,0,0-1.67,4.41,4.27,4.27,0,0,0,4.79,3.24,4.34,4.34,0,0,0,.05,1.79,4.69,4.69,0,0,0,5.19,3.59,3.81,3.81,0,0,0,.06,1.5,4.26,4.26,0,0,0,7.49,1.68,4.23,4.23,0,0,0,5,2.83,4.19,4.19,0,0,0,1.62-.77,2.32,2.32,0,0,0,.07.38,4.26,4.26,0,0,0,8.08.67,4.21,4.21,0,0,0,4.79,2.35,4.27,4.27,0,0,0,3.13-3,4.78,4.78,0,0,0,3.09.33,4.57,4.57,0,0,0,2.93-2.14,4.67,4.67,0,0,0,7.15-3.71,4.45,4.45,0,0,0,1.66,0,4.25,4.25,0,0,0,3.28-4.55,4.62,4.62,0,0,0,2.06,0,4.69,4.69,0,0,0,3.52-5.62,4.45,4.45,0,0,0-.6-1.41,3.25,3.25,0,0,0,.74-.09,4.27,4.27,0,0,0,3.2-5.1,4.36,4.36,0,0,0-1.12-2,4.66,4.66,0,0,0,3.09-5.48A4.71,4.71,0,0,0,292,182a4.69,4.69,0,0,0,2-5,4.63,4.63,0,0,0-2.6-3.19,4.23,4.23,0,0,0-1.45-6.13,4.68,4.68,0,0,0-3.23-7.65,4.26,4.26,0,0,0-4.51-5.32,4.4,4.4,0,0,0,0-2,4.67,4.67,0,0,0-5.61-3.5,3.9,3.9,0,0,0-1,.38,3.88,3.88,0,0,0-.11-.75,4.68,4.68,0,0,0-5.61-3.51,4,4,0,0,0-1.1.41,4,4,0,0,0-.1-1.32,4.68,4.68,0,0,0-8.61-1.32,4.63,4.63,0,0,0-4.41-1.33,4.69,4.69,0,0,0-2.87,2,4.25,4.25,0,0,0-7.77.66,4.25,4.25,0,0,0-6.8,3,4.58,4.58,0,0,0-3.71-.72,4.67,4.67,0,0,0-3.64,4.67,4.33,4.33,0,0,0-1.56.06,4.26,4.26,0,0,0-3.18,5.11,4.2,4.2,0,0,0,.61,1.4l-.27.05a4.69,4.69,0,0,0-3.52,5.63,4.37,4.37,0,0,0,.5,1.26,3.94,3.94,0,0,0-1.13.11,4.24,4.24,0,0,0-1.27,7.75,4.25,4.25,0,0,0,.55,6.76,4.67,4.67,0,0,0,1.81,8.69,4.16,4.16,0,0,0-1.16,4A4.28,4.28,0,0,0,225.63,195.38Z" style="fill: rgb(38, 50, 56); transform-origin: 256.574px 179.047px;" id="elljoo2qorfhj" class="animable"></path><path d="M240.58,237.82c-4.73,10.43-33,64-49.8,64.52-20.37.65-39.38-48.36-42.27-64.28-.81-4.43,36-9.15,38.48-1.58,3.82,11.69,7.84,19.85,9.27,19.81,2.94-.07,17.58-18,35.54-28.42C242.24,221.81,244.23,229.79,240.58,237.82Z" style="fill: rgb(173, 99, 89); transform-origin: 195.382px 264.042px;" id="el6gywrdoqq39" class="animable"></path><path d="M145.18,215.18c-1.25,8.16,2.72,25.86,5.32,29.76s32.91-1.84,35.09-6.13,4.27-32.1.06-39.4S146.48,206.72,145.18,215.18Z" style="fill: rgb(173, 99, 89); transform-origin: 166.512px 221.833px;" id="elxi9d3ejc4mg" class="animable"></path><path d="M186.41,211.27c-3.83,2.11-11.06,5.32-11.25,4.86.08.44,1.32,8.14-3.17,10.06-4.68,2-6.2-4.91-6.29-5.35-.06.44-.9,6.26-4.65,6.94-6.44,1.16-4.69-13.77-8.15-17.78,0,0-7.47,5.08-7.72,5.18,0,0,1.37-14.24,7-18.6a4.56,4.56,0,0,1,5.72,0s-.07-4.64,3.42-6.26c1.8-.82,4.72,1.31,4.72,1.31s.91-24.94,7.71-23.47,3.81,28,3.81,28,4.61-26,11.38-24.43C196.17,173.43,188.34,210.22,186.41,211.27Z" style="fill: rgb(173, 99, 89); transform-origin: 168.564px 197.971px;" id="elqb3f3b7efk" class="animable"></path><path d="M166.08,191.54c-.05-.08.07-.16.14-.09,5.35,6.2,9.5,15.53,9.25,24.8,0,.32-.33.6-.35.23C174.81,210.3,170.13,198,166.08,191.54Z" style="fill: rgb(38, 50, 56); transform-origin: 170.774px 204.04px;" id="elgarqbuh61te" class="animable"></path><path d="M165.46,221.48c-.11-8.9-3.06-16.87-7.27-24.62-.06-.11.09-.17.16-.1,3.09,3.23,5.26,8.45,6.6,12.66a23.44,23.44,0,0,1,.82,12.06C165.73,221.64,165.46,221.67,165.46,221.48Z" style="fill: rgb(38, 50, 56); transform-origin: 162.19px 209.171px;" id="elw66nzira9zm" class="animable"></path><path d="M152.9,210a9.21,9.21,0,0,1,1.21,3.47c.25,1.21.44,2.44.61,3.67a40.6,40.6,0,0,0,1.63,7.36,7.09,7.09,0,0,0,2.21,3.35,3.87,3.87,0,0,0,4.22,0,7,7,0,0,0,2.54-3.19c.15-.35.3-.72.43-1.08a8.51,8.51,0,0,0,1.35,2.28,4.28,4.28,0,0,0,2.54,1.49,4.91,4.91,0,0,0,2.87-.41,6.43,6.43,0,0,0,3.35-4.29c1-4-.47-9.63-.47-9.63l-.52,1.2a22.17,22.17,0,0,1-.31,8,5.24,5.24,0,0,1-2.64,3.39,3,3,0,0,1-3.7-.77,9,9,0,0,1-1.82-4.16l-.82-4.17-.59,4.19a13.63,13.63,0,0,1-.93,3.4,5.6,5.6,0,0,1-2,2.61,2.69,2.69,0,0,1-2.85.09,6,6,0,0,1-1.93-2.72,48,48,0,0,1-2-7.11c-.27-1.21-.55-2.43-.89-3.63A9,9,0,0,0,152.9,210Z" style="fill: rgb(38, 50, 56); transform-origin: 164.554px 219.238px;" id="el8s3ldu5r56f" class="animable"></path><path d="M186.78,234.13s18.52-29.74,3.35-31.28c-4.51-.46-23.57,3-22.95,6.88.82,5,9,5,14.21,4.18,0,0-7.72,9.23-2.89,16.53A8.67,8.67,0,0,0,186.78,234.13Z" style="fill: rgb(173, 99, 89); transform-origin: 181.633px 218.506px;" id="el4f4v60d9049" class="animable"></path><path d="M191.38,203.06a18.33,18.33,0,0,0-5.33-.39,38,38,0,0,0-5.32.61A60.57,60.57,0,0,0,170.32,206a10.34,10.34,0,0,0-2.52,1.32,3.9,3.9,0,0,0-1.07,1.23,2.65,2.65,0,0,0-.3.85,2.94,2.94,0,0,0,0,.89A4.55,4.55,0,0,0,168,213a8.6,8.6,0,0,0,2.58,1.38,15.93,15.93,0,0,0,5.49.71,37.26,37.26,0,0,0,5.39-.51l-.56-1a21,21,0,0,0-2.21,3.47,20.62,20.62,0,0,0-1.5,3.79,13.8,13.8,0,0,0-.48,4,10.45,10.45,0,0,0,.86,3.92,11.85,11.85,0,0,1-.43-3.92A14.22,14.22,0,0,1,178,221a19.58,19.58,0,0,1,1.64-3.54,21,21,0,0,1,2.25-3.14l1.06-1.19-1.62.17a39.71,39.71,0,0,1-5.2.34,15.94,15.94,0,0,1-5-.71c-1.51-.52-3-1.54-3.18-2.9-.29-1.17,1.41-2.13,2.94-2.76a50.75,50.75,0,0,1,5-1.69c1.69-.51,3.39-1,5.1-1.39C184.34,203.46,187.84,202.69,191.38,203.06Z" style="fill: rgb(38, 50, 56); transform-origin: 178.888px 215.69px;" id="elojgx3sjwz2n" class="animable"></path><path d="M223.87,269.8l-13-28.9s12.54-9.82,20.25-14.28c10.19-5.89,14.77-3.49,10.12,10.18C238.12,246,223.87,269.8,223.87,269.8Z" style="fill: rgb(255, 199, 39); transform-origin: 226.965px 246.702px;" id="elemq8ayjnje" class="animable"></path><path d="M217.66,240.57a1.8,1.8,0,1,1-1.79-1.79A1.79,1.79,0,0,1,217.66,240.57Zm16.15-1.79a1.8,1.8,0,1,0,1.79,1.79A1.79,1.79,0,0,0,233.81,238.78Zm8.89-12.93a1.78,1.78,0,0,0-1.72,1.78,1.8,1.8,0,0,0,1.8,1.8.75.75,0,0,0,.21,0A8.58,8.58,0,0,0,242.7,225.85Zm-17.86,26.27a1.8,1.8,0,1,0,1.79,1.8A1.8,1.8,0,0,0,224.84,252.12Z" style="fill: rgb(255, 255, 255); transform-origin: 228.561px 240.785px;" id="elsvofjc13bpf" class="animable"></path><path d="M225.29,265.63c-1.6-4.33-3.26-8.64-5.12-12.87q-1.38-3.16-2.87-6.3c-1-2.08-2.19-4.06-3.15-6.15-.05-.12-.23,0-.17.09,1.06,2,1.86,4.23,2.81,6.33s1.9,4.2,2.83,6.31c1.86,4.21,3.73,8.43,5.49,12.68C225.16,265.84,225.33,265.75,225.29,265.63Z" style="fill: rgb(38, 50, 56); transform-origin: 219.632px 253.018px;" id="elf5gk2qemw9i" class="animable"></path><g id="elbrh16zv72k"><path d="M241.23,236.8c-3.11,9.15-17.36,33-17.36,33L214,248l27.46-23.8C243.58,225.62,243.66,229.68,241.23,236.8Z" style="opacity: 0.1; transform-origin: 228.526px 247px;" class="animable"></path></g><path d="M208.57,320.74l4.81-32.61s-9.85-12.27-4.28-24.29c2.81-6.1,18.24-28.9,27.75-37.51,11.2-10.12,23.61-3,28.72,2.64,10.24,11.37,22,39.33,30.36,91.77Z" style="fill: rgb(173, 99, 89); transform-origin: 251.662px 270.984px;" id="elhnfmaasgyh" class="animable"></path><path d="M207.4,311.72l6-23.59s-9.85-12.27-4.28-24.29c2.81-6.1,18.24-28.9,27.75-37.51,11.2-10.12,24.9-3.53,30.07,2.1,9.18,10,20.69,30.85,29,83.29Z" style="fill: rgb(255, 199, 39); transform-origin: 251.67px 266.391px;" id="elys4qg24no8j" class="animable"></path><path d="M235.6,240.57a1.8,1.8,0,1,1-1.79-1.79A1.79,1.79,0,0,1,235.6,240.57Zm16.14-1.79a1.8,1.8,0,1,0,1.8,1.79A1.79,1.79,0,0,0,251.74,238.78Zm17.94,0a1.8,1.8,0,1,0,1.8,1.79A1.79,1.79,0,0,0,269.68,238.78Zm-26.9-12.94a1.8,1.8,0,1,0,1.79,1.79A1.79,1.79,0,0,0,242.78,225.84Zm17.93,0a1.8,1.8,0,1,0,1.8,1.79A1.79,1.79,0,0,0,260.71,225.84Zm-44.84,39.23a1.8,1.8,0,1,0,1.79,1.79A1.79,1.79,0,0,0,215.87,265.07Zm17.94,0a1.8,1.8,0,1,0,1.79,1.79A1.79,1.79,0,0,0,233.81,265.07Zm17.93,0a1.8,1.8,0,1,0,1.8,1.79A1.79,1.79,0,0,0,251.74,265.07Zm17.94,0a1.8,1.8,0,1,0,1.8,1.79A1.79,1.79,0,0,0,269.68,265.07Zm16.25,1.22a1.56,1.56,0,0,0-.1.57,1.78,1.78,0,0,0,.69,1.41C286.33,267.6,286.13,266.94,285.93,266.29Zm-61.09-14.17a1.8,1.8,0,1,0,1.79,1.8A1.8,1.8,0,0,0,224.84,252.12Zm17.94,0a1.8,1.8,0,1,0,1.79,1.8A1.8,1.8,0,0,0,242.78,252.12Zm17.93,0a1.8,1.8,0,1,0,1.8,1.8A1.8,1.8,0,0,0,260.71,252.12Zm17.94,0a1.8,1.8,0,1,0,1.8,1.8A1.8,1.8,0,0,0,278.65,252.12Zm-62.78,39.23a1.8,1.8,0,1,0,1.79,1.8A1.8,1.8,0,0,0,215.87,291.35Zm17.94,0a1.8,1.8,0,1,0,1.79,1.8A1.8,1.8,0,0,0,233.81,291.35Zm17.93,0a1.8,1.8,0,1,0,1.8,1.8A1.8,1.8,0,0,0,251.74,291.35Zm17.94,0a1.8,1.8,0,1,0,1.8,1.8A1.8,1.8,0,0,0,269.68,291.35Zm17.94,0a1.8,1.8,0,1,0,1.8,1.8A1.8,1.8,0,0,0,287.62,291.35Zm-62.78-12.94a1.8,1.8,0,1,0,1.79,1.8A1.8,1.8,0,0,0,224.84,278.41Zm17.94,0a1.8,1.8,0,1,0,1.79,1.8A1.8,1.8,0,0,0,242.78,278.41Zm17.93,0a1.8,1.8,0,1,0,1.8,1.8A1.8,1.8,0,0,0,260.71,278.41Zm17.94,0a1.8,1.8,0,1,0,1.8,1.8A1.8,1.8,0,0,0,278.65,278.41ZM224.84,304.7a1.8,1.8,0,1,0,1.79,1.8A1.79,1.79,0,0,0,224.84,304.7Zm17.94,0a1.8,1.8,0,1,0,1.79,1.8A1.79,1.79,0,0,0,242.78,304.7Zm17.93,0a1.8,1.8,0,1,0,1.8,1.8A1.79,1.79,0,0,0,260.71,304.7Zm17.94,0a1.8,1.8,0,1,0,1.8,1.8A1.79,1.79,0,0,0,278.65,304.7Zm16.3,1.08a1.72,1.72,0,0,0-.15.72,1.75,1.75,0,0,0,.48,1.21Z" style="fill: rgb(255, 255, 255); transform-origin: 254.67px 267.07px;" id="el6d0g32c8uep" class="animable"></path><path d="M242.88,284.8a84.45,84.45,0,0,0-12.31,1.12c-2,.37-4,.82-6,1.32-1,.25-2,.46-3,.68a13.52,13.52,0,0,1-3.17.36c-.1,0-.1.14,0,.15a23.51,23.51,0,0,0,3,.16,20.4,20.4,0,0,0,2.92-.34c2-.35,4.08-.79,6.13-1.16,4.13-.75,8.26-1.5,12.44-1.94C243.1,285.12,243.07,284.8,242.88,284.8Z" style="fill: rgb(38, 50, 56); transform-origin: 230.68px 286.696px;" id="elsapyib6134q" class="animable"></path><path d="M252.75,289.17a90.92,90.92,0,0,0-10.13-1.23c-1.71-.1-3.4-.1-5.1-.06-.82,0-1.63.05-2.44.1s-1.78.21-2.67.25c-.1,0-.11.15,0,.15.84,0,1.69.12,2.53.16l2.54.12c1.7.08,3.39.18,5.09.24,3.4.13,6.78.3,10.17.55A.14.14,0,0,0,252.75,289.17Z" style="fill: rgb(38, 50, 56); transform-origin: 242.608px 288.653px;" id="elakizyqqelw9" class="animable"></path><path d="M258.73,225.45c-.38,1.67-9,11.75-16.46,10.11-5.28-1.15-1.93-11.64-1.93-11.64l-3.39-15,18.86-12S258.89,224.74,258.73,225.45Z" style="fill: rgb(173, 99, 89); transform-origin: 247.843px 216.33px;" id="eluwu850n3ds" class="animable"></path><path d="M256.88,206.66a29.43,29.43,0,0,1-16.73,16.42l-3.21-14.2,18.86-12S256.29,201.29,256.88,206.66Z" style="fill: rgb(38, 50, 56); transform-origin: 246.91px 209.98px;" id="ellqqyz3fihxa" class="animable"></path><path d="M217.84,185C213.6,209.84,228,215.19,233.4,216.1c4.87.83,21.57,3,28.36-21.31s-3.45-34.16-14.49-36.63S222.08,160.06,217.84,185Z" style="fill: rgb(173, 99, 89); transform-origin: 240.506px 187.051px;" id="elv5vrt5xusk" class="animable"></path><path d="M224.64,182.38c.54.23,1.09.36,1.65.54a2.76,2.76,0,0,0,1.8.24.89.89,0,0,0,.55-.95,2.23,2.23,0,0,0-1.64-1.55,3.28,3.28,0,0,0-2.35,0A1,1,0,0,0,224.64,182.38Z" style="fill: rgb(38, 50, 56); transform-origin: 226.402px 181.829px;" id="eli2xkn4rw2v" class="animable"></path><path d="M242.53,183.29c-.58-.13-1.1-.35-1.66-.53a2.82,2.82,0,0,1-1.59-.87.9.9,0,0,1,.11-1.09,2.22,2.22,0,0,1,2.24-.29,3.27,3.27,0,0,1,1.93,1.36A1,1,0,0,1,242.53,183.29Z" style="fill: rgb(38, 50, 56); transform-origin: 241.401px 181.814px;" id="els9x017cqc" class="animable"></path><path d="M238.64,188.73c0-.06.13.1.12.17-.27,1.7-.3,3.69,1.18,4.45,0,0,0,.11,0,.1C238.06,192.94,238.12,190.3,238.64,188.73Z" style="fill: rgb(38, 50, 56); transform-origin: 239.133px 191.084px;" id="el2w53arsfoff" class="animable"></path><path d="M240.39,187.14c2.77.14,2.29,5.67-.27,5.54S238.07,187,240.39,187.14Z" style="fill: rgb(38, 50, 56); transform-origin: 240.338px 189.91px;" id="el60uereoa8vh" class="animable"></path><path d="M241.45,187.53c.46.35.89.95,1.46,1.06s1.23-.41,1.72-.93c.05-.06.09,0,.09.07-.08,1.06-.58,2.11-1.73,2.17s-1.71-1-1.88-2C241.07,187.66,241.27,187.39,241.45,187.53Z" style="fill: rgb(38, 50, 56); transform-origin: 242.912px 188.697px;" id="eliyzmotxkjxb" class="animable"></path><path d="M237.15,202.67c-.32.48-.61,1.11-1.2,1.29a4.51,4.51,0,0,1-1.9,0,.06.06,0,0,0-.06.1,2.31,2.31,0,0,0,2.33.45,1.82,1.82,0,0,0,1-1.77C237.33,202.61,237.2,202.6,237.15,202.67Z" style="fill: rgb(38, 50, 56); transform-origin: 235.649px 203.638px;" id="elmcbzct82li" class="animable"></path><path d="M229.44,195.66s-.6,2.52-.72,3.72c0,.12.27.2.68.26,0,0,0,0,0,0a5.77,5.77,0,0,0,5.78-1.59c.09-.11,0-.25-.17-.18a8.7,8.7,0,0,1-5.38,1c-.05-.34,1.18-4.29,1-4.32a10.72,10.72,0,0,0-2.8.35c1.11-5.29,3.06-10.35,4.09-15.64a.17.17,0,0,0-.31-.11c-2.42,5.17-3.83,11.23-5.11,16.66C226.37,196.47,228.94,195.82,229.44,195.66Z" style="fill: rgb(38, 50, 56); transform-origin: 230.855px 189.468px;" id="ela9rqyu8qlxf" class="animable"></path><path d="M230.27,199.08a6.16,6.16,0,0,0,2.19,2.25,2.77,2.77,0,0,0,1.66.35c1.26-.15,1.45-1.26,1.36-2.25a6.81,6.81,0,0,0-.33-1.53A8.11,8.11,0,0,1,230.27,199.08Z" style="fill: rgb(38, 50, 56); transform-origin: 232.885px 199.797px;" id="eldwhrbrlqn14" class="animable"></path><path d="M223.22,185.87a4.93,4.93,0,0,1,1.38.08,4.78,4.78,0,0,1,1.34.48,4,4,0,0,1,1.15.94,3.46,3.46,0,0,1,.65,1.4l.2.91-.87-.35a9.53,9.53,0,0,0-1.93-.56,4.11,4.11,0,0,0-2,.1,3.06,3.06,0,0,1,2.09-.84,5.9,5.9,0,0,1,2.27.39l-.67.56a3.43,3.43,0,0,0-1.29-1.85A10.74,10.74,0,0,0,223.22,185.87Z" style="fill: rgb(38, 50, 56); transform-origin: 225.54px 187.767px;" id="ely6q45lrif6s" class="animable"></path><path d="M224.75,190.21a8.3,8.3,0,0,0,2.17-.17c.17,0,.83-.29.84-.41a4,4,0,0,0-.07-1.07,2.84,2.84,0,0,1,.28,1.1,1.39,1.39,0,0,1-1,.7A4.32,4.32,0,0,1,224.75,190.21Z" style="fill: rgb(38, 50, 56); transform-origin: 226.36px 189.5px;" id="elu8k38c0awen" class="animable"></path><path d="M235.5,199.86a2.54,2.54,0,0,0-1.17,0,1.8,1.8,0,0,0-.67.61,1.41,1.41,0,0,0-1.08.06c-.51.29-1.2,2.7-.4,3.56a1.93,1.93,0,0,0,2.77-.5c.23-.5,0-1.56.38-2.79A2.34,2.34,0,0,0,235.5,199.86Z" style="fill: rgb(255, 156, 189); transform-origin: 233.658px 202.131px;" id="el9wq6wyqki9" class="animable"></path><path d="M260.13,195.1c-4.1-.09-3.83-9.56-3.83-9.56s-8.26-.81-9.79-13a18.4,18.4,0,0,0,2.67,10.2s-14.77-2.18-19.68-15c0,0,1.82,6.46,3.9,8.9,0,0-6-2.32-8.42-7.59,0,0-3.27,6.78-5.43,8.53,0,0,3.18-25.45,26.53-20.34,0,0,14.7,2.48,18.83,14.72S260.13,195.1,260.13,195.1Z" style="fill: rgb(38, 50, 56); transform-origin: 242.776px 175.831px;" id="el8c84kxn4xh3" class="animable"></path><path d="M261.71,193.87c-1.15,3.25,7.88-11.56,8.06-14s-3.26-14.59-12.78-20.57c-8-5-18.59-3.13-20.44-2.78a14.72,14.72,0,0,0-5.77,2.4s13.91-2.51,25.05,2C261.2,163.17,266,181.66,261.71,193.87Z" style="fill: rgb(255, 199, 39); transform-origin: 250.278px 175.111px;" id="el6ghiamddylw" class="animable"></path><path d="M261.39,158.69s-1.91-7.36-8-10c0,0-1.67,6.31-.09,9,.79,1.36,5.58,3.3,6.41,2.66A11.48,11.48,0,0,0,261.39,158.69Z" style="fill: rgb(255, 199, 39); transform-origin: 257.005px 154.583px;" id="el1rqw01hrtt1" class="animable"></path><g id="el1kwo0l0pv1d"><path d="M261.39,158.7a12.11,12.11,0,0,1-1.65,1.68.4.4,0,0,1-.13.07l-.17,0a.61.61,0,0,1-.14,0,7.1,7.1,0,0,1-2.77-.69,15.82,15.82,0,0,1,1.51-2.5,4.32,4.32,0,0,1,2.4-1.13A14.83,14.83,0,0,1,261.39,158.7Z" style="fill: rgb(5, 4, 0); opacity: 0.1; transform-origin: 258.96px 158.292px;" class="animable"></path></g><path d="M262.67,160s9.17,1.34,12.8,4.53c0,0-3.69,3.86-8.43,3.64-2.12-.09-6.77-5.43-6.15-6.36A9.18,9.18,0,0,1,262.67,160Z" style="fill: rgb(255, 199, 39); transform-origin: 268.152px 164.09px;" id="elaxfq5lt2gl" class="animable"></path><g id="elm2i3in5gjvl"><path d="M264.74,160.39a5.37,5.37,0,0,1-1.05,2.85,4.67,4.67,0,0,1-1.59,1.09c-.89-1.13-1.44-2.14-1.2-2.51a9.41,9.41,0,0,1,1.77-1.8S263.49,160.13,264.74,160.39Z" style="fill: rgb(5, 4, 0); opacity: 0.1; transform-origin: 262.792px 162.175px;" class="animable"></path></g><path d="M263,162.29a3,3,0,1,1,0-4.26A3,3,0,0,1,263,162.29Z" style="fill: rgb(255, 199, 39); transform-origin: 260.887px 160.16px;" id="elbfmekvu7eum" class="animable"></path><path d="M257.5,194.29s6.14-7.4,9.55-5.15-1.67,13.3-6,14.51a4.27,4.27,0,0,1-5.52-2.75Z" style="fill: rgb(173, 99, 89); transform-origin: 261.849px 196.308px;" id="elcrn870fx6rv" class="animable"></path><path d="M265.51,192.27a.06.06,0,0,1,0,.12c-3,.94-4.8,3.54-6.12,6.27,1-1,2.2-1.51,3.57-.35.07.06,0,.17-.09.15a2.63,2.63,0,0,0-3,.67,13.29,13.29,0,0,0-1.57,2.22c-.16.25-.62.07-.5-.22a.21.21,0,0,0,0-.07C258.13,197.31,261.47,192.32,265.51,192.27Z" style="fill: rgb(38, 50, 56); transform-origin: 261.675px 196.869px;" id="elxcvojgqe3rs" class="animable"></path><path d="M273.38,237c22.54,32.82,51.9,97.61,55.93,108.24,2.74,7.21-35.05,22.52-36.17,17.34-1.45-6.62-28.24-91.22-34.15-122C255.72,223.59,267.51,228.46,273.38,237Z" style="fill: rgb(173, 99, 89); transform-origin: 293.94px 296.42px;" id="elv7rmq4k7tw7" class="animable"></path><path d="M278.06,311.72a30,30,0,0,1,2.67,9,29.21,29.21,0,0,1-2.67-9Z" style="fill: rgb(38, 50, 56); transform-origin: 279.395px 316.22px;" id="elb1qga1izsxg" class="animable"></path><path d="M302.45,380.22c7.71,9.41,11.13,10.64,13.43,22,1.5,7.48,6.92,9.73,9.15,2.11,3.66-12.45-3.74-26.68-7.73-30.87Z" style="fill: rgb(173, 99, 89); transform-origin: 314.234px 391.257px;" id="elhu3rkghfur5" class="animable"></path><path d="M289.64,348s2.2,17.12,9.43,28c5,7.49,17.68,22.59,44.53,21.11,6.37-.35,15.2-5.36,4.59-8.57-7.54-2.28-13-1.44-17.15-3.57,0,0,10.47-7.71,9.87-14.07a116.6,116.6,0,0,0-2.75-16.53,25.85,25.85,0,0,0-3.14.24s-1.12-5.89-8.38-11.42Z" style="fill: rgb(173, 99, 89); transform-origin: 321.386px 370.201px;" id="el164m0uo8inj" class="animable"></path><path d="M305,382.35c4.56,1.24,14.26,3.7,22.89,2.95,9.6-.83,27.85-5,27.17-12.09-.51-5.19-7.62-4.2-7.62-4.2s7.18-3.32,5.7-7.91c-1.34-4.18-6.8-3.09-6.8-3.09s4-2.76,1.94-6.54c-2.5-4.54-10.49,2-17-.42C329.81,350.51,305,382.35,305,382.35Z" style="fill: rgb(173, 99, 89); transform-origin: 330.039px 367.63px;" id="eljl8r9t00tca" class="animable"></path><path d="M325.31,375.31c4.47.46,14.91-1.1,22-6.12.16-.11.16-.3,0-.22a94.35,94.35,0,0,1-22,6.25A0,0,0,0,0,325.31,375.31Z" style="fill: rgb(38, 50, 56); transform-origin: 336.37px 372.169px;" id="elyffd75xnt1" class="animable"></path><path d="M324.75,365.6c3.9,0,14.59-2.09,21.63-7.42.16-.12.15-.3,0-.22a101.21,101.21,0,0,1-21.62,7.55C324.68,365.52,324.7,365.6,324.75,365.6Z" style="fill: rgb(38, 50, 56); transform-origin: 335.601px 361.77px;" id="elg7tvt73zxlk" class="animable"></path><path d="M292.9,262.4l-31.66-1.49s-3.08-15.62-3.56-24.51c-.64-11.77,3.58-14.76,13.66-4.42C278.09,238.9,292.9,262.4,292.9,262.4Z" style="fill: rgb(255, 199, 39); transform-origin: 275.259px 244.034px;" id="elbvtpbubcglf" class="animable"></path><path d="M271.48,240.57a1.8,1.8,0,1,1-1.8-1.79A1.79,1.79,0,0,1,271.48,240.57Zm-10.77-14.73a1.8,1.8,0,1,0,1.8,1.79A1.79,1.79,0,0,0,260.71,225.84Zm0,26.28a1.72,1.72,0,0,0-1,.31c.2,1.15.38,2.24.56,3.23a1.61,1.61,0,0,0,.44.06,1.8,1.8,0,1,0,0-3.6Zm17.94,0a1.8,1.8,0,1,0,1.8,1.8A1.8,1.8,0,0,0,278.65,252.12Z" style="fill: rgb(255, 255, 255); transform-origin: 269.68px 240.78px;" id="el07qwcr38eorg" class="animable"></path><path d="M265.1,261.1c-.34-.07-3.58-.33-3.82-.28-.32-1.85-.61-3.7-.94-5.55-.17-.92-.36-1.84-.55-2.75s-.42-2.17-.61-3.07a.1.1,0,1,0-.19,0c.13,1.19.27,2.07.39,3.09s.24,1.83.39,2.74c.32,1.93.58,4,1,5.9a31.24,31.24,0,0,0,4.34,0C265.16,261.21,265.15,261.12,265.1,261.1Z" style="fill: rgb(38, 50, 56); transform-origin: 262.064px 255.287px;" id="eli076uwi78we" class="animable"></path><path d="M289.83,259.25c-4.6-.54-9.18-1-13.8-1.27-2.3-.13-4.61-.23-6.91-.29s-4.62.11-6.92,0a.1.1,0,1,0,0,.19c2.3,0,4.62.27,6.92.36s4.61.22,6.91.34c4.6.25,9.2.49,13.8.84C290,259.45,290,259.26,289.83,259.25Z" style="fill: rgb(38, 50, 56); transform-origin: 276.013px 258.55px;" id="ely5nn445du5f" class="animable"></path><path d="M240.52,412.45c0-.17,0-.33,0-.49h0C240.51,412.12,240.52,412.29,240.52,412.45Z" style="fill: rgb(255, 199, 39); transform-origin: 240.518px 412.205px;" id="elkpkh719msh" class="animable"></path></g><g id="freepik--Emojis--inject-501" class="animable" style="transform-origin: 249.896px 355.794px;"><path d="M216.34,355.21a10.14,10.14,0,1,1-10.64-9.62A10.14,10.14,0,0,1,216.34,355.21Z" style="fill: rgb(255, 199, 39); transform-origin: 206.213px 355.717px;" id="el4vbf49l5p6k" class="animable"></path><g id="el4aju8yf3ypn"><path d="M206.72,365.85a10.14,10.14,0,1,1,4.85-18.73,8.72,8.72,0,0,0-4.81-1.15,8.81,8.81,0,1,0,9.24,8.36,8.67,8.67,0,0,0-1-3.63,10.14,10.14,0,0,1-8.3,15.15Z" style="opacity: 0.1; transform-origin: 206.197px 355.723px;" class="animable"></path></g><path d="M199.88,354.51a1.55,1.55,0,0,1,.24-1.19,1.48,1.48,0,0,1,.48-.45,1.44,1.44,0,0,1,.65-.18,1.4,1.4,0,0,1,.66.14,1.39,1.39,0,0,1,.51.42,1.52,1.52,0,0,1,.31,1.17,2.22,2.22,0,0,0-.57-.94,1.24,1.24,0,0,0-.9-.34,1.28,1.28,0,0,0-.87.4A2.26,2.26,0,0,0,199.88,354.51Z" style="fill: rgb(38, 50, 56); transform-origin: 201.298px 353.6px;" id="elq7tgplmuami" class="animable"></path><path d="M212.39,353.49a1.43,1.43,0,1,1-1.48-1.38A1.43,1.43,0,0,1,212.39,353.49Z" style="fill: rgb(38, 50, 56); transform-origin: 210.961px 353.539px;" id="el13xw3zqy1n6o" class="animable"></path><path d="M203.85,354.16a2.43,2.43,0,0,0,1.94,1.26s-.95,2.77-2.55,1.64S203.85,354.16,203.85,354.16Z" style="fill: rgb(211, 101, 87); transform-origin: 204.224px 355.745px;" id="elkbmwhl68plq" class="animable"></path><path d="M203.52,353.19a3.15,3.15,0,0,0,1,1.53,2.51,2.51,0,0,0,1.64.49,2.4,2.4,0,0,0,1.6-.59,3.45,3.45,0,0,0,.94-1.55,2.67,2.67,0,0,1-.69,1.8,2.25,2.25,0,0,1-.84.59,2.87,2.87,0,0,1-1,.2,3.17,3.17,0,0,1-1-.15,2.29,2.29,0,0,1-.87-.53A2.6,2.6,0,0,1,203.52,353.19Z" style="fill: rgb(38, 50, 56); transform-origin: 206.11px 354.365px;" id="elkqpfa98yza" class="animable"></path><path d="M203.78,356.4a2.85,2.85,0,0,1,.37-.74,3.16,3.16,0,0,1,.55-.61,3.06,3.06,0,0,1-.92,1.35Z" style="fill: rgb(38, 50, 56); transform-origin: 204.24px 355.725px;" id="elg2vu9ds0znj" class="animable"></path><path d="M245.61,355.21A10.14,10.14,0,1,1,235,345.59,10.14,10.14,0,0,1,245.61,355.21Z" style="fill: rgb(255, 199, 39); transform-origin: 235.483px 355.718px;" id="el5uaexxniovu" class="animable"></path><g id="elkhkaw7s622a"><path d="M236,365.85a10.14,10.14,0,1,1,4.86-18.73,8.77,8.77,0,1,0,3.45,3.58A10.15,10.15,0,0,1,236,365.85Z" style="opacity: 0.1; transform-origin: 235.493px 355.723px;" class="animable"></path></g><path d="M229.28,354.47a1.51,1.51,0,0,1,.3-1.15,1.3,1.3,0,0,1,.48-.42,1.32,1.32,0,0,1,.64-.16,1.29,1.29,0,0,1,.64.16,1.39,1.39,0,0,1,.48.42,1.53,1.53,0,0,1,.3,1.16,2,2,0,0,0-.52-1,1.21,1.21,0,0,0-.9-.4,1.28,1.28,0,0,0-.9.39A2,2,0,0,0,229.28,354.47Z" style="fill: rgb(38, 50, 56); transform-origin: 230.7px 353.61px;" id="elyw2tzencf2j" class="animable"></path><path d="M238.92,354.49a1.53,1.53,0,0,1,.3-1.16,1.39,1.39,0,0,1,.48-.42,1.36,1.36,0,0,1,1.28,0,1.39,1.39,0,0,1,.48.42,1.54,1.54,0,0,1,.3,1.16,2,2,0,0,0-.52-1,1.21,1.21,0,0,0-1.8,0A1.91,1.91,0,0,0,238.92,354.49Z" style="fill: rgb(38, 50, 56); transform-origin: 240.34px 353.62px;" id="elvg1329kbt0l" class="animable"></path><path d="M237.64,354a2.14,2.14,0,0,1-2.12,2.13,2.12,2.12,0,0,1-2.13-2.12Z" style="fill: rgb(38, 50, 56); transform-origin: 235.515px 355.065px;" id="eld6vku4rwwst" class="animable"></path><path d="M237.17,355.36a2.11,2.11,0,0,1-1.65.8,2.14,2.14,0,0,1-1.66-.79,2.53,2.53,0,0,1,3.31,0Z" style="fill: rgb(211, 101, 87); transform-origin: 235.515px 355.457px;" id="elidrwc3dzwfr" class="animable"></path><path d="M229.1,354.43a3.57,3.57,0,0,0-2.48.45.93.93,0,0,0,.61,1.72C228.24,356.53,229.1,354.43,229.1,354.43Z" style="fill: rgb(255, 255, 255); transform-origin: 227.632px 355.491px;" id="elgu6alex0pyo" class="animable"></path><path d="M242,354.45a3.58,3.58,0,0,1,2.43.66c.83.8.26,1.82-.74,1.67S242,354.45,242,354.45Z" style="fill: rgb(255, 255, 255); transform-origin: 243.415px 355.615px;" id="elhxbk6xdm26d" class="animable"></path><g id="elwf24ica1tgs"><circle cx="264.76" cy="355.72" r="10.14" style="fill: rgb(211, 101, 87); transform-origin: 264.76px 355.72px; transform: rotate(-58deg);" class="animable"></circle></g><g id="elbbml74ocapl"><path d="M265.27,365.85a10.14,10.14,0,1,1,4.86-18.73,8.84,8.84,0,1,0,3.44,3.58,10,10,0,0,1,1.32,4.51A10.14,10.14,0,0,1,265.27,365.85Z" style="opacity: 0.1; transform-origin: 264.763px 355.723px;" class="animable"></path></g><path d="M267.39,355a3.22,3.22,0,0,0-.91-1.56,2.7,2.7,0,0,0-3.25-.05,3.49,3.49,0,0,0-1,1.52,2.74,2.74,0,0,1,.77-1.78,2.35,2.35,0,0,1,.86-.55,2.91,2.91,0,0,1,1-.15,2.86,2.86,0,0,1,1,.19,2.24,2.24,0,0,1,.85.57A2.54,2.54,0,0,1,267.39,355Z" style="fill: rgb(38, 50, 56); transform-origin: 264.811px 353.715px;" id="elj0ygnrfpqq" class="animable"></path><path d="M261.36,353.49a1.43,1.43,0,1,1-1.48-1.38A1.43,1.43,0,0,1,261.36,353.49Z" style="fill: rgb(38, 50, 56); transform-origin: 259.931px 353.539px;" id="elj6pwpward3o" class="animable"></path><path d="M257.56,351.23a5.23,5.23,0,0,1,4.06,1.87,4.72,4.72,0,0,1-2.24-.48A4.82,4.82,0,0,1,257.56,351.23Z" style="fill: rgb(38, 50, 56); transform-origin: 259.59px 352.166px;" id="elqnh7mwatwem" class="animable"></path><path d="M268.17,353.49a1.43,1.43,0,1,0,1.48-1.38A1.43,1.43,0,0,0,268.17,353.49Z" style="fill: rgb(38, 50, 56); transform-origin: 269.599px 353.539px;" id="eli9wpmh8d5bm" class="animable"></path><path d="M272,351.23a4.82,4.82,0,0,1-1.82,1.39,4.72,4.72,0,0,1-2.24.48,5.23,5.23,0,0,1,4.06-1.87Z" style="fill: rgb(38, 50, 56); transform-origin: 269.97px 352.166px;" id="elfeiktdfmmn" class="animable"></path><g id="eluacku9s864i"><circle cx="294.04" cy="355.72" r="10.14" style="fill: rgb(255, 199, 39); transform-origin: 294.04px 355.72px; transform: rotate(-65.15deg);" class="animable"></circle></g><g id="eliyuq6yjlxbj"><path d="M294.55,365.85a10.14,10.14,0,1,1,4.85-18.73,8.72,8.72,0,0,0-4.81-1.15,8.81,8.81,0,1,0,9.24,8.36,8.67,8.67,0,0,0-1-3.63,10,10,0,0,1,1.32,4.51A10.14,10.14,0,0,1,294.55,365.85Z" style="opacity: 0.1; transform-origin: 294.028px 355.723px;" class="animable"></path></g><path d="M296.19,354a2.13,2.13,0,1,1-4.25,0Z" style="fill: rgb(38, 50, 56); transform-origin: 294.065px 355.138px;" id="el9whwx640jw5" class="animable"></path><path d="M295.73,355.36a2.13,2.13,0,0,1-3.32,0,2.55,2.55,0,0,1,3.32,0Z" style="fill: rgb(211, 101, 87); transform-origin: 294.07px 355.451px;" id="elf0y6urmrly" class="animable"></path><path d="M300.29,353.4a1.43,1.43,0,1,1-1.49-1.35A1.42,1.42,0,0,1,300.29,353.4Z" style="fill: rgb(38, 50, 56); transform-origin: 298.862px 353.478px;" id="elac86dgrxxgt" class="animable"></path><path d="M290.64,353.4a1.43,1.43,0,1,1-1.5-1.35A1.43,1.43,0,0,1,290.64,353.4Z" style="fill: rgb(38, 50, 56); transform-origin: 289.212px 353.478px;" id="eluhqnztxqxnb" class="animable"></path><path d="M206.21,369.84a13.92,13.92,0,1,1,13.92-13.92A13.94,13.94,0,0,1,206.21,369.84Zm0-26.84a12.92,12.92,0,1,0,12.92,12.92A12.93,12.93,0,0,0,206.21,343Z" style="fill: rgb(255, 199, 39); transform-origin: 206.21px 355.92px;" id="el6diatq70zct" class="animable"></path></g><g id="freepik--Hearts--inject-501" class="animable" style="transform-origin: 249.999px 218.366px;"><path d="M386.48,200.08c-1.4,11.44-10.86,21.26-10.86,21.26s-13.52-1.73-21.77-9.77c-6.88-6.71-7.42-16.39-1.75-20.54,8.13-6,16,9.07,16,9.07S364.9,183.43,375,183C382,182.66,387.64,190.54,386.48,200.08Z" style="fill: rgb(255, 199, 39); transform-origin: 367.431px 202.165px;" id="ely2oevjs02k" class="animable"></path><path d="M393,153.12c-5.1,6.78-14.74,9.57-14.74,9.57s-8-6.08-10.29-14.23c-1.92-6.81,1.29-13.18,6.43-13.74,7.38-.81,6.9,11.68,6.9,11.68S385.38,134.58,392,138C396.56,140.37,397.26,147.47,393,153.12Z" style="fill: rgb(255, 199, 39); transform-origin: 381.623px 148.686px;" id="eliul5s3p6s6" class="animable"></path><path d="M131.53,289.05c-3.2,7.85-11.81,13-11.81,13s-9.27-3.84-13.57-11.15c-3.59-6.09-2.11-13.07,2.72-14.92,6.93-2.66,9.64,9.54,9.64,9.54s.92-12.46,8.16-10.84C131.72,275.82,134.2,282.5,131.53,289.05Z" style="fill: rgb(255, 199, 39); transform-origin: 118.389px 288.292px;" id="elvf5kz3wyojs" class="animable"></path></g><defs>     <filter id="active" height="200%">         <feMorphology in="SourceAlpha" result="DILATED" operator="dilate" radius="2"></feMorphology>                <feFlood flood-color="#32DFEC" flood-opacity="1" result="PINK"></feFlood>        <feComposite in="PINK" in2="DILATED" operator="in" result="OUTLINE"></feComposite>        <feMerge>            <feMergeNode in="OUTLINE"></feMergeNode>            <feMergeNode in="SourceGraphic"></feMergeNode>        </feMerge>    </filter>    <filter id="hover" height="200%">        <feMorphology in="SourceAlpha" result="DILATED" operator="dilate" radius="2"></feMorphology>                <feFlood flood-color="#ff0000" flood-opacity="0.5" result="PINK"></feFlood>        <feComposite in="PINK" in2="DILATED" operator="in" result="OUTLINE"></feComposite>        <feMerge>            <feMergeNode in="OUTLINE"></feMergeNode>            <feMergeNode in="SourceGraphic"></feMergeNode>        </feMerge>            <feColorMatrix type="matrix" values="0   0   0   0   0                0   1   0   0   0                0   0   0   0   0                0   0   0   1   0 "></feColorMatrix>    </filter></defs></svg>