<svg class="animated" id="freepik_stories-click-here" xmlns="http://www.w3.org/2000/svg" viewBox="0 0 500 500" version="1.1" xmlns:xlink="http://www.w3.org/1999/xlink" xmlns:svgjs="http://svgjs.com/svgjs"><style>svg#freepik_stories-click-here:not(.animated) .animable {opacity: 0;}svg#freepik_stories-click-here.animated #freepik--background-complete--inject-179 {animation: 1s 1 forwards cubic-bezier(.36,-0.01,.5,1.38) slideLeft,1.5s Infinite  linear shake;animation-delay: 0s,1s;}svg#freepik_stories-click-here.animated #freepik--Shadow--inject-179 {animation: 1s 1 forwards cubic-bezier(.36,-0.01,.5,1.38) slideDown,1.5s Infinite  linear wind;animation-delay: 0s,1s;}svg#freepik_stories-click-here.animated #freepik--Window--inject-179 {animation: 1s 1 forwards cubic-bezier(.36,-0.01,.5,1.38) slideDown,1.5s Infinite  linear heartbeat;animation-delay: 0s,1s;}svg#freepik_stories-click-here.animated #freepik--Plant--inject-179 {animation: 1.5s Infinite  linear wind;animation-delay: 0s;}svg#freepik_stories-click-here.animated #freepik--Character--inject-179 {animation: 1s 1 forwards cubic-bezier(.36,-0.01,.5,1.38) zoomOut,1.5s Infinite  linear floating;animation-delay: 0s,1s;}            @keyframes slideLeft {                0% {                    opacity: 0;                    transform: translateX(-30px);                }                100% {                    opacity: 1;                    transform: translateX(0);                }            }                    @keyframes shake {                10%, 90% {                    transform: translate3d(-1px, 0, 0);                  }                  20%, 80% {                    transform: translate3d(2px, 0, 0);                  }                  30%, 50%, 70% {                    transform: translate3d(-4px, 0, 0);                  }                  40%, 60% {                    transform: translate3d(4px, 0, 0);                  }            }                    @keyframes slideDown {                0% {                    opacity: 0;                    transform: translateY(-30px);                }                100% {                    opacity: 1;                    transform: translateY(0);                }            }                    @keyframes wind {                0% {                    transform: rotate( 0deg );                }                25% {                    transform: rotate( 1deg );                }                75% {                    transform: rotate( -1deg );                }            }                    @keyframes heartbeat {                0% {                    transform: scale(1);                }                10% {                    transform: scale(1.1);                }                30% {                    transform: scale(1);                }                40% {                    transform: scale(1);                }                50% {                    transform: scale(1.1);                }                60% {                    transform: scale(1);                }                100% {                    transform: scale(1);                }            }                    @keyframes zoomOut {                0% {                    opacity: 0;                    transform: scale(1.5);                }                100% {                    opacity: 1;                    transform: scale(1);                }            }                    @keyframes floating {                0% {                    opacity: 1;                    transform: translateY(0px);                }                50% {                    transform: translateY(-10px);                }                100% {                    opacity: 1;                    transform: translateY(0px);                }            }        </style><g id="freepik--background-complete--inject-179" class="animable" style="transform-origin: 249.02px 228.92px;"><rect x="415.8" y="399.21" width="33.12" height="0.25" style="fill: rgb(235, 235, 235); transform-origin: 432.36px 399.335px;" id="elcybatjfk2o" class="animable"></rect><rect x="321.55" y="401.92" width="8.69" height="0.25" style="fill: rgb(235, 235, 235); transform-origin: 325.895px 402.045px;" id="eljw9mzo19v8" class="animable"></rect><rect x="395.61" y="389.92" width="19.19" height="0.25" style="fill: rgb(235, 235, 235); transform-origin: 405.205px 390.045px;" id="elxdov6xivof" class="animable"></rect><rect x="51.48" y="391.6" width="43.19" height="0.25" style="fill: rgb(235, 235, 235); transform-origin: 73.075px 391.725px;" id="ell84cxhobr1" class="animable"></rect><rect x="103.58" y="391.6" width="6.33" height="0.25" style="fill: rgb(235, 235, 235); transform-origin: 106.745px 391.725px;" id="elywt57to3imh" class="animable"></rect><rect x="130.49" y="395.82" width="93.68" height="0.25" style="fill: rgb(235, 235, 235); transform-origin: 177.33px 395.945px;" id="el0zhqka0f2t5" class="animable"></rect><path d="M236,338.51H42.94a5.71,5.71,0,0,1-5.71-5.71V61.37a5.71,5.71,0,0,1,5.71-5.7H236a5.71,5.71,0,0,1,5.71,5.7V332.8A5.71,5.71,0,0,1,236,338.51ZM42.94,55.92a5.46,5.46,0,0,0-5.46,5.45V332.8a5.47,5.47,0,0,0,5.46,5.46H236a5.47,5.47,0,0,0,5.46-5.46V61.37A5.46,5.46,0,0,0,236,55.92Z" style="fill: rgb(235, 235, 235); transform-origin: 139.47px 197.09px;" id="eltac0l3xdh1" class="animable"></path><path d="M452.33,338.51H259.23a5.71,5.71,0,0,1-5.7-5.71V61.37a5.71,5.71,0,0,1,5.7-5.7h193.1a5.71,5.71,0,0,1,5.71,5.7V332.8A5.71,5.71,0,0,1,452.33,338.51ZM259.23,55.92a5.45,5.45,0,0,0-5.45,5.45V332.8a5.46,5.46,0,0,0,5.45,5.46h193.1a5.47,5.47,0,0,0,5.46-5.46V61.37a5.46,5.46,0,0,0-5.46-5.45Z" style="fill: rgb(235, 235, 235); transform-origin: 355.785px 197.09px;" id="elr2gb2jid8q" class="animable"></path><rect x="-0.98" y="383.11" width="500" height="0.25" style="fill: rgb(235, 235, 235); transform-origin: 249.02px 383.235px;" id="elm06j9ct89s" class="animable"></rect><g id="eljubyittzxtn"><rect x="72.48" y="264.32" width="84.83" height="112.88" style="fill: rgb(240, 240, 240); transform-origin: 114.895px 320.76px; transform: rotate(180deg);" class="animable"></rect></g><g id="elbk7fflhqky8"><rect x="56.3" y="264.32" width="16.18" height="112.88" style="fill: rgb(230, 230, 230); transform-origin: 64.39px 320.76px; transform: rotate(180deg);" class="animable"></rect></g><g id="elutuwpqmpsk"><rect x="77.99" y="272.69" width="73.39" height="27.41" style="fill: rgb(250, 250, 250); transform-origin: 114.685px 286.395px; transform: rotate(180deg);" class="animable"></rect></g><path d="M124.25,272.69l-.32,3.66a2.35,2.35,0,0,1-2.33,2.13H107.76a2.35,2.35,0,0,1-2.33-2.13l-.32-3.66Z" style="fill: rgb(235, 235, 235); transform-origin: 114.68px 275.585px;" id="elsccbihlvhz" class="animable"></path><g id="elxzy498vg4f"><rect x="77.99" y="303.1" width="73.39" height="27.41" style="fill: rgb(250, 250, 250); transform-origin: 114.685px 316.805px; transform: rotate(180deg);" class="animable"></rect></g><path d="M124.25,303.1l-.32,3.65a2.34,2.34,0,0,1-2.33,2.13H107.76a2.34,2.34,0,0,1-2.33-2.13l-.32-3.65Z" style="fill: rgb(235, 235, 235); transform-origin: 114.68px 305.99px;" id="elcnx5ic36qw9" class="animable"></path><g id="elbgnte7ht5hq"><rect x="77.99" y="333.51" width="73.39" height="27.41" style="fill: rgb(250, 250, 250); transform-origin: 114.685px 347.215px; transform: rotate(180deg);" class="animable"></rect></g><path d="M124.25,333.51l-.32,3.65a2.34,2.34,0,0,1-2.33,2.13H107.76a2.34,2.34,0,0,1-2.33-2.13l-.32-3.65Z" style="fill: rgb(235, 235, 235); transform-origin: 114.68px 336.4px;" id="elqjiz2b57wia" class="animable"></path><polygon points="77.99 382.83 150.48 382.83 151.37 377.19 77.99 377.19 77.99 382.83" style="fill: rgb(230, 230, 230); transform-origin: 114.68px 380.01px;" id="el6pemmes7p6" class="animable"></polygon><polygon points="62.83 382.83 77.99 382.83 77.99 377.19 61.94 377.19 62.83 382.83" style="fill: rgb(224, 224, 224); transform-origin: 69.965px 380.01px;" id="elnhc7aqbqbkc" class="animable"></polygon><polygon points="112.06 264.44 141.03 264.44 137.82 227.7 108.85 227.7 112.06 264.44" style="fill: rgb(250, 250, 250); transform-origin: 124.94px 246.07px;" id="eliodmg0zhr5a" class="animable"></polygon><polygon points="112.06 264.44 110.68 264.44 107.47 227.7 108.85 227.7 112.06 264.44" style="fill: rgb(235, 235, 235); transform-origin: 109.765px 246.07px;" id="elhco8z0vku8k" class="animable"></polygon><polygon points="114.69 260.69 137.75 260.69 135.19 231.45 112.13 231.45 114.69 260.69" style="fill: rgb(240, 240, 240); transform-origin: 124.94px 246.07px;" id="el9ycgqzr4bgl" class="animable"></polygon><polygon points="116.38 258.28 135.64 258.28 133.5 233.85 114.24 233.85 116.38 258.28" style="fill: rgb(230, 230, 230); transform-origin: 124.94px 246.065px;" id="elodk99ryneo" class="animable"></polygon><polygon points="103.92 264.44 105.91 241.7 77.08 241.7 75.09 264.44 103.92 264.44" style="fill: rgb(240, 240, 240); transform-origin: 90.5px 253.07px;" id="el7v2v5of8su" class="animable"></polygon><polygon points="103.92 264.44 105.91 241.7 107.47 241.7 105.48 264.44 103.92 264.44" style="fill: rgb(224, 224, 224); transform-origin: 105.695px 253.07px;" id="el1lcbj6fhjmr" class="animable"></polygon><polygon points="101.19 262.12 102.77 244.02 79.81 244.02 78.23 262.12 101.19 262.12" style="fill: rgb(235, 235, 235); transform-origin: 90.5px 253.07px;" id="elbs5vwcyvyhe" class="animable"></polygon><polygon points="99.43 260.63 100.75 245.51 81.57 245.51 80.25 260.63 99.43 260.63" style="fill: rgb(245, 245, 245); transform-origin: 90.5px 253.07px;" id="elk50g515vah" class="animable"></polygon><path d="M231.07,282.71h6.82a0,0,0,0,1,0,0V381.8a1.19,1.19,0,0,1-1.19,1.19h-4.45a1.19,1.19,0,0,1-1.19-1.19V282.71A0,0,0,0,1,231.07,282.71Z" style="fill: rgb(240, 240, 240); transform-origin: 234.475px 332.85px;" id="el9u0tekd0m5" class="animable"></path><path d="M429.33,273.79H413.66V272.4a4.76,4.76,0,0,1,5-4.76l6.14.33a4.77,4.77,0,0,1,4.51,4.76Z" style="fill: rgb(240, 240, 240); transform-origin: 421.495px 270.712px;" id="elrem868dbmo" class="animable"></path><path d="M387,241.39a2.32,2.32,0,0,0-2.32-2.2H368.86a2.32,2.32,0,0,0-2.31,2.2l3.76,33H394Z" style="fill: rgb(224, 224, 224); transform-origin: 380.275px 256.79px;" id="elg39uxkv53vt" class="animable"></path><path d="M430,190.64h-5.9L417.5,253h5.9a2,2,0,0,0,2-1.77l6.26-58.8A1.56,1.56,0,0,0,430,190.64Z" style="fill: rgb(224, 224, 224); transform-origin: 424.589px 221.818px;" id="eli8kkyujyexs" class="animable"></path><path d="M420.91,253H332.45a1.56,1.56,0,0,1-1.58-1.77l6.25-58.8a2,2,0,0,1,2-1.77h88.46a1.56,1.56,0,0,1,1.58,1.77l-6.25,58.8A2,2,0,0,1,420.91,253Z" style="fill: rgb(235, 235, 235); transform-origin: 380.015px 221.83px;" id="el16yw07ik6yc" class="animable"></path><path d="M419.26,247.23H335.84a1.37,1.37,0,0,1-1.38-1.55l5.46-51.3a1.75,1.75,0,0,1,1.71-1.55H425a1.36,1.36,0,0,1,1.38,1.55L421,245.68A1.76,1.76,0,0,1,419.26,247.23Z" style="fill: rgb(224, 224, 224); transform-origin: 380.421px 220.03px;" id="eljwil5lnbnxd" class="animable"></path><rect x="364.48" y="271.84" width="31.64" height="2.56" rx="0.96" style="fill: rgb(224, 224, 224); transform-origin: 380.3px 273.12px;" id="el0qyqwzk9trf" class="animable"></rect><path d="M335.53,247.23l24.79-21.55c2.36-2,5.37-2,6.73,0l14.37,21.55Z" style="fill: rgb(235, 235, 235); transform-origin: 358.475px 235.705px;" id="el0a1869t5pg15" class="animable"></path><path d="M360.32,225.68l-24.79,21.55H359.3c-2.37-1.2-7.95-1.84-7.29-4.59.87-3.57,11.92-2.32,12.74-5.71s-7.06-2.32-6.07-6.43c.52-2.15,2.56-4.49,4.39-6.24A6.27,6.27,0,0,0,360.32,225.68Z" style="fill: rgb(245, 245, 245); transform-origin: 350.17px 235.745px;" id="elmdaiu91433h" class="animable"></path><path d="M372,247.23l11-10.87c1-1,2.37-1,3,0l6.36,10.87Z" style="fill: rgb(235, 235, 235); transform-origin: 382.18px 241.42px;" id="el9wzzelgu57a" class="animable"></path><path d="M383,236.36l-11,10.87h10.53c-1.05-.61-3.52-.93-3.23-2.32.38-1.8,5.28-1.17,5.65-2.88s-3.13-1.17-2.69-3.24a7.66,7.66,0,0,1,1.94-3.15A2.62,2.62,0,0,0,383,236.36Z" style="fill: rgb(250, 250, 250); transform-origin: 378.489px 241.435px;" id="elrkkxi9pr6l" class="animable"></path><path d="M390.81,247.23l15.39-10.87c1.47-1,3.34-1,4.18,0l8.92,10.87Z" style="fill: rgb(235, 235, 235); transform-origin: 405.055px 241.42px;" id="elk9273qg8f5" class="animable"></path><path d="M406.2,236.36l-15.39,10.87h14.76c-1.47-.61-4.94-.93-4.53-2.32.54-1.8,7.4-1.17,7.91-2.88s-4.38-1.17-3.77-3.24a7.91,7.91,0,0,1,2.73-3.15A4.24,4.24,0,0,0,406.2,236.36Z" style="fill: rgb(250, 250, 250); transform-origin: 399.899px 241.435px;" id="el1y7dagb4tlo" class="animable"></path><g id="elay9bnuags48"><ellipse cx="400.2" cy="214.67" rx="11.02" ry="8.91" style="fill: rgb(240, 240, 240); transform-origin: 400.2px 214.67px; transform: rotate(-41.97deg);" class="animable"></ellipse></g><g id="el0qrr6p9t5kq"><ellipse cx="400.2" cy="214.67" rx="11.02" ry="8.91" style="fill: rgb(255, 255, 255); opacity: 0.8; transform-origin: 400.2px 214.67px; transform: rotate(-41.97deg);" class="animable"></ellipse></g><rect x="383.04" y="273.79" width="59.1" height="8.92" style="fill: rgb(230, 230, 230); transform-origin: 412.59px 278.25px;" id="el793ocu8k9vi" class="animable"></rect><path d="M273.32,282.71h6.82a0,0,0,0,1,0,0V381.8a1.19,1.19,0,0,1-1.19,1.19H274.5a1.19,1.19,0,0,1-1.19-1.19V282.71A0,0,0,0,1,273.32,282.71Z" style="fill: rgb(230, 230, 230); transform-origin: 276.725px 332.85px;" id="el8myfxypyomc" class="animable"></path><path d="M431.38,282.71h6.82a0,0,0,0,1,0,0V381.8A1.19,1.19,0,0,1,437,383h-4.45a1.19,1.19,0,0,1-1.19-1.19V282.71A0,0,0,0,1,431.38,282.71Z" style="fill: rgb(230, 230, 230); transform-origin: 434.78px 332.855px;" id="eld8kpoq9hca" class="animable"></path><rect x="227.13" y="273.79" width="172.76" height="8.92" style="fill: rgb(245, 245, 245); transform-origin: 313.51px 278.25px;" id="elk7xc0j6esdl" class="animable"></rect><path d="M389.14,282.71H396a0,0,0,0,1,0,0V381.8a1.19,1.19,0,0,1-1.19,1.19h-4.45a1.19,1.19,0,0,1-1.19-1.19V282.71A0,0,0,0,1,389.14,282.71Z" style="fill: rgb(240, 240, 240); transform-origin: 392.57px 332.85px;" id="elt1fcycvrk5" class="animable"></path><path d="M341.16,271.71H339a.42.42,0,0,1-.42-.42V269a.42.42,0,0,1,.42-.42h1.58a.43.43,0,0,1,.41.31l.62,2.34A.42.42,0,0,1,341.16,271.71Z" style="fill: rgb(245, 245, 245); transform-origin: 340.097px 270.146px;" id="elunxjrpulk79" class="animable"></path><path d="M344.21,271.71H342a.42.42,0,0,1-.42-.42V269a.42.42,0,0,1,.42-.42h1.58a.43.43,0,0,1,.41.31l.62,2.34A.42.42,0,0,1,344.21,271.71Z" style="fill: rgb(245, 245, 245); transform-origin: 343.097px 270.145px;" id="el4y551fpxbpa" class="animable"></path><path d="M347.26,271.71h-2.21a.42.42,0,0,1-.42-.42V269a.42.42,0,0,1,.42-.42h1.59a.43.43,0,0,1,.41.31l.62,2.34A.42.42,0,0,1,347.26,271.71Z" style="fill: rgb(245, 245, 245); transform-origin: 346.152px 270.145px;" id="eljpdg03o4z2" class="animable"></path><path d="M350.31,271.71H348.1a.42.42,0,0,1-.42-.42V269a.42.42,0,0,1,.42-.42h1.59a.41.41,0,0,1,.4.31l.63,2.34A.42.42,0,0,1,350.31,271.71Z" style="fill: rgb(245, 245, 245); transform-origin: 349.202px 270.145px;" id="elhub1n42synp" class="animable"></path><path d="M353.36,271.71h-2.21a.42.42,0,0,1-.42-.42V269a.42.42,0,0,1,.42-.42h1.59a.42.42,0,0,1,.4.31l.62,2.34A.42.42,0,0,1,353.36,271.71Z" style="fill: rgb(245, 245, 245); transform-origin: 352.247px 270.145px;" id="elpk7dy1nu7xe" class="animable"></path><path d="M356.41,271.71H354.2a.42.42,0,0,1-.42-.42V269a.42.42,0,0,1,.42-.42h1.58a.42.42,0,0,1,.41.31l.62,2.34A.42.42,0,0,1,356.41,271.71Z" style="fill: rgb(245, 245, 245); transform-origin: 355.297px 270.145px;" id="ela9mnlkrm4gc" class="animable"></path><path d="M359.46,271.71h-2.21a.42.42,0,0,1-.42-.42V269a.42.42,0,0,1,.42-.42h1.58a.43.43,0,0,1,.41.31l.62,2.34A.42.42,0,0,1,359.46,271.71Z" style="fill: rgb(245, 245, 245); transform-origin: 358.347px 270.145px;" id="elz8y1uxj0zoi" class="animable"></path><path d="M362.5,271.71h-2.2a.42.42,0,0,1-.42-.42V269a.42.42,0,0,1,.42-.42h1.58a.43.43,0,0,1,.41.31l.62,2.34A.42.42,0,0,1,362.5,271.71Z" style="fill: rgb(245, 245, 245); transform-origin: 361.397px 270.145px;" id="elldqj6i1m6d" class="animable"></path><path d="M365.55,271.71h-2.2a.42.42,0,0,1-.42-.42V269a.42.42,0,0,1,.42-.42h1.58a.43.43,0,0,1,.41.31l.62,2.34A.42.42,0,0,1,365.55,271.71Z" style="fill: rgb(245, 245, 245); transform-origin: 364.447px 270.145px;" id="elvq13fvbi3d9" class="animable"></path><path d="M368.6,271.71h-2.21a.42.42,0,0,1-.42-.42V269a.42.42,0,0,1,.42-.42H368a.43.43,0,0,1,.41.31l.62,2.34A.42.42,0,0,1,368.6,271.71Z" style="fill: rgb(245, 245, 245); transform-origin: 367.502px 270.145px;" id="el99tqluva0l" class="animable"></path><path d="M371.65,271.71h-2.21a.42.42,0,0,1-.42-.42V269a.42.42,0,0,1,.42-.42H371a.41.41,0,0,1,.4.31l.63,2.34A.42.42,0,0,1,371.65,271.71Z" style="fill: rgb(245, 245, 245); transform-origin: 370.527px 270.145px;" id="eldmbv2um9i6k" class="animable"></path><path d="M374.7,271.71h-2.21a.42.42,0,0,1-.42-.42V269a.42.42,0,0,1,.42-.42h1.59a.42.42,0,0,1,.4.31l.62,2.34A.42.42,0,0,1,374.7,271.71Z" style="fill: rgb(245, 245, 245); transform-origin: 373.587px 270.145px;" id="elgkzpi83hqo" class="animable"></path><path d="M377.75,271.71h-2.21a.42.42,0,0,1-.42-.42V269a.42.42,0,0,1,.42-.42h1.58a.42.42,0,0,1,.41.31l.62,2.34A.42.42,0,0,1,377.75,271.71Z" style="fill: rgb(245, 245, 245); transform-origin: 376.637px 270.145px;" id="elm5lulamfbw" class="animable"></path><path d="M380.79,271.71h-2.2a.42.42,0,0,1-.42-.42V269a.42.42,0,0,1,.42-.42h1.58a.43.43,0,0,1,.41.31l.62,2.34A.42.42,0,0,1,380.79,271.71Z" style="fill: rgb(245, 245, 245); transform-origin: 379.687px 270.145px;" id="elke7px0ct5g" class="animable"></path><path d="M383.84,271.71h-2.2a.42.42,0,0,1-.42-.42V269a.42.42,0,0,1,.42-.42h1.58a.43.43,0,0,1,.41.31l.62,2.34A.42.42,0,0,1,383.84,271.71Z" style="fill: rgb(245, 245, 245); transform-origin: 382.737px 270.145px;" id="elie3t4ohmbuc" class="animable"></path><rect x="336.74" y="270.12" width="49.32" height="3.67" style="fill: rgb(235, 235, 235); transform-origin: 361.4px 271.955px;" id="el0x02gfjol8g" class="animable"></rect></g><g id="freepik--Shadow--inject-179" class="animable" style="transform-origin: 245.18px 412.39px;"><ellipse id="freepik--path--inject-179" cx="245.18" cy="412.39" rx="193.89" ry="11.32" style="fill: rgb(245, 245, 245); transform-origin: 245.18px 412.39px;" class="animable"></ellipse></g><g id="freepik--Window--inject-179" class="animable" style="transform-origin: 204.83px 182.16px;"><polygon points="72.81 286.02 351.39 286.02 336.84 77.99 58.27 77.99 72.81 286.02" style="fill: rgb(255, 193, 0); transform-origin: 204.83px 182.005px;" id="el1k1sfw5t0mf" class="animable"></polygon><g id="elbf4vfv15vzj"><g style="opacity: 0.6; transform-origin: 204.83px 182.005px;" class="animable"><polygon points="72.81 286.02 351.39 286.02 336.84 77.99 58.27 77.99 72.81 286.02" style="fill: rgb(255, 255, 255); transform-origin: 204.83px 182.005px;" id="elkfjvqil9f4k" class="animable"></polygon></g></g><path d="M291.14,104a.79.79,0,0,0,.39-.11l4.46-2.83a.72.72,0,0,0,.34-.61.73.73,0,0,0-.33-.61l-4.69-3.07a.72.72,0,0,0-.79,1.21l3.75,2.46-3.52,2.22a.73.73,0,0,0,.39,1.34Z" style="fill: rgb(38, 50, 56); transform-origin: 293.261px 100.326px;" id="elkvwqjxkgkn" class="animable"></path><path d="M288.71,101.18h6.9a.72.72,0,0,0,.72-.72.73.73,0,0,0-.72-.73h-6.9a.73.73,0,0,0-.72.73A.72.72,0,0,0,288.71,101.18Z" style="fill: rgb(38, 50, 56); transform-origin: 292.16px 100.455px;" id="ell8s70pza6q" class="animable"></path><path d="M277.8,104a.73.73,0,0,0,.61-.33.73.73,0,0,0-.21-1l-3.75-2.45L278,98a.73.73,0,0,0,.22-1,.72.72,0,0,0-1-.22l-4.47,2.83a.73.73,0,0,0-.33.6.71.71,0,0,0,.33.61l4.69,3.07A.71.71,0,0,0,277.8,104Z" style="fill: rgb(38, 50, 56); transform-origin: 275.472px 100.332px;" id="eldyhbytbgqrg" class="animable"></path><path d="M273.11,100.94H280a.73.73,0,0,0,.73-.72.73.73,0,0,0-.73-.73h-6.89a.73.73,0,0,0-.72.73A.72.72,0,0,0,273.11,100.94Z" style="fill: rgb(38, 50, 56); transform-origin: 276.56px 100.215px;" id="elbeano51oz09" class="animable"></path><path d="M260.62,105.49a4.23,4.23,0,0,0,3.16-1.36,4.29,4.29,0,0,0,1.14-3.26,4.94,4.94,0,0,0-4.84-4.52,4.27,4.27,0,0,0-4.29,4.62.72.72,0,0,0,1.44-.1,2.82,2.82,0,0,1,2.85-3.07,3.45,3.45,0,0,1,3.39,3.17,2.8,2.8,0,0,1-2.85,3.07.72.72,0,0,0-.72.72A.73.73,0,0,0,260.62,105.49Z" style="fill: rgb(38, 50, 56); transform-origin: 260.354px 100.92px;" id="elrsvo0a9zit" class="animable"></path><path d="M256.52,101.72l.2,0,2.33-.68a.72.72,0,1,0-.41-1.39l-1.8.53L256,98.78a.72.72,0,0,0-1.24.75l1.14,1.85A.71.71,0,0,0,256.52,101.72Z" style="fill: rgb(38, 50, 56); transform-origin: 257.113px 100.075px;" id="eltv62n4xm2jr" class="animable"></path><path d="M137.75,102.59a3.79,3.79,0,0,1-1.21-2.64,3.33,3.33,0,0,1,.89-2.44,3.37,3.37,0,0,1,2.38-1.07,3.76,3.76,0,0,1,2.71,1,3.8,3.8,0,0,1,1.22,2.64,3.38,3.38,0,0,1-.9,2.44,3.34,3.34,0,0,1-2.37,1.07h-.13A3.85,3.85,0,0,1,137.75,102.59Zm2.11-4.71a1.91,1.91,0,0,0-1.88,2,2.36,2.36,0,0,0,.76,1.63h0a2.36,2.36,0,0,0,1.67.65,1.91,1.91,0,0,0,1.88-2,2.36,2.36,0,0,0-.76-1.63,2.33,2.33,0,0,0-1.59-.65Z" style="fill: rgb(38, 50, 56); transform-origin: 140.139px 100.013px;" id="eln0qg867cic9" class="animable"></path><path d="M135.74,105.49a.72.72,0,0,0,.53-.24l2.51-2.7a.72.72,0,0,0-1.06-1l-2.51,2.7a.72.72,0,0,0,0,1A.74.74,0,0,0,135.74,105.49Z" style="fill: rgb(38, 50, 56); transform-origin: 136.993px 103.406px;" id="el50k7lioej8f" class="animable"></path><polygon points="59.08 89.69 337.66 89.69 336.84 77.99 58.27 77.99 59.08 89.69" style="fill: rgb(255, 193, 0); transform-origin: 197.965px 83.84px;" id="eldtc2quulqrk" class="animable"></polygon><g id="el1pontsgeulf"><polygon points="59.08 89.69 337.66 89.69 336.84 77.99 58.27 77.99 59.08 89.69" style="opacity: 0.4; transform-origin: 197.965px 83.84px;" class="animable"></polygon></g><path d="M86.06,83.84a3.83,3.83,0,0,0,3.75,3.5,3.22,3.22,0,0,0,3.25-3.5,3.81,3.81,0,0,0-3.74-3.5A3.23,3.23,0,0,0,86.06,83.84Z" style="fill: rgb(255, 255, 255); transform-origin: 89.5604px 83.84px;" id="elhh5jgsixfiq" class="animable"></path><path d="M75.33,83.84a3.83,3.83,0,0,0,3.75,3.5,3.22,3.22,0,0,0,3.25-3.5,3.81,3.81,0,0,0-3.74-3.5A3.23,3.23,0,0,0,75.33,83.84Z" style="fill: rgb(255, 255, 255); transform-origin: 78.8304px 83.84px;" id="ely8kw77eya5" class="animable"></path><path d="M64.6,83.84a3.82,3.82,0,0,0,3.75,3.5,3.22,3.22,0,0,0,3.25-3.5,3.81,3.81,0,0,0-3.74-3.5A3.23,3.23,0,0,0,64.6,83.84Z" style="fill: rgb(255, 255, 255); transform-origin: 68.1004px 83.84px;" id="el4djal58day4" class="animable"></path><path d="M325.16,97.23h0l-8.86-.14a.75.75,0,0,1-.74-.76.78.78,0,0,1,.76-.74l8.86.14a.75.75,0,0,1,0,1.5Z" style="fill: rgb(38, 50, 56); transform-origin: 320.745px 96.41px;" id="eljbhvi7pyf8k" class="animable"></path><path d="M325.51,101.21h0l-8.85-.14a.75.75,0,0,1-.74-.76.78.78,0,0,1,.76-.74l8.86.14a.75.75,0,0,1,.74.76A.76.76,0,0,1,325.51,101.21Z" style="fill: rgb(38, 50, 56); transform-origin: 321.1px 100.39px;" id="eldyyarsbdh3i" class="animable"></path><path d="M325.85,105.19h0l-8.85-.14a.75.75,0,0,1-.74-.76.78.78,0,0,1,.76-.74l8.86.14a.75.75,0,0,1,0,1.5Z" style="fill: rgb(38, 50, 56); transform-origin: 321.445px 104.37px;" id="elq2dhppm25" class="animable"></path><path d="M156.24,104.76h84.9a4.05,4.05,0,0,0,4.1-4.41h0a4.81,4.81,0,0,0-4.72-4.41h-84.9a4.06,4.06,0,0,0-4.1,4.41h0A4.81,4.81,0,0,0,156.24,104.76Z" style="fill: rgb(255, 255, 255); transform-origin: 198.38px 100.35px;" id="el44top38niyw" class="animable"></path><g id="elhpl8ycaexi"><g style="opacity: 0.5; transform-origin: 204.825px 118.34px;" class="animable"><polygon points="202.55 117.77 206.63 117.77 206.24 112.08 202.15 112.08 202.55 117.77" id="elhgrwx5xoi7f" class="animable" style="transform-origin: 204.39px 114.925px;"></polygon><polygon points="200.56 117.73 204.87 121.76 208.62 117.73 200.56 117.73" id="elxkticpa27zp" class="animable" style="transform-origin: 204.59px 119.745px;"></polygon><polygon points="196.43 124.6 213.7 124.6 213.22 117.73 211.05 117.73 211.38 122.43 198.45 122.43 198.12 117.69 195.95 117.69 196.43 124.6" id="elxzp4zpr7me8" class="animable" style="transform-origin: 204.825px 121.145px;"></polygon><g id="el22yo6tof9nz"><g style="opacity: 0.5; transform-origin: 204.825px 118.34px;" class="animable"><polygon points="202.55 117.77 206.63 117.77 206.24 112.08 202.15 112.08 202.55 117.77" id="elrzhibcxrw5e" class="animable" style="transform-origin: 204.39px 114.925px;"></polygon><polygon points="200.56 117.73 204.87 121.76 208.62 117.73 200.56 117.73" id="el9pqcx8vnehg" class="animable" style="transform-origin: 204.59px 119.745px;"></polygon><polygon points="196.43 124.6 213.7 124.6 213.22 117.73 211.05 117.73 211.38 122.43 198.45 122.43 198.12 117.69 195.95 117.69 196.43 124.6" id="el07y0ps683rij" class="animable" style="transform-origin: 204.825px 121.145px;"></polygon></g></g></g></g><g id="elpzxl9z6mhhc"><polygon points="293.77 77.99 350.68 286.33 337.28 286.33 280.82 77.99 293.77 77.99" style="fill: rgb(255, 255, 255); opacity: 0.1; isolation: isolate; transform-origin: 315.75px 182.16px;" class="animable"></polygon></g><g id="elhu8qc8uq0aj"><polygon points="107.04 77.99 163.94 286.33 150.55 286.33 94.09 77.99 107.04 77.99" style="fill: rgb(255, 255, 255); opacity: 0.1; isolation: isolate; transform-origin: 129.015px 182.16px;" class="animable"></polygon></g><g id="el5szw30q08w4"><polygon points="273.1 77.99 330.01 286.33 298.61 286.33 242.14 77.99 273.1 77.99" style="fill: rgb(255, 255, 255); opacity: 0.1; isolation: isolate; transform-origin: 286.075px 182.16px;" class="animable"></polygon></g><path d="M165.78,161.33H249.3a8.54,8.54,0,0,0,8.63-9.28l-.62-8.86a10.11,10.11,0,0,0-9.93-9.28H163.86a8.54,8.54,0,0,0-8.63,9.28l.62,8.86A10.12,10.12,0,0,0,165.78,161.33Z" style="fill: rgb(255, 193, 0); transform-origin: 206.58px 147.62px;" id="elm9xvksstn1i" class="animable"></path><path d="M183.73,147.48a2.77,2.77,0,0,1,3-3.15,3.46,3.46,0,0,1,2.53,1l-.66.7a2.36,2.36,0,0,0-1.71-.72,1.85,1.85,0,0,0-2,2.15,2.37,2.37,0,0,0,2.41,2.16,1.9,1.9,0,0,0,1.56-.73l.81.7a2.77,2.77,0,0,1-2.32,1A3.55,3.55,0,0,1,183.73,147.48Z" style="fill: rgb(255, 255, 255); transform-origin: 186.686px 147.457px;" id="elv74zency1pb" class="animable"></path><path d="M190.07,144.05h1.09l.68,6.5h-1.09Z" style="fill: rgb(255, 255, 255); transform-origin: 190.955px 147.3px;" id="elji8s8w79qto" class="animable"></path><path d="M192.49,144.44a.59.59,0,0,1,.63-.65.74.74,0,0,1,.76.63.59.59,0,0,1-.63.68A.75.75,0,0,1,192.49,144.44Zm.29,1.43h1.1l.49,4.68h-1.09Z" style="fill: rgb(255, 255, 255); transform-origin: 193.428px 147.169px;" id="elcnjv3r8m9e" class="animable"></path><path d="M195.17,148.21a2.1,2.1,0,0,1,2.28-2.39,2.37,2.37,0,0,1,2.11,1.08l-.79.49a1.5,1.5,0,0,0-1.23-.64,1.21,1.21,0,0,0-1.26,1.46,1.54,1.54,0,0,0,1.57,1.46,1.16,1.16,0,0,0,1.09-.65l.89.49a1.88,1.88,0,0,1-1.88,1.1A2.7,2.7,0,0,1,195.17,148.21Z" style="fill: rgb(255, 255, 255); transform-origin: 197.489px 148.214px;" id="elfh260o2fb4t" class="animable"></path><path d="M202.54,148.54l-.73.77.13,1.24h-1.1l-.68-6.5h1.09l.42,3.92,2-2.1H205l-1.74,2,2.42,2.72h-1.33Z" style="fill: rgb(255, 255, 255); transform-origin: 202.92px 147.32px;" id="elp8m1nbwywqo" class="animable"></path><path d="M213.72,144.42l.65,6.13h-1.14l-.28-2.63h-3.16l.27,2.63h-1.13l-.65-6.13h1.14l.27,2.53h3.16l-.27-2.53Z" style="fill: rgb(255, 255, 255); transform-origin: 211.325px 147.485px;" id="elwnk0zhfe8co" class="animable"></path><path d="M220.07,148.56h-3.66a1.61,1.61,0,0,0,1.63,1.12,1.5,1.5,0,0,0,1.21-.51l.66.68a2.13,2.13,0,0,1-1.8.76,2.68,2.68,0,0,1-2.83-2.4,2.06,2.06,0,0,1,2.16-2.39,2.58,2.58,0,0,1,2.61,2.42A2.88,2.88,0,0,1,220.07,148.56Zm-3.75-.73H219a1.45,1.45,0,0,0-1.44-1.14A1.14,1.14,0,0,0,216.32,147.83Z" style="fill: rgb(255, 255, 255); transform-origin: 217.661px 148.216px;" id="elswb0rg13occ" class="animable"></path><path d="M223.55,145.82l.11,1-.25,0c-.83,0-1.31.49-1.21,1.45l.24,2.27h-1.09l-.49-4.68h1l.07.68A1.64,1.64,0,0,1,223.55,145.82Z" style="fill: rgb(255, 255, 255); transform-origin: 222.26px 148.17px;" id="elxuakzcp1rds" class="animable"></path><path d="M229.1,148.56h-3.66a1.6,1.6,0,0,0,1.63,1.12,1.5,1.5,0,0,0,1.21-.51l.66.68a2.13,2.13,0,0,1-1.8.76,2.68,2.68,0,0,1-2.83-2.4,2.06,2.06,0,0,1,2.16-2.39,2.58,2.58,0,0,1,2.61,2.42A2.88,2.88,0,0,1,229.1,148.56Zm-3.75-.73H228a1.45,1.45,0,0,0-1.44-1.14A1.14,1.14,0,0,0,225.35,147.83Z" style="fill: rgb(255, 255, 255); transform-origin: 226.691px 148.216px;" id="el4y5d89qqotw" class="animable"></path><path d="M260.91,171.39,252,167s-2.35-2.71.12-3.87a3.42,3.42,0,0,1,3,.17l3.31,1.79-14.77-14.77a2.16,2.16,0,0,1,0-3h0a2.16,2.16,0,0,1,3.05,0L257,157.57l-4.7-4.7,1.56-1.55a1.92,1.92,0,0,1,2.73,0l4,4-4.19-4.19,1.81-1.81a1.94,1.94,0,0,1,2.73,0l3.46,3.46-3.3-3.3,1.05-1.05a1.94,1.94,0,0,1,2.73,0l8.33,8.34a7.13,7.13,0,0,1,1,1.3l1.39,2.32a6,6,0,0,1,.85,3.06h0L268,171.86l-3.75.21A6.76,6.76,0,0,1,260.91,171.39Z" style="fill: rgb(255, 255, 255); transform-origin: 259.752px 159.385px;" id="elb4ps26f7n6m" class="animable"></path><path d="M240.48,145.05a1,1,0,0,1-.71-.3l-3.05-3.05a1,1,0,0,1,1.41-1.41l3.06,3.05a1,1,0,0,1,0,1.41A1,1,0,0,1,240.48,145.05Z" style="fill: rgb(255, 255, 255); transform-origin: 238.98px 142.55px;" id="el074pb3y6gvjj" class="animable"></path><path d="M238.42,150h-4.31a1,1,0,0,1,0-2h4.31a1,1,0,0,1,0,2Z" style="fill: rgb(255, 255, 255); transform-origin: 236.265px 149px;" id="elp40i0qd9xji" class="animable"></path><path d="M250.37,145.05a1,1,0,0,1-.71-1.7l3.06-3.06a1,1,0,0,1,1.42,0,1,1,0,0,1,0,1.41l-3.06,3.06A1,1,0,0,1,250.37,145.05Z" style="fill: rgb(255, 255, 255); transform-origin: 251.902px 142.522px;" id="elq2jmi89tgt" class="animable"></path><path d="M237.43,158a1,1,0,0,1-.71-1.71l3-3a1,1,0,0,1,1.41,0,1,1,0,0,1,0,1.41l-3,3.05A1,1,0,0,1,237.43,158Z" style="fill: rgb(255, 255, 255); transform-origin: 238.922px 155.5px;" id="elwad7und9618" class="animable"></path><path d="M245.42,143a1,1,0,0,1-1-1v-4.32a1,1,0,0,1,2,0V142A1,1,0,0,1,245.42,143Z" style="fill: rgb(255, 255, 255); transform-origin: 245.42px 139.84px;" id="ell5vxtw6b2b" class="animable"></path><polygon points="173.16 252.07 260.65 252.07 253.85 174.41 166.36 174.41 173.16 252.07" style="fill: rgb(255, 193, 0); transform-origin: 213.505px 213.24px;" id="el0ypqmvliv4om" class="animable"></polygon><g id="el9pbx6zogou"><polygon points="173.16 252.07 260.65 252.07 253.85 174.41 166.36 174.41 173.16 252.07" style="fill: rgb(255, 255, 255); opacity: 0.9; transform-origin: 213.505px 213.24px;" class="animable"></polygon></g><polygon points="174.08 224.52 254.8 224.52 250.74 178.12 170.02 178.12 174.08 224.52" style="fill: rgb(255, 193, 0); transform-origin: 212.41px 201.32px;" id="elajbo2qk9zxk" class="animable"></polygon><polygon points="229.49 232.8 250.57 232.8 250.13 227.76 229.04 227.76 229.49 232.8" style="fill: rgb(255, 193, 0); transform-origin: 239.805px 230.28px;" id="elkmyeisq12lq" class="animable"></polygon><polygon points="204.68 232.8 225.76 232.8 225.32 227.76 204.23 227.76 204.68 232.8" style="fill: rgb(255, 193, 0); transform-origin: 214.995px 230.28px;" id="elpjjlequfz3" class="animable"></polygon><polygon points="179.86 232.8 200.95 232.8 200.51 227.76 179.42 227.76 179.86 232.8" style="fill: rgb(255, 193, 0); transform-origin: 190.185px 230.28px;" id="el6ii9skf2vjn" class="animable"></polygon><g id="elgrmk4fnzu26"><polygon points="229.49 232.8 250.57 232.8 250.13 227.76 229.04 227.76 229.49 232.8" style="fill: rgb(255, 255, 255); opacity: 0.5; transform-origin: 239.805px 230.28px;" class="animable"></polygon></g><g id="elm16xl492nj"><polygon points="204.68 232.8 225.76 232.8 225.32 227.76 204.23 227.76 204.68 232.8" style="fill: rgb(255, 255, 255); opacity: 0.5; transform-origin: 214.995px 230.28px;" class="animable"></polygon></g><g id="elx4zltqoufr"><polyline points="179.42 227.76 179.86 232.8 200.95 232.8 200.51 227.76" style="fill: rgb(255, 255, 255); opacity: 0.5; transform-origin: 190.185px 230.28px;" class="animable"></polyline></g><polygon points="241.54 240.04 244.79 240.04 244.54 237.15 241.29 237.15 241.54 240.04" style="fill: rgb(255, 193, 0); transform-origin: 243.04px 238.595px;" id="el63mmwr5e58q" class="animable"></polygon><polygon points="227.59 240.04 239.65 240.04 239.4 237.15 227.34 237.15 227.59 240.04" style="fill: rgb(255, 193, 0); transform-origin: 233.495px 238.595px;" id="elm221rmp05gi" class="animable"></polygon><polygon points="213.39 240.04 225.45 240.04 225.2 237.15 213.14 237.15 213.39 240.04" style="fill: rgb(255, 193, 0); transform-origin: 219.295px 238.595px;" id="eltqjg48n6gd" class="animable"></polygon><polygon points="186.93 240.04 192.96 240.04 192.71 237.15 186.67 237.15 186.93 240.04" style="fill: rgb(255, 193, 0); transform-origin: 189.815px 238.595px;" id="elz2hwrrkn4bb" class="animable"></polygon><polygon points="194.72 240.04 211.18 240.04 210.93 237.15 194.47 237.15 194.72 240.04" style="fill: rgb(255, 193, 0); transform-origin: 202.825px 238.595px;" id="el61evsswelo4" class="animable"></polygon><polygon points="202.29 244.95 190.22 244.95 189.97 242.07 202.04 242.07 202.29 244.95" style="fill: rgb(255, 193, 0); transform-origin: 196.13px 243.51px;" id="el3b01wfp85d5" class="animable"></polygon><polygon points="216.49 244.95 204.42 244.95 204.17 242.07 216.24 242.07 216.49 244.95" style="fill: rgb(255, 193, 0); transform-origin: 210.33px 243.51px;" id="elqibkgkbi9ae" class="animable"></polygon><polygon points="242.95 244.95 236.92 244.95 236.67 242.07 242.7 242.07 242.95 244.95" style="fill: rgb(255, 193, 0); transform-origin: 239.81px 243.51px;" id="eldutdovq0vwa" class="animable"></polygon><polygon points="235.15 244.95 218.69 244.95 218.44 242.07 234.9 242.07 235.15 244.95" style="fill: rgb(255, 193, 0); transform-origin: 226.795px 243.51px;" id="elo9v21f3c0wm" class="animable"></polygon><g id="ell4jqs8987rj"><g style="opacity: 0.6; transform-origin: 215.73px 238.595px;" class="animable"><polygon points="241.54 240.04 244.79 240.04 244.54 237.15 241.29 237.15 241.54 240.04" style="fill: rgb(255, 255, 255); transform-origin: 243.04px 238.595px;" id="elh9q3udevr7f" class="animable"></polygon><polygon points="227.59 240.04 239.65 240.04 239.4 237.15 227.34 237.15 227.59 240.04" style="fill: rgb(255, 255, 255); transform-origin: 233.495px 238.595px;" id="eljqekw7im2vq" class="animable"></polygon><polygon points="213.39 240.04 225.45 240.04 225.2 237.15 213.14 237.15 213.39 240.04" style="fill: rgb(255, 255, 255); transform-origin: 219.295px 238.595px;" id="elfmybekmtj38" class="animable"></polygon><polygon points="186.93 240.04 192.96 240.04 192.71 237.15 186.67 237.15 186.93 240.04" style="fill: rgb(255, 255, 255); transform-origin: 189.815px 238.595px;" id="elf51vtpn6oq" class="animable"></polygon><polygon points="194.72 240.04 211.18 240.04 210.93 237.15 194.47 237.15 194.72 240.04" style="fill: rgb(255, 255, 255); transform-origin: 202.825px 238.595px;" id="elgt5cupln2og" class="animable"></polygon></g></g><g id="elutujup9vt2n"><g style="opacity: 0.6; transform-origin: 216.46px 243.51px;" class="animable"><polygon points="202.29 244.95 190.22 244.95 189.97 242.07 202.04 242.07 202.29 244.95" style="fill: rgb(255, 255, 255); transform-origin: 196.13px 243.51px;" id="elo8uhw1yj01n" class="animable"></polygon><polygon points="216.49 244.95 204.42 244.95 204.17 242.07 216.24 242.07 216.49 244.95" style="fill: rgb(255, 255, 255); transform-origin: 210.33px 243.51px;" id="elhq4cw52zc8i" class="animable"></polygon><polygon points="242.95 244.95 236.92 244.95 236.67 242.07 242.7 242.07 242.95 244.95" style="fill: rgb(255, 255, 255); transform-origin: 239.81px 243.51px;" id="elcs8k1rr1hcd" class="animable"></polygon><polygon points="235.15 244.95 218.69 244.95 218.44 242.07 234.9 242.07 235.15 244.95" style="fill: rgb(255, 255, 255); transform-origin: 226.795px 243.51px;" id="el7mlksyk541a" class="animable"></polygon></g></g><polygon points="254.81 224.62 226.09 199.14 214.5 224.62 254.81 224.62" style="fill: rgb(255, 255, 255); transform-origin: 234.655px 211.88px;" id="eln0amwks5hnm" class="animable"></polygon><polygon points="226.48 224.62 189.15 191.5 174.09 224.62 226.48 224.62" style="fill: rgb(255, 255, 255); transform-origin: 200.285px 208.06px;" id="elq31f2021cnb" class="animable"></polygon><path d="M205.36,191.84A6.81,6.81,0,0,0,212,198a5.51,5.51,0,0,0,5.57-6.11,6.79,6.79,0,0,0-6.64-6.11A5.51,5.51,0,0,0,205.36,191.84Z" style="fill: rgb(255, 255, 255); transform-origin: 211.468px 191.89px;" id="elkbnmzouicy" class="animable"></path></g><g id="freepik--Plant--inject-179" class="animable" style="transform-origin: 413.349px 327.821px;"><path d="M418.69,383.18l-.84.1c-.05-.42-5.12-42.83,5.34-77.48,10.39-34.44,3.23-56.38,3.16-56.6l.8-.27c.07.22,7.31,22.42-3.16,57.12C413.59,340.52,418.64,382.76,418.69,383.18Z" style="fill: rgb(255, 193, 0); transform-origin: 423.116px 316.105px;" id="el9jy7g07jbc7" class="animable"></path><path d="M427.84,253.92a13.19,13.19,0,0,0-7-4.34l.19-.82a14.07,14.07,0,0,1,7.49,4.62Z" style="fill: rgb(255, 193, 0); transform-origin: 424.68px 251.34px;" id="elj0rhlqzuew" class="animable"></path><g id="ele13412wwh0m"><rect x="429.04" y="258.07" width="2.77" height="0.84" style="fill: rgb(255, 193, 0); transform-origin: 430.425px 258.49px; transform: rotate(-29.47deg);" class="animable"></rect></g><path d="M426.93,277a20,20,0,0,0-10.82-10.5l.32-.78a20.9,20.9,0,0,1,11.28,10.94Z" style="fill: rgb(255, 193, 0); transform-origin: 421.91px 271.36px;" id="elr8runjbcjii" class="animable"></path><path d="M424.68,303.47h-.84a11.58,11.58,0,0,0-4.36-8.85L420,294A12.42,12.42,0,0,1,424.68,303.47Z" style="fill: rgb(255, 193, 0); transform-origin: 422.08px 298.735px;" id="el6qkd2q3x0da" class="animable"></path><path d="M422.8,310.25l-.78-.31a8.45,8.45,0,0,1,4.78-4.73l.3.79A7.58,7.58,0,0,0,422.8,310.25Z" style="fill: rgb(255, 193, 0); transform-origin: 424.56px 307.73px;" id="elhmgn4jt3lsa" class="animable"></path><path d="M417.35,353.22l-.65-.53c1-1.24,1.8-5.94,2.21-8.46.1-.61.19-1.12.26-1.49l.83.15c-.07.37-.16.88-.26,1.47C419.12,348.13,418.43,351.92,417.35,353.22Z" style="fill: rgb(255, 193, 0); transform-origin: 418.35px 347.98px;" id="elruyrdnoe7ss" class="animable"></path><path d="M416.86,366.72a8.31,8.31,0,0,0-8-5.55l0-.84a9.16,9.16,0,0,1,8.87,6.13Z" style="fill: rgb(255, 193, 0); transform-origin: 413.295px 363.524px;" id="el2psuafx7j84" class="animable"></path><g id="el2tedrpclpvx"><rect x="416.19" y="378.68" width="8.9" height="0.84" style="fill: rgb(255, 193, 0); transform-origin: 420.64px 379.1px; transform: rotate(-48.21deg);" class="animable"></rect></g><path d="M427.48,332.25c1.35,4.35-8,12.63-8,12.63S407,343.32,405.7,339s1.8-11.47,7.82-13.33S426.14,327.9,427.48,332.25Z" style="fill: rgb(255, 193, 0); transform-origin: 416.51px 335.045px;" id="el43gikcor6kd" class="animable"></path><path d="M437.88,279.46c-1.18,4.62-10.06,7.9-10.06,7.9s-6.19-7.16-5-11.78,6.1-9.71,10.26-8.63S439.07,274.84,437.88,279.46Z" style="fill: rgb(255, 193, 0); transform-origin: 430.453px 277.082px;" id="el5kki7qdl0ga" class="animable"></path><path d="M402.27,348.49c5.57,2.17,9,12,9,12s-9.19,5-14.76,2.78S385,355,386.62,350.93,396.69,346.32,402.27,348.49Z" style="fill: rgb(255, 193, 0); transform-origin: 398.809px 355.537px;" id="elh1iwnrca3ep" class="animable"></path><path d="M414.49,294.26a11.9,11.9,0,0,0,3.81,2.15,4,4,0,0,0,4.06-1c1.19-1.37.87-3.5.12-5.16-1.49-3.28-7-8.85-11.2-7.25C405.19,285.35,411.77,292.24,414.49,294.26Z" style="fill: rgb(255, 193, 0); transform-origin: 415.961px 289.658px;" id="elgq19udduzjt" class="animable"></path><path d="M427,302.62c-.8,1-1.65,2.24-1.21,3.43a2.56,2.56,0,0,0,2.81,1.38,7.55,7.55,0,0,0,3-1.47c2.15-1.5,6.56-4.63,3.74-7.56S428.63,300.53,427,302.62Z" style="fill: rgb(255, 193, 0); transform-origin: 430.962px 302.495px;" id="elxxl3fbuc4m" class="animable"></path><path d="M409,260.93a2.19,2.19,0,0,0-2,1.63c-.19,1.06.7,2,1.55,2.66,2.14,1.64,8.56,6.08,10,1.8C419.85,263,411.8,260.61,409,260.93Z" style="fill: rgb(255, 193, 0); transform-origin: 412.833px 264.866px;" id="elw82j6nf61jq" class="animable"></path><path d="M420.79,246.84c-1.32.12-2.64-.36-4-.27s-2.8,1.15-2.5,2.45,1.76,1.59,3,1.67a23.87,23.87,0,0,0,6.26-.43,1.93,1.93,0,0,0,1.27-.64c.54-.79-.32-1.85-1.23-2.13a13.33,13.33,0,0,1-2.77-.66Z" style="fill: rgb(255, 193, 0); transform-origin: 419.619px 248.648px;" id="el2zwibqcfn25" class="animable"></path><path d="M433.73,256c1.33,0,2.61-.53,3.94-.54s2.87,1,2.66,2.28-1.65,1.72-2.87,1.87a23.51,23.51,0,0,1-6.27,0,1.91,1.91,0,0,1-1.31-.55c-.59-.75.2-1.87,1.09-2.21a12.84,12.84,0,0,0,2.72-.84Z" style="fill: rgb(255, 193, 0); transform-origin: 435.013px 257.64px;" id="elkv6eanklezr" class="animable"></path><path d="M432.42,353.89a1.8,1.8,0,0,1,1.13-.56,1.28,1.28,0,0,1,1.13,1.1,3.61,3.61,0,0,1-.22,1.68c-.9,3-11,24.84-13.34,20.92-1.38-2.31,2-10,3-12.16A31.64,31.64,0,0,1,432.42,353.89Z" style="fill: rgb(255, 193, 0); transform-origin: 427.747px 365.415px;" id="eleqbbyiskjbe" class="animable"></path><path d="M426.37,247.67c.8-1.8,1.67-3.69,3.27-4.85s4.15-1.25,5.31.35c1.3,1.78,0,4.49-2,5.44s-4.32.66-6.51.36c0-.33,0-.65-.05-1Z" style="fill: rgb(255, 193, 0); transform-origin: 430.921px 245.608px;" id="elraod1zxe8je" class="animable"></path><g id="elj2dkby3559g"><g style="opacity: 0.6; transform-origin: 413.349px 312.619px;" class="animable"><path d="M418.69,383.18l-.84.1c-.05-.42-5.12-42.83,5.34-77.48,10.39-34.44,3.23-56.38,3.16-56.6l.8-.27c.07.22,7.31,22.42-3.16,57.12C413.59,340.52,418.64,382.76,418.69,383.18Z" style="fill: rgb(255, 255, 255); transform-origin: 423.116px 316.105px;" id="elyktixd515rk" class="animable"></path><path d="M427.84,253.92a13.19,13.19,0,0,0-7-4.34l.19-.82a14.07,14.07,0,0,1,7.49,4.62Z" style="fill: rgb(255, 255, 255); transform-origin: 424.68px 251.34px;" id="elfodh6nf3oe" class="animable"></path><g id="ela3yckpe5x2g"><rect x="429.04" y="258.07" width="2.77" height="0.84" style="fill: rgb(255, 255, 255); transform-origin: 430.425px 258.49px; transform: rotate(-29.47deg);" class="animable"></rect></g><path d="M426.93,277a20,20,0,0,0-10.82-10.5l.32-.78a20.9,20.9,0,0,1,11.28,10.94Z" style="fill: rgb(255, 255, 255); transform-origin: 421.91px 271.36px;" id="elkplazzc5ut" class="animable"></path><path d="M424.68,303.47h-.84a11.58,11.58,0,0,0-4.36-8.85L420,294A12.42,12.42,0,0,1,424.68,303.47Z" style="fill: rgb(255, 255, 255); transform-origin: 422.08px 298.735px;" id="el77z470dsnzj" class="animable"></path><path d="M422.8,310.25l-.78-.31a8.45,8.45,0,0,1,4.78-4.73l.3.79A7.58,7.58,0,0,0,422.8,310.25Z" style="fill: rgb(255, 255, 255); transform-origin: 424.56px 307.73px;" id="elt77wa8nxypj" class="animable"></path><path d="M417.35,353.22l-.65-.53c1-1.24,1.8-5.94,2.21-8.46.1-.61.19-1.12.26-1.49l.83.15c-.07.37-.16.88-.26,1.47C419.12,348.13,418.43,351.92,417.35,353.22Z" style="fill: rgb(255, 255, 255); transform-origin: 418.35px 347.98px;" id="el0ru43198jdd" class="animable"></path><path d="M416.86,366.72a8.31,8.31,0,0,0-8-5.55l0-.84a9.16,9.16,0,0,1,8.87,6.13Z" style="fill: rgb(255, 255, 255); transform-origin: 413.295px 363.524px;" id="ell566aqll2gj" class="animable"></path><g id="elx9quofwxjp8"><rect x="416.19" y="378.68" width="8.9" height="0.84" style="fill: rgb(255, 255, 255); transform-origin: 420.64px 379.1px; transform: rotate(-48.21deg);" class="animable"></rect></g><path d="M427.48,332.25c1.35,4.35-8,12.63-8,12.63S407,343.32,405.7,339s1.8-11.47,7.82-13.33S426.14,327.9,427.48,332.25Z" style="fill: rgb(255, 255, 255); transform-origin: 416.51px 335.045px;" id="el2y09u977wis" class="animable"></path><path d="M437.88,279.46c-1.18,4.62-10.06,7.9-10.06,7.9s-6.19-7.16-5-11.78,6.1-9.71,10.26-8.63S439.07,274.84,437.88,279.46Z" style="fill: rgb(255, 255, 255); transform-origin: 430.453px 277.082px;" id="elvlgrhgtq7s" class="animable"></path><path d="M402.27,348.49c5.57,2.17,9,12,9,12s-9.19,5-14.76,2.78S385,355,386.62,350.93,396.69,346.32,402.27,348.49Z" style="fill: rgb(255, 255, 255); transform-origin: 398.809px 355.537px;" id="el82n9t183dnf" class="animable"></path><path d="M414.49,294.26a11.9,11.9,0,0,0,3.81,2.15,4,4,0,0,0,4.06-1c1.19-1.37.87-3.5.12-5.16-1.49-3.28-7-8.85-11.2-7.25C405.19,285.35,411.77,292.24,414.49,294.26Z" style="fill: rgb(255, 255, 255); transform-origin: 415.961px 289.658px;" id="el2f6l70mezub" class="animable"></path><path d="M427,302.62c-.8,1-1.65,2.24-1.21,3.43a2.56,2.56,0,0,0,2.81,1.38,7.55,7.55,0,0,0,3-1.47c2.15-1.5,6.56-4.63,3.74-7.56S428.63,300.53,427,302.62Z" style="fill: rgb(255, 255, 255); transform-origin: 430.962px 302.495px;" id="elmeoiowdrjtr" class="animable"></path><path d="M409,260.93a2.19,2.19,0,0,0-2,1.63c-.19,1.06.7,2,1.55,2.66,2.14,1.64,8.56,6.08,10,1.8C419.85,263,411.8,260.61,409,260.93Z" style="fill: rgb(255, 255, 255); transform-origin: 412.833px 264.866px;" id="el18sf6b7hcwi" class="animable"></path><path d="M420.79,246.84c-1.32.12-2.64-.36-4-.27s-2.8,1.15-2.5,2.45,1.76,1.59,3,1.67a23.87,23.87,0,0,0,6.26-.43,1.93,1.93,0,0,0,1.27-.64c.54-.79-.32-1.85-1.23-2.13a13.33,13.33,0,0,1-2.77-.66Z" style="fill: rgb(255, 255, 255); transform-origin: 419.619px 248.648px;" id="el51xpvs9gl6p" class="animable"></path><path d="M433.73,256c1.33,0,2.61-.53,3.94-.54s2.87,1,2.66,2.28-1.65,1.72-2.87,1.87a23.51,23.51,0,0,1-6.27,0,1.91,1.91,0,0,1-1.31-.55c-.59-.75.2-1.87,1.09-2.21a12.84,12.84,0,0,0,2.72-.84Z" style="fill: rgb(255, 255, 255); transform-origin: 435.013px 257.64px;" id="ella4w8a1n46" class="animable"></path><path d="M432.42,353.89a1.8,1.8,0,0,1,1.13-.56,1.28,1.28,0,0,1,1.13,1.1,3.61,3.61,0,0,1-.22,1.68c-.9,3-11,24.84-13.34,20.92-1.38-2.31,2-10,3-12.16A31.64,31.64,0,0,1,432.42,353.89Z" style="fill: rgb(255, 255, 255); transform-origin: 427.747px 365.415px;" id="elgdudxwsrnor" class="animable"></path><path d="M426.37,247.67c.8-1.8,1.67-3.69,3.27-4.85s4.15-1.25,5.31.35c1.3,1.78,0,4.49-2,5.44s-4.32.66-6.51.36c0-.33,0-.65-.05-1Z" style="fill: rgb(255, 255, 255); transform-origin: 430.921px 245.608px;" id="elu7xgwdhp0t" class="animable"></path></g></g><path d="M433.22,411.81h0a70.49,70.49,0,0,1-32.3,0h0l-5-37.07h42.34Z" style="fill: rgb(38, 50, 56); transform-origin: 417.09px 394.212px;" id="el2t5fzsq8e9u" class="animable"></path><g id="el02p53jv05tum"><g style="opacity: 0.8; transform-origin: 417.09px 394.212px;" class="animable"><path d="M433.22,411.81h0a70.49,70.49,0,0,1-32.3,0h0l-5-37.07h42.34Z" style="fill: rgb(255, 255, 255); transform-origin: 417.09px 394.212px;" id="elfxb4wdj78vj" class="animable"></path></g></g></g><g id="freepik--Character--inject-179" class="animable animator-active" style="transform-origin: 341.283px 278.446px;"><path d="M316.88,199.93c-2.19,6.91.21,23.81-6.67,28.2a19.09,19.09,0,0,0-9.07,17.29c4.48-6.19,11.93-9.72,19.47-11s15.26-.52,22.85.37c3.58.42,20.3,5.73,19.39,9.22,5.38-8-.75-44-3.18-53.38-.73-2.81.69-6.77-2.08-7.62-6.41-2-20.29-5.89-34.33,3.14C317.62,189.79,318.29,195.51,316.88,199.93Z" style="fill: rgb(255, 193, 0); transform-origin: 333.055px 212.93px;" id="elqiu72pjjyce" class="animable"></path><g id="elt4y7a5lgr"><g style="opacity: 0.5; transform-origin: 333.055px 212.93px;" class="animable"><path d="M316.88,199.93c-2.19,6.91.21,23.81-6.67,28.2a19.09,19.09,0,0,0-9.07,17.29c4.48-6.19,11.93-9.72,19.47-11s15.26-.52,22.85.37c3.58.42,20.3,5.73,19.39,9.22,5.38-8-.75-44-3.18-53.38-.73-2.81.69-6.77-2.08-7.62-6.41-2-20.29-5.89-34.33,3.14C317.62,189.79,318.29,195.51,316.88,199.93Z" id="eloxcs8pbdvpm" class="animable" style="transform-origin: 333.055px 212.93px;"></path></g></g><path d="M283.07,188.69l-3.7-9.4-4.54,7.05s2.39,4.78,5.3,5Z" style="fill: rgb(221, 140, 106); transform-origin: 278.95px 185.315px;" id="elfzwf80g39ds" class="animable"></path><path d="M273,177.2l-1.42,1.59a2.66,2.66,0,0,0-.08,3.42l3.3,4.12,4.54-7L276.78,177A2.63,2.63,0,0,0,273,177.2Z" style="fill: rgb(221, 140, 106); transform-origin: 275.128px 181.312px;" id="el2szq6sjnvvu" class="animable"></path><path d="M276,185.24h0l-1.17-.7a7.32,7.32,0,0,1-1.6-1.28l-.18-.82a1.17,1.17,0,0,1,1.32-.44l1,.34,5,.69v2.1l-1.59,2.17-.51,0A2.26,2.26,0,0,1,276,185.24Z" style="fill: rgb(221, 140, 106); transform-origin: 276.71px 184.621px;" id="elhmqgu23i3io" class="animable"></path><path d="M314.88,191.48s-9.44,7.14-16.66,13.76c0,0-13.44-13.91-15.37-17.39l-3.77,3.28a75.71,75.71,0,0,0,5.91,14.3,26.37,26.37,0,0,0,4.36,5.55,13.15,13.15,0,0,0,3.48,2.39,8.74,8.74,0,0,0,5.21.72,8.5,8.5,0,0,0,1.34-.35l.85-.31,1.54-.59c1-.38,2-.85,3-1.28a62.16,62.16,0,0,0,5.89-3.08,59.5,59.5,0,0,0,5.55-3.77c.92-.71,1.75-1.44,2.61-2.23.42-.38.85-.8,1.26-1.22l.62-.66c.23-.25.39-.44.71-.81Z" style="fill: rgb(255, 193, 0); transform-origin: 300.245px 201.032px;" id="el1l1kv1fj6pp" class="animable"></path><path d="M324.11,186.07c-3.41-.84-27.52,20.61-27.52,20.61l3.64,6.75s21.89-9.13,28.61-19C328.28,189.74,329.09,187.31,324.11,186.07Z" style="fill: rgb(255, 193, 0); transform-origin: 312.715px 199.738px;" id="el0s5xgjkqef4c" class="animable"></path><g id="elhr9nivkev3m"><path d="M323.57,193.49l-2.88,8.7c-11.87,8.23-15.88,9.37-15.88,9.37Z" style="opacity: 0.2; isolation: isolate; transform-origin: 314.19px 202.525px;" class="animable"></path></g><polygon points="326.61 406.59 318.39 406.89 316.99 387.78 325.21 387.49 326.61 406.59" style="fill: rgb(221, 140, 106); transform-origin: 321.8px 397.19px;" id="elmtquc768tk" class="animable"></polygon><path d="M315.05,407.94a.19.19,0,0,0,.16-.15.23.23,0,0,0-.1-.21c-.36-.2-3.6-2-4.63-1.46a.64.64,0,0,0-.34.51,1.1,1.1,0,0,0,.31,1,3.14,3.14,0,0,0,2,.57A14.22,14.22,0,0,0,315.05,407.94Zm-4-1.53a10.55,10.55,0,0,1,3.4,1.25c-1.84.24-3.19.12-3.68-.34a.76.76,0,0,1-.2-.64.26.26,0,0,1,.14-.21.67.67,0,0,1,.37-.05Z" style="fill: rgb(255, 193, 0); transform-origin: 312.665px 407.113px;" id="eliqad3fmoair" class="animable"></path><path d="M315.17,407.9a.2.2,0,0,0,.05-.18c0-.09-.12-2.33-1.13-3.22a1.41,1.41,0,0,0-1.08-.34.73.73,0,0,0-.75.53c-.18.93,1.7,2.77,2.67,3.24l.07,0A.27.27,0,0,0,315.17,407.9Zm-2-3.35a1,1,0,0,1,.7.22,4.47,4.47,0,0,1,1,2.58c-1-.62-2.26-2.06-2.14-2.62,0,0,0-.18.38-.21l.12,0Z" style="fill: rgb(255, 193, 0); transform-origin: 313.736px 406.042px;" id="elk8sq1ayyrar" class="animable"></path><path d="M319,403.62l7.38.77a.64.64,0,0,1,.6.62l1.12,10.39a1.33,1.33,0,0,1-1.34,1.33h-.16c-3.2-.37-4.73-.7-8.79-1.09-2.49-.24-10.22.18-13.54-.81s-2.52-4.32-1-4.21c4.73.39,10.39-2.35,13.35-5.79C317,404.54,318.49,403.55,319,403.62Z" style="fill: rgb(38, 50, 56); transform-origin: 315.027px 410.173px;" id="elgkj9o6m4ttd" class="animable"></path><g id="elnfrsfr9s62"><polygon points="316.99 387.78 317.71 397.63 325.93 397.34 325.22 387.5 316.99 387.78" style="opacity: 0.2; transform-origin: 321.46px 392.565px;" class="animable"></polygon></g><path d="M318.29,195.51c-5.17,7.64.12,14.7,3.4,38.72l30.78,2c.3-12.82,1-23.15,8-48a4.26,4.26,0,0,0-2.91-5.26,4.73,4.73,0,0,0-.9-.16c-2.55-.15-5.75-.26-9-.14a113.23,113.23,0,0,0-15.38,1.35,67.07,67.07,0,0,0-8.18,2C322.5,186.52,320.32,190.7,318.29,195.51Z" style="fill: rgb(255, 255, 255); transform-origin: 338.379px 209.424px;" id="el9ccsdft8gsr" class="animable"></path><path d="M320.45,235.76s-21.38,41.07-17.59,98.89c-.63,13.79,13.61,57.07,13.61,57.07l11.12,0s.65-62.79,2.41-79.09c2.86-26.69,13.88-75.87,13.88-75.87Z" style="fill: rgb(255, 193, 0); transform-origin: 323.145px 313.74px;" id="el9ysvfbf1gtc" class="animable"></path><polygon points="329.61 394.78 313.94 394.73 312.81 389.95 330.36 389.43 329.61 394.78" style="fill: rgb(255, 193, 0); transform-origin: 321.585px 392.105px;" id="elqk01bg69qk" class="animable"></polygon><g id="ele0e709qthkc"><polygon points="329.61 394.78 313.94 394.73 312.81 389.95 330.36 389.43 329.61 394.78" style="fill: rgb(255, 255, 255); opacity: 0.4; transform-origin: 321.585px 392.105px;" class="animable"></polygon></g><g id="elm1l8v6l3e5"><path d="M328.84,332.87c-3.62-1.56-13.5-9.4-10.66-28.63l11-46.35Z" style="opacity: 0.2; isolation: isolate; transform-origin: 323.427px 295.38px;" class="animable"></path></g><path d="M351.6,320.72c-9.24-27.73,12.85-63.79,1.23-83.4L333.62,237s-24.63,85.85,3.32,97.53Z" style="fill: rgb(255, 193, 0); transform-origin: 339.946px 285.765px;" id="el9g55y02fi68" class="animable"></path><path d="M395.27,221.54c1.19,2,7.9,1.13,7.9,1.13l1.93-8.13-8.35,2.75Z" style="fill: rgb(221, 140, 106); transform-origin: 400.185px 218.699px;" id="el918446ek72" class="animable"></path><path d="M405.09,214.47l-1.92,8.2,5,1.3a1.08,1.08,0,0,0,1.2-.78l2.26-6a.57.57,0,0,0-.37-.69Z" style="fill: rgb(221, 140, 106); transform-origin: 407.41px 219.226px;" id="elm2w78rb7oy" class="animable"></path><path d="M396.75,217.28l-1.47,4.26s-10.77.8-19-.33h-.07c-2.89-.29-10.21-1.61-13.31-7.18-4.41-7.93-9.69-18-9.78-21.26-.17-7,2.89-11.45,6-9.3,6.28,4.4,11.67,20.15,14.73,26.54l7.32,2.32Z" style="fill: rgb(255, 193, 0); transform-origin: 374.932px 202.37px;" id="el74n64ozyd65" class="animable"></path><polygon points="395.31 376.01 389.02 381.34 374.5 368.66 380.21 361.86 395.31 376.01" style="fill: rgb(221, 140, 106); transform-origin: 384.905px 371.6px;" id="eli7pmpips6j" class="animable"></polygon><path d="M386.45,378.4l4.15-6.16a.65.65,0,0,1,.84-.23l9.7,3.89a1.33,1.33,0,0,1,.54,1.81l-.08.13c-1.83,2.66-2.85,3.85-5.1,7.25-1.38,2.09-4.64,9.11-7.07,11.58s-5,.18-4.21-1.06c2.56-4,2.8-10.27,1.16-14.5A7.22,7.22,0,0,1,386.45,378.4Z" style="fill: rgb(38, 50, 56); transform-origin: 393.459px 384.855px;" id="el651mml0q85" class="animable"></path><g id="el4n93sc0t79h"><polygon points="376.09 357.8 370.02 364.89 379.48 373 385.56 366.87 376.09 357.8" style="opacity: 0.2; transform-origin: 377.79px 365.4px;" class="animable"></polygon></g><path d="M328.05,325.29c1.35,16.09,46.24,47.08,46.24,47.08l8.46-8.67s-31.72-36.93-31.15-43Z" style="fill: rgb(255, 193, 0); transform-origin: 355.4px 346.535px;" id="elg6gqat79jo" class="animable"></path><polygon points="384.35 362.03 373.45 373.43 368.83 371.07 381.81 357.52 384.35 362.03" style="fill: rgb(255, 193, 0); transform-origin: 376.59px 365.475px;" id="elcbr921c1xvs" class="animable"></polygon><g id="el52hgqsht534"><polygon points="384.35 362.03 373.45 373.43 368.83 371.07 381.81 357.52 384.35 362.03" style="fill: rgb(255, 255, 255); opacity: 0.4; transform-origin: 376.59px 365.475px;" class="animable"></polygon></g><path d="M386.72,380.81a.22.22,0,0,0,0-.21.19.19,0,0,0-.21-.07c-.29.09-3.19.92-3.48,1.93a.65.65,0,0,0,.15.66,1.14,1.14,0,0,0,1,.44l.09-.05C385.19,383.33,386.18,381.75,386.72,380.81Zm-.61.23c-.72,1.29-1.48,2-2,2.11a.75.75,0,0,1-.65-.3.32.32,0,0,1-.09-.29c.16-.55,1.63-1.18,2.77-1.53Z" style="fill: rgb(255, 193, 0); transform-origin: 384.871px 382.043px;" id="eld4tnrykloww" class="animable"></path><path d="M386.6,380.92a.22.22,0,0,0,.14-.14.19.19,0,0,0-.1-.17c-.08-.06-1.87-1.63-3.06-1.47a1,1,0,0,0-.76.42.69.69,0,0,0,0,.85c.54.67,2.47.78,3.48.57A1.65,1.65,0,0,0,386.6,380.92Zm-3-1.43h.06a4.32,4.32,0,0,1,2.46,1.14c-1,.17-2.62,0-3-.47-.05-.08-.1-.19,0-.39a.6.6,0,0,1,.41-.28Z" style="fill: rgb(255, 193, 0); transform-origin: 384.707px 380.102px;" id="elffa6ot0hcso" class="animable"></path><path d="M352.68,234.68l.66,3c.1.24-.18.46-.57.43l-31.77-2c-.3,0-.54-.19-.55-.37l-.11-3c0-.2.27-.37.6-.34l31.21,2A.62.62,0,0,1,352.68,234.68Z" style="fill: rgb(38, 50, 56); transform-origin: 336.85px 235.255px;" id="el8f31mw9yqzd" class="animable"></path><path d="M346.38,238l.92.06c.18,0,.33-.07.32-.19l-.17-3.92c0-.11-.16-.21-.35-.22l-.92-.07c-.17,0-.32.08-.31.2l.17,3.91C346.05,237.92,346.2,238,346.38,238Z" style="fill: rgb(255, 193, 0); transform-origin: 346.745px 235.86px;" id="el679y2c56tf3" class="animable"></path><path d="M323.44,236.6l.93.06c.17,0,.32-.07.31-.19l-.17-3.91c0-.12-.16-.22-.33-.23l-.92-.06c-.18,0-.33.07-.32.18l.17,3.92C323.11,236.49,323.26,236.59,323.44,236.6Z" style="fill: rgb(255, 193, 0); transform-origin: 323.81px 234.465px;" id="elv8hrgmasu" class="animable"></path><path d="M334,237.24l.92.06c.18,0,.33-.08.32-.19L335,233.2c0-.12-.15-.22-.33-.23l-.92-.06c-.17,0-.32.07-.31.18l.17,3.91C333.62,237.12,333.76,237.23,334,237.24Z" style="fill: rgb(255, 193, 0); transform-origin: 334.34px 235.105px;" id="elgmx85z7x9bt" class="animable"></path><path d="M347.29,165.87c-1.29,4.95-2.82,13.95.41,16.9,0,0-1.68,5.06-10.87,5.86-10.15.89-4.51-4.51-4.51-4.51,5.6-1.83,5.72-5.79,5-9.5Z" style="fill: rgb(221, 140, 106); transform-origin: 339.229px 177.3px;" id="eloeqbvcyo4wc" class="animable"></path><path d="M347.67,182.72a98.27,98.27,0,0,0-14.55,1.11L327.9,185c-1.38,2.39-1.5,8,4.21,9.33,0,0,11.69,2.37,17.83-7.91a2.5,2.5,0,0,0-2.27-3.73Z" style="fill: rgb(221, 140, 106); transform-origin: 338.687px 188.627px;" id="el73gkso58t66" class="animable"></path><g id="el40vegsqxexe"><path d="M343.23,169.45l-5.9,5.17a14.73,14.73,0,0,1,.3,2.64c2.13-.48,5.64-2.58,6-4.77A7.65,7.65,0,0,0,343.23,169.45Z" style="opacity: 0.2; isolation: isolate; transform-origin: 340.49px 173.355px;" class="animable"></path></g><path d="M341.67,144a7.72,7.72,0,0,1-3.7,3.93c-1,.45-4,1.76-4.92,2.79-1.58,1.72-2.52-5.83,1.53-7.83S343.69,139.64,341.67,144Z" style="fill: rgb(38, 50, 56); transform-origin: 336.914px 146.016px;" id="el81qfbx3n0z4" class="animable"></path><path d="M337.68,175.21a4,4,0,0,1-6.08-1.92,4.42,4.42,0,0,1-4.1-1.49,5.12,5.12,0,0,1-1-4.63,9.49,9.49,0,0,1,3.43-4.32,27.09,27.09,0,0,0,7.36,11.76Z" style="fill: rgb(38, 50, 56); transform-origin: 331.998px 169.398px;" id="elwdlr5dzsp7" class="animable"></path><path d="M353.83,159.92c-2.95,7.63-4,10.93-9.27,13.68-7.83,4.14-16.61-1.15-16-9.51.54-7.52,5.27-18.75,13.91-19.44a11.16,11.16,0,0,1,11.32,15.27Z" style="fill: rgb(221, 140, 106); transform-origin: 341.56px 159.824px;" id="elrzv38p6zwlp" class="animable"></path><path d="M335.32,157.54a17.53,17.53,0,0,1-3.38,3.5,2.88,2.88,0,0,0,2.18,1Z" style="fill: rgb(222, 87, 83); transform-origin: 333.63px 159.79px;" id="el4t458zp994c" class="animable"></path><path d="M354.29,166.52a6,6,0,0,1-4,2.24c-2.09.24-2.77-1.7-1.94-3.5.77-1.61,2.78-3.68,4.74-3.08a2.68,2.68,0,0,1,1.73,3.38A2.79,2.79,0,0,1,354.29,166.52Z" style="fill: rgb(221, 140, 106); transform-origin: 351.478px 165.427px;" id="elnahxi8w0uvc" class="animable"></path><path d="M344.3,156.15a.38.38,0,0,1-.38-.25c-.65-1.73-2.89-2.29-2.91-2.3a.39.39,0,1,1,.19-.75c.12,0,2.67.71,3.46,2.79a.39.39,0,0,1-.22.51h-.14Z" style="fill: rgb(38, 50, 56); transform-origin: 342.678px 154.487px;" id="el8sbvc03rq3n" class="animable"></path><path d="M332.54,152a.39.39,0,0,1-.33-.19.38.38,0,0,1,.14-.53h0a3.92,3.92,0,0,1,3.57-.22.38.38,0,0,1,.17.52.4.4,0,0,1-.53.18h0a3,3,0,0,0-2.81.21A.52.52,0,0,1,332.54,152Z" style="fill: rgb(38, 50, 56); transform-origin: 334.144px 151.366px;" id="elwhwxzuc0ygn" class="animable"></path><path d="M332.72,155.16c-.44-.11-.93.36-1.09,1s.07,1.32.5,1.42.93-.36,1.09-1S333.16,155.27,332.72,155.16Z" style="fill: rgb(38, 50, 56); transform-origin: 332.426px 156.369px;" id="elhpq7wwtezs8" class="animable"></path><path d="M331.4,154.4l1.51.86C331.93,155.87,331.4,154.4,331.4,154.4Z" style="fill: rgb(38, 50, 56); transform-origin: 332.155px 154.904px;" id="el0xercwqdgb0f" class="animable"></path><path d="M340.33,157.22c-.44-.11-.93.36-1.09,1s.07,1.32.5,1.42.93-.36,1.09-1S340.77,157.33,340.33,157.22Z" style="fill: rgb(38, 50, 56); transform-origin: 340.036px 158.429px;" id="elt7y8t3cvfnk" class="animable"></path><path d="M339,156.46l1.51.86C339.54,157.93,339,156.46,339,156.46Z" style="fill: rgb(38, 50, 56); transform-origin: 339.755px 156.964px;" id="el19tm4p620f5" class="animable"></path><path d="M333.1,165a24.07,24.07,0,0,1,.1,3.57l.62.13c2.8.55,4.28-.12,5.07-1a3.78,3.78,0,0,0,.77-1.56,3.51,3.51,0,0,0,.11-1c-1.66.59-4.31.28-5.71,0C333.47,165.12,333.1,165,333.1,165Z" style="fill: rgb(38, 50, 56); transform-origin: 336.436px 166.95px;" id="elisz1ejd9c2g" class="animable"></path><path d="M334.06,165.2l.05,1.06c2.64.51,4.57.52,5.55-.12a3.51,3.51,0,0,0,.11-1C338.11,165.74,335.46,165.43,334.06,165.2Z" style="fill: rgb(255, 255, 255); transform-origin: 336.916px 165.886px;" id="elcrdi8yoemcj" class="animable"></path><path d="M333.82,168.73c2.8.55,4.28-.12,5.07-1a9.22,9.22,0,0,0-3.23,0A3.39,3.39,0,0,0,333.82,168.73Z" style="fill: rgb(222, 87, 83); transform-origin: 336.355px 168.258px;" id="elk98vmef7s7f" class="animable"></path><path d="M342.38,141.44c1.78-1.64,4.63-1.58,6.8-.51a17.94,17.94,0,0,1,5.38,4.79c2.72,3.18,5.48,6.49,6.78,10.47s.81,8.83-2.28,11.65c-.91.83-2,1.45-2.87,2.32a3.68,3.68,0,0,0-1.24,3.29c.28,1.2,1.85,2,2.82,1.28a4.46,4.46,0,0,1-5.77.79,4.75,4.75,0,0,1-5.07,1c-1.68-.7-5.41-3.09-4.62-6.7,2-.33,7.44-4.79,7.8-7.42s-.07-7.9-1.21-10.3c-.3,1-1.61.85-2.49.35a5.28,5.28,0,0,1-1.81-2.38,7.93,7.93,0,0,0-1.84-2.35c-2.48-2.25-4.07.45-4.79.19C338.52,145.35,340.46,143.21,342.38,141.44Z" style="fill: rgb(38, 50, 56); transform-origin: 349.992px 158.511px;" id="els1trpbp59l" class="animable"></path><g id="eleq9cjmxd7qs"><path d="M343.69,240.28a50.92,50.92,0,0,1,1.21,9.13,44.36,44.36,0,0,1-.29,8.17A24.11,24.11,0,0,0,343.69,240.28Z" style="opacity: 0.2; isolation: isolate; transform-origin: 344.741px 248.93px;" class="animable"></path></g><g id="elpwnupup4vpg"><path d="M325.94,239.21q-3.27,8.39-6.55,16.75A34.68,34.68,0,0,1,325.94,239.21Z" style="opacity: 0.2; isolation: isolate; transform-origin: 322.665px 247.585px;" class="animable"></path></g><path d="M352.4,193.15s7.8,15.81,9.6,33.1c1.63,15.76.85,17.77.85,17.77s3.16-3,2.42-19.41a153.2,153.2,0,0,0-5.6-34A66.72,66.72,0,0,0,352.4,193.15Z" style="fill: rgb(255, 193, 0); transform-origin: 358.891px 217.315px;" id="eljg2kl2h0iq" class="animable"></path><path d="M352.56,193.66l-4.89-10.94-1.29-2.1a78.58,78.58,0,0,1,11.21,2.4,37.43,37.43,0,0,0-2.92,7C354.28,191.15,353.88,193.74,352.56,193.66Z" style="fill: rgb(255, 193, 0); transform-origin: 351.985px 187.141px;" id="el0rk7xi4t0e8c" class="animable"></path><path d="M319.06,193.74s9-9.74,17.88-12.83c0,0-6,.44-13.68,5.25C323.26,186.16,319.63,190.08,319.06,193.74Z" style="fill: rgb(255, 193, 0); transform-origin: 328px 187.325px;" id="eljqheqisp5w" class="animable"></path></g><defs>     <filter id="active" height="200%">         <feMorphology in="SourceAlpha" result="DILATED" operator="dilate" radius="2"></feMorphology>                <feFlood flood-color="#32DFEC" flood-opacity="1" result="PINK"></feFlood>        <feComposite in="PINK" in2="DILATED" operator="in" result="OUTLINE"></feComposite>        <feMerge>            <feMergeNode in="OUTLINE"></feMergeNode>            <feMergeNode in="SourceGraphic"></feMergeNode>        </feMerge>    </filter>    <filter id="hover" height="200%">        <feMorphology in="SourceAlpha" result="DILATED" operator="dilate" radius="2"></feMorphology>                <feFlood flood-color="#ff0000" flood-opacity="0.5" result="PINK"></feFlood>        <feComposite in="PINK" in2="DILATED" operator="in" result="OUTLINE"></feComposite>        <feMerge>            <feMergeNode in="OUTLINE"></feMergeNode>            <feMergeNode in="SourceGraphic"></feMergeNode>        </feMerge>            <feColorMatrix type="matrix" values="0   0   0   0   0                0   1   0   0   0                0   0   0   0   0                0   0   0   1   0 "></feColorMatrix>    </filter></defs></svg>