<svg class="animated" id="freepik_stories-feed" xmlns="http://www.w3.org/2000/svg" xmlns:xlink="http://www.w3.org/1999/xlink" viewBox="0 0 500 500" version="1.1" xmlns:svgjs="http://svgjs.com/svgjs"><style>svg#freepik_stories-feed:not(.animated) .animable {opacity: 0;}svg#freepik_stories-feed.animated #freepik--background-simple--inject-2 {animation: 1.5s Infinite  linear shake;animation-delay: 0s;}svg#freepik_stories-feed.animated #freepik--Device--inject-2 {animation: 1.5s Infinite  linear floating;animation-delay: 0s;}svg#freepik_stories-feed.animated #freepik--Feed--inject-2 {animation: 1.5s Infinite  linear heartbeat;animation-delay: 0s;}            @keyframes shake {                10%, 90% {                    transform: translate3d(-1px, 0, 0);                  }                  20%, 80% {                    transform: translate3d(2px, 0, 0);                  }                  30%, 50%, 70% {                    transform: translate3d(-4px, 0, 0);                  }                  40%, 60% {                    transform: translate3d(4px, 0, 0);                  }            }                    @keyframes floating {                0% {                    opacity: 1;                    transform: translateY(0px);                }                50% {                    transform: translateY(-10px);                }                100% {                    opacity: 1;                    transform: translateY(0px);                }            }                    @keyframes heartbeat {                0% {                    transform: scale(1);                }                10% {                    transform: scale(1.1);                }                30% {                    transform: scale(1);                }                40% {                    transform: scale(1);                }                50% {                    transform: scale(1.1);                }                60% {                    transform: scale(1);                }                100% {                    transform: scale(1);                }            }        </style><g id="freepik--background-simple--inject-2" class="animable animator-active" style="transform-origin: 251.084px 250.484px;"><path d="M43.68,136.44c48.81-98.39,123.9-101.71,219.81-88.3,68.56,9.58,86.65-14.9,130.85,3.94C476,86.9,497.1,206.79,443.34,322,387.94,440.81,293.75,490.77,180,436.92,72.19,385.9-4,232.61,43.68,136.44Z" style="fill: #FFC100; transform-origin: 251.084px 250.484px;" id="elveg7gr1h7v" class="animable"></path><g id="elvt5br9l7ofr"><path d="M43.68,136.44c48.81-98.39,123.9-101.71,219.81-88.3,68.56,9.58,86.65-14.9,130.85,3.94C476,86.9,497.1,206.79,443.34,322,387.94,440.81,293.75,490.77,180,436.92,72.19,385.9-4,232.61,43.68,136.44Z" style="fill: rgb(255, 255, 255); opacity: 0.7; transform-origin: 251.084px 250.484px;" class="animable" id="elf9c0f7q0in"></path></g></g><g id="freepik--Shadow--inject-2" class="animable" style="transform-origin: 253.542px 266.075px;"><g id="elofl2ttd473l"><path d="M384.09,360.33l-13.78-18.74s2-74.95,3.24-85.49-11.74-30.79-15.8-48.21S348,179.94,348,179.94c-1.21-43.76-5.27-38.55-5.27-38.55-19.1-3.86-27,17-29.36,36V101.7a23.23,23.23,0,0,0-23.24-23.24H177.44A23.23,23.23,0,0,0,154.2,101.7v41.14c-10-2.39-22.52-2.69-26.16,5.9A17.43,17.43,0,0,0,130.88,167s-22.69-8.91-27.15,6.48S116.29,203,116.29,203s-5.26,2.84-8.1,18.64,1.62,20.25,5.27,31.6,13.37,17.82,13.37,17.82-6.08,10.54,0,26.74c4.84,12.92,21,30.72,27.37,37.41v41.7a23.24,23.24,0,0,0,23.24,23.24H210.9c34.39,27.46,89.73,47.75,89.73,47.75l5.85,5.79c37.43-11.63,70.38-37.52,97.62-75.43C391.55,367.17,384.09,360.33,384.09,360.33Z" style="opacity: 0.1; transform-origin: 253.542px 266.075px;" class="animable" id="elg3xwzhsy2x9"></path></g></g><g id="freepik--Device--inject-2" class="animable" style="transform-origin: 261.524px 263.9px;"><path d="M392.06,358.14,378.29,339.4s2-74.95,3.24-85.49-11.75-30.79-15.8-48.21S356,177.75,356,177.75c-1.21-43.76-5.26-38.55-5.26-38.55-28.36-5.73-32,43-29.58,59.21s5.27,43,5.27,43-19.45,3.24-31.2-10.94-39.29-28-39.29-28-27.55-20.66-40.52-30.79-36.86-25.52-47-29.17-28-6.48-32.41,4.05a17.4,17.4,0,0,0,2.83,18.23s-22.69-8.91-27.14,6.49,12.56,29.57,12.56,29.57-5.27,2.84-8.11,18.64,1.63,20.25,5.27,31.6S134.8,268.9,134.8,268.9s-6.08,10.54,0,26.74,30,40.11,30,40.11,12.16,22.28,44.57,53.88,99.25,56.12,99.25,56.12l5.85,5.78c37.43-11.63,70.38-37.52,97.62-75.43C399.53,365,392.06,358.14,392.06,358.14ZM220.49,233.66c-4,2.43-40.42-32.21-40.42-32.21l-30.68-28.87s22.78,17.32,31.29,24.92S224.44,231.23,220.49,233.66Z" style="fill: rgb(255, 255, 255); transform-origin: 261.524px 295.132px;" id="el9q3z6agkmf" class="animable"></path><g style="clip-path: url(&quot;#freepik--clip-path--inject-2&quot;); transform-origin: 242.864px 303.68px;" id="eluny6ihu0y3b" class="animable"><g id="el1xadzuazeu7"><path d="M146.6,224a1.35,1.35,0,0,0-2.53.61c-.13,4.56-.85,11.45-3.67,16.79C136,249.63,159.25,247.17,146.6,224Z" style="opacity: 0.2; transform-origin: 145.125px 234.5px;" class="animable" id="elgk411d5jz5h"></path></g><g id="eliogxu1gzbhd"><path d="M164.07,336.14V160h-1.9s-.1,19.08-9.21,15.35c0,0,6.82,17.05,4.61,33s-14.26.45-14.26.45-.28,6.64,9.43,19.88c8.55,11.66,7.42,28.43.41,28.68,3.66,1.52,8.95,5.72,7.35,17.06-.66,2.85-2.57,6.75-8,9-7.49,3.08,3.33,6.56,7.83,7.8v44.5Z" style="opacity: 0.2; transform-origin: 153.69px 248.07px;" class="animable" id="elxujrs54c1y"></path></g><g id="elcimzh27z6ht"><path d="M336.22,225.09c-1.77-9.28-8.53-11.94-9.08-28.74a17.15,17.15,0,0,0-.55-4.08V156a5.1,5.1,0,0,1-1.76,2.27l-.66,2c-2.53,8.13-2.81,16.73-4.74,25a3.8,3.8,0,0,1-.27.76,5.26,5.26,0,0,1,.09,1.15c-.29,10.15,3.12,19.63,4.08,29.48.28.82.55,1.64.83,2.49,1.41,4.32.39,8.93,1.75,13.16a4.68,4.68,0,0,1,.14,2.62c.84,2.9-.69,6.59-4.6,6.59a5,5,0,0,1-2.29-.52c-.19.44-.39.87-.59,1.28a4.6,4.6,0,0,1-2.16,2v101h2.16v33.13h-9.36v11.52H189.41a31.38,31.38,0,0,0,8.12,2.69c8.63,1.8,18.51,1.79,24.81,8.9.11.13.21.25.3.38H298.4a28.19,28.19,0,0,0,28.19-28.19V247.75a13.7,13.7,0,0,1,4.26-9.88C333.9,235,337.23,230.4,336.22,225.09Z" style="opacity: 0.2; transform-origin: 262.907px 278.95px;" class="animable" id="elvk34q9jpr8a"></path></g><g id="elh2grwsq4yxf"><path d="M316.38,450.52c.31,0,.63,0,.94-.07a17.65,17.65,0,0,1,2-.32c4.31-.91,8.86-3.16,12.58-4.88,4.4-2,8.62-4.4,12.84-6.76l1.15-.68c-11.22-16.31-6.8-17.94-18.79-13.46-26.11,9.75-85.37-10.63-85.37-10.63l0,.16a5.33,5.33,0,0,1,2.26,1.05c12.22,9.58,26.79,15.52,41,21.39,6.6,2.73,13.37,5.31,19.75,8.56a39.38,39.38,0,0,1,8.9,6.48A4.9,4.9,0,0,1,316.38,450.52Z" style="opacity: 0.2; transform-origin: 293.81px 432.54px;" class="animable" id="elm1ye98lnjl"></path></g></g><path d="M337.51,406.78q1.68-3.4,3.3-7.22" style="fill: none; stroke: rgb(38, 50, 56); stroke-linecap: round; stroke-linejoin: round; transform-origin: 339.16px 403.17px;" id="elkimxmikt4ih" class="animable"></path><path d="M313.47,439.67s11-8.37,21.78-28.48" style="fill: none; stroke: rgb(38, 50, 56); stroke-linecap: round; stroke-linejoin: round; transform-origin: 324.36px 425.43px;" id="elruuo4t5dat" class="animable"></path><path d="M140.4,261.61c2.59-3.16,6.48-6.81,9.59-5.16,0,0,13.07,1.52,10.33,19.14L170.66,289s16.1,9.72,12.76,24.31" style="fill: none; stroke: rgb(38, 50, 56); stroke-linecap: round; stroke-linejoin: round; transform-origin: 162.138px 284.675px;" id="el2cbe3q3jwcr" class="animable"></path><path d="M137.54,265.56s.45-.74,1.22-1.81" style="fill: none; stroke: rgb(38, 50, 56); stroke-linecap: round; stroke-linejoin: round; transform-origin: 138.15px 264.655px;" id="eleao9uqnuo" class="animable"></path><path d="M144,211.51c2.54,9.57,5.09,12.12,5.09,12.12l13.37,18.23s8.21,0,28.87,21.88" style="fill: none; stroke: rgb(38, 50, 56); stroke-linecap: round; stroke-linejoin: round; transform-origin: 167.665px 237.625px;" id="elnu6ksvu4euq" class="animable"></path><path d="M135.06,199.91a11.08,11.08,0,0,1,8.25,8.83" style="fill: none; stroke: rgb(38, 50, 56); stroke-linecap: round; stroke-linejoin: round; transform-origin: 139.185px 204.325px;" id="el51y8jtbd0kk" class="animable"></path><path d="M127.51,199.63a17.61,17.61,0,0,1,4.28-.24" style="fill: none; stroke: rgb(38, 50, 56); stroke-linecap: round; stroke-linejoin: round; transform-origin: 129.65px 199.491px;" id="el9htielf06tc" class="animable"></path><path d="M350.35,146.77c.15-.7.32-1.41.49-2.14" style="fill: none; stroke: rgb(38, 50, 56); stroke-linecap: round; stroke-linejoin: round; transform-origin: 350.595px 145.7px;" id="eluyy1p0oaid" class="animable"></path><path d="M352.66,175.32s-6.91-4.52-2.83-26" style="fill: none; stroke: rgb(38, 50, 56); stroke-linecap: round; stroke-linejoin: round; transform-origin: 350.601px 162.32px;" id="ellim2ogf7uel" class="animable"></path><path d="M332.75,234.3c-22,30.16-40.24,101.62-2.29,144.25" style="fill: none; stroke: rgb(38, 50, 56); stroke-linecap: round; stroke-linejoin: round; transform-origin: 320.622px 306.425px;" id="el75rk9yyteie" class="animable"></path><path d="M359.24,202.14c10.63,14.23,17.91,36.1,21.25,43.55" style="fill: none; stroke: rgb(38, 50, 56); stroke-linecap: round; stroke-linejoin: round; transform-origin: 369.865px 223.915px;" id="eltyp82ebfpfc" class="animable"></path><path d="M412.07,376.1c-12.54-11.12-20-18-20-18L378.29,339.4s2-74.95,3.24-85.49-11.75-30.79-15.8-48.21S356,177.75,356,177.75c-1.21-43.76-5.26-38.55-5.26-38.55-28.36-5.73-32,43-29.58,59.21s5.27,43,5.27,43-19.45,3.24-31.2-10.94-39.29-28-39.29-28-27.55-20.66-40.52-30.79-36.86-25.52-47-29.17-28-6.48-32.41,4.05a17.4,17.4,0,0,0,2.83,18.23s-22.69-8.91-27.14,6.49,12.56,29.57,12.56,29.57-5.27,2.84-8.11,18.64,1.63,20.25,5.27,31.6S134.8,268.9,134.8,268.9s-6.08,10.54,0,26.74,30,40.11,30,40.11,12.16,22.28,44.57,53.88,99.25,56.12,99.25,56.12l5.85,5.78" style="fill: none; stroke: rgb(38, 50, 56); stroke-linecap: round; stroke-linejoin: round; transform-origin: 261.514px 295.132px;" id="el2qkshg1kwi1" class="animable"></path><path d="M144,167.19s7.38,4.22,15,14.4" style="fill: none; stroke: rgb(38, 50, 56); stroke-linecap: round; stroke-linejoin: round; transform-origin: 151.5px 174.39px;" id="el7dltu07mkos" class="animable"></path><rect x="161.08" y="76.27" width="159.2" height="321.72" rx="21.24" style="fill: rgb(38, 50, 56); stroke: rgb(38, 50, 56); stroke-linecap: round; stroke-linejoin: round; transform-origin: 240.68px 237.13px;" id="ellj6tv5fem7o" class="animable"></rect><path d="M294.93,86.55H282.3A3.29,3.29,0,0,0,279,89.84h0a10.8,10.8,0,0,1-10.8,10.8H219.56a10.8,10.8,0,0,1-10.8-10.8h0a3.29,3.29,0,0,0-3.29-3.29h-19a15.07,15.07,0,0,0-15.07,15.07v271a15.07,15.07,0,0,0,15.07,15.07h108.5A15.07,15.07,0,0,0,310,372.64v-271A15.07,15.07,0,0,0,294.93,86.55Z" style="fill: #FFC100; stroke: rgb(38, 50, 56); stroke-linecap: round; stroke-linejoin: round; stroke-width: 0.75px; transform-origin: 240.7px 237.12px;" id="el0pgncmmmdgag" class="animable"></path><line x1="166.56" y1="318.25" x2="166.56" y2="324.51" style="fill: none; stroke: rgb(127, 127, 127); stroke-linecap: round; stroke-linejoin: round; transform-origin: 166.56px 321.38px;" id="el7xhmmxesk1x" class="animable"></line><line x1="166.56" y1="191.77" x2="166.56" y2="309.19" style="fill: none; stroke: rgb(127, 127, 127); stroke-linecap: round; stroke-linejoin: round; transform-origin: 166.56px 250.48px;" id="elc02tv2fd3oi" class="animable"></line><line x1="166.56" y1="110.91" x2="166.56" y2="176.94" style="fill: none; stroke: rgb(127, 127, 127); stroke-linecap: round; stroke-linejoin: round; transform-origin: 166.56px 143.925px;" id="elw14va5s2of" class="animable"></line><line x1="166.56" y1="99.7" x2="166.56" y2="105.44" style="fill: none; stroke: rgb(127, 127, 127); stroke-linecap: round; stroke-linejoin: round; transform-origin: 166.56px 102.57px;" id="eliil5t88gyse" class="animable"></line><line x1="314.56" y1="151.9" x2="314.56" y2="145.65" style="fill: none; stroke: rgb(127, 127, 127); stroke-linecap: round; stroke-linejoin: round; transform-origin: 314.56px 148.775px;" id="eloyw93sxjug" class="animable"></line><line x1="314.56" y1="278.38" x2="314.56" y2="160.96" style="fill: none; stroke: rgb(127, 127, 127); stroke-linecap: round; stroke-linejoin: round; transform-origin: 314.56px 219.67px;" id="elsckw7hlt1e" class="animable"></line><line x1="314.56" y1="359.24" x2="314.56" y2="293.22" style="fill: none; stroke: rgb(127, 127, 127); stroke-linecap: round; stroke-linejoin: round; transform-origin: 314.56px 326.23px;" id="elpk6lf2n6pdg" class="animable"></line><line x1="314.56" y1="370.45" x2="314.56" y2="364.71" style="fill: none; stroke: rgb(127, 127, 127); stroke-linecap: round; stroke-linejoin: round; transform-origin: 314.56px 367.58px;" id="el1ukx7n3np94" class="animable"></line><path d="M259.8,90.4a2.13,2.13,0,1,1-2.13-2.13A2.13,2.13,0,0,1,259.8,90.4Z" style="fill: #FFC100; stroke: rgb(38, 50, 56); stroke-linecap: round; stroke-linejoin: round; transform-origin: 257.67px 90.4px;" id="elhru581pgdln" class="animable"></path><path d="M247.17,88.27H233.56a2.13,2.13,0,1,0,0,4.26h13.61a2.13,2.13,0,1,0,0-4.26Z" style="fill: #FFC100; stroke: rgb(38, 50, 56); stroke-linecap: round; stroke-linejoin: round; transform-origin: 240.365px 90.4px;" id="elysb28i9rpxd" class="animable"></path></g><g id="freepik--Feed--inject-2" class="animable" style="transform-origin: 241.14px 243.025px;"><rect x="179.88" y="112.38" width="124.71" height="109.63" rx="6.16" style="fill: rgb(38, 50, 56); stroke: rgb(38, 50, 56); stroke-linecap: round; stroke-linejoin: round; transform-origin: 242.235px 167.195px;" id="el5krv7oshg25" class="animable"></rect><rect x="177.69" y="110.19" width="124.71" height="109.63" rx="6.16" style="fill: #FFC100; transform-origin: 240.045px 165.005px;" id="elzl2r0s3j4rm" class="animable"></rect><g style="clip-path: url(&quot;#freepik--clip-path-2--inject-2&quot;); transform-origin: 240.045px 165.005px;" id="elia5vxbj0jw" class="animable"><g id="el6pkxe0kdav5"><rect x="177.69" y="110.19" width="124.71" height="109.63" rx="6.16" style="fill: rgb(255, 255, 255); opacity: 0.7; transform-origin: 240.045px 165.005px;" class="animable" id="elrqhcnk49lb"></rect></g></g><rect x="177.69" y="110.19" width="124.71" height="109.63" rx="6.16" style="fill: none; stroke: rgb(38, 50, 56); stroke-linecap: round; stroke-linejoin: round; transform-origin: 240.045px 165.005px;" id="elleigisrg6fd" class="animable"></rect><rect x="182.78" y="149.21" width="114.52" height="64.78" style="fill: #FFC100; transform-origin: 240.04px 181.6px;" id="elum7yu18wgil" class="animable"></rect><g style="clip-path: url(&quot;#freepik--clip-path-3--inject-2&quot;); transform-origin: 239.915px 182.39px;" id="el01a5xbwcskcn" class="animable"><g id="elzrxznlih6ae"><path d="M290.74,189.59c-7.41,0-12.76,15-12.76,15s-10.36-12.85-17.55-12.85-45.52,12.85-45.52,12.85-11.33-12.2-19.56-12.49c-5.53-.2-8.93,4.66-12.77,12.93v8.87H297.25V194.06C295.23,191.51,293,189.59,290.74,189.59Z" style="fill: rgb(255, 255, 255); opacity: 0.5; transform-origin: 239.915px 201.745px;" class="animable" id="elthb0nbe1veo"></path></g><path d="M240.76,185.68c1.28,1.45,3.64.59,3.64.59a3.79,3.79,0,0,0-1.21,2.4c1.42.84,3.43-.33,3.43-.33a4.14,4.14,0,0,0-.2,3.22c2-.07,3.06-2.66,3.06-2.66a3,3,0,0,0,.6,3.13c1.6-.08,2.39-2.46,2.39-2.46.35,2.34,1.4,3.08,1.4,3.08,2-1,2-3.75,2-3.75a3.66,3.66,0,0,0,1.63,2.9,4.2,4.2,0,0,0,1.1-2.2,3,3,0,0,0,1.83,0,4.55,4.55,0,0,0,.68.25,4.06,4.06,0,0,0-.76,2.53c2.15.68,4.06-1.24,4.06-1.24a3.68,3.68,0,0,0-.89,3.21,4.47,4.47,0,0,0,3.67-2.23,3.93,3.93,0,0,0,.43,3.73,5.5,5.5,0,0,0,2.85-3.93,3.25,3.25,0,0,0,1.56,2.63c1.25-1,1.24-3.15,1.24-3.15.86,1.81,1.81,2.12,1.81,2.12,1.08-.94.79-3.49.79-3.49a2.52,2.52,0,0,0,1.79,1.73,3.83,3.83,0,0,0,.54-3.79,2.73,2.73,0,0,0,2.53.89c.81-1.36-.75-3.35-.75-3.35a4,4,0,0,0,3.22-.21v-3.7c-.4-1.47-2.74-2-2.74-2a4.25,4.25,0,0,0,2.87-1.78c-1.11-1.56-4-1.51-4-1.51a4.49,4.49,0,0,0,2.67-2c-1.93-1.58-4.86-.21-4.86-.21a5.25,5.25,0,0,0,2.53-3.49c-2.08-.89-4.65,1.37-4.65,1.37s1.61-2.3,1.06-3.8a3.27,3.27,0,0,0-2.13,1.17,3,3,0,0,0-.9-.83,3.22,3.22,0,0,0-.14-.7,3.77,3.77,0,0,0,2.06-1.43s-.5-1.23-3.21-1.23c0,0,2.43-.43,3.21-2.19-1.1-.88-3.26-.54-3.26-.54a3.73,3.73,0,0,0,2.18-1.55,6.52,6.52,0,0,0-2.86-.34,3.91,3.91,0,0,0,2.42-1.89,5.26,5.26,0,0,0-3.58,0,4.06,4.06,0,0,0,2-3.14,4.86,4.86,0,0,0-3.68,1.16c1.36-2.23.87-3.49.87-3.49-1.4-.1-2.85,2.18-2.85,2.18.63-2.91-.49-4-.49-4-1.45.68-1.93,3.44-1.93,3.44s-.23-3.42-2.33-4.26a5.27,5.27,0,0,0-.68,4.26s-1.1-3-3.58-3.3a4.49,4.49,0,0,0,.48,3.3s-2-2.06-3.87-1.75a4.29,4.29,0,0,0,.77,3.3s-2.06-1.25-3.39-.49a3,3,0,0,0,1.26,2.62s-2.16-1.16-3.87,0a4,4,0,0,0,2.13,2.42s-2.51.3-2.91,1.84a2.75,2.75,0,0,0,2.42,1.16,4.51,4.51,0,0,0-1.53,1.16,2.36,2.36,0,0,0-.87-.77s-1.12,1.07-.49,4c0,0-1.45-2.27-2.86-2.18,0,0-.48,1.26.88,3.49a4.86,4.86,0,0,0-3.68-1.16,4.08,4.08,0,0,0,2,3.15,5.2,5.2,0,0,0-3.58,0,3.91,3.91,0,0,0,2.42,1.89,6.36,6.36,0,0,0-2.86.34,3.69,3.69,0,0,0,2.18,1.55s-2.16-.34-3.26.53c.78,1.77,3.21,2.19,3.21,2.19-2.71,0-3.21,1.23-3.21,1.23a4.24,4.24,0,0,0,3,1.62c-1.82.67-2.07,1.6-2.07,1.6Z" style="fill: #FFC100; transform-origin: 260.95px 173.195px;" id="elukpmklwquze" class="animable"></path><g style="clip-path: url(&quot;#freepik--clip-path-4--inject-2&quot;); transform-origin: 260.95px 173.195px;" id="elwbonxz7sgw" class="animable"><g id="eloqke2xfdyso"><path d="M240.76,185.68c1.28,1.45,3.64.59,3.64.59a3.79,3.79,0,0,0-1.21,2.4c1.42.84,3.43-.33,3.43-.33a4.14,4.14,0,0,0-.2,3.22c2-.07,3.06-2.66,3.06-2.66a3,3,0,0,0,.6,3.13c1.6-.08,2.39-2.46,2.39-2.46.35,2.34,1.4,3.08,1.4,3.08,2-1,2-3.75,2-3.75a3.66,3.66,0,0,0,1.63,2.9,4.2,4.2,0,0,0,1.1-2.2,3,3,0,0,0,1.83,0,4.55,4.55,0,0,0,.68.25,4.06,4.06,0,0,0-.76,2.53c2.15.68,4.06-1.24,4.06-1.24a3.68,3.68,0,0,0-.89,3.21,4.47,4.47,0,0,0,3.67-2.23,3.93,3.93,0,0,0,.43,3.73,5.5,5.5,0,0,0,2.85-3.93,3.25,3.25,0,0,0,1.56,2.63c1.25-1,1.24-3.15,1.24-3.15.86,1.81,1.81,2.12,1.81,2.12,1.08-.94.79-3.49.79-3.49a2.52,2.52,0,0,0,1.79,1.73,3.83,3.83,0,0,0,.54-3.79,2.73,2.73,0,0,0,2.53.89c.81-1.36-.75-3.35-.75-3.35a4,4,0,0,0,3.22-.21v-3.7c-.4-1.47-2.74-2-2.74-2a4.25,4.25,0,0,0,2.87-1.78c-1.11-1.56-4-1.51-4-1.51a4.49,4.49,0,0,0,2.67-2c-1.93-1.58-4.86-.21-4.86-.21a5.25,5.25,0,0,0,2.53-3.49c-2.08-.89-4.65,1.37-4.65,1.37s1.61-2.3,1.06-3.8a3.27,3.27,0,0,0-2.13,1.17,3,3,0,0,0-.9-.83,3.22,3.22,0,0,0-.14-.7,3.77,3.77,0,0,0,2.06-1.43s-.5-1.23-3.21-1.23c0,0,2.43-.43,3.21-2.19-1.1-.88-3.26-.54-3.26-.54a3.73,3.73,0,0,0,2.18-1.55,6.52,6.52,0,0,0-2.86-.34,3.91,3.91,0,0,0,2.42-1.89,5.26,5.26,0,0,0-3.58,0,4.06,4.06,0,0,0,2-3.14,4.86,4.86,0,0,0-3.68,1.16c1.36-2.23.87-3.49.87-3.49-1.4-.1-2.85,2.18-2.85,2.18.63-2.91-.49-4-.49-4-1.45.68-1.93,3.44-1.93,3.44s-.23-3.42-2.33-4.26a5.27,5.27,0,0,0-.68,4.26s-1.1-3-3.58-3.3a4.49,4.49,0,0,0,.48,3.3s-2-2.06-3.87-1.75a4.29,4.29,0,0,0,.77,3.3s-2.06-1.25-3.39-.49a3,3,0,0,0,1.26,2.62s-2.16-1.16-3.87,0a4,4,0,0,0,2.13,2.42s-2.51.3-2.91,1.84a2.75,2.75,0,0,0,2.42,1.16,4.51,4.51,0,0,0-1.53,1.16,2.36,2.36,0,0,0-.87-.77s-1.12,1.07-.49,4c0,0-1.45-2.27-2.86-2.18,0,0-.48,1.26.88,3.49a4.86,4.86,0,0,0-3.68-1.16,4.08,4.08,0,0,0,2,3.15,5.2,5.2,0,0,0-3.58,0,3.91,3.91,0,0,0,2.42,1.89,6.36,6.36,0,0,0-2.86.34,3.69,3.69,0,0,0,2.18,1.55s-2.16-.34-3.26.53c.78,1.77,3.21,2.19,3.21,2.19-2.71,0-3.21,1.23-3.21,1.23a4.24,4.24,0,0,0,3,1.62c-1.82.67-2.07,1.6-2.07,1.6Z" style="opacity: 0.2; transform-origin: 260.95px 173.195px;" class="animable" id="elyuvq2mxy8h"></path></g></g><path d="M240.76,185.68c1.28,1.45,3.64.59,3.64.59a3.79,3.79,0,0,0-1.21,2.4c1.42.84,3.43-.33,3.43-.33a4.14,4.14,0,0,0-.2,3.22c2-.07,3.06-2.66,3.06-2.66a3,3,0,0,0,.6,3.13c1.6-.08,2.39-2.46,2.39-2.46.35,2.34,1.4,3.08,1.4,3.08,2-1,2-3.75,2-3.75a3.66,3.66,0,0,0,1.63,2.9,4.2,4.2,0,0,0,1.1-2.2,3,3,0,0,0,1.83,0,4.55,4.55,0,0,0,.68.25,4.06,4.06,0,0,0-.76,2.53c2.15.68,4.06-1.24,4.06-1.24a3.68,3.68,0,0,0-.89,3.21,4.47,4.47,0,0,0,3.67-2.23,3.93,3.93,0,0,0,.43,3.73,5.5,5.5,0,0,0,2.85-3.93,3.25,3.25,0,0,0,1.56,2.63c1.25-1,1.24-3.15,1.24-3.15.86,1.81,1.81,2.12,1.81,2.12,1.08-.94.79-3.49.79-3.49a2.52,2.52,0,0,0,1.79,1.73,3.83,3.83,0,0,0,.54-3.79,2.73,2.73,0,0,0,2.53.89c.81-1.36-.75-3.35-.75-3.35a4,4,0,0,0,3.22-.21v-3.7c-.4-1.47-2.74-2-2.74-2a4.25,4.25,0,0,0,2.87-1.78c-1.11-1.56-4-1.51-4-1.51a4.49,4.49,0,0,0,2.67-2c-1.93-1.58-4.86-.21-4.86-.21a5.25,5.25,0,0,0,2.53-3.49c-2.08-.89-4.65,1.37-4.65,1.37s1.61-2.3,1.06-3.8a3.27,3.27,0,0,0-2.13,1.17,3,3,0,0,0-.9-.83,3.22,3.22,0,0,0-.14-.7,3.77,3.77,0,0,0,2.06-1.43s-.5-1.23-3.21-1.23c0,0,2.43-.43,3.21-2.19-1.1-.88-3.26-.54-3.26-.54a3.73,3.73,0,0,0,2.18-1.55,6.52,6.52,0,0,0-2.86-.34,3.91,3.91,0,0,0,2.42-1.89,5.26,5.26,0,0,0-3.58,0,4.06,4.06,0,0,0,2-3.14,4.86,4.86,0,0,0-3.68,1.16c1.36-2.23.87-3.49.87-3.49-1.4-.1-2.85,2.18-2.85,2.18.63-2.91-.49-4-.49-4-1.45.68-1.93,3.44-1.93,3.44s-.23-3.42-2.33-4.26a5.27,5.27,0,0,0-.68,4.26s-1.1-3-3.58-3.3a4.49,4.49,0,0,0,.48,3.3s-2-2.06-3.87-1.75a4.29,4.29,0,0,0,.77,3.3s-2.06-1.25-3.39-.49a3,3,0,0,0,1.26,2.62s-2.16-1.16-3.87,0a4,4,0,0,0,2.13,2.42s-2.51.3-2.91,1.84a2.75,2.75,0,0,0,2.42,1.16,4.51,4.51,0,0,0-1.53,1.16,2.36,2.36,0,0,0-.87-.77s-1.12,1.07-.49,4c0,0-1.45-2.27-2.86-2.18,0,0-.48,1.26.88,3.49a4.86,4.86,0,0,0-3.68-1.16,4.08,4.08,0,0,0,2,3.15,5.2,5.2,0,0,0-3.58,0,3.91,3.91,0,0,0,2.42,1.89,6.36,6.36,0,0,0-2.86.34,3.69,3.69,0,0,0,2.18,1.55s-2.16-.34-3.26.53c.78,1.77,3.21,2.19,3.21,2.19-2.71,0-3.21,1.23-3.21,1.23a4.24,4.24,0,0,0,3,1.62c-1.82.67-2.07,1.6-2.07,1.6Z" style="fill: none; stroke: rgb(38, 50, 56); stroke-linecap: round; stroke-linejoin: round; stroke-width: 0.5px; transform-origin: 260.95px 173.195px;" id="elidad6hgeqtr" class="animable"></path><path d="M257.1,205.17a58.48,58.48,0,0,1,.5,8.53h6.55c.5-9.68,2.1-18.71,5.77-23.78a30.38,30.38,0,0,1,7.26-6.77l-1.3-.37-7.11,5.72-2-7.82h-.91c.43,1.82,1.45,6.85,1.09,8.62s-6.06,13.51-6.06,13.51-4.77-7.6-5.69-10.42a82.29,82.29,0,0,1-2-12.37l-.86.08.67,10.8-7.17-8.52-1,0,8,11.51S256.62,202.2,257.1,205.17Z" style="fill: rgb(153, 153, 153); stroke: rgb(38, 50, 56); stroke-linecap: round; stroke-linejoin: round; stroke-width: 0.5px; transform-origin: 261.01px 196.86px;" id="eltna62rk0ouk" class="animable"></path><path d="M208,162.06a2.34,2.34,0,0,1-.51,1.53,7,7,0,0,1-2.84,1.57l-2.7.64-3.42,4.69-3.17-2.94,3.72-4.69a22.66,22.66,0,0,1,2.56-4.69,1.79,1.79,0,0,1,1.94-.31s2-1.16,1.79.18c0,0,2.9-4.3,3.58-3.7,1.35,1.2-2.44,4.19-1.81,4.89s4.58-2,5.25-1-4.34,2.66-4.34,2.66Z" style="fill: rgb(255, 255, 255); stroke: rgb(38, 50, 56); stroke-linecap: round; stroke-linejoin: round; stroke-width: 0.5px; transform-origin: 203.906px 162.386px;" id="elp3nra689tz9" class="animable"></path><path d="M205,158.65s-2.13,2.3-1.61.19c0,0-.36,1-.84,1.11s-.38-.88-.38-.88" style="fill: none; stroke: rgb(38, 50, 56); stroke-linecap: round; stroke-linejoin: round; stroke-width: 0.5px; transform-origin: 203.581px 159.304px;" id="elcs2mjpmuw5" class="animable"></path><path d="M207.14,162.43s.76-1-.58-1.35-2.6-1.39-2.85-.91-.22,1,1.29,1.78c0,0,.05.32-.58.33a4.18,4.18,0,0,0-2.21.51" style="fill: rgb(255, 255, 255); stroke: rgb(38, 50, 56); stroke-linecap: round; stroke-linejoin: round; stroke-width: 0.5px; transform-origin: 204.782px 161.418px;" id="elv9wi084pvpq" class="animable"></path><path d="M212.7,180.86l-18-.26s2.57-3.25,6.52-12.42a1.94,1.94,0,0,0-1-2.4l-2.4-1.28a2,2,0,0,0-2.56.53c-3.37,4.29-13.35,17.65-9.86,20.9,4.17,3.89,9.4,3.62,12.71,4,4,.42,13.12,1.65,13.12,1.65Z" style="fill: rgb(38, 50, 56); stroke: rgb(38, 50, 56); stroke-linecap: round; stroke-linejoin: round; transform-origin: 198.685px 177.914px;" id="elfvrncz9nux5" class="animable"></path><path d="M249.08,214.19l0,0h9.41l-1.67-3.36L246.89,182a.64.64,0,0,0-1.23,0c-2.35,7.91-1,18.26-1,18.26S246.13,208.4,249.08,214.19Z" style="fill: rgb(38, 50, 56); stroke: rgb(38, 50, 56); stroke-linecap: round; stroke-linejoin: round; transform-origin: 251.382px 197.864px;" id="el4qgr33de3hw" class="animable"></path><path d="M230.55,152.94s-12-4.87-14.65,7,.59,17.06,3.76,17.41,5.27-1.68,8.18-1.27,3.45,1.19,6.88,1.32,2.69-14,1.87-19.18S230.55,152.94,230.55,152.94Z" style="fill: rgb(38, 50, 56); stroke: rgb(38, 50, 56); stroke-linecap: round; stroke-linejoin: round; stroke-width: 0.75px; transform-origin: 226.1px 164.676px;" id="eldmw3l7fzm8" class="animable"></path><path d="M243.62,214.23l2.66-32.57a72.75,72.75,0,0,0-36.89,0l2.67,32.57Z" style="fill: #FFC100; stroke: rgb(38, 50, 56); stroke-linecap: round; stroke-linejoin: round; transform-origin: 227.835px 196.756px;" id="eljadcjddgd7c" class="animable"></path><path d="M209.39,181.66l2.9,32.32,31.33.25,2.66-32.57A72.75,72.75,0,0,0,209.39,181.66Z" style="fill: #FFC100; transform-origin: 227.835px 196.756px;" id="elh6gvy6gqdvu" class="animable"></path><g style="clip-path: url(&quot;#freepik--clip-path-5--inject-2&quot;); transform-origin: 227.52px 196.761px;" id="elna8ly1ib5kd" class="animable"><g id="el4uruvb4jgc5"><path d="M243.62,214.23l2.66-32.57a72.75,72.75,0,0,0-36.89,0l2.67,32.57Z" style="fill: rgb(255, 255, 255); opacity: 0.7; transform-origin: 227.835px 196.756px;" class="animable" id="ell9mzozy9sjl"></path></g><rect x="208.76" y="197.79" width="37.52" height="3.69" style="fill: #FFC100; transform-origin: 227.52px 199.635px;" id="elerop5zyke2g" class="animable"></rect><rect x="208.76" y="189.73" width="37.52" height="3.69" style="fill: #FFC100; transform-origin: 227.52px 191.575px;" id="elpa8tq3u7xc" class="animable"></rect><rect x="208.76" y="181.67" width="37.52" height="3.69" style="fill: #FFC100; transform-origin: 227.52px 183.515px;" id="elkdjpgu6q7mq" class="animable"></rect><rect x="208.76" y="205.34" width="37.52" height="3.69" style="fill: #FFC100; transform-origin: 227.52px 207.185px;" id="elxpt4yj8ew" class="animable"></rect><rect x="208.76" y="212.9" width="37.52" height="1.34" style="fill: #FFC100; transform-origin: 227.52px 213.57px;" id="elhe9mfpfdqm" class="animable"></rect></g><path d="M209.39,181.66l2.9,32.32,31.33.25,2.66-32.57A72.75,72.75,0,0,0,209.39,181.66Z" style="fill: none; stroke: rgb(38, 50, 56); stroke-linecap: round; stroke-linejoin: round; transform-origin: 227.835px 196.756px;" id="el2n0isgn9s52" class="animable"></path><path d="M222.73,179.38l.34-5.63H231l.33,5.52a.86.86,0,0,0,.81.8c.83.05,1.63.11,2.39.18a10,10,0,0,1-7.38,3.27,10.72,10.72,0,0,1-7.5-3.12c.77-.09,1.53-.16,2.28-.22A.87.87,0,0,0,222.73,179.38Z" style="fill: rgb(255, 255, 255); transform-origin: 227.09px 178.635px;" id="el3fw5zj3x3tq" class="animable"></path><g style="clip-path: url(&quot;#freepik--clip-path-6--inject-2&quot;); transform-origin: 226.915px 175.085px;" id="eleyncflr6w6l" class="animable"><path d="M233.36,171.84c-.92,3.23-3.45,6.49-6.44,6.49s-5.53-3.26-6.45-6.49Z" style="fill: rgb(38, 50, 56); stroke: rgb(38, 50, 56); stroke-linecap: round; stroke-linejoin: round; stroke-width: 0.5px; transform-origin: 226.915px 175.085px;" id="elicvn0hbb0r" class="animable"></path></g><path d="M222.73,179.38l.34-5.63H231l.33,5.52a.86.86,0,0,0,.81.8c.83.05,1.63.11,2.39.18a10,10,0,0,1-7.38,3.27,10.72,10.72,0,0,1-7.5-3.12c.77-.09,1.53-.16,2.28-.22A.87.87,0,0,0,222.73,179.38Z" style="fill: none; stroke: rgb(38, 50, 56); stroke-linecap: round; stroke-linejoin: round; stroke-width: 0.5px; transform-origin: 227.09px 178.635px;" id="elssbogbe5co" class="animable"></path><path d="M233.09,167a3.13,3.13,0,0,0,1,3.56c.86.49,1.44-.65,2.09-1.77a1.86,1.86,0,1,0-3.11-1.79Z" style="fill: rgb(255, 255, 255); stroke: rgb(38, 50, 56); stroke-linecap: round; stroke-linejoin: round; transform-origin: 234.811px 168.143px;" id="elbazmbxyfqp7" class="animable"></path><path d="M220.92,167a3.13,3.13,0,0,1-1,3.56c-.86.49-1.44-.65-2.09-1.77a1.85,1.85,0,1,1,3.1-1.79Z" style="fill: rgb(255, 255, 255); stroke: rgb(38, 50, 56); stroke-linecap: round; stroke-linejoin: round; transform-origin: 219.207px 168.158px;" id="elz6da61linvo" class="animable"></path><path d="M219.32,163.12V167c0,4.19,3.4,9.94,7.6,9.94s7.59-5.75,7.59-9.94v-3.53" style="fill: rgb(255, 255, 255); stroke: rgb(38, 50, 56); stroke-linecap: round; stroke-linejoin: round; stroke-width: 0.75px; transform-origin: 226.915px 170.03px;" id="eldlcg1rkjfpm" class="animable"></path><path d="M219.32,163.12c-.1,1,0,3.86,0,3.86,0,4.19,3.4,9.94,7.6,9.94s7.59-5.75,7.59-9.94a33.46,33.46,0,0,0,0-3.53,31.06,31.06,0,0,0-.84-3,5,5,0,0,1-2.23-3.13c-.42-2.12-2.54,1.48-6.56,1.38s-3.71.58-4.93,1.69C220,160.34,219.4,162.41,219.32,163.12Z" style="fill: rgb(255, 255, 255); stroke: rgb(38, 50, 56); stroke-linecap: round; stroke-linejoin: round; stroke-width: 0.75px; transform-origin: 226.916px 166.785px;" id="ely4te9zmnag" class="animable"></path><path d="M219.32,163.12c-.1,1,0,3.86,0,3.86,0,4.19,3.4,9.94,7.6,9.94s7.59-5.75,7.59-9.94a33.46,33.46,0,0,0,0-3.53,31.06,31.06,0,0,0-.84-3,5,5,0,0,1-2.23-3.13c-.42-2.12-2.54,1.48-6.56,1.38s-3.71.58-4.93,1.69C220,160.34,219.4,162.41,219.32,163.12Z" style="fill: rgb(255, 255, 255); transform-origin: 226.916px 166.785px;" id="el6pqx48sac1" class="animable"></path><path d="M219.32,163.12c-.1,1,0,3.86,0,3.86,0,4.19,3.4,9.94,7.6,9.94s7.59-5.75,7.59-9.94a33.46,33.46,0,0,0,0-3.53,31.06,31.06,0,0,0-.84-3,5,5,0,0,1-2.23-3.13c-.42-2.12-2.54,1.48-6.56,1.38s-3.71.58-4.93,1.69C220,160.34,219.4,162.41,219.32,163.12Z" style="fill: none; stroke: rgb(38, 50, 56); stroke-linecap: round; stroke-linejoin: round; transform-origin: 226.916px 166.785px;" id="elslecx2uif3" class="animable"></path><path d="M229.14,171.07a3.49,3.49,0,0,1-4.32,0" style="fill: none; stroke: rgb(38, 50, 56); stroke-linecap: round; stroke-linejoin: round; stroke-width: 0.5px; transform-origin: 226.98px 171.444px;" id="el1qh5i737c5x" class="animable"></path><path d="M228,162.51s-.74,2.63.31,4.44a1.14,1.14,0,0,1-.4,1.58l-.65.37" style="fill: none; stroke: rgb(38, 50, 56); stroke-linecap: round; stroke-linejoin: round; stroke-width: 0.5px; transform-origin: 227.869px 165.705px;" id="el0a3dwropje2w" class="animable"></path><ellipse cx="223.15" cy="164.3" rx="0.45" ry="0.95" style="fill: rgb(38, 50, 56); transform-origin: 223.15px 164.3px;" id="el57c12a6pom8" class="animable"></ellipse><path d="M232.71,161.35s-1.88-1-3,.35" style="fill: none; stroke: rgb(38, 50, 56); stroke-linecap: round; stroke-linejoin: round; stroke-width: 0.5px; transform-origin: 231.21px 161.347px;" id="elnz1s9711i4" class="animable"></path><path d="M221.61,161.29s2-.83,3,.64" style="fill: none; stroke: rgb(38, 50, 56); stroke-linecap: round; stroke-linejoin: round; stroke-width: 0.5px; transform-origin: 223.11px 161.493px;" id="el031wrwlzbsb3" class="animable"></path><path d="M243.62,214.23l2.57-31.38a1.44,1.44,0,0,0-1.08-1.51,67.77,67.77,0,0,0-10.81-1.76s-4.46,21-5.1,28.1c-.13,1.46-.18,3.81-.18,6.55Z" style="fill: rgb(38, 50, 56); stroke: rgb(38, 50, 56); stroke-linecap: round; stroke-linejoin: round; transform-origin: 237.607px 196.905px;" id="elsrilbno2z6" class="animable"></path><path d="M225.85,214.23c0-2.74,0-5.09-.17-6.55-.76-7.1-6-28-6-28a68.45,68.45,0,0,0-9,1.6A1.57,1.57,0,0,0,209.5,183l2.56,31.24Z" style="fill: rgb(38, 50, 56); stroke: rgb(38, 50, 56); stroke-linecap: round; stroke-linejoin: round; transform-origin: 217.669px 196.96px;" id="elbe2gbwy4x9q" class="animable"></path><path d="M232.13,163.67a2,2,0,0,0-1.89.28s1.44.1,1.72.54" style="fill: none; stroke: rgb(38, 50, 56); stroke-linecap: round; stroke-linejoin: round; stroke-width: 0.5px; transform-origin: 231.185px 164.019px;" id="elrgl4ip9bza" class="animable"></path></g><rect x="182.78" y="149.21" width="114.52" height="64.78" style="fill: none; stroke: rgb(38, 50, 56); stroke-linecap: round; stroke-linejoin: round; stroke-width: 0.75px; transform-origin: 240.04px 181.6px;" id="elu73bac7t59" class="animable"></rect><g id="el63rz3pvgvk3"><circle cx="197.75" cy="129.57" r="14.05" style="fill: rgb(255, 255, 255); transform-origin: 197.75px 129.57px; transform: rotate(-22.7deg);" class="animable" id="eli1beasrvzef"></circle></g><g style="clip-path: url(&quot;#freepik--clip-path-7--inject-2&quot;); transform-origin: 197.805px 131.295px;" id="elzmc7fjrbxq" class="animable"><path d="M208.55,137.38a4.88,4.88,0,0,0-4.83-4.18h-2.57v-.59c1.88-1.46,2.39-4.35,2.39-7.25,0-4.12-2.59-6.66-5.79-6.66s-5.78,2.54-5.78,6.66c0,2.9.51,5.79,2.39,7.25v.59h-2.58a4.87,4.87,0,0,0-4.82,4.18l-.12.8a7.05,7.05,0,0,1,1.24,2c-.3-.71.59.49.08,0,.24.22.44.46.67.67.09.06.56.42.66.48.32.2.65.39,1,.57a7.6,7.6,0,0,0,2,.73c.34.1.69.18,1,.26s1.17.18.42.1a6.4,6.4,0,0,1,2.72.9,5.53,5.53,0,0,1,.65-.28c2.37-.75,5.07-.47,7.3-1.53a14.91,14.91,0,0,0,4.19-3.27Z" style="fill: rgb(133, 133, 133); transform-origin: 197.805px 131.295px;" id="el77cronx951f" class="animable"></path></g><g id="el7pozphb58f"><circle cx="197.75" cy="129.57" r="14.05" style="fill: none; stroke: rgb(38, 50, 56); stroke-linecap: round; stroke-linejoin: round; stroke-width: 0.75px; transform-origin: 197.75px 129.57px; transform: rotate(-22.7deg);" class="animable" id="elxh18febk4ip"></circle></g><rect x="217.45" y="120.65" width="65.09" height="3.6" rx="1.65" style="fill: rgb(38, 50, 56); stroke: rgb(38, 50, 56); stroke-linecap: round; stroke-linejoin: round; stroke-width: 0.75px; transform-origin: 249.995px 122.45px;" id="elzrkg9rvr9l" class="animable"></rect><path d="M266.51,131.37H219.25a1.8,1.8,0,0,1-1.8-1.8h0a1.79,1.79,0,0,1,1.8-1.8h47.26a1.79,1.79,0,0,1,1.8,1.8h0A1.8,1.8,0,0,1,266.51,131.37Z" style="fill: rgb(38, 50, 56); stroke: rgb(38, 50, 56); stroke-linecap: round; stroke-linejoin: round; stroke-width: 0.75px; transform-origin: 242.88px 129.57px;" id="elzaz82cwypmp" class="animable"></path><path d="M272,138.49H219.25a1.79,1.79,0,0,1-1.8-1.8h0a1.8,1.8,0,0,1,1.8-1.8H272a1.8,1.8,0,0,1,1.8,1.8h0A1.79,1.79,0,0,1,272,138.49Z" style="fill: rgb(38, 50, 56); stroke: rgb(38, 50, 56); stroke-linecap: round; stroke-linejoin: round; stroke-width: 0.75px; transform-origin: 245.625px 136.69px;" id="el2ehbfe8nmfl" class="animable"></path><rect x="179.88" y="228.01" width="124.71" height="39.74" rx="6.16" style="fill: rgb(38, 50, 56); stroke: rgb(38, 50, 56); stroke-linecap: round; stroke-linejoin: round; transform-origin: 242.235px 247.88px;" id="elpqvxbv0tgu" class="animable"></rect><rect x="177.69" y="225.82" width="124.71" height="39.74" rx="6.16" style="fill: #FFC100; transform-origin: 240.045px 245.69px;" id="elav5lqwagvkt" class="animable"></rect><g style="clip-path: url(&quot;#freepik--clip-path-8--inject-2&quot;); transform-origin: 240.045px 245.69px;" id="el1pxvxmaw4vl" class="animable"><g id="elvmr5h4du66s"><rect x="177.69" y="225.82" width="124.71" height="39.74" rx="6.16" style="fill: rgb(255, 255, 255); stroke: rgb(38, 50, 56); stroke-linecap: round; stroke-linejoin: round; opacity: 0.7; transform-origin: 240.045px 245.69px;" class="animable" id="elgsqyec0mjf"></rect></g></g><rect x="177.69" y="225.82" width="124.71" height="39.74" rx="6.16" style="fill: none; stroke: rgb(38, 50, 56); stroke-linecap: round; stroke-linejoin: round; transform-origin: 240.045px 245.69px;" id="el0amqq6ks65cn" class="animable"></rect><g id="elr2oxyo6tjv"><circle cx="197.75" cy="245.69" r="14.05" style="fill: rgb(255, 255, 255); transform-origin: 197.75px 245.69px; transform: rotate(-22.7deg);" class="animable" id="elmm4g2lz4qrn"></circle></g><g style="clip-path: url(&quot;#freepik--clip-path-9--inject-2&quot;); transform-origin: 197.78px 247.71px;" id="el0gz5rlmi6auk" class="animable"><path d="M208.55,254.32a4.88,4.88,0,0,0-4.83-4.18h-2.57v-.59c1.88-1.46,2.39-4.35,2.39-7.25,0-4.11-2.59-6.66-5.79-6.66S192,238.19,192,242.3c0,2.9.51,5.79,2.39,7.25v.59h-2.58a4.87,4.87,0,0,0-4.82,4.18l-.05.31c2.09,2,4.5,4.46,7.44,4.51a4.87,4.87,0,0,1,2.43.64,5.46,5.46,0,0,1,.93-.08,14.84,14.84,0,0,0,10.88-5.1Z" style="fill: rgb(133, 133, 133); transform-origin: 197.78px 247.71px;" id="elz45f393ow9" class="animable"></path></g><g id="elxm7yty81pb"><circle cx="197.75" cy="245.69" r="14.05" style="fill: none; stroke: rgb(38, 50, 56); stroke-linecap: round; stroke-linejoin: round; stroke-width: 0.75px; transform-origin: 197.75px 245.69px; transform: rotate(-22.7deg);" class="animable" id="el5ofhtkr3aay"></circle></g><path d="M280.73,240.37H219.25a1.8,1.8,0,0,1-1.8-1.8h0a1.79,1.79,0,0,1,1.8-1.8h61.48a1.8,1.8,0,0,1,1.81,1.8h0A1.81,1.81,0,0,1,280.73,240.37Z" style="fill: rgb(38, 50, 56); stroke: rgb(38, 50, 56); stroke-linecap: round; stroke-linejoin: round; stroke-width: 0.75px; transform-origin: 249.995px 238.57px;" id="ele6n9ik1o1n7" class="animable"></path><path d="M258.86,247.49H219.25a1.79,1.79,0,0,1-1.8-1.8h0a1.8,1.8,0,0,1,1.8-1.8h39.61a1.81,1.81,0,0,1,1.8,1.8h0A1.8,1.8,0,0,1,258.86,247.49Z" style="fill: rgb(38, 50, 56); stroke: rgb(38, 50, 56); stroke-linecap: round; stroke-linejoin: round; stroke-width: 0.75px; transform-origin: 239.055px 245.69px;" id="ellxy6id80dch" class="animable"></path><path d="M274.17,254.61H219.25a1.79,1.79,0,0,1-1.8-1.8h0a1.8,1.8,0,0,1,1.8-1.8h54.92a1.8,1.8,0,0,1,1.8,1.8h0A1.79,1.79,0,0,1,274.17,254.61Z" style="fill: rgb(38, 50, 56); stroke: rgb(38, 50, 56); stroke-linecap: round; stroke-linejoin: round; stroke-width: 0.75px; transform-origin: 246.71px 252.81px;" id="elg59ydjlh8l" class="animable"></path><rect x="179.88" y="274.62" width="124.71" height="101.24" rx="6.16" style="fill: rgb(38, 50, 56); stroke: rgb(38, 50, 56); stroke-linecap: round; stroke-linejoin: round; transform-origin: 242.235px 325.24px;" id="el4v3y4elm448" class="animable"></rect><rect x="177.69" y="272.43" width="124.71" height="101.24" rx="6.16" style="fill: #FFC100; transform-origin: 240.045px 323.05px;" id="el1zu6hcl82nh" class="animable"></rect><g style="clip-path: url(&quot;#freepik--clip-path-10--inject-2&quot;); transform-origin: 240.045px 323.05px;" id="elic59w3b0f3" class="animable"><g id="elnkhn3gonig8"><rect x="177.69" y="272.43" width="124.71" height="101.24" rx="6.16" style="fill: rgb(255, 255, 255); opacity: 0.7; transform-origin: 240.045px 323.05px;" class="animable" id="elvb9jmf2807"></rect></g></g><rect x="177.69" y="272.43" width="124.71" height="101.24" rx="6.16" style="fill: none; stroke: rgb(38, 50, 56); stroke-linecap: round; stroke-linejoin: round; transform-origin: 240.045px 323.05px;" id="elhk2ulimv8k" class="animable"></rect><rect x="182.78" y="313.94" width="114.52" height="54.58" style="fill: rgb(191, 191, 191); transform-origin: 240.04px 341.23px;" id="elw9w1m7f2rd" class="animable"></rect><g style="clip-path: url(&quot;#freepik--clip-path-11--inject-2&quot;); transform-origin: 240.07px 342.175px;" id="elavlo6j2mwmu" class="animable"><path d="M251.47,338.89c-1.87-1-2.73-.17-3.4-1s.87-3.23-3.25-5.29c-2-1-.33-4.77-7.32-4.95s-5.86,4-7.74,5.22-2.38-.68-4.26.51-1,3.58-2.56,3.92-2.83-.75-4.71.41-1.87,2.23-2.72,2.23-2.56-.67-3.58,0l0,0a.83.83,0,0,0,.46,1.53h39a1.2,1.2,0,0,0,.82-2.06A3.34,3.34,0,0,0,251.47,338.89Z" style="fill: rgb(255, 255, 255); stroke: rgb(38, 50, 56); stroke-linecap: round; stroke-linejoin: round; stroke-width: 0.5px; transform-origin: 232.06px 334.557px;" id="elk976c35cx8" class="animable"></path><path d="M226,338.19a7.12,7.12,0,0,1-.74.35" style="fill: none; stroke: rgb(38, 50, 56); stroke-linecap: round; stroke-linejoin: round; stroke-width: 0.5px; transform-origin: 225.63px 338.365px;" id="elkah0euuj5g" class="animable"></path><path d="M233.53,332.3c-.32,1.56-1.05,2.6-1.88,2.7s-4-.2-4.47.94a4.31,4.31,0,0,0-.29,1.05" style="fill: none; stroke: rgb(38, 50, 56); stroke-linecap: round; stroke-linejoin: round; stroke-width: 0.5px; transform-origin: 230.21px 334.645px;" id="elvt12we4avxd" class="animable"></path><path d="M269.48,351.91c-1.38-.76-2-.13-2.52-.76s.65-2.38-2.4-3.91c-1.46-.74-.24-3.53-5.42-3.66s-4.33,3-5.72,3.86-1.76-.51-3.15.37-.76,2.66-1.89,2.9-2.1-.55-3.49.31-1.39,1.65-2,1.65-1.89-.5-2.64,0l0,0a.61.61,0,0,0,.34,1.12h28.87a.88.88,0,0,0,.61-1.52A2.68,2.68,0,0,0,269.48,351.91Z" style="fill: rgb(255, 255, 255); stroke: rgb(38, 50, 56); stroke-linecap: round; stroke-linejoin: round; stroke-width: 0.5px; transform-origin: 255.16px 348.683px;" id="elmwg0h6sz6k" class="animable"></path><path d="M250.61,351.39a5.52,5.52,0,0,1-.55.26" style="fill: none; stroke: rgb(38, 50, 56); stroke-linecap: round; stroke-linejoin: round; stroke-width: 0.5px; transform-origin: 250.335px 351.52px;" id="elyjsxuf8kwd" class="animable"></path><path d="M256.21,347c-.24,1.16-.78,1.93-1.39,2s-2.93-.15-3.31.7a3.55,3.55,0,0,0-.22.77" style="fill: none; stroke: rgb(38, 50, 56); stroke-linecap: round; stroke-linejoin: round; stroke-width: 0.5px; transform-origin: 253.75px 348.735px;" id="el1fqc396jazw" class="animable"></path><rect x="182.97" y="359.19" width="114.18" height="9.21" style="fill: #FFC100; stroke: rgb(38, 50, 56); stroke-linecap: round; stroke-linejoin: round; stroke-width: 0.5px; transform-origin: 240.06px 363.795px;" id="elsbpo6pptggr" class="animable"></rect><g id="elotvkhuhgwfk"><rect x="182.27" y="359.19" width="115.6" height="9.08" style="fill: rgb(255, 255, 255); opacity: 0.5; transform-origin: 240.07px 363.73px;" class="animable" id="elogni5a0qhq"></rect></g><g id="el0xuuzmgj6rof"><circle cx="197.75" cy="324.84" r="7.49" style="fill: #FFC100; stroke: rgb(38, 50, 56); stroke-linecap: round; stroke-linejoin: round; stroke-width: 0.5px; transform-origin: 197.75px 324.84px; transform: rotate(-73.06deg);" class="animable" id="elsgzzeym4e7c"></circle></g><path d="M211.21,317.53c2.29,3.4-1.76,10.13-9.05,15s-15,6.12-17.34,2.72,1.76-10.13,9.05-15S208.92,314.12,211.21,317.53Z" style="fill: #FFC100; transform-origin: 198.006px 326.388px;" id="elv9h0f04yo5f" class="animable"></path><g style="clip-path: url(&quot;#freepik--clip-path-12--inject-2&quot;); transform-origin: 199.52px 328.405px;" id="elwri75jz3ln" class="animable"><g id="elc44ekfx5rjn"><path d="M210.89,320.75c1.52,2.26-2.34,7.52-8.62,11.74s-12.6,5.83-14.12,3.57,2.34-7.52,8.62-11.74S209.37,318.49,210.89,320.75Z" style="opacity: 0.2; transform-origin: 199.52px 328.405px;" class="animable" id="elhusc77fft3b"></path></g></g><path d="M211.21,317.53c2.29,3.4-1.76,10.13-9.05,15s-15,6.12-17.34,2.72,1.76-10.13,9.05-15S208.92,314.12,211.21,317.53Z" style="fill: none; stroke: rgb(38, 50, 56); stroke-linecap: round; stroke-linejoin: round; stroke-width: 0.5px; transform-origin: 198.006px 326.388px;" id="elemr14udeohq" class="animable"></path><path d="M214.11,321.46a19.48,19.48,0,0,0-1.59-4.29c-.59-.8-1.05-.15-1.05-.15s-1.59-1.23-1.55-.07c0,0-1.68-.59-1.47.48,0,0-.85-.15-1.14.3s.55,2.33.55,2.33c-.32-.47-1.56-1.35-2.11-.86s.46.86,1.14,1.86a6.05,6.05,0,0,0,2.23,1.67,26.22,26.22,0,0,0,2.82.88s5.09,6.85,9.09,9.77l-3.8,5.34a7.56,7.56,0,0,0-2.68,2.79c-1.07,1.91,2.15,8,2.15,8s11.07-13.66,11.07-16.48C227.77,329.88,214.11,321.46,214.11,321.46Z" style="fill: rgb(153, 153, 153); stroke: rgb(38, 50, 56); stroke-linecap: round; stroke-linejoin: round; stroke-width: 0.5px; transform-origin: 216.681px 332.981px;" id="el05gjmoa297qg" class="animable"></path><path d="M208.83,320.24a3,3,0,0,1,2.68.68" style="fill: none; stroke: rgb(38, 50, 56); stroke-linecap: round; stroke-linejoin: round; stroke-width: 0.5px; transform-origin: 210.17px 320.54px;" id="elb6ni76d5rj9" class="animable"></path><path d="M208.11,318.62s1.4.51.72-.64c0,0,1.92.79,1.34-.47,0,0,1.38,1.22,1.34.36,0,0,.18.9.58,1s.43-.7.43-.7" style="fill: none; stroke: rgb(38, 50, 56); stroke-linecap: round; stroke-linejoin: round; stroke-width: 0.5px; transform-origin: 210.315px 318.194px;" id="eltpgii1vwysh" class="animable"></path><path d="M200.6,342.3s8.46,1.67,8.74,0" style="fill: none; stroke: rgb(38, 50, 56); stroke-linecap: round; stroke-linejoin: round; stroke-width: 0.75px; transform-origin: 204.97px 342.671px;" id="elvjv1u4q5puj" class="animable"></path><path d="M191.19,342.54a45.06,45.06,0,0,1,14.87.7,39.35,39.35,0,0,1,6.75-1.63c1.93-.06,1.86-1.52,2.85,1.06a63.57,63.57,0,0,1,2.58,11.56c.41,4.9-1.34,11-1.12,14.64-5.57-.35-18.17-.73-22.8-.35.51-2.46-3.5-14.58-4.06-24.88A1,1,0,0,1,191.19,342.54Z" style="fill: #FFC100; transform-origin: 204.279px 355.007px;" id="elsmbv988z51l" class="animable"></path><g style="clip-path: url(&quot;#freepik--clip-path-13--inject-2&quot;); transform-origin: 205.66px 359.23px;" id="elqoxdj518ah" class="animable"><g id="el1pvsyad5763"><polygon points="220.22 352.45 190.5 355.51 190.5 353.06 220.22 350 220.22 352.45" style="fill: rgb(255, 255, 255); opacity: 0.7; transform-origin: 205.36px 352.755px;" class="animable" id="elt1x2cdziwcr"></polygon></g><g id="el9q4wsn1esdl"><polygon points="220.82 359.95 191.11 363.01 191.11 360.56 220.82 357.5 220.82 359.95" style="fill: rgb(255, 255, 255); opacity: 0.7; transform-origin: 205.965px 360.255px;" class="animable" id="elzd6ppm6frhb"></polygon></g><g id="elfodx0cu6xvh"><polygon points="203.29 368.46 220.44 366.69 220.44 364.25 190.73 367.31 190.73 368.46 203.29 368.46" style="fill: rgb(255, 255, 255); opacity: 0.7; transform-origin: 205.585px 366.355px;" class="animable" id="elpqky42tn6tk"></polygon></g></g><path d="M191.19,342.54a45.06,45.06,0,0,1,14.87.7,39.35,39.35,0,0,1,6.75-1.63c1.93-.06,1.86-1.52,2.85,1.06a63.57,63.57,0,0,1,2.58,11.56c.41,4.9-1.34,11-1.12,14.64-5.57-.35-18.17-.73-22.8-.35.51-2.46-3.5-14.58-4.06-24.88A1,1,0,0,1,191.19,342.54Z" style="fill: none; stroke: rgb(38, 50, 56); stroke-linecap: round; stroke-linejoin: round; stroke-width: 0.75px; transform-origin: 204.279px 355.007px;" id="elkyjha7mnox" class="animable"></path><path d="M202.69,320.77s3.83-1.89,4.9.36,1.53,5.3,4.06,6.53,0,3.72,0,3.72a2.14,2.14,0,0,0-1.46-2.44c-1.83-.67,1,4.51-1.91,6.09s-12.63,7.29-14.62.26c0,0-1.68,1.32-.68,2.7,0,0-3.68-.17-2.07-4s-.54-8.29,3.32-11A13.07,13.07,0,0,1,202.69,320.77Z" style="fill: rgb(38, 50, 56); stroke: rgb(38, 50, 56); stroke-linecap: round; stroke-linejoin: round; transform-origin: 201.638px 329.372px;" id="elx9pyk6uxefd" class="animable"></path><path d="M210.47,342c-.84.19-1.72.43-2.48.65l-2.42-6.19h-6.28l.67,5.88c-.82-.06-1.61-.09-2.37-.11,1.24,1.67,5,6.3,8.9,6.55S210.52,344,210.47,342Z" style="fill: rgb(153, 153, 153); stroke: rgb(38, 50, 56); stroke-linecap: round; stroke-linejoin: round; stroke-width: 0.75px; transform-origin: 204.033px 342.624px;" id="elfis3lqzciw5" class="animable"></path><path d="M196.57,331a1.17,1.17,0,0,0-2.11.09c-1.06,1.62,1.86,5,2.77,3.59a6.65,6.65,0,0,0,3,3c1.87.73,7.46,1.9,8.44-.15s0-6.56-.58-7.94-1-4.66-1.81-5.29-.58.27-2.31.5-5.26-.29-6.08.28.09,2.53-.16,3.61S197.14,331.52,196.57,331Z" style="fill: rgb(153, 153, 153); stroke: rgb(38, 50, 56); stroke-linecap: round; stroke-linejoin: round; transform-origin: 201.659px 331.38px;" id="eldz2vxy0pc0d" class="animable"></path><path d="M205.2,328.94l1.43,1.17a1.08,1.08,0,0,1,.19,1.5,2,2,0,0,0-.47.9" style="fill: none; stroke: rgb(38, 50, 56); stroke-linecap: round; stroke-linejoin: round; stroke-width: 0.5px; transform-origin: 206.12px 330.725px;" id="el07xo0bo2rwn5" class="animable"></path><path d="M203.52,328.74c.08.37,0,.71-.22.75s-.42-.23-.5-.6,0-.71.22-.76S203.45,328.36,203.52,328.74Z" style="fill: rgb(38, 50, 56); transform-origin: 203.16px 328.809px;" id="el7gkhn6aggxe" class="animable"></path><path d="M206.86,328.05c.07.38,0,.71-.23.75s-.42-.23-.5-.6,0-.71.23-.75S206.78,327.68,206.86,328.05Z" style="fill: rgb(38, 50, 56); transform-origin: 206.493px 328.125px;" id="elzp9bgfye4" class="animable"></path><path d="M201,327.1a2.13,2.13,0,0,1,2.74-.14" style="fill: none; stroke: rgb(38, 50, 56); stroke-linecap: round; stroke-linejoin: round; stroke-width: 0.5px; transform-origin: 202.37px 326.814px;" id="el7gly8drmfcv" class="animable"></path><path d="M205.2,326.8s.67-1.4,1.54-.31" style="fill: none; stroke: rgb(38, 50, 56); stroke-linecap: round; stroke-linejoin: round; stroke-width: 0.5px; transform-origin: 205.97px 326.437px;" id="el8qfqm4ocgbt" class="animable"></path><path d="M206.05,334.4s-1.6,1.2-2.32.3" style="fill: none; stroke: rgb(38, 50, 56); stroke-linecap: round; stroke-linejoin: round; stroke-width: 0.5px; transform-origin: 204.89px 334.717px;" id="elni8zis2yhd" class="animable"></path><path d="M206.34,334.71s.94,1.44-1.68,1.12" style="fill: none; stroke: rgb(38, 50, 56); stroke-linecap: round; stroke-linejoin: round; stroke-width: 0.5px; transform-origin: 205.582px 335.293px;" id="elst6sjzkusn" class="animable"></path><path d="M206,334s.21-.63-.6-.43-.68,1.1-1.19.87" style="fill: none; stroke: rgb(38, 50, 56); stroke-linecap: round; stroke-linejoin: round; stroke-width: 0.5px; transform-origin: 205.117px 334.004px;" id="elj52lewtuhp" class="animable"></path><path d="M189.33,368.46c1.33-4,2.91-11,2.91-11,.57-7.66-.34-12.32-.8-14.1a.69.69,0,0,0-1.16-.3c-3.39,3.6-6.95,24.69-6.95,24.69l-.41.71Z" style="fill: rgb(153, 153, 153); stroke: rgb(38, 50, 56); stroke-linecap: round; stroke-linejoin: round; stroke-width: 0.5px; transform-origin: 187.671px 355.656px;" id="elo9ezh8r7mdp" class="animable"></path><path d="M207.31,348.21a2.27,2.27,0,0,1,.54,4.51c-1.25.14-1.77-.82-1.92-2.06S206.07,348.36,207.31,348.21Z" style="fill: rgb(38, 50, 56); stroke: rgb(38, 50, 56); stroke-linecap: round; stroke-linejoin: round; transform-origin: 207.872px 350.464px;" id="eljwd326zccia" class="animable"></path><path d="M208.08,354.67a2.27,2.27,0,1,1,.53,4.5c-1.24.15-1.76-.81-1.91-2.05S206.83,354.81,208.08,354.67Z" style="fill: rgb(38, 50, 56); stroke: rgb(38, 50, 56); stroke-linecap: round; stroke-linejoin: round; transform-origin: 208.71px 356.909px;" id="elg89dalanx8" class="animable"></path><path d="M207.89,354.62a.92.92,0,1,1-.21-1.82" style="fill: none; stroke: rgb(38, 50, 56); stroke-linecap: round; stroke-linejoin: round; transform-origin: 207.335px 353.72px;" id="elnyzmit6j55" class="animable"></path><path d="M271.13,368.52h9.12c-.22-6.18-1.22-19-6.68-39l-5.29.91S273.24,351.22,271.13,368.52Z" style="fill: #FFC100; stroke: rgb(38, 50, 56); stroke-linecap: round; stroke-linejoin: round; stroke-width: 0.5px; transform-origin: 274.265px 349.02px;" id="elvtirabz86qm" class="animable"></path><path d="M271.14,364.09l1.19-.11c2.26-.16,4.12.06,4.15.49s-1.78.91-4,1.07c-.46,0-.9,0-1.31,0C271.14,365.09,271.14,364.59,271.14,364.09Z" style="fill: rgb(153, 153, 153); stroke: rgb(38, 50, 56); stroke-linecap: round; stroke-linejoin: round; stroke-width: 0.5px; transform-origin: 273.81px 364.734px;" id="el7ic0nhq6ui9" class="animable"></path><path d="M275.17,354.22c0-.41,1.56-.85,3.63-1,.09.52.17,1,.24,1.54C276.91,354.85,275.2,354.63,275.17,354.22Z" style="fill: rgb(153, 153, 153); stroke: rgb(38, 50, 56); stroke-linecap: round; stroke-linejoin: round; stroke-width: 0.5px; transform-origin: 277.105px 354px;" id="elh2qhwvn4j9w" class="animable"></path><path d="M275.63,340.9c-1.81.27-3.31.25-3.35,0s1.38-.76,3.19-1l.67-.09.24,1Z" style="fill: rgb(153, 153, 153); stroke: rgb(38, 50, 56); stroke-linecap: round; stroke-linejoin: round; stroke-width: 0.5px; transform-origin: 274.33px 340.453px;" id="elkfah62hrulp" class="animable"></path><path d="M274.39,350.08c0,.41-1.61.86-3.72,1l-.12-1.55C272.67,349.45,274.37,349.67,274.39,350.08Z" style="fill: rgb(153, 153, 153); stroke: rgb(38, 50, 56); stroke-linecap: round; stroke-linejoin: round; stroke-width: 0.5px; transform-origin: 272.47px 350.297px;" id="el69dadrda7lb" class="animable"></path><path d="M289.13,321.92a28,28,0,0,1,7.22,3.23s-2,.7-12.31-1.54c0,0,6.39,3.15,6.09,4.1s-9.24-2.26-9.24-2.26,4.86,3,4.35,3.84-7.06-2.26-7.06-2.26,4.11,3.08,3.53,3.88-6-2.34-6-2.34,3.12,3.17,2.75,3.74-5.3-2.84-5.3-2.84a13.78,13.78,0,0,1,6-7.14A13.16,13.16,0,0,1,289.13,321.92Z" style="fill: #FFC100; transform-origin: 284.755px 326.753px;" id="elus3stvuh3zq" class="animable"></path><g style="clip-path: url(&quot;#freepik--clip-path-14--inject-2&quot;); transform-origin: 284.755px 326.753px;" id="el0cdovxzyghkg" class="animable"><g id="elv8id4t67kxm"><path d="M289.13,321.92a28,28,0,0,1,7.22,3.23s-2,.7-12.31-1.54c0,0,6.39,3.15,6.09,4.1s-9.24-2.26-9.24-2.26,4.86,3,4.35,3.84-7.06-2.26-7.06-2.26,4.11,3.08,3.53,3.88-6-2.34-6-2.34,3.12,3.17,2.75,3.74-5.3-2.84-5.3-2.84a13.78,13.78,0,0,1,6-7.14A13.16,13.16,0,0,1,289.13,321.92Z" style="stroke: rgb(38, 50, 56); stroke-miterlimit: 10; stroke-width: 0.5px; opacity: 0.3; transform-origin: 284.755px 326.753px;" class="animable" id="elyipzgsbag2g"></path></g></g><path d="M289.13,321.92a28,28,0,0,1,7.22,3.23s-2,.7-12.31-1.54c0,0,6.39,3.15,6.09,4.1s-9.24-2.26-9.24-2.26,4.86,3,4.35,3.84-7.06-2.26-7.06-2.26,4.11,3.08,3.53,3.88-6-2.34-6-2.34,3.12,3.17,2.75,3.74-5.3-2.84-5.3-2.84a13.78,13.78,0,0,1,6-7.14A13.16,13.16,0,0,1,289.13,321.92Z" style="fill: none; stroke: rgb(38, 50, 56); stroke-linecap: round; stroke-linejoin: round; stroke-width: 0.5px; transform-origin: 284.755px 326.753px;" id="eluooxrkdgth" class="animable"></path><path d="M272.31,330.82a.55.55,0,0,0,.85-.29c.83-2.72,5.64-15,23.19-5.38,0,0-7.27-5.38-14.88-3.94-6.7,1.27-8.94,7.5-9.38,9a.6.6,0,0,0,.2.64Z" style="fill: #FFC100; stroke: rgb(38, 50, 56); stroke-linecap: round; stroke-linejoin: round; stroke-width: 0.5px; transform-origin: 284.207px 325.945px;" id="el1gv431fldxu" class="animable"></path><path d="M282.72,316a27.88,27.88,0,0,1,7.91-.17s-1.5,1.48-11.78,3.88c0,0,7.12.1,7.26,1.09s-9.32,1.91-9.32,1.91,5.68.63,5.57,1.61-7.35,1-7.35,1,5,1,4.86,2-6.47.48-6.47.48,4.18,1.52,4.08,2.2-6-.31-6-.31a13.74,13.74,0,0,1,2.37-9A13.12,13.12,0,0,1,282.72,316Z" style="fill: #FFC100; transform-origin: 281.028px 322.933px;" id="elzatzg2gosp" class="animable"></path><g style="clip-path: url(&quot;#freepik--clip-path-15--inject-2&quot;); transform-origin: 281.028px 322.933px;" id="elvk3kojtlj1r" class="animable"><g id="eldwn6i0gyl4q"><path d="M282.72,316a27.88,27.88,0,0,1,7.91-.17s-1.5,1.48-11.78,3.88c0,0,7.12.1,7.26,1.09s-9.32,1.91-9.32,1.91,5.68.63,5.57,1.61-7.35,1-7.35,1,5,1,4.86,2-6.47.48-6.47.48,4.18,1.52,4.08,2.2-6-.31-6-.31a13.74,13.74,0,0,1,2.37-9A13.12,13.12,0,0,1,282.72,316Z" style="stroke: rgb(38, 50, 56); stroke-miterlimit: 10; stroke-width: 0.5px; opacity: 0.3; transform-origin: 281.028px 322.933px;" class="animable" id="elq9uwdrd8lj8"></path></g></g><path d="M282.72,316a27.88,27.88,0,0,1,7.91-.17s-1.5,1.48-11.78,3.88c0,0,7.12.1,7.26,1.09s-9.32,1.91-9.32,1.91,5.68.63,5.57,1.61-7.35,1-7.35,1,5,1,4.86,2-6.47.48-6.47.48,4.18,1.52,4.08,2.2-6-.31-6-.31a13.74,13.74,0,0,1,2.37-9A13.12,13.12,0,0,1,282.72,316Z" style="fill: none; stroke: rgb(38, 50, 56); stroke-linecap: round; stroke-linejoin: round; stroke-width: 0.5px; transform-origin: 281.028px 322.933px;" id="el9mo9hy9cjs4" class="animable"></path><path d="M271.34,331.22a.55.55,0,0,0,.64-.63c-.42-2.81-1.32-15.95,18.65-14.78,0,0-8.87-1.75-15.13,2.8-5.52,4-4.87,10.61-4.64,12.12a.59.59,0,0,0,.45.49Z" style="fill: #FFC100; stroke: rgb(38, 50, 56); stroke-linecap: round; stroke-linejoin: round; stroke-width: 0.5px; transform-origin: 280.671px 323.354px;" id="ellbq6qwocaj" class="animable"></path><path d="M256.72,318.37a28,28,0,0,0-7.82,1.24s1.75,1.19,12.29,1.71c0,0-7,1.38-6.95,2.38s9.51.21,9.51.21-5.47,1.63-5.18,2.58,7.4-.36,7.4-.36S261.2,328,261.55,329s6.45-.69,6.45-.69-3.83,2.25-3.62,2.9,5.85-1.38,5.85-1.38a13.76,13.76,0,0,0-4-8.45A13.1,13.1,0,0,0,256.72,318.37Z" style="fill: #FFC100; transform-origin: 259.565px 324.831px;" id="elp8d2geduoxi" class="animable"></path><g style="clip-path: url(&quot;#freepik--clip-path-16--inject-2&quot;); transform-origin: 259.565px 324.831px;" id="eltsdjbcx3ad" class="animable"><g id="ela2jnrvshlma"><path d="M256.72,318.37a28,28,0,0,0-7.82,1.24s1.75,1.19,12.29,1.71c0,0-7,1.38-6.95,2.38s9.51.21,9.51.21-5.47,1.63-5.18,2.58,7.4-.36,7.4-.36S261.2,328,261.55,329s6.45-.69,6.45-.69-3.83,2.25-3.62,2.9,5.85-1.38,5.85-1.38a13.76,13.76,0,0,0-4-8.45A13.1,13.1,0,0,0,256.72,318.37Z" style="stroke: rgb(38, 50, 56); stroke-miterlimit: 10; stroke-width: 0.5px; opacity: 0.3; transform-origin: 259.565px 324.831px;" class="animable" id="elkzjpz5hrmi"></path></g></g><path d="M256.72,318.37a28,28,0,0,0-7.82,1.24s1.75,1.19,12.29,1.71c0,0-7,1.38-6.95,2.38s9.51.21,9.51.21-5.47,1.63-5.18,2.58,7.4-.36,7.4-.36S261.2,328,261.55,329s6.45-.69,6.45-.69-3.83,2.25-3.62,2.9,5.85-1.38,5.85-1.38a13.76,13.76,0,0,0-4-8.45A13.1,13.1,0,0,0,256.72,318.37Z" style="fill: none; stroke: rgb(38, 50, 56); stroke-linecap: round; stroke-linejoin: round; stroke-width: 0.5px; transform-origin: 259.565px 324.831px;" id="el5bes4n5i7x3" class="animable"></path><path d="M270.65,331.32a.55.55,0,0,1-.74-.5c-.09-2.85-1.57-15.93-21-11.21,0,0,8.42-3.31,15.4.05,6.14,3,6.69,9.56,6.73,11.09a.58.58,0,0,1-.35.56Z" style="fill: #FFC100; stroke: rgb(38, 50, 56); stroke-linecap: round; stroke-linejoin: round; stroke-width: 0.5px; transform-origin: 259.975px 324.754px;" id="elj5jtioaxh89" class="animable"></path><path d="M251.8,325.17a28.06,28.06,0,0,0-6.61,4.35s2.07.37,11.9-3.49c0,0-5.8,4.13-5.36,5s8.76-3.71,8.76-3.71-4.32,3.74-3.67,4.48,6.61-3.36,6.61-3.36-3.57,3.7-2.87,4.4,5.6-3.27,5.6-3.27-2.58,3.62-2.12,4.13,4.78-3.65,4.78-3.65a13.76,13.76,0,0,0-7.07-6.09A13.1,13.1,0,0,0,251.8,325.17Z" style="fill: #FFC100; transform-origin: 257.005px 328.612px;" id="elxgse4gh32uj" class="animable"></path><g style="clip-path: url(&quot;#freepik--clip-path-17--inject-2&quot;); transform-origin: 257.005px 328.612px;" id="el273ypxzd6cq" class="animable"><g id="el7gp1j0kcg2"><path d="M251.8,325.17a28.06,28.06,0,0,0-6.61,4.35s2.07.37,11.9-3.49c0,0-5.8,4.13-5.36,5s8.76-3.71,8.76-3.71-4.32,3.74-3.67,4.48,6.61-3.36,6.61-3.36-3.57,3.7-2.87,4.4,5.6-3.27,5.6-3.27-2.58,3.62-2.12,4.13,4.78-3.65,4.78-3.65a13.76,13.76,0,0,0-7.07-6.09A13.1,13.1,0,0,0,251.8,325.17Z" style="stroke: rgb(38, 50, 56); stroke-miterlimit: 10; stroke-width: 0.5px; opacity: 0.3; transform-origin: 257.005px 328.612px;" class="animable" id="el3u93j1o4twm"></path></g></g><path d="M251.8,325.17a28.06,28.06,0,0,0-6.61,4.35s2.07.37,11.9-3.49c0,0-5.8,4.13-5.36,5s8.76-3.71,8.76-3.71-4.32,3.74-3.67,4.48,6.61-3.36,6.61-3.36-3.57,3.7-2.87,4.4,5.6-3.27,5.6-3.27-2.58,3.62-2.12,4.13,4.78-3.65,4.78-3.65a13.76,13.76,0,0,0-7.07-6.09A13.1,13.1,0,0,0,251.8,325.17Z" style="fill: none; stroke: rgb(38, 50, 56); stroke-linecap: round; stroke-linejoin: round; stroke-width: 0.5px; transform-origin: 257.005px 328.612px;" id="elr4jffj1o2l" class="animable"></path><path d="M269.82,331.28a.55.55,0,0,1-.88-.16c-1.25-2.56-8-13.89-23.75-1.6,0,0,6.32-6.48,14.06-6.27,6.82.18,10,6,10.69,7.35a.58.58,0,0,1-.1.65Z" style="fill: #FFC100; stroke: rgb(38, 50, 56); stroke-linecap: round; stroke-linejoin: round; stroke-width: 0.5px; transform-origin: 257.594px 327.34px;" id="elxmnq9xh7lum" class="animable"></path></g><rect x="182.78" y="313.94" width="114.52" height="54.58" style="fill: none; stroke: rgb(38, 50, 56); stroke-linecap: round; stroke-linejoin: round; stroke-width: 0.75px; transform-origin: 240.04px 341.23px;" id="el7z9bwvlvkre" class="animable"></rect><g id="elzw1b8kmwao"><circle cx="197.75" cy="292.55" r="14.05" style="fill: rgb(255, 255, 255); transform-origin: 197.75px 292.55px; transform: rotate(-22.7deg);" class="animable" id="el9yxmf57exf5"></circle></g><g style="clip-path: url(&quot;#freepik--clip-path-18--inject-2&quot;); transform-origin: 197.815px 294.66px;" id="elfewqnr391sv" class="animable"><path d="M208.55,301.32a4.88,4.88,0,0,0-4.83-4.18h-2.57v-.58c1.88-1.46,2.39-4.36,2.39-7.26,0-4.11-2.59-6.66-5.79-6.66S192,285.19,192,289.3c0,2.9.51,5.8,2.39,7.26v.58h-2.58a4.87,4.87,0,0,0-4.82,4.18l0,.21c.1.1.22.18.31.29a9.44,9.44,0,0,0,3.56,3.06c1.92.77,3.88.91,5.78,1.8a5.46,5.46,0,0,1,1-.16c4.08-.28,8.83-1,11-4.8Z" style="fill: rgb(133, 133, 133); transform-origin: 197.815px 294.66px;" id="elue96d0s7ck" class="animable"></path></g><g id="elni69agyym3o"><circle cx="197.75" cy="292.55" r="14.05" style="fill: none; stroke: rgb(38, 50, 56); stroke-linecap: round; stroke-linejoin: round; stroke-width: 0.75px; transform-origin: 197.75px 292.55px; transform: rotate(-22.7deg);" class="animable" id="elqslzkr1rhm8"></circle></g><path d="M272,287.23H219.25a1.8,1.8,0,0,1-1.8-1.8h0a1.79,1.79,0,0,1,1.8-1.8H272a1.79,1.79,0,0,1,1.8,1.8h0A1.8,1.8,0,0,1,272,287.23Z" style="fill: rgb(38, 50, 56); stroke: rgb(38, 50, 56); stroke-linecap: round; stroke-linejoin: round; stroke-width: 0.75px; transform-origin: 245.625px 285.43px;" id="elu87izym8htj" class="animable"></path><path d="M258.86,294.35H219.25a1.79,1.79,0,0,1-1.8-1.8h0a1.8,1.8,0,0,1,1.8-1.8h39.61a1.81,1.81,0,0,1,1.8,1.8h0A1.8,1.8,0,0,1,258.86,294.35Z" style="fill: rgb(38, 50, 56); stroke: rgb(38, 50, 56); stroke-linecap: round; stroke-linejoin: round; stroke-width: 0.75px; transform-origin: 239.055px 292.55px;" id="elaccjbdkl6j" class="animable"></path><path d="M251.2,301.47H219.25a1.79,1.79,0,0,1-1.8-1.8h0a1.8,1.8,0,0,1,1.8-1.8H251.2a1.81,1.81,0,0,1,1.8,1.8h0A1.8,1.8,0,0,1,251.2,301.47Z" style="fill: rgb(38, 50, 56); stroke: rgb(38, 50, 56); stroke-linecap: round; stroke-linejoin: round; stroke-width: 0.75px; transform-origin: 235.225px 299.67px;" id="eld9r9i325hea" class="animable"></path></g><g id="freepik--speech-bubbles--inject-2" class="animable" style="transform-origin: 250.961px 191.237px;"><line x1="38.23" y1="264.63" x2="32.28" y2="267.41" style="fill: none; stroke: rgb(38, 50, 56); stroke-linecap: round; stroke-linejoin: round; transform-origin: 35.255px 266.02px;" id="el2ahddff1ws5" class="animable"></line><path d="M118.36,279.32l-15.85-34a9.67,9.67,0,0,0-12.85-4.68l-49.33,23" style="fill: none; stroke: rgb(38, 50, 56); stroke-linecap: round; stroke-linejoin: round; transform-origin: 79.345px 259.527px;" id="elhdlkwc7jjz4" class="animable"></path><path d="M102.77,299.82l11.9-5.55a9.65,9.65,0,0,0,4.67-12.84" style="fill: none; stroke: rgb(38, 50, 56); stroke-linecap: round; stroke-linejoin: round; transform-origin: 111.51px 290.625px;" id="el2an8auqcj7h" class="animable"></path><path d="M89.27,326.89a4.64,4.64,0,0,0,6.89-3.21l4-22.63" style="fill: none; stroke: rgb(38, 50, 56); stroke-linecap: round; stroke-linejoin: round; transform-origin: 94.715px 314.281px;" id="el8354193g4ya" class="animable"></path><path d="M29.85,268.54a9.66,9.66,0,0,0-4.67,12.85L42,317.49a9.66,9.66,0,0,0,12.85,4.67l14.52-6.77,16.42,9.49" style="fill: none; stroke: rgb(38, 50, 56); stroke-linecap: round; stroke-linejoin: round; transform-origin: 55.0298px 296.71px;" id="eljsj599emchr" class="animable"></path><path d="M48.39,278.34l-2.9,1.36a4.45,4.45,0,0,0,3.76,8.06l34.88-16.27" style="fill: none; stroke: rgb(38, 50, 56); stroke-linecap: round; stroke-linejoin: round; transform-origin: 63.5997px 279.8px;" id="elneco3rwx35o" class="animable"></path><path d="M86,270.64l6-2.78a4.45,4.45,0,1,0-3.76-8.06l-38,17.73" style="fill: none; stroke: rgb(38, 50, 56); stroke-linecap: round; stroke-linejoin: round; transform-origin: 72.4797px 268.42px;" id="eljf9dgd2f6q" class="animable"></path><path d="M82.07,292.33l2.45-1.14" style="fill: none; stroke: rgb(38, 50, 56); stroke-linecap: round; stroke-linejoin: round; transform-origin: 83.295px 291.76px;" id="el03fq9blw626r" class="animable"></path><path d="M53.1,296a4.45,4.45,0,0,0,3.76,8.06L80.22,293.2" style="fill: none; stroke: rgb(38, 50, 56); stroke-linecap: round; stroke-linejoin: round; transform-origin: 65.4496px 298.805px;" id="elh9dfhif2fvi" class="animable"></path><path d="M86.2,289.82a4.44,4.44,0,0,0-5.44-6.69L55.26,295" style="fill: none; stroke: rgb(38, 50, 56); stroke-linecap: round; stroke-linejoin: round; transform-origin: 71.1783px 288.852px;" id="el4uw00d3ntwo" class="animable"></path><path d="M438.15,152.24c.24-5.35-2.82-9.26-7.27-10.2-5.09-1.09-10.08,2.1-11.48,8.66-1,4.62-1.15,9.41,1.35,12.37l-.2.94-3.36-.72" style="fill: none; stroke: rgb(38, 50, 56); stroke-linecap: round; stroke-linejoin: round; transform-origin: 427.677px 152.92px;" id="elogk5qc2ihte" class="animable"></path><path d="M415.08,162.84a7.94,7.94,0,0,0-9.11,5l-3.8,10.3,40.24,8.55.72-10.95a8,8,0,0,0-6.28-8.3l-5.47-1.16.2-.94c3.49-1.69,5.28-6.13,6.26-10.75" style="fill: none; stroke: rgb(38, 50, 56); stroke-linecap: round; stroke-linejoin: round; transform-origin: 422.657px 170.64px;" id="elccg718fto9b" class="animable"></path><path d="M459.92,199.9a10.65,10.65,0,0,0,8.39-8.24l9.11-42.85a10.64,10.64,0,0,0-8.19-12.62" style="fill: none; stroke: rgb(38, 50, 56); stroke-linecap: round; stroke-linejoin: round; transform-origin: 468.786px 168.045px;" id="elbd8jq6viu5" class="animable"></path><polyline points="422.24 211.32 438.45 196.19 456.87 200.11" style="fill: none; stroke: rgb(38, 50, 56); stroke-linecap: round; stroke-linejoin: round; transform-origin: 439.555px 203.755px;" id="el603aaw006hq" class="animable"></polyline><path d="M379.56,157.73l-3.06,14.42a10.64,10.64,0,0,0,8.19,12.61l17.25,3.67,9.86,23.27a5.11,5.11,0,0,0,8.18,1.74" style="fill: none; stroke: rgb(38, 50, 56); stroke-linecap: round; stroke-linejoin: round; transform-origin: 398.125px 186.269px;" id="eldxag64gm1vo" class="animable"></path><line x1="380.79" y1="151.95" x2="380.19" y2="154.79" style="fill: none; stroke: rgb(38, 50, 56); stroke-linecap: round; stroke-linejoin: round; transform-origin: 380.49px 153.37px;" id="el4p06bk4rh9q" class="animable"></line><path d="M466.05,135.52,398.22,121.1a10.64,10.64,0,0,0-12.61,8.19l-4.15,19.52" style="fill: none; stroke: rgb(38, 50, 56); stroke-linecap: round; stroke-linejoin: round; transform-origin: 423.755px 134.84px;" id="el165shhhel25" class="animable"></path><path d="M100.93,106.1l-1.79,2.46L84.38,97.89m12.41-20a9.47,9.47,0,0,1,7-4.29c5.52-.87,9.74,2.19,10.61,7.66.5,3.2-.37,7-3.18,10.8l-9,12.39M82.56,96.57c-3.84-2.74-5.85-6.09-6.36-9.29-.86-5.46,2.2-9.68,7.73-10.55C89.07,75.91,91.21,78,94.77,81c.36-.56.69-1.1,1-1.61" style="fill: none; stroke: rgb(38, 50, 56); stroke-linecap: round; stroke-linejoin: round; transform-origin: 95.295px 91.0067px;" id="elyakdkkccrzq" class="animable"></path><path d="M136.92,112.14a9.65,9.65,0,0,0,4.44-9.72l-6.23-39.34a9.68,9.68,0,0,0-11.06-8" style="fill: none; stroke: rgb(38, 50, 56); stroke-linecap: round; stroke-linejoin: round; transform-origin: 132.775px 83.551px;" id="elchaev6saixl" class="animable"></path><polyline points="108.67 134.12 117.49 115.99 134.41 113.31" style="fill: none; stroke: rgb(38, 50, 56); stroke-linecap: round; stroke-linejoin: round; transform-origin: 121.54px 123.715px;" id="el7p2awym8bw6" class="animable"></polyline><path d="M55,102.54l2.09,13.23a9.68,9.68,0,0,0,11.07,8L84,121.3l16,16.53a4.63,4.63,0,0,0,7.5-1.18" style="fill: none; stroke: rgb(38, 50, 56); stroke-linecap: round; stroke-linejoin: round; transform-origin: 81.25px 120.896px;" id="elr42sp3dbdmi" class="animable"></path><line x1="54.15" y1="97.22" x2="54.56" y2="99.84" style="fill: none; stroke: rgb(38, 50, 56); stroke-linecap: round; stroke-linejoin: round; transform-origin: 54.355px 98.53px;" id="elut76s89l5ro" class="animable"></line><path d="M121.15,55.5,58.89,65.37a9.67,9.67,0,0,0-8,11.06l2.84,17.91" style="fill: none; stroke: rgb(38, 50, 56); stroke-linecap: round; stroke-linejoin: round; transform-origin: 85.9603px 74.92px;" id="eltqbx38ut4el" class="animable"></path></g><defs><clipPath id="freepik--clip-path--inject-2"><path d="M392.06,358.14,378.29,339.4s2-74.95,3.24-85.49-11.75-30.79-15.8-48.21S356,177.75,356,177.75c-1.21-43.76-5.26-38.55-5.26-38.55-28.36-5.73-32,43-29.58,59.21s5.27,43,5.27,43-19.45,3.24-31.2-10.94-39.29-28-39.29-28-27.55-20.66-40.52-30.79-36.86-25.52-47-29.17-28-6.48-32.41,4.05a17.4,17.4,0,0,0,2.83,18.23s-22.69-8.91-27.14,6.49,12.56,29.57,12.56,29.57-5.27,2.84-8.11,18.64,1.63,20.25,5.27,31.6S134.8,268.9,134.8,268.9s-6.08,10.54,0,26.74,30,40.11,30,40.11,12.16,22.28,44.57,53.88,99.25,56.12,99.25,56.12l5.85,5.78c37.43-11.63,70.38-37.52,97.62-75.43C399.53,365,392.06,358.14,392.06,358.14ZM220.49,233.66c-4,2.43-40.42-32.21-40.42-32.21l-30.68-28.87s22.78,17.32,31.29,24.92S224.44,231.23,220.49,233.66Z" style="fill:#fff"></path></clipPath><clipPath id="freepik--clip-path-2--inject-2"><rect x="177.69" y="110.19" width="124.71" height="109.63" rx="6.16" style="fill:#92E3A9;stroke:#263238;stroke-linecap:round;stroke-linejoin:round"></rect></clipPath><clipPath id="freepik--clip-path-3--inject-2"><rect x="182.78" y="149.21" width="114.52" height="64.78" style="fill:#92E3A9;stroke:#263238;stroke-linecap:round;stroke-linejoin:round;stroke-width:0.75px"></rect></clipPath><clipPath id="freepik--clip-path-4--inject-2"><path d="M240.76,185.68c1.28,1.45,3.64.59,3.64.59a3.79,3.79,0,0,0-1.21,2.4c1.42.84,3.43-.33,3.43-.33a4.14,4.14,0,0,0-.2,3.22c2-.07,3.06-2.66,3.06-2.66a3,3,0,0,0,.6,3.13c1.6-.08,2.39-2.46,2.39-2.46.35,2.34,1.4,3.08,1.4,3.08,2-1,2-3.75,2-3.75a3.66,3.66,0,0,0,1.63,2.9,4.2,4.2,0,0,0,1.1-2.2,3,3,0,0,0,1.83,0,4.55,4.55,0,0,0,.68.25,4.06,4.06,0,0,0-.76,2.53c2.15.68,4.06-1.24,4.06-1.24a3.68,3.68,0,0,0-.89,3.21,4.47,4.47,0,0,0,3.67-2.23,3.93,3.93,0,0,0,.43,3.73,5.5,5.5,0,0,0,2.85-3.93,3.25,3.25,0,0,0,1.56,2.63c1.25-1,1.24-3.15,1.24-3.15.86,1.81,1.81,2.12,1.81,2.12,1.08-.94.79-3.49.79-3.49a2.52,2.52,0,0,0,1.79,1.73,3.83,3.83,0,0,0,.54-3.79,2.73,2.73,0,0,0,2.53.89c.81-1.36-.75-3.35-.75-3.35a4,4,0,0,0,3.22-.21v-3.7c-.4-1.47-2.74-2-2.74-2a4.25,4.25,0,0,0,2.87-1.78c-1.11-1.56-4-1.51-4-1.51a4.49,4.49,0,0,0,2.67-2c-1.93-1.58-4.86-.21-4.86-.21a5.25,5.25,0,0,0,2.53-3.49c-2.08-.89-4.65,1.37-4.65,1.37s1.61-2.3,1.06-3.8a3.27,3.27,0,0,0-2.13,1.17,3,3,0,0,0-.9-.83,3.22,3.22,0,0,0-.14-.7,3.77,3.77,0,0,0,2.06-1.43s-.5-1.23-3.21-1.23c0,0,2.43-.43,3.21-2.19-1.1-.88-3.26-.54-3.26-.54a3.73,3.73,0,0,0,2.18-1.55,6.52,6.52,0,0,0-2.86-.34,3.91,3.91,0,0,0,2.42-1.89,5.26,5.26,0,0,0-3.58,0,4.06,4.06,0,0,0,2-3.14,4.86,4.86,0,0,0-3.68,1.16c1.36-2.23.87-3.49.87-3.49-1.4-.1-2.85,2.18-2.85,2.18.63-2.91-.49-4-.49-4-1.45.68-1.93,3.44-1.93,3.44s-.23-3.42-2.33-4.26a5.27,5.27,0,0,0-.68,4.26s-1.1-3-3.58-3.3a4.49,4.49,0,0,0,.48,3.3s-2-2.06-3.87-1.75a4.29,4.29,0,0,0,.77,3.3s-2.06-1.25-3.39-.49a3,3,0,0,0,1.26,2.62s-2.16-1.16-3.87,0a4,4,0,0,0,2.13,2.42s-2.51.3-2.91,1.84a2.75,2.75,0,0,0,2.42,1.16,4.51,4.51,0,0,0-1.53,1.16,2.36,2.36,0,0,0-.87-.77s-1.12,1.07-.49,4c0,0-1.45-2.27-2.86-2.18,0,0-.48,1.26.88,3.49a4.86,4.86,0,0,0-3.68-1.16,4.08,4.08,0,0,0,2,3.15,5.2,5.2,0,0,0-3.58,0,3.91,3.91,0,0,0,2.42,1.89,6.36,6.36,0,0,0-2.86.34,3.69,3.69,0,0,0,2.18,1.55s-2.16-.34-3.26.53c.78,1.77,3.21,2.19,3.21,2.19-2.71,0-3.21,1.23-3.21,1.23a4.24,4.24,0,0,0,3,1.62c-1.82.67-2.07,1.6-2.07,1.6Z" style="fill:#92E3A9;stroke:#263238;stroke-linecap:round;stroke-linejoin:round;stroke-width:0.5px"></path></clipPath><clipPath id="freepik--clip-path-5--inject-2"><path d="M209.39,181.66l2.9,32.32,31.33.25,2.66-32.57A72.75,72.75,0,0,0,209.39,181.66Z" style="fill:#92E3A9;stroke:#263238;stroke-linecap:round;stroke-linejoin:round"></path></clipPath><clipPath id="freepik--clip-path-6--inject-2"><path d="M222.73,179.38l.34-5.63H231l.33,5.52a.86.86,0,0,0,.81.8c.83.05,1.63.11,2.39.18a10,10,0,0,1-7.38,3.27,10.72,10.72,0,0,1-7.5-3.12c.77-.09,1.53-.16,2.28-.22A.87.87,0,0,0,222.73,179.38Z" style="fill:#fff;stroke:#263238;stroke-linecap:round;stroke-linejoin:round;stroke-width:0.5px"></path></clipPath><clipPath id="freepik--clip-path-7--inject-2"><circle cx="197.75" cy="129.57" r="14.05" transform="translate(-34.69 86.37) rotate(-22.7)" style="fill:#fff;stroke:#263238;stroke-linecap:round;stroke-linejoin:round;stroke-width:0.75px"></circle></clipPath><clipPath id="freepik--clip-path-8--inject-2"><rect x="177.69" y="225.82" width="124.71" height="39.74" rx="6.16" style="fill:#92E3A9;stroke:#263238;stroke-linecap:round;stroke-linejoin:round"></rect></clipPath><clipPath id="freepik--clip-path-9--inject-2"><circle cx="197.75" cy="245.69" r="14.05" transform="translate(-79.51 95.37) rotate(-22.7)" style="fill:#fff;stroke:#263238;stroke-linecap:round;stroke-linejoin:round;stroke-width:0.75px"></circle></clipPath><clipPath id="freepik--clip-path-10--inject-2"><rect x="177.69" y="272.43" width="124.71" height="101.24" rx="6.16" style="fill:#92E3A9;stroke:#263238;stroke-linecap:round;stroke-linejoin:round"></rect></clipPath><clipPath id="freepik--clip-path-11--inject-2"><rect x="182.78" y="313.94" width="114.52" height="54.58" style="fill:#bfbfbf;stroke:#263238;stroke-linecap:round;stroke-linejoin:round;stroke-width:0.75px"></rect></clipPath><clipPath id="freepik--clip-path-12--inject-2"><path d="M211.21,317.53c2.29,3.4-1.76,10.13-9.05,15s-15,6.12-17.34,2.72,1.76-10.13,9.05-15S208.92,314.12,211.21,317.53Z" style="fill:#92E3A9;stroke:#263238;stroke-linecap:round;stroke-linejoin:round;stroke-width:0.5px"></path></clipPath><clipPath id="freepik--clip-path-13--inject-2"><path d="M191.19,342.54a45.06,45.06,0,0,1,14.87.7,39.35,39.35,0,0,1,6.75-1.63c1.93-.06,1.86-1.52,2.85,1.06a63.57,63.57,0,0,1,2.58,11.56c.41,4.9-1.34,11-1.12,14.64-5.57-.35-18.17-.73-22.8-.35.51-2.46-3.5-14.58-4.06-24.88A1,1,0,0,1,191.19,342.54Z" style="fill:#92E3A9;stroke:#263238;stroke-linecap:round;stroke-linejoin:round;stroke-width:0.75px"></path></clipPath><clipPath id="freepik--clip-path-14--inject-2"><path d="M289.13,321.92a28,28,0,0,1,7.22,3.23s-2,.7-12.31-1.54c0,0,6.39,3.15,6.09,4.1s-9.24-2.26-9.24-2.26,4.86,3,4.35,3.84-7.06-2.26-7.06-2.26,4.11,3.08,3.53,3.88-6-2.34-6-2.34,3.12,3.17,2.75,3.74-5.3-2.84-5.3-2.84a13.78,13.78,0,0,1,6-7.14A13.16,13.16,0,0,1,289.13,321.92Z" style="fill:#92E3A9;stroke:#263238;stroke-linecap:round;stroke-linejoin:round;stroke-width:0.5px"></path></clipPath><clipPath id="freepik--clip-path-15--inject-2"><path d="M282.72,316a27.88,27.88,0,0,1,7.91-.17s-1.5,1.48-11.78,3.88c0,0,7.12.1,7.26,1.09s-9.32,1.91-9.32,1.91,5.68.63,5.57,1.61-7.35,1-7.35,1,5,1,4.86,2-6.47.48-6.47.48,4.18,1.52,4.08,2.2-6-.31-6-.31a13.74,13.74,0,0,1,2.37-9A13.12,13.12,0,0,1,282.72,316Z" style="fill:#92E3A9;stroke:#263238;stroke-linecap:round;stroke-linejoin:round;stroke-width:0.5px"></path></clipPath><clipPath id="freepik--clip-path-16--inject-2"><path d="M256.72,318.37a28,28,0,0,0-7.82,1.24s1.75,1.19,12.29,1.71c0,0-7,1.38-6.95,2.38s9.51.21,9.51.21-5.47,1.63-5.18,2.58,7.4-.36,7.4-.36S261.2,328,261.55,329s6.45-.69,6.45-.69-3.83,2.25-3.62,2.9,5.85-1.38,5.85-1.38a13.76,13.76,0,0,0-4-8.45A13.1,13.1,0,0,0,256.72,318.37Z" style="fill:#92E3A9;stroke:#263238;stroke-linecap:round;stroke-linejoin:round;stroke-width:0.5px"></path></clipPath><clipPath id="freepik--clip-path-17--inject-2"><path d="M251.8,325.17a28.06,28.06,0,0,0-6.61,4.35s2.07.37,11.9-3.49c0,0-5.8,4.13-5.36,5s8.76-3.71,8.76-3.71-4.32,3.74-3.67,4.48,6.61-3.36,6.61-3.36-3.57,3.7-2.87,4.4,5.6-3.27,5.6-3.27-2.58,3.62-2.12,4.13,4.78-3.65,4.78-3.65a13.76,13.76,0,0,0-7.07-6.09A13.1,13.1,0,0,0,251.8,325.17Z" style="fill:#92E3A9;stroke:#263238;stroke-linecap:round;stroke-linejoin:round;stroke-width:0.5px"></path></clipPath><clipPath id="freepik--clip-path-18--inject-2"><circle cx="197.75" cy="292.55" r="14.05" transform="translate(-97.6 99) rotate(-22.7)" style="fill:#fff;stroke:#263238;stroke-linecap:round;stroke-linejoin:round;stroke-width:0.75px"></circle></clipPath></defs><defs>     <filter id="active" height="200%">         <feMorphology in="SourceAlpha" result="DILATED" operator="dilate" radius="2"></feMorphology>                <feFlood flood-color="#32DFEC" flood-opacity="1" result="PINK"></feFlood>        <feComposite in="PINK" in2="DILATED" operator="in" result="OUTLINE"></feComposite>        <feMerge>            <feMergeNode in="OUTLINE"></feMergeNode>            <feMergeNode in="SourceGraphic"></feMergeNode>        </feMerge>    </filter>    <filter id="hover" height="200%">        <feMorphology in="SourceAlpha" result="DILATED" operator="dilate" radius="2"></feMorphology>                <feFlood flood-color="#ff0000" flood-opacity="0.5" result="PINK"></feFlood>        <feComposite in="PINK" in2="DILATED" operator="in" result="OUTLINE"></feComposite>        <feMerge>            <feMergeNode in="OUTLINE"></feMergeNode>            <feMergeNode in="SourceGraphic"></feMergeNode>        </feMerge>            <feColorMatrix type="matrix" values="0   0   0   0   0                0   1   0   0   0                0   0   0   0   0                0   0   0   1   0 "></feColorMatrix>    </filter></defs></svg>